<?xml version="1.0" encoding="utf-8" standalone="no"?>
<!DOCTYPE svg PUBLIC "-//W3C//DTD SVG 1.1//EN"
  "http://www.w3.org/Graphics/SVG/1.1/DTD/svg11.dtd">
<svg xmlns:xlink="http://www.w3.org/1999/xlink" width="475.2pt" height="312.529748pt" viewBox="0 0 475.2 312.529748" xmlns="http://www.w3.org/2000/svg" version="1.1">
 <metadata>
  <rdf:RDF xmlns:dc="http://purl.org/dc/elements/1.1/" xmlns:cc="http://creativecommons.org/ns#" xmlns:rdf="http://www.w3.org/1999/02/22-rdf-syntax-ns#">
   <cc:Work>
    <dc:type rdf:resource="http://purl.org/dc/dcmitype/StillImage"/>
    <dc:date>2026-06-27T16:59:21.871325</dc:date>
    <dc:format>image/svg+xml</dc:format>
    <dc:creator>
     <cc:Agent>
      <dc:title>Matplotlib v3.10.9, https://matplotlib.org/</dc:title>
     </cc:Agent>
    </dc:creator>
   </cc:Work>
  </rdf:RDF>
 </metadata>
 <defs>
  <style type="text/css">*{stroke-linejoin: round; stroke-linecap: butt}</style>
 </defs>
 <g id="figure_1">
  <g id="patch_1">
   <path d="M 0 312.529748 
L 475.2 312.529748 
L 475.2 0 
L 0 0 
z
" style="fill: #ffffff"/>
  </g>
  <g id="axes_1">
   <g id="PathCollection_1">
    <defs>
     <path id="C0_0_cfe4c6f30f" d="M 0 2.12132 
C 0.562581 2.12132 1.102195 1.897805 1.5 1.5 
C 1.897805 1.102195 2.12132 0.562581 2.12132 -0 
C 2.12132 -0.562581 1.897805 -1.102195 1.5 -1.5 
C 1.102195 -1.897805 0.562581 -2.12132 0 -2.12132 
C -0.562581 -2.12132 -1.102195 -1.897805 -1.5 -1.5 
C -1.897805 -1.102195 -2.12132 -0.562581 -2.12132 0 
C -2.12132 0.562581 -1.897805 1.102195 -1.5 1.5 
C -1.102195 1.897805 -0.562581 2.12132 0 2.12132 
z
"/>
    </defs>
    <g clip-path="url(#p153cd89cdb)">
     <use xlink:href="#C0_0_cfe4c6f30f" x="119.357775" y="233.836676" style="fill: #b8b8b8; fill-opacity: 0.38"/>
    </g>
    <g clip-path="url(#p153cd89cdb)">
     <use xlink:href="#C0_0_cfe4c6f30f" x="119.199714" y="222.490242" style="fill: #b8b8b8; fill-opacity: 0.38"/>
    </g>
    <g clip-path="url(#p153cd89cdb)">
     <use xlink:href="#C0_0_cfe4c6f30f" x="158.344527" y="258.538087" style="fill: #b8b8b8; fill-opacity: 0.38"/>
    </g>
    <g clip-path="url(#p153cd89cdb)">
     <use xlink:href="#C0_0_cfe4c6f30f" x="177.918135" y="237.534194" style="fill: #b8b8b8; fill-opacity: 0.38"/>
    </g>
    <g clip-path="url(#p153cd89cdb)">
     <use xlink:href="#C0_0_cfe4c6f30f" x="106.96515" y="223.290172" style="fill: #b8b8b8; fill-opacity: 0.38"/>
    </g>
    <g clip-path="url(#p153cd89cdb)">
     <use xlink:href="#C0_0_cfe4c6f30f" x="95.222725" y="198.51665" style="fill: #b8b8b8; fill-opacity: 0.38"/>
    </g>
    <g clip-path="url(#p153cd89cdb)">
     <use xlink:href="#C0_0_cfe4c6f30f" x="68.188233" y="179.594153" style="fill: #b8b8b8; fill-opacity: 0.38"/>
    </g>
    <g clip-path="url(#p153cd89cdb)">
     <use xlink:href="#C0_0_cfe4c6f30f" x="94.198671" y="189.341139" style="fill: #b8b8b8; fill-opacity: 0.38"/>
    </g>
    <g clip-path="url(#p153cd89cdb)">
     <use xlink:href="#C0_0_cfe4c6f30f" x="117.276343" y="190.613565" style="fill: #b8b8b8; fill-opacity: 0.38"/>
    </g>
    <g clip-path="url(#p153cd89cdb)">
     <use xlink:href="#C0_0_cfe4c6f30f" x="85.898871" y="160.318247" style="fill: #b8b8b8; fill-opacity: 0.38"/>
    </g>
    <g clip-path="url(#p153cd89cdb)">
     <use xlink:href="#C0_0_cfe4c6f30f" x="107.587519" y="174.062184" style="fill: #b8b8b8; fill-opacity: 0.38"/>
    </g>
    <g clip-path="url(#p153cd89cdb)">
     <use xlink:href="#C0_0_cfe4c6f30f" x="125.449021" y="168.437141" style="fill: #b8b8b8; fill-opacity: 0.38"/>
    </g>
    <g clip-path="url(#p153cd89cdb)">
     <use xlink:href="#C0_0_cfe4c6f30f" x="132.231854" y="139.590862" style="fill: #b8b8b8; fill-opacity: 0.38"/>
    </g>
    <g clip-path="url(#p153cd89cdb)">
     <use xlink:href="#C0_0_cfe4c6f30f" x="149.348729" y="129.565164" style="fill: #b8b8b8; fill-opacity: 0.38"/>
    </g>
    <g clip-path="url(#p153cd89cdb)">
     <use xlink:href="#C0_0_cfe4c6f30f" x="118.360761" y="122.88746" style="fill: #b8b8b8; fill-opacity: 0.38"/>
    </g>
    <g clip-path="url(#p153cd89cdb)">
     <use xlink:href="#C0_0_cfe4c6f30f" x="152.895647" y="103.121784" style="fill: #b8b8b8; fill-opacity: 0.38"/>
    </g>
    <g clip-path="url(#p153cd89cdb)">
     <use xlink:href="#C0_0_cfe4c6f30f" x="123.15893" y="96.825939" style="fill: #b8b8b8; fill-opacity: 0.38"/>
    </g>
    <g clip-path="url(#p153cd89cdb)">
     <use xlink:href="#C0_0_cfe4c6f30f" x="139.606984" y="86.23356" style="fill: #b8b8b8; fill-opacity: 0.38"/>
    </g>
    <g clip-path="url(#p153cd89cdb)">
     <use xlink:href="#C0_0_cfe4c6f30f" x="285.57435" y="63.246138" style="fill: #b8b8b8; fill-opacity: 0.38"/>
    </g>
    <g clip-path="url(#p153cd89cdb)">
     <use xlink:href="#C0_0_cfe4c6f30f" x="269.845148" y="75.430724" style="fill: #b8b8b8; fill-opacity: 0.38"/>
    </g>
    <g clip-path="url(#p153cd89cdb)">
     <use xlink:href="#C0_0_cfe4c6f30f" x="280.215369" y="85.389746" style="fill: #b8b8b8; fill-opacity: 0.38"/>
    </g>
    <g clip-path="url(#p153cd89cdb)">
     <use xlink:href="#C0_0_cfe4c6f30f" x="286.965859" y="82.391132" style="fill: #b8b8b8; fill-opacity: 0.38"/>
    </g>
    <g clip-path="url(#p153cd89cdb)">
     <use xlink:href="#C0_0_cfe4c6f30f" x="302.015766" y="72.219688" style="fill: #b8b8b8; fill-opacity: 0.38"/>
    </g>
    <g clip-path="url(#p153cd89cdb)">
     <use xlink:href="#C0_0_cfe4c6f30f" x="330.253878" y="68.306798" style="fill: #b8b8b8; fill-opacity: 0.38"/>
    </g>
    <g clip-path="url(#p153cd89cdb)">
     <use xlink:href="#C0_0_cfe4c6f30f" x="341.101158" y="75.393336" style="fill: #b8b8b8; fill-opacity: 0.38"/>
    </g>
    <g clip-path="url(#p153cd89cdb)">
     <use xlink:href="#C0_0_cfe4c6f30f" x="245.33345" y="72.151562" style="fill: #b8b8b8; fill-opacity: 0.38"/>
    </g>
    <g clip-path="url(#p153cd89cdb)">
     <use xlink:href="#C0_0_cfe4c6f30f" x="227.498695" y="81.553144" style="fill: #b8b8b8; fill-opacity: 0.38"/>
    </g>
    <g clip-path="url(#p153cd89cdb)">
     <use xlink:href="#C0_0_cfe4c6f30f" x="230.468483" y="67.417483" style="fill: #b8b8b8; fill-opacity: 0.38"/>
    </g>
    <g clip-path="url(#p153cd89cdb)">
     <use xlink:href="#C0_0_cfe4c6f30f" x="231.159109" y="80.882692" style="fill: #b8b8b8; fill-opacity: 0.38"/>
    </g>
    <g clip-path="url(#p153cd89cdb)">
     <use xlink:href="#C0_0_cfe4c6f30f" x="200.214029" y="73.444447" style="fill: #b8b8b8; fill-opacity: 0.38"/>
    </g>
    <g clip-path="url(#p153cd89cdb)">
     <use xlink:href="#C0_0_cfe4c6f30f" x="182.102267" y="82.279633" style="fill: #b8b8b8; fill-opacity: 0.38"/>
    </g>
    <g clip-path="url(#p153cd89cdb)">
     <use xlink:href="#C0_0_cfe4c6f30f" x="310.003704" y="68.322513" style="fill: #b8b8b8; fill-opacity: 0.38"/>
    </g>
    <g clip-path="url(#p153cd89cdb)">
     <use xlink:href="#C0_0_cfe4c6f30f" x="300.571626" y="92.807516" style="fill: #b8b8b8; fill-opacity: 0.38"/>
    </g>
    <g clip-path="url(#p153cd89cdb)">
     <use xlink:href="#C0_0_cfe4c6f30f" x="310.009156" y="99.865139" style="fill: #b8b8b8; fill-opacity: 0.38"/>
    </g>
    <g clip-path="url(#p153cd89cdb)">
     <use xlink:href="#C0_0_cfe4c6f30f" x="330.613446" y="73.613368" style="fill: #b8b8b8; fill-opacity: 0.38"/>
    </g>
    <g clip-path="url(#p153cd89cdb)">
     <use xlink:href="#C0_0_cfe4c6f30f" x="351.090781" y="92.965491" style="fill: #b8b8b8; fill-opacity: 0.38"/>
    </g>
    <g clip-path="url(#p153cd89cdb)">
     <use xlink:href="#C0_0_cfe4c6f30f" x="281.295682" y="106.129714" style="fill: #b8b8b8; fill-opacity: 0.38"/>
    </g>
    <g clip-path="url(#p153cd89cdb)">
     <use xlink:href="#C0_0_cfe4c6f30f" x="270.95655" y="128.621544" style="fill: #b8b8b8; fill-opacity: 0.38"/>
    </g>
    <g clip-path="url(#p153cd89cdb)">
     <use xlink:href="#C0_0_cfe4c6f30f" x="263.461855" y="124.731807" style="fill: #b8b8b8; fill-opacity: 0.38"/>
    </g>
    <g clip-path="url(#p153cd89cdb)">
     <use xlink:href="#C0_0_cfe4c6f30f" x="250.444075" y="139.229683" style="fill: #b8b8b8; fill-opacity: 0.38"/>
    </g>
    <g clip-path="url(#p153cd89cdb)">
     <use xlink:href="#C0_0_cfe4c6f30f" x="241.026464" y="165.429128" style="fill: #b8b8b8; fill-opacity: 0.38"/>
    </g>
    <g clip-path="url(#p153cd89cdb)">
     <use xlink:href="#C0_0_cfe4c6f30f" x="215.818986" y="174.144418" style="fill: #b8b8b8; fill-opacity: 0.38"/>
    </g>
    <g clip-path="url(#p153cd89cdb)">
     <use xlink:href="#C0_0_cfe4c6f30f" x="257.577472" y="183.830654" style="fill: #b8b8b8; fill-opacity: 0.38"/>
    </g>
    <g clip-path="url(#p153cd89cdb)">
     <use xlink:href="#C0_0_cfe4c6f30f" x="207.739736" y="198.547415" style="fill: #b8b8b8; fill-opacity: 0.38"/>
    </g>
    <g clip-path="url(#p153cd89cdb)">
     <use xlink:href="#C0_0_cfe4c6f30f" x="249.490159" y="208.363828" style="fill: #b8b8b8; fill-opacity: 0.38"/>
    </g>
    <g clip-path="url(#p153cd89cdb)">
     <use xlink:href="#C0_0_cfe4c6f30f" x="224.158307" y="215.722914" style="fill: #b8b8b8; fill-opacity: 0.38"/>
    </g>
    <g clip-path="url(#p153cd89cdb)">
     <use xlink:href="#C0_0_cfe4c6f30f" x="216.189822" y="239.403259" style="fill: #b8b8b8; fill-opacity: 0.38"/>
    </g>
    <g clip-path="url(#p153cd89cdb)">
     <use xlink:href="#C0_0_cfe4c6f30f" x="346.399611" y="257.531333" style="fill: #b8b8b8; fill-opacity: 0.38"/>
    </g>
    <g clip-path="url(#p153cd89cdb)">
     <use xlink:href="#C0_0_cfe4c6f30f" x="324.156533" y="268.401735" style="fill: #b8b8b8; fill-opacity: 0.38"/>
    </g>
    <g clip-path="url(#p153cd89cdb)">
     <use xlink:href="#C0_0_cfe4c6f30f" x="310.892412" y="253.783837" style="fill: #b8b8b8; fill-opacity: 0.38"/>
    </g>
    <g clip-path="url(#p153cd89cdb)">
     <use xlink:href="#C0_0_cfe4c6f30f" x="340.690755" y="255.503733" style="fill: #b8b8b8; fill-opacity: 0.38"/>
    </g>
    <g clip-path="url(#p153cd89cdb)">
     <use xlink:href="#C0_0_cfe4c6f30f" x="359.405276" y="239.296597" style="fill: #b8b8b8; fill-opacity: 0.38"/>
    </g>
    <g clip-path="url(#p153cd89cdb)">
     <use xlink:href="#C0_0_cfe4c6f30f" x="358.994217" y="244.362459" style="fill: #b8b8b8; fill-opacity: 0.38"/>
    </g>
    <g clip-path="url(#p153cd89cdb)">
     <use xlink:href="#C0_0_cfe4c6f30f" x="375.861447" y="221.256031" style="fill: #b8b8b8; fill-opacity: 0.38"/>
    </g>
    <g clip-path="url(#p153cd89cdb)">
     <use xlink:href="#C0_0_cfe4c6f30f" x="375.593135" y="228.877799" style="fill: #b8b8b8; fill-opacity: 0.38"/>
    </g>
    <g clip-path="url(#p153cd89cdb)">
     <use xlink:href="#C0_0_cfe4c6f30f" x="392.530558" y="205.890605" style="fill: #b8b8b8; fill-opacity: 0.38"/>
    </g>
    <g clip-path="url(#p153cd89cdb)">
     <use xlink:href="#C0_0_cfe4c6f30f" x="391.55631" y="210.107847" style="fill: #b8b8b8; fill-opacity: 0.38"/>
    </g>
    <g clip-path="url(#p153cd89cdb)">
     <use xlink:href="#C0_0_cfe4c6f30f" x="407.011767" y="194.919447" style="fill: #b8b8b8; fill-opacity: 0.38"/>
    </g>
    <g clip-path="url(#p153cd89cdb)">
     <use xlink:href="#C0_0_cfe4c6f30f" x="245.31231" y="247.477775" style="fill: #b8b8b8; fill-opacity: 0.38"/>
    </g>
   </g>
   <g id="line2d_1">
    <path d="M 310.642585 199.066753 
L 243.469003 171.286757 
" clip-path="url(#p153cd89cdb)" style="fill: none; stroke-dasharray: 4.44,1.92; stroke-dashoffset: 0; stroke: #dd6b20; stroke-opacity: 0.72; stroke-width: 1.2"/>
   </g>
   <g id="line2d_2">
    <path d="M 161.27794 166.461575 
L 131.079903 127.590503 
" clip-path="url(#p153cd89cdb)" style="fill: none; stroke-dasharray: 4.44,1.92; stroke-dashoffset: 0; stroke: #dd6b20; stroke-opacity: 0.72; stroke-width: 1.2"/>
   </g>
   <g id="line2d_3">
    <path d="M 346.076173 128.808505 
L 299.424526 74.625369 
" clip-path="url(#p153cd89cdb)" style="fill: none; stroke-dasharray: 4.44,1.92; stroke-dashoffset: 0; stroke: #dd6b20; stroke-opacity: 0.72; stroke-width: 1.2"/>
   </g>
   <g id="line2d_4">
    <path d="M 201.892888 135.327916 
L 219.462674 76.288162 
" clip-path="url(#p153cd89cdb)" style="fill: none; stroke-dasharray: 4.44,1.92; stroke-dashoffset: 0; stroke: #2b6cb0; stroke-opacity: 0.72; stroke-width: 1.2"/>
   </g>
   <g id="line2d_5">
    <path d="M 380.050676 146.244974 
L 362.099247 234.539228 
" clip-path="url(#p153cd89cdb)" style="fill: none; stroke-dasharray: 4.44,1.92; stroke-dashoffset: 0; stroke: #dd6b20; stroke-opacity: 0.72; stroke-width: 1.2"/>
   </g>
   <g id="line2d_6">
    <path d="M 360.863647 149.521694 
L 320.457749 85.514801 
" clip-path="url(#p153cd89cdb)" style="fill: none; stroke-dasharray: 4.44,1.92; stroke-dashoffset: 0; stroke: #dd6b20; stroke-opacity: 0.72; stroke-width: 1.2"/>
   </g>
   <g id="line2d_7">
    <path d="M 161.27794 166.461575 
L 94.62499 190.27899 
" clip-path="url(#p153cd89cdb)" style="fill: none; stroke-dasharray: 4.44,1.92; stroke-dashoffset: 0; stroke: #dd6b20; stroke-opacity: 0.72; stroke-width: 1.2"/>
   </g>
   <g id="line2d_8">
    <path d="M 183.413245 174.71287 
L 143.705038 238.099788 
" clip-path="url(#p153cd89cdb)" style="fill: none; stroke-dasharray: 4.44,1.92; stroke-dashoffset: 0; stroke: #dd6b20; stroke-opacity: 0.72; stroke-width: 1.2"/>
   </g>
   <g id="text_1">
    <!-- TYR65 -->
    <g style="fill: #222222" transform="translate(228.302054 173.786946) scale(0.085 -0.085)">
     <defs>
      <path id="DejaVuSans-54" d="M -19 4666 
L 3928 4666 
L 3928 4134 
L 2272 4134 
L 2272 0 
L 1638 0 
L 1638 4134 
L -19 4134 
L -19 4666 
z
" transform="scale(0.015625)"/>
      <path id="DejaVuSans-59" d="M -13 4666 
L 666 4666 
L 1959 2747 
L 3244 4666 
L 3922 4666 
L 2272 2222 
L 2272 0 
L 1638 0 
L 1638 2222 
L -13 4666 
z
" transform="scale(0.015625)"/>
      <path id="DejaVuSans-52" d="M 2841 2188 
Q 3044 2119 3236 1894 
Q 3428 1669 3622 1275 
L 4263 0 
L 3584 0 
L 2988 1197 
Q 2756 1666 2539 1819 
Q 2322 1972 1947 1972 
L 1259 1972 
L 1259 0 
L 628 0 
L 628 4666 
L 2053 4666 
Q 2853 4666 3247 4331 
Q 3641 3997 3641 3322 
Q 3641 2881 3436 2590 
Q 3231 2300 2841 2188 
z
M 1259 4147 
L 1259 2491 
L 2053 2491 
Q 2509 2491 2742 2702 
Q 2975 2913 2975 3322 
Q 2975 3731 2742 3939 
Q 2509 4147 2053 4147 
L 1259 4147 
z
" transform="scale(0.015625)"/>
      <path id="DejaVuSans-36" d="M 2113 2584 
Q 1688 2584 1439 2293 
Q 1191 2003 1191 1497 
Q 1191 994 1439 701 
Q 1688 409 2113 409 
Q 2538 409 2786 701 
Q 3034 994 3034 1497 
Q 3034 2003 2786 2293 
Q 2538 2584 2113 2584 
z
M 3366 4563 
L 3366 3988 
Q 3128 4100 2886 4159 
Q 2644 4219 2406 4219 
Q 1781 4219 1451 3797 
Q 1122 3375 1075 2522 
Q 1259 2794 1537 2939 
Q 1816 3084 2150 3084 
Q 2853 3084 3261 2657 
Q 3669 2231 3669 1497 
Q 3669 778 3244 343 
Q 2819 -91 2113 -91 
Q 1303 -91 875 529 
Q 447 1150 447 2328 
Q 447 3434 972 4092 
Q 1497 4750 2381 4750 
Q 2619 4750 2861 4703 
Q 3103 4656 3366 4563 
z
" transform="scale(0.015625)"/>
      <path id="DejaVuSans-35" d="M 691 4666 
L 3169 4666 
L 3169 4134 
L 1269 4134 
L 1269 2991 
Q 1406 3038 1543 3061 
Q 1681 3084 1819 3084 
Q 2600 3084 3056 2656 
Q 3513 2228 3513 1497 
Q 3513 744 3044 326 
Q 2575 -91 1722 -91 
Q 1428 -91 1123 -41 
Q 819 9 494 109 
L 494 744 
Q 775 591 1075 516 
Q 1375 441 1709 441 
Q 2250 441 2565 725 
Q 2881 1009 2881 1497 
Q 2881 1984 2565 2268 
Q 2250 2553 1709 2553 
Q 1456 2553 1204 2497 
Q 953 2441 691 2322 
L 691 4666 
z
" transform="scale(0.015625)"/>
     </defs>
     <use xlink:href="#DejaVuSans-54"/>
     <use xlink:href="#DejaVuSans-59" transform="translate(61.083984 0)"/>
     <use xlink:href="#DejaVuSans-52" transform="translate(122.167969 0)"/>
     <use xlink:href="#DejaVuSans-36" transform="translate(191.650391 0)"/>
     <use xlink:href="#DejaVuSans-35" transform="translate(255.273438 0)"/>
    </g>
   </g>
   <g id="text_2">
    <!-- TYR12 -->
    <g style="fill: #222222" transform="translate(118.233899 130.132298) scale(0.085 -0.085)">
     <defs>
      <path id="DejaVuSans-31" d="M 794 531 
L 1825 531 
L 1825 4091 
L 703 3866 
L 703 4441 
L 1819 4666 
L 2450 4666 
L 2450 531 
L 3481 531 
L 3481 0 
L 794 0 
L 794 531 
z
" transform="scale(0.015625)"/>
      <path id="DejaVuSans-32" d="M 1228 531 
L 3431 531 
L 3431 0 
L 469 0 
L 469 531 
Q 828 903 1448 1529 
Q 2069 2156 2228 2338 
Q 2531 2678 2651 2914 
Q 2772 3150 2772 3378 
Q 2772 3750 2511 3984 
Q 2250 4219 1831 4219 
Q 1534 4219 1204 4116 
Q 875 4013 500 3803 
L 500 4441 
Q 881 4594 1212 4672 
Q 1544 4750 1819 4750 
Q 2544 4750 2975 4387 
Q 3406 4025 3406 3419 
Q 3406 3131 3298 2873 
Q 3191 2616 2906 2266 
Q 2828 2175 2409 1742 
Q 1991 1309 1228 531 
z
" transform="scale(0.015625)"/>
     </defs>
     <use xlink:href="#DejaVuSans-54"/>
     <use xlink:href="#DejaVuSans-59" transform="translate(61.083984 0)"/>
     <use xlink:href="#DejaVuSans-52" transform="translate(122.167969 0)"/>
     <use xlink:href="#DejaVuSans-31" transform="translate(191.650391 0)"/>
     <use xlink:href="#DejaVuSans-32" transform="translate(255.273438 0)"/>
    </g>
   </g>
   <g id="text_3">
    <!-- GLN61 -->
    <g style="fill: #222222" transform="translate(285.262479 76.611342) scale(0.085 -0.085)">
     <defs>
      <path id="DejaVuSans-47" d="M 3809 666 
L 3809 1919 
L 2778 1919 
L 2778 2438 
L 4434 2438 
L 4434 434 
Q 4069 175 3628 42 
Q 3188 -91 2688 -91 
Q 1594 -91 976 548 
Q 359 1188 359 2328 
Q 359 3472 976 4111 
Q 1594 4750 2688 4750 
Q 3144 4750 3555 4637 
Q 3966 4525 4313 4306 
L 4313 3634 
Q 3963 3931 3569 4081 
Q 3175 4231 2741 4231 
Q 1884 4231 1454 3753 
Q 1025 3275 1025 2328 
Q 1025 1384 1454 906 
Q 1884 428 2741 428 
Q 3075 428 3337 486 
Q 3600 544 3809 666 
z
" transform="scale(0.015625)"/>
      <path id="DejaVuSans-4c" d="M 628 4666 
L 1259 4666 
L 1259 531 
L 3531 531 
L 3531 0 
L 628 0 
L 628 4666 
z
" transform="scale(0.015625)"/>
      <path id="DejaVuSans-4e" d="M 628 4666 
L 1478 4666 
L 3547 763 
L 3547 4666 
L 4159 4666 
L 4159 0 
L 3309 0 
L 1241 3903 
L 1241 0 
L 628 0 
L 628 4666 
z
" transform="scale(0.015625)"/>
     </defs>
     <use xlink:href="#DejaVuSans-47"/>
     <use xlink:href="#DejaVuSans-4c" transform="translate(77.490234 0)"/>
     <use xlink:href="#DejaVuSans-4e" transform="translate(133.203125 0)"/>
     <use xlink:href="#DejaVuSans-36" transform="translate(208.007812 0)"/>
     <use xlink:href="#DejaVuSans-31" transform="translate(271.630859 0)"/>
    </g>
   </g>
   <g id="text_4">
    <!-- SER62 -->
    <g style="fill: #222222" transform="translate(205.650448 78.525766) scale(0.085 -0.085)">
     <defs>
      <path id="DejaVuSans-53" d="M 3425 4513 
L 3425 3897 
Q 3066 4069 2747 4153 
Q 2428 4238 2131 4238 
Q 1616 4238 1336 4038 
Q 1056 3838 1056 3469 
Q 1056 3159 1242 3001 
Q 1428 2844 1947 2747 
L 2328 2669 
Q 3034 2534 3370 2195 
Q 3706 1856 3706 1288 
Q 3706 609 3251 259 
Q 2797 -91 1919 -91 
Q 1588 -91 1214 -16 
Q 841 59 441 206 
L 441 856 
Q 825 641 1194 531 
Q 1563 422 1919 422 
Q 2459 422 2753 634 
Q 3047 847 3047 1241 
Q 3047 1584 2836 1778 
Q 2625 1972 2144 2069 
L 1759 2144 
Q 1053 2284 737 2584 
Q 422 2884 422 3419 
Q 422 4038 858 4394 
Q 1294 4750 2059 4750 
Q 2388 4750 2728 4690 
Q 3069 4631 3425 4513 
z
" transform="scale(0.015625)"/>
      <path id="DejaVuSans-45" d="M 628 4666 
L 3578 4666 
L 3578 4134 
L 1259 4134 
L 1259 2753 
L 3481 2753 
L 3481 2222 
L 1259 2222 
L 1259 531 
L 3634 531 
L 3634 0 
L 628 0 
L 628 4666 
z
" transform="scale(0.015625)"/>
     </defs>
     <use xlink:href="#DejaVuSans-53"/>
     <use xlink:href="#DejaVuSans-45" transform="translate(63.476562 0)"/>
     <use xlink:href="#DejaVuSans-52" transform="translate(126.660156 0)"/>
     <use xlink:href="#DejaVuSans-36" transform="translate(196.142578 0)"/>
     <use xlink:href="#DejaVuSans-32" transform="translate(259.765625 0)"/>
    </g>
   </g>
   <g id="text_5">
    <!-- TYR253 -->
    <g style="fill: #222222" transform="translate(345.945797 236.965372) scale(0.085 -0.085)">
     <defs>
      <path id="DejaVuSans-33" d="M 2597 2516 
Q 3050 2419 3304 2112 
Q 3559 1806 3559 1356 
Q 3559 666 3084 287 
Q 2609 -91 1734 -91 
Q 1441 -91 1130 -33 
Q 819 25 488 141 
L 488 750 
Q 750 597 1062 519 
Q 1375 441 1716 441 
Q 2309 441 2620 675 
Q 2931 909 2931 1356 
Q 2931 1769 2642 2001 
Q 2353 2234 1838 2234 
L 1294 2234 
L 1294 2753 
L 1863 2753 
Q 2328 2753 2575 2939 
Q 2822 3125 2822 3475 
Q 2822 3834 2567 4026 
Q 2313 4219 1838 4219 
Q 1578 4219 1281 4162 
Q 984 4106 628 3988 
L 628 4550 
Q 988 4650 1302 4700 
Q 1616 4750 1894 4750 
Q 2613 4750 3031 4423 
Q 3450 4097 3450 3541 
Q 3450 3153 3228 2886 
Q 3006 2619 2597 2516 
z
" transform="scale(0.015625)"/>
     </defs>
     <use xlink:href="#DejaVuSans-54"/>
     <use xlink:href="#DejaVuSans-59" transform="translate(61.083984 0)"/>
     <use xlink:href="#DejaVuSans-52" transform="translate(122.167969 0)"/>
     <use xlink:href="#DejaVuSans-32" transform="translate(191.650391 0)"/>
     <use xlink:href="#DejaVuSans-35" transform="translate(255.273438 0)"/>
     <use xlink:href="#DejaVuSans-33" transform="translate(318.896484 0)"/>
    </g>
   </g>
   <g id="text_6">
    <!-- VAL64 -->
    <g style="fill: #222222" transform="translate(307.336525 87.484149) scale(0.085 -0.085)">
     <defs>
      <path id="DejaVuSans-56" d="M 1831 0 
L 50 4666 
L 709 4666 
L 2188 738 
L 3669 4666 
L 4325 4666 
L 2547 0 
L 1831 0 
z
" transform="scale(0.015625)"/>
      <path id="DejaVuSans-41" d="M 2188 4044 
L 1331 1722 
L 3047 1722 
L 2188 4044 
z
M 1831 4666 
L 2547 4666 
L 4325 0 
L 3669 0 
L 3244 1197 
L 1141 1197 
L 716 0 
L 50 0 
L 1831 4666 
z
" transform="scale(0.015625)"/>
      <path id="DejaVuSans-34" d="M 2419 4116 
L 825 1625 
L 2419 1625 
L 2419 4116 
z
M 2253 4666 
L 3047 4666 
L 3047 1625 
L 3713 1625 
L 3713 1100 
L 3047 1100 
L 3047 0 
L 2419 0 
L 2419 1100 
L 313 1100 
L 313 1709 
L 2253 4666 
z
" transform="scale(0.015625)"/>
     </defs>
     <use xlink:href="#DejaVuSans-56"/>
     <use xlink:href="#DejaVuSans-41" transform="translate(62.033203 0)"/>
     <use xlink:href="#DejaVuSans-4c" transform="translate(130.441406 0)"/>
     <use xlink:href="#DejaVuSans-36" transform="translate(186.154297 0)"/>
     <use xlink:href="#DejaVuSans-34" transform="translate(249.777344 0)"/>
    </g>
   </g>
   <g id="text_7">
    <!-- THR9 -->
    <g style="fill: #222222" transform="translate(84.545034 192.457727) scale(0.085 -0.085)">
     <defs>
      <path id="DejaVuSans-48" d="M 628 4666 
L 1259 4666 
L 1259 2753 
L 3553 2753 
L 3553 4666 
L 4184 4666 
L 4184 0 
L 3553 0 
L 3553 2222 
L 1259 2222 
L 1259 0 
L 628 0 
L 628 4666 
z
" transform="scale(0.015625)"/>
      <path id="DejaVuSans-39" d="M 703 97 
L 703 672 
Q 941 559 1184 500 
Q 1428 441 1663 441 
Q 2288 441 2617 861 
Q 2947 1281 2994 2138 
Q 2813 1869 2534 1725 
Q 2256 1581 1919 1581 
Q 1219 1581 811 2004 
Q 403 2428 403 3163 
Q 403 3881 828 4315 
Q 1253 4750 1959 4750 
Q 2769 4750 3195 4129 
Q 3622 3509 3622 2328 
Q 3622 1225 3098 567 
Q 2575 -91 1691 -91 
Q 1453 -91 1209 -44 
Q 966 3 703 97 
z
M 1959 2075 
Q 2384 2075 2632 2365 
Q 2881 2656 2881 3163 
Q 2881 3666 2632 3958 
Q 2384 4250 1959 4250 
Q 1534 4250 1286 3958 
Q 1038 3666 1038 3163 
Q 1038 2656 1286 2365 
Q 1534 2075 1959 2075 
z
" transform="scale(0.015625)"/>
     </defs>
     <use xlink:href="#DejaVuSans-54"/>
     <use xlink:href="#DejaVuSans-48" transform="translate(61.083984 0)"/>
     <use xlink:href="#DejaVuSans-52" transform="translate(136.279297 0)"/>
     <use xlink:href="#DejaVuSans-39" transform="translate(205.761719 0)"/>
    </g>
   </g>
   <g id="text_8">
    <!-- ILE8 -->
    <g style="fill: #222222" transform="translate(135.327803 240.11188) scale(0.085 -0.085)">
     <defs>
      <path id="DejaVuSans-49" d="M 628 4666 
L 1259 4666 
L 1259 0 
L 628 0 
L 628 4666 
z
" transform="scale(0.015625)"/>
      <path id="DejaVuSans-38" d="M 2034 2216 
Q 1584 2216 1326 1975 
Q 1069 1734 1069 1313 
Q 1069 891 1326 650 
Q 1584 409 2034 409 
Q 2484 409 2743 651 
Q 3003 894 3003 1313 
Q 3003 1734 2745 1975 
Q 2488 2216 2034 2216 
z
M 1403 2484 
Q 997 2584 770 2862 
Q 544 3141 544 3541 
Q 544 4100 942 4425 
Q 1341 4750 2034 4750 
Q 2731 4750 3128 4425 
Q 3525 4100 3525 3541 
Q 3525 3141 3298 2862 
Q 3072 2584 2669 2484 
Q 3125 2378 3379 2068 
Q 3634 1759 3634 1313 
Q 3634 634 3220 271 
Q 2806 -91 2034 -91 
Q 1263 -91 848 271 
Q 434 634 434 1313 
Q 434 1759 690 2068 
Q 947 2378 1403 2484 
z
M 1172 3481 
Q 1172 3119 1398 2916 
Q 1625 2713 2034 2713 
Q 2441 2713 2670 2916 
Q 2900 3119 2900 3481 
Q 2900 3844 2670 4047 
Q 2441 4250 2034 4250 
Q 1625 4250 1398 4047 
Q 1172 3844 1172 3481 
z
" transform="scale(0.015625)"/>
     </defs>
     <use xlink:href="#DejaVuSans-49"/>
     <use xlink:href="#DejaVuSans-4c" transform="translate(29.492188 0)"/>
     <use xlink:href="#DejaVuSans-45" transform="translate(85.205078 0)"/>
     <use xlink:href="#DejaVuSans-38" transform="translate(148.388672 0)"/>
    </g>
   </g>
   <g id="text_9">
    <!-- OPRK1 / Mol_16614 (rep3) -->
    <g transform="translate(158.661563 16.318125) scale(0.12 -0.12)">
     <defs>
      <path id="DejaVuSans-4f" d="M 2522 4238 
Q 1834 4238 1429 3725 
Q 1025 3213 1025 2328 
Q 1025 1447 1429 934 
Q 1834 422 2522 422 
Q 3209 422 3611 934 
Q 4013 1447 4013 2328 
Q 4013 3213 3611 3725 
Q 3209 4238 2522 4238 
z
M 2522 4750 
Q 3503 4750 4090 4092 
Q 4678 3434 4678 2328 
Q 4678 1225 4090 567 
Q 3503 -91 2522 -91 
Q 1538 -91 948 565 
Q 359 1222 359 2328 
Q 359 3434 948 4092 
Q 1538 4750 2522 4750 
z
" transform="scale(0.015625)"/>
      <path id="DejaVuSans-50" d="M 1259 4147 
L 1259 2394 
L 2053 2394 
Q 2494 2394 2734 2622 
Q 2975 2850 2975 3272 
Q 2975 3691 2734 3919 
Q 2494 4147 2053 4147 
L 1259 4147 
z
M 628 4666 
L 2053 4666 
Q 2838 4666 3239 4311 
Q 3641 3956 3641 3272 
Q 3641 2581 3239 2228 
Q 2838 1875 2053 1875 
L 1259 1875 
L 1259 0 
L 628 0 
L 628 4666 
z
" transform="scale(0.015625)"/>
      <path id="DejaVuSans-4b" d="M 628 4666 
L 1259 4666 
L 1259 2694 
L 3353 4666 
L 4166 4666 
L 1850 2491 
L 4331 0 
L 3500 0 
L 1259 2247 
L 1259 0 
L 628 0 
L 628 4666 
z
" transform="scale(0.015625)"/>
      <path id="DejaVuSans-20" transform="scale(0.015625)"/>
      <path id="DejaVuSans-2f" d="M 1625 4666 
L 2156 4666 
L 531 -594 
L 0 -594 
L 1625 4666 
z
" transform="scale(0.015625)"/>
      <path id="DejaVuSans-4d" d="M 628 4666 
L 1569 4666 
L 2759 1491 
L 3956 4666 
L 4897 4666 
L 4897 0 
L 4281 0 
L 4281 4097 
L 3078 897 
L 2444 897 
L 1241 4097 
L 1241 0 
L 628 0 
L 628 4666 
z
" transform="scale(0.015625)"/>
      <path id="DejaVuSans-6f" d="M 1959 3097 
Q 1497 3097 1228 2736 
Q 959 2375 959 1747 
Q 959 1119 1226 758 
Q 1494 397 1959 397 
Q 2419 397 2687 759 
Q 2956 1122 2956 1747 
Q 2956 2369 2687 2733 
Q 2419 3097 1959 3097 
z
M 1959 3584 
Q 2709 3584 3137 3096 
Q 3566 2609 3566 1747 
Q 3566 888 3137 398 
Q 2709 -91 1959 -91 
Q 1206 -91 779 398 
Q 353 888 353 1747 
Q 353 2609 779 3096 
Q 1206 3584 1959 3584 
z
" transform="scale(0.015625)"/>
      <path id="DejaVuSans-6c" d="M 603 4863 
L 1178 4863 
L 1178 0 
L 603 0 
L 603 4863 
z
" transform="scale(0.015625)"/>
      <path id="DejaVuSans-5f" d="M 3263 -1063 
L 3263 -1509 
L -63 -1509 
L -63 -1063 
L 3263 -1063 
z
" transform="scale(0.015625)"/>
      <path id="DejaVuSans-28" d="M 1984 4856 
Q 1566 4138 1362 3434 
Q 1159 2731 1159 2009 
Q 1159 1288 1364 580 
Q 1569 -128 1984 -844 
L 1484 -844 
Q 1016 -109 783 600 
Q 550 1309 550 2009 
Q 550 2706 781 3412 
Q 1013 4119 1484 4856 
L 1984 4856 
z
" transform="scale(0.015625)"/>
      <path id="DejaVuSans-72" d="M 2631 2963 
Q 2534 3019 2420 3045 
Q 2306 3072 2169 3072 
Q 1681 3072 1420 2755 
Q 1159 2438 1159 1844 
L 1159 0 
L 581 0 
L 581 3500 
L 1159 3500 
L 1159 2956 
Q 1341 3275 1631 3429 
Q 1922 3584 2338 3584 
Q 2397 3584 2469 3576 
Q 2541 3569 2628 3553 
L 2631 2963 
z
" transform="scale(0.015625)"/>
      <path id="DejaVuSans-65" d="M 3597 1894 
L 3597 1613 
L 953 1613 
Q 991 1019 1311 708 
Q 1631 397 2203 397 
Q 2534 397 2845 478 
Q 3156 559 3463 722 
L 3463 178 
Q 3153 47 2828 -22 
Q 2503 -91 2169 -91 
Q 1331 -91 842 396 
Q 353 884 353 1716 
Q 353 2575 817 3079 
Q 1281 3584 2069 3584 
Q 2775 3584 3186 3129 
Q 3597 2675 3597 1894 
z
M 3022 2063 
Q 3016 2534 2758 2815 
Q 2500 3097 2075 3097 
Q 1594 3097 1305 2825 
Q 1016 2553 972 2059 
L 3022 2063 
z
" transform="scale(0.015625)"/>
      <path id="DejaVuSans-70" d="M 1159 525 
L 1159 -1331 
L 581 -1331 
L 581 3500 
L 1159 3500 
L 1159 2969 
Q 1341 3281 1617 3432 
Q 1894 3584 2278 3584 
Q 2916 3584 3314 3078 
Q 3713 2572 3713 1747 
Q 3713 922 3314 415 
Q 2916 -91 2278 -91 
Q 1894 -91 1617 61 
Q 1341 213 1159 525 
z
M 3116 1747 
Q 3116 2381 2855 2742 
Q 2594 3103 2138 3103 
Q 1681 3103 1420 2742 
Q 1159 2381 1159 1747 
Q 1159 1113 1420 752 
Q 1681 391 2138 391 
Q 2594 391 2855 752 
Q 3116 1113 3116 1747 
z
" transform="scale(0.015625)"/>
      <path id="DejaVuSans-29" d="M 513 4856 
L 1013 4856 
Q 1481 4119 1714 3412 
Q 1947 2706 1947 2009 
Q 1947 1309 1714 600 
Q 1481 -109 1013 -844 
L 513 -844 
Q 928 -128 1133 580 
Q 1338 1288 1338 2009 
Q 1338 2731 1133 3434 
Q 928 4138 513 4856 
z
" transform="scale(0.015625)"/>
     </defs>
     <use xlink:href="#DejaVuSans-4f"/>
     <use xlink:href="#DejaVuSans-50" transform="translate(78.710938 0)"/>
     <use xlink:href="#DejaVuSans-52" transform="translate(139.013672 0)"/>
     <use xlink:href="#DejaVuSans-4b" transform="translate(208.496094 0)"/>
     <use xlink:href="#DejaVuSans-31" transform="translate(274.072266 0)"/>
     <use xlink:href="#DejaVuSans-20" transform="translate(337.695312 0)"/>
     <use xlink:href="#DejaVuSans-2f" transform="translate(369.482422 0)"/>
     <use xlink:href="#DejaVuSans-20" transform="translate(403.173828 0)"/>
     <use xlink:href="#DejaVuSans-4d" transform="translate(434.960938 0)"/>
     <use xlink:href="#DejaVuSans-6f" transform="translate(521.240234 0)"/>
     <use xlink:href="#DejaVuSans-6c" transform="translate(582.421875 0)"/>
     <use xlink:href="#DejaVuSans-5f" transform="translate(610.205078 0)"/>
     <use xlink:href="#DejaVuSans-31" transform="translate(660.205078 0)"/>
     <use xlink:href="#DejaVuSans-36" transform="translate(723.828125 0)"/>
     <use xlink:href="#DejaVuSans-36" transform="translate(787.451172 0)"/>
     <use xlink:href="#DejaVuSans-31" transform="translate(851.074219 0)"/>
     <use xlink:href="#DejaVuSans-34" transform="translate(914.697266 0)"/>
     <use xlink:href="#DejaVuSans-20" transform="translate(978.320312 0)"/>
     <use xlink:href="#DejaVuSans-28" transform="translate(1010.107422 0)"/>
     <use xlink:href="#DejaVuSans-72" transform="translate(1049.121094 0)"/>
     <use xlink:href="#DejaVuSans-65" transform="translate(1087.984375 0)"/>
     <use xlink:href="#DejaVuSans-70" transform="translate(1149.507812 0)"/>
     <use xlink:href="#DejaVuSans-33" transform="translate(1212.984375 0)"/>
     <use xlink:href="#DejaVuSans-29" transform="translate(1276.607422 0)"/>
    </g>
   </g>
   <g id="line2d_9">
    <path d="M 161.27794 166.461575 
L 183.413245 174.71287 
" clip-path="url(#p153cd89cdb)" style="fill: none; stroke: #111111; stroke-width: 2.8; stroke-linecap: round"/>
   </g>
   <g id="line2d_10">
    <path d="M 183.413245 174.71287 
L 202.845988 156.426501 
" clip-path="url(#p153cd89cdb)" style="fill: none; stroke: #111111; stroke-width: 2.8; stroke-linecap: round"/>
   </g>
   <g id="line2d_11">
    <path d="M 202.845988 156.426501 
L 201.892888 135.327916 
" clip-path="url(#p153cd89cdb)" style="fill: none; stroke: #111111; stroke-width: 2.8; stroke-linecap: round"/>
   </g>
   <g id="line2d_12">
    <path d="M 202.845988 156.426501 
L 225.446942 162.572497 
" clip-path="url(#p153cd89cdb)" style="fill: none; stroke: #111111; stroke-width: 2.8; stroke-linecap: round"/>
   </g>
   <g id="line2d_13">
    <path d="M 225.446942 162.572497 
L 230.834829 146.247256 
" clip-path="url(#p153cd89cdb)" style="fill: none; stroke: #111111; stroke-width: 2.8; stroke-linecap: round"/>
   </g>
   <g id="line2d_14">
    <path d="M 225.446942 162.572497 
L 240.423122 188.819608 
" clip-path="url(#p153cd89cdb)" style="fill: none; stroke: #111111; stroke-width: 2.8; stroke-linecap: round"/>
   </g>
   <g id="line2d_15">
    <path d="M 230.834829 146.247256 
L 252.928876 150.419306 
" clip-path="url(#p153cd89cdb)" style="fill: none; stroke: #111111; stroke-width: 2.8; stroke-linecap: round"/>
   </g>
   <g id="line2d_16">
    <path d="M 252.928876 150.419306 
L 268.706191 170.212857 
" clip-path="url(#p153cd89cdb)" style="fill: none; stroke: #111111; stroke-width: 2.8; stroke-linecap: round"/>
   </g>
   <g id="line2d_17">
    <path d="M 268.706191 170.212857 
L 268.028792 189.065045 
" clip-path="url(#p153cd89cdb)" style="fill: none; stroke: #111111; stroke-width: 2.8; stroke-linecap: round"/>
   </g>
   <g id="line2d_18">
    <path d="M 268.028792 189.065045 
L 292.367546 181.992176 
" clip-path="url(#p153cd89cdb)" style="fill: none; stroke: #111111; stroke-width: 2.8; stroke-linecap: round"/>
   </g>
   <g id="line2d_19">
    <path d="M 268.028792 189.065045 
L 240.423122 188.819608 
" clip-path="url(#p153cd89cdb)" style="fill: none; stroke: #111111; stroke-width: 2.8; stroke-linecap: round"/>
   </g>
   <g id="line2d_20">
    <path d="M 292.367546 181.992176 
L 316.694479 186.159311 
" clip-path="url(#p153cd89cdb)" style="fill: none; stroke: #111111; stroke-width: 2.8; stroke-linecap: round"/>
   </g>
   <g id="line2d_21">
    <path d="M 292.367546 181.992176 
L 289.463408 153.353546 
" clip-path="url(#p153cd89cdb)" style="fill: none; stroke: #111111; stroke-width: 2.8; stroke-linecap: round"/>
   </g>
   <g id="line2d_22">
    <path d="M 292.367546 181.992176 
L 291.950178 199.703443 
" clip-path="url(#p153cd89cdb)" style="fill: none; stroke: #111111; stroke-width: 2.8; stroke-linecap: round"/>
   </g>
   <g id="line2d_23">
    <path d="M 289.463408 153.353546 
L 310.826273 145.077433 
" clip-path="url(#p153cd89cdb)" style="fill: none; stroke: #111111; stroke-width: 2.8; stroke-linecap: round"/>
   </g>
   <g id="line2d_24">
    <path d="M 310.826273 145.077433 
L 338.352845 141.515676 
" clip-path="url(#p153cd89cdb)" style="fill: none; stroke: #111111; stroke-width: 2.8; stroke-linecap: round"/>
   </g>
   <g id="line2d_25">
    <path d="M 310.826273 145.077433 
L 312.808682 161.246362 
" clip-path="url(#p153cd89cdb)" style="fill: none; stroke: #111111; stroke-width: 2.8; stroke-linecap: round"/>
   </g>
   <g id="line2d_26">
    <path d="M 338.352845 141.515676 
L 346.076173 128.808505 
" clip-path="url(#p153cd89cdb)" style="fill: none; stroke: #111111; stroke-width: 2.8; stroke-linecap: round"/>
   </g>
   <g id="line2d_27">
    <path d="M 338.352845 141.515676 
L 360.863647 149.521694 
" clip-path="url(#p153cd89cdb)" style="fill: none; stroke: #111111; stroke-width: 2.8; stroke-linecap: round"/>
   </g>
   <g id="line2d_28">
    <path d="M 346.076173 128.808505 
L 371.816614 132.05361 
" clip-path="url(#p153cd89cdb)" style="fill: none; stroke: #111111; stroke-width: 2.8; stroke-linecap: round"/>
   </g>
   <g id="line2d_29">
    <path d="M 371.816614 132.05361 
L 380.050676 146.244974 
" clip-path="url(#p153cd89cdb)" style="fill: none; stroke: #111111; stroke-width: 2.8; stroke-linecap: round"/>
   </g>
   <g id="line2d_30">
    <path d="M 380.050676 146.244974 
L 360.863647 149.521694 
" clip-path="url(#p153cd89cdb)" style="fill: none; stroke: #111111; stroke-width: 2.8; stroke-linecap: round"/>
   </g>
   <g id="line2d_31">
    <path d="M 312.808682 161.246362 
L 306.132305 187.172054 
" clip-path="url(#p153cd89cdb)" style="fill: none; stroke: #111111; stroke-width: 2.8; stroke-linecap: round"/>
   </g>
   <g id="line2d_32">
    <path d="M 306.132305 187.172054 
L 310.642585 199.066753 
" clip-path="url(#p153cd89cdb)" style="fill: none; stroke: #111111; stroke-width: 2.8; stroke-linecap: round"/>
   </g>
   <g id="line2d_33">
    <path d="M 306.132305 187.172054 
L 291.950178 199.703443 
" clip-path="url(#p153cd89cdb)" style="fill: none; stroke: #111111; stroke-width: 2.8; stroke-linecap: round"/>
   </g>
   <g id="line2d_34">
    <path d="M 291.950178 199.703443 
L 265.736434 213.863314 
" clip-path="url(#p153cd89cdb)" style="fill: none; stroke: #111111; stroke-width: 2.8; stroke-linecap: round"/>
   </g>
   <g id="line2d_35">
    <path d="M 265.736434 213.863314 
L 243.368967 195.119021 
" clip-path="url(#p153cd89cdb)" style="fill: none; stroke: #111111; stroke-width: 2.8; stroke-linecap: round"/>
   </g>
   <g id="line2d_36">
    <path d="M 243.368967 195.119021 
L 240.423122 188.819608 
" clip-path="url(#p153cd89cdb)" style="fill: none; stroke: #111111; stroke-width: 2.8; stroke-linecap: round"/>
   </g>
   <g id="line2d_37">
    <path d="M 240.423122 188.819608 
L 225.755398 209.040338 
" clip-path="url(#p153cd89cdb)" style="fill: none; stroke: #111111; stroke-width: 2.8; stroke-linecap: round"/>
   </g>
   <g id="PathCollection_2">
    <defs>
     <path id="m311439369f" d="M 0 4.795832 
C 1.271869 4.795832 2.491818 4.290512 3.391165 3.391165 
C 4.290512 2.491818 4.795832 1.271869 4.795832 0 
C 4.795832 -1.271869 4.290512 -2.491818 3.391165 -3.391165 
C 2.491818 -4.290512 1.271869 -4.795832 0 -4.795832 
C -1.271869 -4.795832 -2.491818 -4.290512 -3.391165 -3.391165 
C -4.290512 -2.491818 -4.795832 -1.271869 -4.795832 0 
C -4.795832 1.271869 -4.290512 2.491818 -3.391165 3.391165 
C -2.491818 4.290512 -1.271869 4.795832 0 4.795832 
z
" style="stroke: #ffffff; stroke-width: 0.8"/>
    </defs>
    <g clip-path="url(#p153cd89cdb)">
     <use xlink:href="#m311439369f" x="161.27794" y="166.461575" style="fill: #4a4a4a; stroke: #ffffff; stroke-width: 0.8"/>
    </g>
   </g>
   <g id="PathCollection_3">
    <defs>
     <path id="m36317e25a1" d="M 0 4.795832 
C 1.271869 4.795832 2.491818 4.290512 3.391165 3.391165 
C 4.290512 2.491818 4.795832 1.271869 4.795832 0 
C 4.795832 -1.271869 4.290512 -2.491818 3.391165 -3.391165 
C 2.491818 -4.290512 1.271869 -4.795832 0 -4.795832 
C -1.271869 -4.795832 -2.491818 -4.290512 -3.391165 -3.391165 
C -4.290512 -2.491818 -4.795832 -1.271869 -4.795832 0 
C -4.795832 1.271869 -4.290512 2.491818 -3.391165 3.391165 
C -2.491818 4.290512 -1.271869 4.795832 0 4.795832 
z
" style="stroke: #ffffff; stroke-width: 0.8"/>
    </defs>
    <g clip-path="url(#p153cd89cdb)">
     <use xlink:href="#m36317e25a1" x="183.413245" y="174.71287" style="fill: #c53030; stroke: #ffffff; stroke-width: 0.8"/>
    </g>
   </g>
   <g id="PathCollection_4">
    <g clip-path="url(#p153cd89cdb)">
     <use xlink:href="#m311439369f" x="202.845988" y="156.426501" style="fill: #4a4a4a; stroke: #ffffff; stroke-width: 0.8"/>
    </g>
   </g>
   <g id="PathCollection_5">
    <g clip-path="url(#p153cd89cdb)">
     <use xlink:href="#m36317e25a1" x="201.892888" y="135.327916" style="fill: #c53030; stroke: #ffffff; stroke-width: 0.8"/>
    </g>
   </g>
   <g id="PathCollection_6">
    <g clip-path="url(#p153cd89cdb)">
     <use xlink:href="#m311439369f" x="225.446942" y="162.572497" style="fill: #4a4a4a; stroke: #ffffff; stroke-width: 0.8"/>
    </g>
   </g>
   <g id="PathCollection_7">
    <g clip-path="url(#p153cd89cdb)">
     <use xlink:href="#m311439369f" x="230.834829" y="146.247256" style="fill: #4a4a4a; stroke: #ffffff; stroke-width: 0.8"/>
    </g>
   </g>
   <g id="PathCollection_8">
    <g clip-path="url(#p153cd89cdb)">
     <use xlink:href="#m311439369f" x="252.928876" y="150.419306" style="fill: #4a4a4a; stroke: #ffffff; stroke-width: 0.8"/>
    </g>
   </g>
   <g id="PathCollection_9">
    <g clip-path="url(#p153cd89cdb)">
     <use xlink:href="#m311439369f" x="268.706191" y="170.212857" style="fill: #4a4a4a; stroke: #ffffff; stroke-width: 0.8"/>
    </g>
   </g>
   <g id="PathCollection_10">
    <g clip-path="url(#p153cd89cdb)">
     <use xlink:href="#m311439369f" x="268.028792" y="189.065045" style="fill: #4a4a4a; stroke: #ffffff; stroke-width: 0.8"/>
    </g>
   </g>
   <g id="PathCollection_11">
    <g clip-path="url(#p153cd89cdb)">
     <use xlink:href="#m311439369f" x="292.367546" y="181.992176" style="fill: #4a4a4a; stroke: #ffffff; stroke-width: 0.8"/>
    </g>
   </g>
   <g id="PathCollection_12">
    <g clip-path="url(#p153cd89cdb)">
     <use xlink:href="#m311439369f" x="316.694479" y="186.159311" style="fill: #4a4a4a; stroke: #ffffff; stroke-width: 0.8"/>
    </g>
   </g>
   <g id="PathCollection_13">
    <g clip-path="url(#p153cd89cdb)">
     <use xlink:href="#m311439369f" x="289.463408" y="153.353546" style="fill: #4a4a4a; stroke: #ffffff; stroke-width: 0.8"/>
    </g>
   </g>
   <g id="PathCollection_14">
    <g clip-path="url(#p153cd89cdb)">
     <use xlink:href="#m311439369f" x="310.826273" y="145.077433" style="fill: #4a4a4a; stroke: #ffffff; stroke-width: 0.8"/>
    </g>
   </g>
   <g id="PathCollection_15">
    <g clip-path="url(#p153cd89cdb)">
     <use xlink:href="#m311439369f" x="338.352845" y="141.515676" style="fill: #4a4a4a; stroke: #ffffff; stroke-width: 0.8"/>
    </g>
   </g>
   <g id="PathCollection_16">
    <g clip-path="url(#p153cd89cdb)">
     <use xlink:href="#m311439369f" x="346.076173" y="128.808505" style="fill: #4a4a4a; stroke: #ffffff; stroke-width: 0.8"/>
    </g>
   </g>
   <g id="PathCollection_17">
    <g clip-path="url(#p153cd89cdb)">
     <use xlink:href="#m311439369f" x="371.816614" y="132.05361" style="fill: #4a4a4a; stroke: #ffffff; stroke-width: 0.8"/>
    </g>
   </g>
   <g id="PathCollection_18">
    <g clip-path="url(#p153cd89cdb)">
     <use xlink:href="#m36317e25a1" x="380.050676" y="146.244974" style="fill: #c53030; stroke: #ffffff; stroke-width: 0.8"/>
    </g>
   </g>
   <g id="PathCollection_19">
    <g clip-path="url(#p153cd89cdb)">
     <use xlink:href="#m311439369f" x="360.863647" y="149.521694" style="fill: #4a4a4a; stroke: #ffffff; stroke-width: 0.8"/>
    </g>
   </g>
   <g id="PathCollection_20">
    <g clip-path="url(#p153cd89cdb)">
     <use xlink:href="#m36317e25a1" x="312.808682" y="161.246362" style="fill: #c53030; stroke: #ffffff; stroke-width: 0.8"/>
    </g>
   </g>
   <g id="PathCollection_21">
    <g clip-path="url(#p153cd89cdb)">
     <use xlink:href="#m311439369f" x="306.132305" y="187.172054" style="fill: #4a4a4a; stroke: #ffffff; stroke-width: 0.8"/>
    </g>
   </g>
   <g id="PathCollection_22">
    <g clip-path="url(#p153cd89cdb)">
     <use xlink:href="#m36317e25a1" x="310.642585" y="199.066753" style="fill: #c53030; stroke: #ffffff; stroke-width: 0.8"/>
    </g>
   </g>
   <g id="PathCollection_23">
    <g clip-path="url(#p153cd89cdb)">
     <use xlink:href="#m311439369f" x="291.950178" y="199.703443" style="fill: #4a4a4a; stroke: #ffffff; stroke-width: 0.8"/>
    </g>
   </g>
   <g id="PathCollection_24">
    <g clip-path="url(#p153cd89cdb)">
     <use xlink:href="#m311439369f" x="265.736434" y="213.863314" style="fill: #4a4a4a; stroke: #ffffff; stroke-width: 0.8"/>
    </g>
   </g>
   <g id="PathCollection_25">
    <g clip-path="url(#p153cd89cdb)">
     <use xlink:href="#m311439369f" x="243.368967" y="195.119021" style="fill: #4a4a4a; stroke: #ffffff; stroke-width: 0.8"/>
    </g>
   </g>
   <g id="PathCollection_26">
    <g clip-path="url(#p153cd89cdb)">
     <use xlink:href="#m311439369f" x="240.423122" y="188.819608" style="fill: #4a4a4a; stroke: #ffffff; stroke-width: 0.8"/>
    </g>
   </g>
   <g id="PathCollection_27">
    <g clip-path="url(#p153cd89cdb)">
     <use xlink:href="#m311439369f" x="225.755398" y="209.040338" style="fill: #4a4a4a; stroke: #ffffff; stroke-width: 0.8"/>
    </g>
   </g>
   <g id="text_10">
    <!-- O -->
    <g style="fill: #ffffff" transform="translate(180.658088 176.644432) scale(0.07 -0.07)">
     <use xlink:href="#DejaVuSans-4f"/>
    </g>
   </g>
   <g id="text_11">
    <!-- O -->
    <g style="fill: #ffffff" transform="translate(199.137732 137.259479) scale(0.07 -0.07)">
     <use xlink:href="#DejaVuSans-4f"/>
    </g>
   </g>
   <g id="text_12">
    <!-- O -->
    <g style="fill: #ffffff" transform="translate(377.29552 148.176537) scale(0.07 -0.07)">
     <use xlink:href="#DejaVuSans-4f"/>
    </g>
   </g>
   <g id="text_13">
    <!-- O -->
    <g style="fill: #ffffff" transform="translate(310.053526 163.177924) scale(0.07 -0.07)">
     <use xlink:href="#DejaVuSans-4f"/>
    </g>
   </g>
   <g id="text_14">
    <!-- O -->
    <g style="fill: #ffffff" transform="translate(307.887428 200.998315) scale(0.07 -0.07)">
     <use xlink:href="#DejaVuSans-4f"/>
    </g>
   </g>
  </g>
 </g>
 <defs>
  <clipPath id="p153cd89cdb">
   <rect x="7.2" y="26.318125" width="460.8" height="279.011623"/>
  </clipPath>
 </defs>
</svg>
