<?xml version="1.0" encoding="utf-8" standalone="no"?>
<!DOCTYPE svg PUBLIC "-//W3C//DTD SVG 1.1//EN"
  "http://www.w3.org/Graphics/SVG/1.1/DTD/svg11.dtd">
<svg xmlns:xlink="http://www.w3.org/1999/xlink" width="475.2pt" height="363.296619pt" viewBox="0 0 475.2 363.296619" xmlns="http://www.w3.org/2000/svg" version="1.1">
 <metadata>
  <rdf:RDF xmlns:dc="http://purl.org/dc/elements/1.1/" xmlns:cc="http://creativecommons.org/ns#" xmlns:rdf="http://www.w3.org/1999/02/22-rdf-syntax-ns#">
   <cc:Work>
    <dc:type rdf:resource="http://purl.org/dc/dcmitype/StillImage"/>
    <dc:date>2026-06-27T16:59:07.043734</dc:date>
    <dc:format>image/svg+xml</dc:format>
    <dc:creator>
     <cc:Agent>
      <dc:title>Matplotlib v3.10.9, https://matplotlib.org/</dc:title>
     </cc:Agent>
    </dc:creator>
   </cc:Work>
  </rdf:RDF>
 </metadata>
 <defs>
  <style type="text/css">*{stroke-linejoin: round; stroke-linecap: butt}</style>
 </defs>
 <g id="figure_1">
  <g id="patch_1">
   <path d="M 0 363.296619 
L 475.2 363.296619 
L 475.2 0 
L 0 0 
z
" style="fill: #ffffff"/>
  </g>
  <g id="axes_1">
   <g id="PathCollection_1">
    <defs>
     <path id="C0_0_d0ec380158" d="M 0 2.12132 
C 0.562581 2.12132 1.102195 1.897805 1.5 1.5 
C 1.897805 1.102195 2.12132 0.562581 2.12132 -0 
C 2.12132 -0.562581 1.897805 -1.102195 1.5 -1.5 
C 1.102195 -1.897805 0.562581 -2.12132 0 -2.12132 
C -0.562581 -2.12132 -1.102195 -1.897805 -1.5 -1.5 
C -1.897805 -1.102195 -2.12132 -0.562581 -2.12132 0 
C -2.12132 0.562581 -1.897805 1.102195 -1.5 1.5 
C -1.102195 1.897805 -0.562581 2.12132 0 2.12132 
z
"/>
    </defs>
    <g clip-path="url(#p638b78cf6b)">
     <use xlink:href="#C0_0_d0ec380158" x="349.442694" y="127.233299" style="fill: #b8b8b8; fill-opacity: 0.38"/>
    </g>
    <g clip-path="url(#p638b78cf6b)">
     <use xlink:href="#C0_0_d0ec380158" x="342.201102" y="141.901089" style="fill: #b8b8b8; fill-opacity: 0.38"/>
    </g>
    <g clip-path="url(#p638b78cf6b)">
     <use xlink:href="#C0_0_d0ec380158" x="320.712841" y="135.217995" style="fill: #b8b8b8; fill-opacity: 0.38"/>
    </g>
    <g clip-path="url(#p638b78cf6b)">
     <use xlink:href="#C0_0_d0ec380158" x="317.139625" y="143.186842" style="fill: #b8b8b8; fill-opacity: 0.38"/>
    </g>
    <g clip-path="url(#p638b78cf6b)">
     <use xlink:href="#C0_0_d0ec380158" x="309.284031" y="118.2762" style="fill: #b8b8b8; fill-opacity: 0.38"/>
    </g>
    <g clip-path="url(#p638b78cf6b)">
     <use xlink:href="#C0_0_d0ec380158" x="292.320783" y="108.86566" style="fill: #b8b8b8; fill-opacity: 0.38"/>
    </g>
    <g clip-path="url(#p638b78cf6b)">
     <use xlink:href="#C0_0_d0ec380158" x="278.911859" y="90.348617" style="fill: #b8b8b8; fill-opacity: 0.38"/>
    </g>
    <g clip-path="url(#p638b78cf6b)">
     <use xlink:href="#C0_0_d0ec380158" x="266.882406" y="96.014656" style="fill: #b8b8b8; fill-opacity: 0.38"/>
    </g>
    <g clip-path="url(#p638b78cf6b)">
     <use xlink:href="#C0_0_d0ec380158" x="244.4918" y="93.192396" style="fill: #b8b8b8; fill-opacity: 0.38"/>
    </g>
    <g clip-path="url(#p638b78cf6b)">
     <use xlink:href="#C0_0_d0ec380158" x="273.999993" y="107.986896" style="fill: #b8b8b8; fill-opacity: 0.38"/>
    </g>
    <g clip-path="url(#p638b78cf6b)">
     <use xlink:href="#C0_0_d0ec380158" x="239.858246" y="101.326391" style="fill: #b8b8b8; fill-opacity: 0.38"/>
    </g>
    <g clip-path="url(#p638b78cf6b)">
     <use xlink:href="#C0_0_d0ec380158" x="257.446072" y="111.439208" style="fill: #b8b8b8; fill-opacity: 0.38"/>
    </g>
    <g clip-path="url(#p638b78cf6b)">
     <use xlink:href="#C0_0_d0ec380158" x="114.555439" y="125.048536" style="fill: #b8b8b8; fill-opacity: 0.38"/>
    </g>
    <g clip-path="url(#p638b78cf6b)">
     <use xlink:href="#C0_0_d0ec380158" x="119.413834" y="107.15703" style="fill: #b8b8b8; fill-opacity: 0.38"/>
    </g>
    <g clip-path="url(#p638b78cf6b)">
     <use xlink:href="#C0_0_d0ec380158" x="111.997541" y="108.096519" style="fill: #b8b8b8; fill-opacity: 0.38"/>
    </g>
    <g clip-path="url(#p638b78cf6b)">
     <use xlink:href="#C0_0_d0ec380158" x="135.2527" y="137.864143" style="fill: #b8b8b8; fill-opacity: 0.38"/>
    </g>
    <g clip-path="url(#p638b78cf6b)">
     <use xlink:href="#C0_0_d0ec380158" x="132.520762" y="159.040221" style="fill: #b8b8b8; fill-opacity: 0.38"/>
    </g>
    <g clip-path="url(#p638b78cf6b)">
     <use xlink:href="#C0_0_d0ec380158" x="125.078694" y="161.746772" style="fill: #b8b8b8; fill-opacity: 0.38"/>
    </g>
    <g clip-path="url(#p638b78cf6b)">
     <use xlink:href="#C0_0_d0ec380158" x="139.657847" y="177.808831" style="fill: #b8b8b8; fill-opacity: 0.38"/>
    </g>
    <g clip-path="url(#p638b78cf6b)">
     <use xlink:href="#C0_0_d0ec380158" x="135.476908" y="198.38427" style="fill: #b8b8b8; fill-opacity: 0.38"/>
    </g>
    <g clip-path="url(#p638b78cf6b)">
     <use xlink:href="#C0_0_d0ec380158" x="127.222257" y="200.933181" style="fill: #b8b8b8; fill-opacity: 0.38"/>
    </g>
    <g clip-path="url(#p638b78cf6b)">
     <use xlink:href="#C0_0_d0ec380158" x="129.565995" y="90.361685" style="fill: #b8b8b8; fill-opacity: 0.38"/>
    </g>
    <g clip-path="url(#p638b78cf6b)">
     <use xlink:href="#C0_0_d0ec380158" x="180.637231" y="69.965277" style="fill: #b8b8b8; fill-opacity: 0.38"/>
    </g>
    <g clip-path="url(#p638b78cf6b)">
     <use xlink:href="#C0_0_d0ec380158" x="171.138762" y="81.15473" style="fill: #b8b8b8; fill-opacity: 0.38"/>
    </g>
    <g clip-path="url(#p638b78cf6b)">
     <use xlink:href="#C0_0_d0ec380158" x="299.942311" y="229.337701" style="fill: #b8b8b8; fill-opacity: 0.38"/>
    </g>
    <g clip-path="url(#p638b78cf6b)">
     <use xlink:href="#C0_0_d0ec380158" x="319.15454" y="213.737927" style="fill: #b8b8b8; fill-opacity: 0.38"/>
    </g>
    <g clip-path="url(#p638b78cf6b)">
     <use xlink:href="#C0_0_d0ec380158" x="355.478309" y="213.083263" style="fill: #b8b8b8; fill-opacity: 0.38"/>
    </g>
    <g clip-path="url(#p638b78cf6b)">
     <use xlink:href="#C0_0_d0ec380158" x="312.618082" y="174.534177" style="fill: #b8b8b8; fill-opacity: 0.38"/>
    </g>
    <g clip-path="url(#p638b78cf6b)">
     <use xlink:href="#C0_0_d0ec380158" x="290.621026" y="167.00235" style="fill: #b8b8b8; fill-opacity: 0.38"/>
    </g>
    <g clip-path="url(#p638b78cf6b)">
     <use xlink:href="#C0_0_d0ec380158" x="291.609178" y="142.336021" style="fill: #b8b8b8; fill-opacity: 0.38"/>
    </g>
    <g clip-path="url(#p638b78cf6b)">
     <use xlink:href="#C0_0_d0ec380158" x="292.150878" y="130.097039" style="fill: #b8b8b8; fill-opacity: 0.38"/>
    </g>
    <g clip-path="url(#p638b78cf6b)">
     <use xlink:href="#C0_0_d0ec380158" x="377.721287" y="232.049698" style="fill: #b8b8b8; fill-opacity: 0.38"/>
    </g>
    <g clip-path="url(#p638b78cf6b)">
     <use xlink:href="#C0_0_d0ec380158" x="381.191129" y="206.921193" style="fill: #b8b8b8; fill-opacity: 0.38"/>
    </g>
    <g clip-path="url(#p638b78cf6b)">
     <use xlink:href="#C0_0_d0ec380158" x="390.417169" y="200.018468" style="fill: #b8b8b8; fill-opacity: 0.38"/>
    </g>
    <g clip-path="url(#p638b78cf6b)">
     <use xlink:href="#C0_0_d0ec380158" x="354.582724" y="237.135356" style="fill: #b8b8b8; fill-opacity: 0.38"/>
    </g>
    <g clip-path="url(#p638b78cf6b)">
     <use xlink:href="#C0_0_d0ec380158" x="355.022696" y="257.948635" style="fill: #b8b8b8; fill-opacity: 0.38"/>
    </g>
    <g clip-path="url(#p638b78cf6b)">
     <use xlink:href="#C0_0_d0ec380158" x="337.918369" y="239.439169" style="fill: #b8b8b8; fill-opacity: 0.38"/>
    </g>
    <g clip-path="url(#p638b78cf6b)">
     <use xlink:href="#C0_0_d0ec380158" x="376.035372" y="194.239738" style="fill: #b8b8b8; fill-opacity: 0.38"/>
    </g>
    <g clip-path="url(#p638b78cf6b)">
     <use xlink:href="#C0_0_d0ec380158" x="382.66743" y="171.533257" style="fill: #b8b8b8; fill-opacity: 0.38"/>
    </g>
    <g clip-path="url(#p638b78cf6b)">
     <use xlink:href="#C0_0_d0ec380158" x="407.011753" y="169.067162" style="fill: #b8b8b8; fill-opacity: 0.38"/>
    </g>
    <g clip-path="url(#p638b78cf6b)">
     <use xlink:href="#C0_0_d0ec380158" x="376.135587" y="158.933206" style="fill: #b8b8b8; fill-opacity: 0.38"/>
    </g>
    <g clip-path="url(#p638b78cf6b)">
     <use xlink:href="#C0_0_d0ec380158" x="353.062542" y="148.486029" style="fill: #b8b8b8; fill-opacity: 0.38"/>
    </g>
    <g clip-path="url(#p638b78cf6b)">
     <use xlink:href="#C0_0_d0ec380158" x="343.430179" y="151.130737" style="fill: #b8b8b8; fill-opacity: 0.38"/>
    </g>
    <g clip-path="url(#p638b78cf6b)">
     <use xlink:href="#C0_0_d0ec380158" x="344.301677" y="138.928134" style="fill: #b8b8b8; fill-opacity: 0.38"/>
    </g>
    <g clip-path="url(#p638b78cf6b)">
     <use xlink:href="#C0_0_d0ec380158" x="107.5916" y="257.859639" style="fill: #b8b8b8; fill-opacity: 0.38"/>
    </g>
    <g clip-path="url(#p638b78cf6b)">
     <use xlink:href="#C0_0_d0ec380158" x="132.182523" y="256.611954" style="fill: #b8b8b8; fill-opacity: 0.38"/>
    </g>
    <g clip-path="url(#p638b78cf6b)">
     <use xlink:href="#C0_0_d0ec380158" x="95.991917" y="211.222087" style="fill: #b8b8b8; fill-opacity: 0.38"/>
    </g>
    <g clip-path="url(#p638b78cf6b)">
     <use xlink:href="#C0_0_d0ec380158" x="100.244785" y="188.877708" style="fill: #b8b8b8; fill-opacity: 0.38"/>
    </g>
    <g clip-path="url(#p638b78cf6b)">
     <use xlink:href="#C0_0_d0ec380158" x="91.004028" y="172.867128" style="fill: #b8b8b8; fill-opacity: 0.38"/>
    </g>
    <g clip-path="url(#p638b78cf6b)">
     <use xlink:href="#C0_0_d0ec380158" x="68.188231" y="171.79391" style="fill: #b8b8b8; fill-opacity: 0.38"/>
    </g>
    <g clip-path="url(#p638b78cf6b)">
     <use xlink:href="#C0_0_d0ec380158" x="161.565306" y="187.015816" style="fill: #b8b8b8; fill-opacity: 0.38"/>
    </g>
    <g clip-path="url(#p638b78cf6b)">
     <use xlink:href="#C0_0_d0ec380158" x="182.179801" y="176.05212" style="fill: #b8b8b8; fill-opacity: 0.38"/>
    </g>
    <g clip-path="url(#p638b78cf6b)">
     <use xlink:href="#C0_0_d0ec380158" x="180.877242" y="158.144856" style="fill: #b8b8b8; fill-opacity: 0.38"/>
    </g>
    <g clip-path="url(#p638b78cf6b)">
     <use xlink:href="#C0_0_d0ec380158" x="202.152661" y="184.233698" style="fill: #b8b8b8; fill-opacity: 0.38"/>
    </g>
    <g clip-path="url(#p638b78cf6b)">
     <use xlink:href="#C0_0_d0ec380158" x="200.628606" y="147.377228" style="fill: #b8b8b8; fill-opacity: 0.38"/>
    </g>
    <g clip-path="url(#p638b78cf6b)">
     <use xlink:href="#C0_0_d0ec380158" x="220.84716" y="174.194108" style="fill: #b8b8b8; fill-opacity: 0.38"/>
    </g>
    <g clip-path="url(#p638b78cf6b)">
     <use xlink:href="#C0_0_d0ec380158" x="220.13965" y="156.50607" style="fill: #b8b8b8; fill-opacity: 0.38"/>
    </g>
    <g clip-path="url(#p638b78cf6b)">
     <use xlink:href="#C0_0_d0ec380158" x="239.187416" y="146.496707" style="fill: #b8b8b8; fill-opacity: 0.38"/>
    </g>
    <g clip-path="url(#p638b78cf6b)">
     <use xlink:href="#C0_0_d0ec380158" x="218.041694" y="271.257973" style="fill: #b8b8b8; fill-opacity: 0.38"/>
    </g>
    <g clip-path="url(#p638b78cf6b)">
     <use xlink:href="#C0_0_d0ec380158" x="199.792137" y="289.298068" style="fill: #b8b8b8; fill-opacity: 0.38"/>
    </g>
    <g clip-path="url(#p638b78cf6b)">
     <use xlink:href="#C0_0_d0ec380158" x="186.433847" y="288.261029" style="fill: #b8b8b8; fill-opacity: 0.38"/>
    </g>
    <g clip-path="url(#p638b78cf6b)">
     <use xlink:href="#C0_0_d0ec380158" x="209.63893" y="254.698301" style="fill: #b8b8b8; fill-opacity: 0.38"/>
    </g>
    <g clip-path="url(#p638b78cf6b)">
     <use xlink:href="#C0_0_d0ec380158" x="226.398568" y="236.348123" style="fill: #b8b8b8; fill-opacity: 0.38"/>
    </g>
    <g clip-path="url(#p638b78cf6b)">
     <use xlink:href="#C0_0_d0ec380158" x="243.388681" y="241.843706" style="fill: #b8b8b8; fill-opacity: 0.38"/>
    </g>
    <g clip-path="url(#p638b78cf6b)">
     <use xlink:href="#C0_0_d0ec380158" x="255.466167" y="224.196199" style="fill: #b8b8b8; fill-opacity: 0.38"/>
    </g>
    <g clip-path="url(#p638b78cf6b)">
     <use xlink:href="#C0_0_d0ec380158" x="206.854182" y="311.936581" style="fill: #b8b8b8; fill-opacity: 0.38"/>
    </g>
    <g clip-path="url(#p638b78cf6b)">
     <use xlink:href="#C0_0_d0ec380158" x="182.078831" y="312.44946" style="fill: #b8b8b8; fill-opacity: 0.38"/>
    </g>
    <g clip-path="url(#p638b78cf6b)">
     <use xlink:href="#C0_0_d0ec380158" x="214.240744" y="288.07947" style="fill: #b8b8b8; fill-opacity: 0.38"/>
    </g>
    <g clip-path="url(#p638b78cf6b)">
     <use xlink:href="#C0_0_d0ec380158" x="236.463528" y="284.269856" style="fill: #b8b8b8; fill-opacity: 0.38"/>
    </g>
   </g>
   <g id="line2d_1">
    <path d="M 303.85328 153.677467 
L 368.949211 161.759755 
" clip-path="url(#p638b78cf6b)" style="fill: none; stroke-dasharray: 4.44,1.92; stroke-dashoffset: 0; stroke: #2b6cb0; stroke-opacity: 0.72; stroke-width: 1.2"/>
   </g>
   <g id="line2d_2">
    <path d="M 115.139762 143.285034 
L 126.797334 152.897726 
" clip-path="url(#p638b78cf6b)" style="fill: none; stroke-dasharray: 4.44,1.92; stroke-dashoffset: 0; stroke: #2b6cb0; stroke-opacity: 0.72; stroke-width: 1.2"/>
   </g>
   <g id="line2d_3">
    <path d="M 261.241947 154.077764 
L 270.399397 103.431257 
" clip-path="url(#p638b78cf6b)" style="fill: none; stroke-dasharray: 4.44,1.92; stroke-dashoffset: 0; stroke: #2b6cb0; stroke-opacity: 0.72; stroke-width: 1.2"/>
   </g>
   <g id="line2d_4">
    <path d="M 115.139762 143.285034 
L 88.857244 186.190202 
" clip-path="url(#p638b78cf6b)" style="fill: none; stroke-dasharray: 4.44,1.92; stroke-dashoffset: 0; stroke: #dd6b20; stroke-opacity: 0.72; stroke-width: 1.2"/>
   </g>
   <g id="line2d_5">
    <path d="M 331.783417 185.252921 
L 366.142239 228.91875 
" clip-path="url(#p638b78cf6b)" style="fill: none; stroke-dasharray: 4.44,1.92; stroke-dashoffset: 0; stroke: #dd6b20; stroke-opacity: 0.72; stroke-width: 1.2"/>
   </g>
   <g id="line2d_6">
    <path d="M 331.783417 185.252921 
L 332.374066 136.884817 
" clip-path="url(#p638b78cf6b)" style="fill: none; stroke-dasharray: 4.44,1.92; stroke-dashoffset: 0; stroke: #dd6b20; stroke-opacity: 0.72; stroke-width: 1.2"/>
   </g>
   <g id="line2d_7">
    <path d="M 173.864328 140.693583 
L 200.947227 166.252572 
" clip-path="url(#p638b78cf6b)" style="fill: none; stroke-dasharray: 4.44,1.92; stroke-dashoffset: 0; stroke: #dd6b20; stroke-opacity: 0.72; stroke-width: 1.2"/>
   </g>
   <g id="line2d_8">
    <path d="M 183.813247 236.696425 
L 119.887054 257.235804 
" clip-path="url(#p638b78cf6b)" style="fill: none; stroke-dasharray: 4.44,1.92; stroke-dashoffset: 0; stroke: #dd6b20; stroke-opacity: 0.72; stroke-width: 1.2"/>
   </g>
   <g id="text_1">
    <!-- ASP138 -->
    <g style="fill: #222222" transform="translate(351.628965 164.269947) scale(0.085 -0.085)">
     <defs>
      <path id="DejaVuSans-41" d="M 2188 4044 
L 1331 1722 
L 3047 1722 
L 2188 4044 
z
M 1831 4666 
L 2547 4666 
L 4325 0 
L 3669 0 
L 3244 1197 
L 1141 1197 
L 716 0 
L 50 0 
L 1831 4666 
z
" transform="scale(0.015625)"/>
      <path id="DejaVuSans-53" d="M 3425 4513 
L 3425 3897 
Q 3066 4069 2747 4153 
Q 2428 4238 2131 4238 
Q 1616 4238 1336 4038 
Q 1056 3838 1056 3469 
Q 1056 3159 1242 3001 
Q 1428 2844 1947 2747 
L 2328 2669 
Q 3034 2534 3370 2195 
Q 3706 1856 3706 1288 
Q 3706 609 3251 259 
Q 2797 -91 1919 -91 
Q 1588 -91 1214 -16 
Q 841 59 441 206 
L 441 856 
Q 825 641 1194 531 
Q 1563 422 1919 422 
Q 2459 422 2753 634 
Q 3047 847 3047 1241 
Q 3047 1584 2836 1778 
Q 2625 1972 2144 2069 
L 1759 2144 
Q 1053 2284 737 2584 
Q 422 2884 422 3419 
Q 422 4038 858 4394 
Q 1294 4750 2059 4750 
Q 2388 4750 2728 4690 
Q 3069 4631 3425 4513 
z
" transform="scale(0.015625)"/>
      <path id="DejaVuSans-50" d="M 1259 4147 
L 1259 2394 
L 2053 2394 
Q 2494 2394 2734 2622 
Q 2975 2850 2975 3272 
Q 2975 3691 2734 3919 
Q 2494 4147 2053 4147 
L 1259 4147 
z
M 628 4666 
L 2053 4666 
Q 2838 4666 3239 4311 
Q 3641 3956 3641 3272 
Q 3641 2581 3239 2228 
Q 2838 1875 2053 1875 
L 1259 1875 
L 1259 0 
L 628 0 
L 628 4666 
z
" transform="scale(0.015625)"/>
      <path id="DejaVuSans-31" d="M 794 531 
L 1825 531 
L 1825 4091 
L 703 3866 
L 703 4441 
L 1819 4666 
L 2450 4666 
L 2450 531 
L 3481 531 
L 3481 0 
L 794 0 
L 794 531 
z
" transform="scale(0.015625)"/>
      <path id="DejaVuSans-33" d="M 2597 2516 
Q 3050 2419 3304 2112 
Q 3559 1806 3559 1356 
Q 3559 666 3084 287 
Q 2609 -91 1734 -91 
Q 1441 -91 1130 -33 
Q 819 25 488 141 
L 488 750 
Q 750 597 1062 519 
Q 1375 441 1716 441 
Q 2309 441 2620 675 
Q 2931 909 2931 1356 
Q 2931 1769 2642 2001 
Q 2353 2234 1838 2234 
L 1294 2234 
L 1294 2753 
L 1863 2753 
Q 2328 2753 2575 2939 
Q 2822 3125 2822 3475 
Q 2822 3834 2567 4026 
Q 2313 4219 1838 4219 
Q 1578 4219 1281 4162 
Q 984 4106 628 3988 
L 628 4550 
Q 988 4650 1302 4700 
Q 1616 4750 1894 4750 
Q 2613 4750 3031 4423 
Q 3450 4097 3450 3541 
Q 3450 3153 3228 2886 
Q 3006 2619 2597 2516 
z
" transform="scale(0.015625)"/>
      <path id="DejaVuSans-38" d="M 2034 2216 
Q 1584 2216 1326 1975 
Q 1069 1734 1069 1313 
Q 1069 891 1326 650 
Q 1584 409 2034 409 
Q 2484 409 2743 651 
Q 3003 894 3003 1313 
Q 3003 1734 2745 1975 
Q 2488 2216 2034 2216 
z
M 1403 2484 
Q 997 2584 770 2862 
Q 544 3141 544 3541 
Q 544 4100 942 4425 
Q 1341 4750 2034 4750 
Q 2731 4750 3128 4425 
Q 3525 4100 3525 3541 
Q 3525 3141 3298 2862 
Q 3072 2584 2669 2484 
Q 3125 2378 3379 2068 
Q 3634 1759 3634 1313 
Q 3634 634 3220 271 
Q 2806 -91 2034 -91 
Q 1263 -91 848 271 
Q 434 634 434 1313 
Q 434 1759 690 2068 
Q 947 2378 1403 2484 
z
M 1172 3481 
Q 1172 3119 1398 2916 
Q 1625 2713 2034 2713 
Q 2441 2713 2670 2916 
Q 2900 3119 2900 3481 
Q 2900 3844 2670 4047 
Q 2441 4250 2034 4250 
Q 1625 4250 1398 4047 
Q 1172 3844 1172 3481 
z
" transform="scale(0.015625)"/>
     </defs>
     <use xlink:href="#DejaVuSans-41"/>
     <use xlink:href="#DejaVuSans-53" transform="translate(68.408203 0)"/>
     <use xlink:href="#DejaVuSans-50" transform="translate(131.884766 0)"/>
     <use xlink:href="#DejaVuSans-31" transform="translate(192.1875 0)"/>
     <use xlink:href="#DejaVuSans-33" transform="translate(255.810547 0)"/>
     <use xlink:href="#DejaVuSans-38" transform="translate(319.433594 0)"/>
    </g>
   </g>
   <g id="text_2">
    <!-- PHE78 -->
    <g style="fill: #222222" transform="translate(112.997848 155.261263) scale(0.085 -0.085)">
     <defs>
      <path id="DejaVuSans-48" d="M 628 4666 
L 1259 4666 
L 1259 2753 
L 3553 2753 
L 3553 4666 
L 4184 4666 
L 4184 0 
L 3553 0 
L 3553 2222 
L 1259 2222 
L 1259 0 
L 628 0 
L 628 4666 
z
" transform="scale(0.015625)"/>
      <path id="DejaVuSans-45" d="M 628 4666 
L 3578 4666 
L 3578 4134 
L 1259 4134 
L 1259 2753 
L 3481 2753 
L 3481 2222 
L 1259 2222 
L 1259 531 
L 3634 531 
L 3634 0 
L 628 0 
L 628 4666 
z
" transform="scale(0.015625)"/>
      <path id="DejaVuSans-37" d="M 525 4666 
L 3525 4666 
L 3525 4397 
L 1831 0 
L 1172 0 
L 2766 4134 
L 525 4134 
L 525 4666 
z
" transform="scale(0.015625)"/>
     </defs>
     <use xlink:href="#DejaVuSans-50"/>
     <use xlink:href="#DejaVuSans-48" transform="translate(60.302734 0)"/>
     <use xlink:href="#DejaVuSans-45" transform="translate(135.498047 0)"/>
     <use xlink:href="#DejaVuSans-37" transform="translate(198.681641 0)"/>
     <use xlink:href="#DejaVuSans-38" transform="translate(262.304688 0)"/>
    </g>
   </g>
   <g id="text_3">
    <!-- HIS60 -->
    <g style="fill: #222222" transform="translate(257.859291 105.750174) scale(0.085 -0.085)">
     <defs>
      <path id="DejaVuSans-49" d="M 628 4666 
L 1259 4666 
L 1259 0 
L 628 0 
L 628 4666 
z
" transform="scale(0.015625)"/>
      <path id="DejaVuSans-36" d="M 2113 2584 
Q 1688 2584 1439 2293 
Q 1191 2003 1191 1497 
Q 1191 994 1439 701 
Q 1688 409 2113 409 
Q 2538 409 2786 701 
Q 3034 994 3034 1497 
Q 3034 2003 2786 2293 
Q 2538 2584 2113 2584 
z
M 3366 4563 
L 3366 3988 
Q 3128 4100 2886 4159 
Q 2644 4219 2406 4219 
Q 1781 4219 1451 3797 
Q 1122 3375 1075 2522 
Q 1259 2794 1537 2939 
Q 1816 3084 2150 3084 
Q 2853 3084 3261 2657 
Q 3669 2231 3669 1497 
Q 3669 778 3244 343 
Q 2819 -91 2113 -91 
Q 1303 -91 875 529 
Q 447 1150 447 2328 
Q 447 3434 972 4092 
Q 1497 4750 2381 4750 
Q 2619 4750 2861 4703 
Q 3103 4656 3366 4563 
z
" transform="scale(0.015625)"/>
      <path id="DejaVuSans-30" d="M 2034 4250 
Q 1547 4250 1301 3770 
Q 1056 3291 1056 2328 
Q 1056 1369 1301 889 
Q 1547 409 2034 409 
Q 2525 409 2770 889 
Q 3016 1369 3016 2328 
Q 3016 3291 2770 3770 
Q 2525 4250 2034 4250 
z
M 2034 4750 
Q 2819 4750 3233 4129 
Q 3647 3509 3647 2328 
Q 3647 1150 3233 529 
Q 2819 -91 2034 -91 
Q 1250 -91 836 529 
Q 422 1150 422 2328 
Q 422 3509 836 4129 
Q 1250 4750 2034 4750 
z
" transform="scale(0.015625)"/>
     </defs>
     <use xlink:href="#DejaVuSans-48"/>
     <use xlink:href="#DejaVuSans-49" transform="translate(75.195312 0)"/>
     <use xlink:href="#DejaVuSans-53" transform="translate(104.6875 0)"/>
     <use xlink:href="#DejaVuSans-36" transform="translate(168.164062 0)"/>
     <use xlink:href="#DejaVuSans-30" transform="translate(231.787109 0)"/>
    </g>
   </g>
   <g id="text_4">
    <!-- SER267 -->
    <g style="fill: #222222" transform="translate(73.115915 188.530175) scale(0.085 -0.085)">
     <defs>
      <path id="DejaVuSans-52" d="M 2841 2188 
Q 3044 2119 3236 1894 
Q 3428 1669 3622 1275 
L 4263 0 
L 3584 0 
L 2988 1197 
Q 2756 1666 2539 1819 
Q 2322 1972 1947 1972 
L 1259 1972 
L 1259 0 
L 628 0 
L 628 4666 
L 2053 4666 
Q 2853 4666 3247 4331 
Q 3641 3997 3641 3322 
Q 3641 2881 3436 2590 
Q 3231 2300 2841 2188 
z
M 1259 4147 
L 1259 2491 
L 2053 2491 
Q 2509 2491 2742 2702 
Q 2975 2913 2975 3322 
Q 2975 3731 2742 3939 
Q 2509 4147 2053 4147 
L 1259 4147 
z
" transform="scale(0.015625)"/>
      <path id="DejaVuSans-32" d="M 1228 531 
L 3431 531 
L 3431 0 
L 469 0 
L 469 531 
Q 828 903 1448 1529 
Q 2069 2156 2228 2338 
Q 2531 2678 2651 2914 
Q 2772 3150 2772 3378 
Q 2772 3750 2511 3984 
Q 2250 4219 1831 4219 
Q 1534 4219 1204 4116 
Q 875 4013 500 3803 
L 500 4441 
Q 881 4594 1212 4672 
Q 1544 4750 1819 4750 
Q 2544 4750 2975 4387 
Q 3406 4025 3406 3419 
Q 3406 3131 3298 2873 
Q 3191 2616 2906 2266 
Q 2828 2175 2409 1742 
Q 1991 1309 1228 531 
z
" transform="scale(0.015625)"/>
     </defs>
     <use xlink:href="#DejaVuSans-53"/>
     <use xlink:href="#DejaVuSans-45" transform="translate(63.476562 0)"/>
     <use xlink:href="#DejaVuSans-52" transform="translate(126.660156 0)"/>
     <use xlink:href="#DejaVuSans-32" transform="translate(196.142578 0)"/>
     <use xlink:href="#DejaVuSans-36" transform="translate(259.765625 0)"/>
     <use xlink:href="#DejaVuSans-37" transform="translate(323.388672 0)"/>
    </g>
   </g>
   <g id="text_5">
    <!-- VAL137 -->
    <g style="fill: #222222" transform="translate(349.075594 230.949443) scale(0.085 -0.085)">
     <defs>
      <path id="DejaVuSans-56" d="M 1831 0 
L 50 4666 
L 709 4666 
L 2188 738 
L 3669 4666 
L 4325 4666 
L 2547 0 
L 1831 0 
z
" transform="scale(0.015625)"/>
      <path id="DejaVuSans-4c" d="M 628 4666 
L 1259 4666 
L 1259 531 
L 3531 531 
L 3531 0 
L 628 0 
L 628 4666 
z
" transform="scale(0.015625)"/>
     </defs>
     <use xlink:href="#DejaVuSans-56"/>
     <use xlink:href="#DejaVuSans-41" transform="translate(62.033203 0)"/>
     <use xlink:href="#DejaVuSans-4c" transform="translate(130.441406 0)"/>
     <use xlink:href="#DejaVuSans-31" transform="translate(186.154297 0)"/>
     <use xlink:href="#DejaVuSans-33" transform="translate(249.777344 0)"/>
     <use xlink:href="#DejaVuSans-37" transform="translate(313.400391 0)"/>
    </g>
   </g>
   <g id="text_6">
    <!-- GLY59 -->
    <g style="fill: #222222" transform="translate(318.826978 139.423557) scale(0.085 -0.085)">
     <defs>
      <path id="DejaVuSans-47" d="M 3809 666 
L 3809 1919 
L 2778 1919 
L 2778 2438 
L 4434 2438 
L 4434 434 
Q 4069 175 3628 42 
Q 3188 -91 2688 -91 
Q 1594 -91 976 548 
Q 359 1188 359 2328 
Q 359 3472 976 4111 
Q 1594 4750 2688 4750 
Q 3144 4750 3555 4637 
Q 3966 4525 4313 4306 
L 4313 3634 
Q 3963 3931 3569 4081 
Q 3175 4231 2741 4231 
Q 1884 4231 1454 3753 
Q 1025 3275 1025 2328 
Q 1025 1384 1454 906 
Q 1884 428 2741 428 
Q 3075 428 3337 486 
Q 3600 544 3809 666 
z
" transform="scale(0.015625)"/>
      <path id="DejaVuSans-59" d="M -13 4666 
L 666 4666 
L 1959 2747 
L 3244 4666 
L 3922 4666 
L 2272 2222 
L 2272 0 
L 1638 0 
L 1638 2222 
L -13 4666 
z
" transform="scale(0.015625)"/>
      <path id="DejaVuSans-35" d="M 691 4666 
L 3169 4666 
L 3169 4134 
L 1269 4134 
L 1269 2991 
Q 1406 3038 1543 3061 
Q 1681 3084 1819 3084 
Q 2600 3084 3056 2656 
Q 3513 2228 3513 1497 
Q 3513 744 3044 326 
Q 2575 -91 1722 -91 
Q 1428 -91 1123 -41 
Q 819 9 494 109 
L 494 744 
Q 775 591 1075 516 
Q 1375 441 1709 441 
Q 2250 441 2565 725 
Q 2881 1009 2881 1497 
Q 2881 1984 2565 2268 
Q 2250 2553 1709 2553 
Q 1456 2553 1204 2497 
Q 953 2441 691 2322 
L 691 4666 
z
" transform="scale(0.015625)"/>
      <path id="DejaVuSans-39" d="M 703 97 
L 703 672 
Q 941 559 1184 500 
Q 1428 441 1663 441 
Q 2288 441 2617 861 
Q 2947 1281 2994 2138 
Q 2813 1869 2534 1725 
Q 2256 1581 1919 1581 
Q 1219 1581 811 2004 
Q 403 2428 403 3163 
Q 403 3881 828 4315 
Q 1253 4750 1959 4750 
Q 2769 4750 3195 4129 
Q 3622 3509 3622 2328 
Q 3622 1225 3098 567 
Q 2575 -91 1691 -91 
Q 1453 -91 1209 -44 
Q 966 3 703 97 
z
M 1959 2075 
Q 2384 2075 2632 2365 
Q 2881 2656 2881 3163 
Q 2881 3666 2632 3958 
Q 2384 4250 1959 4250 
Q 1534 4250 1286 3958 
Q 1038 3666 1038 3163 
Q 1038 2656 1286 2365 
Q 1534 2075 1959 2075 
z
" transform="scale(0.015625)"/>
     </defs>
     <use xlink:href="#DejaVuSans-47"/>
     <use xlink:href="#DejaVuSans-4c" transform="translate(77.490234 0)"/>
     <use xlink:href="#DejaVuSans-59" transform="translate(119.953125 0)"/>
     <use xlink:href="#DejaVuSans-35" transform="translate(181.037109 0)"/>
     <use xlink:href="#DejaVuSans-39" transform="translate(244.660156 0)"/>
    </g>
   </g>
   <g id="text_7">
    <!-- TYR270 -->
    <g style="fill: #222222" transform="translate(183.678236 167.652311) scale(0.085 -0.085)">
     <defs>
      <path id="DejaVuSans-54" d="M -19 4666 
L 3928 4666 
L 3928 4134 
L 2272 4134 
L 2272 0 
L 1638 0 
L 1638 4134 
L -19 4134 
L -19 4666 
z
" transform="scale(0.015625)"/>
     </defs>
     <use xlink:href="#DejaVuSans-54"/>
     <use xlink:href="#DejaVuSans-59" transform="translate(61.083984 0)"/>
     <use xlink:href="#DejaVuSans-52" transform="translate(122.167969 0)"/>
     <use xlink:href="#DejaVuSans-32" transform="translate(191.650391 0)"/>
     <use xlink:href="#DejaVuSans-37" transform="translate(255.273438 0)"/>
     <use xlink:href="#DejaVuSans-30" transform="translate(318.896484 0)"/>
    </g>
   </g>
   <g id="text_8">
    <!-- VAL266 -->
    <g style="fill: #222222" transform="translate(104.309177 259.263977) scale(0.085 -0.085)">
     <use xlink:href="#DejaVuSans-56"/>
     <use xlink:href="#DejaVuSans-41" transform="translate(62.033203 0)"/>
     <use xlink:href="#DejaVuSans-4c" transform="translate(130.441406 0)"/>
     <use xlink:href="#DejaVuSans-32" transform="translate(186.154297 0)"/>
     <use xlink:href="#DejaVuSans-36" transform="translate(249.777344 0)"/>
     <use xlink:href="#DejaVuSans-36" transform="translate(313.400391 0)"/>
    </g>
   </g>
   <g id="text_9">
    <!-- SGLT2 / Mol_13733 (rep1) -->
    <g transform="translate(160.465313 16.318125) scale(0.12 -0.12)">
     <defs>
      <path id="DejaVuSans-20" transform="scale(0.015625)"/>
      <path id="DejaVuSans-2f" d="M 1625 4666 
L 2156 4666 
L 531 -594 
L 0 -594 
L 1625 4666 
z
" transform="scale(0.015625)"/>
      <path id="DejaVuSans-4d" d="M 628 4666 
L 1569 4666 
L 2759 1491 
L 3956 4666 
L 4897 4666 
L 4897 0 
L 4281 0 
L 4281 4097 
L 3078 897 
L 2444 897 
L 1241 4097 
L 1241 0 
L 628 0 
L 628 4666 
z
" transform="scale(0.015625)"/>
      <path id="DejaVuSans-6f" d="M 1959 3097 
Q 1497 3097 1228 2736 
Q 959 2375 959 1747 
Q 959 1119 1226 758 
Q 1494 397 1959 397 
Q 2419 397 2687 759 
Q 2956 1122 2956 1747 
Q 2956 2369 2687 2733 
Q 2419 3097 1959 3097 
z
M 1959 3584 
Q 2709 3584 3137 3096 
Q 3566 2609 3566 1747 
Q 3566 888 3137 398 
Q 2709 -91 1959 -91 
Q 1206 -91 779 398 
Q 353 888 353 1747 
Q 353 2609 779 3096 
Q 1206 3584 1959 3584 
z
" transform="scale(0.015625)"/>
      <path id="DejaVuSans-6c" d="M 603 4863 
L 1178 4863 
L 1178 0 
L 603 0 
L 603 4863 
z
" transform="scale(0.015625)"/>
      <path id="DejaVuSans-5f" d="M 3263 -1063 
L 3263 -1509 
L -63 -1509 
L -63 -1063 
L 3263 -1063 
z
" transform="scale(0.015625)"/>
      <path id="DejaVuSans-28" d="M 1984 4856 
Q 1566 4138 1362 3434 
Q 1159 2731 1159 2009 
Q 1159 1288 1364 580 
Q 1569 -128 1984 -844 
L 1484 -844 
Q 1016 -109 783 600 
Q 550 1309 550 2009 
Q 550 2706 781 3412 
Q 1013 4119 1484 4856 
L 1984 4856 
z
" transform="scale(0.015625)"/>
      <path id="DejaVuSans-72" d="M 2631 2963 
Q 2534 3019 2420 3045 
Q 2306 3072 2169 3072 
Q 1681 3072 1420 2755 
Q 1159 2438 1159 1844 
L 1159 0 
L 581 0 
L 581 3500 
L 1159 3500 
L 1159 2956 
Q 1341 3275 1631 3429 
Q 1922 3584 2338 3584 
Q 2397 3584 2469 3576 
Q 2541 3569 2628 3553 
L 2631 2963 
z
" transform="scale(0.015625)"/>
      <path id="DejaVuSans-65" d="M 3597 1894 
L 3597 1613 
L 953 1613 
Q 991 1019 1311 708 
Q 1631 397 2203 397 
Q 2534 397 2845 478 
Q 3156 559 3463 722 
L 3463 178 
Q 3153 47 2828 -22 
Q 2503 -91 2169 -91 
Q 1331 -91 842 396 
Q 353 884 353 1716 
Q 353 2575 817 3079 
Q 1281 3584 2069 3584 
Q 2775 3584 3186 3129 
Q 3597 2675 3597 1894 
z
M 3022 2063 
Q 3016 2534 2758 2815 
Q 2500 3097 2075 3097 
Q 1594 3097 1305 2825 
Q 1016 2553 972 2059 
L 3022 2063 
z
" transform="scale(0.015625)"/>
      <path id="DejaVuSans-70" d="M 1159 525 
L 1159 -1331 
L 581 -1331 
L 581 3500 
L 1159 3500 
L 1159 2969 
Q 1341 3281 1617 3432 
Q 1894 3584 2278 3584 
Q 2916 3584 3314 3078 
Q 3713 2572 3713 1747 
Q 3713 922 3314 415 
Q 2916 -91 2278 -91 
Q 1894 -91 1617 61 
Q 1341 213 1159 525 
z
M 3116 1747 
Q 3116 2381 2855 2742 
Q 2594 3103 2138 3103 
Q 1681 3103 1420 2742 
Q 1159 2381 1159 1747 
Q 1159 1113 1420 752 
Q 1681 391 2138 391 
Q 2594 391 2855 752 
Q 3116 1113 3116 1747 
z
" transform="scale(0.015625)"/>
      <path id="DejaVuSans-29" d="M 513 4856 
L 1013 4856 
Q 1481 4119 1714 3412 
Q 1947 2706 1947 2009 
Q 1947 1309 1714 600 
Q 1481 -109 1013 -844 
L 513 -844 
Q 928 -128 1133 580 
Q 1338 1288 1338 2009 
Q 1338 2731 1133 3434 
Q 928 4138 513 4856 
z
" transform="scale(0.015625)"/>
     </defs>
     <use xlink:href="#DejaVuSans-53"/>
     <use xlink:href="#DejaVuSans-47" transform="translate(63.476562 0)"/>
     <use xlink:href="#DejaVuSans-4c" transform="translate(140.966797 0)"/>
     <use xlink:href="#DejaVuSans-54" transform="translate(182.929688 0)"/>
     <use xlink:href="#DejaVuSans-32" transform="translate(244.013672 0)"/>
     <use xlink:href="#DejaVuSans-20" transform="translate(307.636719 0)"/>
     <use xlink:href="#DejaVuSans-2f" transform="translate(339.423828 0)"/>
     <use xlink:href="#DejaVuSans-20" transform="translate(373.115234 0)"/>
     <use xlink:href="#DejaVuSans-4d" transform="translate(404.902344 0)"/>
     <use xlink:href="#DejaVuSans-6f" transform="translate(491.181641 0)"/>
     <use xlink:href="#DejaVuSans-6c" transform="translate(552.363281 0)"/>
     <use xlink:href="#DejaVuSans-5f" transform="translate(580.146484 0)"/>
     <use xlink:href="#DejaVuSans-31" transform="translate(630.146484 0)"/>
     <use xlink:href="#DejaVuSans-33" transform="translate(693.769531 0)"/>
     <use xlink:href="#DejaVuSans-37" transform="translate(757.392578 0)"/>
     <use xlink:href="#DejaVuSans-33" transform="translate(821.015625 0)"/>
     <use xlink:href="#DejaVuSans-33" transform="translate(884.638672 0)"/>
     <use xlink:href="#DejaVuSans-20" transform="translate(948.261719 0)"/>
     <use xlink:href="#DejaVuSans-28" transform="translate(980.048828 0)"/>
     <use xlink:href="#DejaVuSans-72" transform="translate(1019.0625 0)"/>
     <use xlink:href="#DejaVuSans-65" transform="translate(1057.925781 0)"/>
     <use xlink:href="#DejaVuSans-70" transform="translate(1119.449219 0)"/>
     <use xlink:href="#DejaVuSans-31" transform="translate(1182.925781 0)"/>
     <use xlink:href="#DejaVuSans-29" transform="translate(1246.548828 0)"/>
    </g>
   </g>
   <g id="line2d_9">
    <path d="M 197.455087 176.360134 
L 194.476541 173.474762 
" clip-path="url(#p638b78cf6b)" style="fill: none; stroke: #111111; stroke-width: 2.8; stroke-linecap: round"/>
   </g>
   <g id="line2d_10">
    <path d="M 194.476541 173.474762 
L 192.681315 192.31729 
" clip-path="url(#p638b78cf6b)" style="fill: none; stroke: #111111; stroke-width: 2.8; stroke-linecap: round"/>
   </g>
   <g id="line2d_11">
    <path d="M 192.681315 192.31729 
L 189.355578 212.667945 
" clip-path="url(#p638b78cf6b)" style="fill: none; stroke: #111111; stroke-width: 2.8; stroke-linecap: round"/>
   </g>
   <g id="line2d_12">
    <path d="M 193.213711 197.373155 
L 188.204093 219.205459 
" clip-path="url(#p638b78cf6b)" style="fill: none; stroke: #111111; stroke-width: 2.8; stroke-linecap: round"/>
   </g>
   <g id="line2d_13">
    <path d="M 188.204093 219.205459 
L 183.813247 236.696425 
" clip-path="url(#p638b78cf6b)" style="fill: none; stroke: #111111; stroke-width: 2.8; stroke-linecap: round"/>
   </g>
   <g id="line2d_14">
    <path d="M 183.813247 236.696425 
L 187.718649 231.200684 
" clip-path="url(#p638b78cf6b)" style="fill: none; stroke: #111111; stroke-width: 2.8; stroke-linecap: round"/>
   </g>
   <g id="line2d_15">
    <path d="M 183.813247 236.696425 
L 204.912723 223.65473 
" clip-path="url(#p638b78cf6b)" style="fill: none; stroke: #111111; stroke-width: 2.8; stroke-linecap: round"/>
   </g>
   <g id="line2d_16">
    <path d="M 187.718649 231.200684 
L 204.912723 223.65473 
" clip-path="url(#p638b78cf6b)" style="fill: none; stroke: #111111; stroke-width: 2.8; stroke-linecap: round"/>
   </g>
   <g id="line2d_17">
    <path d="M 187.718649 231.200684 
L 189.355578 212.667945 
" clip-path="url(#p638b78cf6b)" style="fill: none; stroke: #111111; stroke-width: 2.8; stroke-linecap: round"/>
   </g>
   <g id="line2d_18">
    <path d="M 204.912723 223.65473 
L 189.355578 212.667945 
" clip-path="url(#p638b78cf6b)" style="fill: none; stroke: #111111; stroke-width: 2.8; stroke-linecap: round"/>
   </g>
   <g id="line2d_19">
    <path d="M 163.712814 208.801164 
L 160.291208 181.075658 
" clip-path="url(#p638b78cf6b)" style="fill: none; stroke: #111111; stroke-width: 2.8; stroke-linecap: round"/>
   </g>
   <g id="line2d_20">
    <path d="M 160.291208 181.075658 
L 138.678352 173.648573 
" clip-path="url(#p638b78cf6b)" style="fill: none; stroke: #111111; stroke-width: 2.8; stroke-linecap: round"/>
   </g>
   <g id="line2d_21">
    <path d="M 160.291208 181.075658 
L 180.760326 161.849766 
" clip-path="url(#p638b78cf6b)" style="fill: none; stroke: #111111; stroke-width: 2.8; stroke-linecap: round"/>
   </g>
   <g id="line2d_22">
    <path d="M 138.678352 173.648573 
L 135.303339 151.054232 
" clip-path="url(#p638b78cf6b)" style="fill: none; stroke: #111111; stroke-width: 2.8; stroke-linecap: round"/>
   </g>
   <g id="line2d_23">
    <path d="M 135.303339 151.054232 
L 115.139762 143.285034 
" clip-path="url(#p638b78cf6b)" style="fill: none; stroke: #111111; stroke-width: 2.8; stroke-linecap: round"/>
   </g>
   <g id="line2d_24">
    <path d="M 135.303339 151.054232 
L 152.060897 136.085795 
" clip-path="url(#p638b78cf6b)" style="fill: none; stroke: #111111; stroke-width: 2.8; stroke-linecap: round"/>
   </g>
   <g id="line2d_25">
    <path d="M 152.060897 136.085795 
L 173.864328 140.693583 
" clip-path="url(#p638b78cf6b)" style="fill: none; stroke: #111111; stroke-width: 2.8; stroke-linecap: round"/>
   </g>
   <g id="line2d_26">
    <path d="M 173.864328 140.693583 
L 180.760326 161.849766 
" clip-path="url(#p638b78cf6b)" style="fill: none; stroke: #111111; stroke-width: 2.8; stroke-linecap: round"/>
   </g>
   <g id="line2d_27">
    <path d="M 227.138501 197.013874 
L 239.948232 194.066 
" clip-path="url(#p638b78cf6b)" style="fill: none; stroke: #111111; stroke-width: 2.8; stroke-linecap: round"/>
   </g>
   <g id="line2d_28">
    <path d="M 239.948232 194.066 
L 263.591514 194.327747 
" clip-path="url(#p638b78cf6b)" style="fill: none; stroke: #111111; stroke-width: 2.8; stroke-linecap: round"/>
   </g>
   <g id="line2d_29">
    <path d="M 263.591514 194.327747 
L 275.892826 199.754021 
" clip-path="url(#p638b78cf6b)" style="fill: none; stroke: #111111; stroke-width: 2.8; stroke-linecap: round"/>
   </g>
   <g id="line2d_30">
    <path d="M 263.591514 194.327747 
L 272.608504 171.835944 
" clip-path="url(#p638b78cf6b)" style="fill: none; stroke: #111111; stroke-width: 2.8; stroke-linecap: round"/>
   </g>
   <g id="line2d_31">
    <path d="M 275.892826 199.754021 
L 298.918587 203.667993 
" clip-path="url(#p638b78cf6b)" style="fill: none; stroke: #111111; stroke-width: 2.8; stroke-linecap: round"/>
   </g>
   <g id="line2d_32">
    <path d="M 298.918587 203.667993 
L 311.189839 196.961725 
" clip-path="url(#p638b78cf6b)" style="fill: none; stroke: #111111; stroke-width: 2.8; stroke-linecap: round"/>
   </g>
   <g id="line2d_33">
    <path d="M 298.918587 203.667993 
L 308.574012 190.069535 
" clip-path="url(#p638b78cf6b)" style="fill: none; stroke: #111111; stroke-width: 2.8; stroke-linecap: round"/>
   </g>
   <g id="line2d_34">
    <path d="M 311.189839 196.961725 
L 300.431072 206.336194 
" clip-path="url(#p638b78cf6b)" style="fill: none; stroke: #111111; stroke-width: 2.8; stroke-linecap: round"/>
   </g>
   <g id="line2d_35">
    <path d="M 308.574012 190.069535 
L 331.783417 185.252921 
" clip-path="url(#p638b78cf6b)" style="fill: none; stroke: #111111; stroke-width: 2.8; stroke-linecap: round"/>
   </g>
   <g id="line2d_36">
    <path d="M 308.574012 190.069535 
L 296.882536 167.735463 
" clip-path="url(#p638b78cf6b)" style="fill: none; stroke: #111111; stroke-width: 2.8; stroke-linecap: round"/>
   </g>
   <g id="line2d_37">
    <path d="M 296.882536 167.735463 
L 303.85328 153.677467 
" clip-path="url(#p638b78cf6b)" style="fill: none; stroke: #111111; stroke-width: 2.8; stroke-linecap: round"/>
   </g>
   <g id="line2d_38">
    <path d="M 296.882536 167.735463 
L 272.608504 171.835944 
" clip-path="url(#p638b78cf6b)" style="fill: none; stroke: #111111; stroke-width: 2.8; stroke-linecap: round"/>
   </g>
   <g id="line2d_39">
    <path d="M 272.608504 171.835944 
L 261.241947 154.077764 
" clip-path="url(#p638b78cf6b)" style="fill: none; stroke: #111111; stroke-width: 2.8; stroke-linecap: round"/>
   </g>
   <g id="PathCollection_2">
    <defs>
     <path id="m00622e9043" d="M 0 4.795832 
C 1.271869 4.795832 2.491818 4.290512 3.391165 3.391165 
C 4.290512 2.491818 4.795832 1.271869 4.795832 0 
C 4.795832 -1.271869 4.290512 -2.491818 3.391165 -3.391165 
C 2.491818 -4.290512 1.271869 -4.795832 0 -4.795832 
C -1.271869 -4.795832 -2.491818 -4.290512 -3.391165 -3.391165 
C -4.290512 -2.491818 -4.795832 -1.271869 -4.795832 0 
C -4.795832 1.271869 -4.290512 2.491818 -3.391165 3.391165 
C -2.491818 4.290512 -1.271869 4.795832 0 4.795832 
z
" style="stroke: #ffffff; stroke-width: 0.8"/>
    </defs>
    <g clip-path="url(#p638b78cf6b)">
     <use xlink:href="#m00622e9043" x="197.455087" y="176.360134" style="fill: #4a4a4a; stroke: #ffffff; stroke-width: 0.8"/>
    </g>
   </g>
   <g id="PathCollection_3">
    <defs>
     <path id="mf6825d9524" d="M 0 4.795832 
C 1.271869 4.795832 2.491818 4.290512 3.391165 3.391165 
C 4.290512 2.491818 4.795832 1.271869 4.795832 0 
C 4.795832 -1.271869 4.290512 -2.491818 3.391165 -3.391165 
C 2.491818 -4.290512 1.271869 -4.795832 0 -4.795832 
C -1.271869 -4.795832 -2.491818 -4.290512 -3.391165 -3.391165 
C -4.290512 -2.491818 -4.795832 -1.271869 -4.795832 0 
C -4.795832 1.271869 -4.290512 2.491818 -3.391165 3.391165 
C -2.491818 4.290512 -1.271869 4.795832 0 4.795832 
z
" style="stroke: #ffffff; stroke-width: 0.8"/>
    </defs>
    <g clip-path="url(#p638b78cf6b)">
     <use xlink:href="#mf6825d9524" x="194.476541" y="173.474762" style="fill: #c53030; stroke: #ffffff; stroke-width: 0.8"/>
    </g>
   </g>
   <g id="PathCollection_4">
    <g clip-path="url(#p638b78cf6b)">
     <use xlink:href="#m00622e9043" x="192.681315" y="192.31729" style="fill: #4a4a4a; stroke: #ffffff; stroke-width: 0.8"/>
    </g>
   </g>
   <g id="PathCollection_5">
    <g clip-path="url(#p638b78cf6b)">
     <use xlink:href="#m00622e9043" x="193.213711" y="197.373155" style="fill: #4a4a4a; stroke: #ffffff; stroke-width: 0.8"/>
    </g>
   </g>
   <g id="PathCollection_6">
    <g clip-path="url(#p638b78cf6b)">
     <use xlink:href="#m00622e9043" x="188.204093" y="219.205459" style="fill: #4a4a4a; stroke: #ffffff; stroke-width: 0.8"/>
    </g>
   </g>
   <g id="PathCollection_7">
    <g clip-path="url(#p638b78cf6b)">
     <use xlink:href="#m00622e9043" x="183.813247" y="236.696425" style="fill: #4a4a4a; stroke: #ffffff; stroke-width: 0.8"/>
    </g>
   </g>
   <g id="PathCollection_8">
    <g clip-path="url(#p638b78cf6b)">
     <use xlink:href="#m00622e9043" x="187.718649" y="231.200684" style="fill: #4a4a4a; stroke: #ffffff; stroke-width: 0.8"/>
    </g>
   </g>
   <g id="PathCollection_9">
    <g clip-path="url(#p638b78cf6b)">
     <use xlink:href="#m00622e9043" x="204.912723" y="223.65473" style="fill: #4a4a4a; stroke: #ffffff; stroke-width: 0.8"/>
    </g>
   </g>
   <g id="PathCollection_10">
    <g clip-path="url(#p638b78cf6b)">
     <use xlink:href="#mf6825d9524" x="163.712814" y="208.801164" style="fill: #c53030; stroke: #ffffff; stroke-width: 0.8"/>
    </g>
   </g>
   <g id="PathCollection_11">
    <g clip-path="url(#p638b78cf6b)">
     <use xlink:href="#m00622e9043" x="160.291208" y="181.075658" style="fill: #4a4a4a; stroke: #ffffff; stroke-width: 0.8"/>
    </g>
   </g>
   <g id="PathCollection_12">
    <g clip-path="url(#p638b78cf6b)">
     <use xlink:href="#m00622e9043" x="138.678352" y="173.648573" style="fill: #4a4a4a; stroke: #ffffff; stroke-width: 0.8"/>
    </g>
   </g>
   <g id="PathCollection_13">
    <g clip-path="url(#p638b78cf6b)">
     <use xlink:href="#m00622e9043" x="135.303339" y="151.054232" style="fill: #4a4a4a; stroke: #ffffff; stroke-width: 0.8"/>
    </g>
   </g>
   <g id="PathCollection_14">
    <g clip-path="url(#p638b78cf6b)">
     <use xlink:href="#mf6825d9524" x="115.139762" y="143.285034" style="fill: #c53030; stroke: #ffffff; stroke-width: 0.8"/>
    </g>
   </g>
   <g id="PathCollection_15">
    <g clip-path="url(#p638b78cf6b)">
     <use xlink:href="#m00622e9043" x="152.060897" y="136.085795" style="fill: #4a4a4a; stroke: #ffffff; stroke-width: 0.8"/>
    </g>
   </g>
   <g id="PathCollection_16">
    <g clip-path="url(#p638b78cf6b)">
     <use xlink:href="#m00622e9043" x="173.864328" y="140.693583" style="fill: #4a4a4a; stroke: #ffffff; stroke-width: 0.8"/>
    </g>
   </g>
   <g id="PathCollection_17">
    <g clip-path="url(#p638b78cf6b)">
     <use xlink:href="#m00622e9043" x="180.760326" y="161.849766" style="fill: #4a4a4a; stroke: #ffffff; stroke-width: 0.8"/>
    </g>
   </g>
   <g id="PathCollection_18">
    <g clip-path="url(#p638b78cf6b)">
     <use xlink:href="#m00622e9043" x="212.988166" y="165.803942" style="fill: #4a4a4a; stroke: #ffffff; stroke-width: 0.8"/>
    </g>
   </g>
   <g id="PathCollection_19">
    <g clip-path="url(#p638b78cf6b)">
     <use xlink:href="#m00622e9043" x="227.138501" y="197.013874" style="fill: #4a4a4a; stroke: #ffffff; stroke-width: 0.8"/>
    </g>
   </g>
   <g id="PathCollection_20">
    <g clip-path="url(#p638b78cf6b)">
     <use xlink:href="#mf6825d9524" x="239.948232" y="194.066" style="fill: #c53030; stroke: #ffffff; stroke-width: 0.8"/>
    </g>
   </g>
   <g id="PathCollection_21">
    <g clip-path="url(#p638b78cf6b)">
     <use xlink:href="#m00622e9043" x="263.591514" y="194.327747" style="fill: #4a4a4a; stroke: #ffffff; stroke-width: 0.8"/>
    </g>
   </g>
   <g id="PathCollection_22">
    <g clip-path="url(#p638b78cf6b)">
     <use xlink:href="#mf6825d9524" x="275.892826" y="199.754021" style="fill: #c53030; stroke: #ffffff; stroke-width: 0.8"/>
    </g>
   </g>
   <g id="PathCollection_23">
    <g clip-path="url(#p638b78cf6b)">
     <use xlink:href="#m00622e9043" x="298.918587" y="203.667993" style="fill: #4a4a4a; stroke: #ffffff; stroke-width: 0.8"/>
    </g>
   </g>
   <g id="PathCollection_24">
    <g clip-path="url(#p638b78cf6b)">
     <use xlink:href="#m00622e9043" x="311.189839" y="196.961725" style="fill: #4a4a4a; stroke: #ffffff; stroke-width: 0.8"/>
    </g>
   </g>
   <g id="PathCollection_25">
    <g clip-path="url(#p638b78cf6b)">
     <use xlink:href="#mf6825d9524" x="300.431072" y="206.336194" style="fill: #c53030; stroke: #ffffff; stroke-width: 0.8"/>
    </g>
   </g>
   <g id="PathCollection_26">
    <g clip-path="url(#p638b78cf6b)">
     <use xlink:href="#m00622e9043" x="308.574012" y="190.069535" style="fill: #4a4a4a; stroke: #ffffff; stroke-width: 0.8"/>
    </g>
   </g>
   <g id="PathCollection_27">
    <g clip-path="url(#p638b78cf6b)">
     <use xlink:href="#mf6825d9524" x="331.783417" y="185.252921" style="fill: #c53030; stroke: #ffffff; stroke-width: 0.8"/>
    </g>
   </g>
   <g id="PathCollection_28">
    <g clip-path="url(#p638b78cf6b)">
     <use xlink:href="#m00622e9043" x="296.882536" y="167.735463" style="fill: #4a4a4a; stroke: #ffffff; stroke-width: 0.8"/>
    </g>
   </g>
   <g id="PathCollection_29">
    <g clip-path="url(#p638b78cf6b)">
     <use xlink:href="#mf6825d9524" x="303.85328" y="153.677467" style="fill: #c53030; stroke: #ffffff; stroke-width: 0.8"/>
    </g>
   </g>
   <g id="PathCollection_30">
    <g clip-path="url(#p638b78cf6b)">
     <use xlink:href="#m00622e9043" x="272.608504" y="171.835944" style="fill: #4a4a4a; stroke: #ffffff; stroke-width: 0.8"/>
    </g>
   </g>
   <g id="PathCollection_31">
    <g clip-path="url(#p638b78cf6b)">
     <use xlink:href="#mf6825d9524" x="261.241947" y="154.077764" style="fill: #c53030; stroke: #ffffff; stroke-width: 0.8"/>
    </g>
   </g>
   <g id="PathCollection_32">
    <g clip-path="url(#p638b78cf6b)">
     <use xlink:href="#m00622e9043" x="189.355578" y="212.667945" style="fill: #4a4a4a; stroke: #ffffff; stroke-width: 0.8"/>
    </g>
   </g>
   <g id="text_10">
    <!-- O -->
    <g style="fill: #ffffff" transform="translate(191.721385 175.406325) scale(0.07 -0.07)">
     <defs>
      <path id="DejaVuSans-4f" d="M 2522 4238 
Q 1834 4238 1429 3725 
Q 1025 3213 1025 2328 
Q 1025 1447 1429 934 
Q 1834 422 2522 422 
Q 3209 422 3611 934 
Q 4013 1447 4013 2328 
Q 4013 3213 3611 3725 
Q 3209 4238 2522 4238 
z
M 2522 4750 
Q 3503 4750 4090 4092 
Q 4678 3434 4678 2328 
Q 4678 1225 4090 567 
Q 3503 -91 2522 -91 
Q 1538 -91 948 565 
Q 359 1222 359 2328 
Q 359 3434 948 4092 
Q 1538 4750 2522 4750 
z
" transform="scale(0.015625)"/>
     </defs>
     <use xlink:href="#DejaVuSans-4f"/>
    </g>
   </g>
   <g id="text_11">
    <!-- O -->
    <g style="fill: #ffffff" transform="translate(160.957658 210.732726) scale(0.07 -0.07)">
     <use xlink:href="#DejaVuSans-4f"/>
    </g>
   </g>
   <g id="text_12">
    <!-- O -->
    <g style="fill: #ffffff" transform="translate(112.384605 145.216597) scale(0.07 -0.07)">
     <use xlink:href="#DejaVuSans-4f"/>
    </g>
   </g>
   <g id="text_13">
    <!-- O -->
    <g style="fill: #ffffff" transform="translate(237.193076 195.997563) scale(0.07 -0.07)">
     <use xlink:href="#DejaVuSans-4f"/>
    </g>
   </g>
   <g id="text_14">
    <!-- O -->
    <g style="fill: #ffffff" transform="translate(273.13767 201.685583) scale(0.07 -0.07)">
     <use xlink:href="#DejaVuSans-4f"/>
    </g>
   </g>
   <g id="text_15">
    <!-- O -->
    <g style="fill: #ffffff" transform="translate(297.675916 208.267757) scale(0.07 -0.07)">
     <use xlink:href="#DejaVuSans-4f"/>
    </g>
   </g>
   <g id="text_16">
    <!-- O -->
    <g style="fill: #ffffff" transform="translate(329.028261 187.184484) scale(0.07 -0.07)">
     <use xlink:href="#DejaVuSans-4f"/>
    </g>
   </g>
   <g id="text_17">
    <!-- O -->
    <g style="fill: #ffffff" transform="translate(301.098124 155.60903) scale(0.07 -0.07)">
     <use xlink:href="#DejaVuSans-4f"/>
    </g>
   </g>
   <g id="text_18">
    <!-- O -->
    <g style="fill: #ffffff" transform="translate(258.486791 156.009327) scale(0.07 -0.07)">
     <use xlink:href="#DejaVuSans-4f"/>
    </g>
   </g>
  </g>
 </g>
 <defs>
  <clipPath id="p638b78cf6b">
   <rect x="7.2" y="26.318125" width="460.8" height="329.778494"/>
  </clipPath>
 </defs>
</svg>
