<?xml version="1.0" encoding="utf-8" standalone="no"?>
<!DOCTYPE svg PUBLIC "-//W3C//DTD SVG 1.1//EN"
  "http://www.w3.org/Graphics/SVG/1.1/DTD/svg11.dtd">
<svg xmlns:xlink="http://www.w3.org/1999/xlink" width="511.2pt" height="410.878125pt" viewBox="0 0 511.2 410.878125" xmlns="http://www.w3.org/2000/svg" version="1.1">
 <metadata>
  <rdf:RDF xmlns:dc="http://purl.org/dc/elements/1.1/" xmlns:cc="http://creativecommons.org/ns#" xmlns:rdf="http://www.w3.org/1999/02/22-rdf-syntax-ns#">
   <cc:Work>
    <dc:type rdf:resource="http://purl.org/dc/dcmitype/StillImage"/>
    <dc:date>2026-06-27T16:58:59.443174</dc:date>
    <dc:format>image/svg+xml</dc:format>
    <dc:creator>
     <cc:Agent>
      <dc:title>Matplotlib v3.10.9, https://matplotlib.org/</dc:title>
     </cc:Agent>
    </dc:creator>
   </cc:Work>
  </rdf:RDF>
 </metadata>
 <defs>
  <style type="text/css">*{stroke-linejoin: round; stroke-linecap: butt}</style>
 </defs>
 <g id="figure_1">
  <g id="patch_1">
   <path d="M 0 410.878125 
L 511.2 410.878125 
L 511.2 0 
L 0 0 
z
" style="fill: #ffffff"/>
  </g>
  <g id="axes_1">
   <g id="line2d_1">
    <path d="M 333.796112 243.724883 
L 338.160258 220.011009 
" clip-path="url(#pb1b6cc0975)" style="fill: none; stroke: #202020; stroke-width: 2; stroke-linecap: round"/>
   </g>
   <g id="line2d_2">
    <path d="M 330.882544 243.247791 
L 335.24669 219.533916 
" clip-path="url(#pb1b6cc0975)" style="fill: none; stroke: #202020; stroke-linecap: square"/>
   </g>
   <g id="line2d_3">
    <path d="M 338.160258 220.011009 
L 361.063982 209.40275 
" clip-path="url(#pb1b6cc0975)" style="fill: none; stroke: #202020; stroke-width: 2; stroke-linecap: round"/>
   </g>
   <g id="line2d_4">
    <path d="M 361.063982 209.40275 
L 357.4459 185.577412 
" clip-path="url(#pb1b6cc0975)" style="fill: none; stroke: #202020; stroke-width: 2; stroke-linecap: round"/>
   </g>
   <g id="line2d_5">
    <path d="M 357.4459 185.577412 
L 332.306078 181.460803 
" clip-path="url(#pb1b6cc0975)" style="fill: none; stroke: #202020; stroke-width: 2; stroke-linecap: round"/>
   </g>
   <g id="line2d_6">
    <path d="M 332.306078 181.460803 
L 321.05993 159.856194 
" clip-path="url(#pb1b6cc0975)" style="fill: none; stroke: #202020; stroke-width: 2; stroke-linecap: round"/>
   </g>
   <g id="line2d_7">
    <path d="M 321.05993 159.856194 
L 295.601649 158.240911 
" clip-path="url(#pb1b6cc0975)" style="fill: none; stroke: #202020; stroke-width: 2; stroke-linecap: round"/>
   </g>
   <g id="line2d_8">
    <path d="M 295.601649 158.240911 
L 284.355501 136.636301 
" clip-path="url(#pb1b6cc0975)" style="fill: none; stroke: #202020; stroke-width: 2; stroke-linecap: round"/>
   </g>
   <g id="line2d_9">
    <path d="M 284.355501 136.636301 
L 258.89722 135.021018 
" clip-path="url(#pb1b6cc0975)" style="fill: none; stroke: #202020; stroke-width: 2; stroke-linecap: round"/>
   </g>
   <g id="line2d_10">
    <path d="M 258.89722 135.021018 
L 244.685088 155.010345 
" clip-path="url(#pb1b6cc0975)" style="fill: none; stroke: #202020; stroke-width: 2; stroke-linecap: round"/>
   </g>
   <g id="line2d_11">
    <path d="M 244.685088 155.010345 
L 255.931236 176.614954 
" clip-path="url(#pb1b6cc0975)" style="fill: none; stroke: #202020; stroke-width: 2; stroke-linecap: round"/>
   </g>
   <g id="line2d_12">
    <path d="M 255.931236 176.614954 
L 281.389516 178.230237 
" clip-path="url(#pb1b6cc0975)" style="fill: none; stroke: #202020; stroke-width: 2; stroke-linecap: round"/>
   </g>
   <g id="line2d_13">
    <path d="M 255.931236 176.614954 
L 237.62375 193.3802 
" clip-path="url(#pb1b6cc0975)" style="fill: none; stroke: #202020; stroke-width: 2; stroke-linecap: round"/>
   </g>
   <g id="line2d_14">
    <path d="M 237.62375 193.3802 
L 215.062954 182.137082 
" clip-path="url(#pb1b6cc0975)" style="fill: none; stroke: #202020; stroke-width: 2; stroke-linecap: round"/>
   </g>
   <g id="line2d_15">
    <path d="M 215.062954 182.137082 
L 219.427101 158.423207 
" clip-path="url(#pb1b6cc0975)" style="fill: none; stroke: #202020; stroke-width: 2; stroke-linecap: round"/>
   </g>
   <g id="line2d_16">
    <path d="M 332.306078 181.460803 
L 320.386896 202.741936 
" clip-path="url(#pb1b6cc0975)" style="fill: none; stroke: #202020; stroke-width: 2; stroke-linecap: round"/>
   </g>
   <g id="line2d_17">
    <path d="M 320.386896 202.741936 
L 295.128909 206.154799 
" clip-path="url(#pb1b6cc0975)" style="fill: none; stroke: #202020; stroke-width: 2; stroke-linecap: round"/>
   </g>
   <g id="line2d_18">
    <path d="M 320.806212 205.503163 
L 295.548225 208.916025 
" clip-path="url(#pb1b6cc0975)" style="fill: none; stroke: #202020; stroke-linecap: square"/>
   </g>
   <g id="line2d_19">
    <path d="M 295.128909 206.154799 
L 285.633267 228.494577 
" clip-path="url(#pb1b6cc0975)" style="fill: none; stroke: #202020; stroke-width: 2; stroke-linecap: round"/>
   </g>
   <g id="line2d_20">
    <path d="M 285.633267 228.494577 
L 301.395612 247.421493 
" clip-path="url(#pb1b6cc0975)" style="fill: none; stroke: #202020; stroke-width: 2; stroke-linecap: round"/>
   </g>
   <g id="line2d_21">
    <path d="M 301.395612 247.421493 
L 291.89997 269.761271 
" clip-path="url(#pb1b6cc0975)" style="fill: none; stroke: #202020; stroke-width: 2; stroke-linecap: round"/>
   </g>
   <g id="line2d_22">
    <path d="M 291.89997 269.761271 
L 266.641983 273.174134 
" clip-path="url(#pb1b6cc0975)" style="fill: none; stroke: #202020; stroke-width: 2; stroke-linecap: round"/>
   </g>
   <g id="line2d_23">
    <path d="M 266.641983 273.174134 
L 250.879638 254.247218 
" clip-path="url(#pb1b6cc0975)" style="fill: none; stroke: #202020; stroke-width: 2; stroke-linecap: round"/>
   </g>
   <g id="line2d_24">
    <path d="M 250.879638 254.247218 
L 260.37528 231.907439 
" clip-path="url(#pb1b6cc0975)" style="fill: none; stroke: #202020; stroke-width: 2; stroke-linecap: round"/>
   </g>
   <g id="line2d_25">
    <path d="M 260.37528 231.907439 
L 244.612936 212.980523 
" clip-path="url(#pb1b6cc0975)" style="fill: none; stroke: #202020; stroke-width: 2; stroke-linecap: round"/>
   </g>
   <g id="line2d_26">
    <path d="M 244.612936 212.980523 
L 219.354949 216.393386 
" clip-path="url(#pb1b6cc0975)" style="fill: none; stroke: #202020; stroke-width: 2; stroke-linecap: round"/>
   </g>
   <g id="line2d_27">
    <path d="M 219.354949 216.393386 
L 203.592604 197.466469 
" clip-path="url(#pb1b6cc0975)" style="fill: none; stroke: #202020; stroke-width: 2; stroke-linecap: round"/>
   </g>
   <g id="line2d_28">
    <path d="M 203.592604 197.466469 
L 178.334617 200.879332 
" clip-path="url(#pb1b6cc0975)" style="fill: none; stroke: #202020; stroke-width: 2; stroke-linecap: round"/>
   </g>
   <g id="line2d_29">
    <path d="M 178.334617 200.879332 
L 162.572273 181.952416 
" clip-path="url(#pb1b6cc0975)" style="fill: none; stroke: #202020; stroke-width: 2; stroke-linecap: round"/>
   </g>
   <g id="line2d_30">
    <path d="M 162.572273 181.952416 
L 137.314286 185.365278 
" clip-path="url(#pb1b6cc0975)" style="fill: none; stroke: #202020; stroke-width: 2; stroke-linecap: round"/>
   </g>
   <g id="line2d_31">
    <path d="M 178.334617 200.879332 
L 168.838975 223.21911 
" clip-path="url(#pb1b6cc0975)" style="fill: none; stroke: #202020; stroke-width: 2; stroke-linecap: round"/>
   </g>
   <g id="line2d_32">
    <path d="M 168.838975 223.21911 
L 143.580988 226.631973 
" clip-path="url(#pb1b6cc0975)" style="fill: none; stroke: #202020; stroke-width: 2; stroke-linecap: round"/>
   </g>
   <g id="line2d_33">
    <path d="M 168.838975 223.21911 
L 184.60132 242.146026 
" clip-path="url(#pb1b6cc0975)" style="fill: none; stroke: #202020; stroke-width: 2; stroke-linecap: round"/>
   </g>
   <g id="line2d_34">
    <path d="M 184.60132 242.146026 
L 175.105677 264.485805 
" clip-path="url(#pb1b6cc0975)" style="fill: none; stroke: #202020; stroke-width: 2; stroke-linecap: round"/>
   </g>
   <g id="line2d_35">
    <path d="M 184.60132 242.146026 
L 209.859307 238.733164 
" clip-path="url(#pb1b6cc0975)" style="fill: none; stroke: #202020; stroke-width: 2; stroke-linecap: round"/>
   </g>
   <g id="line2d_36">
    <path d="M 209.859307 238.733164 
L 225.621651 257.66008 
" clip-path="url(#pb1b6cc0975)" style="fill: none; stroke: #202020; stroke-width: 2; stroke-linecap: round"/>
   </g>
   <g id="line2d_37">
    <path d="M 266.641983 273.174134 
L 262.277836 296.888008 
" clip-path="url(#pb1b6cc0975)" style="fill: none; stroke: #202020; stroke-width: 2; stroke-linecap: round"/>
   </g>
   <g id="line2d_38">
    <path d="M 262.277836 296.888008 
L 284.838632 308.131127 
" clip-path="url(#pb1b6cc0975)" style="fill: none; stroke: #202020; stroke-width: 2; stroke-linecap: round"/>
   </g>
   <g id="line2d_39">
    <path d="M 284.838632 308.131127 
L 303.146117 291.365881 
" clip-path="url(#pb1b6cc0975)" style="fill: none; stroke: #202020; stroke-width: 2; stroke-linecap: round"/>
   </g>
   <g id="line2d_40">
    <path d="M 320.386896 202.741936 
L 338.160258 220.011009 
" clip-path="url(#pb1b6cc0975)" style="fill: none; stroke: #202020; stroke-width: 2; stroke-linecap: round"/>
   </g>
   <g id="line2d_41">
    <path d="M 260.37528 231.907439 
L 285.633267 228.494577 
" clip-path="url(#pb1b6cc0975)" style="fill: none; stroke: #202020; stroke-width: 2; stroke-linecap: round"/>
   </g>
   <g id="line2d_42">
    <path d="M 209.859307 238.733164 
L 219.354949 216.393386 
" clip-path="url(#pb1b6cc0975)" style="fill: none; stroke: #202020; stroke-width: 2; stroke-linecap: round"/>
   </g>
   <g id="line2d_43">
    <path d="M 281.389516 178.230237 
L 295.601649 158.240911 
" clip-path="url(#pb1b6cc0975)" style="fill: none; stroke: #202020; stroke-width: 2; stroke-linecap: round"/>
   </g>
   <g id="line2d_44">
    <path d="M 303.146117 291.365881 
L 291.89997 269.761271 
" clip-path="url(#pb1b6cc0975)" style="fill: none; stroke: #202020; stroke-width: 2; stroke-linecap: round"/>
   </g>
   <g id="line2d_45">
    <path d="M 219.427101 158.423207 
L 244.685088 155.010345 
" clip-path="url(#pb1b6cc0975)" style="fill: none; stroke: #202020; stroke-width: 2; stroke-linecap: round"/>
   </g>
   <g id="line2d_46">
    <path d="M 237.62375 193.3802 
L 450.121516 157.636149 
" clip-path="url(#pb1b6cc0975)" style="fill: none; stroke-dasharray: 4.44,1.92; stroke-dashoffset: 0; stroke: #2b6cb0; stroke-opacity: 0.75; stroke-width: 1.2"/>
   </g>
   <g id="line2d_47">
    <path d="M 175.105677 264.485805 
L 336.17345 77.928278 
" clip-path="url(#pb1b6cc0975)" style="fill: none; stroke-dasharray: 4.44,1.92; stroke-dashoffset: 0; stroke: #2b6cb0; stroke-opacity: 0.75; stroke-width: 1.2"/>
   </g>
   <g id="line2d_48">
    <path d="M 219.354949 216.393386 
L 175.02655 77.928278 
" clip-path="url(#pb1b6cc0975)" style="fill: none; stroke-dasharray: 4.44,1.92; stroke-dashoffset: 0; stroke: #dd6b20; stroke-opacity: 0.75; stroke-width: 1.2"/>
   </g>
   <g id="line2d_49">
    <path d="M 250.879638 254.247218 
L 61.078484 157.636149 
" clip-path="url(#pb1b6cc0975)" style="fill: none; stroke-dasharray: 4.44,1.92; stroke-dashoffset: 0; stroke: #dd6b20; stroke-opacity: 0.75; stroke-width: 1.2"/>
   </g>
   <g id="line2d_50">
    <path d="M 137.314286 185.365278 
L 61.078484 270.360101 
" clip-path="url(#pb1b6cc0975)" style="fill: none; stroke-dasharray: 4.44,1.92; stroke-dashoffset: 0; stroke: #2b6cb0; stroke-opacity: 0.75; stroke-width: 1.2"/>
   </g>
   <g id="line2d_51">
    <path d="M 143.580988 226.631973 
L 175.02655 350.067972 
" clip-path="url(#pb1b6cc0975)" style="fill: none; stroke-dasharray: 4.44,1.92; stroke-dashoffset: 0; stroke: #dd6b20; stroke-opacity: 0.75; stroke-width: 1.2"/>
   </g>
   <g id="line2d_52">
    <path d="M 175.105677 264.485805 
L 336.17345 350.067972 
" clip-path="url(#pb1b6cc0975)" style="fill: none; stroke-dasharray: 4.44,1.92; stroke-dashoffset: 0; stroke: #2b6cb0; stroke-opacity: 0.75; stroke-width: 1.2"/>
   </g>
   <g id="line2d_53">
    <path d="M 219.427101 158.423207 
L 450.121516 270.360101 
" clip-path="url(#pb1b6cc0975)" style="fill: none; stroke-dasharray: 4.44,1.92; stroke-dashoffset: 0; stroke: #dd6b20; stroke-opacity: 0.75; stroke-width: 1.2"/>
   </g>
   <g id="text_1">
    <g id="patch_2">
     <path d="M 418.839016 168.118774 
L 481.404016 168.118774 
Q 483.404016 168.118774 483.404016 166.118774 
L 483.404016 149.376024 
Q 483.404016 147.376024 481.404016 147.376024 
L 418.839016 147.376024 
Q 416.839016 147.376024 416.839016 149.376024 
L 416.839016 166.118774 
Q 416.839016 168.118774 418.839016 168.118774 
z
" style="fill: #ffffff; stroke: #2b6cb0; stroke-linejoin: miter"/>
    </g>
    <!-- ASN55 -->
    <g transform="translate(436.763391 155.232274) scale(0.08 -0.08)">
     <defs>
      <path id="DejaVuSans-41" d="M 2188 4044 
L 1331 1722 
L 3047 1722 
L 2188 4044 
z
M 1831 4666 
L 2547 4666 
L 4325 0 
L 3669 0 
L 3244 1197 
L 1141 1197 
L 716 0 
L 50 0 
L 1831 4666 
z
" transform="scale(0.015625)"/>
      <path id="DejaVuSans-53" d="M 3425 4513 
L 3425 3897 
Q 3066 4069 2747 4153 
Q 2428 4238 2131 4238 
Q 1616 4238 1336 4038 
Q 1056 3838 1056 3469 
Q 1056 3159 1242 3001 
Q 1428 2844 1947 2747 
L 2328 2669 
Q 3034 2534 3370 2195 
Q 3706 1856 3706 1288 
Q 3706 609 3251 259 
Q 2797 -91 1919 -91 
Q 1588 -91 1214 -16 
Q 841 59 441 206 
L 441 856 
Q 825 641 1194 531 
Q 1563 422 1919 422 
Q 2459 422 2753 634 
Q 3047 847 3047 1241 
Q 3047 1584 2836 1778 
Q 2625 1972 2144 2069 
L 1759 2144 
Q 1053 2284 737 2584 
Q 422 2884 422 3419 
Q 422 4038 858 4394 
Q 1294 4750 2059 4750 
Q 2388 4750 2728 4690 
Q 3069 4631 3425 4513 
z
" transform="scale(0.015625)"/>
      <path id="DejaVuSans-4e" d="M 628 4666 
L 1478 4666 
L 3547 763 
L 3547 4666 
L 4159 4666 
L 4159 0 
L 3309 0 
L 1241 3903 
L 1241 0 
L 628 0 
L 628 4666 
z
" transform="scale(0.015625)"/>
      <path id="DejaVuSans-35" d="M 691 4666 
L 3169 4666 
L 3169 4134 
L 1269 4134 
L 1269 2991 
Q 1406 3038 1543 3061 
Q 1681 3084 1819 3084 
Q 2600 3084 3056 2656 
Q 3513 2228 3513 1497 
Q 3513 744 3044 326 
Q 2575 -91 1722 -91 
Q 1428 -91 1123 -41 
Q 819 9 494 109 
L 494 744 
Q 775 591 1075 516 
Q 1375 441 1709 441 
Q 2250 441 2565 725 
Q 2881 1009 2881 1497 
Q 2881 1984 2565 2268 
Q 2250 2553 1709 2553 
Q 1456 2553 1204 2497 
Q 953 2441 691 2322 
L 691 4666 
z
" transform="scale(0.015625)"/>
     </defs>
     <use xlink:href="#DejaVuSans-41"/>
     <use xlink:href="#DejaVuSans-53" transform="translate(68.408203 0)"/>
     <use xlink:href="#DejaVuSans-4e" transform="translate(131.884766 0)"/>
     <use xlink:href="#DejaVuSans-35" transform="translate(206.689453 0)"/>
     <use xlink:href="#DejaVuSans-35" transform="translate(270.3125 0)"/>
    </g>
    <!-- 2.8 A | occ 1.00 -->
    <g transform="translate(418.839016 164.232524) scale(0.08 -0.08)">
     <defs>
      <path id="DejaVuSans-32" d="M 1228 531 
L 3431 531 
L 3431 0 
L 469 0 
L 469 531 
Q 828 903 1448 1529 
Q 2069 2156 2228 2338 
Q 2531 2678 2651 2914 
Q 2772 3150 2772 3378 
Q 2772 3750 2511 3984 
Q 2250 4219 1831 4219 
Q 1534 4219 1204 4116 
Q 875 4013 500 3803 
L 500 4441 
Q 881 4594 1212 4672 
Q 1544 4750 1819 4750 
Q 2544 4750 2975 4387 
Q 3406 4025 3406 3419 
Q 3406 3131 3298 2873 
Q 3191 2616 2906 2266 
Q 2828 2175 2409 1742 
Q 1991 1309 1228 531 
z
" transform="scale(0.015625)"/>
      <path id="DejaVuSans-2e" d="M 684 794 
L 1344 794 
L 1344 0 
L 684 0 
L 684 794 
z
" transform="scale(0.015625)"/>
      <path id="DejaVuSans-38" d="M 2034 2216 
Q 1584 2216 1326 1975 
Q 1069 1734 1069 1313 
Q 1069 891 1326 650 
Q 1584 409 2034 409 
Q 2484 409 2743 651 
Q 3003 894 3003 1313 
Q 3003 1734 2745 1975 
Q 2488 2216 2034 2216 
z
M 1403 2484 
Q 997 2584 770 2862 
Q 544 3141 544 3541 
Q 544 4100 942 4425 
Q 1341 4750 2034 4750 
Q 2731 4750 3128 4425 
Q 3525 4100 3525 3541 
Q 3525 3141 3298 2862 
Q 3072 2584 2669 2484 
Q 3125 2378 3379 2068 
Q 3634 1759 3634 1313 
Q 3634 634 3220 271 
Q 2806 -91 2034 -91 
Q 1263 -91 848 271 
Q 434 634 434 1313 
Q 434 1759 690 2068 
Q 947 2378 1403 2484 
z
M 1172 3481 
Q 1172 3119 1398 2916 
Q 1625 2713 2034 2713 
Q 2441 2713 2670 2916 
Q 2900 3119 2900 3481 
Q 2900 3844 2670 4047 
Q 2441 4250 2034 4250 
Q 1625 4250 1398 4047 
Q 1172 3844 1172 3481 
z
" transform="scale(0.015625)"/>
      <path id="DejaVuSans-20" transform="scale(0.015625)"/>
      <path id="DejaVuSans-7c" d="M 1344 4891 
L 1344 -1509 
L 813 -1509 
L 813 4891 
L 1344 4891 
z
" transform="scale(0.015625)"/>
      <path id="DejaVuSans-6f" d="M 1959 3097 
Q 1497 3097 1228 2736 
Q 959 2375 959 1747 
Q 959 1119 1226 758 
Q 1494 397 1959 397 
Q 2419 397 2687 759 
Q 2956 1122 2956 1747 
Q 2956 2369 2687 2733 
Q 2419 3097 1959 3097 
z
M 1959 3584 
Q 2709 3584 3137 3096 
Q 3566 2609 3566 1747 
Q 3566 888 3137 398 
Q 2709 -91 1959 -91 
Q 1206 -91 779 398 
Q 353 888 353 1747 
Q 353 2609 779 3096 
Q 1206 3584 1959 3584 
z
" transform="scale(0.015625)"/>
      <path id="DejaVuSans-63" d="M 3122 3366 
L 3122 2828 
Q 2878 2963 2633 3030 
Q 2388 3097 2138 3097 
Q 1578 3097 1268 2742 
Q 959 2388 959 1747 
Q 959 1106 1268 751 
Q 1578 397 2138 397 
Q 2388 397 2633 464 
Q 2878 531 3122 666 
L 3122 134 
Q 2881 22 2623 -34 
Q 2366 -91 2075 -91 
Q 1284 -91 818 406 
Q 353 903 353 1747 
Q 353 2603 823 3093 
Q 1294 3584 2113 3584 
Q 2378 3584 2631 3529 
Q 2884 3475 3122 3366 
z
" transform="scale(0.015625)"/>
      <path id="DejaVuSans-31" d="M 794 531 
L 1825 531 
L 1825 4091 
L 703 3866 
L 703 4441 
L 1819 4666 
L 2450 4666 
L 2450 531 
L 3481 531 
L 3481 0 
L 794 0 
L 794 531 
z
" transform="scale(0.015625)"/>
      <path id="DejaVuSans-30" d="M 2034 4250 
Q 1547 4250 1301 3770 
Q 1056 3291 1056 2328 
Q 1056 1369 1301 889 
Q 1547 409 2034 409 
Q 2525 409 2770 889 
Q 3016 1369 3016 2328 
Q 3016 3291 2770 3770 
Q 2525 4250 2034 4250 
z
M 2034 4750 
Q 2819 4750 3233 4129 
Q 3647 3509 3647 2328 
Q 3647 1150 3233 529 
Q 2819 -91 2034 -91 
Q 1250 -91 836 529 
Q 422 1150 422 2328 
Q 422 3509 836 4129 
Q 1250 4750 2034 4750 
z
" transform="scale(0.015625)"/>
     </defs>
     <use xlink:href="#DejaVuSans-32"/>
     <use xlink:href="#DejaVuSans-2e" transform="translate(63.623047 0)"/>
     <use xlink:href="#DejaVuSans-38" transform="translate(95.410156 0)"/>
     <use xlink:href="#DejaVuSans-20" transform="translate(159.033203 0)"/>
     <use xlink:href="#DejaVuSans-41" transform="translate(190.820312 0)"/>
     <use xlink:href="#DejaVuSans-20" transform="translate(259.228516 0)"/>
     <use xlink:href="#DejaVuSans-7c" transform="translate(291.015625 0)"/>
     <use xlink:href="#DejaVuSans-20" transform="translate(324.707031 0)"/>
     <use xlink:href="#DejaVuSans-6f" transform="translate(356.494141 0)"/>
     <use xlink:href="#DejaVuSans-63" transform="translate(417.675781 0)"/>
     <use xlink:href="#DejaVuSans-63" transform="translate(472.65625 0)"/>
     <use xlink:href="#DejaVuSans-20" transform="translate(527.636719 0)"/>
     <use xlink:href="#DejaVuSans-31" transform="translate(559.423828 0)"/>
     <use xlink:href="#DejaVuSans-2e" transform="translate(623.046875 0)"/>
     <use xlink:href="#DejaVuSans-30" transform="translate(654.833984 0)"/>
     <use xlink:href="#DejaVuSans-30" transform="translate(718.457031 0)"/>
    </g>
   </g>
   <g id="text_2">
    <g id="patch_3">
     <path d="M 304.89095 88.410903 
L 367.45595 88.410903 
Q 369.45595 88.410903 369.45595 86.410903 
L 369.45595 69.668153 
Q 369.45595 67.668153 367.45595 67.668153 
L 304.89095 67.668153 
Q 302.89095 67.668153 302.89095 69.668153 
L 302.89095 86.410903 
Q 302.89095 88.410903 304.89095 88.410903 
z
" style="fill: #ffffff; stroke: #2b6cb0; stroke-linejoin: miter"/>
    </g>
    <!-- SER267 -->
    <g transform="translate(320.6922 75.524403) scale(0.08 -0.08)">
     <defs>
      <path id="DejaVuSans-45" d="M 628 4666 
L 3578 4666 
L 3578 4134 
L 1259 4134 
L 1259 2753 
L 3481 2753 
L 3481 2222 
L 1259 2222 
L 1259 531 
L 3634 531 
L 3634 0 
L 628 0 
L 628 4666 
z
" transform="scale(0.015625)"/>
      <path id="DejaVuSans-52" d="M 2841 2188 
Q 3044 2119 3236 1894 
Q 3428 1669 3622 1275 
L 4263 0 
L 3584 0 
L 2988 1197 
Q 2756 1666 2539 1819 
Q 2322 1972 1947 1972 
L 1259 1972 
L 1259 0 
L 628 0 
L 628 4666 
L 2053 4666 
Q 2853 4666 3247 4331 
Q 3641 3997 3641 3322 
Q 3641 2881 3436 2590 
Q 3231 2300 2841 2188 
z
M 1259 4147 
L 1259 2491 
L 2053 2491 
Q 2509 2491 2742 2702 
Q 2975 2913 2975 3322 
Q 2975 3731 2742 3939 
Q 2509 4147 2053 4147 
L 1259 4147 
z
" transform="scale(0.015625)"/>
      <path id="DejaVuSans-36" d="M 2113 2584 
Q 1688 2584 1439 2293 
Q 1191 2003 1191 1497 
Q 1191 994 1439 701 
Q 1688 409 2113 409 
Q 2538 409 2786 701 
Q 3034 994 3034 1497 
Q 3034 2003 2786 2293 
Q 2538 2584 2113 2584 
z
M 3366 4563 
L 3366 3988 
Q 3128 4100 2886 4159 
Q 2644 4219 2406 4219 
Q 1781 4219 1451 3797 
Q 1122 3375 1075 2522 
Q 1259 2794 1537 2939 
Q 1816 3084 2150 3084 
Q 2853 3084 3261 2657 
Q 3669 2231 3669 1497 
Q 3669 778 3244 343 
Q 2819 -91 2113 -91 
Q 1303 -91 875 529 
Q 447 1150 447 2328 
Q 447 3434 972 4092 
Q 1497 4750 2381 4750 
Q 2619 4750 2861 4703 
Q 3103 4656 3366 4563 
z
" transform="scale(0.015625)"/>
      <path id="DejaVuSans-37" d="M 525 4666 
L 3525 4666 
L 3525 4397 
L 1831 0 
L 1172 0 
L 2766 4134 
L 525 4134 
L 525 4666 
z
" transform="scale(0.015625)"/>
     </defs>
     <use xlink:href="#DejaVuSans-53"/>
     <use xlink:href="#DejaVuSans-45" transform="translate(63.476562 0)"/>
     <use xlink:href="#DejaVuSans-52" transform="translate(126.660156 0)"/>
     <use xlink:href="#DejaVuSans-32" transform="translate(196.142578 0)"/>
     <use xlink:href="#DejaVuSans-36" transform="translate(259.765625 0)"/>
     <use xlink:href="#DejaVuSans-37" transform="translate(323.388672 0)"/>
    </g>
    <!-- 3.2 A | occ 1.00 -->
    <g transform="translate(304.89095 84.524653) scale(0.08 -0.08)">
     <defs>
      <path id="DejaVuSans-33" d="M 2597 2516 
Q 3050 2419 3304 2112 
Q 3559 1806 3559 1356 
Q 3559 666 3084 287 
Q 2609 -91 1734 -91 
Q 1441 -91 1130 -33 
Q 819 25 488 141 
L 488 750 
Q 750 597 1062 519 
Q 1375 441 1716 441 
Q 2309 441 2620 675 
Q 2931 909 2931 1356 
Q 2931 1769 2642 2001 
Q 2353 2234 1838 2234 
L 1294 2234 
L 1294 2753 
L 1863 2753 
Q 2328 2753 2575 2939 
Q 2822 3125 2822 3475 
Q 2822 3834 2567 4026 
Q 2313 4219 1838 4219 
Q 1578 4219 1281 4162 
Q 984 4106 628 3988 
L 628 4550 
Q 988 4650 1302 4700 
Q 1616 4750 1894 4750 
Q 2613 4750 3031 4423 
Q 3450 4097 3450 3541 
Q 3450 3153 3228 2886 
Q 3006 2619 2597 2516 
z
" transform="scale(0.015625)"/>
     </defs>
     <use xlink:href="#DejaVuSans-33"/>
     <use xlink:href="#DejaVuSans-2e" transform="translate(63.623047 0)"/>
     <use xlink:href="#DejaVuSans-32" transform="translate(95.410156 0)"/>
     <use xlink:href="#DejaVuSans-20" transform="translate(159.033203 0)"/>
     <use xlink:href="#DejaVuSans-41" transform="translate(190.820312 0)"/>
     <use xlink:href="#DejaVuSans-20" transform="translate(259.228516 0)"/>
     <use xlink:href="#DejaVuSans-7c" transform="translate(291.015625 0)"/>
     <use xlink:href="#DejaVuSans-20" transform="translate(324.707031 0)"/>
     <use xlink:href="#DejaVuSans-6f" transform="translate(356.494141 0)"/>
     <use xlink:href="#DejaVuSans-63" transform="translate(417.675781 0)"/>
     <use xlink:href="#DejaVuSans-63" transform="translate(472.65625 0)"/>
     <use xlink:href="#DejaVuSans-20" transform="translate(527.636719 0)"/>
     <use xlink:href="#DejaVuSans-31" transform="translate(559.423828 0)"/>
     <use xlink:href="#DejaVuSans-2e" transform="translate(623.046875 0)"/>
     <use xlink:href="#DejaVuSans-30" transform="translate(654.833984 0)"/>
     <use xlink:href="#DejaVuSans-30" transform="translate(718.457031 0)"/>
    </g>
   </g>
   <g id="text_3">
    <g id="patch_4">
     <path d="M 143.74405 88.410903 
L 206.30905 88.410903 
Q 208.30905 88.410903 208.30905 86.410903 
L 208.30905 69.668153 
Q 208.30905 67.668153 206.30905 67.668153 
L 143.74405 67.668153 
Q 141.74405 67.668153 141.74405 69.668153 
L 141.74405 86.410903 
Q 141.74405 88.410903 143.74405 88.410903 
z
" style="fill: #ffffff; stroke: #dd6b20; stroke-linejoin: miter"/>
    </g>
    <!-- PHE78 -->
    <g transform="translate(161.98905 75.524403) scale(0.08 -0.08)">
     <defs>
      <path id="DejaVuSans-50" d="M 1259 4147 
L 1259 2394 
L 2053 2394 
Q 2494 2394 2734 2622 
Q 2975 2850 2975 3272 
Q 2975 3691 2734 3919 
Q 2494 4147 2053 4147 
L 1259 4147 
z
M 628 4666 
L 2053 4666 
Q 2838 4666 3239 4311 
Q 3641 3956 3641 3272 
Q 3641 2581 3239 2228 
Q 2838 1875 2053 1875 
L 1259 1875 
L 1259 0 
L 628 0 
L 628 4666 
z
" transform="scale(0.015625)"/>
      <path id="DejaVuSans-48" d="M 628 4666 
L 1259 4666 
L 1259 2753 
L 3553 2753 
L 3553 4666 
L 4184 4666 
L 4184 0 
L 3553 0 
L 3553 2222 
L 1259 2222 
L 1259 0 
L 628 0 
L 628 4666 
z
" transform="scale(0.015625)"/>
     </defs>
     <use xlink:href="#DejaVuSans-50"/>
     <use xlink:href="#DejaVuSans-48" transform="translate(60.302734 0)"/>
     <use xlink:href="#DejaVuSans-45" transform="translate(135.498047 0)"/>
     <use xlink:href="#DejaVuSans-37" transform="translate(198.681641 0)"/>
     <use xlink:href="#DejaVuSans-38" transform="translate(262.304688 0)"/>
    </g>
    <!-- 3.3 A | occ 1.00 -->
    <g transform="translate(143.74405 84.524653) scale(0.08 -0.08)">
     <use xlink:href="#DejaVuSans-33"/>
     <use xlink:href="#DejaVuSans-2e" transform="translate(63.623047 0)"/>
     <use xlink:href="#DejaVuSans-33" transform="translate(95.410156 0)"/>
     <use xlink:href="#DejaVuSans-20" transform="translate(159.033203 0)"/>
     <use xlink:href="#DejaVuSans-41" transform="translate(190.820312 0)"/>
     <use xlink:href="#DejaVuSans-20" transform="translate(259.228516 0)"/>
     <use xlink:href="#DejaVuSans-7c" transform="translate(291.015625 0)"/>
     <use xlink:href="#DejaVuSans-20" transform="translate(324.707031 0)"/>
     <use xlink:href="#DejaVuSans-6f" transform="translate(356.494141 0)"/>
     <use xlink:href="#DejaVuSans-63" transform="translate(417.675781 0)"/>
     <use xlink:href="#DejaVuSans-63" transform="translate(472.65625 0)"/>
     <use xlink:href="#DejaVuSans-20" transform="translate(527.636719 0)"/>
     <use xlink:href="#DejaVuSans-31" transform="translate(559.423828 0)"/>
     <use xlink:href="#DejaVuSans-2e" transform="translate(623.046875 0)"/>
     <use xlink:href="#DejaVuSans-30" transform="translate(654.833984 0)"/>
     <use xlink:href="#DejaVuSans-30" transform="translate(718.457031 0)"/>
    </g>
   </g>
   <g id="text_4">
    <g id="patch_5">
     <path d="M 29.795984 168.118774 
L 92.360984 168.118774 
Q 94.360984 168.118774 94.360984 166.118774 
L 94.360984 149.376024 
Q 94.360984 147.376024 92.360984 147.376024 
L 29.795984 147.376024 
Q 27.795984 147.376024 27.795984 149.376024 
L 27.795984 166.118774 
Q 27.795984 168.118774 29.795984 168.118774 
z
" style="fill: #ffffff; stroke: #dd6b20; stroke-linejoin: miter"/>
    </g>
    <!-- HIS60 -->
    <g transform="translate(49.260984 155.232274) scale(0.08 -0.08)">
     <defs>
      <path id="DejaVuSans-49" d="M 628 4666 
L 1259 4666 
L 1259 0 
L 628 0 
L 628 4666 
z
" transform="scale(0.015625)"/>
     </defs>
     <use xlink:href="#DejaVuSans-48"/>
     <use xlink:href="#DejaVuSans-49" transform="translate(75.195312 0)"/>
     <use xlink:href="#DejaVuSans-53" transform="translate(104.6875 0)"/>
     <use xlink:href="#DejaVuSans-36" transform="translate(168.164062 0)"/>
     <use xlink:href="#DejaVuSans-30" transform="translate(231.787109 0)"/>
    </g>
    <!-- 3.7 A | occ 1.00 -->
    <g transform="translate(29.795984 164.232524) scale(0.08 -0.08)">
     <use xlink:href="#DejaVuSans-33"/>
     <use xlink:href="#DejaVuSans-2e" transform="translate(63.623047 0)"/>
     <use xlink:href="#DejaVuSans-37" transform="translate(95.410156 0)"/>
     <use xlink:href="#DejaVuSans-20" transform="translate(159.033203 0)"/>
     <use xlink:href="#DejaVuSans-41" transform="translate(190.820312 0)"/>
     <use xlink:href="#DejaVuSans-20" transform="translate(259.228516 0)"/>
     <use xlink:href="#DejaVuSans-7c" transform="translate(291.015625 0)"/>
     <use xlink:href="#DejaVuSans-20" transform="translate(324.707031 0)"/>
     <use xlink:href="#DejaVuSans-6f" transform="translate(356.494141 0)"/>
     <use xlink:href="#DejaVuSans-63" transform="translate(417.675781 0)"/>
     <use xlink:href="#DejaVuSans-63" transform="translate(472.65625 0)"/>
     <use xlink:href="#DejaVuSans-20" transform="translate(527.636719 0)"/>
     <use xlink:href="#DejaVuSans-31" transform="translate(559.423828 0)"/>
     <use xlink:href="#DejaVuSans-2e" transform="translate(623.046875 0)"/>
     <use xlink:href="#DejaVuSans-30" transform="translate(654.833984 0)"/>
     <use xlink:href="#DejaVuSans-30" transform="translate(718.457031 0)"/>
    </g>
   </g>
   <g id="text_5">
    <g id="patch_6">
     <path d="M 29.795984 280.842726 
L 92.360984 280.842726 
Q 94.360984 280.842726 94.360984 278.842726 
L 94.360984 262.099976 
Q 94.360984 260.099976 92.360984 260.099976 
L 29.795984 260.099976 
Q 27.795984 260.099976 27.795984 262.099976 
L 27.795984 278.842726 
Q 27.795984 280.842726 29.795984 280.842726 
z
" style="fill: #ffffff; stroke: #2b6cb0; stroke-linejoin: miter"/>
    </g>
    <!-- GLN437 -->
    <g transform="translate(45.122859 267.956226) scale(0.08 -0.08)">
     <defs>
      <path id="DejaVuSans-47" d="M 3809 666 
L 3809 1919 
L 2778 1919 
L 2778 2438 
L 4434 2438 
L 4434 434 
Q 4069 175 3628 42 
Q 3188 -91 2688 -91 
Q 1594 -91 976 548 
Q 359 1188 359 2328 
Q 359 3472 976 4111 
Q 1594 4750 2688 4750 
Q 3144 4750 3555 4637 
Q 3966 4525 4313 4306 
L 4313 3634 
Q 3963 3931 3569 4081 
Q 3175 4231 2741 4231 
Q 1884 4231 1454 3753 
Q 1025 3275 1025 2328 
Q 1025 1384 1454 906 
Q 1884 428 2741 428 
Q 3075 428 3337 486 
Q 3600 544 3809 666 
z
" transform="scale(0.015625)"/>
      <path id="DejaVuSans-4c" d="M 628 4666 
L 1259 4666 
L 1259 531 
L 3531 531 
L 3531 0 
L 628 0 
L 628 4666 
z
" transform="scale(0.015625)"/>
      <path id="DejaVuSans-34" d="M 2419 4116 
L 825 1625 
L 2419 1625 
L 2419 4116 
z
M 2253 4666 
L 3047 4666 
L 3047 1625 
L 3713 1625 
L 3713 1100 
L 3047 1100 
L 3047 0 
L 2419 0 
L 2419 1100 
L 313 1100 
L 313 1709 
L 2253 4666 
z
" transform="scale(0.015625)"/>
     </defs>
     <use xlink:href="#DejaVuSans-47"/>
     <use xlink:href="#DejaVuSans-4c" transform="translate(77.490234 0)"/>
     <use xlink:href="#DejaVuSans-4e" transform="translate(133.203125 0)"/>
     <use xlink:href="#DejaVuSans-34" transform="translate(208.007812 0)"/>
     <use xlink:href="#DejaVuSans-33" transform="translate(271.630859 0)"/>
     <use xlink:href="#DejaVuSans-37" transform="translate(335.253906 0)"/>
    </g>
    <!-- 3.2 A | occ 0.99 -->
    <g transform="translate(29.795984 276.956476) scale(0.08 -0.08)">
     <defs>
      <path id="DejaVuSans-39" d="M 703 97 
L 703 672 
Q 941 559 1184 500 
Q 1428 441 1663 441 
Q 2288 441 2617 861 
Q 2947 1281 2994 2138 
Q 2813 1869 2534 1725 
Q 2256 1581 1919 1581 
Q 1219 1581 811 2004 
Q 403 2428 403 3163 
Q 403 3881 828 4315 
Q 1253 4750 1959 4750 
Q 2769 4750 3195 4129 
Q 3622 3509 3622 2328 
Q 3622 1225 3098 567 
Q 2575 -91 1691 -91 
Q 1453 -91 1209 -44 
Q 966 3 703 97 
z
M 1959 2075 
Q 2384 2075 2632 2365 
Q 2881 2656 2881 3163 
Q 2881 3666 2632 3958 
Q 2384 4250 1959 4250 
Q 1534 4250 1286 3958 
Q 1038 3666 1038 3163 
Q 1038 2656 1286 2365 
Q 1534 2075 1959 2075 
z
" transform="scale(0.015625)"/>
     </defs>
     <use xlink:href="#DejaVuSans-33"/>
     <use xlink:href="#DejaVuSans-2e" transform="translate(63.623047 0)"/>
     <use xlink:href="#DejaVuSans-32" transform="translate(95.410156 0)"/>
     <use xlink:href="#DejaVuSans-20" transform="translate(159.033203 0)"/>
     <use xlink:href="#DejaVuSans-41" transform="translate(190.820312 0)"/>
     <use xlink:href="#DejaVuSans-20" transform="translate(259.228516 0)"/>
     <use xlink:href="#DejaVuSans-7c" transform="translate(291.015625 0)"/>
     <use xlink:href="#DejaVuSans-20" transform="translate(324.707031 0)"/>
     <use xlink:href="#DejaVuSans-6f" transform="translate(356.494141 0)"/>
     <use xlink:href="#DejaVuSans-63" transform="translate(417.675781 0)"/>
     <use xlink:href="#DejaVuSans-63" transform="translate(472.65625 0)"/>
     <use xlink:href="#DejaVuSans-20" transform="translate(527.636719 0)"/>
     <use xlink:href="#DejaVuSans-30" transform="translate(559.423828 0)"/>
     <use xlink:href="#DejaVuSans-2e" transform="translate(623.046875 0)"/>
     <use xlink:href="#DejaVuSans-39" transform="translate(654.833984 0)"/>
     <use xlink:href="#DejaVuSans-39" transform="translate(718.457031 0)"/>
    </g>
   </g>
   <g id="text_6">
    <g id="patch_7">
     <path d="M 143.74405 360.550597 
L 206.30905 360.550597 
Q 208.30905 360.550597 208.30905 358.550597 
L 208.30905 341.807847 
Q 208.30905 339.807847 206.30905 339.807847 
L 143.74405 339.807847 
Q 141.74405 339.807847 141.74405 341.807847 
L 141.74405 358.550597 
Q 141.74405 360.550597 143.74405 360.550597 
z
" style="fill: #ffffff; stroke: #dd6b20; stroke-linejoin: miter"/>
    </g>
    <!-- TYR270 -->
    <g transform="translate(159.725925 347.664097) scale(0.08 -0.08)">
     <defs>
      <path id="DejaVuSans-54" d="M -19 4666 
L 3928 4666 
L 3928 4134 
L 2272 4134 
L 2272 0 
L 1638 0 
L 1638 4134 
L -19 4134 
L -19 4666 
z
" transform="scale(0.015625)"/>
      <path id="DejaVuSans-59" d="M -13 4666 
L 666 4666 
L 1959 2747 
L 3244 4666 
L 3922 4666 
L 2272 2222 
L 2272 0 
L 1638 0 
L 1638 2222 
L -13 4666 
z
" transform="scale(0.015625)"/>
     </defs>
     <use xlink:href="#DejaVuSans-54"/>
     <use xlink:href="#DejaVuSans-59" transform="translate(61.083984 0)"/>
     <use xlink:href="#DejaVuSans-52" transform="translate(122.167969 0)"/>
     <use xlink:href="#DejaVuSans-32" transform="translate(191.650391 0)"/>
     <use xlink:href="#DejaVuSans-37" transform="translate(255.273438 0)"/>
     <use xlink:href="#DejaVuSans-30" transform="translate(318.896484 0)"/>
    </g>
    <!-- 3.3 A | occ 0.98 -->
    <g transform="translate(143.74405 356.664347) scale(0.08 -0.08)">
     <use xlink:href="#DejaVuSans-33"/>
     <use xlink:href="#DejaVuSans-2e" transform="translate(63.623047 0)"/>
     <use xlink:href="#DejaVuSans-33" transform="translate(95.410156 0)"/>
     <use xlink:href="#DejaVuSans-20" transform="translate(159.033203 0)"/>
     <use xlink:href="#DejaVuSans-41" transform="translate(190.820312 0)"/>
     <use xlink:href="#DejaVuSans-20" transform="translate(259.228516 0)"/>
     <use xlink:href="#DejaVuSans-7c" transform="translate(291.015625 0)"/>
     <use xlink:href="#DejaVuSans-20" transform="translate(324.707031 0)"/>
     <use xlink:href="#DejaVuSans-6f" transform="translate(356.494141 0)"/>
     <use xlink:href="#DejaVuSans-63" transform="translate(417.675781 0)"/>
     <use xlink:href="#DejaVuSans-63" transform="translate(472.65625 0)"/>
     <use xlink:href="#DejaVuSans-20" transform="translate(527.636719 0)"/>
     <use xlink:href="#DejaVuSans-30" transform="translate(559.423828 0)"/>
     <use xlink:href="#DejaVuSans-2e" transform="translate(623.046875 0)"/>
     <use xlink:href="#DejaVuSans-39" transform="translate(654.833984 0)"/>
     <use xlink:href="#DejaVuSans-38" transform="translate(718.457031 0)"/>
    </g>
   </g>
   <g id="text_7">
    <g id="patch_8">
     <path d="M 304.89095 360.550597 
L 367.45595 360.550597 
Q 369.45595 360.550597 369.45595 358.550597 
L 369.45595 341.807847 
Q 369.45595 339.807847 367.45595 339.807847 
L 304.89095 339.807847 
Q 302.89095 339.807847 302.89095 341.807847 
L 302.89095 358.550597 
Q 302.89095 360.550597 304.89095 360.550597 
z
" style="fill: #ffffff; stroke: #2b6cb0; stroke-linejoin: miter"/>
    </g>
    <!-- VAL266 -->
    <g transform="translate(321.0922 347.664097) scale(0.08 -0.08)">
     <defs>
      <path id="DejaVuSans-56" d="M 1831 0 
L 50 4666 
L 709 4666 
L 2188 738 
L 3669 4666 
L 4325 4666 
L 2547 0 
L 1831 0 
z
" transform="scale(0.015625)"/>
     </defs>
     <use xlink:href="#DejaVuSans-56"/>
     <use xlink:href="#DejaVuSans-41" transform="translate(62.033203 0)"/>
     <use xlink:href="#DejaVuSans-4c" transform="translate(130.441406 0)"/>
     <use xlink:href="#DejaVuSans-32" transform="translate(186.154297 0)"/>
     <use xlink:href="#DejaVuSans-36" transform="translate(249.777344 0)"/>
     <use xlink:href="#DejaVuSans-36" transform="translate(313.400391 0)"/>
    </g>
    <!-- 3.0 A | occ 0.98 -->
    <g transform="translate(304.89095 356.664347) scale(0.08 -0.08)">
     <use xlink:href="#DejaVuSans-33"/>
     <use xlink:href="#DejaVuSans-2e" transform="translate(63.623047 0)"/>
     <use xlink:href="#DejaVuSans-30" transform="translate(95.410156 0)"/>
     <use xlink:href="#DejaVuSans-20" transform="translate(159.033203 0)"/>
     <use xlink:href="#DejaVuSans-41" transform="translate(190.820312 0)"/>
     <use xlink:href="#DejaVuSans-20" transform="translate(259.228516 0)"/>
     <use xlink:href="#DejaVuSans-7c" transform="translate(291.015625 0)"/>
     <use xlink:href="#DejaVuSans-20" transform="translate(324.707031 0)"/>
     <use xlink:href="#DejaVuSans-6f" transform="translate(356.494141 0)"/>
     <use xlink:href="#DejaVuSans-63" transform="translate(417.675781 0)"/>
     <use xlink:href="#DejaVuSans-63" transform="translate(472.65625 0)"/>
     <use xlink:href="#DejaVuSans-20" transform="translate(527.636719 0)"/>
     <use xlink:href="#DejaVuSans-30" transform="translate(559.423828 0)"/>
     <use xlink:href="#DejaVuSans-2e" transform="translate(623.046875 0)"/>
     <use xlink:href="#DejaVuSans-39" transform="translate(654.833984 0)"/>
     <use xlink:href="#DejaVuSans-38" transform="translate(718.457031 0)"/>
    </g>
   </g>
   <g id="text_8">
    <g id="patch_9">
     <path d="M 418.839016 280.842726 
L 481.404016 280.842726 
Q 483.404016 280.842726 483.404016 278.842726 
L 483.404016 262.099976 
Q 483.404016 260.099976 481.404016 260.099976 
L 418.839016 260.099976 
Q 416.839016 260.099976 416.839016 262.099976 
L 416.839016 278.842726 
Q 416.839016 280.842726 418.839016 280.842726 
z
" style="fill: #ffffff; stroke: #dd6b20; stroke-linejoin: miter"/>
    </g>
    <!-- ALA82 -->
    <g transform="translate(437.240266 267.956226) scale(0.08 -0.08)">
     <use xlink:href="#DejaVuSans-41"/>
     <use xlink:href="#DejaVuSans-4c" transform="translate(68.408203 0)"/>
     <use xlink:href="#DejaVuSans-41" transform="translate(126.371094 0)"/>
     <use xlink:href="#DejaVuSans-38" transform="translate(194.779297 0)"/>
     <use xlink:href="#DejaVuSans-32" transform="translate(258.402344 0)"/>
    </g>
    <!-- 3.5 A | occ 0.96 -->
    <g transform="translate(418.839016 276.956476) scale(0.08 -0.08)">
     <use xlink:href="#DejaVuSans-33"/>
     <use xlink:href="#DejaVuSans-2e" transform="translate(63.623047 0)"/>
     <use xlink:href="#DejaVuSans-35" transform="translate(95.410156 0)"/>
     <use xlink:href="#DejaVuSans-20" transform="translate(159.033203 0)"/>
     <use xlink:href="#DejaVuSans-41" transform="translate(190.820312 0)"/>
     <use xlink:href="#DejaVuSans-20" transform="translate(259.228516 0)"/>
     <use xlink:href="#DejaVuSans-7c" transform="translate(291.015625 0)"/>
     <use xlink:href="#DejaVuSans-20" transform="translate(324.707031 0)"/>
     <use xlink:href="#DejaVuSans-6f" transform="translate(356.494141 0)"/>
     <use xlink:href="#DejaVuSans-63" transform="translate(417.675781 0)"/>
     <use xlink:href="#DejaVuSans-63" transform="translate(472.65625 0)"/>
     <use xlink:href="#DejaVuSans-20" transform="translate(527.636719 0)"/>
     <use xlink:href="#DejaVuSans-30" transform="translate(559.423828 0)"/>
     <use xlink:href="#DejaVuSans-2e" transform="translate(623.046875 0)"/>
     <use xlink:href="#DejaVuSans-39" transform="translate(654.833984 0)"/>
     <use xlink:href="#DejaVuSans-36" transform="translate(718.457031 0)"/>
    </g>
   </g>
   <g id="text_9">
    <!-- blue: polar contact &lt;=3.5 A; orange: close contact &lt;=4.5 A -->
    <g style="fill: #333333" transform="translate(24.942857 386.941654) scale(0.08 -0.08)">
     <defs>
      <path id="DejaVuSans-62" d="M 3116 1747 
Q 3116 2381 2855 2742 
Q 2594 3103 2138 3103 
Q 1681 3103 1420 2742 
Q 1159 2381 1159 1747 
Q 1159 1113 1420 752 
Q 1681 391 2138 391 
Q 2594 391 2855 752 
Q 3116 1113 3116 1747 
z
M 1159 2969 
Q 1341 3281 1617 3432 
Q 1894 3584 2278 3584 
Q 2916 3584 3314 3078 
Q 3713 2572 3713 1747 
Q 3713 922 3314 415 
Q 2916 -91 2278 -91 
Q 1894 -91 1617 61 
Q 1341 213 1159 525 
L 1159 0 
L 581 0 
L 581 4863 
L 1159 4863 
L 1159 2969 
z
" transform="scale(0.015625)"/>
      <path id="DejaVuSans-6c" d="M 603 4863 
L 1178 4863 
L 1178 0 
L 603 0 
L 603 4863 
z
" transform="scale(0.015625)"/>
      <path id="DejaVuSans-75" d="M 544 1381 
L 544 3500 
L 1119 3500 
L 1119 1403 
Q 1119 906 1312 657 
Q 1506 409 1894 409 
Q 2359 409 2629 706 
Q 2900 1003 2900 1516 
L 2900 3500 
L 3475 3500 
L 3475 0 
L 2900 0 
L 2900 538 
Q 2691 219 2414 64 
Q 2138 -91 1772 -91 
Q 1169 -91 856 284 
Q 544 659 544 1381 
z
M 1991 3584 
L 1991 3584 
z
" transform="scale(0.015625)"/>
      <path id="DejaVuSans-65" d="M 3597 1894 
L 3597 1613 
L 953 1613 
Q 991 1019 1311 708 
Q 1631 397 2203 397 
Q 2534 397 2845 478 
Q 3156 559 3463 722 
L 3463 178 
Q 3153 47 2828 -22 
Q 2503 -91 2169 -91 
Q 1331 -91 842 396 
Q 353 884 353 1716 
Q 353 2575 817 3079 
Q 1281 3584 2069 3584 
Q 2775 3584 3186 3129 
Q 3597 2675 3597 1894 
z
M 3022 2063 
Q 3016 2534 2758 2815 
Q 2500 3097 2075 3097 
Q 1594 3097 1305 2825 
Q 1016 2553 972 2059 
L 3022 2063 
z
" transform="scale(0.015625)"/>
      <path id="DejaVuSans-3a" d="M 750 794 
L 1409 794 
L 1409 0 
L 750 0 
L 750 794 
z
M 750 3309 
L 1409 3309 
L 1409 2516 
L 750 2516 
L 750 3309 
z
" transform="scale(0.015625)"/>
      <path id="DejaVuSans-70" d="M 1159 525 
L 1159 -1331 
L 581 -1331 
L 581 3500 
L 1159 3500 
L 1159 2969 
Q 1341 3281 1617 3432 
Q 1894 3584 2278 3584 
Q 2916 3584 3314 3078 
Q 3713 2572 3713 1747 
Q 3713 922 3314 415 
Q 2916 -91 2278 -91 
Q 1894 -91 1617 61 
Q 1341 213 1159 525 
z
M 3116 1747 
Q 3116 2381 2855 2742 
Q 2594 3103 2138 3103 
Q 1681 3103 1420 2742 
Q 1159 2381 1159 1747 
Q 1159 1113 1420 752 
Q 1681 391 2138 391 
Q 2594 391 2855 752 
Q 3116 1113 3116 1747 
z
" transform="scale(0.015625)"/>
      <path id="DejaVuSans-61" d="M 2194 1759 
Q 1497 1759 1228 1600 
Q 959 1441 959 1056 
Q 959 750 1161 570 
Q 1363 391 1709 391 
Q 2188 391 2477 730 
Q 2766 1069 2766 1631 
L 2766 1759 
L 2194 1759 
z
M 3341 1997 
L 3341 0 
L 2766 0 
L 2766 531 
Q 2569 213 2275 61 
Q 1981 -91 1556 -91 
Q 1019 -91 701 211 
Q 384 513 384 1019 
Q 384 1609 779 1909 
Q 1175 2209 1959 2209 
L 2766 2209 
L 2766 2266 
Q 2766 2663 2505 2880 
Q 2244 3097 1772 3097 
Q 1472 3097 1187 3025 
Q 903 2953 641 2809 
L 641 3341 
Q 956 3463 1253 3523 
Q 1550 3584 1831 3584 
Q 2591 3584 2966 3190 
Q 3341 2797 3341 1997 
z
" transform="scale(0.015625)"/>
      <path id="DejaVuSans-72" d="M 2631 2963 
Q 2534 3019 2420 3045 
Q 2306 3072 2169 3072 
Q 1681 3072 1420 2755 
Q 1159 2438 1159 1844 
L 1159 0 
L 581 0 
L 581 3500 
L 1159 3500 
L 1159 2956 
Q 1341 3275 1631 3429 
Q 1922 3584 2338 3584 
Q 2397 3584 2469 3576 
Q 2541 3569 2628 3553 
L 2631 2963 
z
" transform="scale(0.015625)"/>
      <path id="DejaVuSans-6e" d="M 3513 2113 
L 3513 0 
L 2938 0 
L 2938 2094 
Q 2938 2591 2744 2837 
Q 2550 3084 2163 3084 
Q 1697 3084 1428 2787 
Q 1159 2491 1159 1978 
L 1159 0 
L 581 0 
L 581 3500 
L 1159 3500 
L 1159 2956 
Q 1366 3272 1645 3428 
Q 1925 3584 2291 3584 
Q 2894 3584 3203 3211 
Q 3513 2838 3513 2113 
z
" transform="scale(0.015625)"/>
      <path id="DejaVuSans-74" d="M 1172 4494 
L 1172 3500 
L 2356 3500 
L 2356 3053 
L 1172 3053 
L 1172 1153 
Q 1172 725 1289 603 
Q 1406 481 1766 481 
L 2356 481 
L 2356 0 
L 1766 0 
Q 1100 0 847 248 
Q 594 497 594 1153 
L 594 3053 
L 172 3053 
L 172 3500 
L 594 3500 
L 594 4494 
L 1172 4494 
z
" transform="scale(0.015625)"/>
      <path id="DejaVuSans-3c" d="M 4684 3150 
L 1459 2003 
L 4684 863 
L 4684 294 
L 678 1747 
L 678 2266 
L 4684 3719 
L 4684 3150 
z
" transform="scale(0.015625)"/>
      <path id="DejaVuSans-3d" d="M 678 2906 
L 4684 2906 
L 4684 2381 
L 678 2381 
L 678 2906 
z
M 678 1631 
L 4684 1631 
L 4684 1100 
L 678 1100 
L 678 1631 
z
" transform="scale(0.015625)"/>
      <path id="DejaVuSans-3b" d="M 750 3309 
L 1409 3309 
L 1409 2516 
L 750 2516 
L 750 3309 
z
M 750 794 
L 1409 794 
L 1409 256 
L 897 -744 
L 494 -744 
L 750 256 
L 750 794 
z
" transform="scale(0.015625)"/>
      <path id="DejaVuSans-67" d="M 2906 1791 
Q 2906 2416 2648 2759 
Q 2391 3103 1925 3103 
Q 1463 3103 1205 2759 
Q 947 2416 947 1791 
Q 947 1169 1205 825 
Q 1463 481 1925 481 
Q 2391 481 2648 825 
Q 2906 1169 2906 1791 
z
M 3481 434 
Q 3481 -459 3084 -895 
Q 2688 -1331 1869 -1331 
Q 1566 -1331 1297 -1286 
Q 1028 -1241 775 -1147 
L 775 -588 
Q 1028 -725 1275 -790 
Q 1522 -856 1778 -856 
Q 2344 -856 2625 -561 
Q 2906 -266 2906 331 
L 2906 616 
Q 2728 306 2450 153 
Q 2172 0 1784 0 
Q 1141 0 747 490 
Q 353 981 353 1791 
Q 353 2603 747 3093 
Q 1141 3584 1784 3584 
Q 2172 3584 2450 3431 
Q 2728 3278 2906 2969 
L 2906 3500 
L 3481 3500 
L 3481 434 
z
" transform="scale(0.015625)"/>
      <path id="DejaVuSans-73" d="M 2834 3397 
L 2834 2853 
Q 2591 2978 2328 3040 
Q 2066 3103 1784 3103 
Q 1356 3103 1142 2972 
Q 928 2841 928 2578 
Q 928 2378 1081 2264 
Q 1234 2150 1697 2047 
L 1894 2003 
Q 2506 1872 2764 1633 
Q 3022 1394 3022 966 
Q 3022 478 2636 193 
Q 2250 -91 1575 -91 
Q 1294 -91 989 -36 
Q 684 19 347 128 
L 347 722 
Q 666 556 975 473 
Q 1284 391 1588 391 
Q 1994 391 2212 530 
Q 2431 669 2431 922 
Q 2431 1156 2273 1281 
Q 2116 1406 1581 1522 
L 1381 1569 
Q 847 1681 609 1914 
Q 372 2147 372 2553 
Q 372 3047 722 3315 
Q 1072 3584 1716 3584 
Q 2034 3584 2315 3537 
Q 2597 3491 2834 3397 
z
" transform="scale(0.015625)"/>
     </defs>
     <use xlink:href="#DejaVuSans-62"/>
     <use xlink:href="#DejaVuSans-6c" transform="translate(63.476562 0)"/>
     <use xlink:href="#DejaVuSans-75" transform="translate(91.259766 0)"/>
     <use xlink:href="#DejaVuSans-65" transform="translate(154.638672 0)"/>
     <use xlink:href="#DejaVuSans-3a" transform="translate(216.162109 0)"/>
     <use xlink:href="#DejaVuSans-20" transform="translate(249.853516 0)"/>
     <use xlink:href="#DejaVuSans-70" transform="translate(281.640625 0)"/>
     <use xlink:href="#DejaVuSans-6f" transform="translate(345.117188 0)"/>
     <use xlink:href="#DejaVuSans-6c" transform="translate(406.298828 0)"/>
     <use xlink:href="#DejaVuSans-61" transform="translate(434.082031 0)"/>
     <use xlink:href="#DejaVuSans-72" transform="translate(495.361328 0)"/>
     <use xlink:href="#DejaVuSans-20" transform="translate(536.474609 0)"/>
     <use xlink:href="#DejaVuSans-63" transform="translate(568.261719 0)"/>
     <use xlink:href="#DejaVuSans-6f" transform="translate(623.242188 0)"/>
     <use xlink:href="#DejaVuSans-6e" transform="translate(684.423828 0)"/>
     <use xlink:href="#DejaVuSans-74" transform="translate(747.802734 0)"/>
     <use xlink:href="#DejaVuSans-61" transform="translate(787.011719 0)"/>
     <use xlink:href="#DejaVuSans-63" transform="translate(848.291016 0)"/>
     <use xlink:href="#DejaVuSans-74" transform="translate(903.271484 0)"/>
     <use xlink:href="#DejaVuSans-20" transform="translate(942.480469 0)"/>
     <use xlink:href="#DejaVuSans-3c" transform="translate(974.267578 0)"/>
     <use xlink:href="#DejaVuSans-3d" transform="translate(1058.056641 0)"/>
     <use xlink:href="#DejaVuSans-33" transform="translate(1141.845703 0)"/>
     <use xlink:href="#DejaVuSans-2e" transform="translate(1205.46875 0)"/>
     <use xlink:href="#DejaVuSans-35" transform="translate(1237.255859 0)"/>
     <use xlink:href="#DejaVuSans-20" transform="translate(1300.878906 0)"/>
     <use xlink:href="#DejaVuSans-41" transform="translate(1332.666016 0)"/>
     <use xlink:href="#DejaVuSans-3b" transform="translate(1401.074219 0)"/>
     <use xlink:href="#DejaVuSans-20" transform="translate(1434.765625 0)"/>
     <use xlink:href="#DejaVuSans-6f" transform="translate(1466.552734 0)"/>
     <use xlink:href="#DejaVuSans-72" transform="translate(1527.734375 0)"/>
     <use xlink:href="#DejaVuSans-61" transform="translate(1568.847656 0)"/>
     <use xlink:href="#DejaVuSans-6e" transform="translate(1630.126953 0)"/>
     <use xlink:href="#DejaVuSans-67" transform="translate(1693.505859 0)"/>
     <use xlink:href="#DejaVuSans-65" transform="translate(1756.982422 0)"/>
     <use xlink:href="#DejaVuSans-3a" transform="translate(1818.505859 0)"/>
     <use xlink:href="#DejaVuSans-20" transform="translate(1852.197266 0)"/>
     <use xlink:href="#DejaVuSans-63" transform="translate(1883.984375 0)"/>
     <use xlink:href="#DejaVuSans-6c" transform="translate(1938.964844 0)"/>
     <use xlink:href="#DejaVuSans-6f" transform="translate(1966.748047 0)"/>
     <use xlink:href="#DejaVuSans-73" transform="translate(2027.929688 0)"/>
     <use xlink:href="#DejaVuSans-65" transform="translate(2080.029297 0)"/>
     <use xlink:href="#DejaVuSans-20" transform="translate(2141.552734 0)"/>
     <use xlink:href="#DejaVuSans-63" transform="translate(2173.339844 0)"/>
     <use xlink:href="#DejaVuSans-6f" transform="translate(2228.320312 0)"/>
     <use xlink:href="#DejaVuSans-6e" transform="translate(2289.501953 0)"/>
     <use xlink:href="#DejaVuSans-74" transform="translate(2352.880859 0)"/>
     <use xlink:href="#DejaVuSans-61" transform="translate(2392.089844 0)"/>
     <use xlink:href="#DejaVuSans-63" transform="translate(2453.369141 0)"/>
     <use xlink:href="#DejaVuSans-74" transform="translate(2508.349609 0)"/>
     <use xlink:href="#DejaVuSans-20" transform="translate(2547.558594 0)"/>
     <use xlink:href="#DejaVuSans-3c" transform="translate(2579.345703 0)"/>
     <use xlink:href="#DejaVuSans-3d" transform="translate(2663.134766 0)"/>
     <use xlink:href="#DejaVuSans-34" transform="translate(2746.923828 0)"/>
     <use xlink:href="#DejaVuSans-2e" transform="translate(2810.546875 0)"/>
     <use xlink:href="#DejaVuSans-35" transform="translate(2842.333984 0)"/>
     <use xlink:href="#DejaVuSans-20" transform="translate(2905.957031 0)"/>
     <use xlink:href="#DejaVuSans-41" transform="translate(2937.744141 0)"/>
    </g>
   </g>
   <g id="text_10">
    <!-- SGLT2 / Mol_13144 (rep1) -->
    <g transform="translate(178.465312 16.318125) scale(0.12 -0.12)">
     <defs>
      <path id="DejaVuSans-2f" d="M 1625 4666 
L 2156 4666 
L 531 -594 
L 0 -594 
L 1625 4666 
z
" transform="scale(0.015625)"/>
      <path id="DejaVuSans-4d" d="M 628 4666 
L 1569 4666 
L 2759 1491 
L 3956 4666 
L 4897 4666 
L 4897 0 
L 4281 0 
L 4281 4097 
L 3078 897 
L 2444 897 
L 1241 4097 
L 1241 0 
L 628 0 
L 628 4666 
z
" transform="scale(0.015625)"/>
      <path id="DejaVuSans-5f" d="M 3263 -1063 
L 3263 -1509 
L -63 -1509 
L -63 -1063 
L 3263 -1063 
z
" transform="scale(0.015625)"/>
      <path id="DejaVuSans-28" d="M 1984 4856 
Q 1566 4138 1362 3434 
Q 1159 2731 1159 2009 
Q 1159 1288 1364 580 
Q 1569 -128 1984 -844 
L 1484 -844 
Q 1016 -109 783 600 
Q 550 1309 550 2009 
Q 550 2706 781 3412 
Q 1013 4119 1484 4856 
L 1984 4856 
z
" transform="scale(0.015625)"/>
      <path id="DejaVuSans-29" d="M 513 4856 
L 1013 4856 
Q 1481 4119 1714 3412 
Q 1947 2706 1947 2009 
Q 1947 1309 1714 600 
Q 1481 -109 1013 -844 
L 513 -844 
Q 928 -128 1133 580 
Q 1338 1288 1338 2009 
Q 1338 2731 1133 3434 
Q 928 4138 513 4856 
z
" transform="scale(0.015625)"/>
     </defs>
     <use xlink:href="#DejaVuSans-53"/>
     <use xlink:href="#DejaVuSans-47" transform="translate(63.476562 0)"/>
     <use xlink:href="#DejaVuSans-4c" transform="translate(140.966797 0)"/>
     <use xlink:href="#DejaVuSans-54" transform="translate(182.929688 0)"/>
     <use xlink:href="#DejaVuSans-32" transform="translate(244.013672 0)"/>
     <use xlink:href="#DejaVuSans-20" transform="translate(307.636719 0)"/>
     <use xlink:href="#DejaVuSans-2f" transform="translate(339.423828 0)"/>
     <use xlink:href="#DejaVuSans-20" transform="translate(373.115234 0)"/>
     <use xlink:href="#DejaVuSans-4d" transform="translate(404.902344 0)"/>
     <use xlink:href="#DejaVuSans-6f" transform="translate(491.181641 0)"/>
     <use xlink:href="#DejaVuSans-6c" transform="translate(552.363281 0)"/>
     <use xlink:href="#DejaVuSans-5f" transform="translate(580.146484 0)"/>
     <use xlink:href="#DejaVuSans-31" transform="translate(630.146484 0)"/>
     <use xlink:href="#DejaVuSans-33" transform="translate(693.769531 0)"/>
     <use xlink:href="#DejaVuSans-31" transform="translate(757.392578 0)"/>
     <use xlink:href="#DejaVuSans-34" transform="translate(821.015625 0)"/>
     <use xlink:href="#DejaVuSans-34" transform="translate(884.638672 0)"/>
     <use xlink:href="#DejaVuSans-20" transform="translate(948.261719 0)"/>
     <use xlink:href="#DejaVuSans-28" transform="translate(980.048828 0)"/>
     <use xlink:href="#DejaVuSans-72" transform="translate(1019.0625 0)"/>
     <use xlink:href="#DejaVuSans-65" transform="translate(1057.925781 0)"/>
     <use xlink:href="#DejaVuSans-70" transform="translate(1119.449219 0)"/>
     <use xlink:href="#DejaVuSans-31" transform="translate(1182.925781 0)"/>
     <use xlink:href="#DejaVuSans-29" transform="translate(1246.548828 0)"/>
    </g>
   </g>
   <g id="PathCollection_1">
    <defs>
     <path id="me83956dfce" d="M 0 5.477226 
C 1.452577 5.477226 2.845856 4.900111 3.872983 3.872983 
C 4.900111 2.845856 5.477226 1.452577 5.477226 0 
C 5.477226 -1.452577 4.900111 -2.845856 3.872983 -3.872983 
C 2.845856 -4.900111 1.452577 -5.477226 0 -5.477226 
C -1.452577 -5.477226 -2.845856 -4.900111 -3.872983 -3.872983 
C -4.900111 -2.845856 -5.477226 -1.452577 -5.477226 0 
C -5.477226 1.452577 -4.900111 2.845856 -3.872983 3.872983 
C -2.845856 4.900111 -1.452577 5.477226 0 5.477226 
z
" style="stroke: #ffffff"/>
    </defs>
    <g clip-path="url(#pb1b6cc0975)">
     <use xlink:href="#me83956dfce" x="333.796112" y="243.724883" style="fill: #c53030; stroke: #ffffff"/>
    </g>
   </g>
   <g id="PathCollection_2">
    <defs>
     <path id="m3c02254081" d="M 0 3.24037 
C 0.859356 3.24037 1.683631 2.898944 2.291288 2.291288 
C 2.898944 1.683631 3.24037 0.859356 3.24037 0 
C 3.24037 -0.859356 2.898944 -1.683631 2.291288 -2.291288 
C 1.683631 -2.898944 0.859356 -3.24037 0 -3.24037 
C -0.859356 -3.24037 -1.683631 -2.898944 -2.291288 -2.291288 
C -2.898944 -1.683631 -3.24037 -0.859356 -3.24037 0 
C -3.24037 0.859356 -2.898944 1.683631 -2.291288 2.291288 
C -1.683631 2.898944 -0.859356 3.24037 0 3.24037 
z
" style="stroke: #ffffff"/>
    </defs>
    <g clip-path="url(#pb1b6cc0975)">
     <use xlink:href="#m3c02254081" x="338.160258" y="220.011009" style="fill: #4a4a4a; stroke: #ffffff"/>
    </g>
   </g>
   <g id="PathCollection_3">
    <g clip-path="url(#pb1b6cc0975)">
     <use xlink:href="#me83956dfce" x="361.063982" y="209.40275" style="fill: #c53030; stroke: #ffffff"/>
    </g>
   </g>
   <g id="PathCollection_4">
    <g clip-path="url(#pb1b6cc0975)">
     <use xlink:href="#m3c02254081" x="357.4459" y="185.577412" style="fill: #4a4a4a; stroke: #ffffff"/>
    </g>
   </g>
   <g id="PathCollection_5">
    <g clip-path="url(#pb1b6cc0975)">
     <use xlink:href="#m3c02254081" x="332.306078" y="181.460803" style="fill: #4a4a4a; stroke: #ffffff"/>
    </g>
   </g>
   <g id="PathCollection_6">
    <g clip-path="url(#pb1b6cc0975)">
     <use xlink:href="#m3c02254081" x="321.05993" y="159.856194" style="fill: #4a4a4a; stroke: #ffffff"/>
    </g>
   </g>
   <g id="PathCollection_7">
    <g clip-path="url(#pb1b6cc0975)">
     <use xlink:href="#m3c02254081" x="295.601649" y="158.240911" style="fill: #4a4a4a; stroke: #ffffff"/>
    </g>
   </g>
   <g id="PathCollection_8">
    <g clip-path="url(#pb1b6cc0975)">
     <use xlink:href="#m3c02254081" x="284.355501" y="136.636301" style="fill: #4a4a4a; stroke: #ffffff"/>
    </g>
   </g>
   <g id="PathCollection_9">
    <g clip-path="url(#pb1b6cc0975)">
     <use xlink:href="#m3c02254081" x="258.89722" y="135.021018" style="fill: #4a4a4a; stroke: #ffffff"/>
    </g>
   </g>
   <g id="PathCollection_10">
    <g clip-path="url(#pb1b6cc0975)">
     <use xlink:href="#m3c02254081" x="244.685088" y="155.010345" style="fill: #4a4a4a; stroke: #ffffff"/>
    </g>
   </g>
   <g id="PathCollection_11">
    <g clip-path="url(#pb1b6cc0975)">
     <use xlink:href="#m3c02254081" x="255.931236" y="176.614954" style="fill: #4a4a4a; stroke: #ffffff"/>
    </g>
   </g>
   <g id="PathCollection_12">
    <g clip-path="url(#pb1b6cc0975)">
     <use xlink:href="#m3c02254081" x="281.389516" y="178.230237" style="fill: #4a4a4a; stroke: #ffffff"/>
    </g>
   </g>
   <g id="PathCollection_13">
    <g clip-path="url(#pb1b6cc0975)">
     <use xlink:href="#me83956dfce" x="237.62375" y="193.3802" style="fill: #c53030; stroke: #ffffff"/>
    </g>
   </g>
   <g id="PathCollection_14">
    <g clip-path="url(#pb1b6cc0975)">
     <use xlink:href="#m3c02254081" x="215.062954" y="182.137082" style="fill: #4a4a4a; stroke: #ffffff"/>
    </g>
   </g>
   <g id="PathCollection_15">
    <g clip-path="url(#pb1b6cc0975)">
     <use xlink:href="#me83956dfce" x="219.427101" y="158.423207" style="fill: #c53030; stroke: #ffffff"/>
    </g>
   </g>
   <g id="PathCollection_16">
    <g clip-path="url(#pb1b6cc0975)">
     <use xlink:href="#m3c02254081" x="320.386896" y="202.741936" style="fill: #4a4a4a; stroke: #ffffff"/>
    </g>
   </g>
   <g id="PathCollection_17">
    <g clip-path="url(#pb1b6cc0975)">
     <use xlink:href="#m3c02254081" x="295.128909" y="206.154799" style="fill: #4a4a4a; stroke: #ffffff"/>
    </g>
   </g>
   <g id="PathCollection_18">
    <g clip-path="url(#pb1b6cc0975)">
     <use xlink:href="#m3c02254081" x="285.633267" y="228.494577" style="fill: #4a4a4a; stroke: #ffffff"/>
    </g>
   </g>
   <g id="PathCollection_19">
    <g clip-path="url(#pb1b6cc0975)">
     <use xlink:href="#m3c02254081" x="301.395612" y="247.421493" style="fill: #4a4a4a; stroke: #ffffff"/>
    </g>
   </g>
   <g id="PathCollection_20">
    <g clip-path="url(#pb1b6cc0975)">
     <use xlink:href="#m3c02254081" x="291.89997" y="269.761271" style="fill: #4a4a4a; stroke: #ffffff"/>
    </g>
   </g>
   <g id="PathCollection_21">
    <g clip-path="url(#pb1b6cc0975)">
     <use xlink:href="#m3c02254081" x="266.641983" y="273.174134" style="fill: #4a4a4a; stroke: #ffffff"/>
    </g>
   </g>
   <g id="PathCollection_22">
    <g clip-path="url(#pb1b6cc0975)">
     <use xlink:href="#m3c02254081" x="250.879638" y="254.247218" style="fill: #4a4a4a; stroke: #ffffff"/>
    </g>
   </g>
   <g id="PathCollection_23">
    <g clip-path="url(#pb1b6cc0975)">
     <use xlink:href="#m3c02254081" x="260.37528" y="231.907439" style="fill: #4a4a4a; stroke: #ffffff"/>
    </g>
   </g>
   <g id="PathCollection_24">
    <g clip-path="url(#pb1b6cc0975)">
     <use xlink:href="#me83956dfce" x="244.612936" y="212.980523" style="fill: #c53030; stroke: #ffffff"/>
    </g>
   </g>
   <g id="PathCollection_25">
    <g clip-path="url(#pb1b6cc0975)">
     <use xlink:href="#m3c02254081" x="219.354949" y="216.393386" style="fill: #4a4a4a; stroke: #ffffff"/>
    </g>
   </g>
   <g id="PathCollection_26">
    <g clip-path="url(#pb1b6cc0975)">
     <use xlink:href="#me83956dfce" x="203.592604" y="197.466469" style="fill: #c53030; stroke: #ffffff"/>
    </g>
   </g>
   <g id="PathCollection_27">
    <g clip-path="url(#pb1b6cc0975)">
     <use xlink:href="#m3c02254081" x="178.334617" y="200.879332" style="fill: #4a4a4a; stroke: #ffffff"/>
    </g>
   </g>
   <g id="PathCollection_28">
    <g clip-path="url(#pb1b6cc0975)">
     <use xlink:href="#m3c02254081" x="162.572273" y="181.952416" style="fill: #4a4a4a; stroke: #ffffff"/>
    </g>
   </g>
   <g id="PathCollection_29">
    <g clip-path="url(#pb1b6cc0975)">
     <use xlink:href="#me83956dfce" x="137.314286" y="185.365278" style="fill: #c53030; stroke: #ffffff"/>
    </g>
   </g>
   <g id="PathCollection_30">
    <g clip-path="url(#pb1b6cc0975)">
     <use xlink:href="#m3c02254081" x="168.838975" y="223.21911" style="fill: #4a4a4a; stroke: #ffffff"/>
    </g>
   </g>
   <g id="PathCollection_31">
    <g clip-path="url(#pb1b6cc0975)">
     <use xlink:href="#me83956dfce" x="143.580988" y="226.631973" style="fill: #c53030; stroke: #ffffff"/>
    </g>
   </g>
   <g id="PathCollection_32">
    <g clip-path="url(#pb1b6cc0975)">
     <use xlink:href="#m3c02254081" x="184.60132" y="242.146026" style="fill: #4a4a4a; stroke: #ffffff"/>
    </g>
   </g>
   <g id="PathCollection_33">
    <g clip-path="url(#pb1b6cc0975)">
     <use xlink:href="#me83956dfce" x="175.105677" y="264.485805" style="fill: #c53030; stroke: #ffffff"/>
    </g>
   </g>
   <g id="PathCollection_34">
    <g clip-path="url(#pb1b6cc0975)">
     <use xlink:href="#m3c02254081" x="209.859307" y="238.733164" style="fill: #4a4a4a; stroke: #ffffff"/>
    </g>
   </g>
   <g id="PathCollection_35">
    <g clip-path="url(#pb1b6cc0975)">
     <use xlink:href="#me83956dfce" x="225.621651" y="257.66008" style="fill: #c53030; stroke: #ffffff"/>
    </g>
   </g>
   <g id="PathCollection_36">
    <g clip-path="url(#pb1b6cc0975)">
     <use xlink:href="#me83956dfce" x="262.277836" y="296.888008" style="fill: #c53030; stroke: #ffffff"/>
    </g>
   </g>
   <g id="PathCollection_37">
    <g clip-path="url(#pb1b6cc0975)">
     <use xlink:href="#m3c02254081" x="284.838632" y="308.131127" style="fill: #4a4a4a; stroke: #ffffff"/>
    </g>
   </g>
   <g id="PathCollection_38">
    <g clip-path="url(#pb1b6cc0975)">
     <use xlink:href="#me83956dfce" x="303.146117" y="291.365881" style="fill: #c53030; stroke: #ffffff"/>
    </g>
   </g>
   <g id="text_11">
    <!-- O -->
    <g style="fill: #ffffff" transform="translate(330.647362 245.932383) scale(0.08 -0.08)">
     <defs>
      <path id="DejaVuSans-4f" d="M 2522 4238 
Q 1834 4238 1429 3725 
Q 1025 3213 1025 2328 
Q 1025 1447 1429 934 
Q 1834 422 2522 422 
Q 3209 422 3611 934 
Q 4013 1447 4013 2328 
Q 4013 3213 3611 3725 
Q 3209 4238 2522 4238 
z
M 2522 4750 
Q 3503 4750 4090 4092 
Q 4678 3434 4678 2328 
Q 4678 1225 4090 567 
Q 3503 -91 2522 -91 
Q 1538 -91 948 565 
Q 359 1222 359 2328 
Q 359 3434 948 4092 
Q 1538 4750 2522 4750 
z
" transform="scale(0.015625)"/>
     </defs>
     <use xlink:href="#DejaVuSans-4f"/>
    </g>
   </g>
   <g id="text_12">
    <!-- O -->
    <g style="fill: #ffffff" transform="translate(357.915232 211.61025) scale(0.08 -0.08)">
     <use xlink:href="#DejaVuSans-4f"/>
    </g>
   </g>
   <g id="text_13">
    <!-- O -->
    <g style="fill: #ffffff" transform="translate(234.475 195.5877) scale(0.08 -0.08)">
     <use xlink:href="#DejaVuSans-4f"/>
    </g>
   </g>
   <g id="text_14">
    <!-- O -->
    <g style="fill: #ffffff" transform="translate(216.278351 160.630707) scale(0.08 -0.08)">
     <use xlink:href="#DejaVuSans-4f"/>
    </g>
   </g>
   <g id="text_15">
    <!-- O -->
    <g style="fill: #ffffff" transform="translate(241.464186 215.188023) scale(0.08 -0.08)">
     <use xlink:href="#DejaVuSans-4f"/>
    </g>
   </g>
   <g id="text_16">
    <!-- O -->
    <g style="fill: #ffffff" transform="translate(200.443854 199.673969) scale(0.08 -0.08)">
     <use xlink:href="#DejaVuSans-4f"/>
    </g>
   </g>
   <g id="text_17">
    <!-- O -->
    <g style="fill: #ffffff" transform="translate(134.165536 187.572778) scale(0.08 -0.08)">
     <use xlink:href="#DejaVuSans-4f"/>
    </g>
   </g>
   <g id="text_18">
    <!-- O -->
    <g style="fill: #ffffff" transform="translate(140.432238 228.839473) scale(0.08 -0.08)">
     <use xlink:href="#DejaVuSans-4f"/>
    </g>
   </g>
   <g id="text_19">
    <!-- O -->
    <g style="fill: #ffffff" transform="translate(171.956927 266.693305) scale(0.08 -0.08)">
     <use xlink:href="#DejaVuSans-4f"/>
    </g>
   </g>
   <g id="text_20">
    <!-- O -->
    <g style="fill: #ffffff" transform="translate(222.472901 259.86758) scale(0.08 -0.08)">
     <use xlink:href="#DejaVuSans-4f"/>
    </g>
   </g>
   <g id="text_21">
    <!-- O -->
    <g style="fill: #ffffff" transform="translate(259.129086 299.095508) scale(0.08 -0.08)">
     <use xlink:href="#DejaVuSans-4f"/>
    </g>
   </g>
   <g id="text_22">
    <!-- O -->
    <g style="fill: #ffffff" transform="translate(299.997367 293.573381) scale(0.08 -0.08)">
     <use xlink:href="#DejaVuSans-4f"/>
    </g>
   </g>
  </g>
 </g>
 <defs>
  <clipPath id="pb1b6cc0975">
   <rect x="7.2" y="24.318125" width="496.8" height="379.36"/>
  </clipPath>
 </defs>
</svg>
