<?xml version="1.0" encoding="utf-8" standalone="no"?>
<!DOCTYPE svg PUBLIC "-//W3C//DTD SVG 1.1//EN"
  "http://www.w3.org/Graphics/SVG/1.1/DTD/svg11.dtd">
<svg xmlns:xlink="http://www.w3.org/1999/xlink" width="455.909375pt" height="289.874938pt" viewBox="0 0 455.909375 289.874938" xmlns="http://www.w3.org/2000/svg" version="1.1">
 <metadata>
  <rdf:RDF xmlns:dc="http://purl.org/dc/elements/1.1/" xmlns:cc="http://creativecommons.org/ns#" xmlns:rdf="http://www.w3.org/1999/02/22-rdf-syntax-ns#">
   <cc:Work>
    <dc:type rdf:resource="http://purl.org/dc/dcmitype/StillImage"/>
    <dc:date>2026-05-23T13:22:56.691677</dc:date>
    <dc:format>image/svg+xml</dc:format>
    <dc:creator>
     <cc:Agent>
      <dc:title>Matplotlib v3.10.9, https://matplotlib.org/</dc:title>
     </cc:Agent>
    </dc:creator>
   </cc:Work>
  </rdf:RDF>
 </metadata>
 <defs>
  <style type="text/css">*{stroke-linejoin: round; stroke-linecap: butt}</style>
 </defs>
 <g id="figure_1">
  <g id="patch_1">
   <path d="M 0 289.874938 
L 455.909375 289.874938 
L 455.909375 0 
L 0 0 
z
" style="fill: #ffffff"/>
  </g>
  <g id="axes_1">
   <g id="patch_2">
    <path d="M 46.949375 254.254313 
L 448.709375 254.254313 
L 448.709375 21.406313 
L 46.949375 21.406313 
z
" style="fill: #ffffff"/>
   </g>
   <g id="matplotlib.axis_1">
    <g id="xtick_1">
     <g id="line2d_1">
      <path d="M 64.586858 254.254313 
L 64.586858 21.406313 
" clip-path="url(#pe1226ca00f)" style="fill: none; stroke: #b0b0b0; stroke-opacity: 0.25; stroke-width: 0.8; stroke-linecap: square"/>
     </g>
     <g id="line2d_2">
      <defs>
       <path id="mcbf72b07b2" d="M 0 0 
L 0 3.5 
" style="stroke: #000000; stroke-width: 0.8"/>
      </defs>
      <g>
       <use xlink:href="#mcbf72b07b2" x="64.586858" y="254.254313" style="stroke: #000000; stroke-width: 0.8"/>
      </g>
     </g>
     <g id="text_1">
      <!-- 0 -->
      <g transform="translate(61.723733 268.092906) scale(0.09 -0.09)">
       <defs>
        <path id="DejaVuSans-30" d="M 2034 4250 
Q 1547 4250 1301 3770 
Q 1056 3291 1056 2328 
Q 1056 1369 1301 889 
Q 1547 409 2034 409 
Q 2525 409 2770 889 
Q 3016 1369 3016 2328 
Q 3016 3291 2770 3770 
Q 2525 4250 2034 4250 
z
M 2034 4750 
Q 2819 4750 3233 4129 
Q 3647 3509 3647 2328 
Q 3647 1150 3233 529 
Q 2819 -91 2034 -91 
Q 1250 -91 836 529 
Q 422 1150 422 2328 
Q 422 3509 836 4129 
Q 1250 4750 2034 4750 
z
" transform="scale(0.015625)"/>
       </defs>
       <use xlink:href="#DejaVuSans-30"/>
      </g>
     </g>
    </g>
    <g id="xtick_2">
     <g id="line2d_3">
      <path d="M 127.020424 254.254313 
L 127.020424 21.406313 
" clip-path="url(#pe1226ca00f)" style="fill: none; stroke: #b0b0b0; stroke-opacity: 0.25; stroke-width: 0.8; stroke-linecap: square"/>
     </g>
     <g id="line2d_4">
      <g>
       <use xlink:href="#mcbf72b07b2" x="127.020424" y="254.254313" style="stroke: #000000; stroke-width: 0.8"/>
      </g>
     </g>
     <g id="text_2">
      <!-- 100 -->
      <g transform="translate(118.431049 268.092906) scale(0.09 -0.09)">
       <defs>
        <path id="DejaVuSans-31" d="M 794 531 
L 1825 531 
L 1825 4091 
L 703 3866 
L 703 4441 
L 1819 4666 
L 2450 4666 
L 2450 531 
L 3481 531 
L 3481 0 
L 794 0 
L 794 531 
z
" transform="scale(0.015625)"/>
       </defs>
       <use xlink:href="#DejaVuSans-31"/>
       <use xlink:href="#DejaVuSans-30" transform="translate(63.623047 0)"/>
       <use xlink:href="#DejaVuSans-30" transform="translate(127.246094 0)"/>
      </g>
     </g>
    </g>
    <g id="xtick_3">
     <g id="line2d_5">
      <path d="M 189.45399 254.254313 
L 189.45399 21.406313 
" clip-path="url(#pe1226ca00f)" style="fill: none; stroke: #b0b0b0; stroke-opacity: 0.25; stroke-width: 0.8; stroke-linecap: square"/>
     </g>
     <g id="line2d_6">
      <g>
       <use xlink:href="#mcbf72b07b2" x="189.45399" y="254.254313" style="stroke: #000000; stroke-width: 0.8"/>
      </g>
     </g>
     <g id="text_3">
      <!-- 200 -->
      <g transform="translate(180.864615 268.092906) scale(0.09 -0.09)">
       <defs>
        <path id="DejaVuSans-32" d="M 1228 531 
L 3431 531 
L 3431 0 
L 469 0 
L 469 531 
Q 828 903 1448 1529 
Q 2069 2156 2228 2338 
Q 2531 2678 2651 2914 
Q 2772 3150 2772 3378 
Q 2772 3750 2511 3984 
Q 2250 4219 1831 4219 
Q 1534 4219 1204 4116 
Q 875 4013 500 3803 
L 500 4441 
Q 881 4594 1212 4672 
Q 1544 4750 1819 4750 
Q 2544 4750 2975 4387 
Q 3406 4025 3406 3419 
Q 3406 3131 3298 2873 
Q 3191 2616 2906 2266 
Q 2828 2175 2409 1742 
Q 1991 1309 1228 531 
z
" transform="scale(0.015625)"/>
       </defs>
       <use xlink:href="#DejaVuSans-32"/>
       <use xlink:href="#DejaVuSans-30" transform="translate(63.623047 0)"/>
       <use xlink:href="#DejaVuSans-30" transform="translate(127.246094 0)"/>
      </g>
     </g>
    </g>
    <g id="xtick_4">
     <g id="line2d_7">
      <path d="M 251.887557 254.254313 
L 251.887557 21.406313 
" clip-path="url(#pe1226ca00f)" style="fill: none; stroke: #b0b0b0; stroke-opacity: 0.25; stroke-width: 0.8; stroke-linecap: square"/>
     </g>
     <g id="line2d_8">
      <g>
       <use xlink:href="#mcbf72b07b2" x="251.887557" y="254.254313" style="stroke: #000000; stroke-width: 0.8"/>
      </g>
     </g>
     <g id="text_4">
      <!-- 300 -->
      <g transform="translate(243.298182 268.092906) scale(0.09 -0.09)">
       <defs>
        <path id="DejaVuSans-33" d="M 2597 2516 
Q 3050 2419 3304 2112 
Q 3559 1806 3559 1356 
Q 3559 666 3084 287 
Q 2609 -91 1734 -91 
Q 1441 -91 1130 -33 
Q 819 25 488 141 
L 488 750 
Q 750 597 1062 519 
Q 1375 441 1716 441 
Q 2309 441 2620 675 
Q 2931 909 2931 1356 
Q 2931 1769 2642 2001 
Q 2353 2234 1838 2234 
L 1294 2234 
L 1294 2753 
L 1863 2753 
Q 2328 2753 2575 2939 
Q 2822 3125 2822 3475 
Q 2822 3834 2567 4026 
Q 2313 4219 1838 4219 
Q 1578 4219 1281 4162 
Q 984 4106 628 3988 
L 628 4550 
Q 988 4650 1302 4700 
Q 1616 4750 1894 4750 
Q 2613 4750 3031 4423 
Q 3450 4097 3450 3541 
Q 3450 3153 3228 2886 
Q 3006 2619 2597 2516 
z
" transform="scale(0.015625)"/>
       </defs>
       <use xlink:href="#DejaVuSans-33"/>
       <use xlink:href="#DejaVuSans-30" transform="translate(63.623047 0)"/>
       <use xlink:href="#DejaVuSans-30" transform="translate(127.246094 0)"/>
      </g>
     </g>
    </g>
    <g id="xtick_5">
     <g id="line2d_9">
      <path d="M 314.321123 254.254313 
L 314.321123 21.406313 
" clip-path="url(#pe1226ca00f)" style="fill: none; stroke: #b0b0b0; stroke-opacity: 0.25; stroke-width: 0.8; stroke-linecap: square"/>
     </g>
     <g id="line2d_10">
      <g>
       <use xlink:href="#mcbf72b07b2" x="314.321123" y="254.254313" style="stroke: #000000; stroke-width: 0.8"/>
      </g>
     </g>
     <g id="text_5">
      <!-- 400 -->
      <g transform="translate(305.731748 268.092906) scale(0.09 -0.09)">
       <defs>
        <path id="DejaVuSans-34" d="M 2419 4116 
L 825 1625 
L 2419 1625 
L 2419 4116 
z
M 2253 4666 
L 3047 4666 
L 3047 1625 
L 3713 1625 
L 3713 1100 
L 3047 1100 
L 3047 0 
L 2419 0 
L 2419 1100 
L 313 1100 
L 313 1709 
L 2253 4666 
z
" transform="scale(0.015625)"/>
       </defs>
       <use xlink:href="#DejaVuSans-34"/>
       <use xlink:href="#DejaVuSans-30" transform="translate(63.623047 0)"/>
       <use xlink:href="#DejaVuSans-30" transform="translate(127.246094 0)"/>
      </g>
     </g>
    </g>
    <g id="xtick_6">
     <g id="line2d_11">
      <path d="M 376.75469 254.254313 
L 376.75469 21.406313 
" clip-path="url(#pe1226ca00f)" style="fill: none; stroke: #b0b0b0; stroke-opacity: 0.25; stroke-width: 0.8; stroke-linecap: square"/>
     </g>
     <g id="line2d_12">
      <g>
       <use xlink:href="#mcbf72b07b2" x="376.75469" y="254.254313" style="stroke: #000000; stroke-width: 0.8"/>
      </g>
     </g>
     <g id="text_6">
      <!-- 500 -->
      <g transform="translate(368.165315 268.092906) scale(0.09 -0.09)">
       <defs>
        <path id="DejaVuSans-35" d="M 691 4666 
L 3169 4666 
L 3169 4134 
L 1269 4134 
L 1269 2991 
Q 1406 3038 1543 3061 
Q 1681 3084 1819 3084 
Q 2600 3084 3056 2656 
Q 3513 2228 3513 1497 
Q 3513 744 3044 326 
Q 2575 -91 1722 -91 
Q 1428 -91 1123 -41 
Q 819 9 494 109 
L 494 744 
Q 775 591 1075 516 
Q 1375 441 1709 441 
Q 2250 441 2565 725 
Q 2881 1009 2881 1497 
Q 2881 1984 2565 2268 
Q 2250 2553 1709 2553 
Q 1456 2553 1204 2497 
Q 953 2441 691 2322 
L 691 4666 
z
" transform="scale(0.015625)"/>
       </defs>
       <use xlink:href="#DejaVuSans-35"/>
       <use xlink:href="#DejaVuSans-30" transform="translate(63.623047 0)"/>
       <use xlink:href="#DejaVuSans-30" transform="translate(127.246094 0)"/>
      </g>
     </g>
    </g>
    <g id="xtick_7">
     <g id="line2d_13">
      <path d="M 439.188256 254.254313 
L 439.188256 21.406313 
" clip-path="url(#pe1226ca00f)" style="fill: none; stroke: #b0b0b0; stroke-opacity: 0.25; stroke-width: 0.8; stroke-linecap: square"/>
     </g>
     <g id="line2d_14">
      <g>
       <use xlink:href="#mcbf72b07b2" x="439.188256" y="254.254313" style="stroke: #000000; stroke-width: 0.8"/>
      </g>
     </g>
     <g id="text_7">
      <!-- 600 -->
      <g transform="translate(430.598881 268.092906) scale(0.09 -0.09)">
       <defs>
        <path id="DejaVuSans-36" d="M 2113 2584 
Q 1688 2584 1439 2293 
Q 1191 2003 1191 1497 
Q 1191 994 1439 701 
Q 1688 409 2113 409 
Q 2538 409 2786 701 
Q 3034 994 3034 1497 
Q 3034 2003 2786 2293 
Q 2538 2584 2113 2584 
z
M 3366 4563 
L 3366 3988 
Q 3128 4100 2886 4159 
Q 2644 4219 2406 4219 
Q 1781 4219 1451 3797 
Q 1122 3375 1075 2522 
Q 1259 2794 1537 2939 
Q 1816 3084 2150 3084 
Q 2853 3084 3261 2657 
Q 3669 2231 3669 1497 
Q 3669 778 3244 343 
Q 2819 -91 2113 -91 
Q 1303 -91 875 529 
Q 447 1150 447 2328 
Q 447 3434 972 4092 
Q 1497 4750 2381 4750 
Q 2619 4750 2861 4703 
Q 3103 4656 3366 4563 
z
" transform="scale(0.015625)"/>
       </defs>
       <use xlink:href="#DejaVuSans-36"/>
       <use xlink:href="#DejaVuSans-30" transform="translate(63.623047 0)"/>
       <use xlink:href="#DejaVuSans-30" transform="translate(127.246094 0)"/>
      </g>
     </g>
    </g>
    <g id="text_8">
     <!-- C-alpha index -->
     <g transform="translate(216.846875 280.803219) scale(0.09 -0.09)">
      <defs>
       <path id="DejaVuSans-43" d="M 4122 4306 
L 4122 3641 
Q 3803 3938 3442 4084 
Q 3081 4231 2675 4231 
Q 1875 4231 1450 3742 
Q 1025 3253 1025 2328 
Q 1025 1406 1450 917 
Q 1875 428 2675 428 
Q 3081 428 3442 575 
Q 3803 722 4122 1019 
L 4122 359 
Q 3791 134 3420 21 
Q 3050 -91 2638 -91 
Q 1578 -91 968 557 
Q 359 1206 359 2328 
Q 359 3453 968 4101 
Q 1578 4750 2638 4750 
Q 3056 4750 3426 4639 
Q 3797 4528 4122 4306 
z
" transform="scale(0.015625)"/>
       <path id="DejaVuSans-2d" d="M 313 2009 
L 1997 2009 
L 1997 1497 
L 313 1497 
L 313 2009 
z
" transform="scale(0.015625)"/>
       <path id="DejaVuSans-61" d="M 2194 1759 
Q 1497 1759 1228 1600 
Q 959 1441 959 1056 
Q 959 750 1161 570 
Q 1363 391 1709 391 
Q 2188 391 2477 730 
Q 2766 1069 2766 1631 
L 2766 1759 
L 2194 1759 
z
M 3341 1997 
L 3341 0 
L 2766 0 
L 2766 531 
Q 2569 213 2275 61 
Q 1981 -91 1556 -91 
Q 1019 -91 701 211 
Q 384 513 384 1019 
Q 384 1609 779 1909 
Q 1175 2209 1959 2209 
L 2766 2209 
L 2766 2266 
Q 2766 2663 2505 2880 
Q 2244 3097 1772 3097 
Q 1472 3097 1187 3025 
Q 903 2953 641 2809 
L 641 3341 
Q 956 3463 1253 3523 
Q 1550 3584 1831 3584 
Q 2591 3584 2966 3190 
Q 3341 2797 3341 1997 
z
" transform="scale(0.015625)"/>
       <path id="DejaVuSans-6c" d="M 603 4863 
L 1178 4863 
L 1178 0 
L 603 0 
L 603 4863 
z
" transform="scale(0.015625)"/>
       <path id="DejaVuSans-70" d="M 1159 525 
L 1159 -1331 
L 581 -1331 
L 581 3500 
L 1159 3500 
L 1159 2969 
Q 1341 3281 1617 3432 
Q 1894 3584 2278 3584 
Q 2916 3584 3314 3078 
Q 3713 2572 3713 1747 
Q 3713 922 3314 415 
Q 2916 -91 2278 -91 
Q 1894 -91 1617 61 
Q 1341 213 1159 525 
z
M 3116 1747 
Q 3116 2381 2855 2742 
Q 2594 3103 2138 3103 
Q 1681 3103 1420 2742 
Q 1159 2381 1159 1747 
Q 1159 1113 1420 752 
Q 1681 391 2138 391 
Q 2594 391 2855 752 
Q 3116 1113 3116 1747 
z
" transform="scale(0.015625)"/>
       <path id="DejaVuSans-68" d="M 3513 2113 
L 3513 0 
L 2938 0 
L 2938 2094 
Q 2938 2591 2744 2837 
Q 2550 3084 2163 3084 
Q 1697 3084 1428 2787 
Q 1159 2491 1159 1978 
L 1159 0 
L 581 0 
L 581 4863 
L 1159 4863 
L 1159 2956 
Q 1366 3272 1645 3428 
Q 1925 3584 2291 3584 
Q 2894 3584 3203 3211 
Q 3513 2838 3513 2113 
z
" transform="scale(0.015625)"/>
       <path id="DejaVuSans-20" transform="scale(0.015625)"/>
       <path id="DejaVuSans-69" d="M 603 3500 
L 1178 3500 
L 1178 0 
L 603 0 
L 603 3500 
z
M 603 4863 
L 1178 4863 
L 1178 4134 
L 603 4134 
L 603 4863 
z
" transform="scale(0.015625)"/>
       <path id="DejaVuSans-6e" d="M 3513 2113 
L 3513 0 
L 2938 0 
L 2938 2094 
Q 2938 2591 2744 2837 
Q 2550 3084 2163 3084 
Q 1697 3084 1428 2787 
Q 1159 2491 1159 1978 
L 1159 0 
L 581 0 
L 581 3500 
L 1159 3500 
L 1159 2956 
Q 1366 3272 1645 3428 
Q 1925 3584 2291 3584 
Q 2894 3584 3203 3211 
Q 3513 2838 3513 2113 
z
" transform="scale(0.015625)"/>
       <path id="DejaVuSans-64" d="M 2906 2969 
L 2906 4863 
L 3481 4863 
L 3481 0 
L 2906 0 
L 2906 525 
Q 2725 213 2448 61 
Q 2172 -91 1784 -91 
Q 1150 -91 751 415 
Q 353 922 353 1747 
Q 353 2572 751 3078 
Q 1150 3584 1784 3584 
Q 2172 3584 2448 3432 
Q 2725 3281 2906 2969 
z
M 947 1747 
Q 947 1113 1208 752 
Q 1469 391 1925 391 
Q 2381 391 2643 752 
Q 2906 1113 2906 1747 
Q 2906 2381 2643 2742 
Q 2381 3103 1925 3103 
Q 1469 3103 1208 2742 
Q 947 2381 947 1747 
z
" transform="scale(0.015625)"/>
       <path id="DejaVuSans-65" d="M 3597 1894 
L 3597 1613 
L 953 1613 
Q 991 1019 1311 708 
Q 1631 397 2203 397 
Q 2534 397 2845 478 
Q 3156 559 3463 722 
L 3463 178 
Q 3153 47 2828 -22 
Q 2503 -91 2169 -91 
Q 1331 -91 842 396 
Q 353 884 353 1716 
Q 353 2575 817 3079 
Q 1281 3584 2069 3584 
Q 2775 3584 3186 3129 
Q 3597 2675 3597 1894 
z
M 3022 2063 
Q 3016 2534 2758 2815 
Q 2500 3097 2075 3097 
Q 1594 3097 1305 2825 
Q 1016 2553 972 2059 
L 3022 2063 
z
" transform="scale(0.015625)"/>
       <path id="DejaVuSans-78" d="M 3513 3500 
L 2247 1797 
L 3578 0 
L 2900 0 
L 1881 1375 
L 863 0 
L 184 0 
L 1544 1831 
L 300 3500 
L 978 3500 
L 1906 2253 
L 2834 3500 
L 3513 3500 
z
" transform="scale(0.015625)"/>
      </defs>
      <use xlink:href="#DejaVuSans-43"/>
      <use xlink:href="#DejaVuSans-2d" transform="translate(69.824219 0)"/>
      <use xlink:href="#DejaVuSans-61" transform="translate(105.908203 0)"/>
      <use xlink:href="#DejaVuSans-6c" transform="translate(167.1875 0)"/>
      <use xlink:href="#DejaVuSans-70" transform="translate(194.970703 0)"/>
      <use xlink:href="#DejaVuSans-68" transform="translate(258.447266 0)"/>
      <use xlink:href="#DejaVuSans-61" transform="translate(321.826172 0)"/>
      <use xlink:href="#DejaVuSans-20" transform="translate(383.105469 0)"/>
      <use xlink:href="#DejaVuSans-69" transform="translate(414.892578 0)"/>
      <use xlink:href="#DejaVuSans-6e" transform="translate(442.675781 0)"/>
      <use xlink:href="#DejaVuSans-64" transform="translate(506.054688 0)"/>
      <use xlink:href="#DejaVuSans-65" transform="translate(569.53125 0)"/>
      <use xlink:href="#DejaVuSans-78" transform="translate(629.304688 0)"/>
     </g>
    </g>
   </g>
   <g id="matplotlib.axis_2">
    <g id="ytick_1">
     <g id="line2d_15">
      <path d="M 46.949375 247.799977 
L 448.709375 247.799977 
" clip-path="url(#pe1226ca00f)" style="fill: none; stroke: #b0b0b0; stroke-opacity: 0.25; stroke-width: 0.8; stroke-linecap: square"/>
     </g>
     <g id="line2d_16">
      <defs>
       <path id="m185866623a" d="M 0 0 
L -3.5 0 
" style="stroke: #000000; stroke-width: 0.8"/>
      </defs>
      <g>
       <use xlink:href="#m185866623a" x="46.949375" y="247.799977" style="stroke: #000000; stroke-width: 0.8"/>
      </g>
     </g>
     <g id="text_9">
      <!-- 0.0 -->
      <g transform="translate(25.636563 251.219273) scale(0.09 -0.09)">
       <defs>
        <path id="DejaVuSans-2e" d="M 684 794 
L 1344 794 
L 1344 0 
L 684 0 
L 684 794 
z
" transform="scale(0.015625)"/>
       </defs>
       <use xlink:href="#DejaVuSans-30"/>
       <use xlink:href="#DejaVuSans-2e" transform="translate(63.623047 0)"/>
       <use xlink:href="#DejaVuSans-30" transform="translate(95.410156 0)"/>
      </g>
     </g>
    </g>
    <g id="ytick_2">
     <g id="line2d_17">
      <path d="M 46.949375 220.28729 
L 448.709375 220.28729 
" clip-path="url(#pe1226ca00f)" style="fill: none; stroke: #b0b0b0; stroke-opacity: 0.25; stroke-width: 0.8; stroke-linecap: square"/>
     </g>
     <g id="line2d_18">
      <g>
       <use xlink:href="#m185866623a" x="46.949375" y="220.28729" style="stroke: #000000; stroke-width: 0.8"/>
      </g>
     </g>
     <g id="text_10">
      <!-- 2.5 -->
      <g transform="translate(25.636563 223.706587) scale(0.09 -0.09)">
       <use xlink:href="#DejaVuSans-32"/>
       <use xlink:href="#DejaVuSans-2e" transform="translate(63.623047 0)"/>
       <use xlink:href="#DejaVuSans-35" transform="translate(95.410156 0)"/>
      </g>
     </g>
    </g>
    <g id="ytick_3">
     <g id="line2d_19">
      <path d="M 46.949375 192.774604 
L 448.709375 192.774604 
" clip-path="url(#pe1226ca00f)" style="fill: none; stroke: #b0b0b0; stroke-opacity: 0.25; stroke-width: 0.8; stroke-linecap: square"/>
     </g>
     <g id="line2d_20">
      <g>
       <use xlink:href="#m185866623a" x="46.949375" y="192.774604" style="stroke: #000000; stroke-width: 0.8"/>
      </g>
     </g>
     <g id="text_11">
      <!-- 5.0 -->
      <g transform="translate(25.636563 196.193901) scale(0.09 -0.09)">
       <use xlink:href="#DejaVuSans-35"/>
       <use xlink:href="#DejaVuSans-2e" transform="translate(63.623047 0)"/>
       <use xlink:href="#DejaVuSans-30" transform="translate(95.410156 0)"/>
      </g>
     </g>
    </g>
    <g id="ytick_4">
     <g id="line2d_21">
      <path d="M 46.949375 165.261918 
L 448.709375 165.261918 
" clip-path="url(#pe1226ca00f)" style="fill: none; stroke: #b0b0b0; stroke-opacity: 0.25; stroke-width: 0.8; stroke-linecap: square"/>
     </g>
     <g id="line2d_22">
      <g>
       <use xlink:href="#m185866623a" x="46.949375" y="165.261918" style="stroke: #000000; stroke-width: 0.8"/>
      </g>
     </g>
     <g id="text_12">
      <!-- 7.5 -->
      <g transform="translate(25.636563 168.681215) scale(0.09 -0.09)">
       <defs>
        <path id="DejaVuSans-37" d="M 525 4666 
L 3525 4666 
L 3525 4397 
L 1831 0 
L 1172 0 
L 2766 4134 
L 525 4134 
L 525 4666 
z
" transform="scale(0.015625)"/>
       </defs>
       <use xlink:href="#DejaVuSans-37"/>
       <use xlink:href="#DejaVuSans-2e" transform="translate(63.623047 0)"/>
       <use xlink:href="#DejaVuSans-35" transform="translate(95.410156 0)"/>
      </g>
     </g>
    </g>
    <g id="ytick_5">
     <g id="line2d_23">
      <path d="M 46.949375 137.749232 
L 448.709375 137.749232 
" clip-path="url(#pe1226ca00f)" style="fill: none; stroke: #b0b0b0; stroke-opacity: 0.25; stroke-width: 0.8; stroke-linecap: square"/>
     </g>
     <g id="line2d_24">
      <g>
       <use xlink:href="#m185866623a" x="46.949375" y="137.749232" style="stroke: #000000; stroke-width: 0.8"/>
      </g>
     </g>
     <g id="text_13">
      <!-- 10.0 -->
      <g transform="translate(19.910313 141.168529) scale(0.09 -0.09)">
       <use xlink:href="#DejaVuSans-31"/>
       <use xlink:href="#DejaVuSans-30" transform="translate(63.623047 0)"/>
       <use xlink:href="#DejaVuSans-2e" transform="translate(127.246094 0)"/>
       <use xlink:href="#DejaVuSans-30" transform="translate(159.033203 0)"/>
      </g>
     </g>
    </g>
    <g id="ytick_6">
     <g id="line2d_25">
      <path d="M 46.949375 110.236546 
L 448.709375 110.236546 
" clip-path="url(#pe1226ca00f)" style="fill: none; stroke: #b0b0b0; stroke-opacity: 0.25; stroke-width: 0.8; stroke-linecap: square"/>
     </g>
     <g id="line2d_26">
      <g>
       <use xlink:href="#m185866623a" x="46.949375" y="110.236546" style="stroke: #000000; stroke-width: 0.8"/>
      </g>
     </g>
     <g id="text_14">
      <!-- 12.5 -->
      <g transform="translate(19.910313 113.655843) scale(0.09 -0.09)">
       <use xlink:href="#DejaVuSans-31"/>
       <use xlink:href="#DejaVuSans-32" transform="translate(63.623047 0)"/>
       <use xlink:href="#DejaVuSans-2e" transform="translate(127.246094 0)"/>
       <use xlink:href="#DejaVuSans-35" transform="translate(159.033203 0)"/>
      </g>
     </g>
    </g>
    <g id="ytick_7">
     <g id="line2d_27">
      <path d="M 46.949375 82.72386 
L 448.709375 82.72386 
" clip-path="url(#pe1226ca00f)" style="fill: none; stroke: #b0b0b0; stroke-opacity: 0.25; stroke-width: 0.8; stroke-linecap: square"/>
     </g>
     <g id="line2d_28">
      <g>
       <use xlink:href="#m185866623a" x="46.949375" y="82.72386" style="stroke: #000000; stroke-width: 0.8"/>
      </g>
     </g>
     <g id="text_15">
      <!-- 15.0 -->
      <g transform="translate(19.910313 86.143157) scale(0.09 -0.09)">
       <use xlink:href="#DejaVuSans-31"/>
       <use xlink:href="#DejaVuSans-35" transform="translate(63.623047 0)"/>
       <use xlink:href="#DejaVuSans-2e" transform="translate(127.246094 0)"/>
       <use xlink:href="#DejaVuSans-30" transform="translate(159.033203 0)"/>
      </g>
     </g>
    </g>
    <g id="ytick_8">
     <g id="line2d_29">
      <path d="M 46.949375 55.211174 
L 448.709375 55.211174 
" clip-path="url(#pe1226ca00f)" style="fill: none; stroke: #b0b0b0; stroke-opacity: 0.25; stroke-width: 0.8; stroke-linecap: square"/>
     </g>
     <g id="line2d_30">
      <g>
       <use xlink:href="#m185866623a" x="46.949375" y="55.211174" style="stroke: #000000; stroke-width: 0.8"/>
      </g>
     </g>
     <g id="text_16">
      <!-- 17.5 -->
      <g transform="translate(19.910313 58.630471) scale(0.09 -0.09)">
       <use xlink:href="#DejaVuSans-31"/>
       <use xlink:href="#DejaVuSans-37" transform="translate(63.623047 0)"/>
       <use xlink:href="#DejaVuSans-2e" transform="translate(127.246094 0)"/>
       <use xlink:href="#DejaVuSans-35" transform="translate(159.033203 0)"/>
      </g>
     </g>
    </g>
    <g id="ytick_9">
     <g id="line2d_31">
      <path d="M 46.949375 27.698488 
L 448.709375 27.698488 
" clip-path="url(#pe1226ca00f)" style="fill: none; stroke: #b0b0b0; stroke-opacity: 0.25; stroke-width: 0.8; stroke-linecap: square"/>
     </g>
     <g id="line2d_32">
      <g>
       <use xlink:href="#m185866623a" x="46.949375" y="27.698488" style="stroke: #000000; stroke-width: 0.8"/>
      </g>
     </g>
     <g id="text_17">
      <!-- 20.0 -->
      <g transform="translate(19.910313 31.117784) scale(0.09 -0.09)">
       <use xlink:href="#DejaVuSans-32"/>
       <use xlink:href="#DejaVuSans-30" transform="translate(63.623047 0)"/>
       <use xlink:href="#DejaVuSans-2e" transform="translate(127.246094 0)"/>
       <use xlink:href="#DejaVuSans-30" transform="translate(159.033203 0)"/>
      </g>
     </g>
    </g>
    <g id="text_18">
     <!-- RMSF (A) -->
     <g transform="translate(14.038594 158.304609) rotate(-90) scale(0.09 -0.09)">
      <defs>
       <path id="DejaVuSans-52" d="M 2841 2188 
Q 3044 2119 3236 1894 
Q 3428 1669 3622 1275 
L 4263 0 
L 3584 0 
L 2988 1197 
Q 2756 1666 2539 1819 
Q 2322 1972 1947 1972 
L 1259 1972 
L 1259 0 
L 628 0 
L 628 4666 
L 2053 4666 
Q 2853 4666 3247 4331 
Q 3641 3997 3641 3322 
Q 3641 2881 3436 2590 
Q 3231 2300 2841 2188 
z
M 1259 4147 
L 1259 2491 
L 2053 2491 
Q 2509 2491 2742 2702 
Q 2975 2913 2975 3322 
Q 2975 3731 2742 3939 
Q 2509 4147 2053 4147 
L 1259 4147 
z
" transform="scale(0.015625)"/>
       <path id="DejaVuSans-4d" d="M 628 4666 
L 1569 4666 
L 2759 1491 
L 3956 4666 
L 4897 4666 
L 4897 0 
L 4281 0 
L 4281 4097 
L 3078 897 
L 2444 897 
L 1241 4097 
L 1241 0 
L 628 0 
L 628 4666 
z
" transform="scale(0.015625)"/>
       <path id="DejaVuSans-53" d="M 3425 4513 
L 3425 3897 
Q 3066 4069 2747 4153 
Q 2428 4238 2131 4238 
Q 1616 4238 1336 4038 
Q 1056 3838 1056 3469 
Q 1056 3159 1242 3001 
Q 1428 2844 1947 2747 
L 2328 2669 
Q 3034 2534 3370 2195 
Q 3706 1856 3706 1288 
Q 3706 609 3251 259 
Q 2797 -91 1919 -91 
Q 1588 -91 1214 -16 
Q 841 59 441 206 
L 441 856 
Q 825 641 1194 531 
Q 1563 422 1919 422 
Q 2459 422 2753 634 
Q 3047 847 3047 1241 
Q 3047 1584 2836 1778 
Q 2625 1972 2144 2069 
L 1759 2144 
Q 1053 2284 737 2584 
Q 422 2884 422 3419 
Q 422 4038 858 4394 
Q 1294 4750 2059 4750 
Q 2388 4750 2728 4690 
Q 3069 4631 3425 4513 
z
" transform="scale(0.015625)"/>
       <path id="DejaVuSans-46" d="M 628 4666 
L 3309 4666 
L 3309 4134 
L 1259 4134 
L 1259 2759 
L 3109 2759 
L 3109 2228 
L 1259 2228 
L 1259 0 
L 628 0 
L 628 4666 
z
" transform="scale(0.015625)"/>
       <path id="DejaVuSans-28" d="M 1984 4856 
Q 1566 4138 1362 3434 
Q 1159 2731 1159 2009 
Q 1159 1288 1364 580 
Q 1569 -128 1984 -844 
L 1484 -844 
Q 1016 -109 783 600 
Q 550 1309 550 2009 
Q 550 2706 781 3412 
Q 1013 4119 1484 4856 
L 1984 4856 
z
" transform="scale(0.015625)"/>
       <path id="DejaVuSans-41" d="M 2188 4044 
L 1331 1722 
L 3047 1722 
L 2188 4044 
z
M 1831 4666 
L 2547 4666 
L 4325 0 
L 3669 0 
L 3244 1197 
L 1141 1197 
L 716 0 
L 50 0 
L 1831 4666 
z
" transform="scale(0.015625)"/>
       <path id="DejaVuSans-29" d="M 513 4856 
L 1013 4856 
Q 1481 4119 1714 3412 
Q 1947 2706 1947 2009 
Q 1947 1309 1714 600 
Q 1481 -109 1013 -844 
L 513 -844 
Q 928 -128 1133 580 
Q 1338 1288 1338 2009 
Q 1338 2731 1133 3434 
Q 928 4138 513 4856 
z
" transform="scale(0.015625)"/>
      </defs>
      <use xlink:href="#DejaVuSans-52"/>
      <use xlink:href="#DejaVuSans-4d" transform="translate(69.482422 0)"/>
      <use xlink:href="#DejaVuSans-53" transform="translate(155.761719 0)"/>
      <use xlink:href="#DejaVuSans-46" transform="translate(219.238281 0)"/>
      <use xlink:href="#DejaVuSans-20" transform="translate(276.757812 0)"/>
      <use xlink:href="#DejaVuSans-28" transform="translate(308.544922 0)"/>
      <use xlink:href="#DejaVuSans-41" transform="translate(347.558594 0)"/>
      <use xlink:href="#DejaVuSans-29" transform="translate(415.966797 0)"/>
     </g>
    </g>
   </g>
   <g id="line2d_33">
    <path d="M 65.211193 31.990313 
L 65.835529 157.201725 
L 66.459865 230.980338 
L 67.0842 231.497407 
L 67.708536 233.811585 
L 68.332872 235.428377 
L 69.581543 237.846082 
L 70.205878 239.32387 
L 70.830214 238.510919 
L 71.45455 238.004356 
L 72.078885 239.286032 
L 72.703221 239.497086 
L 73.327557 237.888073 
L 73.951892 238.921016 
L 74.576228 239.498196 
L 75.200564 237.0628 
L 75.824899 237.001478 
L 76.449235 239.982053 
L 77.073571 237.310486 
L 77.697906 235.52468 
L 78.322242 237.859096 
L 78.946578 238.152217 
L 79.570913 235.318552 
L 80.195249 235.776844 
L 80.819585 235.135085 
L 81.44392 230.402037 
L 82.068256 224.263177 
L 82.692592 229.827211 
L 83.316927 230.303096 
L 83.941263 233.766001 
L 84.565599 235.228287 
L 85.189934 230.638446 
L 85.81427 228.652917 
L 87.062941 240.092609 
L 87.687277 241.511204 
L 88.311613 241.098631 
L 88.935948 239.72341 
L 89.560284 241.522323 
L 90.18462 240.124148 
L 90.808955 241.74344 
L 91.433291 240.620607 
L 92.057627 241.831329 
L 92.681962 242.3984 
L 93.306298 242.499945 
L 93.930634 242.946721 
L 94.554969 242.695832 
L 95.803641 243.164299 
L 97.052312 242.431172 
L 97.676648 241.218051 
L 98.300983 241.599571 
L 98.925319 240.136799 
L 99.549655 240.424939 
L 100.17399 241.609058 
L 100.798326 241.355017 
L 101.422662 240.919903 
L 102.046997 241.276337 
L 102.671333 242.219464 
L 103.295669 242.559597 
L 103.920004 240.966858 
L 105.168676 242.869107 
L 105.793011 242.234188 
L 106.417347 240.649932 
L 107.041683 240.423284 
L 107.666018 241.378511 
L 108.290354 239.807934 
L 108.91469 239.129221 
L 109.539025 240.010927 
L 110.163361 241.188515 
L 110.787697 241.889067 
L 111.412032 242.171393 
L 112.660704 241.889487 
L 113.285039 242.150089 
L 113.909375 242.93195 
L 114.533711 242.924925 
L 115.158046 243.343631 
L 116.406718 242.462029 
L 117.031053 242.306745 
L 118.279725 242.716919 
L 118.90406 242.061408 
L 119.528396 241.869266 
L 120.152732 242.931211 
L 121.401403 242.656458 
L 122.025739 241.678009 
L 122.650074 242.569951 
L 123.898746 242.098235 
L 124.523081 242.439764 
L 125.147417 243.079645 
L 126.396088 240.919343 
L 127.020424 241.11024 
L 127.64476 240.532102 
L 128.269095 241.803988 
L 128.893431 239.746823 
L 129.517767 238.7293 
L 130.142102 238.10399 
L 130.766438 241.735984 
L 131.390774 242.081472 
L 132.639445 241.682185 
L 133.263781 241.926615 
L 133.888116 241.888933 
L 134.512452 242.056572 
L 135.136788 241.243087 
L 136.385459 235.284241 
L 137.009795 238.76305 
L 137.63413 239.693341 
L 138.258466 241.297828 
L 140.131473 241.295909 
L 140.755809 242.159942 
L 141.380144 242.457134 
L 142.00448 241.633307 
L 142.628816 241.631512 
L 143.253151 242.233157 
L 143.877487 241.960203 
L 144.501823 241.523709 
L 145.126158 242.089384 
L 145.750494 243.010616 
L 146.37483 242.285775 
L 146.999165 240.82807 
L 147.623501 241.849096 
L 148.247837 242.582558 
L 148.872172 242.922541 
L 149.496508 242.211719 
L 150.120844 242.306116 
L 150.745179 242.072312 
L 151.369515 240.833146 
L 151.993851 241.793008 
L 152.618186 240.930118 
L 153.242522 240.362458 
L 153.866858 241.591949 
L 154.491193 242.440651 
L 155.115529 241.893307 
L 155.739865 239.844384 
L 156.3642 239.830735 
L 156.988536 240.4465 
L 157.612872 238.264081 
L 158.237207 238.401492 
L 159.485878 235.068796 
L 160.110214 234.209538 
L 160.73455 237.919853 
L 161.358885 234.229485 
L 161.983221 234.074013 
L 163.231892 238.267854 
L 163.856228 240.400085 
L 164.480564 239.586763 
L 165.104899 239.588947 
L 165.729235 241.080002 
L 166.353571 240.626499 
L 166.977906 240.930084 
L 167.602242 241.807326 
L 168.226578 241.097156 
L 168.850913 239.007895 
L 169.475249 239.336483 
L 170.099585 241.512872 
L 170.72392 238.726742 
L 171.348256 238.234779 
L 171.972592 234.01796 
L 172.596927 238.623465 
L 173.221263 241.936422 
L 173.845599 241.420284 
L 174.469934 241.712459 
L 175.09427 242.522271 
L 175.718606 242.951301 
L 176.967277 239.930524 
L 177.591613 241.558024 
L 178.215948 241.236161 
L 178.840284 241.327142 
L 179.46462 241.843422 
L 180.088955 242.140594 
L 180.713291 242.153878 
L 181.337627 242.743344 
L 181.961962 242.885996 
L 182.586298 241.846956 
L 183.210634 241.60341 
L 183.834969 242.380833 
L 184.459305 242.822741 
L 185.083641 242.63342 
L 185.707976 242.243072 
L 186.332312 242.3955 
L 186.956648 242.413693 
L 187.580983 241.451297 
L 188.205319 241.411633 
L 188.829655 242.011728 
L 189.45399 241.794037 
L 190.702662 240.368275 
L 191.326997 239.863432 
L 191.951333 238.486456 
L 192.575669 239.922968 
L 193.200004 240.122004 
L 193.82434 238.447934 
L 194.448676 238.326063 
L 195.073011 240.472961 
L 195.697347 239.901869 
L 196.321683 238.960166 
L 197.570354 240.668187 
L 198.19469 238.823731 
L 198.819025 237.571589 
L 199.443361 238.827843 
L 200.067697 236.525484 
L 200.692032 236.671105 
L 201.316368 235.739821 
L 201.940704 231.79778 
L 203.189375 216.364725 
L 203.813711 222.936214 
L 204.438046 210.980159 
L 205.062382 218.426073 
L 205.686718 215.029484 
L 206.311053 208.911584 
L 207.559725 220.278766 
L 208.18406 220.202384 
L 208.808396 225.468093 
L 209.432732 225.953237 
L 210.057067 225.867651 
L 210.681403 227.402603 
L 211.305739 229.830657 
L 211.930074 231.805164 
L 212.55441 235.38489 
L 213.178746 235.65617 
L 213.803081 233.391275 
L 214.427417 232.864254 
L 215.051753 237.463005 
L 215.676088 239.978121 
L 216.300424 240.847675 
L 216.92476 240.812721 
L 217.549095 240.21152 
L 218.173431 239.147041 
L 218.797767 239.371648 
L 219.422102 236.432935 
L 220.046438 234.787626 
L 220.670774 228.097695 
L 221.295109 229.050192 
L 221.919445 225.415323 
L 223.168116 237.761729 
L 223.792452 239.378621 
L 224.416788 240.225415 
L 225.041123 239.280755 
L 225.665459 239.322682 
L 226.289795 240.037081 
L 226.91413 239.905118 
L 227.538466 241.073701 
L 228.162802 241.711616 
L 228.787137 241.795699 
L 230.035809 242.611986 
L 230.660144 242.114605 
L 231.28448 240.62155 
L 231.908816 239.60814 
L 232.533151 240.480896 
L 233.157487 240.749087 
L 233.781823 241.367749 
L 234.406158 240.787398 
L 235.65483 243.029688 
L 236.279165 243.102956 
L 236.903501 242.80948 
L 237.527837 242.379107 
L 238.152172 242.559642 
L 238.776508 242.481751 
L 239.400844 242.118256 
L 240.025179 242.495859 
L 240.649515 242.228044 
L 241.273851 242.518881 
L 241.898186 242.092031 
L 242.522522 241.008274 
L 243.771193 242.648267 
L 244.395529 242.079291 
L 245.019865 241.933695 
L 245.6442 242.844643 
L 246.268536 243.142334 
L 246.892872 242.668811 
L 247.517207 242.885287 
L 248.141543 243.235488 
L 248.765878 242.994156 
L 249.390214 243.141452 
L 250.01455 243.419232 
L 251.263221 242.287065 
L 252.511892 243.21031 
L 253.136228 242.431033 
L 253.760564 242.547594 
L 255.009235 243.02235 
L 256.257906 242.936053 
L 257.506578 243.137869 
L 258.130913 243.077148 
L 259.379585 242.19848 
L 260.00392 242.295832 
L 260.628256 242.54155 
L 261.252592 242.105186 
L 261.876927 241.935493 
L 262.501263 241.205491 
L 263.125599 239.599704 
L 264.37427 239.072488 
L 264.998606 238.058679 
L 265.622941 235.891285 
L 266.247277 237.867567 
L 266.871613 234.891849 
L 267.495948 234.283327 
L 268.120284 227.382396 
L 268.74462 228.735262 
L 269.368955 234.374457 
L 269.993291 231.523931 
L 270.617627 231.391761 
L 271.241962 237.87049 
L 272.490634 228.064686 
L 273.114969 231.108013 
L 273.739305 232.65233 
L 274.363641 228.83512 
L 274.987976 231.930573 
L 275.612312 232.267759 
L 276.236648 230.193608 
L 276.860983 232.591944 
L 277.485319 237.196245 
L 278.109655 239.79223 
L 279.358326 241.805671 
L 279.982662 241.728693 
L 280.606997 242.303754 
L 281.231333 241.978743 
L 281.855669 241.458616 
L 282.480004 240.484249 
L 283.10434 241.08828 
L 283.728676 241.164738 
L 284.353011 239.9274 
L 284.977347 239.647523 
L 285.601683 240.116405 
L 286.226018 238.501137 
L 286.850354 237.792572 
L 287.47469 238.774377 
L 288.099025 240.724797 
L 289.347697 240.857154 
L 289.972032 242.080889 
L 290.596368 242.808962 
L 291.220704 242.455484 
L 291.845039 242.418264 
L 292.469375 243.135146 
L 293.093711 242.972084 
L 293.718046 242.645231 
L 294.342382 242.768405 
L 294.966718 242.680965 
L 295.591053 242.871439 
L 296.215389 242.188304 
L 296.839725 241.297091 
L 297.46406 242.57883 
L 298.088396 243.488734 
L 298.712732 243.670313 
L 299.337067 243.266014 
L 299.961403 243.000913 
L 300.585739 243.147196 
L 301.210074 243.063752 
L 301.83441 242.704649 
L 302.458746 242.86046 
L 303.083081 242.745295 
L 303.707417 242.859612 
L 305.580424 242.710495 
L 306.20476 241.5123 
L 306.829095 240.940316 
L 307.453431 241.673946 
L 308.077767 241.043126 
L 308.702102 238.990921 
L 309.326438 234.975458 
L 309.950774 232.971622 
L 310.575109 234.529662 
L 311.199445 231.960684 
L 311.823781 231.02725 
L 312.448116 235.488269 
L 313.072452 234.710904 
L 314.321123 236.789898 
L 314.945459 239.474792 
L 315.569795 240.416803 
L 316.19413 239.540033 
L 316.818466 239.674856 
L 317.442802 240.698365 
L 318.067137 239.766006 
L 318.691473 238.09837 
L 319.315809 238.402166 
L 319.940144 241.088307 
L 320.56448 241.082908 
L 321.188816 240.268839 
L 321.813151 240.663627 
L 322.437487 241.293507 
L 323.061823 240.729636 
L 323.686158 239.708671 
L 324.310494 239.948126 
L 324.93483 240.420814 
L 326.183501 238.822621 
L 326.807837 239.311909 
L 327.432172 239.579819 
L 328.056508 237.863062 
L 328.680844 238.113852 
L 329.305179 239.684969 
L 329.929515 237.705094 
L 330.553851 236.398237 
L 331.178186 237.563184 
L 331.802522 236.005958 
L 332.426858 235.93444 
L 333.051193 233.530325 
L 333.675529 237.70451 
L 334.299865 239.086195 
L 334.9242 239.813202 
L 335.548536 237.39685 
L 336.172872 237.246197 
L 336.797207 239.941186 
L 337.421543 239.590269 
L 338.045878 236.874199 
L 338.670214 237.992599 
L 339.29455 240.189767 
L 339.918885 240.238498 
L 341.167557 241.660363 
L 341.791892 241.374542 
L 342.416228 241.663589 
L 343.040564 241.506755 
L 343.664899 241.584133 
L 344.289235 241.822466 
L 345.537906 241.371742 
L 346.162242 240.909447 
L 346.786578 241.107198 
L 347.410913 241.150966 
L 348.035249 240.969411 
L 348.659585 240.956964 
L 349.28392 240.110556 
L 349.908256 240.448609 
L 350.532592 239.739717 
L 351.156927 239.695896 
L 351.781263 241.263906 
L 352.405599 241.225306 
L 353.029934 241.522011 
L 353.65427 240.222234 
L 354.278606 240.547948 
L 354.902941 241.480249 
L 356.151613 240.228201 
L 356.775948 240.293156 
L 357.400284 240.559665 
L 358.02462 239.613023 
L 359.273291 240.588066 
L 359.897627 240.474803 
L 360.521962 239.992538 
L 361.146298 240.626587 
L 361.770634 240.089777 
L 362.394969 239.725169 
L 363.019305 239.866743 
L 363.643641 239.854389 
L 364.892312 238.111832 
L 366.140983 234.634708 
L 366.765319 233.451806 
L 367.389655 235.071056 
L 368.01399 229.765387 
L 368.638326 223.263375 
L 369.262662 220.804439 
L 369.886997 216.089082 
L 370.511333 220.779959 
L 371.135669 227.45257 
L 372.38434 217.957997 
L 373.008676 218.282124 
L 374.257347 223.289194 
L 374.881683 225.352574 
L 375.506018 224.251743 
L 376.130354 228.479444 
L 376.75469 226.795688 
L 377.379025 223.396631 
L 378.003361 226.923493 
L 378.627697 231.776661 
L 379.252032 238.304702 
L 380.500704 240.351532 
L 381.125039 240.940067 
L 382.373711 241.626323 
L 382.998046 242.063035 
L 383.622382 242.136836 
L 384.246718 241.180672 
L 384.871053 242.038996 
L 385.495389 242.535368 
L 386.119725 241.541761 
L 386.74406 241.135265 
L 387.368396 241.930053 
L 387.992732 241.59903 
L 388.617067 240.783899 
L 389.241403 241.108608 
L 389.865739 241.673297 
L 391.11441 240.144875 
L 391.738746 240.628732 
L 392.363081 240.874006 
L 392.987417 238.838786 
L 393.611753 238.114056 
L 394.236088 239.133851 
L 394.860424 238.306381 
L 396.109095 239.711229 
L 396.733431 238.607751 
L 397.357767 238.519749 
L 397.982102 238.773775 
L 398.606438 240.141837 
L 399.230774 239.805806 
L 399.855109 239.274867 
L 400.479445 239.01266 
L 401.103781 240.003338 
L 401.728116 239.464533 
L 402.352452 238.412914 
L 402.976788 236.580356 
L 403.601123 238.147268 
L 404.225459 236.628144 
L 404.849795 234.639562 
L 405.47413 237.008511 
L 406.098466 235.777897 
L 406.722802 235.510004 
L 407.347137 234.37671 
L 407.971473 235.165591 
L 408.595809 232.177057 
L 409.220144 232.177775 
L 409.84448 229.652201 
L 410.468816 231.537997 
L 411.093151 237.492293 
L 411.717487 237.334527 
L 412.341823 233.391457 
L 412.966158 231.11808 
L 413.590494 235.987835 
L 414.839165 232.988761 
L 416.087837 238.702429 
L 416.712172 236.962711 
L 417.336508 236.326257 
L 418.585179 240.811059 
L 419.209515 240.545625 
L 419.833851 239.492227 
L 420.458186 240.111738 
L 421.082522 241.104008 
L 421.706858 239.529554 
L 422.331193 238.553856 
L 422.955529 239.399645 
L 423.579865 239.338629 
L 424.2042 237.917867 
L 424.828536 238.284167 
L 425.452872 239.930531 
L 426.077207 239.517805 
L 426.701543 239.246774 
L 427.325878 240.216437 
L 427.950214 240.832809 
L 428.57455 239.603984 
L 429.198885 239.828161 
L 429.823221 240.783479 
L 430.447557 240.164134 
L 430.447557 240.164134 
" clip-path="url(#pe1226ca00f)" style="fill: none; stroke: #365f91; stroke-linecap: square"/>
   </g>
   <g id="patch_3">
    <path d="M 46.949375 254.254313 
L 46.949375 21.406313 
" style="fill: none; stroke: #000000; stroke-width: 0.8; stroke-linejoin: miter; stroke-linecap: square"/>
   </g>
   <g id="patch_4">
    <path d="M 448.709375 254.254313 
L 448.709375 21.406313 
" style="fill: none; stroke: #000000; stroke-width: 0.8; stroke-linejoin: miter; stroke-linecap: square"/>
   </g>
   <g id="patch_5">
    <path d="M 46.949375 254.254313 
L 448.709375 254.254313 
" style="fill: none; stroke: #000000; stroke-width: 0.8; stroke-linejoin: miter; stroke-linecap: square"/>
   </g>
   <g id="patch_6">
    <path d="M 46.949375 21.406313 
L 448.709375 21.406313 
" style="fill: none; stroke: #000000; stroke-width: 0.8; stroke-linejoin: miter; stroke-linecap: square"/>
   </g>
   <g id="text_19">
    <!-- SGLT2 Mol_13144 rep2 C-alpha RMSF -->
    <g transform="translate(147.091531 15.406313) scale(0.108 -0.108)">
     <defs>
      <path id="DejaVuSans-47" d="M 3809 666 
L 3809 1919 
L 2778 1919 
L 2778 2438 
L 4434 2438 
L 4434 434 
Q 4069 175 3628 42 
Q 3188 -91 2688 -91 
Q 1594 -91 976 548 
Q 359 1188 359 2328 
Q 359 3472 976 4111 
Q 1594 4750 2688 4750 
Q 3144 4750 3555 4637 
Q 3966 4525 4313 4306 
L 4313 3634 
Q 3963 3931 3569 4081 
Q 3175 4231 2741 4231 
Q 1884 4231 1454 3753 
Q 1025 3275 1025 2328 
Q 1025 1384 1454 906 
Q 1884 428 2741 428 
Q 3075 428 3337 486 
Q 3600 544 3809 666 
z
" transform="scale(0.015625)"/>
      <path id="DejaVuSans-4c" d="M 628 4666 
L 1259 4666 
L 1259 531 
L 3531 531 
L 3531 0 
L 628 0 
L 628 4666 
z
" transform="scale(0.015625)"/>
      <path id="DejaVuSans-54" d="M -19 4666 
L 3928 4666 
L 3928 4134 
L 2272 4134 
L 2272 0 
L 1638 0 
L 1638 4134 
L -19 4134 
L -19 4666 
z
" transform="scale(0.015625)"/>
      <path id="DejaVuSans-6f" d="M 1959 3097 
Q 1497 3097 1228 2736 
Q 959 2375 959 1747 
Q 959 1119 1226 758 
Q 1494 397 1959 397 
Q 2419 397 2687 759 
Q 2956 1122 2956 1747 
Q 2956 2369 2687 2733 
Q 2419 3097 1959 3097 
z
M 1959 3584 
Q 2709 3584 3137 3096 
Q 3566 2609 3566 1747 
Q 3566 888 3137 398 
Q 2709 -91 1959 -91 
Q 1206 -91 779 398 
Q 353 888 353 1747 
Q 353 2609 779 3096 
Q 1206 3584 1959 3584 
z
" transform="scale(0.015625)"/>
      <path id="DejaVuSans-5f" d="M 3263 -1063 
L 3263 -1509 
L -63 -1509 
L -63 -1063 
L 3263 -1063 
z
" transform="scale(0.015625)"/>
      <path id="DejaVuSans-72" d="M 2631 2963 
Q 2534 3019 2420 3045 
Q 2306 3072 2169 3072 
Q 1681 3072 1420 2755 
Q 1159 2438 1159 1844 
L 1159 0 
L 581 0 
L 581 3500 
L 1159 3500 
L 1159 2956 
Q 1341 3275 1631 3429 
Q 1922 3584 2338 3584 
Q 2397 3584 2469 3576 
Q 2541 3569 2628 3553 
L 2631 2963 
z
" transform="scale(0.015625)"/>
     </defs>
     <use xlink:href="#DejaVuSans-53"/>
     <use xlink:href="#DejaVuSans-47" transform="translate(63.476562 0)"/>
     <use xlink:href="#DejaVuSans-4c" transform="translate(140.966797 0)"/>
     <use xlink:href="#DejaVuSans-54" transform="translate(182.929688 0)"/>
     <use xlink:href="#DejaVuSans-32" transform="translate(244.013672 0)"/>
     <use xlink:href="#DejaVuSans-20" transform="translate(307.636719 0)"/>
     <use xlink:href="#DejaVuSans-4d" transform="translate(339.423828 0)"/>
     <use xlink:href="#DejaVuSans-6f" transform="translate(425.703125 0)"/>
     <use xlink:href="#DejaVuSans-6c" transform="translate(486.884766 0)"/>
     <use xlink:href="#DejaVuSans-5f" transform="translate(514.667969 0)"/>
     <use xlink:href="#DejaVuSans-31" transform="translate(564.667969 0)"/>
     <use xlink:href="#DejaVuSans-33" transform="translate(628.291016 0)"/>
     <use xlink:href="#DejaVuSans-31" transform="translate(691.914062 0)"/>
     <use xlink:href="#DejaVuSans-34" transform="translate(755.537109 0)"/>
     <use xlink:href="#DejaVuSans-34" transform="translate(819.160156 0)"/>
     <use xlink:href="#DejaVuSans-20" transform="translate(882.783203 0)"/>
     <use xlink:href="#DejaVuSans-72" transform="translate(914.570312 0)"/>
     <use xlink:href="#DejaVuSans-65" transform="translate(953.433594 0)"/>
     <use xlink:href="#DejaVuSans-70" transform="translate(1014.957031 0)"/>
     <use xlink:href="#DejaVuSans-32" transform="translate(1078.433594 0)"/>
     <use xlink:href="#DejaVuSans-20" transform="translate(1142.056641 0)"/>
     <use xlink:href="#DejaVuSans-43" transform="translate(1173.84375 0)"/>
     <use xlink:href="#DejaVuSans-2d" transform="translate(1243.667969 0)"/>
     <use xlink:href="#DejaVuSans-61" transform="translate(1279.751953 0)"/>
     <use xlink:href="#DejaVuSans-6c" transform="translate(1341.03125 0)"/>
     <use xlink:href="#DejaVuSans-70" transform="translate(1368.814453 0)"/>
     <use xlink:href="#DejaVuSans-68" transform="translate(1432.291016 0)"/>
     <use xlink:href="#DejaVuSans-61" transform="translate(1495.669922 0)"/>
     <use xlink:href="#DejaVuSans-20" transform="translate(1556.949219 0)"/>
     <use xlink:href="#DejaVuSans-52" transform="translate(1588.736328 0)"/>
     <use xlink:href="#DejaVuSans-4d" transform="translate(1658.21875 0)"/>
     <use xlink:href="#DejaVuSans-53" transform="translate(1744.498047 0)"/>
     <use xlink:href="#DejaVuSans-46" transform="translate(1807.974609 0)"/>
    </g>
   </g>
  </g>
 </g>
 <defs>
  <clipPath id="pe1226ca00f">
   <rect x="46.949375" y="21.406313" width="401.76" height="232.848"/>
  </clipPath>
 </defs>
</svg>
