<?xml version="1.0" encoding="utf-8" standalone="no"?>
<!DOCTYPE svg PUBLIC "-//W3C//DTD SVG 1.1//EN"
  "http://www.w3.org/Graphics/SVG/1.1/DTD/svg11.dtd">
<svg xmlns:xlink="http://www.w3.org/1999/xlink" width="450.183125pt" height="450.628625pt" viewBox="0 0 450.183125 450.628625" xmlns="http://www.w3.org/2000/svg" version="1.1">
 <metadata>
  <rdf:RDF xmlns:dc="http://purl.org/dc/elements/1.1/" xmlns:cc="http://creativecommons.org/ns#" xmlns:rdf="http://www.w3.org/1999/02/22-rdf-syntax-ns#">
   <cc:Work>
    <dc:type rdf:resource="http://purl.org/dc/dcmitype/StillImage"/>
    <dc:date>2026-05-23T13:22:58.120451</dc:date>
    <dc:format>image/svg+xml</dc:format>
    <dc:creator>
     <cc:Agent>
      <dc:title>Matplotlib v3.10.9, https://matplotlib.org/</dc:title>
     </cc:Agent>
    </dc:creator>
   </cc:Work>
  </rdf:RDF>
 </metadata>
 <defs>
  <style type="text/css">*{stroke-linejoin: round; stroke-linecap: butt}</style>
 </defs>
 <g id="figure_1">
  <g id="patch_1">
   <path d="M 0 450.628625 
L 450.183125 450.628625 
L 450.183125 0 
L 0 0 
z
" style="fill: #ffffff"/>
  </g>
  <g id="axes_1">
   <g id="patch_2">
    <path d="M 41.223125 164.549647 
L 442.983125 164.549647 
L 442.983125 60.192 
L 41.223125 60.192 
z
" style="fill: #ffffff"/>
   </g>
   <g id="matplotlib.axis_1">
    <g id="xtick_1">
     <g id="line2d_1">
      <path d="M 59.484943 164.549647 
L 59.484943 60.192 
" clip-path="url(#p34638b8731)" style="fill: none; stroke: #b0b0b0; stroke-opacity: 0.25; stroke-width: 0.8; stroke-linecap: square"/>
     </g>
     <g id="line2d_2">
      <defs>
       <path id="mfa0b468a3a" d="M 0 0 
L 0 3.5 
" style="stroke: #000000; stroke-width: 0.8"/>
      </defs>
      <g>
       <use xlink:href="#mfa0b468a3a" x="59.484943" y="164.549647" style="stroke: #000000; stroke-width: 0.8"/>
      </g>
     </g>
    </g>
    <g id="xtick_2">
     <g id="line2d_3">
      <path d="M 132.532216 164.549647 
L 132.532216 60.192 
" clip-path="url(#p34638b8731)" style="fill: none; stroke: #b0b0b0; stroke-opacity: 0.25; stroke-width: 0.8; stroke-linecap: square"/>
     </g>
     <g id="line2d_4">
      <g>
       <use xlink:href="#mfa0b468a3a" x="132.532216" y="164.549647" style="stroke: #000000; stroke-width: 0.8"/>
      </g>
     </g>
    </g>
    <g id="xtick_3">
     <g id="line2d_5">
      <path d="M 205.579489 164.549647 
L 205.579489 60.192 
" clip-path="url(#p34638b8731)" style="fill: none; stroke: #b0b0b0; stroke-opacity: 0.25; stroke-width: 0.8; stroke-linecap: square"/>
     </g>
     <g id="line2d_6">
      <g>
       <use xlink:href="#mfa0b468a3a" x="205.579489" y="164.549647" style="stroke: #000000; stroke-width: 0.8"/>
      </g>
     </g>
    </g>
    <g id="xtick_4">
     <g id="line2d_7">
      <path d="M 278.626761 164.549647 
L 278.626761 60.192 
" clip-path="url(#p34638b8731)" style="fill: none; stroke: #b0b0b0; stroke-opacity: 0.25; stroke-width: 0.8; stroke-linecap: square"/>
     </g>
     <g id="line2d_8">
      <g>
       <use xlink:href="#mfa0b468a3a" x="278.626761" y="164.549647" style="stroke: #000000; stroke-width: 0.8"/>
      </g>
     </g>
    </g>
    <g id="xtick_5">
     <g id="line2d_9">
      <path d="M 351.674034 164.549647 
L 351.674034 60.192 
" clip-path="url(#p34638b8731)" style="fill: none; stroke: #b0b0b0; stroke-opacity: 0.25; stroke-width: 0.8; stroke-linecap: square"/>
     </g>
     <g id="line2d_10">
      <g>
       <use xlink:href="#mfa0b468a3a" x="351.674034" y="164.549647" style="stroke: #000000; stroke-width: 0.8"/>
      </g>
     </g>
    </g>
    <g id="xtick_6">
     <g id="line2d_11">
      <path d="M 424.721307 164.549647 
L 424.721307 60.192 
" clip-path="url(#p34638b8731)" style="fill: none; stroke: #b0b0b0; stroke-opacity: 0.25; stroke-width: 0.8; stroke-linecap: square"/>
     </g>
     <g id="line2d_12">
      <g>
       <use xlink:href="#mfa0b468a3a" x="424.721307" y="164.549647" style="stroke: #000000; stroke-width: 0.8"/>
      </g>
     </g>
    </g>
   </g>
   <g id="matplotlib.axis_2">
    <g id="ytick_1">
     <g id="line2d_13">
      <path d="M 41.223125 159.806118 
L 442.983125 159.806118 
" clip-path="url(#p34638b8731)" style="fill: none; stroke: #b0b0b0; stroke-opacity: 0.25; stroke-width: 0.8; stroke-linecap: square"/>
     </g>
     <g id="line2d_14">
      <defs>
       <path id="m0fed983ab6" d="M 0 0 
L -3.5 0 
" style="stroke: #000000; stroke-width: 0.8"/>
      </defs>
      <g>
       <use xlink:href="#m0fed983ab6" x="41.223125" y="159.806118" style="stroke: #000000; stroke-width: 0.8"/>
      </g>
     </g>
     <g id="text_1">
      <!-- 0 -->
      <g transform="translate(28.496875 163.225415) scale(0.09 -0.09)">
       <defs>
        <path id="DejaVuSans-30" d="M 2034 4250 
Q 1547 4250 1301 3770 
Q 1056 3291 1056 2328 
Q 1056 1369 1301 889 
Q 1547 409 2034 409 
Q 2525 409 2770 889 
Q 3016 1369 3016 2328 
Q 3016 3291 2770 3770 
Q 2525 4250 2034 4250 
z
M 2034 4750 
Q 2819 4750 3233 4129 
Q 3647 3509 3647 2328 
Q 3647 1150 3233 529 
Q 2819 -91 2034 -91 
Q 1250 -91 836 529 
Q 422 1150 422 2328 
Q 422 3509 836 4129 
Q 1250 4750 2034 4750 
z
" transform="scale(0.015625)"/>
       </defs>
       <use xlink:href="#DejaVuSans-30"/>
      </g>
     </g>
    </g>
    <g id="ytick_2">
     <g id="line2d_15">
      <path d="M 41.223125 126.673323 
L 442.983125 126.673323 
" clip-path="url(#p34638b8731)" style="fill: none; stroke: #b0b0b0; stroke-opacity: 0.25; stroke-width: 0.8; stroke-linecap: square"/>
     </g>
     <g id="line2d_16">
      <g>
       <use xlink:href="#m0fed983ab6" x="41.223125" y="126.673323" style="stroke: #000000; stroke-width: 0.8"/>
      </g>
     </g>
     <g id="text_2">
      <!-- 1 -->
      <g transform="translate(28.496875 130.09262) scale(0.09 -0.09)">
       <defs>
        <path id="DejaVuSans-31" d="M 794 531 
L 1825 531 
L 1825 4091 
L 703 3866 
L 703 4441 
L 1819 4666 
L 2450 4666 
L 2450 531 
L 3481 531 
L 3481 0 
L 794 0 
L 794 531 
z
" transform="scale(0.015625)"/>
       </defs>
       <use xlink:href="#DejaVuSans-31"/>
      </g>
     </g>
    </g>
    <g id="ytick_3">
     <g id="line2d_17">
      <path d="M 41.223125 93.540529 
L 442.983125 93.540529 
" clip-path="url(#p34638b8731)" style="fill: none; stroke: #b0b0b0; stroke-opacity: 0.25; stroke-width: 0.8; stroke-linecap: square"/>
     </g>
     <g id="line2d_18">
      <g>
       <use xlink:href="#m0fed983ab6" x="41.223125" y="93.540529" style="stroke: #000000; stroke-width: 0.8"/>
      </g>
     </g>
     <g id="text_3">
      <!-- 2 -->
      <g transform="translate(28.496875 96.959826) scale(0.09 -0.09)">
       <defs>
        <path id="DejaVuSans-32" d="M 1228 531 
L 3431 531 
L 3431 0 
L 469 0 
L 469 531 
Q 828 903 1448 1529 
Q 2069 2156 2228 2338 
Q 2531 2678 2651 2914 
Q 2772 3150 2772 3378 
Q 2772 3750 2511 3984 
Q 2250 4219 1831 4219 
Q 1534 4219 1204 4116 
Q 875 4013 500 3803 
L 500 4441 
Q 881 4594 1212 4672 
Q 1544 4750 1819 4750 
Q 2544 4750 2975 4387 
Q 3406 4025 3406 3419 
Q 3406 3131 3298 2873 
Q 3191 2616 2906 2266 
Q 2828 2175 2409 1742 
Q 1991 1309 1228 531 
z
" transform="scale(0.015625)"/>
       </defs>
       <use xlink:href="#DejaVuSans-32"/>
      </g>
     </g>
    </g>
    <g id="ytick_4">
     <g id="line2d_19">
      <path d="M 41.223125 60.407734 
L 442.983125 60.407734 
" clip-path="url(#p34638b8731)" style="fill: none; stroke: #b0b0b0; stroke-opacity: 0.25; stroke-width: 0.8; stroke-linecap: square"/>
     </g>
     <g id="line2d_20">
      <g>
       <use xlink:href="#m0fed983ab6" x="41.223125" y="60.407734" style="stroke: #000000; stroke-width: 0.8"/>
      </g>
     </g>
     <g id="text_4">
      <!-- 3 -->
      <g transform="translate(28.496875 63.827031) scale(0.09 -0.09)">
       <defs>
        <path id="DejaVuSans-33" d="M 2597 2516 
Q 3050 2419 3304 2112 
Q 3559 1806 3559 1356 
Q 3559 666 3084 287 
Q 2609 -91 1734 -91 
Q 1441 -91 1130 -33 
Q 819 25 488 141 
L 488 750 
Q 750 597 1062 519 
Q 1375 441 1716 441 
Q 2309 441 2620 675 
Q 2931 909 2931 1356 
Q 2931 1769 2642 2001 
Q 2353 2234 1838 2234 
L 1294 2234 
L 1294 2753 
L 1863 2753 
Q 2328 2753 2575 2939 
Q 2822 3125 2822 3475 
Q 2822 3834 2567 4026 
Q 2313 4219 1838 4219 
Q 1578 4219 1281 4162 
Q 984 4106 628 3988 
L 628 4550 
Q 988 4650 1302 4700 
Q 1616 4750 1894 4750 
Q 2613 4750 3031 4423 
Q 3450 4097 3450 3541 
Q 3450 3153 3228 2886 
Q 3006 2619 2597 2516 
z
" transform="scale(0.015625)"/>
       </defs>
       <use xlink:href="#DejaVuSans-33"/>
      </g>
     </g>
    </g>
    <g id="text_5">
     <!-- Pose RMSD (A) -->
     <g transform="translate(22.625156 145.56887) rotate(-90) scale(0.09 -0.09)">
      <defs>
       <path id="DejaVuSans-50" d="M 1259 4147 
L 1259 2394 
L 2053 2394 
Q 2494 2394 2734 2622 
Q 2975 2850 2975 3272 
Q 2975 3691 2734 3919 
Q 2494 4147 2053 4147 
L 1259 4147 
z
M 628 4666 
L 2053 4666 
Q 2838 4666 3239 4311 
Q 3641 3956 3641 3272 
Q 3641 2581 3239 2228 
Q 2838 1875 2053 1875 
L 1259 1875 
L 1259 0 
L 628 0 
L 628 4666 
z
" transform="scale(0.015625)"/>
       <path id="DejaVuSans-6f" d="M 1959 3097 
Q 1497 3097 1228 2736 
Q 959 2375 959 1747 
Q 959 1119 1226 758 
Q 1494 397 1959 397 
Q 2419 397 2687 759 
Q 2956 1122 2956 1747 
Q 2956 2369 2687 2733 
Q 2419 3097 1959 3097 
z
M 1959 3584 
Q 2709 3584 3137 3096 
Q 3566 2609 3566 1747 
Q 3566 888 3137 398 
Q 2709 -91 1959 -91 
Q 1206 -91 779 398 
Q 353 888 353 1747 
Q 353 2609 779 3096 
Q 1206 3584 1959 3584 
z
" transform="scale(0.015625)"/>
       <path id="DejaVuSans-73" d="M 2834 3397 
L 2834 2853 
Q 2591 2978 2328 3040 
Q 2066 3103 1784 3103 
Q 1356 3103 1142 2972 
Q 928 2841 928 2578 
Q 928 2378 1081 2264 
Q 1234 2150 1697 2047 
L 1894 2003 
Q 2506 1872 2764 1633 
Q 3022 1394 3022 966 
Q 3022 478 2636 193 
Q 2250 -91 1575 -91 
Q 1294 -91 989 -36 
Q 684 19 347 128 
L 347 722 
Q 666 556 975 473 
Q 1284 391 1588 391 
Q 1994 391 2212 530 
Q 2431 669 2431 922 
Q 2431 1156 2273 1281 
Q 2116 1406 1581 1522 
L 1381 1569 
Q 847 1681 609 1914 
Q 372 2147 372 2553 
Q 372 3047 722 3315 
Q 1072 3584 1716 3584 
Q 2034 3584 2315 3537 
Q 2597 3491 2834 3397 
z
" transform="scale(0.015625)"/>
       <path id="DejaVuSans-65" d="M 3597 1894 
L 3597 1613 
L 953 1613 
Q 991 1019 1311 708 
Q 1631 397 2203 397 
Q 2534 397 2845 478 
Q 3156 559 3463 722 
L 3463 178 
Q 3153 47 2828 -22 
Q 2503 -91 2169 -91 
Q 1331 -91 842 396 
Q 353 884 353 1716 
Q 353 2575 817 3079 
Q 1281 3584 2069 3584 
Q 2775 3584 3186 3129 
Q 3597 2675 3597 1894 
z
M 3022 2063 
Q 3016 2534 2758 2815 
Q 2500 3097 2075 3097 
Q 1594 3097 1305 2825 
Q 1016 2553 972 2059 
L 3022 2063 
z
" transform="scale(0.015625)"/>
       <path id="DejaVuSans-20" transform="scale(0.015625)"/>
       <path id="DejaVuSans-52" d="M 2841 2188 
Q 3044 2119 3236 1894 
Q 3428 1669 3622 1275 
L 4263 0 
L 3584 0 
L 2988 1197 
Q 2756 1666 2539 1819 
Q 2322 1972 1947 1972 
L 1259 1972 
L 1259 0 
L 628 0 
L 628 4666 
L 2053 4666 
Q 2853 4666 3247 4331 
Q 3641 3997 3641 3322 
Q 3641 2881 3436 2590 
Q 3231 2300 2841 2188 
z
M 1259 4147 
L 1259 2491 
L 2053 2491 
Q 2509 2491 2742 2702 
Q 2975 2913 2975 3322 
Q 2975 3731 2742 3939 
Q 2509 4147 2053 4147 
L 1259 4147 
z
" transform="scale(0.015625)"/>
       <path id="DejaVuSans-4d" d="M 628 4666 
L 1569 4666 
L 2759 1491 
L 3956 4666 
L 4897 4666 
L 4897 0 
L 4281 0 
L 4281 4097 
L 3078 897 
L 2444 897 
L 1241 4097 
L 1241 0 
L 628 0 
L 628 4666 
z
" transform="scale(0.015625)"/>
       <path id="DejaVuSans-53" d="M 3425 4513 
L 3425 3897 
Q 3066 4069 2747 4153 
Q 2428 4238 2131 4238 
Q 1616 4238 1336 4038 
Q 1056 3838 1056 3469 
Q 1056 3159 1242 3001 
Q 1428 2844 1947 2747 
L 2328 2669 
Q 3034 2534 3370 2195 
Q 3706 1856 3706 1288 
Q 3706 609 3251 259 
Q 2797 -91 1919 -91 
Q 1588 -91 1214 -16 
Q 841 59 441 206 
L 441 856 
Q 825 641 1194 531 
Q 1563 422 1919 422 
Q 2459 422 2753 634 
Q 3047 847 3047 1241 
Q 3047 1584 2836 1778 
Q 2625 1972 2144 2069 
L 1759 2144 
Q 1053 2284 737 2584 
Q 422 2884 422 3419 
Q 422 4038 858 4394 
Q 1294 4750 2059 4750 
Q 2388 4750 2728 4690 
Q 3069 4631 3425 4513 
z
" transform="scale(0.015625)"/>
       <path id="DejaVuSans-44" d="M 1259 4147 
L 1259 519 
L 2022 519 
Q 2988 519 3436 956 
Q 3884 1394 3884 2338 
Q 3884 3275 3436 3711 
Q 2988 4147 2022 4147 
L 1259 4147 
z
M 628 4666 
L 1925 4666 
Q 3281 4666 3915 4102 
Q 4550 3538 4550 2338 
Q 4550 1131 3912 565 
Q 3275 0 1925 0 
L 628 0 
L 628 4666 
z
" transform="scale(0.015625)"/>
       <path id="DejaVuSans-28" d="M 1984 4856 
Q 1566 4138 1362 3434 
Q 1159 2731 1159 2009 
Q 1159 1288 1364 580 
Q 1569 -128 1984 -844 
L 1484 -844 
Q 1016 -109 783 600 
Q 550 1309 550 2009 
Q 550 2706 781 3412 
Q 1013 4119 1484 4856 
L 1984 4856 
z
" transform="scale(0.015625)"/>
       <path id="DejaVuSans-41" d="M 2188 4044 
L 1331 1722 
L 3047 1722 
L 2188 4044 
z
M 1831 4666 
L 2547 4666 
L 4325 0 
L 3669 0 
L 3244 1197 
L 1141 1197 
L 716 0 
L 50 0 
L 1831 4666 
z
" transform="scale(0.015625)"/>
       <path id="DejaVuSans-29" d="M 513 4856 
L 1013 4856 
Q 1481 4119 1714 3412 
Q 1947 2706 1947 2009 
Q 1947 1309 1714 600 
Q 1481 -109 1013 -844 
L 513 -844 
Q 928 -128 1133 580 
Q 1338 1288 1338 2009 
Q 1338 2731 1133 3434 
Q 928 4138 513 4856 
z
" transform="scale(0.015625)"/>
      </defs>
      <use xlink:href="#DejaVuSans-50"/>
      <use xlink:href="#DejaVuSans-6f" transform="translate(56.677734 0)"/>
      <use xlink:href="#DejaVuSans-73" transform="translate(117.859375 0)"/>
      <use xlink:href="#DejaVuSans-65" transform="translate(169.958984 0)"/>
      <use xlink:href="#DejaVuSans-20" transform="translate(231.482422 0)"/>
      <use xlink:href="#DejaVuSans-52" transform="translate(263.269531 0)"/>
      <use xlink:href="#DejaVuSans-4d" transform="translate(332.751953 0)"/>
      <use xlink:href="#DejaVuSans-53" transform="translate(419.03125 0)"/>
      <use xlink:href="#DejaVuSans-44" transform="translate(482.507812 0)"/>
      <use xlink:href="#DejaVuSans-20" transform="translate(559.509766 0)"/>
      <use xlink:href="#DejaVuSans-28" transform="translate(591.296875 0)"/>
      <use xlink:href="#DejaVuSans-41" transform="translate(630.310547 0)"/>
      <use xlink:href="#DejaVuSans-29" transform="translate(698.71875 0)"/>
     </g>
    </g>
   </g>
   <g id="line2d_21">
    <path d="M 59.484943 159.806118 
L 61.311125 104.861865 
L 63.137307 105.359841 
L 64.963489 94.927497 
L 66.78967 77.500489 
L 68.615852 82.833169 
L 70.442034 80.14321 
L 72.268216 87.387858 
L 74.094398 91.058041 
L 75.92058 81.586127 
L 77.746761 81.147827 
L 79.572943 73.677087 
L 81.399125 78.563346 
L 83.225307 79.147815 
L 85.051489 80.698148 
L 86.87767 70.996743 
L 88.703852 70.181786 
L 90.530034 84.177986 
L 92.356216 79.379387 
L 94.182398 78.337857 
L 96.00858 79.376077 
L 97.834761 64.935529 
L 99.660943 73.120966 
L 101.487125 82.175563 
L 103.313307 74.403484 
L 105.139489 81.541298 
L 106.96567 83.597642 
L 108.791852 71.107208 
L 110.618034 79.829715 
L 112.444216 74.261437 
L 114.270398 78.966125 
L 116.09658 88.382747 
L 117.922761 77.985609 
L 119.748943 79.818714 
L 121.575125 90.594626 
L 123.401307 81.944972 
L 125.227489 87.103705 
L 127.05367 79.954589 
L 128.879852 86.273029 
L 130.706034 79.847825 
L 132.532216 91.537095 
L 134.358398 78.476836 
L 136.18458 79.071119 
L 139.836943 79.355634 
L 141.663125 83.225584 
L 143.489307 77.110904 
L 145.315489 74.718418 
L 147.14167 81.832317 
L 148.967852 77.163078 
L 152.620216 86.171795 
L 156.27258 82.287803 
L 158.098761 76.993637 
L 159.924943 82.312279 
L 161.751125 75.700666 
L 163.577307 74.259982 
L 165.403489 73.648381 
L 167.22967 84.296429 
L 169.055852 89.579178 
L 170.882034 84.292457 
L 172.708216 87.567233 
L 174.534398 81.729632 
L 176.36058 84.905851 
L 178.186761 82.47343 
L 180.012943 82.942531 
L 181.839125 94.667236 
L 183.665307 86.071204 
L 185.491489 88.561538 
L 187.31767 89.455954 
L 189.143852 82.589471 
L 190.970034 87.874536 
L 192.796216 90.817384 
L 194.622398 88.041104 
L 200.100943 84.524055 
L 201.927125 85.384825 
L 203.753307 87.182776 
L 205.579489 88.147116 
L 207.40567 88.409949 
L 209.231852 89.600012 
L 211.058034 82.115235 
L 212.884216 86.501457 
L 214.710398 85.047937 
L 216.53658 88.065947 
L 220.188943 88.826203 
L 222.015125 87.724265 
L 223.841307 82.528463 
L 225.667489 86.236961 
L 227.49367 89.039843 
L 229.319852 86.313802 
L 231.146034 84.635825 
L 232.972216 81.459384 
L 234.798398 85.799194 
L 238.450761 91.188776 
L 240.276943 83.525678 
L 242.103125 88.280134 
L 243.929307 85.847405 
L 245.755489 90.285662 
L 247.58167 88.262591 
L 249.407852 84.262074 
L 251.234034 88.93681 
L 253.060216 80.388201 
L 254.886398 86.981302 
L 256.71258 78.511791 
L 258.538761 79.562187 
L 260.364943 84.735489 
L 265.843489 84.994653 
L 267.66967 87.216085 
L 269.495852 90.286782 
L 271.322034 92.294023 
L 273.148216 87.126093 
L 274.974398 91.831175 
L 276.80058 88.00437 
L 278.626761 87.734424 
L 280.452943 93.293567 
L 282.279125 90.276717 
L 284.105307 84.998762 
L 285.931489 86.515859 
L 287.75767 87.456079 
L 289.583852 77.897367 
L 291.410034 90.515511 
L 293.236216 91.556845 
L 295.062398 88.448045 
L 296.88858 90.875857 
L 298.714761 89.931181 
L 300.540943 86.291802 
L 302.367125 92.915435 
L 304.193307 89.19999 
L 306.019489 91.453441 
L 307.84567 86.89907 
L 309.671852 90.871874 
L 311.498034 89.882734 
L 313.324216 84.086888 
L 315.150398 93.824755 
L 316.97658 91.473963 
L 318.802761 91.366332 
L 320.628943 87.819065 
L 322.455125 87.572998 
L 324.281307 89.685442 
L 327.93367 92.315874 
L 329.759852 86.677978 
L 331.586034 90.485453 
L 333.412216 92.002359 
L 335.238398 93.824424 
L 337.06458 88.548401 
L 338.890761 90.173978 
L 340.716943 86.161557 
L 342.543125 91.891987 
L 344.369307 93.949898 
L 346.195489 83.994086 
L 348.02167 93.961468 
L 349.847852 84.565825 
L 351.674034 88.836407 
L 353.500216 84.995793 
L 355.326398 94.50018 
L 357.15258 88.720728 
L 358.978761 89.793524 
L 360.804943 92.449784 
L 362.631125 82.024298 
L 364.457307 90.867126 
L 366.283489 89.798146 
L 368.10967 85.357355 
L 369.935852 91.079021 
L 371.762034 93.220101 
L 373.588216 89.065547 
L 375.414398 82.331658 
L 377.24058 88.488182 
L 379.066761 87.726982 
L 382.719125 82.653268 
L 384.545307 87.188263 
L 386.371489 87.354166 
L 388.19767 87.633926 
L 390.023852 85.884037 
L 391.850034 95.162783 
L 393.676216 87.416849 
L 395.502398 88.120723 
L 397.32858 90.059862 
L 399.154761 91.685646 
L 400.980943 93.653681 
L 402.807125 93.492214 
L 404.633307 93.760945 
L 406.459489 90.558494 
L 408.28567 86.041378 
L 410.111852 93.804474 
L 411.938034 95.53665 
L 413.764216 95.916693 
L 415.590398 89.049385 
L 417.41658 90.99546 
L 419.242761 97.298934 
L 421.068943 95.747981 
L 422.895125 91.022201 
L 424.721307 99.333211 
L 424.721307 99.333211 
" clip-path="url(#p34638b8731)" style="fill: none; stroke: #6a4c93; stroke-width: 1.1; stroke-linecap: square"/>
   </g>
   <g id="patch_3">
    <path d="M 41.223125 164.549647 
L 41.223125 60.192 
" style="fill: none; stroke: #000000; stroke-width: 0.8; stroke-linejoin: miter; stroke-linecap: square"/>
   </g>
   <g id="patch_4">
    <path d="M 442.983125 164.549647 
L 442.983125 60.192 
" style="fill: none; stroke: #000000; stroke-width: 0.8; stroke-linejoin: miter; stroke-linecap: square"/>
   </g>
   <g id="patch_5">
    <path d="M 41.223125 164.549647 
L 442.983125 164.549647 
" style="fill: none; stroke: #000000; stroke-width: 0.8; stroke-linejoin: miter; stroke-linecap: square"/>
   </g>
   <g id="patch_6">
    <path d="M 41.223125 60.192 
L 442.983125 60.192 
" style="fill: none; stroke: #000000; stroke-width: 0.8; stroke-linejoin: miter; stroke-linecap: square"/>
   </g>
  </g>
  <g id="axes_2">
   <g id="patch_7">
    <path d="M 41.223125 289.778824 
L 442.983125 289.778824 
L 442.983125 185.421176 
L 41.223125 185.421176 
z
" style="fill: #ffffff"/>
   </g>
   <g id="matplotlib.axis_3">
    <g id="xtick_7">
     <g id="line2d_22">
      <path d="M 59.484943 289.778824 
L 59.484943 185.421176 
" clip-path="url(#p6f5a63403c)" style="fill: none; stroke: #b0b0b0; stroke-opacity: 0.25; stroke-width: 0.8; stroke-linecap: square"/>
     </g>
     <g id="line2d_23">
      <g>
       <use xlink:href="#mfa0b468a3a" x="59.484943" y="289.778824" style="stroke: #000000; stroke-width: 0.8"/>
      </g>
     </g>
    </g>
    <g id="xtick_8">
     <g id="line2d_24">
      <path d="M 132.532216 289.778824 
L 132.532216 185.421176 
" clip-path="url(#p6f5a63403c)" style="fill: none; stroke: #b0b0b0; stroke-opacity: 0.25; stroke-width: 0.8; stroke-linecap: square"/>
     </g>
     <g id="line2d_25">
      <g>
       <use xlink:href="#mfa0b468a3a" x="132.532216" y="289.778824" style="stroke: #000000; stroke-width: 0.8"/>
      </g>
     </g>
    </g>
    <g id="xtick_9">
     <g id="line2d_26">
      <path d="M 205.579489 289.778824 
L 205.579489 185.421176 
" clip-path="url(#p6f5a63403c)" style="fill: none; stroke: #b0b0b0; stroke-opacity: 0.25; stroke-width: 0.8; stroke-linecap: square"/>
     </g>
     <g id="line2d_27">
      <g>
       <use xlink:href="#mfa0b468a3a" x="205.579489" y="289.778824" style="stroke: #000000; stroke-width: 0.8"/>
      </g>
     </g>
    </g>
    <g id="xtick_10">
     <g id="line2d_28">
      <path d="M 278.626761 289.778824 
L 278.626761 185.421176 
" clip-path="url(#p6f5a63403c)" style="fill: none; stroke: #b0b0b0; stroke-opacity: 0.25; stroke-width: 0.8; stroke-linecap: square"/>
     </g>
     <g id="line2d_29">
      <g>
       <use xlink:href="#mfa0b468a3a" x="278.626761" y="289.778824" style="stroke: #000000; stroke-width: 0.8"/>
      </g>
     </g>
    </g>
    <g id="xtick_11">
     <g id="line2d_30">
      <path d="M 351.674034 289.778824 
L 351.674034 185.421176 
" clip-path="url(#p6f5a63403c)" style="fill: none; stroke: #b0b0b0; stroke-opacity: 0.25; stroke-width: 0.8; stroke-linecap: square"/>
     </g>
     <g id="line2d_31">
      <g>
       <use xlink:href="#mfa0b468a3a" x="351.674034" y="289.778824" style="stroke: #000000; stroke-width: 0.8"/>
      </g>
     </g>
    </g>
    <g id="xtick_12">
     <g id="line2d_32">
      <path d="M 424.721307 289.778824 
L 424.721307 185.421176 
" clip-path="url(#p6f5a63403c)" style="fill: none; stroke: #b0b0b0; stroke-opacity: 0.25; stroke-width: 0.8; stroke-linecap: square"/>
     </g>
     <g id="line2d_33">
      <g>
       <use xlink:href="#mfa0b468a3a" x="424.721307" y="289.778824" style="stroke: #000000; stroke-width: 0.8"/>
      </g>
     </g>
    </g>
   </g>
   <g id="matplotlib.axis_4">
    <g id="ytick_5">
     <g id="line2d_34">
      <path d="M 41.223125 265.406897 
L 442.983125 265.406897 
" clip-path="url(#p6f5a63403c)" style="fill: none; stroke: #b0b0b0; stroke-opacity: 0.25; stroke-width: 0.8; stroke-linecap: square"/>
     </g>
     <g id="line2d_35">
      <g>
       <use xlink:href="#m0fed983ab6" x="41.223125" y="265.406897" style="stroke: #000000; stroke-width: 0.8"/>
      </g>
     </g>
     <g id="text_6">
      <!-- 50 -->
      <g transform="translate(22.770625 268.826193) scale(0.09 -0.09)">
       <defs>
        <path id="DejaVuSans-35" d="M 691 4666 
L 3169 4666 
L 3169 4134 
L 1269 4134 
L 1269 2991 
Q 1406 3038 1543 3061 
Q 1681 3084 1819 3084 
Q 2600 3084 3056 2656 
Q 3513 2228 3513 1497 
Q 3513 744 3044 326 
Q 2575 -91 1722 -91 
Q 1428 -91 1123 -41 
Q 819 9 494 109 
L 494 744 
Q 775 591 1075 516 
Q 1375 441 1709 441 
Q 2250 441 2565 725 
Q 2881 1009 2881 1497 
Q 2881 1984 2565 2268 
Q 2250 2553 1709 2553 
Q 1456 2553 1204 2497 
Q 953 2441 691 2322 
L 691 4666 
z
" transform="scale(0.015625)"/>
       </defs>
       <use xlink:href="#DejaVuSans-35"/>
       <use xlink:href="#DejaVuSans-30" transform="translate(63.623047 0)"/>
      </g>
     </g>
    </g>
    <g id="ytick_6">
     <g id="line2d_36">
      <path d="M 41.223125 232.692901 
L 442.983125 232.692901 
" clip-path="url(#p6f5a63403c)" style="fill: none; stroke: #b0b0b0; stroke-opacity: 0.25; stroke-width: 0.8; stroke-linecap: square"/>
     </g>
     <g id="line2d_37">
      <g>
       <use xlink:href="#m0fed983ab6" x="41.223125" y="232.692901" style="stroke: #000000; stroke-width: 0.8"/>
      </g>
     </g>
     <g id="text_7">
      <!-- 60 -->
      <g transform="translate(22.770625 236.112197) scale(0.09 -0.09)">
       <defs>
        <path id="DejaVuSans-36" d="M 2113 2584 
Q 1688 2584 1439 2293 
Q 1191 2003 1191 1497 
Q 1191 994 1439 701 
Q 1688 409 2113 409 
Q 2538 409 2786 701 
Q 3034 994 3034 1497 
Q 3034 2003 2786 2293 
Q 2538 2584 2113 2584 
z
M 3366 4563 
L 3366 3988 
Q 3128 4100 2886 4159 
Q 2644 4219 2406 4219 
Q 1781 4219 1451 3797 
Q 1122 3375 1075 2522 
Q 1259 2794 1537 2939 
Q 1816 3084 2150 3084 
Q 2853 3084 3261 2657 
Q 3669 2231 3669 1497 
Q 3669 778 3244 343 
Q 2819 -91 2113 -91 
Q 1303 -91 875 529 
Q 447 1150 447 2328 
Q 447 3434 972 4092 
Q 1497 4750 2381 4750 
Q 2619 4750 2861 4703 
Q 3103 4656 3366 4563 
z
" transform="scale(0.015625)"/>
       </defs>
       <use xlink:href="#DejaVuSans-36"/>
       <use xlink:href="#DejaVuSans-30" transform="translate(63.623047 0)"/>
      </g>
     </g>
    </g>
    <g id="ytick_7">
     <g id="line2d_38">
      <path d="M 41.223125 199.978905 
L 442.983125 199.978905 
" clip-path="url(#p6f5a63403c)" style="fill: none; stroke: #b0b0b0; stroke-opacity: 0.25; stroke-width: 0.8; stroke-linecap: square"/>
     </g>
     <g id="line2d_39">
      <g>
       <use xlink:href="#m0fed983ab6" x="41.223125" y="199.978905" style="stroke: #000000; stroke-width: 0.8"/>
      </g>
     </g>
     <g id="text_8">
      <!-- 70 -->
      <g transform="translate(22.770625 203.398202) scale(0.09 -0.09)">
       <defs>
        <path id="DejaVuSans-37" d="M 525 4666 
L 3525 4666 
L 3525 4397 
L 1831 0 
L 1172 0 
L 2766 4134 
L 525 4134 
L 525 4666 
z
" transform="scale(0.015625)"/>
       </defs>
       <use xlink:href="#DejaVuSans-37"/>
       <use xlink:href="#DejaVuSans-30" transform="translate(63.623047 0)"/>
      </g>
     </g>
    </g>
    <g id="text_9">
     <!-- 4 A contacts -->
     <g transform="translate(16.898906 265.585781) rotate(-90) scale(0.09 -0.09)">
      <defs>
       <path id="DejaVuSans-34" d="M 2419 4116 
L 825 1625 
L 2419 1625 
L 2419 4116 
z
M 2253 4666 
L 3047 4666 
L 3047 1625 
L 3713 1625 
L 3713 1100 
L 3047 1100 
L 3047 0 
L 2419 0 
L 2419 1100 
L 313 1100 
L 313 1709 
L 2253 4666 
z
" transform="scale(0.015625)"/>
       <path id="DejaVuSans-63" d="M 3122 3366 
L 3122 2828 
Q 2878 2963 2633 3030 
Q 2388 3097 2138 3097 
Q 1578 3097 1268 2742 
Q 959 2388 959 1747 
Q 959 1106 1268 751 
Q 1578 397 2138 397 
Q 2388 397 2633 464 
Q 2878 531 3122 666 
L 3122 134 
Q 2881 22 2623 -34 
Q 2366 -91 2075 -91 
Q 1284 -91 818 406 
Q 353 903 353 1747 
Q 353 2603 823 3093 
Q 1294 3584 2113 3584 
Q 2378 3584 2631 3529 
Q 2884 3475 3122 3366 
z
" transform="scale(0.015625)"/>
       <path id="DejaVuSans-6e" d="M 3513 2113 
L 3513 0 
L 2938 0 
L 2938 2094 
Q 2938 2591 2744 2837 
Q 2550 3084 2163 3084 
Q 1697 3084 1428 2787 
Q 1159 2491 1159 1978 
L 1159 0 
L 581 0 
L 581 3500 
L 1159 3500 
L 1159 2956 
Q 1366 3272 1645 3428 
Q 1925 3584 2291 3584 
Q 2894 3584 3203 3211 
Q 3513 2838 3513 2113 
z
" transform="scale(0.015625)"/>
       <path id="DejaVuSans-74" d="M 1172 4494 
L 1172 3500 
L 2356 3500 
L 2356 3053 
L 1172 3053 
L 1172 1153 
Q 1172 725 1289 603 
Q 1406 481 1766 481 
L 2356 481 
L 2356 0 
L 1766 0 
Q 1100 0 847 248 
Q 594 497 594 1153 
L 594 3053 
L 172 3053 
L 172 3500 
L 594 3500 
L 594 4494 
L 1172 4494 
z
" transform="scale(0.015625)"/>
       <path id="DejaVuSans-61" d="M 2194 1759 
Q 1497 1759 1228 1600 
Q 959 1441 959 1056 
Q 959 750 1161 570 
Q 1363 391 1709 391 
Q 2188 391 2477 730 
Q 2766 1069 2766 1631 
L 2766 1759 
L 2194 1759 
z
M 3341 1997 
L 3341 0 
L 2766 0 
L 2766 531 
Q 2569 213 2275 61 
Q 1981 -91 1556 -91 
Q 1019 -91 701 211 
Q 384 513 384 1019 
Q 384 1609 779 1909 
Q 1175 2209 1959 2209 
L 2766 2209 
L 2766 2266 
Q 2766 2663 2505 2880 
Q 2244 3097 1772 3097 
Q 1472 3097 1187 3025 
Q 903 2953 641 2809 
L 641 3341 
Q 956 3463 1253 3523 
Q 1550 3584 1831 3584 
Q 2591 3584 2966 3190 
Q 3341 2797 3341 1997 
z
" transform="scale(0.015625)"/>
      </defs>
      <use xlink:href="#DejaVuSans-34"/>
      <use xlink:href="#DejaVuSans-20" transform="translate(63.623047 0)"/>
      <use xlink:href="#DejaVuSans-41" transform="translate(95.410156 0)"/>
      <use xlink:href="#DejaVuSans-20" transform="translate(163.818359 0)"/>
      <use xlink:href="#DejaVuSans-63" transform="translate(195.605469 0)"/>
      <use xlink:href="#DejaVuSans-6f" transform="translate(250.585938 0)"/>
      <use xlink:href="#DejaVuSans-6e" transform="translate(311.767578 0)"/>
      <use xlink:href="#DejaVuSans-74" transform="translate(375.146484 0)"/>
      <use xlink:href="#DejaVuSans-61" transform="translate(414.355469 0)"/>
      <use xlink:href="#DejaVuSans-63" transform="translate(475.634766 0)"/>
      <use xlink:href="#DejaVuSans-74" transform="translate(530.615234 0)"/>
      <use xlink:href="#DejaVuSans-73" transform="translate(569.824219 0)"/>
     </g>
    </g>
   </g>
   <g id="line2d_40">
    <path d="M 59.484943 229.421501 
L 61.311125 245.778499 
L 63.137307 216.335903 
L 64.963489 262.135497 
L 66.78967 249.049899 
L 68.615852 239.2357 
L 70.442034 262.135497 
L 72.268216 232.692901 
L 74.094398 262.135497 
L 75.92058 235.9643 
L 77.746761 229.421501 
L 79.572943 245.778499 
L 81.399125 222.878702 
L 83.225307 222.878702 
L 85.051489 265.406897 
L 86.87767 252.321298 
L 88.703852 235.9643 
L 90.530034 232.692901 
L 92.356216 265.406897 
L 94.182398 285.035294 
L 96.00858 242.507099 
L 97.834761 265.406897 
L 99.660943 258.864097 
L 101.487125 235.9643 
L 103.313307 235.9643 
L 105.139489 249.049899 
L 106.96567 239.2357 
L 108.791852 252.321298 
L 110.618034 249.049899 
L 112.444216 226.150101 
L 114.270398 258.864097 
L 116.09658 252.321298 
L 117.922761 222.878702 
L 119.748943 235.9643 
L 121.575125 268.678296 
L 123.401307 242.507099 
L 125.227489 235.9643 
L 127.05367 252.321298 
L 128.879852 242.507099 
L 130.706034 239.2357 
L 132.532216 249.049899 
L 134.358398 245.778499 
L 136.18458 222.878702 
L 138.010761 226.150101 
L 139.836943 213.064503 
L 141.663125 226.150101 
L 143.489307 222.878702 
L 145.315489 222.878702 
L 147.14167 196.707505 
L 148.967852 213.064503 
L 150.794034 206.521704 
L 152.620216 245.778499 
L 154.446398 219.607302 
L 156.27258 245.778499 
L 158.098761 209.793103 
L 159.924943 222.878702 
L 161.751125 242.507099 
L 163.577307 252.321298 
L 165.403489 229.421501 
L 167.22967 258.864097 
L 169.055852 222.878702 
L 170.882034 229.421501 
L 172.708216 216.335903 
L 174.534398 226.150101 
L 176.36058 229.421501 
L 178.186761 239.2357 
L 180.012943 242.507099 
L 181.839125 258.864097 
L 183.665307 249.049899 
L 185.491489 226.150101 
L 187.31767 242.507099 
L 189.143852 232.692901 
L 190.970034 235.9643 
L 192.796216 229.421501 
L 194.622398 242.507099 
L 196.44858 219.607302 
L 198.274761 229.421501 
L 200.100943 206.521704 
L 201.927125 229.421501 
L 203.753307 222.878702 
L 205.579489 213.064503 
L 207.40567 232.692901 
L 209.231852 239.2357 
L 211.058034 229.421501 
L 212.884216 252.321298 
L 214.710398 226.150101 
L 216.53658 226.150101 
L 218.362761 229.421501 
L 220.188943 239.2357 
L 222.015125 232.692901 
L 223.841307 245.778499 
L 225.667489 239.2357 
L 227.49367 235.9643 
L 229.319852 229.421501 
L 231.146034 232.692901 
L 232.972216 242.507099 
L 234.798398 235.9643 
L 236.62458 219.607302 
L 238.450761 222.878702 
L 240.276943 235.9643 
L 242.103125 226.150101 
L 243.929307 229.421501 
L 245.755489 226.150101 
L 247.58167 262.135497 
L 249.407852 242.507099 
L 253.060216 229.421501 
L 254.886398 229.421501 
L 256.71258 242.507099 
L 258.538761 252.321298 
L 260.364943 229.421501 
L 262.191125 258.864097 
L 264.017307 232.692901 
L 265.843489 219.607302 
L 267.66967 239.2357 
L 269.495852 255.592698 
L 271.322034 226.150101 
L 273.148216 239.2357 
L 274.974398 219.607302 
L 276.80058 242.507099 
L 278.626761 216.335903 
L 280.452943 239.2357 
L 282.279125 226.150101 
L 284.105307 255.592698 
L 285.931489 235.9643 
L 287.75767 222.878702 
L 289.583852 219.607302 
L 291.410034 229.421501 
L 293.236216 222.878702 
L 295.062398 268.678296 
L 296.88858 229.421501 
L 298.714761 239.2357 
L 300.540943 239.2357 
L 302.367125 229.421501 
L 304.193307 229.421501 
L 306.019489 239.2357 
L 309.671852 226.150101 
L 311.498034 239.2357 
L 313.324216 219.607302 
L 315.150398 222.878702 
L 318.802761 216.335903 
L 320.628943 219.607302 
L 322.455125 219.607302 
L 324.281307 222.878702 
L 326.107489 216.335903 
L 327.93367 229.421501 
L 329.759852 219.607302 
L 331.586034 226.150101 
L 333.412216 249.049899 
L 335.238398 209.793103 
L 337.06458 239.2357 
L 338.890761 222.878702 
L 340.716943 199.978905 
L 342.543125 249.049899 
L 344.369307 232.692901 
L 346.195489 226.150101 
L 348.02167 235.9643 
L 349.847852 196.707505 
L 351.674034 226.150101 
L 353.500216 258.864097 
L 355.326398 235.9643 
L 357.15258 249.049899 
L 358.978761 222.878702 
L 360.804943 219.607302 
L 362.631125 209.793103 
L 364.457307 239.2357 
L 366.283489 226.150101 
L 368.10967 229.421501 
L 369.935852 245.778499 
L 371.762034 239.2357 
L 373.588216 226.150101 
L 375.414398 226.150101 
L 377.24058 213.064503 
L 379.066761 239.2357 
L 380.892943 226.150101 
L 382.719125 219.607302 
L 384.545307 239.2357 
L 386.371489 229.421501 
L 388.19767 213.064503 
L 390.023852 242.507099 
L 391.850034 226.150101 
L 393.676216 232.692901 
L 395.502398 219.607302 
L 397.32858 262.135497 
L 399.154761 196.707505 
L 400.980943 232.692901 
L 402.807125 255.592698 
L 404.633307 232.692901 
L 406.459489 249.049899 
L 408.28567 216.335903 
L 410.111852 229.421501 
L 411.938034 258.864097 
L 413.764216 239.2357 
L 415.590398 222.878702 
L 417.41658 245.778499 
L 419.242761 235.9643 
L 421.068943 239.2357 
L 422.895125 222.878702 
L 424.721307 190.164706 
L 424.721307 190.164706 
" clip-path="url(#p6f5a63403c)" style="fill: none; stroke: #3f7f5f; stroke-width: 1.1; stroke-linecap: square"/>
   </g>
   <g id="patch_8">
    <path d="M 41.223125 289.778824 
L 41.223125 185.421176 
" style="fill: none; stroke: #000000; stroke-width: 0.8; stroke-linejoin: miter; stroke-linecap: square"/>
   </g>
   <g id="patch_9">
    <path d="M 442.983125 289.778824 
L 442.983125 185.421176 
" style="fill: none; stroke: #000000; stroke-width: 0.8; stroke-linejoin: miter; stroke-linecap: square"/>
   </g>
   <g id="patch_10">
    <path d="M 41.223125 289.778824 
L 442.983125 289.778824 
" style="fill: none; stroke: #000000; stroke-width: 0.8; stroke-linejoin: miter; stroke-linecap: square"/>
   </g>
   <g id="patch_11">
    <path d="M 41.223125 185.421176 
L 442.983125 185.421176 
" style="fill: none; stroke: #000000; stroke-width: 0.8; stroke-linejoin: miter; stroke-linecap: square"/>
   </g>
  </g>
  <g id="axes_3">
   <g id="patch_12">
    <path d="M 41.223125 415.008 
L 442.983125 415.008 
L 442.983125 310.650353 
L 41.223125 310.650353 
z
" style="fill: #ffffff"/>
   </g>
   <g id="matplotlib.axis_5">
    <g id="xtick_13">
     <g id="line2d_41">
      <path d="M 59.484943 415.008 
L 59.484943 310.650353 
" clip-path="url(#pa975a09af5)" style="fill: none; stroke: #b0b0b0; stroke-opacity: 0.25; stroke-width: 0.8; stroke-linecap: square"/>
     </g>
     <g id="line2d_42">
      <g>
       <use xlink:href="#mfa0b468a3a" x="59.484943" y="415.008" style="stroke: #000000; stroke-width: 0.8"/>
      </g>
     </g>
     <g id="text_10">
      <!-- 0 -->
      <g transform="translate(56.621818 428.846594) scale(0.09 -0.09)">
       <use xlink:href="#DejaVuSans-30"/>
      </g>
     </g>
    </g>
    <g id="xtick_14">
     <g id="line2d_43">
      <path d="M 132.532216 415.008 
L 132.532216 310.650353 
" clip-path="url(#pa975a09af5)" style="fill: none; stroke: #b0b0b0; stroke-opacity: 0.25; stroke-width: 0.8; stroke-linecap: square"/>
     </g>
     <g id="line2d_44">
      <g>
       <use xlink:href="#mfa0b468a3a" x="132.532216" y="415.008" style="stroke: #000000; stroke-width: 0.8"/>
      </g>
     </g>
     <g id="text_11">
      <!-- 20 -->
      <g transform="translate(126.805966 428.846594) scale(0.09 -0.09)">
       <use xlink:href="#DejaVuSans-32"/>
       <use xlink:href="#DejaVuSans-30" transform="translate(63.623047 0)"/>
      </g>
     </g>
    </g>
    <g id="xtick_15">
     <g id="line2d_45">
      <path d="M 205.579489 415.008 
L 205.579489 310.650353 
" clip-path="url(#pa975a09af5)" style="fill: none; stroke: #b0b0b0; stroke-opacity: 0.25; stroke-width: 0.8; stroke-linecap: square"/>
     </g>
     <g id="line2d_46">
      <g>
       <use xlink:href="#mfa0b468a3a" x="205.579489" y="415.008" style="stroke: #000000; stroke-width: 0.8"/>
      </g>
     </g>
     <g id="text_12">
      <!-- 40 -->
      <g transform="translate(199.853239 428.846594) scale(0.09 -0.09)">
       <use xlink:href="#DejaVuSans-34"/>
       <use xlink:href="#DejaVuSans-30" transform="translate(63.623047 0)"/>
      </g>
     </g>
    </g>
    <g id="xtick_16">
     <g id="line2d_47">
      <path d="M 278.626761 415.008 
L 278.626761 310.650353 
" clip-path="url(#pa975a09af5)" style="fill: none; stroke: #b0b0b0; stroke-opacity: 0.25; stroke-width: 0.8; stroke-linecap: square"/>
     </g>
     <g id="line2d_48">
      <g>
       <use xlink:href="#mfa0b468a3a" x="278.626761" y="415.008" style="stroke: #000000; stroke-width: 0.8"/>
      </g>
     </g>
     <g id="text_13">
      <!-- 60 -->
      <g transform="translate(272.900511 428.846594) scale(0.09 -0.09)">
       <use xlink:href="#DejaVuSans-36"/>
       <use xlink:href="#DejaVuSans-30" transform="translate(63.623047 0)"/>
      </g>
     </g>
    </g>
    <g id="xtick_17">
     <g id="line2d_49">
      <path d="M 351.674034 415.008 
L 351.674034 310.650353 
" clip-path="url(#pa975a09af5)" style="fill: none; stroke: #b0b0b0; stroke-opacity: 0.25; stroke-width: 0.8; stroke-linecap: square"/>
     </g>
     <g id="line2d_50">
      <g>
       <use xlink:href="#mfa0b468a3a" x="351.674034" y="415.008" style="stroke: #000000; stroke-width: 0.8"/>
      </g>
     </g>
     <g id="text_14">
      <!-- 80 -->
      <g transform="translate(345.947784 428.846594) scale(0.09 -0.09)">
       <defs>
        <path id="DejaVuSans-38" d="M 2034 2216 
Q 1584 2216 1326 1975 
Q 1069 1734 1069 1313 
Q 1069 891 1326 650 
Q 1584 409 2034 409 
Q 2484 409 2743 651 
Q 3003 894 3003 1313 
Q 3003 1734 2745 1975 
Q 2488 2216 2034 2216 
z
M 1403 2484 
Q 997 2584 770 2862 
Q 544 3141 544 3541 
Q 544 4100 942 4425 
Q 1341 4750 2034 4750 
Q 2731 4750 3128 4425 
Q 3525 4100 3525 3541 
Q 3525 3141 3298 2862 
Q 3072 2584 2669 2484 
Q 3125 2378 3379 2068 
Q 3634 1759 3634 1313 
Q 3634 634 3220 271 
Q 2806 -91 2034 -91 
Q 1263 -91 848 271 
Q 434 634 434 1313 
Q 434 1759 690 2068 
Q 947 2378 1403 2484 
z
M 1172 3481 
Q 1172 3119 1398 2916 
Q 1625 2713 2034 2713 
Q 2441 2713 2670 2916 
Q 2900 3119 2900 3481 
Q 2900 3844 2670 4047 
Q 2441 4250 2034 4250 
Q 1625 4250 1398 4047 
Q 1172 3844 1172 3481 
z
" transform="scale(0.015625)"/>
       </defs>
       <use xlink:href="#DejaVuSans-38"/>
       <use xlink:href="#DejaVuSans-30" transform="translate(63.623047 0)"/>
      </g>
     </g>
    </g>
    <g id="xtick_18">
     <g id="line2d_51">
      <path d="M 424.721307 415.008 
L 424.721307 310.650353 
" clip-path="url(#pa975a09af5)" style="fill: none; stroke: #b0b0b0; stroke-opacity: 0.25; stroke-width: 0.8; stroke-linecap: square"/>
     </g>
     <g id="line2d_52">
      <g>
       <use xlink:href="#mfa0b468a3a" x="424.721307" y="415.008" style="stroke: #000000; stroke-width: 0.8"/>
      </g>
     </g>
     <g id="text_15">
      <!-- 100 -->
      <g transform="translate(416.131932 428.846594) scale(0.09 -0.09)">
       <use xlink:href="#DejaVuSans-31"/>
       <use xlink:href="#DejaVuSans-30" transform="translate(63.623047 0)"/>
       <use xlink:href="#DejaVuSans-30" transform="translate(127.246094 0)"/>
      </g>
     </g>
    </g>
    <g id="text_16">
     <!-- Time (ns) -->
     <g transform="translate(220.955234 441.556906) scale(0.09 -0.09)">
      <defs>
       <path id="DejaVuSans-54" d="M -19 4666 
L 3928 4666 
L 3928 4134 
L 2272 4134 
L 2272 0 
L 1638 0 
L 1638 4134 
L -19 4134 
L -19 4666 
z
" transform="scale(0.015625)"/>
       <path id="DejaVuSans-69" d="M 603 3500 
L 1178 3500 
L 1178 0 
L 603 0 
L 603 3500 
z
M 603 4863 
L 1178 4863 
L 1178 4134 
L 603 4134 
L 603 4863 
z
" transform="scale(0.015625)"/>
       <path id="DejaVuSans-6d" d="M 3328 2828 
Q 3544 3216 3844 3400 
Q 4144 3584 4550 3584 
Q 5097 3584 5394 3201 
Q 5691 2819 5691 2113 
L 5691 0 
L 5113 0 
L 5113 2094 
Q 5113 2597 4934 2840 
Q 4756 3084 4391 3084 
Q 3944 3084 3684 2787 
Q 3425 2491 3425 1978 
L 3425 0 
L 2847 0 
L 2847 2094 
Q 2847 2600 2669 2842 
Q 2491 3084 2119 3084 
Q 1678 3084 1418 2786 
Q 1159 2488 1159 1978 
L 1159 0 
L 581 0 
L 581 3500 
L 1159 3500 
L 1159 2956 
Q 1356 3278 1631 3431 
Q 1906 3584 2284 3584 
Q 2666 3584 2933 3390 
Q 3200 3197 3328 2828 
z
" transform="scale(0.015625)"/>
      </defs>
      <use xlink:href="#DejaVuSans-54"/>
      <use xlink:href="#DejaVuSans-69" transform="translate(57.958984 0)"/>
      <use xlink:href="#DejaVuSans-6d" transform="translate(85.742188 0)"/>
      <use xlink:href="#DejaVuSans-65" transform="translate(183.154297 0)"/>
      <use xlink:href="#DejaVuSans-20" transform="translate(244.677734 0)"/>
      <use xlink:href="#DejaVuSans-28" transform="translate(276.464844 0)"/>
      <use xlink:href="#DejaVuSans-6e" transform="translate(315.478516 0)"/>
      <use xlink:href="#DejaVuSans-73" transform="translate(378.857422 0)"/>
      <use xlink:href="#DejaVuSans-29" transform="translate(430.957031 0)"/>
     </g>
    </g>
   </g>
   <g id="matplotlib.axis_6">
    <g id="ytick_8">
     <g id="line2d_53">
      <path d="M 41.223125 391.787268 
L 442.983125 391.787268 
" clip-path="url(#pa975a09af5)" style="fill: none; stroke: #b0b0b0; stroke-opacity: 0.25; stroke-width: 0.8; stroke-linecap: square"/>
     </g>
     <g id="line2d_54">
      <g>
       <use xlink:href="#m0fed983ab6" x="41.223125" y="391.787268" style="stroke: #000000; stroke-width: 0.8"/>
      </g>
     </g>
     <g id="text_17">
      <!-- 0.1 -->
      <g transform="translate(19.910312 395.206565) scale(0.09 -0.09)">
       <defs>
        <path id="DejaVuSans-2e" d="M 684 794 
L 1344 794 
L 1344 0 
L 684 0 
L 684 794 
z
" transform="scale(0.015625)"/>
       </defs>
       <use xlink:href="#DejaVuSans-30"/>
       <use xlink:href="#DejaVuSans-2e" transform="translate(63.623047 0)"/>
       <use xlink:href="#DejaVuSans-31" transform="translate(95.410156 0)"/>
      </g>
     </g>
    </g>
    <g id="ytick_9">
     <g id="line2d_55">
      <path d="M 41.223125 362.503641 
L 442.983125 362.503641 
" clip-path="url(#pa975a09af5)" style="fill: none; stroke: #b0b0b0; stroke-opacity: 0.25; stroke-width: 0.8; stroke-linecap: square"/>
     </g>
     <g id="line2d_56">
      <g>
       <use xlink:href="#m0fed983ab6" x="41.223125" y="362.503641" style="stroke: #000000; stroke-width: 0.8"/>
      </g>
     </g>
     <g id="text_18">
      <!-- 0.2 -->
      <g transform="translate(19.910312 365.922938) scale(0.09 -0.09)">
       <use xlink:href="#DejaVuSans-30"/>
       <use xlink:href="#DejaVuSans-2e" transform="translate(63.623047 0)"/>
       <use xlink:href="#DejaVuSans-32" transform="translate(95.410156 0)"/>
      </g>
     </g>
    </g>
    <g id="ytick_10">
     <g id="line2d_57">
      <path d="M 41.223125 333.220015 
L 442.983125 333.220015 
" clip-path="url(#pa975a09af5)" style="fill: none; stroke: #b0b0b0; stroke-opacity: 0.25; stroke-width: 0.8; stroke-linecap: square"/>
     </g>
     <g id="line2d_58">
      <g>
       <use xlink:href="#m0fed983ab6" x="41.223125" y="333.220015" style="stroke: #000000; stroke-width: 0.8"/>
      </g>
     </g>
     <g id="text_19">
      <!-- 0.3 -->
      <g transform="translate(19.910312 336.639312) scale(0.09 -0.09)">
       <use xlink:href="#DejaVuSans-30"/>
       <use xlink:href="#DejaVuSans-2e" transform="translate(63.623047 0)"/>
       <use xlink:href="#DejaVuSans-33" transform="translate(95.410156 0)"/>
      </g>
     </g>
    </g>
    <g id="text_20">
     <!-- Ligand SASA (nm2) -->
     <g transform="translate(14.038594 406.418708) rotate(-90) scale(0.09 -0.09)">
      <defs>
       <path id="DejaVuSans-4c" d="M 628 4666 
L 1259 4666 
L 1259 531 
L 3531 531 
L 3531 0 
L 628 0 
L 628 4666 
z
" transform="scale(0.015625)"/>
       <path id="DejaVuSans-67" d="M 2906 1791 
Q 2906 2416 2648 2759 
Q 2391 3103 1925 3103 
Q 1463 3103 1205 2759 
Q 947 2416 947 1791 
Q 947 1169 1205 825 
Q 1463 481 1925 481 
Q 2391 481 2648 825 
Q 2906 1169 2906 1791 
z
M 3481 434 
Q 3481 -459 3084 -895 
Q 2688 -1331 1869 -1331 
Q 1566 -1331 1297 -1286 
Q 1028 -1241 775 -1147 
L 775 -588 
Q 1028 -725 1275 -790 
Q 1522 -856 1778 -856 
Q 2344 -856 2625 -561 
Q 2906 -266 2906 331 
L 2906 616 
Q 2728 306 2450 153 
Q 2172 0 1784 0 
Q 1141 0 747 490 
Q 353 981 353 1791 
Q 353 2603 747 3093 
Q 1141 3584 1784 3584 
Q 2172 3584 2450 3431 
Q 2728 3278 2906 2969 
L 2906 3500 
L 3481 3500 
L 3481 434 
z
" transform="scale(0.015625)"/>
       <path id="DejaVuSans-64" d="M 2906 2969 
L 2906 4863 
L 3481 4863 
L 3481 0 
L 2906 0 
L 2906 525 
Q 2725 213 2448 61 
Q 2172 -91 1784 -91 
Q 1150 -91 751 415 
Q 353 922 353 1747 
Q 353 2572 751 3078 
Q 1150 3584 1784 3584 
Q 2172 3584 2448 3432 
Q 2725 3281 2906 2969 
z
M 947 1747 
Q 947 1113 1208 752 
Q 1469 391 1925 391 
Q 2381 391 2643 752 
Q 2906 1113 2906 1747 
Q 2906 2381 2643 2742 
Q 2381 3103 1925 3103 
Q 1469 3103 1208 2742 
Q 947 2381 947 1747 
z
" transform="scale(0.015625)"/>
      </defs>
      <use xlink:href="#DejaVuSans-4c"/>
      <use xlink:href="#DejaVuSans-69" transform="translate(55.712891 0)"/>
      <use xlink:href="#DejaVuSans-67" transform="translate(83.496094 0)"/>
      <use xlink:href="#DejaVuSans-61" transform="translate(146.972656 0)"/>
      <use xlink:href="#DejaVuSans-6e" transform="translate(208.251953 0)"/>
      <use xlink:href="#DejaVuSans-64" transform="translate(271.630859 0)"/>
      <use xlink:href="#DejaVuSans-20" transform="translate(335.107422 0)"/>
      <use xlink:href="#DejaVuSans-53" transform="translate(366.894531 0)"/>
      <use xlink:href="#DejaVuSans-41" transform="translate(432.246094 0)"/>
      <use xlink:href="#DejaVuSans-53" transform="translate(500.654297 0)"/>
      <use xlink:href="#DejaVuSans-41" transform="translate(566.005859 0)"/>
      <use xlink:href="#DejaVuSans-20" transform="translate(634.414062 0)"/>
      <use xlink:href="#DejaVuSans-28" transform="translate(666.201172 0)"/>
      <use xlink:href="#DejaVuSans-6e" transform="translate(705.214844 0)"/>
      <use xlink:href="#DejaVuSans-6d" transform="translate(768.59375 0)"/>
      <use xlink:href="#DejaVuSans-32" transform="translate(866.005859 0)"/>
      <use xlink:href="#DejaVuSans-29" transform="translate(929.628906 0)"/>
     </g>
    </g>
   </g>
   <g id="line2d_59">
    <path d="M 59.484943 410.264471 
L 63.137307 398.148196 
L 64.963489 393.766255 
L 66.78967 390.528924 
L 68.615852 387.570404 
L 70.442034 315.393882 
L 72.268216 370.380776 
L 74.094398 367.219441 
L 75.92058 359.324374 
L 77.746761 349.505325 
L 79.572943 371.667952 
L 81.399125 401.565466 
L 83.225307 399.876096 
L 85.051489 371.839569 
L 86.87767 376.341382 
L 88.703852 335.29972 
L 90.530034 367.42296 
L 92.356216 360.31392 
L 94.182398 359.832907 
L 96.00858 381.895686 
L 97.834761 337.882788 
L 99.660943 345.254516 
L 101.487125 385.875726 
L 103.313307 370.812923 
L 105.139489 377.095707 
L 106.96567 351.513584 
L 108.791852 360.115438 
L 110.618034 353.163752 
L 112.444216 360.919204 
L 114.270398 345.74844 
L 116.09658 357.526183 
L 117.922761 376.746682 
L 119.748943 367.556467 
L 121.575125 380.196644 
L 123.401307 374.675281 
L 125.227489 363.839882 
L 127.05367 375.55143 
L 128.879852 396.482455 
L 130.706034 363.431487 
L 132.532216 386.386541 
L 134.358398 379.649814 
L 136.18458 380.109599 
L 138.010761 363.946358 
L 139.836943 361.418815 
L 141.663125 348.247889 
L 143.489307 362.768061 
L 145.315489 392.762254 
L 147.14167 374.526538 
L 148.967852 369.096235 
L 150.794034 393.655676 
L 152.620216 370.54171 
L 154.446398 374.263155 
L 156.27258 361.659239 
L 158.098761 382.585954 
L 159.924943 392.16623 
L 161.751125 367.32037 
L 163.577307 337.155324 
L 165.403489 359.535424 
L 167.22967 356.569871 
L 169.055852 373.130936 
L 170.882034 372.934033 
L 172.708216 373.437152 
L 174.534398 377.537741 
L 176.36058 383.460975 
L 178.186761 350.128466 
L 180.012943 362.990531 
L 181.839125 357.482062 
L 183.665307 342.775818 
L 185.491489 362.713371 
L 187.31767 338.055394 
L 189.143852 353.010642 
L 190.970034 352.774552 
L 192.796216 378.437067 
L 194.622398 384.400827 
L 196.44858 370.405356 
L 200.100943 331.043404 
L 201.927125 360.416468 
L 203.753307 363.740945 
L 205.579489 384.209611 
L 207.40567 358.419881 
L 209.231852 341.277463 
L 212.884216 381.485926 
L 214.710398 365.032622 
L 216.53658 347.553922 
L 218.362761 349.547473 
L 220.188943 374.51134 
L 222.015125 378.934582 
L 223.841307 386.037456 
L 225.667489 336.586127 
L 227.49367 339.799723 
L 229.319852 336.319555 
L 231.146034 366.859903 
L 232.972216 362.94614 
L 234.798398 335.263895 
L 236.62458 361.365539 
L 238.450761 371.405433 
L 240.276943 385.148476 
L 242.103125 357.549048 
L 243.929307 375.103053 
L 245.755489 380.443377 
L 247.58167 332.832027 
L 249.407852 365.253306 
L 251.234034 362.323459 
L 253.060216 319.537164 
L 254.886398 346.175305 
L 256.71258 341.1513 
L 258.538761 335.221542 
L 260.364943 370.112781 
L 262.191125 324.814495 
L 264.017307 370.452427 
L 265.843489 355.721612 
L 267.66967 353.563028 
L 269.495852 333.612161 
L 271.322034 379.484552 
L 273.148216 332.385613 
L 274.974398 371.540185 
L 276.80058 363.982297 
L 278.626761 374.831823 
L 280.452943 341.641359 
L 282.279125 365.044535 
L 284.105307 377.533334 
L 285.931489 369.14768 
L 287.75767 372.021306 
L 289.583852 372.860422 
L 291.410034 378.792213 
L 293.236216 380.014816 
L 295.062398 346.597162 
L 296.88858 365.3281 
L 298.714761 363.849282 
L 300.540943 348.811408 
L 302.367125 364.774138 
L 304.193307 353.297434 
L 306.019489 357.604054 
L 307.84567 367.824708 
L 309.671852 393.702548 
L 311.498034 363.80329 
L 315.150398 394.947297 
L 316.97658 385.988035 
L 318.802761 382.180584 
L 320.628943 348.860212 
L 322.455125 375.747489 
L 324.281307 369.019424 
L 326.107489 365.541041 
L 327.93367 370.738244 
L 329.759852 380.830787 
L 331.586034 367.306598 
L 333.412216 370.140351 
L 335.238398 381.429503 
L 337.06458 369.454218 
L 338.890761 356.570404 
L 340.716943 387.515598 
L 342.543125 373.356783 
L 344.369307 379.022538 
L 346.195489 368.485648 
L 348.02167 346.773634 
L 349.847852 361.52343 
L 351.674034 373.830568 
L 353.500216 356.672047 
L 355.326398 374.622647 
L 357.15258 375.55215 
L 358.978761 383.074932 
L 360.804943 394.767922 
L 362.631125 382.491661 
L 364.457307 364.69056 
L 366.283489 379.070133 
L 368.10967 362.463095 
L 369.935852 343.791653 
L 371.762034 374.281273 
L 373.588216 380.538039 
L 375.414398 373.653845 
L 377.24058 376.809841 
L 379.066761 391.167721 
L 380.892943 384.242702 
L 382.719125 375.687598 
L 384.545307 375.967316 
L 386.371489 348.287284 
L 388.19767 336.273047 
L 390.023852 367.50529 
L 391.850034 368.188639 
L 393.676216 376.954502 
L 395.502398 367.277054 
L 397.32858 337.437735 
L 399.154761 368.711252 
L 400.980943 364.128859 
L 402.807125 369.537524 
L 404.633307 361.402489 
L 406.459489 337.825656 
L 408.28567 376.96346 
L 410.111852 361.784986 
L 411.938034 341.898557 
L 413.764216 377.55561 
L 415.590398 358.945979 
L 417.41658 341.509202 
L 419.242761 348.210376 
L 421.068943 351.90819 
L 422.895125 363.618814 
L 424.721307 373.575599 
L 424.721307 373.575599 
" clip-path="url(#pa975a09af5)" style="fill: none; stroke: #a05a2c; stroke-width: 1.1; stroke-linecap: square"/>
   </g>
   <g id="patch_13">
    <path d="M 41.223125 415.008 
L 41.223125 310.650353 
" style="fill: none; stroke: #000000; stroke-width: 0.8; stroke-linejoin: miter; stroke-linecap: square"/>
   </g>
   <g id="patch_14">
    <path d="M 442.983125 415.008 
L 442.983125 310.650353 
" style="fill: none; stroke: #000000; stroke-width: 0.8; stroke-linejoin: miter; stroke-linecap: square"/>
   </g>
   <g id="patch_15">
    <path d="M 41.223125 415.008 
L 442.983125 415.008 
" style="fill: none; stroke: #000000; stroke-width: 0.8; stroke-linejoin: miter; stroke-linecap: square"/>
   </g>
   <g id="patch_16">
    <path d="M 41.223125 310.650353 
L 442.983125 310.650353 
" style="fill: none; stroke: #000000; stroke-width: 0.8; stroke-linejoin: miter; stroke-linecap: square"/>
   </g>
  </g>
  <g id="text_21">
   <!-- SGLT2 Mol_13144 rep2 PBC-corrected ligand metrics -->
   <g transform="translate(93.770188 15.406312) scale(0.108 -0.108)">
    <defs>
     <path id="DejaVuSans-47" d="M 3809 666 
L 3809 1919 
L 2778 1919 
L 2778 2438 
L 4434 2438 
L 4434 434 
Q 4069 175 3628 42 
Q 3188 -91 2688 -91 
Q 1594 -91 976 548 
Q 359 1188 359 2328 
Q 359 3472 976 4111 
Q 1594 4750 2688 4750 
Q 3144 4750 3555 4637 
Q 3966 4525 4313 4306 
L 4313 3634 
Q 3963 3931 3569 4081 
Q 3175 4231 2741 4231 
Q 1884 4231 1454 3753 
Q 1025 3275 1025 2328 
Q 1025 1384 1454 906 
Q 1884 428 2741 428 
Q 3075 428 3337 486 
Q 3600 544 3809 666 
z
" transform="scale(0.015625)"/>
     <path id="DejaVuSans-6c" d="M 603 4863 
L 1178 4863 
L 1178 0 
L 603 0 
L 603 4863 
z
" transform="scale(0.015625)"/>
     <path id="DejaVuSans-5f" d="M 3263 -1063 
L 3263 -1509 
L -63 -1509 
L -63 -1063 
L 3263 -1063 
z
" transform="scale(0.015625)"/>
     <path id="DejaVuSans-72" d="M 2631 2963 
Q 2534 3019 2420 3045 
Q 2306 3072 2169 3072 
Q 1681 3072 1420 2755 
Q 1159 2438 1159 1844 
L 1159 0 
L 581 0 
L 581 3500 
L 1159 3500 
L 1159 2956 
Q 1341 3275 1631 3429 
Q 1922 3584 2338 3584 
Q 2397 3584 2469 3576 
Q 2541 3569 2628 3553 
L 2631 2963 
z
" transform="scale(0.015625)"/>
     <path id="DejaVuSans-70" d="M 1159 525 
L 1159 -1331 
L 581 -1331 
L 581 3500 
L 1159 3500 
L 1159 2969 
Q 1341 3281 1617 3432 
Q 1894 3584 2278 3584 
Q 2916 3584 3314 3078 
Q 3713 2572 3713 1747 
Q 3713 922 3314 415 
Q 2916 -91 2278 -91 
Q 1894 -91 1617 61 
Q 1341 213 1159 525 
z
M 3116 1747 
Q 3116 2381 2855 2742 
Q 2594 3103 2138 3103 
Q 1681 3103 1420 2742 
Q 1159 2381 1159 1747 
Q 1159 1113 1420 752 
Q 1681 391 2138 391 
Q 2594 391 2855 752 
Q 3116 1113 3116 1747 
z
" transform="scale(0.015625)"/>
     <path id="DejaVuSans-42" d="M 1259 2228 
L 1259 519 
L 2272 519 
Q 2781 519 3026 730 
Q 3272 941 3272 1375 
Q 3272 1813 3026 2020 
Q 2781 2228 2272 2228 
L 1259 2228 
z
M 1259 4147 
L 1259 2741 
L 2194 2741 
Q 2656 2741 2882 2914 
Q 3109 3088 3109 3444 
Q 3109 3797 2882 3972 
Q 2656 4147 2194 4147 
L 1259 4147 
z
M 628 4666 
L 2241 4666 
Q 2963 4666 3353 4366 
Q 3744 4066 3744 3513 
Q 3744 3084 3544 2831 
Q 3344 2578 2956 2516 
Q 3422 2416 3680 2098 
Q 3938 1781 3938 1306 
Q 3938 681 3513 340 
Q 3088 0 2303 0 
L 628 0 
L 628 4666 
z
" transform="scale(0.015625)"/>
     <path id="DejaVuSans-43" d="M 4122 4306 
L 4122 3641 
Q 3803 3938 3442 4084 
Q 3081 4231 2675 4231 
Q 1875 4231 1450 3742 
Q 1025 3253 1025 2328 
Q 1025 1406 1450 917 
Q 1875 428 2675 428 
Q 3081 428 3442 575 
Q 3803 722 4122 1019 
L 4122 359 
Q 3791 134 3420 21 
Q 3050 -91 2638 -91 
Q 1578 -91 968 557 
Q 359 1206 359 2328 
Q 359 3453 968 4101 
Q 1578 4750 2638 4750 
Q 3056 4750 3426 4639 
Q 3797 4528 4122 4306 
z
" transform="scale(0.015625)"/>
     <path id="DejaVuSans-2d" d="M 313 2009 
L 1997 2009 
L 1997 1497 
L 313 1497 
L 313 2009 
z
" transform="scale(0.015625)"/>
    </defs>
    <use xlink:href="#DejaVuSans-53"/>
    <use xlink:href="#DejaVuSans-47" transform="translate(63.476562 0)"/>
    <use xlink:href="#DejaVuSans-4c" transform="translate(140.966797 0)"/>
    <use xlink:href="#DejaVuSans-54" transform="translate(182.929688 0)"/>
    <use xlink:href="#DejaVuSans-32" transform="translate(244.013672 0)"/>
    <use xlink:href="#DejaVuSans-20" transform="translate(307.636719 0)"/>
    <use xlink:href="#DejaVuSans-4d" transform="translate(339.423828 0)"/>
    <use xlink:href="#DejaVuSans-6f" transform="translate(425.703125 0)"/>
    <use xlink:href="#DejaVuSans-6c" transform="translate(486.884766 0)"/>
    <use xlink:href="#DejaVuSans-5f" transform="translate(514.667969 0)"/>
    <use xlink:href="#DejaVuSans-31" transform="translate(564.667969 0)"/>
    <use xlink:href="#DejaVuSans-33" transform="translate(628.291016 0)"/>
    <use xlink:href="#DejaVuSans-31" transform="translate(691.914062 0)"/>
    <use xlink:href="#DejaVuSans-34" transform="translate(755.537109 0)"/>
    <use xlink:href="#DejaVuSans-34" transform="translate(819.160156 0)"/>
    <use xlink:href="#DejaVuSans-20" transform="translate(882.783203 0)"/>
    <use xlink:href="#DejaVuSans-72" transform="translate(914.570312 0)"/>
    <use xlink:href="#DejaVuSans-65" transform="translate(953.433594 0)"/>
    <use xlink:href="#DejaVuSans-70" transform="translate(1014.957031 0)"/>
    <use xlink:href="#DejaVuSans-32" transform="translate(1078.433594 0)"/>
    <use xlink:href="#DejaVuSans-20" transform="translate(1142.056641 0)"/>
    <use xlink:href="#DejaVuSans-50" transform="translate(1173.84375 0)"/>
    <use xlink:href="#DejaVuSans-42" transform="translate(1234.146484 0)"/>
    <use xlink:href="#DejaVuSans-43" transform="translate(1301 0)"/>
    <use xlink:href="#DejaVuSans-2d" transform="translate(1370.824219 0)"/>
    <use xlink:href="#DejaVuSans-63" transform="translate(1406.908203 0)"/>
    <use xlink:href="#DejaVuSans-6f" transform="translate(1461.888672 0)"/>
    <use xlink:href="#DejaVuSans-72" transform="translate(1523.070312 0)"/>
    <use xlink:href="#DejaVuSans-72" transform="translate(1562.433594 0)"/>
    <use xlink:href="#DejaVuSans-65" transform="translate(1601.296875 0)"/>
    <use xlink:href="#DejaVuSans-63" transform="translate(1662.820312 0)"/>
    <use xlink:href="#DejaVuSans-74" transform="translate(1717.800781 0)"/>
    <use xlink:href="#DejaVuSans-65" transform="translate(1757.009766 0)"/>
    <use xlink:href="#DejaVuSans-64" transform="translate(1818.533203 0)"/>
    <use xlink:href="#DejaVuSans-20" transform="translate(1882.009766 0)"/>
    <use xlink:href="#DejaVuSans-6c" transform="translate(1913.796875 0)"/>
    <use xlink:href="#DejaVuSans-69" transform="translate(1941.580078 0)"/>
    <use xlink:href="#DejaVuSans-67" transform="translate(1969.363281 0)"/>
    <use xlink:href="#DejaVuSans-61" transform="translate(2032.839844 0)"/>
    <use xlink:href="#DejaVuSans-6e" transform="translate(2094.119141 0)"/>
    <use xlink:href="#DejaVuSans-64" transform="translate(2157.498047 0)"/>
    <use xlink:href="#DejaVuSans-20" transform="translate(2220.974609 0)"/>
    <use xlink:href="#DejaVuSans-6d" transform="translate(2252.761719 0)"/>
    <use xlink:href="#DejaVuSans-65" transform="translate(2350.173828 0)"/>
    <use xlink:href="#DejaVuSans-74" transform="translate(2411.697266 0)"/>
    <use xlink:href="#DejaVuSans-72" transform="translate(2450.90625 0)"/>
    <use xlink:href="#DejaVuSans-69" transform="translate(2492.019531 0)"/>
    <use xlink:href="#DejaVuSans-63" transform="translate(2519.802734 0)"/>
    <use xlink:href="#DejaVuSans-73" transform="translate(2574.783203 0)"/>
   </g>
  </g>
 </g>
 <defs>
  <clipPath id="p34638b8731">
   <rect x="41.223125" y="60.192" width="401.76" height="104.357647"/>
  </clipPath>
  <clipPath id="p6f5a63403c">
   <rect x="41.223125" y="185.421176" width="401.76" height="104.357647"/>
  </clipPath>
  <clipPath id="pa975a09af5">
   <rect x="41.223125" y="310.650353" width="401.76" height="104.357647"/>
  </clipPath>
 </defs>
</svg>
