<?xml version="1.0" encoding="utf-8" standalone="no"?>
<!DOCTYPE svg PUBLIC "-//W3C//DTD SVG 1.1//EN"
  "http://www.w3.org/Graphics/SVG/1.1/DTD/svg11.dtd">
<svg xmlns:xlink="http://www.w3.org/1999/xlink" width="450.183125pt" height="450.628625pt" viewBox="0 0 450.183125 450.628625" xmlns="http://www.w3.org/2000/svg" version="1.1">
 <metadata>
  <rdf:RDF xmlns:dc="http://purl.org/dc/elements/1.1/" xmlns:cc="http://creativecommons.org/ns#" xmlns:rdf="http://www.w3.org/1999/02/22-rdf-syntax-ns#">
   <cc:Work>
    <dc:type rdf:resource="http://purl.org/dc/dcmitype/StillImage"/>
    <dc:date>2026-05-25T08:13:39.573505</dc:date>
    <dc:format>image/svg+xml</dc:format>
    <dc:creator>
     <cc:Agent>
      <dc:title>Matplotlib v3.10.9, https://matplotlib.org/</dc:title>
     </cc:Agent>
    </dc:creator>
   </cc:Work>
  </rdf:RDF>
 </metadata>
 <defs>
  <style type="text/css">*{stroke-linejoin: round; stroke-linecap: butt}</style>
 </defs>
 <g id="figure_1">
  <g id="patch_1">
   <path d="M 0 450.628625 
L 450.183125 450.628625 
L 450.183125 0 
L 0 0 
z
" style="fill: #ffffff"/>
  </g>
  <g id="axes_1">
   <g id="patch_2">
    <path d="M 41.223125 164.549647 
L 442.983125 164.549647 
L 442.983125 60.192 
L 41.223125 60.192 
z
" style="fill: #ffffff"/>
   </g>
   <g id="matplotlib.axis_1">
    <g id="xtick_1">
     <g id="line2d_1">
      <path d="M 59.484943 164.549647 
L 59.484943 60.192 
" clip-path="url(#p617064c3b0)" style="fill: none; stroke: #b0b0b0; stroke-opacity: 0.25; stroke-width: 0.8; stroke-linecap: square"/>
     </g>
     <g id="line2d_2">
      <defs>
       <path id="ma0f498cadf" d="M 0 0 
L 0 3.5 
" style="stroke: #000000; stroke-width: 0.8"/>
      </defs>
      <g>
       <use xlink:href="#ma0f498cadf" x="59.484943" y="164.549647" style="stroke: #000000; stroke-width: 0.8"/>
      </g>
     </g>
    </g>
    <g id="xtick_2">
     <g id="line2d_3">
      <path d="M 132.899288 164.549647 
L 132.899288 60.192 
" clip-path="url(#p617064c3b0)" style="fill: none; stroke: #b0b0b0; stroke-opacity: 0.25; stroke-width: 0.8; stroke-linecap: square"/>
     </g>
     <g id="line2d_4">
      <g>
       <use xlink:href="#ma0f498cadf" x="132.899288" y="164.549647" style="stroke: #000000; stroke-width: 0.8"/>
      </g>
     </g>
    </g>
    <g id="xtick_3">
     <g id="line2d_5">
      <path d="M 206.313632 164.549647 
L 206.313632 60.192 
" clip-path="url(#p617064c3b0)" style="fill: none; stroke: #b0b0b0; stroke-opacity: 0.25; stroke-width: 0.8; stroke-linecap: square"/>
     </g>
     <g id="line2d_6">
      <g>
       <use xlink:href="#ma0f498cadf" x="206.313632" y="164.549647" style="stroke: #000000; stroke-width: 0.8"/>
      </g>
     </g>
    </g>
    <g id="xtick_4">
     <g id="line2d_7">
      <path d="M 279.727977 164.549647 
L 279.727977 60.192 
" clip-path="url(#p617064c3b0)" style="fill: none; stroke: #b0b0b0; stroke-opacity: 0.25; stroke-width: 0.8; stroke-linecap: square"/>
     </g>
     <g id="line2d_8">
      <g>
       <use xlink:href="#ma0f498cadf" x="279.727977" y="164.549647" style="stroke: #000000; stroke-width: 0.8"/>
      </g>
     </g>
    </g>
    <g id="xtick_5">
     <g id="line2d_9">
      <path d="M 353.142321 164.549647 
L 353.142321 60.192 
" clip-path="url(#p617064c3b0)" style="fill: none; stroke: #b0b0b0; stroke-opacity: 0.25; stroke-width: 0.8; stroke-linecap: square"/>
     </g>
     <g id="line2d_10">
      <g>
       <use xlink:href="#ma0f498cadf" x="353.142321" y="164.549647" style="stroke: #000000; stroke-width: 0.8"/>
      </g>
     </g>
    </g>
    <g id="xtick_6">
     <g id="line2d_11">
      <path d="M 426.556665 164.549647 
L 426.556665 60.192 
" clip-path="url(#p617064c3b0)" style="fill: none; stroke: #b0b0b0; stroke-opacity: 0.25; stroke-width: 0.8; stroke-linecap: square"/>
     </g>
     <g id="line2d_12">
      <g>
       <use xlink:href="#ma0f498cadf" x="426.556665" y="164.549647" style="stroke: #000000; stroke-width: 0.8"/>
      </g>
     </g>
    </g>
   </g>
   <g id="matplotlib.axis_2">
    <g id="ytick_1">
     <g id="line2d_13">
      <path d="M 41.223125 159.806118 
L 442.983125 159.806118 
" clip-path="url(#p617064c3b0)" style="fill: none; stroke: #b0b0b0; stroke-opacity: 0.25; stroke-width: 0.8; stroke-linecap: square"/>
     </g>
     <g id="line2d_14">
      <defs>
       <path id="m7e9d4a850f" d="M 0 0 
L -3.5 0 
" style="stroke: #000000; stroke-width: 0.8"/>
      </defs>
      <g>
       <use xlink:href="#m7e9d4a850f" x="41.223125" y="159.806118" style="stroke: #000000; stroke-width: 0.8"/>
      </g>
     </g>
     <g id="text_1">
      <!-- 0.0 -->
      <g transform="translate(19.910312 163.225415) scale(0.09 -0.09)">
       <defs>
        <path id="DejaVuSans-30" d="M 2034 4250 
Q 1547 4250 1301 3770 
Q 1056 3291 1056 2328 
Q 1056 1369 1301 889 
Q 1547 409 2034 409 
Q 2525 409 2770 889 
Q 3016 1369 3016 2328 
Q 3016 3291 2770 3770 
Q 2525 4250 2034 4250 
z
M 2034 4750 
Q 2819 4750 3233 4129 
Q 3647 3509 3647 2328 
Q 3647 1150 3233 529 
Q 2819 -91 2034 -91 
Q 1250 -91 836 529 
Q 422 1150 422 2328 
Q 422 3509 836 4129 
Q 1250 4750 2034 4750 
z
" transform="scale(0.015625)"/>
        <path id="DejaVuSans-2e" d="M 684 794 
L 1344 794 
L 1344 0 
L 684 0 
L 684 794 
z
" transform="scale(0.015625)"/>
       </defs>
       <use xlink:href="#DejaVuSans-30"/>
       <use xlink:href="#DejaVuSans-2e" transform="translate(63.623047 0)"/>
       <use xlink:href="#DejaVuSans-30" transform="translate(95.410156 0)"/>
      </g>
     </g>
    </g>
    <g id="ytick_2">
     <g id="line2d_15">
      <path d="M 41.223125 133.673133 
L 442.983125 133.673133 
" clip-path="url(#p617064c3b0)" style="fill: none; stroke: #b0b0b0; stroke-opacity: 0.25; stroke-width: 0.8; stroke-linecap: square"/>
     </g>
     <g id="line2d_16">
      <g>
       <use xlink:href="#m7e9d4a850f" x="41.223125" y="133.673133" style="stroke: #000000; stroke-width: 0.8"/>
      </g>
     </g>
     <g id="text_2">
      <!-- 0.5 -->
      <g transform="translate(19.910312 137.09243) scale(0.09 -0.09)">
       <defs>
        <path id="DejaVuSans-35" d="M 691 4666 
L 3169 4666 
L 3169 4134 
L 1269 4134 
L 1269 2991 
Q 1406 3038 1543 3061 
Q 1681 3084 1819 3084 
Q 2600 3084 3056 2656 
Q 3513 2228 3513 1497 
Q 3513 744 3044 326 
Q 2575 -91 1722 -91 
Q 1428 -91 1123 -41 
Q 819 9 494 109 
L 494 744 
Q 775 591 1075 516 
Q 1375 441 1709 441 
Q 2250 441 2565 725 
Q 2881 1009 2881 1497 
Q 2881 1984 2565 2268 
Q 2250 2553 1709 2553 
Q 1456 2553 1204 2497 
Q 953 2441 691 2322 
L 691 4666 
z
" transform="scale(0.015625)"/>
       </defs>
       <use xlink:href="#DejaVuSans-30"/>
       <use xlink:href="#DejaVuSans-2e" transform="translate(63.623047 0)"/>
       <use xlink:href="#DejaVuSans-35" transform="translate(95.410156 0)"/>
      </g>
     </g>
    </g>
    <g id="ytick_3">
     <g id="line2d_17">
      <path d="M 41.223125 107.540149 
L 442.983125 107.540149 
" clip-path="url(#p617064c3b0)" style="fill: none; stroke: #b0b0b0; stroke-opacity: 0.25; stroke-width: 0.8; stroke-linecap: square"/>
     </g>
     <g id="line2d_18">
      <g>
       <use xlink:href="#m7e9d4a850f" x="41.223125" y="107.540149" style="stroke: #000000; stroke-width: 0.8"/>
      </g>
     </g>
     <g id="text_3">
      <!-- 1.0 -->
      <g transform="translate(19.910312 110.959446) scale(0.09 -0.09)">
       <defs>
        <path id="DejaVuSans-31" d="M 794 531 
L 1825 531 
L 1825 4091 
L 703 3866 
L 703 4441 
L 1819 4666 
L 2450 4666 
L 2450 531 
L 3481 531 
L 3481 0 
L 794 0 
L 794 531 
z
" transform="scale(0.015625)"/>
       </defs>
       <use xlink:href="#DejaVuSans-31"/>
       <use xlink:href="#DejaVuSans-2e" transform="translate(63.623047 0)"/>
       <use xlink:href="#DejaVuSans-30" transform="translate(95.410156 0)"/>
      </g>
     </g>
    </g>
    <g id="ytick_4">
     <g id="line2d_19">
      <path d="M 41.223125 81.407165 
L 442.983125 81.407165 
" clip-path="url(#p617064c3b0)" style="fill: none; stroke: #b0b0b0; stroke-opacity: 0.25; stroke-width: 0.8; stroke-linecap: square"/>
     </g>
     <g id="line2d_20">
      <g>
       <use xlink:href="#m7e9d4a850f" x="41.223125" y="81.407165" style="stroke: #000000; stroke-width: 0.8"/>
      </g>
     </g>
     <g id="text_4">
      <!-- 1.5 -->
      <g transform="translate(19.910312 84.826462) scale(0.09 -0.09)">
       <use xlink:href="#DejaVuSans-31"/>
       <use xlink:href="#DejaVuSans-2e" transform="translate(63.623047 0)"/>
       <use xlink:href="#DejaVuSans-35" transform="translate(95.410156 0)"/>
      </g>
     </g>
    </g>
    <g id="text_5">
     <!-- Pose RMSD (A) -->
     <g transform="translate(14.038594 145.56887) rotate(-90) scale(0.09 -0.09)">
      <defs>
       <path id="DejaVuSans-50" d="M 1259 4147 
L 1259 2394 
L 2053 2394 
Q 2494 2394 2734 2622 
Q 2975 2850 2975 3272 
Q 2975 3691 2734 3919 
Q 2494 4147 2053 4147 
L 1259 4147 
z
M 628 4666 
L 2053 4666 
Q 2838 4666 3239 4311 
Q 3641 3956 3641 3272 
Q 3641 2581 3239 2228 
Q 2838 1875 2053 1875 
L 1259 1875 
L 1259 0 
L 628 0 
L 628 4666 
z
" transform="scale(0.015625)"/>
       <path id="DejaVuSans-6f" d="M 1959 3097 
Q 1497 3097 1228 2736 
Q 959 2375 959 1747 
Q 959 1119 1226 758 
Q 1494 397 1959 397 
Q 2419 397 2687 759 
Q 2956 1122 2956 1747 
Q 2956 2369 2687 2733 
Q 2419 3097 1959 3097 
z
M 1959 3584 
Q 2709 3584 3137 3096 
Q 3566 2609 3566 1747 
Q 3566 888 3137 398 
Q 2709 -91 1959 -91 
Q 1206 -91 779 398 
Q 353 888 353 1747 
Q 353 2609 779 3096 
Q 1206 3584 1959 3584 
z
" transform="scale(0.015625)"/>
       <path id="DejaVuSans-73" d="M 2834 3397 
L 2834 2853 
Q 2591 2978 2328 3040 
Q 2066 3103 1784 3103 
Q 1356 3103 1142 2972 
Q 928 2841 928 2578 
Q 928 2378 1081 2264 
Q 1234 2150 1697 2047 
L 1894 2003 
Q 2506 1872 2764 1633 
Q 3022 1394 3022 966 
Q 3022 478 2636 193 
Q 2250 -91 1575 -91 
Q 1294 -91 989 -36 
Q 684 19 347 128 
L 347 722 
Q 666 556 975 473 
Q 1284 391 1588 391 
Q 1994 391 2212 530 
Q 2431 669 2431 922 
Q 2431 1156 2273 1281 
Q 2116 1406 1581 1522 
L 1381 1569 
Q 847 1681 609 1914 
Q 372 2147 372 2553 
Q 372 3047 722 3315 
Q 1072 3584 1716 3584 
Q 2034 3584 2315 3537 
Q 2597 3491 2834 3397 
z
" transform="scale(0.015625)"/>
       <path id="DejaVuSans-65" d="M 3597 1894 
L 3597 1613 
L 953 1613 
Q 991 1019 1311 708 
Q 1631 397 2203 397 
Q 2534 397 2845 478 
Q 3156 559 3463 722 
L 3463 178 
Q 3153 47 2828 -22 
Q 2503 -91 2169 -91 
Q 1331 -91 842 396 
Q 353 884 353 1716 
Q 353 2575 817 3079 
Q 1281 3584 2069 3584 
Q 2775 3584 3186 3129 
Q 3597 2675 3597 1894 
z
M 3022 2063 
Q 3016 2534 2758 2815 
Q 2500 3097 2075 3097 
Q 1594 3097 1305 2825 
Q 1016 2553 972 2059 
L 3022 2063 
z
" transform="scale(0.015625)"/>
       <path id="DejaVuSans-20" transform="scale(0.015625)"/>
       <path id="DejaVuSans-52" d="M 2841 2188 
Q 3044 2119 3236 1894 
Q 3428 1669 3622 1275 
L 4263 0 
L 3584 0 
L 2988 1197 
Q 2756 1666 2539 1819 
Q 2322 1972 1947 1972 
L 1259 1972 
L 1259 0 
L 628 0 
L 628 4666 
L 2053 4666 
Q 2853 4666 3247 4331 
Q 3641 3997 3641 3322 
Q 3641 2881 3436 2590 
Q 3231 2300 2841 2188 
z
M 1259 4147 
L 1259 2491 
L 2053 2491 
Q 2509 2491 2742 2702 
Q 2975 2913 2975 3322 
Q 2975 3731 2742 3939 
Q 2509 4147 2053 4147 
L 1259 4147 
z
" transform="scale(0.015625)"/>
       <path id="DejaVuSans-4d" d="M 628 4666 
L 1569 4666 
L 2759 1491 
L 3956 4666 
L 4897 4666 
L 4897 0 
L 4281 0 
L 4281 4097 
L 3078 897 
L 2444 897 
L 1241 4097 
L 1241 0 
L 628 0 
L 628 4666 
z
" transform="scale(0.015625)"/>
       <path id="DejaVuSans-53" d="M 3425 4513 
L 3425 3897 
Q 3066 4069 2747 4153 
Q 2428 4238 2131 4238 
Q 1616 4238 1336 4038 
Q 1056 3838 1056 3469 
Q 1056 3159 1242 3001 
Q 1428 2844 1947 2747 
L 2328 2669 
Q 3034 2534 3370 2195 
Q 3706 1856 3706 1288 
Q 3706 609 3251 259 
Q 2797 -91 1919 -91 
Q 1588 -91 1214 -16 
Q 841 59 441 206 
L 441 856 
Q 825 641 1194 531 
Q 1563 422 1919 422 
Q 2459 422 2753 634 
Q 3047 847 3047 1241 
Q 3047 1584 2836 1778 
Q 2625 1972 2144 2069 
L 1759 2144 
Q 1053 2284 737 2584 
Q 422 2884 422 3419 
Q 422 4038 858 4394 
Q 1294 4750 2059 4750 
Q 2388 4750 2728 4690 
Q 3069 4631 3425 4513 
z
" transform="scale(0.015625)"/>
       <path id="DejaVuSans-44" d="M 1259 4147 
L 1259 519 
L 2022 519 
Q 2988 519 3436 956 
Q 3884 1394 3884 2338 
Q 3884 3275 3436 3711 
Q 2988 4147 2022 4147 
L 1259 4147 
z
M 628 4666 
L 1925 4666 
Q 3281 4666 3915 4102 
Q 4550 3538 4550 2338 
Q 4550 1131 3912 565 
Q 3275 0 1925 0 
L 628 0 
L 628 4666 
z
" transform="scale(0.015625)"/>
       <path id="DejaVuSans-28" d="M 1984 4856 
Q 1566 4138 1362 3434 
Q 1159 2731 1159 2009 
Q 1159 1288 1364 580 
Q 1569 -128 1984 -844 
L 1484 -844 
Q 1016 -109 783 600 
Q 550 1309 550 2009 
Q 550 2706 781 3412 
Q 1013 4119 1484 4856 
L 1984 4856 
z
" transform="scale(0.015625)"/>
       <path id="DejaVuSans-41" d="M 2188 4044 
L 1331 1722 
L 3047 1722 
L 2188 4044 
z
M 1831 4666 
L 2547 4666 
L 4325 0 
L 3669 0 
L 3244 1197 
L 1141 1197 
L 716 0 
L 50 0 
L 1831 4666 
z
" transform="scale(0.015625)"/>
       <path id="DejaVuSans-29" d="M 513 4856 
L 1013 4856 
Q 1481 4119 1714 3412 
Q 1947 2706 1947 2009 
Q 1947 1309 1714 600 
Q 1481 -109 1013 -844 
L 513 -844 
Q 928 -128 1133 580 
Q 1338 1288 1338 2009 
Q 1338 2731 1133 3434 
Q 928 4138 513 4856 
z
" transform="scale(0.015625)"/>
      </defs>
      <use xlink:href="#DejaVuSans-50"/>
      <use xlink:href="#DejaVuSans-6f" transform="translate(56.677734 0)"/>
      <use xlink:href="#DejaVuSans-73" transform="translate(117.859375 0)"/>
      <use xlink:href="#DejaVuSans-65" transform="translate(169.958984 0)"/>
      <use xlink:href="#DejaVuSans-20" transform="translate(231.482422 0)"/>
      <use xlink:href="#DejaVuSans-52" transform="translate(263.269531 0)"/>
      <use xlink:href="#DejaVuSans-4d" transform="translate(332.751953 0)"/>
      <use xlink:href="#DejaVuSans-53" transform="translate(419.03125 0)"/>
      <use xlink:href="#DejaVuSans-44" transform="translate(482.507812 0)"/>
      <use xlink:href="#DejaVuSans-20" transform="translate(559.509766 0)"/>
      <use xlink:href="#DejaVuSans-28" transform="translate(591.296875 0)"/>
      <use xlink:href="#DejaVuSans-41" transform="translate(630.310547 0)"/>
      <use xlink:href="#DejaVuSans-29" transform="translate(698.71875 0)"/>
     </g>
    </g>
   </g>
   <g id="line2d_21">
    <path d="M 59.484943 159.806118 
L 61.320302 110.213713 
L 63.15566 115.928335 
L 64.991019 107.644434 
L 66.826378 124.665029 
L 68.661736 125.609848 
L 70.497095 117.8362 
L 72.332453 119.121838 
L 74.167812 131.893235 
L 76.003171 132.617148 
L 77.838529 113.216437 
L 79.673888 106.217041 
L 81.509247 91.858059 
L 83.344605 105.497574 
L 85.179964 114.422469 
L 87.015322 113.015752 
L 88.850681 108.80278 
L 90.68604 102.57691 
L 92.521398 108.905122 
L 94.356757 100.209027 
L 96.192115 108.538187 
L 98.027474 110.076658 
L 99.862833 97.258168 
L 101.698191 100.39916 
L 103.53355 108.365565 
L 105.368908 115.269638 
L 107.204267 109.698459 
L 109.039626 103.303355 
L 110.874984 108.842719 
L 112.710343 80.497267 
L 114.545702 93.029679 
L 116.38106 83.842221 
L 118.216419 92.363262 
L 120.051777 83.420722 
L 121.887136 105.416588 
L 123.722495 97.039592 
L 125.557853 103.067834 
L 127.393212 106.067096 
L 129.22857 97.245635 
L 131.063929 85.015571 
L 132.899288 86.88282 
L 134.734646 75.243377 
L 136.570005 91.643235 
L 138.405363 86.31645 
L 140.240722 95.081552 
L 143.911439 84.547676 
L 147.582157 105.928742 
L 149.417515 94.57556 
L 151.252874 96.490732 
L 153.088232 67.692256 
L 154.923591 83.415495 
L 156.75895 81.858283 
L 158.594308 69.218344 
L 160.429667 88.946238 
L 162.265025 68.769364 
L 164.100384 79.804737 
L 165.935743 84.431974 
L 167.771101 75.229401 
L 169.60646 94.495217 
L 171.441818 88.212053 
L 173.277177 89.357713 
L 175.112536 99.429166 
L 176.947894 82.899149 
L 178.783253 100.76407 
L 180.618612 96.130797 
L 182.45397 94.527188 
L 184.289329 85.791736 
L 186.124687 95.681795 
L 187.960046 93.274404 
L 189.795405 91.609294 
L 191.630763 85.777718 
L 193.466122 103.203009 
L 195.30148 66.285612 
L 197.136839 90.742829 
L 198.972198 64.935529 
L 200.807556 87.635528 
L 202.642915 100.946562 
L 204.478273 99.483643 
L 206.313632 67.163852 
L 208.148991 90.799511 
L 209.984349 94.787462 
L 211.819708 102.74816 
L 213.655067 94.426691 
L 215.490425 94.109389 
L 217.325784 96.762614 
L 219.161142 95.678659 
L 220.996501 112.860422 
L 222.83186 102.454874 
L 224.667218 108.894705 
L 226.502577 98.699936 
L 228.337935 110.673719 
L 230.173294 97.464211 
L 232.008653 110.408488 
L 233.844011 95.33926 
L 235.67937 103.983847 
L 237.514728 93.458208 
L 239.350087 87.404418 
L 241.185446 97.406834 
L 243.020804 103.913523 
L 244.856163 102.693646 
L 246.691522 101.839453 
L 248.52688 94.767742 
L 250.362239 97.200284 
L 252.197597 97.00195 
L 254.032956 103.323373 
L 255.868315 110.913531 
L 257.703673 114.975519 
L 259.539032 108.738485 
L 261.37439 106.705838 
L 263.209749 121.888793 
L 265.045108 103.694942 
L 266.880466 106.410326 
L 268.715825 104.883522 
L 270.551183 91.893203 
L 272.386542 109.217469 
L 274.221901 88.416429 
L 276.057259 97.811283 
L 277.892618 95.134194 
L 279.727977 94.658919 
L 281.563335 88.047546 
L 283.398694 103.347588 
L 285.234052 108.699708 
L 287.069411 90.148967 
L 288.90477 112.361195 
L 290.740128 101.453087 
L 292.575487 109.910131 
L 294.410845 110.861333 
L 296.246204 99.391765 
L 298.081563 107.192884 
L 299.916921 102.076171 
L 301.75228 103.11179 
L 303.587638 92.678875 
L 305.422997 107.156757 
L 307.258356 108.655003 
L 309.093714 107.052926 
L 310.929073 107.355635 
L 312.764432 99.297628 
L 314.59979 108.400482 
L 316.435149 113.938516 
L 318.270507 118.382066 
L 320.105866 102.529866 
L 321.941225 92.527983 
L 323.776583 102.673618 
L 325.611942 102.56283 
L 327.4473 91.441452 
L 329.282659 94.67244 
L 331.118018 96.98211 
L 332.953376 92.213123 
L 334.788735 95.788711 
L 336.624093 94.312997 
L 338.459452 102.310479 
L 340.294811 97.816709 
L 342.130169 104.29 
L 343.965528 89.696757 
L 345.800887 102.653731 
L 347.636245 111.738831 
L 349.471604 94.257496 
L 351.306962 104.826302 
L 353.142321 100.106235 
L 354.97768 110.315958 
L 356.813038 98.032698 
L 358.648397 107.321913 
L 360.483755 102.262023 
L 362.319114 101.986524 
L 364.154473 102.227052 
L 365.989831 86.391682 
L 367.82519 103.076155 
L 369.660548 101.846723 
L 371.495907 103.495275 
L 373.331266 98.939225 
L 375.166624 96.224149 
L 377.001983 102.455617 
L 378.837342 102.760782 
L 380.6727 109.354736 
L 382.508059 98.949871 
L 384.343417 106.396162 
L 386.178776 94.63865 
L 388.014135 90.336581 
L 389.849493 93.032967 
L 391.684852 89.791097 
L 393.52021 86.816076 
L 395.355569 93.386164 
L 397.190928 104.320383 
L 399.026286 99.655378 
L 400.861645 89.416386 
L 402.697003 86.951774 
L 404.532362 83.991811 
L 406.367721 74.408146 
L 408.203079 92.486228 
L 410.038438 84.67995 
L 411.873797 74.032327 
L 413.709155 91.016796 
L 415.544514 89.588326 
L 417.379872 86.606892 
L 419.215231 97.867726 
L 421.05059 76.731122 
L 422.885948 75.399532 
L 424.721307 87.465235 
L 424.721307 87.465235 
" clip-path="url(#p617064c3b0)" style="fill: none; stroke: #6a4c93; stroke-width: 1.1; stroke-linecap: square"/>
   </g>
   <g id="patch_3">
    <path d="M 41.223125 164.549647 
L 41.223125 60.192 
" style="fill: none; stroke: #000000; stroke-width: 0.8; stroke-linejoin: miter; stroke-linecap: square"/>
   </g>
   <g id="patch_4">
    <path d="M 442.983125 164.549647 
L 442.983125 60.192 
" style="fill: none; stroke: #000000; stroke-width: 0.8; stroke-linejoin: miter; stroke-linecap: square"/>
   </g>
   <g id="patch_5">
    <path d="M 41.223125 164.549647 
L 442.983125 164.549647 
" style="fill: none; stroke: #000000; stroke-width: 0.8; stroke-linejoin: miter; stroke-linecap: square"/>
   </g>
   <g id="patch_6">
    <path d="M 41.223125 60.192 
L 442.983125 60.192 
" style="fill: none; stroke: #000000; stroke-width: 0.8; stroke-linejoin: miter; stroke-linecap: square"/>
   </g>
  </g>
  <g id="axes_2">
   <g id="patch_7">
    <path d="M 41.223125 289.778824 
L 442.983125 289.778824 
L 442.983125 185.421176 
L 41.223125 185.421176 
z
" style="fill: #ffffff"/>
   </g>
   <g id="matplotlib.axis_3">
    <g id="xtick_7">
     <g id="line2d_22">
      <path d="M 59.484943 289.778824 
L 59.484943 185.421176 
" clip-path="url(#p2470aa24d8)" style="fill: none; stroke: #b0b0b0; stroke-opacity: 0.25; stroke-width: 0.8; stroke-linecap: square"/>
     </g>
     <g id="line2d_23">
      <g>
       <use xlink:href="#ma0f498cadf" x="59.484943" y="289.778824" style="stroke: #000000; stroke-width: 0.8"/>
      </g>
     </g>
    </g>
    <g id="xtick_8">
     <g id="line2d_24">
      <path d="M 132.899288 289.778824 
L 132.899288 185.421176 
" clip-path="url(#p2470aa24d8)" style="fill: none; stroke: #b0b0b0; stroke-opacity: 0.25; stroke-width: 0.8; stroke-linecap: square"/>
     </g>
     <g id="line2d_25">
      <g>
       <use xlink:href="#ma0f498cadf" x="132.899288" y="289.778824" style="stroke: #000000; stroke-width: 0.8"/>
      </g>
     </g>
    </g>
    <g id="xtick_9">
     <g id="line2d_26">
      <path d="M 206.313632 289.778824 
L 206.313632 185.421176 
" clip-path="url(#p2470aa24d8)" style="fill: none; stroke: #b0b0b0; stroke-opacity: 0.25; stroke-width: 0.8; stroke-linecap: square"/>
     </g>
     <g id="line2d_27">
      <g>
       <use xlink:href="#ma0f498cadf" x="206.313632" y="289.778824" style="stroke: #000000; stroke-width: 0.8"/>
      </g>
     </g>
    </g>
    <g id="xtick_10">
     <g id="line2d_28">
      <path d="M 279.727977 289.778824 
L 279.727977 185.421176 
" clip-path="url(#p2470aa24d8)" style="fill: none; stroke: #b0b0b0; stroke-opacity: 0.25; stroke-width: 0.8; stroke-linecap: square"/>
     </g>
     <g id="line2d_29">
      <g>
       <use xlink:href="#ma0f498cadf" x="279.727977" y="289.778824" style="stroke: #000000; stroke-width: 0.8"/>
      </g>
     </g>
    </g>
    <g id="xtick_11">
     <g id="line2d_30">
      <path d="M 353.142321 289.778824 
L 353.142321 185.421176 
" clip-path="url(#p2470aa24d8)" style="fill: none; stroke: #b0b0b0; stroke-opacity: 0.25; stroke-width: 0.8; stroke-linecap: square"/>
     </g>
     <g id="line2d_31">
      <g>
       <use xlink:href="#ma0f498cadf" x="353.142321" y="289.778824" style="stroke: #000000; stroke-width: 0.8"/>
      </g>
     </g>
    </g>
    <g id="xtick_12">
     <g id="line2d_32">
      <path d="M 426.556665 289.778824 
L 426.556665 185.421176 
" clip-path="url(#p2470aa24d8)" style="fill: none; stroke: #b0b0b0; stroke-opacity: 0.25; stroke-width: 0.8; stroke-linecap: square"/>
     </g>
     <g id="line2d_33">
      <g>
       <use xlink:href="#ma0f498cadf" x="426.556665" y="289.778824" style="stroke: #000000; stroke-width: 0.8"/>
      </g>
     </g>
    </g>
   </g>
   <g id="matplotlib.axis_4">
    <g id="ytick_5">
     <g id="line2d_34">
      <path d="M 41.223125 276.410695 
L 442.983125 276.410695 
" clip-path="url(#p2470aa24d8)" style="fill: none; stroke: #b0b0b0; stroke-opacity: 0.25; stroke-width: 0.8; stroke-linecap: square"/>
     </g>
     <g id="line2d_35">
      <g>
       <use xlink:href="#m7e9d4a850f" x="41.223125" y="276.410695" style="stroke: #000000; stroke-width: 0.8"/>
      </g>
     </g>
     <g id="text_6">
      <!-- 40 -->
      <g transform="translate(22.770625 279.829992) scale(0.09 -0.09)">
       <defs>
        <path id="DejaVuSans-34" d="M 2419 4116 
L 825 1625 
L 2419 1625 
L 2419 4116 
z
M 2253 4666 
L 3047 4666 
L 3047 1625 
L 3713 1625 
L 3713 1100 
L 3047 1100 
L 3047 0 
L 2419 0 
L 2419 1100 
L 313 1100 
L 313 1709 
L 2253 4666 
z
" transform="scale(0.015625)"/>
       </defs>
       <use xlink:href="#DejaVuSans-34"/>
       <use xlink:href="#DejaVuSans-30" transform="translate(63.623047 0)"/>
      </g>
     </g>
    </g>
    <g id="ytick_6">
     <g id="line2d_36">
      <path d="M 41.223125 254.849198 
L 442.983125 254.849198 
" clip-path="url(#p2470aa24d8)" style="fill: none; stroke: #b0b0b0; stroke-opacity: 0.25; stroke-width: 0.8; stroke-linecap: square"/>
     </g>
     <g id="line2d_37">
      <g>
       <use xlink:href="#m7e9d4a850f" x="41.223125" y="254.849198" style="stroke: #000000; stroke-width: 0.8"/>
      </g>
     </g>
     <g id="text_7">
      <!-- 45 -->
      <g transform="translate(22.770625 258.268495) scale(0.09 -0.09)">
       <use xlink:href="#DejaVuSans-34"/>
       <use xlink:href="#DejaVuSans-35" transform="translate(63.623047 0)"/>
      </g>
     </g>
    </g>
    <g id="ytick_7">
     <g id="line2d_38">
      <path d="M 41.223125 233.287701 
L 442.983125 233.287701 
" clip-path="url(#p2470aa24d8)" style="fill: none; stroke: #b0b0b0; stroke-opacity: 0.25; stroke-width: 0.8; stroke-linecap: square"/>
     </g>
     <g id="line2d_39">
      <g>
       <use xlink:href="#m7e9d4a850f" x="41.223125" y="233.287701" style="stroke: #000000; stroke-width: 0.8"/>
      </g>
     </g>
     <g id="text_8">
      <!-- 50 -->
      <g transform="translate(22.770625 236.706997) scale(0.09 -0.09)">
       <use xlink:href="#DejaVuSans-35"/>
       <use xlink:href="#DejaVuSans-30" transform="translate(63.623047 0)"/>
      </g>
     </g>
    </g>
    <g id="ytick_8">
     <g id="line2d_40">
      <path d="M 41.223125 211.726203 
L 442.983125 211.726203 
" clip-path="url(#p2470aa24d8)" style="fill: none; stroke: #b0b0b0; stroke-opacity: 0.25; stroke-width: 0.8; stroke-linecap: square"/>
     </g>
     <g id="line2d_41">
      <g>
       <use xlink:href="#m7e9d4a850f" x="41.223125" y="211.726203" style="stroke: #000000; stroke-width: 0.8"/>
      </g>
     </g>
     <g id="text_9">
      <!-- 55 -->
      <g transform="translate(22.770625 215.1455) scale(0.09 -0.09)">
       <use xlink:href="#DejaVuSans-35"/>
       <use xlink:href="#DejaVuSans-35" transform="translate(63.623047 0)"/>
      </g>
     </g>
    </g>
    <g id="ytick_9">
     <g id="line2d_42">
      <path d="M 41.223125 190.164706 
L 442.983125 190.164706 
" clip-path="url(#p2470aa24d8)" style="fill: none; stroke: #b0b0b0; stroke-opacity: 0.25; stroke-width: 0.8; stroke-linecap: square"/>
     </g>
     <g id="line2d_43">
      <g>
       <use xlink:href="#m7e9d4a850f" x="41.223125" y="190.164706" style="stroke: #000000; stroke-width: 0.8"/>
      </g>
     </g>
     <g id="text_10">
      <!-- 60 -->
      <g transform="translate(22.770625 193.584003) scale(0.09 -0.09)">
       <defs>
        <path id="DejaVuSans-36" d="M 2113 2584 
Q 1688 2584 1439 2293 
Q 1191 2003 1191 1497 
Q 1191 994 1439 701 
Q 1688 409 2113 409 
Q 2538 409 2786 701 
Q 3034 994 3034 1497 
Q 3034 2003 2786 2293 
Q 2538 2584 2113 2584 
z
M 3366 4563 
L 3366 3988 
Q 3128 4100 2886 4159 
Q 2644 4219 2406 4219 
Q 1781 4219 1451 3797 
Q 1122 3375 1075 2522 
Q 1259 2794 1537 2939 
Q 1816 3084 2150 3084 
Q 2853 3084 3261 2657 
Q 3669 2231 3669 1497 
Q 3669 778 3244 343 
Q 2819 -91 2113 -91 
Q 1303 -91 875 529 
Q 447 1150 447 2328 
Q 447 3434 972 4092 
Q 1497 4750 2381 4750 
Q 2619 4750 2861 4703 
Q 3103 4656 3366 4563 
z
" transform="scale(0.015625)"/>
       </defs>
       <use xlink:href="#DejaVuSans-36"/>
       <use xlink:href="#DejaVuSans-30" transform="translate(63.623047 0)"/>
      </g>
     </g>
    </g>
    <g id="text_11">
     <!-- 4 A contacts -->
     <g transform="translate(16.898906 265.585781) rotate(-90) scale(0.09 -0.09)">
      <defs>
       <path id="DejaVuSans-63" d="M 3122 3366 
L 3122 2828 
Q 2878 2963 2633 3030 
Q 2388 3097 2138 3097 
Q 1578 3097 1268 2742 
Q 959 2388 959 1747 
Q 959 1106 1268 751 
Q 1578 397 2138 397 
Q 2388 397 2633 464 
Q 2878 531 3122 666 
L 3122 134 
Q 2881 22 2623 -34 
Q 2366 -91 2075 -91 
Q 1284 -91 818 406 
Q 353 903 353 1747 
Q 353 2603 823 3093 
Q 1294 3584 2113 3584 
Q 2378 3584 2631 3529 
Q 2884 3475 3122 3366 
z
" transform="scale(0.015625)"/>
       <path id="DejaVuSans-6e" d="M 3513 2113 
L 3513 0 
L 2938 0 
L 2938 2094 
Q 2938 2591 2744 2837 
Q 2550 3084 2163 3084 
Q 1697 3084 1428 2787 
Q 1159 2491 1159 1978 
L 1159 0 
L 581 0 
L 581 3500 
L 1159 3500 
L 1159 2956 
Q 1366 3272 1645 3428 
Q 1925 3584 2291 3584 
Q 2894 3584 3203 3211 
Q 3513 2838 3513 2113 
z
" transform="scale(0.015625)"/>
       <path id="DejaVuSans-74" d="M 1172 4494 
L 1172 3500 
L 2356 3500 
L 2356 3053 
L 1172 3053 
L 1172 1153 
Q 1172 725 1289 603 
Q 1406 481 1766 481 
L 2356 481 
L 2356 0 
L 1766 0 
Q 1100 0 847 248 
Q 594 497 594 1153 
L 594 3053 
L 172 3053 
L 172 3500 
L 594 3500 
L 594 4494 
L 1172 4494 
z
" transform="scale(0.015625)"/>
       <path id="DejaVuSans-61" d="M 2194 1759 
Q 1497 1759 1228 1600 
Q 959 1441 959 1056 
Q 959 750 1161 570 
Q 1363 391 1709 391 
Q 2188 391 2477 730 
Q 2766 1069 2766 1631 
L 2766 1759 
L 2194 1759 
z
M 3341 1997 
L 3341 0 
L 2766 0 
L 2766 531 
Q 2569 213 2275 61 
Q 1981 -91 1556 -91 
Q 1019 -91 701 211 
Q 384 513 384 1019 
Q 384 1609 779 1909 
Q 1175 2209 1959 2209 
L 2766 2209 
L 2766 2266 
Q 2766 2663 2505 2880 
Q 2244 3097 1772 3097 
Q 1472 3097 1187 3025 
Q 903 2953 641 2809 
L 641 3341 
Q 956 3463 1253 3523 
Q 1550 3584 1831 3584 
Q 2591 3584 2966 3190 
Q 3341 2797 3341 1997 
z
" transform="scale(0.015625)"/>
      </defs>
      <use xlink:href="#DejaVuSans-34"/>
      <use xlink:href="#DejaVuSans-20" transform="translate(63.623047 0)"/>
      <use xlink:href="#DejaVuSans-41" transform="translate(95.410156 0)"/>
      <use xlink:href="#DejaVuSans-20" transform="translate(163.818359 0)"/>
      <use xlink:href="#DejaVuSans-63" transform="translate(195.605469 0)"/>
      <use xlink:href="#DejaVuSans-6f" transform="translate(250.585938 0)"/>
      <use xlink:href="#DejaVuSans-6e" transform="translate(311.767578 0)"/>
      <use xlink:href="#DejaVuSans-74" transform="translate(375.146484 0)"/>
      <use xlink:href="#DejaVuSans-61" transform="translate(414.355469 0)"/>
      <use xlink:href="#DejaVuSans-63" transform="translate(475.634766 0)"/>
      <use xlink:href="#DejaVuSans-74" transform="translate(530.615234 0)"/>
      <use xlink:href="#DejaVuSans-73" transform="translate(569.824219 0)"/>
     </g>
    </g>
   </g>
   <g id="line2d_44">
    <path d="M 59.484943 250.536898 
L 61.320302 233.287701 
L 63.15566 190.164706 
L 64.991019 190.164706 
L 66.826378 241.912299 
L 68.661736 228.975401 
L 70.497095 220.350802 
L 72.332453 259.161497 
L 74.167812 237.6 
L 76.003171 259.161497 
L 77.838529 241.912299 
L 79.673888 207.413904 
L 81.509247 246.224599 
L 83.344605 233.287701 
L 85.179964 216.038503 
L 87.015322 246.224599 
L 88.850681 241.912299 
L 90.68604 220.350802 
L 92.521398 246.224599 
L 94.356757 194.477005 
L 96.192115 233.287701 
L 98.027474 224.663102 
L 99.862833 254.849198 
L 101.698191 216.038503 
L 103.53355 211.726203 
L 105.368908 203.101604 
L 107.204267 211.726203 
L 109.039626 250.536898 
L 110.874984 254.849198 
L 112.710343 246.224599 
L 114.545702 263.473797 
L 116.38106 216.038503 
L 118.216419 246.224599 
L 120.051777 250.536898 
L 121.887136 272.098396 
L 123.722495 241.912299 
L 125.557853 259.161497 
L 127.393212 237.6 
L 129.22857 250.536898 
L 131.063929 233.287701 
L 132.899288 241.912299 
L 134.734646 233.287701 
L 136.570005 220.350802 
L 138.405363 237.6 
L 142.076081 228.975401 
L 143.911439 228.975401 
L 147.582157 237.6 
L 149.417515 246.224599 
L 151.252874 228.975401 
L 153.088232 259.161497 
L 154.923591 250.536898 
L 156.75895 285.035294 
L 158.594308 254.849198 
L 160.429667 241.912299 
L 162.265025 276.410695 
L 164.100384 272.098396 
L 165.935743 233.287701 
L 167.771101 254.849198 
L 169.60646 216.038503 
L 171.441818 250.536898 
L 173.277177 233.287701 
L 175.112536 254.849198 
L 176.947894 220.350802 
L 182.45397 246.224599 
L 184.289329 237.6 
L 186.124687 241.912299 
L 187.960046 250.536898 
L 189.795405 254.849198 
L 191.630763 267.786096 
L 193.466122 272.098396 
L 195.30148 267.786096 
L 197.136839 228.975401 
L 198.972198 246.224599 
L 202.642915 246.224599 
L 204.478273 259.161497 
L 206.313632 259.161497 
L 208.148991 254.849198 
L 209.984349 233.287701 
L 213.655067 250.536898 
L 215.490425 233.287701 
L 217.325784 241.912299 
L 219.161142 246.224599 
L 220.996501 237.6 
L 222.83186 237.6 
L 224.667218 263.473797 
L 226.502577 250.536898 
L 228.337935 241.912299 
L 230.173294 216.038503 
L 232.008653 254.849198 
L 233.844011 259.161497 
L 235.67937 254.849198 
L 237.514728 228.975401 
L 239.350087 267.786096 
L 241.185446 241.912299 
L 243.020804 250.536898 
L 244.856163 280.722995 
L 246.691522 254.849198 
L 248.52688 272.098396 
L 250.362239 259.161497 
L 252.197597 267.786096 
L 254.032956 254.849198 
L 255.868315 272.098396 
L 257.703673 254.849198 
L 259.539032 259.161497 
L 261.37439 267.786096 
L 263.209749 250.536898 
L 265.045108 259.161497 
L 266.880466 250.536898 
L 268.715825 280.722995 
L 270.551183 267.786096 
L 272.386542 237.6 
L 274.221901 272.098396 
L 276.057259 259.161497 
L 277.892618 233.287701 
L 279.727977 285.035294 
L 281.563335 285.035294 
L 283.398694 280.722995 
L 285.234052 263.473797 
L 287.069411 263.473797 
L 288.90477 241.912299 
L 290.740128 237.6 
L 292.575487 259.161497 
L 294.410845 237.6 
L 296.246204 254.849198 
L 298.081563 254.849198 
L 299.916921 224.663102 
L 301.75228 254.849198 
L 303.587638 241.912299 
L 305.422997 233.287701 
L 307.258356 241.912299 
L 309.093714 280.722995 
L 310.929073 254.849198 
L 312.764432 237.6 
L 314.59979 263.473797 
L 316.435149 228.975401 
L 318.270507 246.224599 
L 320.105866 216.038503 
L 321.941225 250.536898 
L 323.776583 250.536898 
L 325.611942 267.786096 
L 327.4473 233.287701 
L 329.282659 254.849198 
L 331.118018 254.849198 
L 332.953376 250.536898 
L 334.788735 259.161497 
L 336.624093 250.536898 
L 338.459452 228.975401 
L 340.294811 237.6 
L 342.130169 228.975401 
L 343.965528 263.473797 
L 345.800887 241.912299 
L 347.636245 250.536898 
L 349.471604 233.287701 
L 351.306962 254.849198 
L 353.142321 241.912299 
L 354.97768 241.912299 
L 356.813038 216.038503 
L 358.648397 224.663102 
L 360.483755 220.350802 
L 362.319114 237.6 
L 364.154473 241.912299 
L 365.989831 224.663102 
L 367.82519 254.849198 
L 369.660548 241.912299 
L 373.331266 267.786096 
L 375.166624 241.912299 
L 377.001983 233.287701 
L 380.6727 250.536898 
L 382.508059 246.224599 
L 384.343417 228.975401 
L 386.178776 228.975401 
L 388.014135 237.6 
L 389.849493 254.849198 
L 391.684852 224.663102 
L 393.52021 259.161497 
L 395.355569 254.849198 
L 397.190928 254.849198 
L 399.026286 280.722995 
L 400.861645 263.473797 
L 402.697003 233.287701 
L 404.532362 241.912299 
L 406.367721 254.849198 
L 408.203079 263.473797 
L 410.038438 263.473797 
L 413.709155 254.849198 
L 415.544514 233.287701 
L 417.379872 272.098396 
L 419.215231 254.849198 
L 421.05059 267.786096 
L 422.885948 272.098396 
L 424.721307 280.722995 
L 424.721307 280.722995 
" clip-path="url(#p2470aa24d8)" style="fill: none; stroke: #3f7f5f; stroke-width: 1.1; stroke-linecap: square"/>
   </g>
   <g id="patch_8">
    <path d="M 41.223125 289.778824 
L 41.223125 185.421176 
" style="fill: none; stroke: #000000; stroke-width: 0.8; stroke-linejoin: miter; stroke-linecap: square"/>
   </g>
   <g id="patch_9">
    <path d="M 442.983125 289.778824 
L 442.983125 185.421176 
" style="fill: none; stroke: #000000; stroke-width: 0.8; stroke-linejoin: miter; stroke-linecap: square"/>
   </g>
   <g id="patch_10">
    <path d="M 41.223125 289.778824 
L 442.983125 289.778824 
" style="fill: none; stroke: #000000; stroke-width: 0.8; stroke-linejoin: miter; stroke-linecap: square"/>
   </g>
   <g id="patch_11">
    <path d="M 41.223125 185.421176 
L 442.983125 185.421176 
" style="fill: none; stroke: #000000; stroke-width: 0.8; stroke-linejoin: miter; stroke-linecap: square"/>
   </g>
  </g>
  <g id="axes_3">
   <g id="patch_12">
    <path d="M 41.223125 415.008 
L 442.983125 415.008 
L 442.983125 310.650353 
L 41.223125 310.650353 
z
" style="fill: #ffffff"/>
   </g>
   <g id="matplotlib.axis_5">
    <g id="xtick_13">
     <g id="line2d_45">
      <path d="M 59.484943 415.008 
L 59.484943 310.650353 
" clip-path="url(#p535569bd73)" style="fill: none; stroke: #b0b0b0; stroke-opacity: 0.25; stroke-width: 0.8; stroke-linecap: square"/>
     </g>
     <g id="line2d_46">
      <g>
       <use xlink:href="#ma0f498cadf" x="59.484943" y="415.008" style="stroke: #000000; stroke-width: 0.8"/>
      </g>
     </g>
     <g id="text_12">
      <!-- 0 -->
      <g transform="translate(56.621818 428.846594) scale(0.09 -0.09)">
       <use xlink:href="#DejaVuSans-30"/>
      </g>
     </g>
    </g>
    <g id="xtick_14">
     <g id="line2d_47">
      <path d="M 132.899288 415.008 
L 132.899288 310.650353 
" clip-path="url(#p535569bd73)" style="fill: none; stroke: #b0b0b0; stroke-opacity: 0.25; stroke-width: 0.8; stroke-linecap: square"/>
     </g>
     <g id="line2d_48">
      <g>
       <use xlink:href="#ma0f498cadf" x="132.899288" y="415.008" style="stroke: #000000; stroke-width: 0.8"/>
      </g>
     </g>
     <g id="text_13">
      <!-- 20 -->
      <g transform="translate(127.173038 428.846594) scale(0.09 -0.09)">
       <defs>
        <path id="DejaVuSans-32" d="M 1228 531 
L 3431 531 
L 3431 0 
L 469 0 
L 469 531 
Q 828 903 1448 1529 
Q 2069 2156 2228 2338 
Q 2531 2678 2651 2914 
Q 2772 3150 2772 3378 
Q 2772 3750 2511 3984 
Q 2250 4219 1831 4219 
Q 1534 4219 1204 4116 
Q 875 4013 500 3803 
L 500 4441 
Q 881 4594 1212 4672 
Q 1544 4750 1819 4750 
Q 2544 4750 2975 4387 
Q 3406 4025 3406 3419 
Q 3406 3131 3298 2873 
Q 3191 2616 2906 2266 
Q 2828 2175 2409 1742 
Q 1991 1309 1228 531 
z
" transform="scale(0.015625)"/>
       </defs>
       <use xlink:href="#DejaVuSans-32"/>
       <use xlink:href="#DejaVuSans-30" transform="translate(63.623047 0)"/>
      </g>
     </g>
    </g>
    <g id="xtick_15">
     <g id="line2d_49">
      <path d="M 206.313632 415.008 
L 206.313632 310.650353 
" clip-path="url(#p535569bd73)" style="fill: none; stroke: #b0b0b0; stroke-opacity: 0.25; stroke-width: 0.8; stroke-linecap: square"/>
     </g>
     <g id="line2d_50">
      <g>
       <use xlink:href="#ma0f498cadf" x="206.313632" y="415.008" style="stroke: #000000; stroke-width: 0.8"/>
      </g>
     </g>
     <g id="text_14">
      <!-- 40 -->
      <g transform="translate(200.587382 428.846594) scale(0.09 -0.09)">
       <use xlink:href="#DejaVuSans-34"/>
       <use xlink:href="#DejaVuSans-30" transform="translate(63.623047 0)"/>
      </g>
     </g>
    </g>
    <g id="xtick_16">
     <g id="line2d_51">
      <path d="M 279.727977 415.008 
L 279.727977 310.650353 
" clip-path="url(#p535569bd73)" style="fill: none; stroke: #b0b0b0; stroke-opacity: 0.25; stroke-width: 0.8; stroke-linecap: square"/>
     </g>
     <g id="line2d_52">
      <g>
       <use xlink:href="#ma0f498cadf" x="279.727977" y="415.008" style="stroke: #000000; stroke-width: 0.8"/>
      </g>
     </g>
     <g id="text_15">
      <!-- 60 -->
      <g transform="translate(274.001727 428.846594) scale(0.09 -0.09)">
       <use xlink:href="#DejaVuSans-36"/>
       <use xlink:href="#DejaVuSans-30" transform="translate(63.623047 0)"/>
      </g>
     </g>
    </g>
    <g id="xtick_17">
     <g id="line2d_53">
      <path d="M 353.142321 415.008 
L 353.142321 310.650353 
" clip-path="url(#p535569bd73)" style="fill: none; stroke: #b0b0b0; stroke-opacity: 0.25; stroke-width: 0.8; stroke-linecap: square"/>
     </g>
     <g id="line2d_54">
      <g>
       <use xlink:href="#ma0f498cadf" x="353.142321" y="415.008" style="stroke: #000000; stroke-width: 0.8"/>
      </g>
     </g>
     <g id="text_16">
      <!-- 80 -->
      <g transform="translate(347.416071 428.846594) scale(0.09 -0.09)">
       <defs>
        <path id="DejaVuSans-38" d="M 2034 2216 
Q 1584 2216 1326 1975 
Q 1069 1734 1069 1313 
Q 1069 891 1326 650 
Q 1584 409 2034 409 
Q 2484 409 2743 651 
Q 3003 894 3003 1313 
Q 3003 1734 2745 1975 
Q 2488 2216 2034 2216 
z
M 1403 2484 
Q 997 2584 770 2862 
Q 544 3141 544 3541 
Q 544 4100 942 4425 
Q 1341 4750 2034 4750 
Q 2731 4750 3128 4425 
Q 3525 4100 3525 3541 
Q 3525 3141 3298 2862 
Q 3072 2584 2669 2484 
Q 3125 2378 3379 2068 
Q 3634 1759 3634 1313 
Q 3634 634 3220 271 
Q 2806 -91 2034 -91 
Q 1263 -91 848 271 
Q 434 634 434 1313 
Q 434 1759 690 2068 
Q 947 2378 1403 2484 
z
M 1172 3481 
Q 1172 3119 1398 2916 
Q 1625 2713 2034 2713 
Q 2441 2713 2670 2916 
Q 2900 3119 2900 3481 
Q 2900 3844 2670 4047 
Q 2441 4250 2034 4250 
Q 1625 4250 1398 4047 
Q 1172 3844 1172 3481 
z
" transform="scale(0.015625)"/>
       </defs>
       <use xlink:href="#DejaVuSans-38"/>
       <use xlink:href="#DejaVuSans-30" transform="translate(63.623047 0)"/>
      </g>
     </g>
    </g>
    <g id="xtick_18">
     <g id="line2d_55">
      <path d="M 426.556665 415.008 
L 426.556665 310.650353 
" clip-path="url(#p535569bd73)" style="fill: none; stroke: #b0b0b0; stroke-opacity: 0.25; stroke-width: 0.8; stroke-linecap: square"/>
     </g>
     <g id="line2d_56">
      <g>
       <use xlink:href="#ma0f498cadf" x="426.556665" y="415.008" style="stroke: #000000; stroke-width: 0.8"/>
      </g>
     </g>
     <g id="text_17">
      <!-- 100 -->
      <g transform="translate(417.96729 428.846594) scale(0.09 -0.09)">
       <use xlink:href="#DejaVuSans-31"/>
       <use xlink:href="#DejaVuSans-30" transform="translate(63.623047 0)"/>
       <use xlink:href="#DejaVuSans-30" transform="translate(127.246094 0)"/>
      </g>
     </g>
    </g>
    <g id="text_18">
     <!-- Time (ns) -->
     <g transform="translate(220.955234 441.556906) scale(0.09 -0.09)">
      <defs>
       <path id="DejaVuSans-54" d="M -19 4666 
L 3928 4666 
L 3928 4134 
L 2272 4134 
L 2272 0 
L 1638 0 
L 1638 4134 
L -19 4134 
L -19 4666 
z
" transform="scale(0.015625)"/>
       <path id="DejaVuSans-69" d="M 603 3500 
L 1178 3500 
L 1178 0 
L 603 0 
L 603 3500 
z
M 603 4863 
L 1178 4863 
L 1178 4134 
L 603 4134 
L 603 4863 
z
" transform="scale(0.015625)"/>
       <path id="DejaVuSans-6d" d="M 3328 2828 
Q 3544 3216 3844 3400 
Q 4144 3584 4550 3584 
Q 5097 3584 5394 3201 
Q 5691 2819 5691 2113 
L 5691 0 
L 5113 0 
L 5113 2094 
Q 5113 2597 4934 2840 
Q 4756 3084 4391 3084 
Q 3944 3084 3684 2787 
Q 3425 2491 3425 1978 
L 3425 0 
L 2847 0 
L 2847 2094 
Q 2847 2600 2669 2842 
Q 2491 3084 2119 3084 
Q 1678 3084 1418 2786 
Q 1159 2488 1159 1978 
L 1159 0 
L 581 0 
L 581 3500 
L 1159 3500 
L 1159 2956 
Q 1356 3278 1631 3431 
Q 1906 3584 2284 3584 
Q 2666 3584 2933 3390 
Q 3200 3197 3328 2828 
z
" transform="scale(0.015625)"/>
      </defs>
      <use xlink:href="#DejaVuSans-54"/>
      <use xlink:href="#DejaVuSans-69" transform="translate(57.958984 0)"/>
      <use xlink:href="#DejaVuSans-6d" transform="translate(85.742188 0)"/>
      <use xlink:href="#DejaVuSans-65" transform="translate(183.154297 0)"/>
      <use xlink:href="#DejaVuSans-20" transform="translate(244.677734 0)"/>
      <use xlink:href="#DejaVuSans-28" transform="translate(276.464844 0)"/>
      <use xlink:href="#DejaVuSans-6e" transform="translate(315.478516 0)"/>
      <use xlink:href="#DejaVuSans-73" transform="translate(378.857422 0)"/>
      <use xlink:href="#DejaVuSans-29" transform="translate(430.957031 0)"/>
     </g>
    </g>
   </g>
   <g id="matplotlib.axis_6">
    <g id="ytick_10">
     <g id="line2d_57">
      <path d="M 41.223125 410.515752 
L 442.983125 410.515752 
" clip-path="url(#p535569bd73)" style="fill: none; stroke: #b0b0b0; stroke-opacity: 0.25; stroke-width: 0.8; stroke-linecap: square"/>
     </g>
     <g id="line2d_58">
      <g>
       <use xlink:href="#m7e9d4a850f" x="41.223125" y="410.515752" style="stroke: #000000; stroke-width: 0.8"/>
      </g>
     </g>
     <g id="text_19">
      <!-- 0.0 -->
      <g transform="translate(19.910312 413.935049) scale(0.09 -0.09)">
       <use xlink:href="#DejaVuSans-30"/>
       <use xlink:href="#DejaVuSans-2e" transform="translate(63.623047 0)"/>
       <use xlink:href="#DejaVuSans-30" transform="translate(95.410156 0)"/>
      </g>
     </g>
    </g>
    <g id="ytick_11">
     <g id="line2d_59">
      <path d="M 41.223125 388.26623 
L 442.983125 388.26623 
" clip-path="url(#p535569bd73)" style="fill: none; stroke: #b0b0b0; stroke-opacity: 0.25; stroke-width: 0.8; stroke-linecap: square"/>
     </g>
     <g id="line2d_60">
      <g>
       <use xlink:href="#m7e9d4a850f" x="41.223125" y="388.26623" style="stroke: #000000; stroke-width: 0.8"/>
      </g>
     </g>
     <g id="text_20">
      <!-- 0.1 -->
      <g transform="translate(19.910312 391.685527) scale(0.09 -0.09)">
       <use xlink:href="#DejaVuSans-30"/>
       <use xlink:href="#DejaVuSans-2e" transform="translate(63.623047 0)"/>
       <use xlink:href="#DejaVuSans-31" transform="translate(95.410156 0)"/>
      </g>
     </g>
    </g>
    <g id="ytick_12">
     <g id="line2d_61">
      <path d="M 41.223125 366.016708 
L 442.983125 366.016708 
" clip-path="url(#p535569bd73)" style="fill: none; stroke: #b0b0b0; stroke-opacity: 0.25; stroke-width: 0.8; stroke-linecap: square"/>
     </g>
     <g id="line2d_62">
      <g>
       <use xlink:href="#m7e9d4a850f" x="41.223125" y="366.016708" style="stroke: #000000; stroke-width: 0.8"/>
      </g>
     </g>
     <g id="text_21">
      <!-- 0.2 -->
      <g transform="translate(19.910312 369.436005) scale(0.09 -0.09)">
       <use xlink:href="#DejaVuSans-30"/>
       <use xlink:href="#DejaVuSans-2e" transform="translate(63.623047 0)"/>
       <use xlink:href="#DejaVuSans-32" transform="translate(95.410156 0)"/>
      </g>
     </g>
    </g>
    <g id="ytick_13">
     <g id="line2d_63">
      <path d="M 41.223125 343.767185 
L 442.983125 343.767185 
" clip-path="url(#p535569bd73)" style="fill: none; stroke: #b0b0b0; stroke-opacity: 0.25; stroke-width: 0.8; stroke-linecap: square"/>
     </g>
     <g id="line2d_64">
      <g>
       <use xlink:href="#m7e9d4a850f" x="41.223125" y="343.767185" style="stroke: #000000; stroke-width: 0.8"/>
      </g>
     </g>
     <g id="text_22">
      <!-- 0.3 -->
      <g transform="translate(19.910312 347.186482) scale(0.09 -0.09)">
       <defs>
        <path id="DejaVuSans-33" d="M 2597 2516 
Q 3050 2419 3304 2112 
Q 3559 1806 3559 1356 
Q 3559 666 3084 287 
Q 2609 -91 1734 -91 
Q 1441 -91 1130 -33 
Q 819 25 488 141 
L 488 750 
Q 750 597 1062 519 
Q 1375 441 1716 441 
Q 2309 441 2620 675 
Q 2931 909 2931 1356 
Q 2931 1769 2642 2001 
Q 2353 2234 1838 2234 
L 1294 2234 
L 1294 2753 
L 1863 2753 
Q 2328 2753 2575 2939 
Q 2822 3125 2822 3475 
Q 2822 3834 2567 4026 
Q 2313 4219 1838 4219 
Q 1578 4219 1281 4162 
Q 984 4106 628 3988 
L 628 4550 
Q 988 4650 1302 4700 
Q 1616 4750 1894 4750 
Q 2613 4750 3031 4423 
Q 3450 4097 3450 3541 
Q 3450 3153 3228 2886 
Q 3006 2619 2597 2516 
z
" transform="scale(0.015625)"/>
       </defs>
       <use xlink:href="#DejaVuSans-30"/>
       <use xlink:href="#DejaVuSans-2e" transform="translate(63.623047 0)"/>
       <use xlink:href="#DejaVuSans-33" transform="translate(95.410156 0)"/>
      </g>
     </g>
    </g>
    <g id="ytick_14">
     <g id="line2d_65">
      <path d="M 41.223125 321.517663 
L 442.983125 321.517663 
" clip-path="url(#p535569bd73)" style="fill: none; stroke: #b0b0b0; stroke-opacity: 0.25; stroke-width: 0.8; stroke-linecap: square"/>
     </g>
     <g id="line2d_66">
      <g>
       <use xlink:href="#m7e9d4a850f" x="41.223125" y="321.517663" style="stroke: #000000; stroke-width: 0.8"/>
      </g>
     </g>
     <g id="text_23">
      <!-- 0.4 -->
      <g transform="translate(19.910312 324.93696) scale(0.09 -0.09)">
       <use xlink:href="#DejaVuSans-30"/>
       <use xlink:href="#DejaVuSans-2e" transform="translate(63.623047 0)"/>
       <use xlink:href="#DejaVuSans-34" transform="translate(95.410156 0)"/>
      </g>
     </g>
    </g>
    <g id="text_24">
     <!-- Ligand SASA (nm2) -->
     <g transform="translate(14.038594 406.418708) rotate(-90) scale(0.09 -0.09)">
      <defs>
       <path id="DejaVuSans-4c" d="M 628 4666 
L 1259 4666 
L 1259 531 
L 3531 531 
L 3531 0 
L 628 0 
L 628 4666 
z
" transform="scale(0.015625)"/>
       <path id="DejaVuSans-67" d="M 2906 1791 
Q 2906 2416 2648 2759 
Q 2391 3103 1925 3103 
Q 1463 3103 1205 2759 
Q 947 2416 947 1791 
Q 947 1169 1205 825 
Q 1463 481 1925 481 
Q 2391 481 2648 825 
Q 2906 1169 2906 1791 
z
M 3481 434 
Q 3481 -459 3084 -895 
Q 2688 -1331 1869 -1331 
Q 1566 -1331 1297 -1286 
Q 1028 -1241 775 -1147 
L 775 -588 
Q 1028 -725 1275 -790 
Q 1522 -856 1778 -856 
Q 2344 -856 2625 -561 
Q 2906 -266 2906 331 
L 2906 616 
Q 2728 306 2450 153 
Q 2172 0 1784 0 
Q 1141 0 747 490 
Q 353 981 353 1791 
Q 353 2603 747 3093 
Q 1141 3584 1784 3584 
Q 2172 3584 2450 3431 
Q 2728 3278 2906 2969 
L 2906 3500 
L 3481 3500 
L 3481 434 
z
" transform="scale(0.015625)"/>
       <path id="DejaVuSans-64" d="M 2906 2969 
L 2906 4863 
L 3481 4863 
L 3481 0 
L 2906 0 
L 2906 525 
Q 2725 213 2448 61 
Q 2172 -91 1784 -91 
Q 1150 -91 751 415 
Q 353 922 353 1747 
Q 353 2572 751 3078 
Q 1150 3584 1784 3584 
Q 2172 3584 2448 3432 
Q 2725 3281 2906 2969 
z
M 947 1747 
Q 947 1113 1208 752 
Q 1469 391 1925 391 
Q 2381 391 2643 752 
Q 2906 1113 2906 1747 
Q 2906 2381 2643 2742 
Q 2381 3103 1925 3103 
Q 1469 3103 1208 2742 
Q 947 2381 947 1747 
z
" transform="scale(0.015625)"/>
      </defs>
      <use xlink:href="#DejaVuSans-4c"/>
      <use xlink:href="#DejaVuSans-69" transform="translate(55.712891 0)"/>
      <use xlink:href="#DejaVuSans-67" transform="translate(83.496094 0)"/>
      <use xlink:href="#DejaVuSans-61" transform="translate(146.972656 0)"/>
      <use xlink:href="#DejaVuSans-6e" transform="translate(208.251953 0)"/>
      <use xlink:href="#DejaVuSans-64" transform="translate(271.630859 0)"/>
      <use xlink:href="#DejaVuSans-20" transform="translate(335.107422 0)"/>
      <use xlink:href="#DejaVuSans-53" transform="translate(366.894531 0)"/>
      <use xlink:href="#DejaVuSans-41" transform="translate(432.246094 0)"/>
      <use xlink:href="#DejaVuSans-53" transform="translate(500.654297 0)"/>
      <use xlink:href="#DejaVuSans-41" transform="translate(566.005859 0)"/>
      <use xlink:href="#DejaVuSans-20" transform="translate(634.414062 0)"/>
      <use xlink:href="#DejaVuSans-28" transform="translate(666.201172 0)"/>
      <use xlink:href="#DejaVuSans-6e" transform="translate(705.214844 0)"/>
      <use xlink:href="#DejaVuSans-6d" transform="translate(768.59375 0)"/>
      <use xlink:href="#DejaVuSans-32" transform="translate(866.005859 0)"/>
      <use xlink:href="#DejaVuSans-29" transform="translate(929.628906 0)"/>
     </g>
    </g>
   </g>
   <g id="line2d_67">
    <path d="M 59.484943 394.749605 
L 61.320302 405.662164 
L 63.15566 408.730271 
L 64.991019 405.676983 
L 66.826378 408.48196 
L 68.661736 409.923019 
L 70.497095 410.070018 
L 72.332453 407.501724 
L 74.167812 410.264471 
L 76.003171 394.154637 
L 77.838529 406.210952 
L 79.673888 407.71451 
L 81.509247 379.128224 
L 83.344605 395.874601 
L 85.179964 395.548401 
L 87.015322 389.952497 
L 88.850681 374.305881 
L 90.68604 390.052566 
L 92.521398 403.349266 
L 94.356757 389.702709 
L 96.192115 395.542273 
L 98.027474 388.751567 
L 99.862833 375.940086 
L 101.698191 375.466458 
L 103.53355 377.162504 
L 105.368908 363.545996 
L 107.204267 373.415626 
L 109.039626 387.775214 
L 112.710343 323.916506 
L 114.545702 374.28067 
L 116.38106 367.676611 
L 118.216419 357.140347 
L 120.051777 368.507482 
L 121.887136 355.686068 
L 123.722495 369.975122 
L 125.557853 377.864963 
L 127.393212 367.241433 
L 129.22857 354.428191 
L 131.063929 346.178315 
L 132.899288 365.324696 
L 134.734646 361.018815 
L 136.570005 350.806122 
L 138.405363 356.785848 
L 140.240722 371.472224 
L 142.076081 358.835572 
L 143.911439 339.478997 
L 145.746798 356.556531 
L 147.582157 359.878196 
L 149.417515 390.197622 
L 151.252874 343.628132 
L 153.088232 339.648825 
L 154.923591 359.501422 
L 156.75895 355.673501 
L 158.594308 355.681551 
L 160.429667 351.721634 
L 162.265025 332.415546 
L 164.100384 317.922044 
L 165.935743 326.655429 
L 167.771101 315.393882 
L 169.60646 377.002716 
L 171.441818 338.267602 
L 173.277177 335.736478 
L 175.112536 337.846647 
L 176.947894 335.005052 
L 178.783253 381.209589 
L 180.618612 384.46447 
L 182.45397 393.10912 
L 184.289329 364.625285 
L 186.124687 382.828037 
L 187.960046 356.295526 
L 189.795405 370.355405 
L 191.630763 377.431803 
L 193.466122 351.508364 
L 195.30148 355.938157 
L 197.136839 378.48524 
L 198.972198 378.401466 
L 200.807556 368.625604 
L 202.642915 372.642671 
L 204.478273 362.9025 
L 206.313632 343.670756 
L 208.148991 355.389579 
L 209.984349 365.834402 
L 211.819708 378.861317 
L 213.655067 379.185548 
L 215.490425 381.424475 
L 217.325784 381.317181 
L 219.161142 376.344847 
L 220.996501 390.075572 
L 224.667218 377.270716 
L 226.502577 376.814652 
L 228.337935 386.130298 
L 230.173294 371.107298 
L 232.008653 382.672482 
L 233.844011 381.68362 
L 235.67937 371.42764 
L 237.514728 364.525994 
L 239.350087 364.020145 
L 241.185446 378.144878 
L 243.020804 367.555445 
L 244.856163 369.940538 
L 246.691522 370.448339 
L 248.52688 351.338493 
L 250.362239 374.75533 
L 252.197597 355.802359 
L 254.032956 349.256957 
L 255.868315 343.500336 
L 257.703673 361.58709 
L 259.539032 370.524441 
L 261.37439 365.526377 
L 263.209749 343.356837 
L 265.045108 355.159748 
L 266.880466 364.720382 
L 268.715825 344.878809 
L 270.551183 358.523425 
L 272.386542 358.618107 
L 274.221901 344.314866 
L 276.057259 362.608977 
L 277.892618 331.822936 
L 279.727977 360.723909 
L 281.563335 325.039193 
L 283.398694 353.438127 
L 285.234052 367.109985 
L 287.069411 371.709873 
L 288.90477 366.975206 
L 290.740128 363.968726 
L 292.575487 378.684874 
L 294.410845 381.882228 
L 296.246204 360.733903 
L 298.081563 368.523755 
L 299.916921 375.040538 
L 301.75228 385.193086 
L 303.587638 377.315607 
L 305.422997 379.089192 
L 307.258356 376.386044 
L 309.093714 392.821425 
L 310.929073 382.730369 
L 312.764432 377.49565 
L 314.59979 397.035261 
L 316.435149 400.433931 
L 318.270507 377.905282 
L 320.105866 391.82567 
L 321.941225 363.605798 
L 323.776583 375.776505 
L 325.611942 367.903156 
L 327.4473 357.519904 
L 329.282659 346.059821 
L 332.953376 361.968227 
L 334.788735 360.591687 
L 336.624093 374.732059 
L 338.459452 373.129851 
L 340.294811 365.742634 
L 342.130169 371.333391 
L 343.965528 348.507063 
L 345.800887 371.086584 
L 347.636245 378.144706 
L 349.471604 371.290536 
L 351.306962 356.690131 
L 353.142321 377.456616 
L 354.97768 381.594666 
L 356.813038 387.806347 
L 358.648397 368.730604 
L 360.483755 386.235801 
L 362.319114 380.034385 
L 364.154473 375.022825 
L 365.989831 371.679291 
L 367.82519 400.205185 
L 369.660548 367.336625 
L 371.495907 369.987869 
L 373.331266 358.611032 
L 375.166624 370.271308 
L 377.001983 383.553752 
L 378.837342 377.756421 
L 380.6727 382.367239 
L 382.508059 360.034612 
L 384.343417 367.842695 
L 388.014135 378.884327 
L 389.849493 359.373519 
L 391.684852 375.595957 
L 393.52021 374.76969 
L 395.355569 374.845102 
L 397.190928 368.956953 
L 399.026286 357.614968 
L 400.861645 367.7854 
L 402.697003 352.451463 
L 404.532362 366.944079 
L 406.367721 362.266095 
L 408.203079 356.918958 
L 410.038438 368.592036 
L 411.873797 372.326732 
L 413.709155 375.167785 
L 415.544514 369.321937 
L 417.379872 371.300874 
L 421.05059 345.309086 
L 422.885948 344.049492 
L 424.721307 360.496799 
L 424.721307 360.496799 
" clip-path="url(#p535569bd73)" style="fill: none; stroke: #a05a2c; stroke-width: 1.1; stroke-linecap: square"/>
   </g>
   <g id="patch_13">
    <path d="M 41.223125 415.008 
L 41.223125 310.650353 
" style="fill: none; stroke: #000000; stroke-width: 0.8; stroke-linejoin: miter; stroke-linecap: square"/>
   </g>
   <g id="patch_14">
    <path d="M 442.983125 415.008 
L 442.983125 310.650353 
" style="fill: none; stroke: #000000; stroke-width: 0.8; stroke-linejoin: miter; stroke-linecap: square"/>
   </g>
   <g id="patch_15">
    <path d="M 41.223125 415.008 
L 442.983125 415.008 
" style="fill: none; stroke: #000000; stroke-width: 0.8; stroke-linejoin: miter; stroke-linecap: square"/>
   </g>
   <g id="patch_16">
    <path d="M 41.223125 310.650353 
L 442.983125 310.650353 
" style="fill: none; stroke: #000000; stroke-width: 0.8; stroke-linejoin: miter; stroke-linecap: square"/>
   </g>
  </g>
  <g id="text_25">
   <!-- SGLT2 Mol_13144 rep3 PBC-corrected ligand metrics -->
   <g transform="translate(93.770188 15.406312) scale(0.108 -0.108)">
    <defs>
     <path id="DejaVuSans-47" d="M 3809 666 
L 3809 1919 
L 2778 1919 
L 2778 2438 
L 4434 2438 
L 4434 434 
Q 4069 175 3628 42 
Q 3188 -91 2688 -91 
Q 1594 -91 976 548 
Q 359 1188 359 2328 
Q 359 3472 976 4111 
Q 1594 4750 2688 4750 
Q 3144 4750 3555 4637 
Q 3966 4525 4313 4306 
L 4313 3634 
Q 3963 3931 3569 4081 
Q 3175 4231 2741 4231 
Q 1884 4231 1454 3753 
Q 1025 3275 1025 2328 
Q 1025 1384 1454 906 
Q 1884 428 2741 428 
Q 3075 428 3337 486 
Q 3600 544 3809 666 
z
" transform="scale(0.015625)"/>
     <path id="DejaVuSans-6c" d="M 603 4863 
L 1178 4863 
L 1178 0 
L 603 0 
L 603 4863 
z
" transform="scale(0.015625)"/>
     <path id="DejaVuSans-5f" d="M 3263 -1063 
L 3263 -1509 
L -63 -1509 
L -63 -1063 
L 3263 -1063 
z
" transform="scale(0.015625)"/>
     <path id="DejaVuSans-72" d="M 2631 2963 
Q 2534 3019 2420 3045 
Q 2306 3072 2169 3072 
Q 1681 3072 1420 2755 
Q 1159 2438 1159 1844 
L 1159 0 
L 581 0 
L 581 3500 
L 1159 3500 
L 1159 2956 
Q 1341 3275 1631 3429 
Q 1922 3584 2338 3584 
Q 2397 3584 2469 3576 
Q 2541 3569 2628 3553 
L 2631 2963 
z
" transform="scale(0.015625)"/>
     <path id="DejaVuSans-70" d="M 1159 525 
L 1159 -1331 
L 581 -1331 
L 581 3500 
L 1159 3500 
L 1159 2969 
Q 1341 3281 1617 3432 
Q 1894 3584 2278 3584 
Q 2916 3584 3314 3078 
Q 3713 2572 3713 1747 
Q 3713 922 3314 415 
Q 2916 -91 2278 -91 
Q 1894 -91 1617 61 
Q 1341 213 1159 525 
z
M 3116 1747 
Q 3116 2381 2855 2742 
Q 2594 3103 2138 3103 
Q 1681 3103 1420 2742 
Q 1159 2381 1159 1747 
Q 1159 1113 1420 752 
Q 1681 391 2138 391 
Q 2594 391 2855 752 
Q 3116 1113 3116 1747 
z
" transform="scale(0.015625)"/>
     <path id="DejaVuSans-42" d="M 1259 2228 
L 1259 519 
L 2272 519 
Q 2781 519 3026 730 
Q 3272 941 3272 1375 
Q 3272 1813 3026 2020 
Q 2781 2228 2272 2228 
L 1259 2228 
z
M 1259 4147 
L 1259 2741 
L 2194 2741 
Q 2656 2741 2882 2914 
Q 3109 3088 3109 3444 
Q 3109 3797 2882 3972 
Q 2656 4147 2194 4147 
L 1259 4147 
z
M 628 4666 
L 2241 4666 
Q 2963 4666 3353 4366 
Q 3744 4066 3744 3513 
Q 3744 3084 3544 2831 
Q 3344 2578 2956 2516 
Q 3422 2416 3680 2098 
Q 3938 1781 3938 1306 
Q 3938 681 3513 340 
Q 3088 0 2303 0 
L 628 0 
L 628 4666 
z
" transform="scale(0.015625)"/>
     <path id="DejaVuSans-43" d="M 4122 4306 
L 4122 3641 
Q 3803 3938 3442 4084 
Q 3081 4231 2675 4231 
Q 1875 4231 1450 3742 
Q 1025 3253 1025 2328 
Q 1025 1406 1450 917 
Q 1875 428 2675 428 
Q 3081 428 3442 575 
Q 3803 722 4122 1019 
L 4122 359 
Q 3791 134 3420 21 
Q 3050 -91 2638 -91 
Q 1578 -91 968 557 
Q 359 1206 359 2328 
Q 359 3453 968 4101 
Q 1578 4750 2638 4750 
Q 3056 4750 3426 4639 
Q 3797 4528 4122 4306 
z
" transform="scale(0.015625)"/>
     <path id="DejaVuSans-2d" d="M 313 2009 
L 1997 2009 
L 1997 1497 
L 313 1497 
L 313 2009 
z
" transform="scale(0.015625)"/>
    </defs>
    <use xlink:href="#DejaVuSans-53"/>
    <use xlink:href="#DejaVuSans-47" transform="translate(63.476562 0)"/>
    <use xlink:href="#DejaVuSans-4c" transform="translate(140.966797 0)"/>
    <use xlink:href="#DejaVuSans-54" transform="translate(182.929688 0)"/>
    <use xlink:href="#DejaVuSans-32" transform="translate(244.013672 0)"/>
    <use xlink:href="#DejaVuSans-20" transform="translate(307.636719 0)"/>
    <use xlink:href="#DejaVuSans-4d" transform="translate(339.423828 0)"/>
    <use xlink:href="#DejaVuSans-6f" transform="translate(425.703125 0)"/>
    <use xlink:href="#DejaVuSans-6c" transform="translate(486.884766 0)"/>
    <use xlink:href="#DejaVuSans-5f" transform="translate(514.667969 0)"/>
    <use xlink:href="#DejaVuSans-31" transform="translate(564.667969 0)"/>
    <use xlink:href="#DejaVuSans-33" transform="translate(628.291016 0)"/>
    <use xlink:href="#DejaVuSans-31" transform="translate(691.914062 0)"/>
    <use xlink:href="#DejaVuSans-34" transform="translate(755.537109 0)"/>
    <use xlink:href="#DejaVuSans-34" transform="translate(819.160156 0)"/>
    <use xlink:href="#DejaVuSans-20" transform="translate(882.783203 0)"/>
    <use xlink:href="#DejaVuSans-72" transform="translate(914.570312 0)"/>
    <use xlink:href="#DejaVuSans-65" transform="translate(953.433594 0)"/>
    <use xlink:href="#DejaVuSans-70" transform="translate(1014.957031 0)"/>
    <use xlink:href="#DejaVuSans-33" transform="translate(1078.433594 0)"/>
    <use xlink:href="#DejaVuSans-20" transform="translate(1142.056641 0)"/>
    <use xlink:href="#DejaVuSans-50" transform="translate(1173.84375 0)"/>
    <use xlink:href="#DejaVuSans-42" transform="translate(1234.146484 0)"/>
    <use xlink:href="#DejaVuSans-43" transform="translate(1301 0)"/>
    <use xlink:href="#DejaVuSans-2d" transform="translate(1370.824219 0)"/>
    <use xlink:href="#DejaVuSans-63" transform="translate(1406.908203 0)"/>
    <use xlink:href="#DejaVuSans-6f" transform="translate(1461.888672 0)"/>
    <use xlink:href="#DejaVuSans-72" transform="translate(1523.070312 0)"/>
    <use xlink:href="#DejaVuSans-72" transform="translate(1562.433594 0)"/>
    <use xlink:href="#DejaVuSans-65" transform="translate(1601.296875 0)"/>
    <use xlink:href="#DejaVuSans-63" transform="translate(1662.820312 0)"/>
    <use xlink:href="#DejaVuSans-74" transform="translate(1717.800781 0)"/>
    <use xlink:href="#DejaVuSans-65" transform="translate(1757.009766 0)"/>
    <use xlink:href="#DejaVuSans-64" transform="translate(1818.533203 0)"/>
    <use xlink:href="#DejaVuSans-20" transform="translate(1882.009766 0)"/>
    <use xlink:href="#DejaVuSans-6c" transform="translate(1913.796875 0)"/>
    <use xlink:href="#DejaVuSans-69" transform="translate(1941.580078 0)"/>
    <use xlink:href="#DejaVuSans-67" transform="translate(1969.363281 0)"/>
    <use xlink:href="#DejaVuSans-61" transform="translate(2032.839844 0)"/>
    <use xlink:href="#DejaVuSans-6e" transform="translate(2094.119141 0)"/>
    <use xlink:href="#DejaVuSans-64" transform="translate(2157.498047 0)"/>
    <use xlink:href="#DejaVuSans-20" transform="translate(2220.974609 0)"/>
    <use xlink:href="#DejaVuSans-6d" transform="translate(2252.761719 0)"/>
    <use xlink:href="#DejaVuSans-65" transform="translate(2350.173828 0)"/>
    <use xlink:href="#DejaVuSans-74" transform="translate(2411.697266 0)"/>
    <use xlink:href="#DejaVuSans-72" transform="translate(2450.90625 0)"/>
    <use xlink:href="#DejaVuSans-69" transform="translate(2492.019531 0)"/>
    <use xlink:href="#DejaVuSans-63" transform="translate(2519.802734 0)"/>
    <use xlink:href="#DejaVuSans-73" transform="translate(2574.783203 0)"/>
   </g>
  </g>
 </g>
 <defs>
  <clipPath id="p617064c3b0">
   <rect x="41.223125" y="60.192" width="401.76" height="104.357647"/>
  </clipPath>
  <clipPath id="p2470aa24d8">
   <rect x="41.223125" y="185.421176" width="401.76" height="104.357647"/>
  </clipPath>
  <clipPath id="p535569bd73">
   <rect x="41.223125" y="310.650353" width="401.76" height="104.357647"/>
  </clipPath>
 </defs>
</svg>
