<?xml version="1.0" encoding="utf-8" standalone="no"?>
<!DOCTYPE svg PUBLIC "-//W3C//DTD SVG 1.1//EN"
  "http://www.w3.org/Graphics/SVG/1.1/DTD/svg11.dtd">
<svg xmlns:xlink="http://www.w3.org/1999/xlink" width="455.909375pt" height="289.874938pt" viewBox="0 0 455.909375 289.874938" xmlns="http://www.w3.org/2000/svg" version="1.1">
 <metadata>
  <rdf:RDF xmlns:dc="http://purl.org/dc/elements/1.1/" xmlns:cc="http://creativecommons.org/ns#" xmlns:rdf="http://www.w3.org/1999/02/22-rdf-syntax-ns#">
   <cc:Work>
    <dc:type rdf:resource="http://purl.org/dc/dcmitype/StillImage"/>
    <dc:date>2026-05-25T08:13:38.332182</dc:date>
    <dc:format>image/svg+xml</dc:format>
    <dc:creator>
     <cc:Agent>
      <dc:title>Matplotlib v3.10.9, https://matplotlib.org/</dc:title>
     </cc:Agent>
    </dc:creator>
   </cc:Work>
  </rdf:RDF>
 </metadata>
 <defs>
  <style type="text/css">*{stroke-linejoin: round; stroke-linecap: butt}</style>
 </defs>
 <g id="figure_1">
  <g id="patch_1">
   <path d="M 0 289.874938 
L 455.909375 289.874938 
L 455.909375 0 
L 0 0 
z
" style="fill: #ffffff"/>
  </g>
  <g id="axes_1">
   <g id="patch_2">
    <path d="M 46.949375 254.254313 
L 448.709375 254.254313 
L 448.709375 21.406313 
L 46.949375 21.406313 
z
" style="fill: #ffffff"/>
   </g>
   <g id="matplotlib.axis_1">
    <g id="xtick_1">
     <g id="line2d_1">
      <path d="M 64.586858 254.254313 
L 64.586858 21.406313 
" clip-path="url(#p9a8a9f5e20)" style="fill: none; stroke: #b0b0b0; stroke-opacity: 0.25; stroke-width: 0.8; stroke-linecap: square"/>
     </g>
     <g id="line2d_2">
      <defs>
       <path id="m05724045d9" d="M 0 0 
L 0 3.5 
" style="stroke: #000000; stroke-width: 0.8"/>
      </defs>
      <g>
       <use xlink:href="#m05724045d9" x="64.586858" y="254.254313" style="stroke: #000000; stroke-width: 0.8"/>
      </g>
     </g>
     <g id="text_1">
      <!-- 0 -->
      <g transform="translate(61.723733 268.092906) scale(0.09 -0.09)">
       <defs>
        <path id="DejaVuSans-30" d="M 2034 4250 
Q 1547 4250 1301 3770 
Q 1056 3291 1056 2328 
Q 1056 1369 1301 889 
Q 1547 409 2034 409 
Q 2525 409 2770 889 
Q 3016 1369 3016 2328 
Q 3016 3291 2770 3770 
Q 2525 4250 2034 4250 
z
M 2034 4750 
Q 2819 4750 3233 4129 
Q 3647 3509 3647 2328 
Q 3647 1150 3233 529 
Q 2819 -91 2034 -91 
Q 1250 -91 836 529 
Q 422 1150 422 2328 
Q 422 3509 836 4129 
Q 1250 4750 2034 4750 
z
" transform="scale(0.015625)"/>
       </defs>
       <use xlink:href="#DejaVuSans-30"/>
      </g>
     </g>
    </g>
    <g id="xtick_2">
     <g id="line2d_3">
      <path d="M 127.020424 254.254313 
L 127.020424 21.406313 
" clip-path="url(#p9a8a9f5e20)" style="fill: none; stroke: #b0b0b0; stroke-opacity: 0.25; stroke-width: 0.8; stroke-linecap: square"/>
     </g>
     <g id="line2d_4">
      <g>
       <use xlink:href="#m05724045d9" x="127.020424" y="254.254313" style="stroke: #000000; stroke-width: 0.8"/>
      </g>
     </g>
     <g id="text_2">
      <!-- 100 -->
      <g transform="translate(118.431049 268.092906) scale(0.09 -0.09)">
       <defs>
        <path id="DejaVuSans-31" d="M 794 531 
L 1825 531 
L 1825 4091 
L 703 3866 
L 703 4441 
L 1819 4666 
L 2450 4666 
L 2450 531 
L 3481 531 
L 3481 0 
L 794 0 
L 794 531 
z
" transform="scale(0.015625)"/>
       </defs>
       <use xlink:href="#DejaVuSans-31"/>
       <use xlink:href="#DejaVuSans-30" transform="translate(63.623047 0)"/>
       <use xlink:href="#DejaVuSans-30" transform="translate(127.246094 0)"/>
      </g>
     </g>
    </g>
    <g id="xtick_3">
     <g id="line2d_5">
      <path d="M 189.45399 254.254313 
L 189.45399 21.406313 
" clip-path="url(#p9a8a9f5e20)" style="fill: none; stroke: #b0b0b0; stroke-opacity: 0.25; stroke-width: 0.8; stroke-linecap: square"/>
     </g>
     <g id="line2d_6">
      <g>
       <use xlink:href="#m05724045d9" x="189.45399" y="254.254313" style="stroke: #000000; stroke-width: 0.8"/>
      </g>
     </g>
     <g id="text_3">
      <!-- 200 -->
      <g transform="translate(180.864615 268.092906) scale(0.09 -0.09)">
       <defs>
        <path id="DejaVuSans-32" d="M 1228 531 
L 3431 531 
L 3431 0 
L 469 0 
L 469 531 
Q 828 903 1448 1529 
Q 2069 2156 2228 2338 
Q 2531 2678 2651 2914 
Q 2772 3150 2772 3378 
Q 2772 3750 2511 3984 
Q 2250 4219 1831 4219 
Q 1534 4219 1204 4116 
Q 875 4013 500 3803 
L 500 4441 
Q 881 4594 1212 4672 
Q 1544 4750 1819 4750 
Q 2544 4750 2975 4387 
Q 3406 4025 3406 3419 
Q 3406 3131 3298 2873 
Q 3191 2616 2906 2266 
Q 2828 2175 2409 1742 
Q 1991 1309 1228 531 
z
" transform="scale(0.015625)"/>
       </defs>
       <use xlink:href="#DejaVuSans-32"/>
       <use xlink:href="#DejaVuSans-30" transform="translate(63.623047 0)"/>
       <use xlink:href="#DejaVuSans-30" transform="translate(127.246094 0)"/>
      </g>
     </g>
    </g>
    <g id="xtick_4">
     <g id="line2d_7">
      <path d="M 251.887557 254.254313 
L 251.887557 21.406313 
" clip-path="url(#p9a8a9f5e20)" style="fill: none; stroke: #b0b0b0; stroke-opacity: 0.25; stroke-width: 0.8; stroke-linecap: square"/>
     </g>
     <g id="line2d_8">
      <g>
       <use xlink:href="#m05724045d9" x="251.887557" y="254.254313" style="stroke: #000000; stroke-width: 0.8"/>
      </g>
     </g>
     <g id="text_4">
      <!-- 300 -->
      <g transform="translate(243.298182 268.092906) scale(0.09 -0.09)">
       <defs>
        <path id="DejaVuSans-33" d="M 2597 2516 
Q 3050 2419 3304 2112 
Q 3559 1806 3559 1356 
Q 3559 666 3084 287 
Q 2609 -91 1734 -91 
Q 1441 -91 1130 -33 
Q 819 25 488 141 
L 488 750 
Q 750 597 1062 519 
Q 1375 441 1716 441 
Q 2309 441 2620 675 
Q 2931 909 2931 1356 
Q 2931 1769 2642 2001 
Q 2353 2234 1838 2234 
L 1294 2234 
L 1294 2753 
L 1863 2753 
Q 2328 2753 2575 2939 
Q 2822 3125 2822 3475 
Q 2822 3834 2567 4026 
Q 2313 4219 1838 4219 
Q 1578 4219 1281 4162 
Q 984 4106 628 3988 
L 628 4550 
Q 988 4650 1302 4700 
Q 1616 4750 1894 4750 
Q 2613 4750 3031 4423 
Q 3450 4097 3450 3541 
Q 3450 3153 3228 2886 
Q 3006 2619 2597 2516 
z
" transform="scale(0.015625)"/>
       </defs>
       <use xlink:href="#DejaVuSans-33"/>
       <use xlink:href="#DejaVuSans-30" transform="translate(63.623047 0)"/>
       <use xlink:href="#DejaVuSans-30" transform="translate(127.246094 0)"/>
      </g>
     </g>
    </g>
    <g id="xtick_5">
     <g id="line2d_9">
      <path d="M 314.321123 254.254313 
L 314.321123 21.406313 
" clip-path="url(#p9a8a9f5e20)" style="fill: none; stroke: #b0b0b0; stroke-opacity: 0.25; stroke-width: 0.8; stroke-linecap: square"/>
     </g>
     <g id="line2d_10">
      <g>
       <use xlink:href="#m05724045d9" x="314.321123" y="254.254313" style="stroke: #000000; stroke-width: 0.8"/>
      </g>
     </g>
     <g id="text_5">
      <!-- 400 -->
      <g transform="translate(305.731748 268.092906) scale(0.09 -0.09)">
       <defs>
        <path id="DejaVuSans-34" d="M 2419 4116 
L 825 1625 
L 2419 1625 
L 2419 4116 
z
M 2253 4666 
L 3047 4666 
L 3047 1625 
L 3713 1625 
L 3713 1100 
L 3047 1100 
L 3047 0 
L 2419 0 
L 2419 1100 
L 313 1100 
L 313 1709 
L 2253 4666 
z
" transform="scale(0.015625)"/>
       </defs>
       <use xlink:href="#DejaVuSans-34"/>
       <use xlink:href="#DejaVuSans-30" transform="translate(63.623047 0)"/>
       <use xlink:href="#DejaVuSans-30" transform="translate(127.246094 0)"/>
      </g>
     </g>
    </g>
    <g id="xtick_6">
     <g id="line2d_11">
      <path d="M 376.75469 254.254313 
L 376.75469 21.406313 
" clip-path="url(#p9a8a9f5e20)" style="fill: none; stroke: #b0b0b0; stroke-opacity: 0.25; stroke-width: 0.8; stroke-linecap: square"/>
     </g>
     <g id="line2d_12">
      <g>
       <use xlink:href="#m05724045d9" x="376.75469" y="254.254313" style="stroke: #000000; stroke-width: 0.8"/>
      </g>
     </g>
     <g id="text_6">
      <!-- 500 -->
      <g transform="translate(368.165315 268.092906) scale(0.09 -0.09)">
       <defs>
        <path id="DejaVuSans-35" d="M 691 4666 
L 3169 4666 
L 3169 4134 
L 1269 4134 
L 1269 2991 
Q 1406 3038 1543 3061 
Q 1681 3084 1819 3084 
Q 2600 3084 3056 2656 
Q 3513 2228 3513 1497 
Q 3513 744 3044 326 
Q 2575 -91 1722 -91 
Q 1428 -91 1123 -41 
Q 819 9 494 109 
L 494 744 
Q 775 591 1075 516 
Q 1375 441 1709 441 
Q 2250 441 2565 725 
Q 2881 1009 2881 1497 
Q 2881 1984 2565 2268 
Q 2250 2553 1709 2553 
Q 1456 2553 1204 2497 
Q 953 2441 691 2322 
L 691 4666 
z
" transform="scale(0.015625)"/>
       </defs>
       <use xlink:href="#DejaVuSans-35"/>
       <use xlink:href="#DejaVuSans-30" transform="translate(63.623047 0)"/>
       <use xlink:href="#DejaVuSans-30" transform="translate(127.246094 0)"/>
      </g>
     </g>
    </g>
    <g id="xtick_7">
     <g id="line2d_13">
      <path d="M 439.188256 254.254313 
L 439.188256 21.406313 
" clip-path="url(#p9a8a9f5e20)" style="fill: none; stroke: #b0b0b0; stroke-opacity: 0.25; stroke-width: 0.8; stroke-linecap: square"/>
     </g>
     <g id="line2d_14">
      <g>
       <use xlink:href="#m05724045d9" x="439.188256" y="254.254313" style="stroke: #000000; stroke-width: 0.8"/>
      </g>
     </g>
     <g id="text_7">
      <!-- 600 -->
      <g transform="translate(430.598881 268.092906) scale(0.09 -0.09)">
       <defs>
        <path id="DejaVuSans-36" d="M 2113 2584 
Q 1688 2584 1439 2293 
Q 1191 2003 1191 1497 
Q 1191 994 1439 701 
Q 1688 409 2113 409 
Q 2538 409 2786 701 
Q 3034 994 3034 1497 
Q 3034 2003 2786 2293 
Q 2538 2584 2113 2584 
z
M 3366 4563 
L 3366 3988 
Q 3128 4100 2886 4159 
Q 2644 4219 2406 4219 
Q 1781 4219 1451 3797 
Q 1122 3375 1075 2522 
Q 1259 2794 1537 2939 
Q 1816 3084 2150 3084 
Q 2853 3084 3261 2657 
Q 3669 2231 3669 1497 
Q 3669 778 3244 343 
Q 2819 -91 2113 -91 
Q 1303 -91 875 529 
Q 447 1150 447 2328 
Q 447 3434 972 4092 
Q 1497 4750 2381 4750 
Q 2619 4750 2861 4703 
Q 3103 4656 3366 4563 
z
" transform="scale(0.015625)"/>
       </defs>
       <use xlink:href="#DejaVuSans-36"/>
       <use xlink:href="#DejaVuSans-30" transform="translate(63.623047 0)"/>
       <use xlink:href="#DejaVuSans-30" transform="translate(127.246094 0)"/>
      </g>
     </g>
    </g>
    <g id="text_8">
     <!-- C-alpha index -->
     <g transform="translate(216.846875 280.803219) scale(0.09 -0.09)">
      <defs>
       <path id="DejaVuSans-43" d="M 4122 4306 
L 4122 3641 
Q 3803 3938 3442 4084 
Q 3081 4231 2675 4231 
Q 1875 4231 1450 3742 
Q 1025 3253 1025 2328 
Q 1025 1406 1450 917 
Q 1875 428 2675 428 
Q 3081 428 3442 575 
Q 3803 722 4122 1019 
L 4122 359 
Q 3791 134 3420 21 
Q 3050 -91 2638 -91 
Q 1578 -91 968 557 
Q 359 1206 359 2328 
Q 359 3453 968 4101 
Q 1578 4750 2638 4750 
Q 3056 4750 3426 4639 
Q 3797 4528 4122 4306 
z
" transform="scale(0.015625)"/>
       <path id="DejaVuSans-2d" d="M 313 2009 
L 1997 2009 
L 1997 1497 
L 313 1497 
L 313 2009 
z
" transform="scale(0.015625)"/>
       <path id="DejaVuSans-61" d="M 2194 1759 
Q 1497 1759 1228 1600 
Q 959 1441 959 1056 
Q 959 750 1161 570 
Q 1363 391 1709 391 
Q 2188 391 2477 730 
Q 2766 1069 2766 1631 
L 2766 1759 
L 2194 1759 
z
M 3341 1997 
L 3341 0 
L 2766 0 
L 2766 531 
Q 2569 213 2275 61 
Q 1981 -91 1556 -91 
Q 1019 -91 701 211 
Q 384 513 384 1019 
Q 384 1609 779 1909 
Q 1175 2209 1959 2209 
L 2766 2209 
L 2766 2266 
Q 2766 2663 2505 2880 
Q 2244 3097 1772 3097 
Q 1472 3097 1187 3025 
Q 903 2953 641 2809 
L 641 3341 
Q 956 3463 1253 3523 
Q 1550 3584 1831 3584 
Q 2591 3584 2966 3190 
Q 3341 2797 3341 1997 
z
" transform="scale(0.015625)"/>
       <path id="DejaVuSans-6c" d="M 603 4863 
L 1178 4863 
L 1178 0 
L 603 0 
L 603 4863 
z
" transform="scale(0.015625)"/>
       <path id="DejaVuSans-70" d="M 1159 525 
L 1159 -1331 
L 581 -1331 
L 581 3500 
L 1159 3500 
L 1159 2969 
Q 1341 3281 1617 3432 
Q 1894 3584 2278 3584 
Q 2916 3584 3314 3078 
Q 3713 2572 3713 1747 
Q 3713 922 3314 415 
Q 2916 -91 2278 -91 
Q 1894 -91 1617 61 
Q 1341 213 1159 525 
z
M 3116 1747 
Q 3116 2381 2855 2742 
Q 2594 3103 2138 3103 
Q 1681 3103 1420 2742 
Q 1159 2381 1159 1747 
Q 1159 1113 1420 752 
Q 1681 391 2138 391 
Q 2594 391 2855 752 
Q 3116 1113 3116 1747 
z
" transform="scale(0.015625)"/>
       <path id="DejaVuSans-68" d="M 3513 2113 
L 3513 0 
L 2938 0 
L 2938 2094 
Q 2938 2591 2744 2837 
Q 2550 3084 2163 3084 
Q 1697 3084 1428 2787 
Q 1159 2491 1159 1978 
L 1159 0 
L 581 0 
L 581 4863 
L 1159 4863 
L 1159 2956 
Q 1366 3272 1645 3428 
Q 1925 3584 2291 3584 
Q 2894 3584 3203 3211 
Q 3513 2838 3513 2113 
z
" transform="scale(0.015625)"/>
       <path id="DejaVuSans-20" transform="scale(0.015625)"/>
       <path id="DejaVuSans-69" d="M 603 3500 
L 1178 3500 
L 1178 0 
L 603 0 
L 603 3500 
z
M 603 4863 
L 1178 4863 
L 1178 4134 
L 603 4134 
L 603 4863 
z
" transform="scale(0.015625)"/>
       <path id="DejaVuSans-6e" d="M 3513 2113 
L 3513 0 
L 2938 0 
L 2938 2094 
Q 2938 2591 2744 2837 
Q 2550 3084 2163 3084 
Q 1697 3084 1428 2787 
Q 1159 2491 1159 1978 
L 1159 0 
L 581 0 
L 581 3500 
L 1159 3500 
L 1159 2956 
Q 1366 3272 1645 3428 
Q 1925 3584 2291 3584 
Q 2894 3584 3203 3211 
Q 3513 2838 3513 2113 
z
" transform="scale(0.015625)"/>
       <path id="DejaVuSans-64" d="M 2906 2969 
L 2906 4863 
L 3481 4863 
L 3481 0 
L 2906 0 
L 2906 525 
Q 2725 213 2448 61 
Q 2172 -91 1784 -91 
Q 1150 -91 751 415 
Q 353 922 353 1747 
Q 353 2572 751 3078 
Q 1150 3584 1784 3584 
Q 2172 3584 2448 3432 
Q 2725 3281 2906 2969 
z
M 947 1747 
Q 947 1113 1208 752 
Q 1469 391 1925 391 
Q 2381 391 2643 752 
Q 2906 1113 2906 1747 
Q 2906 2381 2643 2742 
Q 2381 3103 1925 3103 
Q 1469 3103 1208 2742 
Q 947 2381 947 1747 
z
" transform="scale(0.015625)"/>
       <path id="DejaVuSans-65" d="M 3597 1894 
L 3597 1613 
L 953 1613 
Q 991 1019 1311 708 
Q 1631 397 2203 397 
Q 2534 397 2845 478 
Q 3156 559 3463 722 
L 3463 178 
Q 3153 47 2828 -22 
Q 2503 -91 2169 -91 
Q 1331 -91 842 396 
Q 353 884 353 1716 
Q 353 2575 817 3079 
Q 1281 3584 2069 3584 
Q 2775 3584 3186 3129 
Q 3597 2675 3597 1894 
z
M 3022 2063 
Q 3016 2534 2758 2815 
Q 2500 3097 2075 3097 
Q 1594 3097 1305 2825 
Q 1016 2553 972 2059 
L 3022 2063 
z
" transform="scale(0.015625)"/>
       <path id="DejaVuSans-78" d="M 3513 3500 
L 2247 1797 
L 3578 0 
L 2900 0 
L 1881 1375 
L 863 0 
L 184 0 
L 1544 1831 
L 300 3500 
L 978 3500 
L 1906 2253 
L 2834 3500 
L 3513 3500 
z
" transform="scale(0.015625)"/>
      </defs>
      <use xlink:href="#DejaVuSans-43"/>
      <use xlink:href="#DejaVuSans-2d" transform="translate(69.824219 0)"/>
      <use xlink:href="#DejaVuSans-61" transform="translate(105.908203 0)"/>
      <use xlink:href="#DejaVuSans-6c" transform="translate(167.1875 0)"/>
      <use xlink:href="#DejaVuSans-70" transform="translate(194.970703 0)"/>
      <use xlink:href="#DejaVuSans-68" transform="translate(258.447266 0)"/>
      <use xlink:href="#DejaVuSans-61" transform="translate(321.826172 0)"/>
      <use xlink:href="#DejaVuSans-20" transform="translate(383.105469 0)"/>
      <use xlink:href="#DejaVuSans-69" transform="translate(414.892578 0)"/>
      <use xlink:href="#DejaVuSans-6e" transform="translate(442.675781 0)"/>
      <use xlink:href="#DejaVuSans-64" transform="translate(506.054688 0)"/>
      <use xlink:href="#DejaVuSans-65" transform="translate(569.53125 0)"/>
      <use xlink:href="#DejaVuSans-78" transform="translate(629.304688 0)"/>
     </g>
    </g>
   </g>
   <g id="matplotlib.axis_2">
    <g id="ytick_1">
     <g id="line2d_15">
      <path d="M 46.949375 248.141342 
L 448.709375 248.141342 
" clip-path="url(#p9a8a9f5e20)" style="fill: none; stroke: #b0b0b0; stroke-opacity: 0.25; stroke-width: 0.8; stroke-linecap: square"/>
     </g>
     <g id="line2d_16">
      <defs>
       <path id="md3e4a6a61c" d="M 0 0 
L -3.5 0 
" style="stroke: #000000; stroke-width: 0.8"/>
      </defs>
      <g>
       <use xlink:href="#md3e4a6a61c" x="46.949375" y="248.141342" style="stroke: #000000; stroke-width: 0.8"/>
      </g>
     </g>
     <g id="text_9">
      <!-- 0.0 -->
      <g transform="translate(25.636563 251.560639) scale(0.09 -0.09)">
       <defs>
        <path id="DejaVuSans-2e" d="M 684 794 
L 1344 794 
L 1344 0 
L 684 0 
L 684 794 
z
" transform="scale(0.015625)"/>
       </defs>
       <use xlink:href="#DejaVuSans-30"/>
       <use xlink:href="#DejaVuSans-2e" transform="translate(63.623047 0)"/>
       <use xlink:href="#DejaVuSans-30" transform="translate(95.410156 0)"/>
      </g>
     </g>
    </g>
    <g id="ytick_2">
     <g id="line2d_17">
      <path d="M 46.949375 220.992758 
L 448.709375 220.992758 
" clip-path="url(#p9a8a9f5e20)" style="fill: none; stroke: #b0b0b0; stroke-opacity: 0.25; stroke-width: 0.8; stroke-linecap: square"/>
     </g>
     <g id="line2d_18">
      <g>
       <use xlink:href="#md3e4a6a61c" x="46.949375" y="220.992758" style="stroke: #000000; stroke-width: 0.8"/>
      </g>
     </g>
     <g id="text_10">
      <!-- 2.5 -->
      <g transform="translate(25.636563 224.412055) scale(0.09 -0.09)">
       <use xlink:href="#DejaVuSans-32"/>
       <use xlink:href="#DejaVuSans-2e" transform="translate(63.623047 0)"/>
       <use xlink:href="#DejaVuSans-35" transform="translate(95.410156 0)"/>
      </g>
     </g>
    </g>
    <g id="ytick_3">
     <g id="line2d_19">
      <path d="M 46.949375 193.844174 
L 448.709375 193.844174 
" clip-path="url(#p9a8a9f5e20)" style="fill: none; stroke: #b0b0b0; stroke-opacity: 0.25; stroke-width: 0.8; stroke-linecap: square"/>
     </g>
     <g id="line2d_20">
      <g>
       <use xlink:href="#md3e4a6a61c" x="46.949375" y="193.844174" style="stroke: #000000; stroke-width: 0.8"/>
      </g>
     </g>
     <g id="text_11">
      <!-- 5.0 -->
      <g transform="translate(25.636563 197.263471) scale(0.09 -0.09)">
       <use xlink:href="#DejaVuSans-35"/>
       <use xlink:href="#DejaVuSans-2e" transform="translate(63.623047 0)"/>
       <use xlink:href="#DejaVuSans-30" transform="translate(95.410156 0)"/>
      </g>
     </g>
    </g>
    <g id="ytick_4">
     <g id="line2d_21">
      <path d="M 46.949375 166.695591 
L 448.709375 166.695591 
" clip-path="url(#p9a8a9f5e20)" style="fill: none; stroke: #b0b0b0; stroke-opacity: 0.25; stroke-width: 0.8; stroke-linecap: square"/>
     </g>
     <g id="line2d_22">
      <g>
       <use xlink:href="#md3e4a6a61c" x="46.949375" y="166.695591" style="stroke: #000000; stroke-width: 0.8"/>
      </g>
     </g>
     <g id="text_12">
      <!-- 7.5 -->
      <g transform="translate(25.636563 170.114887) scale(0.09 -0.09)">
       <defs>
        <path id="DejaVuSans-37" d="M 525 4666 
L 3525 4666 
L 3525 4397 
L 1831 0 
L 1172 0 
L 2766 4134 
L 525 4134 
L 525 4666 
z
" transform="scale(0.015625)"/>
       </defs>
       <use xlink:href="#DejaVuSans-37"/>
       <use xlink:href="#DejaVuSans-2e" transform="translate(63.623047 0)"/>
       <use xlink:href="#DejaVuSans-35" transform="translate(95.410156 0)"/>
      </g>
     </g>
    </g>
    <g id="ytick_5">
     <g id="line2d_23">
      <path d="M 46.949375 139.547007 
L 448.709375 139.547007 
" clip-path="url(#p9a8a9f5e20)" style="fill: none; stroke: #b0b0b0; stroke-opacity: 0.25; stroke-width: 0.8; stroke-linecap: square"/>
     </g>
     <g id="line2d_24">
      <g>
       <use xlink:href="#md3e4a6a61c" x="46.949375" y="139.547007" style="stroke: #000000; stroke-width: 0.8"/>
      </g>
     </g>
     <g id="text_13">
      <!-- 10.0 -->
      <g transform="translate(19.910313 142.966304) scale(0.09 -0.09)">
       <use xlink:href="#DejaVuSans-31"/>
       <use xlink:href="#DejaVuSans-30" transform="translate(63.623047 0)"/>
       <use xlink:href="#DejaVuSans-2e" transform="translate(127.246094 0)"/>
       <use xlink:href="#DejaVuSans-30" transform="translate(159.033203 0)"/>
      </g>
     </g>
    </g>
    <g id="ytick_6">
     <g id="line2d_25">
      <path d="M 46.949375 112.398423 
L 448.709375 112.398423 
" clip-path="url(#p9a8a9f5e20)" style="fill: none; stroke: #b0b0b0; stroke-opacity: 0.25; stroke-width: 0.8; stroke-linecap: square"/>
     </g>
     <g id="line2d_26">
      <g>
       <use xlink:href="#md3e4a6a61c" x="46.949375" y="112.398423" style="stroke: #000000; stroke-width: 0.8"/>
      </g>
     </g>
     <g id="text_14">
      <!-- 12.5 -->
      <g transform="translate(19.910313 115.81772) scale(0.09 -0.09)">
       <use xlink:href="#DejaVuSans-31"/>
       <use xlink:href="#DejaVuSans-32" transform="translate(63.623047 0)"/>
       <use xlink:href="#DejaVuSans-2e" transform="translate(127.246094 0)"/>
       <use xlink:href="#DejaVuSans-35" transform="translate(159.033203 0)"/>
      </g>
     </g>
    </g>
    <g id="ytick_7">
     <g id="line2d_27">
      <path d="M 46.949375 85.249839 
L 448.709375 85.249839 
" clip-path="url(#p9a8a9f5e20)" style="fill: none; stroke: #b0b0b0; stroke-opacity: 0.25; stroke-width: 0.8; stroke-linecap: square"/>
     </g>
     <g id="line2d_28">
      <g>
       <use xlink:href="#md3e4a6a61c" x="46.949375" y="85.249839" style="stroke: #000000; stroke-width: 0.8"/>
      </g>
     </g>
     <g id="text_15">
      <!-- 15.0 -->
      <g transform="translate(19.910313 88.669136) scale(0.09 -0.09)">
       <use xlink:href="#DejaVuSans-31"/>
       <use xlink:href="#DejaVuSans-35" transform="translate(63.623047 0)"/>
       <use xlink:href="#DejaVuSans-2e" transform="translate(127.246094 0)"/>
       <use xlink:href="#DejaVuSans-30" transform="translate(159.033203 0)"/>
      </g>
     </g>
    </g>
    <g id="ytick_8">
     <g id="line2d_29">
      <path d="M 46.949375 58.101256 
L 448.709375 58.101256 
" clip-path="url(#p9a8a9f5e20)" style="fill: none; stroke: #b0b0b0; stroke-opacity: 0.25; stroke-width: 0.8; stroke-linecap: square"/>
     </g>
     <g id="line2d_30">
      <g>
       <use xlink:href="#md3e4a6a61c" x="46.949375" y="58.101256" style="stroke: #000000; stroke-width: 0.8"/>
      </g>
     </g>
     <g id="text_16">
      <!-- 17.5 -->
      <g transform="translate(19.910313 61.520553) scale(0.09 -0.09)">
       <use xlink:href="#DejaVuSans-31"/>
       <use xlink:href="#DejaVuSans-37" transform="translate(63.623047 0)"/>
       <use xlink:href="#DejaVuSans-2e" transform="translate(127.246094 0)"/>
       <use xlink:href="#DejaVuSans-35" transform="translate(159.033203 0)"/>
      </g>
     </g>
    </g>
    <g id="ytick_9">
     <g id="line2d_31">
      <path d="M 46.949375 30.952672 
L 448.709375 30.952672 
" clip-path="url(#p9a8a9f5e20)" style="fill: none; stroke: #b0b0b0; stroke-opacity: 0.25; stroke-width: 0.8; stroke-linecap: square"/>
     </g>
     <g id="line2d_32">
      <g>
       <use xlink:href="#md3e4a6a61c" x="46.949375" y="30.952672" style="stroke: #000000; stroke-width: 0.8"/>
      </g>
     </g>
     <g id="text_17">
      <!-- 20.0 -->
      <g transform="translate(19.910313 34.371969) scale(0.09 -0.09)">
       <use xlink:href="#DejaVuSans-32"/>
       <use xlink:href="#DejaVuSans-30" transform="translate(63.623047 0)"/>
       <use xlink:href="#DejaVuSans-2e" transform="translate(127.246094 0)"/>
       <use xlink:href="#DejaVuSans-30" transform="translate(159.033203 0)"/>
      </g>
     </g>
    </g>
    <g id="text_18">
     <!-- RMSF (A) -->
     <g transform="translate(14.038594 158.304609) rotate(-90) scale(0.09 -0.09)">
      <defs>
       <path id="DejaVuSans-52" d="M 2841 2188 
Q 3044 2119 3236 1894 
Q 3428 1669 3622 1275 
L 4263 0 
L 3584 0 
L 2988 1197 
Q 2756 1666 2539 1819 
Q 2322 1972 1947 1972 
L 1259 1972 
L 1259 0 
L 628 0 
L 628 4666 
L 2053 4666 
Q 2853 4666 3247 4331 
Q 3641 3997 3641 3322 
Q 3641 2881 3436 2590 
Q 3231 2300 2841 2188 
z
M 1259 4147 
L 1259 2491 
L 2053 2491 
Q 2509 2491 2742 2702 
Q 2975 2913 2975 3322 
Q 2975 3731 2742 3939 
Q 2509 4147 2053 4147 
L 1259 4147 
z
" transform="scale(0.015625)"/>
       <path id="DejaVuSans-4d" d="M 628 4666 
L 1569 4666 
L 2759 1491 
L 3956 4666 
L 4897 4666 
L 4897 0 
L 4281 0 
L 4281 4097 
L 3078 897 
L 2444 897 
L 1241 4097 
L 1241 0 
L 628 0 
L 628 4666 
z
" transform="scale(0.015625)"/>
       <path id="DejaVuSans-53" d="M 3425 4513 
L 3425 3897 
Q 3066 4069 2747 4153 
Q 2428 4238 2131 4238 
Q 1616 4238 1336 4038 
Q 1056 3838 1056 3469 
Q 1056 3159 1242 3001 
Q 1428 2844 1947 2747 
L 2328 2669 
Q 3034 2534 3370 2195 
Q 3706 1856 3706 1288 
Q 3706 609 3251 259 
Q 2797 -91 1919 -91 
Q 1588 -91 1214 -16 
Q 841 59 441 206 
L 441 856 
Q 825 641 1194 531 
Q 1563 422 1919 422 
Q 2459 422 2753 634 
Q 3047 847 3047 1241 
Q 3047 1584 2836 1778 
Q 2625 1972 2144 2069 
L 1759 2144 
Q 1053 2284 737 2584 
Q 422 2884 422 3419 
Q 422 4038 858 4394 
Q 1294 4750 2059 4750 
Q 2388 4750 2728 4690 
Q 3069 4631 3425 4513 
z
" transform="scale(0.015625)"/>
       <path id="DejaVuSans-46" d="M 628 4666 
L 3309 4666 
L 3309 4134 
L 1259 4134 
L 1259 2759 
L 3109 2759 
L 3109 2228 
L 1259 2228 
L 1259 0 
L 628 0 
L 628 4666 
z
" transform="scale(0.015625)"/>
       <path id="DejaVuSans-28" d="M 1984 4856 
Q 1566 4138 1362 3434 
Q 1159 2731 1159 2009 
Q 1159 1288 1364 580 
Q 1569 -128 1984 -844 
L 1484 -844 
Q 1016 -109 783 600 
Q 550 1309 550 2009 
Q 550 2706 781 3412 
Q 1013 4119 1484 4856 
L 1984 4856 
z
" transform="scale(0.015625)"/>
       <path id="DejaVuSans-41" d="M 2188 4044 
L 1331 1722 
L 3047 1722 
L 2188 4044 
z
M 1831 4666 
L 2547 4666 
L 4325 0 
L 3669 0 
L 3244 1197 
L 1141 1197 
L 716 0 
L 50 0 
L 1831 4666 
z
" transform="scale(0.015625)"/>
       <path id="DejaVuSans-29" d="M 513 4856 
L 1013 4856 
Q 1481 4119 1714 3412 
Q 1947 2706 1947 2009 
Q 1947 1309 1714 600 
Q 1481 -109 1013 -844 
L 513 -844 
Q 928 -128 1133 580 
Q 1338 1288 1338 2009 
Q 1338 2731 1133 3434 
Q 928 4138 513 4856 
z
" transform="scale(0.015625)"/>
      </defs>
      <use xlink:href="#DejaVuSans-52"/>
      <use xlink:href="#DejaVuSans-4d" transform="translate(69.482422 0)"/>
      <use xlink:href="#DejaVuSans-53" transform="translate(155.761719 0)"/>
      <use xlink:href="#DejaVuSans-46" transform="translate(219.238281 0)"/>
      <use xlink:href="#DejaVuSans-20" transform="translate(276.757812 0)"/>
      <use xlink:href="#DejaVuSans-28" transform="translate(308.544922 0)"/>
      <use xlink:href="#DejaVuSans-41" transform="translate(347.558594 0)"/>
      <use xlink:href="#DejaVuSans-29" transform="translate(415.966797 0)"/>
     </g>
    </g>
   </g>
   <g id="line2d_33">
    <path d="M 65.211193 31.990313 
L 65.835529 97.299966 
L 66.459865 232.715696 
L 67.0842 238.795325 
L 67.708536 239.517908 
L 68.332872 237.531759 
L 68.957207 237.784737 
L 69.581543 240.316523 
L 70.205878 240.270294 
L 70.830214 238.738304 
L 71.45455 239.157551 
L 72.078885 240.706441 
L 72.703221 239.798001 
L 73.327557 238.511153 
L 73.951892 239.441101 
L 74.576228 240.621322 
L 75.824899 239.132138 
L 76.449235 239.81465 
L 77.073571 239.300911 
L 77.697906 238.391491 
L 78.322242 238.46211 
L 78.946578 236.819282 
L 80.195249 234.100559 
L 80.819585 232.229698 
L 81.44392 230.947467 
L 82.068256 228.642232 
L 82.692592 233.250082 
L 83.316927 227.707062 
L 83.941263 235.420983 
L 84.565599 237.444022 
L 85.189934 235.037691 
L 85.81427 236.977253 
L 86.438606 241.321598 
L 87.062941 241.710435 
L 87.687277 240.761319 
L 88.311613 240.769196 
L 88.935948 239.990817 
L 89.560284 241.040494 
L 90.18462 240.288565 
L 90.808955 241.499225 
L 91.433291 240.734869 
L 92.057627 241.502518 
L 92.681962 241.958359 
L 93.930634 242.331091 
L 94.554969 242.055368 
L 95.179305 242.74466 
L 95.803641 241.961067 
L 96.427976 241.819274 
L 97.052312 241.914122 
L 97.676648 240.608071 
L 98.300983 240.268756 
L 98.925319 240.659918 
L 99.549655 240.604384 
L 100.17399 241.792238 
L 101.422662 242.738951 
L 102.046997 242.440623 
L 102.671333 241.74513 
L 103.295669 242.22767 
L 103.920004 241.400021 
L 104.54434 241.597645 
L 105.168676 241.168758 
L 105.793011 241.638937 
L 106.417347 241.444949 
L 107.041683 240.772613 
L 107.666018 241.294855 
L 108.290354 240.248736 
L 108.91469 238.535861 
L 109.539025 239.631337 
L 110.163361 241.118546 
L 110.787697 240.912063 
L 112.036368 239.709913 
L 113.285039 239.742658 
L 113.909375 239.183055 
L 114.533711 239.286587 
L 115.158046 241.016546 
L 115.782382 241.108709 
L 117.031053 239.727449 
L 118.279725 241.611488 
L 118.90406 240.599582 
L 119.528396 240.964812 
L 120.152732 242.196676 
L 120.777067 242.130373 
L 121.401403 242.499874 
L 122.025739 242.425534 
L 122.650074 242.747522 
L 123.27441 242.39523 
L 123.898746 242.252035 
L 124.523081 242.833102 
L 125.147417 242.589785 
L 125.771753 242.128865 
L 126.396088 241.413628 
L 127.020424 241.166719 
L 127.64476 240.042459 
L 128.269095 240.480057 
L 128.893431 240.500694 
L 129.517767 243.063879 
L 130.766438 243.492726 
L 132.639445 243.215143 
L 133.263781 243.218473 
L 133.888116 242.638483 
L 134.512452 242.866379 
L 135.761123 241.300598 
L 136.385459 240.336431 
L 137.63413 242.387201 
L 138.882802 243.065323 
L 139.507137 242.781445 
L 140.131473 242.269364 
L 140.755809 242.713673 
L 141.380144 243.347947 
L 142.00448 242.785699 
L 142.628816 242.381089 
L 143.253151 242.502381 
L 143.877487 242.865553 
L 144.501823 242.009701 
L 145.126158 241.590219 
L 145.750494 242.278546 
L 146.37483 241.717925 
L 146.999165 240.097095 
L 147.623501 240.370562 
L 148.247837 242.438776 
L 148.872172 243.187073 
L 149.496508 242.394657 
L 150.120844 242.229738 
L 150.745179 242.849365 
L 151.369515 242.281255 
L 151.993851 242.57691 
L 152.618186 243.225704 
L 153.242522 242.717467 
L 153.866858 241.879723 
L 154.491193 242.326645 
L 155.739865 239.901137 
L 156.988536 240.862248 
L 157.612872 236.85763 
L 158.237207 234.219203 
L 158.861543 233.818935 
L 159.485878 227.579263 
L 160.110214 232.864624 
L 160.73455 236.598329 
L 161.358885 234.502224 
L 162.607557 237.853578 
L 163.231892 238.691847 
L 163.856228 240.333651 
L 164.480564 240.34422 
L 165.104899 240.005768 
L 165.729235 241.484013 
L 166.353571 241.360162 
L 166.977906 240.828956 
L 167.602242 242.051386 
L 168.226578 242.365354 
L 168.850913 241.409879 
L 169.475249 241.14489 
L 170.099585 241.988039 
L 170.72392 241.666716 
L 171.348256 240.937732 
L 171.972592 239.401935 
L 172.596927 239.038026 
L 173.221263 242.440739 
L 173.845599 240.61126 
L 174.469934 241.276887 
L 175.09427 242.559081 
L 175.718606 242.516714 
L 176.342941 242.117693 
L 176.967277 242.654772 
L 177.591613 241.390376 
L 178.215948 241.384649 
L 178.840284 242.305691 
L 179.46462 242.437848 
L 180.088955 242.792085 
L 180.713291 242.498509 
L 181.337627 242.554048 
L 181.961962 242.870445 
L 182.586298 242.054003 
L 183.210634 241.484968 
L 183.834969 242.369584 
L 184.459305 242.646107 
L 185.083641 242.064469 
L 185.707976 242.066443 
L 186.332312 242.596604 
L 186.956648 242.354838 
L 187.580983 241.383791 
L 188.829655 242.327007 
L 190.078326 240.539024 
L 190.702662 241.087381 
L 191.326997 240.896703 
L 191.951333 239.334956 
L 192.575669 239.548939 
L 193.200004 240.077717 
L 193.82434 238.87226 
L 194.448676 238.979561 
L 195.073011 240.440224 
L 196.321683 238.905657 
L 196.946018 240.075903 
L 197.570354 240.917536 
L 198.19469 239.095299 
L 198.819025 236.636304 
L 199.443361 238.606429 
L 200.067697 236.282182 
L 201.940704 232.084971 
L 202.565039 231.458215 
L 203.813711 201.690734 
L 204.438046 194.104475 
L 205.062382 196.038785 
L 205.686718 192.301744 
L 206.311053 192.314743 
L 206.935389 204.726301 
L 207.559725 205.9257 
L 208.18406 213.656894 
L 208.808396 224.402181 
L 209.432732 223.462455 
L 210.057067 228.480856 
L 210.681403 225.870333 
L 211.305739 227.744907 
L 211.930074 231.492893 
L 213.178746 236.277052 
L 213.803081 235.38501 
L 214.427417 235.532914 
L 215.051753 238.538495 
L 215.676088 240.395306 
L 217.549095 240.624429 
L 218.173431 239.895356 
L 219.422102 237.72132 
L 220.046438 234.950961 
L 220.670774 229.694594 
L 221.295109 232.238255 
L 221.919445 230.942022 
L 222.543781 233.779593 
L 223.168116 238.727398 
L 223.792452 237.785225 
L 224.416788 240.550879 
L 225.041123 239.991289 
L 225.665459 238.674905 
L 226.289795 240.504431 
L 226.91413 240.765193 
L 227.538466 240.324237 
L 228.162802 240.466773 
L 228.787137 241.39746 
L 229.411473 241.47913 
L 230.035809 241.28665 
L 230.660144 239.930771 
L 231.28448 239.37279 
L 231.908816 240.05081 
L 232.533151 240.922281 
L 233.157487 242.243802 
L 233.781823 242.112791 
L 234.406158 242.407102 
L 235.030494 242.105898 
L 235.65483 242.494485 
L 236.279165 243.033206 
L 236.903501 240.660642 
L 237.527837 241.982519 
L 238.152172 241.746631 
L 238.776508 242.065402 
L 239.400844 242.24575 
L 240.025179 241.756116 
L 240.649515 240.555601 
L 241.273851 240.791077 
L 241.898186 239.317551 
L 242.522522 228.260849 
L 243.146858 241.995309 
L 243.771193 242.485158 
L 244.395529 241.945938 
L 245.019865 241.977826 
L 245.6442 242.533343 
L 246.268536 242.811679 
L 248.141543 242.889033 
L 249.390214 243.372453 
L 250.01455 243.173671 
L 250.638885 242.126423 
L 251.263221 241.712917 
L 251.887557 242.287923 
L 253.136228 238.988781 
L 253.760564 240.69389 
L 255.633571 241.317363 
L 256.257906 241.001646 
L 256.882242 241.27537 
L 258.755249 242.592217 
L 259.379585 241.967221 
L 260.00392 242.279237 
L 260.628256 242.898512 
L 261.252592 242.984263 
L 261.876927 242.462239 
L 263.125599 242.020543 
L 263.749934 241.945176 
L 264.37427 239.953613 
L 264.998606 238.476723 
L 265.622941 238.957125 
L 266.247277 239.643598 
L 266.871613 239.629463 
L 267.495948 239.105405 
L 268.120284 236.228161 
L 268.74462 236.95514 
L 269.368955 237.480447 
L 269.993291 234.177989 
L 270.617627 235.059164 
L 271.241962 238.999064 
L 271.866298 236.926754 
L 272.490634 234.145648 
L 273.114969 236.351957 
L 273.739305 239.535246 
L 274.363641 238.041753 
L 274.987976 238.541342 
L 275.612312 237.316523 
L 276.236648 238.700734 
L 276.860983 235.699255 
L 277.485319 240.948654 
L 278.109655 241.097991 
L 278.73399 240.620536 
L 279.358326 241.592526 
L 279.982662 240.962015 
L 280.606997 241.966385 
L 281.231333 242.275352 
L 281.855669 241.915828 
L 282.480004 241.72697 
L 283.10434 241.697268 
L 283.728676 240.74615 
L 284.353011 240.865207 
L 284.977347 241.428848 
L 285.601683 241.692146 
L 286.850354 241.169323 
L 287.47469 241.064985 
L 288.099025 241.863406 
L 288.723361 242.198579 
L 289.347697 241.807082 
L 289.972032 242.187933 
L 290.596368 242.892268 
L 291.220704 242.613835 
L 291.845039 242.047388 
L 292.469375 242.655601 
L 293.093711 242.965334 
L 293.718046 243.065454 
L 294.342382 243.411342 
L 294.966718 243.045796 
L 295.591053 241.552132 
L 296.215389 241.205989 
L 296.839725 242.749876 
L 297.46406 242.800162 
L 298.088396 243.546649 
L 298.712732 242.754532 
L 299.337067 241.388677 
L 299.961403 243.283204 
L 300.585739 243.448536 
L 301.210074 243.147438 
L 303.083081 243.607849 
L 303.707417 243.670313 
L 304.956088 243.296502 
L 305.580424 242.997294 
L 306.829095 242.920557 
L 308.702102 241.166496 
L 309.326438 240.910293 
L 309.950774 238.81121 
L 310.575109 237.925231 
L 311.199445 236.276427 
L 311.823781 233.361797 
L 312.448116 236.223497 
L 313.072452 234.986138 
L 313.696788 237.106225 
L 314.321123 238.352847 
L 315.569795 240.114485 
L 316.19413 240.781987 
L 316.818466 240.307294 
L 317.442802 240.960375 
L 318.067137 240.776131 
L 318.691473 241.300581 
L 319.315809 240.881196 
L 319.940144 242.046704 
L 321.188816 238.516825 
L 321.813151 239.290092 
L 322.437487 240.261803 
L 323.061823 240.357119 
L 323.686158 239.690598 
L 324.310494 239.534743 
L 324.93483 240.182046 
L 325.559165 239.893051 
L 326.183501 238.868793 
L 326.807837 239.664645 
L 327.432172 240.039319 
L 328.056508 239.202474 
L 328.680844 239.512009 
L 329.305179 239.524136 
L 329.929515 238.126607 
L 330.553851 237.505069 
L 331.178186 238.933885 
L 331.802522 237.75308 
L 333.051193 227.149688 
L 333.675529 236.350906 
L 334.299865 239.831087 
L 334.9242 238.989083 
L 335.548536 240.135266 
L 336.172872 241.788441 
L 336.797207 241.562711 
L 338.670214 241.983328 
L 339.29455 241.985191 
L 339.918885 240.809512 
L 340.543221 240.699398 
L 341.167557 241.632469 
L 342.416228 242.539593 
L 343.040564 242.15462 
L 343.664899 242.133922 
L 344.289235 241.374481 
L 344.913571 242.057596 
L 345.537906 241.730605 
L 346.162242 240.547352 
L 346.786578 240.262103 
L 347.410913 241.941759 
L 348.035249 241.509574 
L 348.659585 241.414281 
L 349.28392 241.112323 
L 349.908256 241.301698 
L 350.532592 241.105351 
L 351.156927 241.240826 
L 351.781263 242.179255 
L 352.405599 242.310981 
L 353.029934 242.761829 
L 353.65427 241.864221 
L 354.278606 241.493037 
L 354.902941 241.748564 
L 355.527277 241.865782 
L 356.151613 241.115202 
L 356.775948 240.614691 
L 357.400284 241.270145 
L 358.02462 241.433073 
L 358.648955 241.401849 
L 359.897627 240.957398 
L 360.521962 240.984183 
L 361.146298 241.239141 
L 361.770634 240.821329 
L 362.394969 239.645464 
L 363.019305 239.555441 
L 363.643641 240.093755 
L 364.267976 238.931075 
L 364.892312 238.277021 
L 366.140983 235.546724 
L 366.765319 236.576033 
L 367.389655 235.244512 
L 368.01399 232.829483 
L 368.638326 225.076147 
L 369.262662 218.767226 
L 369.886997 209.633291 
L 370.511333 205.055297 
L 371.135669 220.524845 
L 371.760004 210.655739 
L 372.38434 214.741085 
L 373.008676 206.505081 
L 373.633011 217.707411 
L 374.257347 225.594954 
L 374.881683 227.380608 
L 375.506018 226.648774 
L 376.130354 228.289708 
L 376.75469 227.404368 
L 377.379025 233.063464 
L 378.003361 234.745272 
L 378.627697 232.757279 
L 379.252032 238.444003 
L 380.500704 240.838594 
L 381.125039 241.417423 
L 382.373711 241.445011 
L 382.998046 242.187234 
L 383.622382 242.200928 
L 384.246718 241.20675 
L 384.871053 242.354338 
L 385.495389 242.645037 
L 386.119725 241.646361 
L 386.74406 241.725276 
L 387.368396 242.227343 
L 387.992732 241.580161 
L 388.617067 241.309275 
L 389.241403 241.914196 
L 389.865739 242.056626 
L 390.490074 240.976524 
L 391.11441 240.69028 
L 391.738746 241.226472 
L 392.363081 241.47416 
L 392.987417 239.682623 
L 393.611753 238.924455 
L 394.236088 239.941663 
L 394.860424 238.783472 
L 395.48476 239.056128 
L 396.109095 239.733719 
L 397.357767 239.17851 
L 397.982102 240.22693 
L 398.606438 241.759742 
L 399.230774 241.568359 
L 399.855109 240.825963 
L 400.479445 239.852815 
L 401.103781 242.113511 
L 401.728116 241.760737 
L 402.352452 240.567945 
L 402.976788 237.858514 
L 403.601123 239.408383 
L 404.225459 237.073994 
L 404.849795 235.275908 
L 405.47413 234.316517 
L 406.098466 232.429566 
L 406.722802 234.834456 
L 407.347137 236.400731 
L 407.971473 239.046122 
L 408.595809 238.363504 
L 409.220144 234.782869 
L 409.84448 236.142787 
L 410.468816 231.844438 
L 411.093151 237.239623 
L 411.717487 231.543576 
L 412.341823 229.271757 
L 412.966158 231.335465 
L 413.590494 236.207917 
L 414.21483 232.373808 
L 415.463501 226.614353 
L 416.087837 230.376229 
L 416.712172 230.535278 
L 417.336508 232.997304 
L 417.960844 234.449601 
L 418.585179 238.060995 
L 419.209515 239.152155 
L 419.833851 239.358906 
L 420.458186 240.106192 
L 421.082522 241.387813 
L 421.706858 240.539751 
L 422.331193 240.440442 
L 422.955529 240.852276 
L 424.2042 239.817479 
L 426.077207 240.076939 
L 426.701543 240.063172 
L 427.950214 240.341329 
L 428.57455 239.408187 
L 429.198885 239.619297 
L 429.823221 240.510427 
L 430.447557 240.188965 
L 430.447557 240.188965 
" clip-path="url(#p9a8a9f5e20)" style="fill: none; stroke: #365f91; stroke-linecap: square"/>
   </g>
   <g id="patch_3">
    <path d="M 46.949375 254.254313 
L 46.949375 21.406313 
" style="fill: none; stroke: #000000; stroke-width: 0.8; stroke-linejoin: miter; stroke-linecap: square"/>
   </g>
   <g id="patch_4">
    <path d="M 448.709375 254.254313 
L 448.709375 21.406313 
" style="fill: none; stroke: #000000; stroke-width: 0.8; stroke-linejoin: miter; stroke-linecap: square"/>
   </g>
   <g id="patch_5">
    <path d="M 46.949375 254.254313 
L 448.709375 254.254313 
" style="fill: none; stroke: #000000; stroke-width: 0.8; stroke-linejoin: miter; stroke-linecap: square"/>
   </g>
   <g id="patch_6">
    <path d="M 46.949375 21.406313 
L 448.709375 21.406313 
" style="fill: none; stroke: #000000; stroke-width: 0.8; stroke-linejoin: miter; stroke-linecap: square"/>
   </g>
   <g id="text_19">
    <!-- SGLT2 Mol_13144 rep3 C-alpha RMSF -->
    <g transform="translate(147.091531 15.406313) scale(0.108 -0.108)">
     <defs>
      <path id="DejaVuSans-47" d="M 3809 666 
L 3809 1919 
L 2778 1919 
L 2778 2438 
L 4434 2438 
L 4434 434 
Q 4069 175 3628 42 
Q 3188 -91 2688 -91 
Q 1594 -91 976 548 
Q 359 1188 359 2328 
Q 359 3472 976 4111 
Q 1594 4750 2688 4750 
Q 3144 4750 3555 4637 
Q 3966 4525 4313 4306 
L 4313 3634 
Q 3963 3931 3569 4081 
Q 3175 4231 2741 4231 
Q 1884 4231 1454 3753 
Q 1025 3275 1025 2328 
Q 1025 1384 1454 906 
Q 1884 428 2741 428 
Q 3075 428 3337 486 
Q 3600 544 3809 666 
z
" transform="scale(0.015625)"/>
      <path id="DejaVuSans-4c" d="M 628 4666 
L 1259 4666 
L 1259 531 
L 3531 531 
L 3531 0 
L 628 0 
L 628 4666 
z
" transform="scale(0.015625)"/>
      <path id="DejaVuSans-54" d="M -19 4666 
L 3928 4666 
L 3928 4134 
L 2272 4134 
L 2272 0 
L 1638 0 
L 1638 4134 
L -19 4134 
L -19 4666 
z
" transform="scale(0.015625)"/>
      <path id="DejaVuSans-6f" d="M 1959 3097 
Q 1497 3097 1228 2736 
Q 959 2375 959 1747 
Q 959 1119 1226 758 
Q 1494 397 1959 397 
Q 2419 397 2687 759 
Q 2956 1122 2956 1747 
Q 2956 2369 2687 2733 
Q 2419 3097 1959 3097 
z
M 1959 3584 
Q 2709 3584 3137 3096 
Q 3566 2609 3566 1747 
Q 3566 888 3137 398 
Q 2709 -91 1959 -91 
Q 1206 -91 779 398 
Q 353 888 353 1747 
Q 353 2609 779 3096 
Q 1206 3584 1959 3584 
z
" transform="scale(0.015625)"/>
      <path id="DejaVuSans-5f" d="M 3263 -1063 
L 3263 -1509 
L -63 -1509 
L -63 -1063 
L 3263 -1063 
z
" transform="scale(0.015625)"/>
      <path id="DejaVuSans-72" d="M 2631 2963 
Q 2534 3019 2420 3045 
Q 2306 3072 2169 3072 
Q 1681 3072 1420 2755 
Q 1159 2438 1159 1844 
L 1159 0 
L 581 0 
L 581 3500 
L 1159 3500 
L 1159 2956 
Q 1341 3275 1631 3429 
Q 1922 3584 2338 3584 
Q 2397 3584 2469 3576 
Q 2541 3569 2628 3553 
L 2631 2963 
z
" transform="scale(0.015625)"/>
     </defs>
     <use xlink:href="#DejaVuSans-53"/>
     <use xlink:href="#DejaVuSans-47" transform="translate(63.476562 0)"/>
     <use xlink:href="#DejaVuSans-4c" transform="translate(140.966797 0)"/>
     <use xlink:href="#DejaVuSans-54" transform="translate(182.929688 0)"/>
     <use xlink:href="#DejaVuSans-32" transform="translate(244.013672 0)"/>
     <use xlink:href="#DejaVuSans-20" transform="translate(307.636719 0)"/>
     <use xlink:href="#DejaVuSans-4d" transform="translate(339.423828 0)"/>
     <use xlink:href="#DejaVuSans-6f" transform="translate(425.703125 0)"/>
     <use xlink:href="#DejaVuSans-6c" transform="translate(486.884766 0)"/>
     <use xlink:href="#DejaVuSans-5f" transform="translate(514.667969 0)"/>
     <use xlink:href="#DejaVuSans-31" transform="translate(564.667969 0)"/>
     <use xlink:href="#DejaVuSans-33" transform="translate(628.291016 0)"/>
     <use xlink:href="#DejaVuSans-31" transform="translate(691.914062 0)"/>
     <use xlink:href="#DejaVuSans-34" transform="translate(755.537109 0)"/>
     <use xlink:href="#DejaVuSans-34" transform="translate(819.160156 0)"/>
     <use xlink:href="#DejaVuSans-20" transform="translate(882.783203 0)"/>
     <use xlink:href="#DejaVuSans-72" transform="translate(914.570312 0)"/>
     <use xlink:href="#DejaVuSans-65" transform="translate(953.433594 0)"/>
     <use xlink:href="#DejaVuSans-70" transform="translate(1014.957031 0)"/>
     <use xlink:href="#DejaVuSans-33" transform="translate(1078.433594 0)"/>
     <use xlink:href="#DejaVuSans-20" transform="translate(1142.056641 0)"/>
     <use xlink:href="#DejaVuSans-43" transform="translate(1173.84375 0)"/>
     <use xlink:href="#DejaVuSans-2d" transform="translate(1243.667969 0)"/>
     <use xlink:href="#DejaVuSans-61" transform="translate(1279.751953 0)"/>
     <use xlink:href="#DejaVuSans-6c" transform="translate(1341.03125 0)"/>
     <use xlink:href="#DejaVuSans-70" transform="translate(1368.814453 0)"/>
     <use xlink:href="#DejaVuSans-68" transform="translate(1432.291016 0)"/>
     <use xlink:href="#DejaVuSans-61" transform="translate(1495.669922 0)"/>
     <use xlink:href="#DejaVuSans-20" transform="translate(1556.949219 0)"/>
     <use xlink:href="#DejaVuSans-52" transform="translate(1588.736328 0)"/>
     <use xlink:href="#DejaVuSans-4d" transform="translate(1658.21875 0)"/>
     <use xlink:href="#DejaVuSans-53" transform="translate(1744.498047 0)"/>
     <use xlink:href="#DejaVuSans-46" transform="translate(1807.974609 0)"/>
    </g>
   </g>
  </g>
 </g>
 <defs>
  <clipPath id="p9a8a9f5e20">
   <rect x="46.949375" y="21.406313" width="401.76" height="232.848"/>
  </clipPath>
 </defs>
</svg>
