<?xml version="1.0" encoding="utf-8" standalone="no"?>
<!DOCTYPE svg PUBLIC "-//W3C//DTD SVG 1.1//EN"
  "http://www.w3.org/Graphics/SVG/1.1/DTD/svg11.dtd">
<svg xmlns:xlink="http://www.w3.org/1999/xlink" width="550.003125pt" height="281.634375pt" viewBox="0 0 550.003125 281.634375" xmlns="http://www.w3.org/2000/svg" version="1.1">
 <metadata>
  <rdf:RDF xmlns:dc="http://purl.org/dc/elements/1.1/" xmlns:cc="http://creativecommons.org/ns#" xmlns:rdf="http://www.w3.org/1999/02/22-rdf-syntax-ns#">
   <cc:Work>
    <dc:type rdf:resource="http://purl.org/dc/dcmitype/StillImage"/>
    <dc:date>2026-05-21T08:06:41.335178</dc:date>
    <dc:format>image/svg+xml</dc:format>
    <dc:creator>
     <cc:Agent>
      <dc:title>Matplotlib v3.10.9, https://matplotlib.org/</dc:title>
     </cc:Agent>
    </dc:creator>
   </cc:Work>
  </rdf:RDF>
 </metadata>
 <defs>
  <style type="text/css">*{stroke-linejoin: round; stroke-linecap: butt}</style>
 </defs>
 <g id="figure_1">
  <g id="patch_1">
   <path d="M 0 281.634375 
L 550.003125 281.634375 
L 550.003125 0 
L 0 0 
z
" style="fill: #ffffff"/>
  </g>
  <g id="axes_1">
   <g id="patch_2">
    <path d="M 40.603125 244.078125 
L 542.803125 244.078125 
L 542.803125 22.318125 
L 40.603125 22.318125 
z
" style="fill: #ffffff"/>
   </g>
   <g id="matplotlib.axis_1">
    <g id="xtick_1">
     <g id="line2d_1">
      <path d="M 62.649978 244.078125 
L 62.649978 22.318125 
" clip-path="url(#p8e7d7d886d)" style="fill: none; stroke: #b0b0b0; stroke-opacity: 0.25; stroke-width: 0.8; stroke-linecap: square"/>
     </g>
     <g id="line2d_2">
      <defs>
       <path id="mc7e88a16e8" d="M 0 0 
L 0 3.5 
" style="stroke: #000000; stroke-width: 0.8"/>
      </defs>
      <g>
       <use xlink:href="#mc7e88a16e8" x="62.649978" y="244.078125" style="stroke: #000000; stroke-width: 0.8"/>
      </g>
     </g>
     <g id="text_1">
      <text style="font-size: 10px; font-family: 'DejaVu Sans', 'Bitstream Vera Sans', 'Computer Modern Sans Serif', 'Lucida Grande', 'Verdana', 'Geneva', 'Lucid', 'Arial', 'Helvetica', 'Avant Garde', sans-serif; text-anchor: middle" x="62.649978" y="258.676562" transform="rotate(-0 62.649978 258.676562)">0</text>
     </g>
    </g>
    <g id="xtick_2">
     <g id="line2d_3">
      <path d="M 140.691936 244.078125 
L 140.691936 22.318125 
" clip-path="url(#p8e7d7d886d)" style="fill: none; stroke: #b0b0b0; stroke-opacity: 0.25; stroke-width: 0.8; stroke-linecap: square"/>
     </g>
     <g id="line2d_4">
      <g>
       <use xlink:href="#mc7e88a16e8" x="140.691936" y="244.078125" style="stroke: #000000; stroke-width: 0.8"/>
      </g>
     </g>
     <g id="text_2">
      <text style="font-size: 10px; font-family: 'DejaVu Sans', 'Bitstream Vera Sans', 'Computer Modern Sans Serif', 'Lucida Grande', 'Verdana', 'Geneva', 'Lucid', 'Arial', 'Helvetica', 'Avant Garde', sans-serif; text-anchor: middle" x="140.691936" y="258.676562" transform="rotate(-0 140.691936 258.676562)">100</text>
     </g>
    </g>
    <g id="xtick_3">
     <g id="line2d_5">
      <path d="M 218.733894 244.078125 
L 218.733894 22.318125 
" clip-path="url(#p8e7d7d886d)" style="fill: none; stroke: #b0b0b0; stroke-opacity: 0.25; stroke-width: 0.8; stroke-linecap: square"/>
     </g>
     <g id="line2d_6">
      <g>
       <use xlink:href="#mc7e88a16e8" x="218.733894" y="244.078125" style="stroke: #000000; stroke-width: 0.8"/>
      </g>
     </g>
     <g id="text_3">
      <text style="font-size: 10px; font-family: 'DejaVu Sans', 'Bitstream Vera Sans', 'Computer Modern Sans Serif', 'Lucida Grande', 'Verdana', 'Geneva', 'Lucid', 'Arial', 'Helvetica', 'Avant Garde', sans-serif; text-anchor: middle" x="218.733894" y="258.676562" transform="rotate(-0 218.733894 258.676562)">200</text>
     </g>
    </g>
    <g id="xtick_4">
     <g id="line2d_7">
      <path d="M 296.775852 244.078125 
L 296.775852 22.318125 
" clip-path="url(#p8e7d7d886d)" style="fill: none; stroke: #b0b0b0; stroke-opacity: 0.25; stroke-width: 0.8; stroke-linecap: square"/>
     </g>
     <g id="line2d_8">
      <g>
       <use xlink:href="#mc7e88a16e8" x="296.775852" y="244.078125" style="stroke: #000000; stroke-width: 0.8"/>
      </g>
     </g>
     <g id="text_4">
      <text style="font-size: 10px; font-family: 'DejaVu Sans', 'Bitstream Vera Sans', 'Computer Modern Sans Serif', 'Lucida Grande', 'Verdana', 'Geneva', 'Lucid', 'Arial', 'Helvetica', 'Avant Garde', sans-serif; text-anchor: middle" x="296.775852" y="258.676562" transform="rotate(-0 296.775852 258.676562)">300</text>
     </g>
    </g>
    <g id="xtick_5">
     <g id="line2d_9">
      <path d="M 374.81781 244.078125 
L 374.81781 22.318125 
" clip-path="url(#p8e7d7d886d)" style="fill: none; stroke: #b0b0b0; stroke-opacity: 0.25; stroke-width: 0.8; stroke-linecap: square"/>
     </g>
     <g id="line2d_10">
      <g>
       <use xlink:href="#mc7e88a16e8" x="374.81781" y="244.078125" style="stroke: #000000; stroke-width: 0.8"/>
      </g>
     </g>
     <g id="text_5">
      <text style="font-size: 10px; font-family: 'DejaVu Sans', 'Bitstream Vera Sans', 'Computer Modern Sans Serif', 'Lucida Grande', 'Verdana', 'Geneva', 'Lucid', 'Arial', 'Helvetica', 'Avant Garde', sans-serif; text-anchor: middle" x="374.81781" y="258.676562" transform="rotate(-0 374.81781 258.676562)">400</text>
     </g>
    </g>
    <g id="xtick_6">
     <g id="line2d_11">
      <path d="M 452.859768 244.078125 
L 452.859768 22.318125 
" clip-path="url(#p8e7d7d886d)" style="fill: none; stroke: #b0b0b0; stroke-opacity: 0.25; stroke-width: 0.8; stroke-linecap: square"/>
     </g>
     <g id="line2d_12">
      <g>
       <use xlink:href="#mc7e88a16e8" x="452.859768" y="244.078125" style="stroke: #000000; stroke-width: 0.8"/>
      </g>
     </g>
     <g id="text_6">
      <text style="font-size: 10px; font-family: 'DejaVu Sans', 'Bitstream Vera Sans', 'Computer Modern Sans Serif', 'Lucida Grande', 'Verdana', 'Geneva', 'Lucid', 'Arial', 'Helvetica', 'Avant Garde', sans-serif; text-anchor: middle" x="452.859768" y="258.676562" transform="rotate(-0 452.859768 258.676562)">500</text>
     </g>
    </g>
    <g id="xtick_7">
     <g id="line2d_13">
      <path d="M 530.901726 244.078125 
L 530.901726 22.318125 
" clip-path="url(#p8e7d7d886d)" style="fill: none; stroke: #b0b0b0; stroke-opacity: 0.25; stroke-width: 0.8; stroke-linecap: square"/>
     </g>
     <g id="line2d_14">
      <g>
       <use xlink:href="#mc7e88a16e8" x="530.901726" y="244.078125" style="stroke: #000000; stroke-width: 0.8"/>
      </g>
     </g>
     <g id="text_7">
      <text style="font-size: 10px; font-family: 'DejaVu Sans', 'Bitstream Vera Sans', 'Computer Modern Sans Serif', 'Lucida Grande', 'Verdana', 'Geneva', 'Lucid', 'Arial', 'Helvetica', 'Avant Garde', sans-serif; text-anchor: middle" x="530.901726" y="258.676562" transform="rotate(-0 530.901726 258.676562)">600</text>
     </g>
    </g>
    <g id="text_8">
     <text style="font-size: 10px; font-family: 'DejaVu Sans', 'Bitstream Vera Sans', 'Computer Modern Sans Serif', 'Lucida Grande', 'Verdana', 'Geneva', 'Lucid', 'Arial', 'Helvetica', 'Avant Garde', sans-serif; text-anchor: middle" x="291.703125" y="272.354687" transform="rotate(-0 291.703125 272.354687)">Residue number</text>
    </g>
   </g>
   <g id="matplotlib.axis_2">
    <g id="ytick_1">
     <g id="line2d_15">
      <path d="M 40.603125 242.666157 
L 542.803125 242.666157 
" clip-path="url(#p8e7d7d886d)" style="fill: none; stroke: #b0b0b0; stroke-opacity: 0.25; stroke-width: 0.8; stroke-linecap: square"/>
     </g>
     <g id="line2d_16">
      <defs>
       <path id="mf7c53588c5" d="M 0 0 
L -3.5 0 
" style="stroke: #000000; stroke-width: 0.8"/>
      </defs>
      <g>
       <use xlink:href="#mf7c53588c5" x="40.603125" y="242.666157" style="stroke: #000000; stroke-width: 0.8"/>
      </g>
     </g>
     <g id="text_9">
      <text style="font-size: 10px; font-family: 'DejaVu Sans', 'Bitstream Vera Sans', 'Computer Modern Sans Serif', 'Lucida Grande', 'Verdana', 'Geneva', 'Lucid', 'Arial', 'Helvetica', 'Avant Garde', sans-serif; text-anchor: end" x="33.603125" y="246.465376" transform="rotate(-0 33.603125 246.465376)">0</text>
     </g>
    </g>
    <g id="ytick_2">
     <g id="line2d_17">
      <path d="M 40.603125 202.469907 
L 542.803125 202.469907 
" clip-path="url(#p8e7d7d886d)" style="fill: none; stroke: #b0b0b0; stroke-opacity: 0.25; stroke-width: 0.8; stroke-linecap: square"/>
     </g>
     <g id="line2d_18">
      <g>
       <use xlink:href="#mf7c53588c5" x="40.603125" y="202.469907" style="stroke: #000000; stroke-width: 0.8"/>
      </g>
     </g>
     <g id="text_10">
      <text style="font-size: 10px; font-family: 'DejaVu Sans', 'Bitstream Vera Sans', 'Computer Modern Sans Serif', 'Lucida Grande', 'Verdana', 'Geneva', 'Lucid', 'Arial', 'Helvetica', 'Avant Garde', sans-serif; text-anchor: end" x="33.603125" y="206.269126" transform="rotate(-0 33.603125 206.269126)">2</text>
     </g>
    </g>
    <g id="ytick_3">
     <g id="line2d_19">
      <path d="M 40.603125 162.273657 
L 542.803125 162.273657 
" clip-path="url(#p8e7d7d886d)" style="fill: none; stroke: #b0b0b0; stroke-opacity: 0.25; stroke-width: 0.8; stroke-linecap: square"/>
     </g>
     <g id="line2d_20">
      <g>
       <use xlink:href="#mf7c53588c5" x="40.603125" y="162.273657" style="stroke: #000000; stroke-width: 0.8"/>
      </g>
     </g>
     <g id="text_11">
      <text style="font-size: 10px; font-family: 'DejaVu Sans', 'Bitstream Vera Sans', 'Computer Modern Sans Serif', 'Lucida Grande', 'Verdana', 'Geneva', 'Lucid', 'Arial', 'Helvetica', 'Avant Garde', sans-serif; text-anchor: end" x="33.603125" y="166.072876" transform="rotate(-0 33.603125 166.072876)">4</text>
     </g>
    </g>
    <g id="ytick_4">
     <g id="line2d_21">
      <path d="M 40.603125 122.077406 
L 542.803125 122.077406 
" clip-path="url(#p8e7d7d886d)" style="fill: none; stroke: #b0b0b0; stroke-opacity: 0.25; stroke-width: 0.8; stroke-linecap: square"/>
     </g>
     <g id="line2d_22">
      <g>
       <use xlink:href="#mf7c53588c5" x="40.603125" y="122.077406" style="stroke: #000000; stroke-width: 0.8"/>
      </g>
     </g>
     <g id="text_12">
      <text style="font-size: 10px; font-family: 'DejaVu Sans', 'Bitstream Vera Sans', 'Computer Modern Sans Serif', 'Lucida Grande', 'Verdana', 'Geneva', 'Lucid', 'Arial', 'Helvetica', 'Avant Garde', sans-serif; text-anchor: end" x="33.603125" y="125.876625" transform="rotate(-0 33.603125 125.876625)">6</text>
     </g>
    </g>
    <g id="ytick_5">
     <g id="line2d_23">
      <path d="M 40.603125 81.881156 
L 542.803125 81.881156 
" clip-path="url(#p8e7d7d886d)" style="fill: none; stroke: #b0b0b0; stroke-opacity: 0.25; stroke-width: 0.8; stroke-linecap: square"/>
     </g>
     <g id="line2d_24">
      <g>
       <use xlink:href="#mf7c53588c5" x="40.603125" y="81.881156" style="stroke: #000000; stroke-width: 0.8"/>
      </g>
     </g>
     <g id="text_13">
      <text style="font-size: 10px; font-family: 'DejaVu Sans', 'Bitstream Vera Sans', 'Computer Modern Sans Serif', 'Lucida Grande', 'Verdana', 'Geneva', 'Lucid', 'Arial', 'Helvetica', 'Avant Garde', sans-serif; text-anchor: end" x="33.603125" y="85.680375" transform="rotate(-0 33.603125 85.680375)">8</text>
     </g>
    </g>
    <g id="ytick_6">
     <g id="line2d_25">
      <path d="M 40.603125 41.684906 
L 542.803125 41.684906 
" clip-path="url(#p8e7d7d886d)" style="fill: none; stroke: #b0b0b0; stroke-opacity: 0.25; stroke-width: 0.8; stroke-linecap: square"/>
     </g>
     <g id="line2d_26">
      <g>
       <use xlink:href="#mf7c53588c5" x="40.603125" y="41.684906" style="stroke: #000000; stroke-width: 0.8"/>
      </g>
     </g>
     <g id="text_14">
      <text style="font-size: 10px; font-family: 'DejaVu Sans', 'Bitstream Vera Sans', 'Computer Modern Sans Serif', 'Lucida Grande', 'Verdana', 'Geneva', 'Lucid', 'Arial', 'Helvetica', 'Avant Garde', sans-serif; text-anchor: end" x="33.603125" y="45.484125" transform="rotate(-0 33.603125 45.484125)">10</text>
     </g>
    </g>
    <g id="text_15">
     <text style="font-size: 10px; font-family: 'DejaVu Sans', 'Bitstream Vera Sans', 'Computer Modern Sans Serif', 'Lucida Grande', 'Verdana', 'Geneva', 'Lucid', 'Arial', 'Helvetica', 'Avant Garde', sans-serif; text-anchor: middle" x="14.798438" y="133.198125" transform="rotate(-90 14.798438 133.198125)">C-alpha RMSF (A)</text>
    </g>
   </g>
   <g id="line2d_27">
    <path d="M 63.430398 32.398125 
L 64.210817 46.21438 
L 64.991237 223.540142 
L 65.771656 227.412696 
L 66.552076 228.034042 
L 67.332496 227.733066 
L 68.112915 228.950938 
L 68.893335 230.652084 
L 69.673754 229.438357 
L 70.454174 227.945987 
L 71.234594 228.301837 
L 72.015013 229.031354 
L 72.795433 227.21568 
L 73.575852 226.036709 
L 74.356272 226.676537 
L 75.136691 224.466176 
L 75.917111 223.616768 
L 76.697531 226.99041 
L 77.47795 229.129956 
L 78.25837 226.799857 
L 79.038789 223.428439 
L 79.819209 225.41346 
L 80.599628 230.260946 
L 81.380048 222.130938 
L 82.160468 216.677065 
L 82.940887 224.103794 
L 83.721307 229.522367 
L 84.501726 225.456515 
L 85.282146 227.128315 
L 86.062566 223.552274 
L 86.842985 227.141126 
L 87.623405 227.221293 
L 88.403824 226.174944 
L 89.964663 232.792145 
L 90.745083 233.123457 
L 91.525503 231.303008 
L 92.305922 230.05224 
L 93.086342 228.155371 
L 93.866761 229.072593 
L 94.647181 225.667764 
L 95.427601 228.883157 
L 96.20802 227.954138 
L 96.98844 231.495457 
L 97.768859 230.994191 
L 98.549279 231.917516 
L 99.329698 233.019048 
L 100.110118 233.091816 
L 100.890538 232.787317 
L 101.670957 230.127862 
L 102.451377 230.650523 
L 103.231796 233.268207 
L 104.012216 232.288366 
L 104.792635 229.386473 
L 106.353475 232.6808 
L 107.133894 231.468571 
L 107.914314 232.636427 
L 108.694733 231.581113 
L 109.475153 233.486912 
L 110.255573 232.168504 
L 111.035992 232.303048 
L 111.816412 229.584635 
L 112.596831 232.264248 
L 113.377251 233.266959 
L 114.15767 232.275922 
L 114.93809 231.771364 
L 115.71851 231.630923 
L 116.498929 230.782659 
L 117.279349 226.937931 
L 118.059768 227.980828 
L 118.840188 227.669779 
L 119.620608 229.992065 
L 120.401027 230.023261 
L 121.181447 232.129513 
L 122.742286 232.362593 
L 123.522705 233.605683 
L 124.303125 233.636138 
L 125.863964 232.765343 
L 126.644384 230.899225 
L 127.424803 227.760246 
L 128.205223 228.675587 
L 128.985642 231.819026 
L 129.766062 229.107533 
L 130.546482 228.467817 
L 131.326901 230.506311 
L 132.107321 230.615921 
L 132.88774 231.161501 
L 133.66816 232.117242 
L 134.44858 230.893475 
L 135.228999 230.705017 
L 136.009419 230.720456 
L 137.570258 231.407576 
L 138.350677 231.254779 
L 139.131097 228.959252 
L 139.911517 227.166565 
L 140.691936 225.915337 
L 141.472356 223.94651 
L 142.252775 227.004913 
L 143.033195 226.364623 
L 143.813615 231.444066 
L 144.594034 230.725466 
L 145.374454 231.752792 
L 146.154873 229.896548 
L 146.935293 230.651922 
L 147.715712 229.186461 
L 148.496132 225.860365 
L 149.276552 228.005837 
L 150.056971 229.67348 
L 150.837391 225.2483 
L 151.61781 222.446123 
L 152.39823 223.334645 
L 153.178649 224.529334 
L 153.959069 227.305298 
L 155.519908 230.62557 
L 156.300328 230.895842 
L 157.080747 229.175289 
L 158.641587 233.211752 
L 160.202426 228.916546 
L 160.982845 230.142391 
L 161.763265 231.667102 
L 162.543684 227.561598 
L 163.324104 224.652864 
L 164.104524 227.931692 
L 164.884943 227.177003 
L 165.665363 225.79738 
L 167.226202 229.421095 
L 168.787041 229.552635 
L 169.567461 230.124449 
L 170.34788 230.95176 
L 171.1283 225.06721 
L 171.908719 225.78947 
L 172.689139 231.492745 
L 173.469559 228.718836 
L 174.249978 225.447469 
L 175.810817 231.573403 
L 176.591237 229.872062 
L 177.371656 228.700316 
L 178.152076 229.612506 
L 179.712915 223.433587 
L 180.493335 222.542705 
L 181.273754 216.811598 
L 182.054174 221.407249 
L 182.834594 218.950229 
L 184.395433 219.484479 
L 185.175852 216.295462 
L 185.956272 218.166756 
L 186.736691 225.698619 
L 187.517111 217.669004 
L 188.297531 214.319454 
L 189.07795 219.263701 
L 189.85837 218.47763 
L 190.638789 219.505705 
L 191.419209 221.768195 
L 192.199628 222.044307 
L 192.980048 223.640605 
L 193.760468 228.64273 
L 194.540887 229.828174 
L 196.101726 229.171705 
L 196.882146 230.811515 
L 197.662566 231.510098 
L 198.442985 233.230223 
L 199.223405 232.079912 
L 200.003824 233.067254 
L 200.784244 232.571293 
L 201.564663 231.321497 
L 202.345083 231.959286 
L 203.125503 230.218171 
L 203.905922 231.205953 
L 204.686342 232.525524 
L 205.466761 231.917035 
L 206.247181 231.529635 
L 207.027601 232.367415 
L 207.80802 231.519947 
L 208.58844 231.646146 
L 209.368859 232.386048 
L 210.149279 232.198565 
L 210.929698 230.300512 
L 211.710118 231.840968 
L 212.490538 233.018564 
L 213.270957 232.516512 
L 214.051377 231.658629 
L 214.831796 232.43638 
L 215.612216 231.633565 
L 216.392635 230.453926 
L 217.173055 231.030384 
L 217.953475 232.057703 
L 218.733894 231.465848 
L 219.514314 229.348442 
L 221.075153 229.028593 
L 221.855573 223.937611 
L 222.635992 224.540776 
L 223.416412 224.104604 
L 224.196831 226.425071 
L 224.977251 227.667652 
L 225.75767 229.885522 
L 227.31851 227.963398 
L 228.098929 229.771939 
L 228.879349 230.72766 
L 229.659768 226.595099 
L 230.440188 224.881603 
L 231.220608 224.270004 
L 232.001027 224.158089 
L 232.781447 225.658451 
L 234.342286 216.495874 
L 235.122705 215.620265 
L 235.903125 206.50375 
L 237.463964 182.889009 
L 238.244384 177.688473 
L 239.024803 173.554702 
L 239.805223 163.921526 
L 240.585642 176.074428 
L 242.146482 197.598248 
L 242.926901 208.232829 
L 243.707321 203.541772 
L 244.48774 209.346294 
L 245.26816 206.389896 
L 246.04858 213.195141 
L 246.828999 221.409896 
L 247.609419 222.287702 
L 248.389838 224.706135 
L 249.170258 223.963808 
L 249.950677 222.82351 
L 250.731097 227.057211 
L 251.511517 229.1932 
L 252.291936 229.733841 
L 253.072356 229.582806 
L 253.852775 227.78604 
L 254.633195 226.563379 
L 255.413615 227.265733 
L 256.194034 223.937766 
L 256.974454 221.96288 
L 257.754873 215.240362 
L 258.535293 217.42366 
L 259.315712 209.097895 
L 260.096132 223.407246 
L 260.876552 229.540922 
L 261.656971 228.833231 
L 262.437391 229.370281 
L 263.21781 229.343467 
L 264.778649 228.685813 
L 267.119908 230.212468 
L 267.900328 231.943476 
L 268.680747 232.427851 
L 269.461167 232.114013 
L 270.241587 232.446977 
L 271.022006 230.194802 
L 271.802426 224.447636 
L 272.582845 225.837756 
L 273.363265 226.490539 
L 274.143684 227.337822 
L 275.704524 221.587346 
L 276.484943 222.987234 
L 277.265363 230.580539 
L 278.045782 219.993175 
L 278.826202 225.098189 
L 279.606622 226.417433 
L 280.387041 226.06996 
L 281.167461 228.643738 
L 281.94788 227.90763 
L 282.7283 226.533129 
L 283.508719 229.540813 
L 284.289139 224.218421 
L 285.069559 206.275829 
L 285.849978 231.551387 
L 286.630398 232.860434 
L 287.410817 232.088901 
L 288.191237 231.491408 
L 288.971656 232.958394 
L 289.752076 233.431046 
L 290.532496 232.737811 
L 291.312915 232.802856 
L 292.093335 232.735953 
L 292.873754 232.351449 
L 293.654174 232.997246 
L 294.434594 233.20337 
L 295.215013 232.658781 
L 295.995433 232.431332 
L 297.556272 233.083983 
L 298.336691 232.30238 
L 299.117111 233.718745 
L 299.897531 233.500007 
L 300.67795 233.998125 
L 301.45837 233.852818 
L 303.019209 233.208636 
L 303.799628 233.708273 
L 304.580048 233.74142 
L 305.360468 233.628485 
L 306.140887 232.710317 
L 306.921307 232.803008 
L 307.701726 233.128159 
L 308.482146 233.00549 
L 309.262566 231.52037 
L 311.603824 228.84006 
L 312.384244 227.656299 
L 313.164663 225.071117 
L 313.945083 225.100811 
L 314.725503 226.615642 
L 315.505922 226.827879 
L 316.286342 225.226557 
L 317.066761 221.821317 
L 318.627601 217.018385 
L 319.40802 211.649569 
L 320.18844 216.853088 
L 320.968859 221.122617 
L 321.749279 214.812827 
L 322.529698 213.556756 
L 323.310118 213.674198 
L 324.090538 207.916973 
L 324.870957 196.754595 
L 325.651377 199.632361 
L 326.431796 207.123186 
L 327.992635 197.949302 
L 328.773055 215.14691 
L 329.553475 223.817425 
L 330.333894 229.232798 
L 332.675153 232.801155 
L 333.455573 230.860326 
L 334.235992 229.589302 
L 335.016412 229.635027 
L 335.796831 230.122841 
L 337.35767 228.757401 
L 338.91851 228.545815 
L 339.698929 227.378016 
L 340.479349 227.635082 
L 341.259768 227.309442 
L 342.040188 229.831992 
L 342.820608 230.996585 
L 343.601027 231.280755 
L 344.381447 232.988657 
L 345.161866 233.562328 
L 345.942286 232.410246 
L 346.722705 231.89566 
L 347.503125 232.641846 
L 348.283545 232.716659 
L 349.063964 230.761891 
L 349.844384 229.969354 
L 350.624803 230.194046 
L 351.405223 227.86038 
L 352.185642 219.730882 
L 352.966062 219.432463 
L 353.746482 222.187414 
L 354.526901 222.17401 
L 355.307321 225.444695 
L 356.08774 226.935397 
L 356.86816 229.46315 
L 357.64858 230.015784 
L 358.428999 232.962764 
L 359.209419 233.541501 
L 359.989838 233.94522 
L 360.770258 233.868513 
L 361.550677 233.938241 
L 362.331097 233.559768 
L 363.111517 233.396784 
L 364.672356 232.555786 
L 365.452775 232.98056 
L 367.013615 231.811025 
L 367.794034 229.506378 
L 368.574454 227.814459 
L 369.354873 224.944468 
L 370.135293 224.168615 
L 370.915712 220.563922 
L 371.696132 217.582079 
L 372.476552 221.542783 
L 373.256971 216.469164 
L 374.037391 216.48392 
L 374.81781 217.721623 
L 375.59823 224.478232 
L 376.378649 226.99652 
L 377.159069 225.496149 
L 377.939489 224.947022 
L 378.719908 227.765021 
L 379.500328 228.631026 
L 380.280747 227.280857 
L 381.061167 226.609773 
L 381.841587 229.804021 
L 382.622006 227.673162 
L 383.402426 224.751271 
L 384.182845 227.225761 
L 384.963265 227.46804 
L 385.743684 223.299383 
L 387.304524 225.285391 
L 388.084943 222.102435 
L 388.865363 220.424497 
L 389.645782 221.807212 
L 390.426202 220.340069 
L 391.206622 220.396251 
L 391.987041 218.290313 
L 392.767461 218.577465 
L 393.54788 223.573442 
L 394.3283 220.205347 
L 395.108719 216.127558 
L 395.889139 217.912261 
L 396.669559 216.289593 
L 397.449978 206.393256 
L 398.230398 212.985521 
L 399.010817 222.318198 
L 399.791237 226.833096 
L 400.571656 226.380146 
L 401.352076 225.28878 
L 402.132496 226.821557 
L 402.912915 229.267853 
L 403.693335 228.523371 
L 404.473754 227.361985 
L 405.254174 227.621818 
L 406.034594 229.988354 
L 407.595433 231.563157 
L 408.375852 231.078137 
L 409.156272 232.912256 
L 409.936691 232.865149 
L 410.717111 232.282097 
L 411.497531 232.259095 
L 412.27795 231.491175 
L 413.838789 232.75564 
L 414.619209 231.339342 
L 415.399628 230.972566 
L 416.180048 230.459434 
L 417.740887 229.870657 
L 418.521307 225.142367 
L 419.301726 225.468531 
L 420.082146 226.568267 
L 420.862566 226.117907 
L 421.642985 228.905733 
L 422.423405 230.024562 
L 423.203824 230.835579 
L 423.984244 230.435964 
L 424.764663 229.330559 
L 425.545083 229.570792 
L 426.325503 230.815027 
L 427.886342 227.528392 
L 429.447181 229.329365 
L 430.227601 228.861773 
L 431.00802 229.659418 
L 431.78844 230.156532 
L 432.568859 229.304605 
L 433.349279 229.98698 
L 434.129698 230.109262 
L 434.910118 229.039381 
L 435.690538 228.452928 
L 436.470957 229.262415 
L 437.251377 228.102733 
L 438.031796 224.800833 
L 438.812216 223.844317 
L 439.592635 225.568495 
L 440.373055 223.89193 
L 441.153475 219.534178 
L 441.933894 203.995936 
L 442.714314 200.720856 
L 444.275153 184.103163 
L 445.055573 196.570058 
L 445.835992 195.004475 
L 446.616412 166.577315 
L 447.396831 171.93083 
L 448.177251 174.621925 
L 448.95767 195.83636 
L 449.73809 205.460034 
L 450.51851 213.291335 
L 451.298929 213.798521 
L 452.079349 213.801805 
L 452.859768 209.109789 
L 453.640188 220.075543 
L 454.420608 222.77454 
L 455.201027 216.075857 
L 455.981447 223.349991 
L 456.761866 227.186155 
L 457.542286 229.723913 
L 458.322705 230.65756 
L 459.103125 230.348519 
L 459.883545 230.636951 
L 460.663964 231.955282 
L 461.444384 231.317471 
L 462.224803 228.904725 
L 463.785642 232.446208 
L 464.566062 230.520366 
L 465.346482 230.048916 
L 466.126901 231.677035 
L 466.907321 230.676686 
L 467.68774 229.433172 
L 468.46816 230.002973 
L 469.24858 230.715128 
L 470.028999 228.164482 
L 470.809419 227.189595 
L 471.589838 228.143234 
L 472.370258 227.795352 
L 473.150677 224.834823 
L 473.931097 224.669299 
L 474.711517 225.185491 
L 475.491936 220.638986 
L 477.052775 224.816204 
L 477.833195 225.380081 
L 478.613615 225.575115 
L 479.394034 225.206914 
L 480.174454 227.925953 
L 480.954873 228.078767 
L 481.735293 223.92963 
L 482.515712 225.752048 
L 483.296132 227.965723 
L 484.076552 228.304779 
L 484.856971 228.098205 
L 485.637391 223.794623 
L 486.41781 223.185569 
L 487.19823 220.95766 
L 487.978649 210.436772 
L 488.759069 209.769385 
L 489.539489 202.875509 
L 490.319908 213.211457 
L 491.100328 210.750861 
L 491.880747 210.992137 
L 492.661167 208.496573 
L 493.441587 204.956244 
L 494.222006 209.348991 
L 495.002426 220.742333 
L 495.782845 223.612703 
L 496.563265 218.987662 
L 497.343684 223.672402 
L 498.904524 228.356223 
L 499.684943 225.161209 
L 500.465363 220.602584 
L 501.245782 219.510955 
L 502.026202 228.363259 
L 503.587041 226.487678 
L 504.367461 228.024561 
L 505.14788 230.768419 
L 505.9283 230.570754 
L 506.708719 229.157844 
L 507.489139 230.388504 
L 508.269559 230.85041 
L 509.049978 229.60927 
L 509.830398 229.590799 
L 510.610817 230.06316 
L 511.391237 229.061722 
L 512.171656 228.969641 
L 512.952076 229.124662 
L 513.732496 228.684866 
L 514.512915 229.254564 
L 515.293335 229.608515 
L 516.854174 231.227665 
L 517.634594 229.664563 
L 518.415013 229.233281 
L 519.195433 229.097897 
L 519.975852 226.357757 
L 519.975852 226.357757 
" clip-path="url(#p8e7d7d886d)" style="fill: none; stroke: #1f77b4; stroke-linecap: square"/>
   </g>
   <g id="patch_3">
    <path d="M 40.603125 244.078125 
L 40.603125 22.318125 
" style="fill: none; stroke: #000000; stroke-width: 0.8; stroke-linejoin: miter; stroke-linecap: square"/>
   </g>
   <g id="patch_4">
    <path d="M 40.603125 244.078125 
L 542.803125 244.078125 
" style="fill: none; stroke: #000000; stroke-width: 0.8; stroke-linejoin: miter; stroke-linecap: square"/>
   </g>
   <g id="text_16">
    <text style="font-size: 12px; font-family: 'DejaVu Sans', 'Bitstream Vera Sans', 'Computer Modern Sans Serif', 'Lucida Grande', 'Verdana', 'Geneva', 'Lucid', 'Arial', 'Helvetica', 'Avant Garde', sans-serif; text-anchor: middle" x="291.703125" y="16.318125" transform="rotate(-0 291.703125 16.318125)">SGLT2 rep1 C-alpha RMSF</text>
   </g>
  </g>
 </g>
 <defs>
  <clipPath id="p8e7d7d886d">
   <rect x="40.603125" y="22.318125" width="502.2" height="221.76"/>
  </clipPath>
 </defs>
</svg>
