<?xml version="1.0" encoding="utf-8" standalone="no"?>
<!DOCTYPE svg PUBLIC "-//W3C//DTD SVG 1.1//EN"
  "http://www.w3.org/Graphics/SVG/1.1/DTD/svg11.dtd">
<svg xmlns:xlink="http://www.w3.org/1999/xlink" width="717.403125pt" height="295.31625pt" viewBox="0 0 717.403125 295.31625" xmlns="http://www.w3.org/2000/svg" version="1.1">
 <metadata>
  <rdf:RDF xmlns:dc="http://purl.org/dc/elements/1.1/" xmlns:cc="http://creativecommons.org/ns#" xmlns:rdf="http://www.w3.org/1999/02/22-rdf-syntax-ns#">
   <cc:Work>
    <dc:type rdf:resource="http://purl.org/dc/dcmitype/StillImage"/>
    <dc:date>2026-05-18T17:52:25.433585</dc:date>
    <dc:format>image/svg+xml</dc:format>
    <dc:creator>
     <cc:Agent>
      <dc:title>Matplotlib v3.10.9, https://matplotlib.org/</dc:title>
     </cc:Agent>
    </dc:creator>
   </cc:Work>
  </rdf:RDF>
 </metadata>
 <defs>
  <style type="text/css">*{stroke-linejoin: round; stroke-linecap: butt}</style>
 </defs>
 <g id="figure_1">
  <g id="patch_1">
   <path d="M 0 295.31625 
L 717.403125 295.31625 
L 717.403125 0 
L 0 0 
z
" style="fill: #ffffff"/>
  </g>
  <g id="axes_1">
   <g id="patch_2">
    <path d="M 40.603125 257.76 
L 344.966761 257.76 
L 344.966761 36 
L 40.603125 36 
z
" style="fill: #ffffff"/>
   </g>
   <g id="FillBetweenPolyCollection_1">
    <defs>
     <path id="mc64923497c" d="M 54.437836 -240.509907 
L 54.437836 -156.955341 
L 55.019126 -80.104299 
L 55.600416 -64.914442 
L 56.181707 -60.039109 
L 56.762997 -55.35161 
L 57.344288 -55.433483 
L 57.925578 -55.329214 
L 58.506868 -57.81825 
L 59.088159 -62.766425 
L 59.669449 -63.19261 
L 60.250739 -66.646593 
L 60.83203 -71.458401 
L 61.41332 -71.278929 
L 61.994611 -63.349498 
L 62.575901 -58.839231 
L 63.157191 -55.461679 
L 63.738482 -59.884515 
L 64.319772 -61.169027 
L 64.901062 -60.458802 
L 65.482353 -59.269225 
L 66.063643 -63.17321 
L 66.644933 -60.929238 
L 67.226224 -56.756094 
L 67.807514 -55.005993 
L 68.388805 -54.738887 
L 68.970095 -54.991401 
L 69.551385 -55.170142 
L 70.132676 -54.452948 
L 70.713966 -54.916178 
L 71.295256 -56.554484 
L 71.876547 -55.709394 
L 72.457837 -55.345399 
L 73.039128 -58.464186 
L 73.620418 -58.046768 
L 74.201708 -55.639196 
L 74.782999 -56.888734 
L 75.364289 -53.918609 
L 75.945579 -52.669646 
L 76.52687 -53.381497 
L 77.10816 -52.332887 
L 77.68945 -52.439925 
L 78.270741 -53.212357 
L 78.852031 -54.375809 
L 79.433322 -58.704425 
L 80.014612 -59.399604 
L 80.595902 -55.983228 
L 81.177193 -53.683968 
L 81.758483 -51.739113 
L 82.339773 -51.084283 
L 82.921064 -50.886851 
L 83.502354 -51.382022 
L 84.083644 -52.666151 
L 84.664935 -54.460807 
L 85.246225 -54.613741 
L 85.827516 -55.532191 
L 86.408806 -53.901724 
L 86.990096 -52.773958 
L 87.571387 -54.353781 
L 88.152677 -55.332114 
L 88.733967 -53.521341 
L 89.315258 -53.378016 
L 89.896548 -55.944648 
L 90.477839 -56.871582 
L 91.059129 -56.152499 
L 91.640419 -55.229046 
L 92.22171 -55.426448 
L 92.803 -53.58273 
L 93.38429 -52.435738 
L 93.965581 -53.368814 
L 94.546871 -52.991811 
L 95.128161 -52.243194 
L 95.709452 -52.830875 
L 96.290742 -53.351361 
L 96.872033 -53.984414 
L 97.453323 -54.378545 
L 98.034613 -52.972821 
L 98.615904 -53.31337 
L 99.197194 -55.766428 
L 99.778484 -56.365676 
L 100.359775 -53.799172 
L 100.941065 -56.535092 
L 101.522356 -61.631108 
L 102.103646 -58.239989 
L 102.684936 -54.440571 
L 103.266227 -52.181278 
L 103.847517 -52.233245 
L 104.428807 -52.151538 
L 105.010098 -52.428004 
L 105.591388 -53.043075 
L 106.172678 -56.667829 
L 106.753969 -57.110497 
L 107.335259 -56.563585 
L 107.91655 -58.53489 
L 108.49784 -61.304904 
L 109.07913 -60.695532 
L 109.660421 -55.892161 
L 110.241711 -55.397592 
L 110.823001 -56.234932 
L 111.404292 -55.657946 
L 111.985582 -52.864042 
L 112.566872 -53.241817 
L 113.148163 -53.939631 
L 113.729453 -53.593236 
L 114.310744 -53.560468 
L 114.892034 -54.86462 
L 115.473324 -54.324483 
L 116.054615 -55.045449 
L 116.635905 -56.39883 
L 117.217195 -53.936552 
L 117.798486 -50.660232 
L 118.379776 -48.682882 
L 118.961067 -50.358843 
L 119.542357 -53.803134 
L 120.123647 -57.415882 
L 120.704938 -57.277939 
L 121.286228 -62.333793 
L 121.867518 -65.908586 
L 122.448809 -63.998244 
L 123.030099 -73.766186 
L 123.611389 -64.979282 
L 124.19268 -55.679168 
L 124.77397 -53.035036 
L 125.355261 -52.278782 
L 125.936551 -51.126746 
L 126.517841 -52.408333 
L 127.099132 -53.269226 
L 127.680422 -52.112007 
L 128.261712 -51.359198 
L 128.843003 -53.954404 
L 129.424293 -55.290937 
L 130.005584 -53.737036 
L 130.586874 -52.940068 
L 131.168164 -54.579492 
L 131.749455 -54.358694 
L 132.330745 -52.623228 
L 132.912035 -52.712892 
L 133.493326 -54.525254 
L 134.074616 -54.440958 
L 134.655906 -54.131408 
L 135.237197 -55.251762 
L 135.818487 -57.218377 
L 136.399778 -56.586696 
L 136.981068 -56.059253 
L 137.562358 -59.889858 
L 138.143649 -65.063733 
L 138.724939 -69.575775 
L 139.306229 -64.31731 
L 139.88752 -58.473927 
L 140.46881 -58.275675 
L 141.0501 -56.612003 
L 141.631391 -57.136499 
L 142.212681 -53.993427 
L 142.793972 -52.574091 
L 143.375262 -51.796977 
L 143.956552 -50.673494 
L 144.537843 -50.286707 
L 145.119133 -50.817084 
L 145.700423 -50.555408 
L 146.281714 -49.89051 
L 146.863004 -50.311958 
L 147.444295 -50.496107 
L 148.025585 -50.272836 
L 148.606875 -50.800873 
L 149.188166 -50.865166 
L 149.769456 -51.592334 
L 150.350746 -51.527693 
L 150.932037 -51.205282 
L 151.513327 -52.196897 
L 152.094617 -53.131349 
L 152.675908 -54.494032 
L 153.257198 -53.444832 
L 153.838489 -53.698176 
L 154.419779 -54.208285 
L 155.001069 -55.025495 
L 155.58236 -56.593718 
L 156.16365 -55.3475 
L 156.74494 -57.318867 
L 157.326231 -56.392869 
L 157.907521 -53.911919 
L 158.488812 -54.496528 
L 159.070102 -56.675163 
L 159.651392 -56.081862 
L 160.232683 -54.890617 
L 160.813973 -56.844629 
L 161.395263 -58.791095 
L 161.976554 -60.254847 
L 162.557844 -57.63467 
L 163.139134 -58.009056 
L 163.720425 -54.788709 
L 164.301715 -57.731873 
L 164.883006 -59.567998 
L 165.464296 -55.708707 
L 166.045586 -54.845965 
L 166.626877 -55.282805 
L 167.208167 -58.617403 
L 167.789457 -66.013631 
L 168.370748 -58.356372 
L 168.952038 -58.066892 
L 169.533328 -58.455447 
L 170.114619 -55.852616 
L 170.695909 -54.936424 
L 171.2772 -59.385812 
L 171.85849 -68.697324 
L 172.43978 -68.897965 
L 173.021071 -64.77293 
L 173.602361 -71.014892 
L 174.183651 -75.476092 
L 174.764942 -74.917622 
L 175.346232 -76.781128 
L 175.927523 -66.453142 
L 176.508813 -65.572763 
L 177.090103 -61.80182 
L 177.671394 -58.874753 
L 178.252684 -58.699497 
L 178.833974 -56.671066 
L 179.415265 -54.582197 
L 179.996555 -54.964766 
L 180.577845 -54.867062 
L 181.159136 -53.382036 
L 181.740426 -53.235565 
L 182.321717 -53.902048 
L 182.903007 -53.19382 
L 183.484297 -52.08863 
L 184.065588 -53.090102 
L 184.646878 -54.282246 
L 185.228168 -54.07263 
L 185.809459 -54.028827 
L 186.390749 -54.911034 
L 186.97204 -55.517126 
L 187.55333 -55.141243 
L 188.13462 -54.64201 
L 188.715911 -56.86777 
L 189.297201 -57.181652 
L 189.878491 -55.970592 
L 190.459782 -59.301926 
L 191.041072 -63.052083 
L 191.622362 -62.62053 
L 192.203653 -71.282316 
L 192.784943 -78.708757 
L 193.366234 -91.677062 
L 193.947524 -88.882192 
L 194.528814 -71.746659 
L 195.110105 -58.358807 
L 195.691395 -57.077532 
L 196.272685 -53.416183 
L 196.853976 -51.521735 
L 197.435266 -51.017756 
L 198.016556 -52.567576 
L 198.597847 -53.287437 
L 199.179137 -52.204963 
L 199.760428 -51.936998 
L 200.341718 -54.676147 
L 200.923008 -56.09654 
L 201.504299 -54.761929 
L 202.085589 -59.55831 
L 202.666879 -64.000626 
L 203.24817 -63.753598 
L 203.82946 -71.035918 
L 204.410751 -76.424866 
L 204.992041 -74.945119 
L 205.573331 -80.504927 
L 206.154622 -81.885469 
L 206.735912 -77.791529 
L 207.317202 -76.659841 
L 207.898493 -71.884839 
L 208.479783 -73.215011 
L 209.061073 -63.907911 
L 209.642364 -62.445262 
L 210.223654 -58.21485 
L 210.804945 -57.283077 
L 211.386235 -54.501298 
L 211.967525 -52.686976 
L 212.548816 -53.391986 
L 213.130106 -53.403481 
L 213.711396 -51.867836 
L 214.292687 -51.240475 
L 214.873977 -51.763414 
L 215.455268 -51.515497 
L 216.036558 -51.544918 
L 216.617848 -51.221416 
L 217.199139 -51.865835 
L 217.780429 -51.857658 
L 218.361719 -51.018416 
L 218.94301 -50.93498 
L 219.5243 -50.920407 
L 220.10559 -50.436061 
L 220.686881 -49.816375 
L 221.268171 -50.057718 
L 221.849462 -50.29609 
L 222.430752 -49.995687 
L 223.012042 -49.513163 
L 223.593333 -50.57545 
L 224.174623 -50.209059 
L 224.755913 -50.024904 
L 225.337204 -50.668397 
L 225.918494 -51.241727 
L 226.499784 -50.850542 
L 227.081075 -50.441673 
L 227.662365 -52.09754 
L 228.243656 -53.125498 
L 228.824946 -55.342424 
L 229.406236 -54.978679 
L 229.987527 -54.177718 
L 230.568817 -52.409043 
L 231.150107 -51.431097 
L 231.731398 -53.162934 
L 232.312688 -53.338343 
L 232.893979 -52.173842 
L 233.475269 -52.305427 
L 234.056559 -54.583491 
L 234.63785 -54.995101 
L 235.21914 -52.954128 
L 235.80043 -54.381976 
L 236.381721 -57.209018 
L 236.963011 -56.576301 
L 237.544301 -55.442339 
L 238.125592 -55.318443 
L 238.706882 -57.643464 
L 239.288173 -60.966963 
L 239.869463 -56.89367 
L 240.450753 -58.673057 
L 241.032044 -54.475291 
L 241.613334 -55.031145 
L 242.194624 -54.879839 
L 242.775915 -57.296096 
L 243.357205 -54.867368 
L 243.938496 -55.307514 
L 244.519786 -57.670313 
L 245.101076 -55.418662 
L 245.682367 -53.029779 
L 246.263657 -53.977685 
L 246.844947 -52.545681 
L 247.426238 -51.913231 
L 248.007528 -52.496563 
L 248.588818 -51.592852 
L 249.170109 -50.55412 
L 249.751399 -50.812936 
L 250.33269 -51.066557 
L 250.91398 -50.227363 
L 251.49527 -50.456197 
L 252.076561 -50.360906 
L 252.657851 -50.159151 
L 253.239141 -50.267247 
L 253.820432 -50.547727 
L 254.401722 -50.341749 
L 254.983012 -50.60117 
L 255.564303 -50.76053 
L 256.145593 -51.333366 
L 256.726884 -51.657122 
L 257.308174 -51.079491 
L 257.889464 -51.488488 
L 258.470755 -51.509898 
L 259.052045 -51.280803 
L 259.633335 -51.939255 
L 260.214626 -52.192383 
L 260.795916 -54.229877 
L 261.377207 -56.575173 
L 261.958497 -56.615808 
L 262.539787 -56.36123 
L 263.121078 -58.080066 
L 263.702368 -58.383165 
L 264.283658 -61.160296 
L 264.864949 -60.675379 
L 265.446239 -56.601729 
L 266.027529 -56.168046 
L 266.60882 -54.061753 
L 267.19011 -54.769901 
L 267.771401 -54.534211 
L 268.352691 -54.36076 
L 268.933981 -52.930748 
L 269.515272 -51.695177 
L 270.096562 -50.840726 
L 270.677852 -50.979485 
L 271.259143 -50.670219 
L 271.840433 -52.111107 
L 272.421724 -51.619578 
L 273.003014 -51.780606 
L 273.584304 -52.535395 
L 274.165595 -53.238512 
L 274.746885 -50.795831 
L 275.328175 -52.284307 
L 275.909466 -56.796757 
L 276.490756 -59.967279 
L 277.072046 -63.858774 
L 277.653337 -61.133065 
L 278.234627 -57.816077 
L 278.815918 -59.58399 
L 279.397208 -58.224173 
L 279.978498 -55.976974 
L 280.559789 -56.672193 
L 281.141079 -56.06204 
L 281.722369 -53.309491 
L 282.30366 -53.54343 
L 282.88495 -53.011201 
L 283.46624 -54.202434 
L 284.047531 -55.438061 
L 284.628821 -55.018087 
L 285.210112 -57.419249 
L 285.791402 -62.487008 
L 286.372692 -69.1575 
L 286.953983 -71.935872 
L 287.535273 -67.459717 
L 288.116563 -63.983677 
L 288.697854 -59.954973 
L 289.279144 -59.536354 
L 289.860435 -63.762977 
L 290.441725 -64.280927 
L 291.023015 -59.732304 
L 291.604306 -58.454213 
L 292.185596 -60.208785 
L 292.766886 -57.418789 
L 293.348177 -53.811829 
L 293.929467 -52.246994 
L 294.510757 -51.419392 
L 295.092048 -52.382176 
L 295.673338 -53.207164 
L 296.254629 -54.446237 
L 296.835919 -55.954338 
L 297.417209 -57.197709 
L 297.9985 -52.998676 
L 298.57979 -51.960025 
L 299.742371 -52.287062 
L 300.323661 -52.528002 
L 300.904952 -51.91716 
L 301.486242 -50.524857 
L 302.067532 -52.421589 
L 302.648823 -51.683419 
L 303.230113 -52.416317 
L 303.811403 -50.773262 
L 304.392694 -50.325333 
L 304.973984 -50.455708 
L 305.555274 -50.960894 
L 306.136565 -51.076507 
L 306.717855 -50.722064 
L 307.299146 -51.357835 
L 307.880436 -51.451057 
L 308.461726 -51.053475 
L 309.043017 -51.049353 
L 309.624307 -50.904375 
L 310.205597 -51.91804 
L 310.786888 -52.498191 
L 311.368178 -52.222488 
L 311.949468 -52.557648 
L 312.530759 -52.350161 
L 313.112049 -53.613345 
L 313.69334 -55.303345 
L 314.27463 -58.911051 
L 314.85592 -68.396843 
L 315.437211 -72.193293 
L 316.018501 -67.296736 
L 316.599791 -70.74961 
L 317.181082 -64.671366 
L 317.762372 -62.957103 
L 318.343663 -59.491244 
L 318.924953 -57.525459 
L 319.506243 -55.174073 
L 320.087534 -55.349975 
L 320.668824 -53.911541 
L 321.250114 -54.517228 
L 321.831405 -54.563034 
L 322.412695 -52.265735 
L 322.993985 -51.494303 
L 323.575276 -53.72141 
L 324.156566 -54.334554 
L 324.737857 -59.445376 
L 325.319147 -60.588512 
L 325.900437 -63.79923 
L 326.481728 -60.855931 
L 327.063018 -60.386687 
L 327.644308 -53.780541 
L 328.225599 -53.864503 
L 328.806889 -53.853949 
L 329.38818 -54.947269 
L 329.96947 -56.541402 
L 330.55076 -56.813153 
L 331.132051 -62.592694 
L 331.132051 -69.969482 
L 331.132051 -69.969482 
L 330.55076 -60.151273 
L 329.96947 -60.066314 
L 329.38818 -59.697348 
L 328.806889 -57.906203 
L 328.225599 -58.85457 
L 327.644308 -59.974204 
L 327.063018 -74.5468 
L 326.481728 -65.867167 
L 325.900437 -67.321076 
L 325.319147 -87.118124 
L 324.737857 -67.772876 
L 324.156566 -60.178711 
L 323.575276 -55.344103 
L 322.993985 -53.952824 
L 322.412695 -53.155472 
L 321.831405 -56.330319 
L 321.250114 -55.311357 
L 320.668824 -55.956674 
L 320.087534 -56.615006 
L 319.506243 -58.009134 
L 318.924953 -62.146091 
L 318.343663 -64.467996 
L 317.762372 -68.491384 
L 317.181082 -68.450711 
L 316.599791 -74.45722 
L 316.018501 -70.537133 
L 315.437211 -77.986329 
L 314.85592 -78.882893 
L 314.27463 -66.53878 
L 313.69334 -60.43821 
L 313.112049 -55.020207 
L 312.530759 -53.135843 
L 311.949468 -54.050965 
L 311.368178 -56.529205 
L 310.786888 -55.65764 
L 310.205597 -54.949226 
L 309.624307 -52.986695 
L 309.043017 -53.496888 
L 308.461726 -53.145284 
L 307.880436 -52.547668 
L 307.299146 -52.172804 
L 306.717855 -51.978042 
L 306.136565 -51.804129 
L 305.555274 -51.708501 
L 304.973984 -52.160048 
L 304.392694 -52.471247 
L 303.811403 -54.062285 
L 303.230113 -58.826121 
L 302.648823 -73.882938 
L 302.067532 -63.552273 
L 301.486242 -68.935281 
L 300.904952 -60.529124 
L 300.323661 -55.715094 
L 299.742371 -56.248903 
L 298.57979 -54.029333 
L 297.9985 -56.587147 
L 297.417209 -60.719527 
L 296.835919 -61.235286 
L 296.254629 -56.809679 
L 295.673338 -53.996568 
L 295.092048 -52.860173 
L 294.510757 -52.227605 
L 293.929467 -53.333227 
L 293.348177 -55.140437 
L 292.766886 -58.499441 
L 292.185596 -61.690237 
L 291.604306 -59.544557 
L 291.023015 -60.38061 
L 290.441725 -66.189969 
L 289.860435 -65.43422 
L 289.279144 -61.692271 
L 288.697854 -60.949559 
L 288.116563 -65.261284 
L 287.535273 -67.828733 
L 286.953983 -73.092978 
L 286.372692 -70.755082 
L 285.791402 -64.269859 
L 285.210112 -59.042176 
L 284.628821 -56.423769 
L 284.047531 -57.272486 
L 283.46624 -56.984115 
L 282.88495 -54.841385 
L 282.30366 -55.168797 
L 281.722369 -54.368651 
L 281.141079 -56.571054 
L 280.559789 -57.522576 
L 279.978498 -56.257284 
L 279.397208 -59.059786 
L 278.815918 -61.687888 
L 278.234627 -59.971416 
L 277.653337 -62.74748 
L 277.072046 -68.795494 
L 276.490756 -62.72853 
L 275.909466 -57.34862 
L 275.328175 -54.418275 
L 274.746885 -53.007807 
L 274.165595 -54.497094 
L 273.584304 -54.150914 
L 273.003014 -53.567838 
L 272.421724 -52.37 
L 271.840433 -53.554337 
L 271.259143 -51.496917 
L 270.677852 -51.434808 
L 270.096562 -51.820664 
L 269.515272 -53.755716 
L 268.933981 -56.526313 
L 268.352691 -59.373562 
L 267.771401 -59.882224 
L 267.19011 -59.989977 
L 266.60882 -58.605483 
L 266.027529 -60.511929 
L 265.446239 -60.219303 
L 264.864949 -63.195895 
L 264.283658 -62.558544 
L 263.702368 -60.006622 
L 263.121078 -60.631475 
L 262.539787 -60.224455 
L 261.958497 -61.260258 
L 261.377207 -60.940822 
L 260.795916 -61.071122 
L 260.214626 -56.558832 
L 259.633335 -54.722288 
L 259.052045 -53.055038 
L 258.470755 -52.463687 
L 257.889464 -53.235776 
L 257.308174 -53.407818 
L 256.726884 -52.524928 
L 256.145593 -52.900829 
L 255.564303 -51.843232 
L 254.983012 -51.91079 
L 254.401722 -51.764605 
L 253.820432 -51.859793 
L 253.239141 -51.734293 
L 252.657851 -51.53096 
L 252.076561 -51.358538 
L 251.49527 -51.263269 
L 250.91398 -51.696918 
L 250.33269 -52.563907 
L 249.751399 -52.334264 
L 249.170109 -52.288615 
L 248.588818 -53.771152 
L 248.007528 -55.183368 
L 247.426238 -54.422866 
L 246.844947 -54.897992 
L 246.263657 -56.353257 
L 245.682367 -54.67527 
L 245.101076 -57.269641 
L 244.519786 -60.440176 
L 243.938496 -57.528676 
L 243.357205 -56.38557 
L 242.775915 -58.356747 
L 242.194624 -56.879044 
L 241.613334 -55.972428 
L 241.032044 -56.042374 
L 240.450753 -58.782023 
L 239.869463 -59.927861 
L 239.288173 -64.719196 
L 238.706882 -61.21877 
L 238.125592 -59.481349 
L 237.544301 -58.171022 
L 236.963011 -58.522863 
L 236.381721 -59.352546 
L 235.80043 -57.181009 
L 235.21914 -54.403443 
L 234.63785 -56.087974 
L 234.056559 -56.807595 
L 233.475269 -53.221152 
L 232.893979 -52.656124 
L 232.312688 -55.551517 
L 231.731398 -54.545677 
L 231.150107 -51.689084 
L 230.568817 -56.247964 
L 229.987527 -60.820674 
L 229.406236 -56.001699 
L 228.824946 -55.565832 
L 228.243656 -54.228542 
L 227.662365 -52.773083 
L 227.081075 -51.03235 
L 226.499784 -51.096934 
L 225.918494 -51.460318 
L 225.337204 -50.809065 
L 224.755913 -50.282313 
L 224.174623 -50.361624 
L 223.593333 -50.815389 
L 223.012042 -50.377873 
L 222.430752 -50.986471 
L 221.849462 -50.745487 
L 221.268171 -50.769388 
L 220.686881 -51.475448 
L 220.10559 -52.490265 
L 219.5243 -52.50676 
L 218.94301 -52.82873 
L 218.361719 -55.456121 
L 217.780429 -54.205529 
L 217.199139 -54.718674 
L 216.617848 -55.000487 
L 216.036558 -52.255874 
L 215.455268 -52.624665 
L 214.873977 -53.306576 
L 214.292687 -53.222658 
L 213.711396 -54.37153 
L 213.130106 -59.775347 
L 212.548816 -61.484202 
L 211.967525 -60.851868 
L 211.386235 -68.646683 
L 210.804945 -76.777193 
L 210.223654 -67.898678 
L 209.642364 -70.30217 
L 209.061073 -74.971864 
L 208.479783 -93.996945 
L 207.898493 -90.288028 
L 207.317202 -90.571721 
L 206.735912 -100.833417 
L 206.154622 -115.891248 
L 205.573331 -119.624107 
L 204.992041 -107.112198 
L 204.410751 -104.140936 
L 203.82946 -95.73933 
L 203.24817 -77.140022 
L 202.666879 -75.258031 
L 202.085589 -76.74098 
L 201.504299 -70.541957 
L 200.923008 -64.520182 
L 200.341718 -65.595011 
L 199.760428 -62.384059 
L 199.179137 -57.448438 
L 198.597847 -58.498896 
L 198.016556 -58.029555 
L 197.435266 -53.41225 
L 196.853976 -53.005478 
L 196.272685 -55.734325 
L 195.691395 -70.921204 
L 195.110105 -67.706632 
L 194.528814 -76.266838 
L 193.947524 -104.131406 
L 193.366234 -125.832666 
L 192.784943 -110.684094 
L 192.203653 -101.837832 
L 191.622362 -80.159408 
L 191.041072 -76.729761 
L 190.459782 -69.96806 
L 189.878491 -64.169041 
L 189.297201 -65.094656 
L 188.715911 -60.379217 
L 188.13462 -55.80487 
L 187.55333 -57.00656 
L 186.97204 -57.212136 
L 186.390749 -55.975621 
L 185.809459 -55.203282 
L 185.228168 -56.348896 
L 184.646878 -56.272032 
L 184.065588 -54.595155 
L 183.484297 -55.118074 
L 182.903007 -56.579763 
L 182.321717 -56.163187 
L 181.740426 -55.039083 
L 181.159136 -56.186175 
L 180.577845 -57.887974 
L 179.996555 -57.781601 
L 179.415265 -57.593339 
L 178.833974 -61.542348 
L 178.252684 -63.717811 
L 177.671394 -62.57328 
L 177.090103 -66.374169 
L 176.508813 -70.427859 
L 175.927523 -73.139112 
L 175.346232 -84.592149 
L 174.764942 -84.019939 
L 174.183651 -84.791124 
L 173.602361 -78.664264 
L 173.021071 -78.355213 
L 172.43978 -81.08532 
L 171.85849 -74.801938 
L 171.2772 -62.550239 
L 170.695909 -60.654564 
L 170.114619 -58.743294 
L 169.533328 -65.612233 
L 168.952038 -66.165492 
L 168.370748 -64.419112 
L 167.789457 -73.014177 
L 167.208167 -62.01285 
L 166.626877 -58.745795 
L 166.045586 -55.595381 
L 165.464296 -57.211907 
L 164.883006 -61.894969 
L 164.301715 -60.290135 
L 163.720425 -58.854704 
L 163.139134 -71.108818 
L 162.557844 -74.780363 
L 161.976554 -75.306734 
L 161.395263 -64.672817 
L 160.813973 -63.942049 
L 160.232683 -58.945612 
L 159.651392 -59.037668 
L 159.070102 -62.090341 
L 158.488812 -60.051026 
L 157.907521 -59.539659 
L 157.326231 -64.841321 
L 156.74494 -64.145171 
L 156.16365 -62.729673 
L 155.58236 -63.676762 
L 155.001069 -59.22388 
L 154.419779 -58.970831 
L 153.838489 -57.947538 
L 153.257198 -55.51083 
L 152.675908 -55.669562 
L 152.094617 -55.127966 
L 151.513327 -53.841643 
L 150.932037 -53.672181 
L 150.350746 -53.209194 
L 149.769456 -52.717877 
L 149.188166 -53.200868 
L 148.606875 -53.645526 
L 148.025585 -52.544178 
L 147.444295 -52.957208 
L 146.863004 -52.157838 
L 146.281714 -51.829462 
L 145.700423 -53.434223 
L 145.119133 -53.306244 
L 144.537843 -51.796852 
L 143.956552 -54.092781 
L 143.375262 -59.767002 
L 142.793972 -58.269969 
L 142.212681 -57.17776 
L 141.631391 -64.889224 
L 141.0501 -60.668449 
L 140.46881 -65.573996 
L 139.88752 -63.441523 
L 139.306229 -70.004308 
L 138.724939 -79.562457 
L 138.143649 -75.536859 
L 137.562358 -69.012484 
L 136.981068 -66.138288 
L 136.399778 -62.409509 
L 135.818487 -62.657229 
L 135.237197 -62.894644 
L 134.655906 -61.357114 
L 134.074616 -60.198399 
L 133.493326 -59.728844 
L 132.912035 -56.111817 
L 132.330745 -55.776017 
L 131.749455 -57.180814 
L 131.168164 -56.434167 
L 130.586874 -54.881144 
L 130.005584 -55.389555 
L 129.424293 -56.547474 
L 128.843003 -54.881411 
L 128.261712 -53.8654 
L 127.680422 -54.348078 
L 127.099132 -54.382205 
L 126.517841 -54.45045 
L 125.936551 -55.0894 
L 125.355261 -55.206341 
L 124.77397 -56.677874 
L 124.19268 -63.138224 
L 123.611389 -75.929674 
L 123.030099 -84.556413 
L 122.448809 -88.370688 
L 121.867518 -94.892453 
L 121.286228 -96.852878 
L 120.704938 -79.881727 
L 120.123647 -64.723838 
L 119.542357 -64.539451 
L 118.961067 -70.338352 
L 118.379776 -67.857291 
L 117.798486 -62.113915 
L 117.217195 -59.034337 
L 116.635905 -60.609238 
L 116.054615 -58.247708 
L 115.473324 -56.575173 
L 114.892034 -55.965613 
L 114.310744 -56.010957 
L 113.729453 -54.724091 
L 113.148163 -54.252172 
L 112.566872 -55.141021 
L 111.985582 -55.687227 
L 111.404292 -56.451323 
L 110.823001 -58.120271 
L 110.241711 -59.0484 
L 109.660421 -58.387481 
L 109.07913 -63.241291 
L 108.49784 -63.664195 
L 107.91655 -61.021124 
L 107.335259 -58.834877 
L 106.753969 -60.388943 
L 106.172678 -60.325871 
L 105.591388 -62.241565 
L 105.010098 -53.684182 
L 104.428807 -54.560373 
L 103.847517 -54.511189 
L 103.266227 -53.392001 
L 102.684936 -59.878709 
L 102.103646 -67.368402 
L 101.522356 -73.943992 
L 100.941065 -66.247561 
L 100.359775 -58.013823 
L 99.778484 -59.570512 
L 99.197194 -57.598516 
L 98.615904 -54.104271 
L 98.034613 -54.807125 
L 97.453323 -56.002554 
L 96.872033 -56.494217 
L 96.290742 -62.932123 
L 95.709452 -56.219211 
L 95.128161 -55.502103 
L 94.546871 -57.920127 
L 93.965581 -60.387584 
L 93.38429 -56.659026 
L 92.803 -59.41143 
L 92.22171 -61.71532 
L 91.640419 -60.086288 
L 91.059129 -60.348669 
L 90.477839 -59.912359 
L 89.896548 -60.10852 
L 89.315258 -57.211243 
L 88.733967 -56.565877 
L 88.152677 -57.531618 
L 87.571387 -57.118634 
L 86.990096 -55.053707 
L 86.408806 -55.963179 
L 85.827516 -57.559743 
L 85.246225 -56.94052 
L 84.664935 -57.885698 
L 84.083644 -53.811339 
L 83.502354 -52.384227 
L 82.921064 -52.348989 
L 82.339773 -53.327192 
L 81.758483 -54.328339 
L 81.177193 -56.961498 
L 80.595902 -59.460585 
L 80.014612 -62.996795 
L 79.433322 -62.109563 
L 78.852031 -56.779989 
L 78.270741 -56.339974 
L 77.68945 -55.038092 
L 77.10816 -54.983036 
L 76.52687 -55.42152 
L 75.945579 -54.294437 
L 75.364289 -55.715154 
L 74.782999 -58.091122 
L 74.201708 -57.875138 
L 73.620418 -60.385802 
L 73.039128 -59.89492 
L 72.457837 -56.609591 
L 71.876547 -56.662921 
L 71.295256 -57.745766 
L 70.713966 -55.248012 
L 70.132676 -54.706818 
L 69.551385 -56.684358 
L 68.970095 -56.422402 
L 68.388805 -56.247597 
L 67.807514 -56.264718 
L 67.226224 -59.617487 
L 66.644933 -63.625277 
L 66.063643 -65.109897 
L 65.482353 -66.305326 
L 64.901062 -64.948719 
L 64.319772 -63.822105 
L 63.738482 -60.381638 
L 63.157191 -57.763004 
L 62.575901 -61.071069 
L 61.994611 -64.901259 
L 61.41332 -73.239505 
L 60.83203 -75.840208 
L 60.250739 -70.234423 
L 59.669449 -64.641244 
L 59.088159 -65.182843 
L 58.506868 -60.387518 
L 57.925578 -57.952779 
L 57.344288 -58.195747 
L 56.762997 -58.245352 
L 56.181707 -63.540573 
L 55.600416 -71.390498 
L 55.019126 -210.131123 
L 54.437836 -240.509907 
z
"/>
    </defs>
    <g clip-path="url(#p4cf3ed20a4)">
     <use xlink:href="#mc64923497c" x="0" y="295.31625" style="fill: #1f77b4; fill-opacity: 0.2"/>
    </g>
   </g>
   <g id="matplotlib.axis_1">
    <g id="xtick_1">
     <g id="line2d_1">
      <path d="M 53.856545 257.76 
L 53.856545 36 
" clip-path="url(#p4cf3ed20a4)" style="fill: none; stroke: #b0b0b0; stroke-opacity: 0.25; stroke-width: 0.8; stroke-linecap: square"/>
     </g>
     <g id="line2d_2">
      <defs>
       <path id="me7e0e2b841" d="M 0 0 
L 0 3.5 
" style="stroke: #000000; stroke-width: 0.8"/>
      </defs>
      <g>
       <use xlink:href="#me7e0e2b841" x="53.856545" y="257.76" style="stroke: #000000; stroke-width: 0.8"/>
      </g>
     </g>
     <g id="text_1">
      <text style="font-size: 10px; font-family: 'DejaVu Sans', 'Bitstream Vera Sans', 'Computer Modern Sans Serif', 'Lucida Grande', 'Verdana', 'Geneva', 'Lucid', 'Arial', 'Helvetica', 'Avant Garde', sans-serif; text-anchor: middle" x="53.856545" y="272.358437" transform="rotate(-0 53.856545 272.358437)">0</text>
     </g>
    </g>
    <g id="xtick_2">
     <g id="line2d_3">
      <path d="M 111.985582 257.76 
L 111.985582 36 
" clip-path="url(#p4cf3ed20a4)" style="fill: none; stroke: #b0b0b0; stroke-opacity: 0.25; stroke-width: 0.8; stroke-linecap: square"/>
     </g>
     <g id="line2d_4">
      <g>
       <use xlink:href="#me7e0e2b841" x="111.985582" y="257.76" style="stroke: #000000; stroke-width: 0.8"/>
      </g>
     </g>
     <g id="text_2">
      <text style="font-size: 10px; font-family: 'DejaVu Sans', 'Bitstream Vera Sans', 'Computer Modern Sans Serif', 'Lucida Grande', 'Verdana', 'Geneva', 'Lucid', 'Arial', 'Helvetica', 'Avant Garde', sans-serif; text-anchor: middle" x="111.985582" y="272.358437" transform="rotate(-0 111.985582 272.358437)">100</text>
     </g>
    </g>
    <g id="xtick_3">
     <g id="line2d_5">
      <path d="M 170.114619 257.76 
L 170.114619 36 
" clip-path="url(#p4cf3ed20a4)" style="fill: none; stroke: #b0b0b0; stroke-opacity: 0.25; stroke-width: 0.8; stroke-linecap: square"/>
     </g>
     <g id="line2d_6">
      <g>
       <use xlink:href="#me7e0e2b841" x="170.114619" y="257.76" style="stroke: #000000; stroke-width: 0.8"/>
      </g>
     </g>
     <g id="text_3">
      <text style="font-size: 10px; font-family: 'DejaVu Sans', 'Bitstream Vera Sans', 'Computer Modern Sans Serif', 'Lucida Grande', 'Verdana', 'Geneva', 'Lucid', 'Arial', 'Helvetica', 'Avant Garde', sans-serif; text-anchor: middle" x="170.114619" y="272.358437" transform="rotate(-0 170.114619 272.358437)">200</text>
     </g>
    </g>
    <g id="xtick_4">
     <g id="line2d_7">
      <path d="M 228.243656 257.76 
L 228.243656 36 
" clip-path="url(#p4cf3ed20a4)" style="fill: none; stroke: #b0b0b0; stroke-opacity: 0.25; stroke-width: 0.8; stroke-linecap: square"/>
     </g>
     <g id="line2d_8">
      <g>
       <use xlink:href="#me7e0e2b841" x="228.243656" y="257.76" style="stroke: #000000; stroke-width: 0.8"/>
      </g>
     </g>
     <g id="text_4">
      <text style="font-size: 10px; font-family: 'DejaVu Sans', 'Bitstream Vera Sans', 'Computer Modern Sans Serif', 'Lucida Grande', 'Verdana', 'Geneva', 'Lucid', 'Arial', 'Helvetica', 'Avant Garde', sans-serif; text-anchor: middle" x="228.243656" y="272.358437" transform="rotate(-0 228.243656 272.358437)">300</text>
     </g>
    </g>
    <g id="xtick_5">
     <g id="line2d_9">
      <path d="M 286.372692 257.76 
L 286.372692 36 
" clip-path="url(#p4cf3ed20a4)" style="fill: none; stroke: #b0b0b0; stroke-opacity: 0.25; stroke-width: 0.8; stroke-linecap: square"/>
     </g>
     <g id="line2d_10">
      <g>
       <use xlink:href="#me7e0e2b841" x="286.372692" y="257.76" style="stroke: #000000; stroke-width: 0.8"/>
      </g>
     </g>
     <g id="text_5">
      <text style="font-size: 10px; font-family: 'DejaVu Sans', 'Bitstream Vera Sans', 'Computer Modern Sans Serif', 'Lucida Grande', 'Verdana', 'Geneva', 'Lucid', 'Arial', 'Helvetica', 'Avant Garde', sans-serif; text-anchor: middle" x="286.372692" y="272.358437" transform="rotate(-0 286.372692 272.358437)">400</text>
     </g>
    </g>
    <g id="xtick_6">
     <g id="line2d_11">
      <path d="M 344.501729 257.76 
L 344.501729 36 
" clip-path="url(#p4cf3ed20a4)" style="fill: none; stroke: #b0b0b0; stroke-opacity: 0.25; stroke-width: 0.8; stroke-linecap: square"/>
     </g>
     <g id="line2d_12">
      <g>
       <use xlink:href="#me7e0e2b841" x="344.501729" y="257.76" style="stroke: #000000; stroke-width: 0.8"/>
      </g>
     </g>
     <g id="text_6">
      <text style="font-size: 10px; font-family: 'DejaVu Sans', 'Bitstream Vera Sans', 'Computer Modern Sans Serif', 'Lucida Grande', 'Verdana', 'Geneva', 'Lucid', 'Arial', 'Helvetica', 'Avant Garde', sans-serif; text-anchor: middle" x="344.501729" y="272.358437" transform="rotate(-0 344.501729 272.358437)">500</text>
     </g>
    </g>
    <g id="text_7">
     <text style="font-size: 10px; font-family: 'DejaVu Sans', 'Bitstream Vera Sans', 'Computer Modern Sans Serif', 'Lucida Grande', 'Verdana', 'Geneva', 'Lucid', 'Arial', 'Helvetica', 'Avant Garde', sans-serif; text-anchor: middle" x="192.784943" y="286.036562" transform="rotate(-0 192.784943 286.036562)">Residue number</text>
    </g>
   </g>
   <g id="matplotlib.axis_2">
    <g id="ytick_1">
     <g id="line2d_13">
      <path d="M 40.603125 252.155564 
L 344.966761 252.155564 
" clip-path="url(#p4cf3ed20a4)" style="fill: none; stroke: #b0b0b0; stroke-opacity: 0.25; stroke-width: 0.8; stroke-linecap: square"/>
     </g>
     <g id="line2d_14">
      <defs>
       <path id="mfa9f2a4ebc" d="M 0 0 
L -3.5 0 
" style="stroke: #000000; stroke-width: 0.8"/>
      </defs>
      <g>
       <use xlink:href="#mfa9f2a4ebc" x="40.603125" y="252.155564" style="stroke: #000000; stroke-width: 0.8"/>
      </g>
     </g>
     <g id="text_8">
      <text style="font-size: 10px; font-family: 'DejaVu Sans', 'Bitstream Vera Sans', 'Computer Modern Sans Serif', 'Lucida Grande', 'Verdana', 'Geneva', 'Lucid', 'Arial', 'Helvetica', 'Avant Garde', sans-serif; text-anchor: end" x="33.603125" y="255.954783" transform="rotate(-0 33.603125 255.954783)">0</text>
     </g>
    </g>
    <g id="ytick_2">
     <g id="line2d_15">
      <path d="M 40.603125 218.343464 
L 344.966761 218.343464 
" clip-path="url(#p4cf3ed20a4)" style="fill: none; stroke: #b0b0b0; stroke-opacity: 0.25; stroke-width: 0.8; stroke-linecap: square"/>
     </g>
     <g id="line2d_16">
      <g>
       <use xlink:href="#mfa9f2a4ebc" x="40.603125" y="218.343464" style="stroke: #000000; stroke-width: 0.8"/>
      </g>
     </g>
     <g id="text_9">
      <text style="font-size: 10px; font-family: 'DejaVu Sans', 'Bitstream Vera Sans', 'Computer Modern Sans Serif', 'Lucida Grande', 'Verdana', 'Geneva', 'Lucid', 'Arial', 'Helvetica', 'Avant Garde', sans-serif; text-anchor: end" x="33.603125" y="222.142683" transform="rotate(-0 33.603125 222.142683)">2</text>
     </g>
    </g>
    <g id="ytick_3">
     <g id="line2d_17">
      <path d="M 40.603125 184.531365 
L 344.966761 184.531365 
" clip-path="url(#p4cf3ed20a4)" style="fill: none; stroke: #b0b0b0; stroke-opacity: 0.25; stroke-width: 0.8; stroke-linecap: square"/>
     </g>
     <g id="line2d_18">
      <g>
       <use xlink:href="#mfa9f2a4ebc" x="40.603125" y="184.531365" style="stroke: #000000; stroke-width: 0.8"/>
      </g>
     </g>
     <g id="text_10">
      <text style="font-size: 10px; font-family: 'DejaVu Sans', 'Bitstream Vera Sans', 'Computer Modern Sans Serif', 'Lucida Grande', 'Verdana', 'Geneva', 'Lucid', 'Arial', 'Helvetica', 'Avant Garde', sans-serif; text-anchor: end" x="33.603125" y="188.330584" transform="rotate(-0 33.603125 188.330584)">4</text>
     </g>
    </g>
    <g id="ytick_4">
     <g id="line2d_19">
      <path d="M 40.603125 150.719265 
L 344.966761 150.719265 
" clip-path="url(#p4cf3ed20a4)" style="fill: none; stroke: #b0b0b0; stroke-opacity: 0.25; stroke-width: 0.8; stroke-linecap: square"/>
     </g>
     <g id="line2d_20">
      <g>
       <use xlink:href="#mfa9f2a4ebc" x="40.603125" y="150.719265" style="stroke: #000000; stroke-width: 0.8"/>
      </g>
     </g>
     <g id="text_11">
      <text style="font-size: 10px; font-family: 'DejaVu Sans', 'Bitstream Vera Sans', 'Computer Modern Sans Serif', 'Lucida Grande', 'Verdana', 'Geneva', 'Lucid', 'Arial', 'Helvetica', 'Avant Garde', sans-serif; text-anchor: end" x="33.603125" y="154.518484" transform="rotate(-0 33.603125 154.518484)">6</text>
     </g>
    </g>
    <g id="ytick_5">
     <g id="line2d_21">
      <path d="M 40.603125 116.907166 
L 344.966761 116.907166 
" clip-path="url(#p4cf3ed20a4)" style="fill: none; stroke: #b0b0b0; stroke-opacity: 0.25; stroke-width: 0.8; stroke-linecap: square"/>
     </g>
     <g id="line2d_22">
      <g>
       <use xlink:href="#mfa9f2a4ebc" x="40.603125" y="116.907166" style="stroke: #000000; stroke-width: 0.8"/>
      </g>
     </g>
     <g id="text_12">
      <text style="font-size: 10px; font-family: 'DejaVu Sans', 'Bitstream Vera Sans', 'Computer Modern Sans Serif', 'Lucida Grande', 'Verdana', 'Geneva', 'Lucid', 'Arial', 'Helvetica', 'Avant Garde', sans-serif; text-anchor: end" x="33.603125" y="120.706385" transform="rotate(-0 33.603125 120.706385)">8</text>
     </g>
    </g>
    <g id="ytick_6">
     <g id="line2d_23">
      <path d="M 40.603125 83.095066 
L 344.966761 83.095066 
" clip-path="url(#p4cf3ed20a4)" style="fill: none; stroke: #b0b0b0; stroke-opacity: 0.25; stroke-width: 0.8; stroke-linecap: square"/>
     </g>
     <g id="line2d_24">
      <g>
       <use xlink:href="#mfa9f2a4ebc" x="40.603125" y="83.095066" style="stroke: #000000; stroke-width: 0.8"/>
      </g>
     </g>
     <g id="text_13">
      <text style="font-size: 10px; font-family: 'DejaVu Sans', 'Bitstream Vera Sans', 'Computer Modern Sans Serif', 'Lucida Grande', 'Verdana', 'Geneva', 'Lucid', 'Arial', 'Helvetica', 'Avant Garde', sans-serif; text-anchor: end" x="33.603125" y="86.894285" transform="rotate(-0 33.603125 86.894285)">10</text>
     </g>
    </g>
    <g id="ytick_7">
     <g id="line2d_25">
      <path d="M 40.603125 49.282967 
L 344.966761 49.282967 
" clip-path="url(#p4cf3ed20a4)" style="fill: none; stroke: #b0b0b0; stroke-opacity: 0.25; stroke-width: 0.8; stroke-linecap: square"/>
     </g>
     <g id="line2d_26">
      <g>
       <use xlink:href="#mfa9f2a4ebc" x="40.603125" y="49.282967" style="stroke: #000000; stroke-width: 0.8"/>
      </g>
     </g>
     <g id="text_14">
      <text style="font-size: 10px; font-family: 'DejaVu Sans', 'Bitstream Vera Sans', 'Computer Modern Sans Serif', 'Lucida Grande', 'Verdana', 'Geneva', 'Lucid', 'Arial', 'Helvetica', 'Avant Garde', sans-serif; text-anchor: end" x="33.603125" y="53.082186" transform="rotate(-0 33.603125 53.082186)">12</text>
     </g>
    </g>
    <g id="text_15">
     <text style="font-size: 10px; font-family: 'DejaVu Sans', 'Bitstream Vera Sans', 'Computer Modern Sans Serif', 'Lucida Grande', 'Verdana', 'Geneva', 'Lucid', 'Arial', 'Helvetica', 'Avant Garde', sans-serif; text-anchor: middle" x="14.798438" y="146.88" transform="rotate(-90 14.798438 146.88)">C-alpha RMSF (A)</text>
    </g>
   </g>
   <g id="line2d_27">
    <path d="M 54.437836 96.583626 
L 55.019126 150.198539 
L 55.600416 227.16378 
L 56.181707 233.526409 
L 56.762997 238.517769 
L 57.344288 238.501635 
L 57.925578 238.675253 
L 58.506868 236.213366 
L 59.088159 231.341616 
L 59.669449 231.399323 
L 60.83203 221.666945 
L 61.41332 223.057033 
L 61.994611 231.190871 
L 62.575901 235.3611 
L 63.157191 238.703908 
L 63.738482 235.183174 
L 64.319772 232.820684 
L 64.901062 232.61249 
L 65.482353 232.528975 
L 66.063643 231.174697 
L 66.644933 233.038992 
L 67.226224 237.129459 
L 67.807514 239.680895 
L 68.388805 239.823008 
L 69.551385 239.389 
L 70.132676 240.736367 
L 70.713966 240.234155 
L 71.295256 238.166125 
L 71.876547 239.130093 
L 72.457837 239.338755 
L 73.039128 236.136697 
L 73.620418 236.099965 
L 74.201708 238.559083 
L 74.782999 237.826322 
L 75.364289 240.499369 
L 75.945579 241.834209 
L 76.52687 240.914742 
L 77.10816 241.658288 
L 77.68945 241.577242 
L 78.270741 240.540084 
L 78.852031 239.738351 
L 79.433322 234.909256 
L 80.014612 234.11805 
L 80.595902 237.594343 
L 81.758483 242.282524 
L 82.339773 243.110512 
L 82.921064 243.69833 
L 83.502354 243.433125 
L 84.083644 242.077505 
L 84.664935 239.142998 
L 85.246225 239.539119 
L 85.827516 238.770283 
L 86.408806 240.383799 
L 86.990096 241.402417 
L 87.571387 239.580042 
L 88.152677 238.884384 
L 88.733967 240.272641 
L 89.315258 240.02162 
L 89.896548 237.289666 
L 90.477839 236.92428 
L 91.059129 237.065666 
L 91.640419 237.658583 
L 92.22171 236.745366 
L 93.38429 240.768868 
L 93.965581 238.438051 
L 95.128161 241.443602 
L 95.709452 240.791207 
L 96.290742 237.174508 
L 96.872033 240.076935 
L 97.453323 240.1257 
L 98.034613 241.426277 
L 98.615904 241.607429 
L 99.197194 238.633778 
L 99.778484 237.348156 
L 100.359775 239.409753 
L 101.522356 227.5287 
L 103.266227 242.529611 
L 103.847517 241.944033 
L 104.428807 241.960294 
L 105.010098 242.260157 
L 105.591388 237.67393 
L 106.172678 236.8194 
L 106.753969 236.56653 
L 107.335259 237.617019 
L 107.91655 235.538243 
L 108.49784 232.8317 
L 109.07913 233.347838 
L 109.660421 238.176429 
L 110.241711 238.093254 
L 110.823001 238.138648 
L 111.404292 239.261615 
L 111.985582 241.040616 
L 113.148163 241.220349 
L 113.729453 241.157586 
L 114.892034 239.901133 
L 115.473324 239.866422 
L 116.054615 238.669672 
L 116.635905 236.812216 
L 117.217195 238.830806 
L 117.798486 238.929177 
L 118.961067 234.967652 
L 119.542357 236.144958 
L 120.123647 234.24639 
L 120.704938 226.736417 
L 121.286228 215.722914 
L 121.867518 214.915731 
L 122.448809 219.131784 
L 123.030099 216.15495 
L 123.611389 224.861772 
L 124.19268 235.907554 
L 124.77397 240.459795 
L 125.355261 241.573688 
L 125.936551 242.208177 
L 127.099132 241.490534 
L 128.261712 242.703951 
L 129.424293 239.397045 
L 130.005584 240.752955 
L 130.586874 241.405644 
L 131.168164 239.809421 
L 131.749455 239.546496 
L 132.330745 241.116628 
L 132.912035 240.903895 
L 133.493326 238.189201 
L 134.074616 237.996572 
L 134.655906 237.571989 
L 135.237197 236.243047 
L 135.818487 235.378447 
L 136.399778 235.818147 
L 136.981068 234.21748 
L 137.562358 230.865079 
L 138.143649 225.015954 
L 138.724939 220.747134 
L 139.88752 234.358525 
L 140.46881 233.391414 
L 141.0501 236.676024 
L 141.631391 234.303388 
L 142.212681 239.730656 
L 142.793972 239.89422 
L 143.375262 239.53426 
L 143.956552 242.933112 
L 144.537843 244.274471 
L 145.119133 243.254586 
L 145.700423 243.321435 
L 146.281714 244.456264 
L 147.444295 243.589593 
L 148.025585 243.907743 
L 148.606875 243.093051 
L 149.188166 243.283233 
L 150.932037 242.877518 
L 151.513327 242.29698 
L 152.675908 240.234453 
L 153.257198 240.838419 
L 153.838489 239.493393 
L 154.419779 238.726692 
L 155.001069 238.191562 
L 155.58236 235.18101 
L 156.16365 236.277663 
L 156.74494 234.584231 
L 157.326231 234.699155 
L 157.907521 238.590461 
L 158.488812 238.042473 
L 159.070102 235.933498 
L 159.651392 237.756485 
L 160.232683 238.398135 
L 160.813973 234.922911 
L 161.395263 233.584294 
L 161.976554 227.535459 
L 163.139134 230.757313 
L 163.720425 238.494544 
L 164.301715 236.305246 
L 164.883006 234.584767 
L 165.464296 238.855943 
L 166.045586 240.095577 
L 166.626877 238.30195 
L 167.208167 235.001124 
L 167.789457 225.802346 
L 168.370748 233.928508 
L 168.952038 233.200058 
L 169.533328 233.28241 
L 170.114619 238.018295 
L 170.695909 237.520756 
L 171.2772 234.348224 
L 171.85849 223.566619 
L 172.43978 220.324608 
L 173.021071 223.752178 
L 173.602361 220.476672 
L 174.183651 215.182642 
L 174.764942 215.84747 
L 175.346232 214.629611 
L 175.927523 225.520123 
L 176.508813 227.315939 
L 177.671394 234.592234 
L 178.252684 234.107596 
L 178.833974 236.209543 
L 179.415265 239.228482 
L 179.996555 238.943066 
L 180.577845 238.938732 
L 181.159136 240.532144 
L 181.740426 241.178926 
L 182.321717 240.283633 
L 182.903007 240.429458 
L 183.484297 241.712898 
L 184.065588 241.473621 
L 184.646878 240.039111 
L 185.228168 240.105487 
L 185.809459 240.700195 
L 186.97204 238.951619 
L 187.55333 239.242348 
L 188.13462 240.09281 
L 188.715911 236.692756 
L 189.297201 234.178096 
L 189.878491 235.246433 
L 191.041072 225.425328 
L 191.622362 223.926281 
L 192.203653 208.756176 
L 192.784943 200.619824 
L 193.366234 186.561386 
L 193.947524 198.809451 
L 194.528814 221.309501 
L 195.110105 232.28353 
L 195.691395 231.316882 
L 196.272685 240.740996 
L 196.853976 243.052644 
L 197.435266 243.101247 
L 198.016556 240.017685 
L 198.597847 239.423084 
L 199.179137 240.48955 
L 199.760428 238.155722 
L 200.341718 235.180671 
L 200.923008 235.007889 
L 201.504299 232.664307 
L 202.085589 227.166605 
L 202.666879 225.686921 
L 203.24817 224.86944 
L 203.82946 211.928626 
L 204.410751 205.033349 
L 204.992041 204.287591 
L 205.573331 195.251733 
L 206.154622 196.427892 
L 206.735912 206.003777 
L 207.317202 211.700469 
L 207.898493 214.229816 
L 208.479783 211.710272 
L 209.061073 225.876363 
L 210.223654 232.259486 
L 210.804945 228.286115 
L 211.967525 238.546828 
L 212.548816 237.878156 
L 213.130106 238.726836 
L 213.711396 242.196567 
L 214.292687 243.084683 
L 214.873977 242.781255 
L 215.455268 243.246169 
L 216.036558 243.415854 
L 216.617848 242.205298 
L 217.199139 242.023995 
L 217.780429 242.284656 
L 218.361719 242.078982 
L 218.94301 243.434395 
L 220.10559 243.853087 
L 220.686881 244.670338 
L 221.268171 244.902697 
L 221.849462 244.795462 
L 222.430752 244.825171 
L 223.012042 245.370732 
L 223.593333 244.62083 
L 224.174623 245.030908 
L 224.755913 245.162641 
L 225.918494 243.965227 
L 226.499784 244.342512 
L 227.081075 244.579239 
L 227.662365 242.880938 
L 228.243656 241.63923 
L 228.824946 239.862122 
L 229.406236 239.826061 
L 229.987527 237.817054 
L 231.150107 243.75616 
L 231.731398 241.461945 
L 232.312688 240.87132 
L 232.893979 242.901267 
L 233.475269 242.552961 
L 234.056559 239.620707 
L 234.63785 239.774713 
L 235.21914 241.637465 
L 236.381721 237.035468 
L 237.544301 238.50957 
L 238.125592 237.916354 
L 238.706882 235.885133 
L 239.288173 232.47317 
L 239.869463 236.905485 
L 240.450753 236.58871 
L 241.032044 240.057418 
L 241.613334 239.814463 
L 242.194624 239.436809 
L 242.775915 237.489828 
L 243.357205 239.689781 
L 243.938496 238.898155 
L 244.519786 236.261006 
L 245.682367 241.463726 
L 246.263657 240.150779 
L 246.844947 241.594414 
L 247.426238 242.148202 
L 248.007528 241.476285 
L 249.170109 243.894883 
L 250.33269 243.501018 
L 250.91398 244.354109 
L 252.076561 244.456528 
L 252.657851 244.471195 
L 253.820432 244.11249 
L 254.401722 244.263073 
L 254.983012 244.06027 
L 255.564303 244.014369 
L 256.145593 243.199153 
L 256.726884 243.225225 
L 257.889464 242.954118 
L 258.470755 243.329457 
L 259.052045 243.14833 
L 260.214626 240.940643 
L 260.795916 237.66575 
L 261.377207 236.558253 
L 261.958497 236.378217 
L 262.539787 237.023408 
L 263.121078 235.960479 
L 263.702368 236.121357 
L 264.283658 233.45683 
L 264.864949 233.380613 
L 265.446239 236.905734 
L 266.027529 236.976262 
L 266.60882 238.982632 
L 267.19011 237.936311 
L 267.771401 238.108033 
L 268.352691 238.449089 
L 269.515272 242.590804 
L 270.096562 243.985555 
L 271.259143 244.232682 
L 271.840433 242.483528 
L 272.421724 243.321461 
L 274.165595 241.448447 
L 274.746885 243.414431 
L 275.328175 241.964959 
L 276.490756 233.968345 
L 277.072046 228.989116 
L 277.653337 233.375977 
L 278.234627 236.422504 
L 278.815918 234.680311 
L 279.397208 236.674271 
L 279.978498 239.199121 
L 280.559789 238.218865 
L 281.141079 238.999703 
L 281.722369 241.477179 
L 282.30366 240.960137 
L 282.88495 241.389957 
L 283.46624 239.722975 
L 284.047531 238.960977 
L 284.628821 239.595322 
L 285.210112 237.085538 
L 285.791402 231.937816 
L 286.372692 225.359959 
L 286.953983 222.801825 
L 287.535273 227.672025 
L 288.116563 230.693769 
L 288.697854 234.863984 
L 289.279144 234.701937 
L 289.860435 230.717651 
L 290.441725 230.080802 
L 291.023015 235.259793 
L 291.604306 236.316865 
L 292.185596 234.366739 
L 293.348177 240.840117 
L 293.929467 242.526139 
L 294.510757 243.492751 
L 295.673338 241.714384 
L 296.254629 239.688292 
L 296.835919 236.721438 
L 297.417209 236.357632 
L 297.9985 240.523338 
L 298.57979 242.321571 
L 299.742371 241.048267 
L 300.323661 241.194702 
L 300.904952 239.093108 
L 301.486242 235.586181 
L 302.067532 237.329319 
L 302.648823 232.533071 
L 303.230113 239.695031 
L 303.811403 242.898476 
L 304.392694 243.91796 
L 304.973984 244.008372 
L 306.717855 243.966197 
L 307.299146 243.55093 
L 307.880436 243.316887 
L 309.043017 243.043129 
L 309.624307 243.370715 
L 310.205597 241.882617 
L 310.786888 241.238335 
L 311.368178 240.940403 
L 311.949468 242.011943 
L 312.530759 242.573248 
L 313.112049 240.999474 
L 313.69334 237.445472 
L 314.27463 232.591334 
L 314.85592 221.676382 
L 315.437211 220.226439 
L 316.018501 226.399315 
L 316.599791 222.712835 
L 317.181082 228.755211 
L 317.762372 229.592007 
L 318.343663 233.33663 
L 318.924953 235.480475 
L 319.506243 238.724646 
L 320.087534 239.333759 
L 320.668824 240.382142 
L 321.250114 240.401957 
L 321.831405 239.869573 
L 322.412695 242.605646 
L 322.993985 242.592686 
L 323.575276 240.783494 
L 324.156566 238.059617 
L 324.737857 231.707124 
L 325.319147 221.462932 
L 325.900437 229.756097 
L 326.481728 231.954701 
L 327.063018 227.849507 
L 327.644308 238.438878 
L 328.806889 239.436174 
L 329.38818 237.993941 
L 329.96947 237.012392 
L 330.55076 236.834037 
L 331.132051 229.035162 
L 331.132051 229.035162 
" clip-path="url(#p4cf3ed20a4)" style="fill: none; stroke: #1f77b4; stroke-width: 1.5; stroke-linecap: square"/>
   </g>
   <g id="patch_3">
    <path d="M 40.603125 257.76 
L 40.603125 36 
" style="fill: none; stroke: #000000; stroke-width: 0.8; stroke-linejoin: miter; stroke-linecap: square"/>
   </g>
   <g id="patch_4">
    <path d="M 40.603125 257.76 
L 344.966761 257.76 
" style="fill: none; stroke: #000000; stroke-width: 0.8; stroke-linejoin: miter; stroke-linecap: square"/>
   </g>
   <g id="text_16">
    <text style="font-size: 12px; font-family: 'DejaVu Sans', 'Bitstream Vera Sans', 'Computer Modern Sans Serif', 'Lucida Grande', 'Verdana', 'Geneva', 'Lucid', 'Arial', 'Helvetica', 'Avant Garde', sans-serif; text-anchor: middle" x="192.784943" y="30" transform="rotate(-0 192.784943 30)">CYP1B1</text>
   </g>
  </g>
  <g id="axes_2">
   <g id="patch_5">
    <path d="M 405.839489 257.76 
L 710.203125 257.76 
L 710.203125 36 
L 405.839489 36 
z
" style="fill: #ffffff"/>
   </g>
   <g id="FillBetweenPolyCollection_2">
    <defs>
     <path id="mc6b36f3a2f" d="M 419.674199 -249.23625 
L 419.674199 -137.610833 
L 420.22981 -92.038091 
L 420.785421 -56.525294 
L 421.341032 -54.527285 
L 421.896643 -51.78422 
L 422.452254 -50.961373 
L 423.007865 -49.833376 
L 423.563475 -50.202959 
L 424.119086 -50.869837 
L 424.674697 -50.809554 
L 425.230308 -51.136073 
L 425.785919 -49.835858 
L 426.34153 -49.423972 
L 426.897141 -49.620888 
L 427.452752 -49.847056 
L 428.008362 -50.688613 
L 428.563973 -49.932762 
L 429.119584 -50.26835 
L 429.675195 -51.704299 
L 430.230806 -51.840598 
L 430.786417 -51.820389 
L 431.342028 -53.636313 
L 431.897639 -55.222226 
L 432.453249 -55.006733 
L 433.00886 -56.920813 
L 433.564471 -54.772438 
L 434.120082 -54.241917 
L 434.675693 -52.547829 
L 435.231304 -51.581014 
L 435.786915 -50.265688 
L 436.342526 -50.663067 
L 436.898136 -50.802328 
L 437.453747 -52.029602 
L 438.009358 -53.336649 
L 438.564969 -54.236753 
L 439.12058 -53.06491 
L 439.676191 -51.433109 
L 440.231802 -51.788343 
L 440.787413 -51.513752 
L 441.343023 -50.386006 
L 441.898634 -51.584932 
L 442.454245 -51.893769 
L 443.009856 -51.51116 
L 443.565467 -54.257738 
L 444.121078 -55.424428 
L 444.676689 -58.576203 
L 445.2323 -59.217224 
L 445.78791 -58.325018 
L 446.343521 -54.398616 
L 446.899132 -54.369901 
L 447.454743 -52.094277 
L 448.010354 -51.287199 
L 448.565965 -49.661797 
L 449.121576 -51.182161 
L 449.677187 -51.752222 
L 450.232797 -50.670808 
L 450.788408 -51.016408 
L 451.344019 -51.111944 
L 451.89963 -50.989225 
L 452.455241 -51.86934 
L 453.010852 -51.870608 
L 453.566463 -52.483793 
L 454.122074 -51.78966 
L 454.677684 -51.976908 
L 455.233295 -51.104338 
L 455.788906 -50.807672 
L 456.344517 -51.923426 
L 456.900128 -51.843725 
L 457.455739 -51.765903 
L 458.01135 -52.888326 
L 458.566961 -54.309627 
L 459.122571 -54.268796 
L 459.678182 -53.180324 
L 460.233793 -54.506183 
L 460.789404 -52.71353 
L 461.345015 -54.296661 
L 461.900626 -53.366852 
L 462.456237 -52.89222 
L 463.011847 -52.596551 
L 463.567458 -48.734186 
L 464.123069 -53.626844 
L 464.67868 -52.473965 
L 465.234291 -58.031272 
L 465.789902 -56.609142 
L 466.345513 -55.432386 
L 466.901124 -53.941592 
L 467.456734 -54.322615 
L 468.012345 -55.539988 
L 468.567956 -56.416089 
L 469.123567 -60.181556 
L 469.679178 -68.159079 
L 470.234789 -64.745579 
L 470.7904 -60.361068 
L 471.346011 -58.136195 
L 471.901621 -58.275457 
L 472.457232 -57.476106 
L 473.012843 -57.294904 
L 473.568454 -58.067925 
L 474.124065 -60.929725 
L 474.679676 -59.851085 
L 475.235287 -59.056017 
L 475.790898 -60.358218 
L 476.346508 -60.918898 
L 476.902119 -60.951345 
L 477.45773 -67.635863 
L 478.013341 -62.008133 
L 478.568952 -63.603901 
L 479.124563 -59.735642 
L 479.680174 -57.435458 
L 480.235785 -58.794924 
L 480.791395 -56.38008 
L 481.347006 -56.583153 
L 481.902617 -57.560082 
L 482.458228 -56.500588 
L 483.013839 -58.778597 
L 483.56945 -57.110013 
L 484.125061 -57.098843 
L 484.680672 -57.873562 
L 485.236282 -57.076232 
L 485.791893 -56.053398 
L 486.347504 -55.387788 
L 486.903115 -56.616197 
L 487.458726 -55.609495 
L 488.014337 -56.774804 
L 488.569948 -59.136787 
L 489.125559 -59.090049 
L 489.681169 -56.740327 
L 490.23678 -59.328448 
L 490.792391 -61.059964 
L 491.348002 -58.993824 
L 491.903613 -56.719747 
L 492.459224 -54.783951 
L 493.014835 -55.609976 
L 493.570446 -58.075103 
L 494.126056 -57.282907 
L 494.681667 -59.953521 
L 495.237278 -57.484105 
L 495.792889 -54.707057 
L 496.3485 -56.657007 
L 496.904111 -55.725337 
L 497.459722 -52.758443 
L 498.015333 -52.196878 
L 498.570943 -54.244286 
L 499.126554 -53.442672 
L 499.682165 -53.008617 
L 500.237776 -52.307657 
L 500.793387 -53.916858 
L 501.348998 -55.31552 
L 501.904609 -54.563841 
L 502.460219 -55.296627 
L 503.01583 -58.859721 
L 503.571441 -60.88748 
L 504.127052 -58.704067 
L 504.682663 -57.375855 
L 505.238274 -58.421961 
L 505.793885 -59.270903 
L 506.349496 -60.73344 
L 506.905106 -61.480068 
L 507.460717 -60.090309 
L 508.016328 -57.833115 
L 508.571939 -58.075489 
L 509.12755 -56.77739 
L 509.683161 -55.909632 
L 510.238772 -54.518832 
L 510.794383 -53.397426 
L 511.349993 -53.800946 
L 511.905604 -53.193882 
L 512.461215 -55.379702 
L 513.016826 -54.785129 
L 513.572437 -53.263699 
L 514.128048 -58.010649 
L 514.683659 -55.810186 
L 515.23927 -58.308169 
L 515.79488 -56.703651 
L 516.350491 -54.350933 
L 516.906102 -54.196392 
L 517.461713 -54.700172 
L 518.017324 -52.523442 
L 518.572935 -51.684919 
L 519.128546 -51.49289 
L 519.684157 -51.26546 
L 520.239767 -51.861756 
L 520.795378 -51.681615 
L 521.350989 -51.5049 
L 521.9066 -51.040081 
L 522.462211 -51.853031 
L 523.017822 -51.601788 
L 523.573433 -51.201348 
L 524.129044 -50.616582 
L 524.684654 -51.617492 
L 525.240265 -53.354168 
L 525.795876 -53.174799 
L 526.351487 -54.968612 
L 526.907098 -54.186445 
L 527.462709 -52.062089 
L 528.01832 -52.142889 
L 528.573931 -53.60065 
L 529.129541 -54.028696 
L 529.685152 -53.631071 
L 530.240763 -53.922582 
L 530.796374 -53.327566 
L 531.351985 -52.802646 
L 531.907596 -51.368435 
L 532.463207 -51.467495 
L 533.018818 -49.829587 
L 533.574428 -50.574093 
L 534.130039 -51.057407 
L 534.68565 -51.261432 
L 535.241261 -51.553392 
L 535.796872 -51.968188 
L 536.352483 -51.207864 
L 536.908094 -51.550666 
L 537.463705 -54.03172 
L 538.019315 -53.022176 
L 538.574926 -51.754719 
L 539.130537 -51.094993 
L 539.686148 -51.984489 
L 540.241759 -52.27719 
L 540.79737 -51.473685 
L 541.352981 -52.136476 
L 541.908591 -54.358547 
L 542.464202 -54.665789 
L 543.019813 -53.812968 
L 543.575424 -55.724057 
L 544.131035 -56.493925 
L 544.686646 -54.002618 
L 545.242257 -52.133566 
L 545.797868 -52.43825 
L 546.353478 -52.592394 
L 546.909089 -53.521755 
L 547.4647 -52.72259 
L 548.020311 -52.525716 
L 548.575922 -51.482688 
L 549.131533 -52.556771 
L 549.687144 -52.771022 
L 550.242755 -52.78036 
L 550.798365 -53.429115 
L 551.353976 -53.802317 
L 551.909587 -56.082896 
L 552.465198 -57.16168 
L 553.020809 -58.538066 
L 553.57642 -55.471692 
L 554.132031 -53.037186 
L 554.687642 -53.139227 
L 555.243252 -52.665328 
L 555.798863 -52.899929 
L 556.354474 -53.035218 
L 556.910085 -54.786629 
L 557.465696 -57.230857 
L 558.021307 -58.637923 
L 558.576918 -55.520512 
L 559.132529 -54.852863 
L 559.688139 -53.677975 
L 560.24375 -54.087089 
L 560.799361 -53.014039 
L 561.354972 -53.102206 
L 561.910583 -51.305443 
L 562.466194 -50.204248 
L 563.021805 -49.550596 
L 563.577416 -50.392832 
L 564.133026 -51.359983 
L 564.688637 -53.259114 
L 565.244248 -54.153016 
L 565.799859 -56.366673 
L 566.35547 -59.520157 
L 566.911081 -54.35458 
L 567.466692 -55.369329 
L 568.022303 -56.327942 
L 568.577913 -56.238886 
L 569.133524 -53.465495 
L 569.689135 -54.268265 
L 570.244746 -53.984709 
L 570.800357 -54.76184 
L 571.355968 -55.902181 
L 571.911579 -56.951477 
L 572.46719 -56.615653 
L 573.0228 -57.371436 
L 573.578411 -57.980974 
L 574.134022 -56.451804 
L 574.689633 -55.583934 
L 575.245244 -55.937904 
L 575.800855 -55.534476 
L 576.356466 -54.624133 
L 576.912077 -55.875315 
L 577.467687 -57.344191 
L 578.023298 -55.186576 
L 578.578909 -53.666169 
L 579.13452 -53.240018 
L 579.690131 -54.388245 
L 580.245742 -52.835921 
L 580.801353 -52.007995 
L 581.356963 -54.490259 
L 581.912574 -53.654 
L 582.468185 -51.430204 
L 583.023796 -51.153993 
L 583.579407 -50.719229 
L 584.135018 -51.108308 
L 584.690629 -50.962305 
L 585.24624 -52.218942 
L 585.80185 -54.512041 
L 586.357461 -55.538499 
L 586.913072 -53.995813 
L 587.468683 -54.280537 
L 588.024294 -52.648223 
L 588.579905 -53.510337 
L 589.135516 -56.651016 
L 589.691127 -56.241587 
L 590.246737 -55.362609 
L 590.802348 -53.300382 
L 591.357959 -52.791206 
L 591.91357 -53.955746 
L 592.469181 -53.931369 
L 593.024792 -54.502333 
L 593.580403 -54.260605 
L 594.136014 -55.244045 
L 594.691624 -58.820171 
L 595.247235 -62.724723 
L 595.802846 -65.053495 
L 596.358457 -65.739305 
L 596.914068 -58.438768 
L 597.469679 -56.820055 
L 598.02529 -53.589373 
L 598.580901 -53.317099 
L 599.136511 -51.663383 
L 599.692122 -51.178151 
L 600.247733 -52.65783 
L 600.803344 -51.982955 
L 601.358955 -52.238664 
L 601.914566 -52.388716 
L 602.470177 -53.368234 
L 603.025788 -57.90154 
L 603.581398 -62.084238 
L 604.137009 -58.028138 
L 604.69262 -56.839826 
L 605.248231 -53.6706 
L 605.803842 -52.857204 
L 606.359453 -51.671771 
L 606.915064 -51.304229 
L 607.470675 -50.49174 
L 608.026285 -52.702371 
L 608.581896 -50.868064 
L 609.137507 -52.345624 
L 609.693118 -59.635712 
L 610.248729 -69.791694 
L 610.80434 -68.00892 
L 611.359951 -63.251549 
L 611.915562 -65.714519 
L 612.471172 -70.924915 
L 613.026783 -68.646966 
L 613.582394 -66.815788 
L 614.138005 -72.63722 
L 614.693616 -76.42566 
L 615.249227 -73.030679 
L 615.804838 -70.234148 
L 616.360449 -66.607452 
L 616.916059 -67.154629 
L 617.47167 -66.644947 
L 618.027281 -63.232499 
L 618.582892 -58.111699 
L 619.138503 -58.05122 
L 619.694114 -58.407155 
L 620.249725 -55.210136 
L 620.805335 -54.005191 
L 621.360946 -56.146866 
L 621.916557 -55.071672 
L 622.472168 -53.559062 
L 623.027779 -54.305508 
L 623.58339 -56.5398 
L 624.139001 -55.823149 
L 624.694612 -55.530175 
L 625.250222 -58.081714 
L 625.805833 -57.586697 
L 626.361444 -57.522045 
L 626.917055 -56.222727 
L 627.472666 -53.812728 
L 628.028277 -55.776671 
L 628.583888 -57.604559 
L 629.139499 -54.243295 
L 629.695109 -53.610592 
L 630.25072 -52.727005 
L 630.806331 -51.953047 
L 631.361942 -53.093379 
L 631.917553 -53.818706 
L 632.473164 -51.539075 
L 633.028775 -54.458144 
L 633.584386 -55.273132 
L 634.139996 -60.579303 
L 634.695607 -61.969733 
L 635.251218 -57.998295 
L 635.806829 -52.818702 
L 636.36244 -47.63625 
L 636.918051 -58.105603 
L 637.473662 -61.849583 
L 638.029273 -53.110903 
L 638.584883 -51.317904 
L 639.140494 -49.52818 
L 639.696105 -49.770009 
L 640.251716 -51.580794 
L 640.807327 -52.954279 
L 641.362938 -52.552878 
L 641.918549 -53.533091 
L 642.47416 -53.179521 
L 643.02977 -53.803286 
L 643.585381 -54.231407 
L 644.140992 -53.444813 
L 644.696603 -54.109882 
L 645.252214 -55.429317 
L 645.807825 -55.69655 
L 646.363436 -56.365547 
L 646.919047 -56.185734 
L 647.474657 -56.404768 
L 648.030268 -55.579298 
L 648.585879 -54.387429 
L 649.14149 -54.751998 
L 649.697101 -52.873867 
L 650.252712 -53.490086 
L 650.808323 -54.186153 
L 651.363934 -52.657303 
L 651.919544 -51.603493 
L 652.475155 -50.07703 
L 653.030766 -49.817481 
L 653.586377 -49.369585 
L 654.141988 -49.481607 
L 654.697599 -49.372639 
L 655.25321 -50.980118 
L 655.808821 -50.737558 
L 656.364431 -50.727166 
L 656.920042 -53.162612 
L 657.475653 -52.492253 
L 658.031264 -50.87969 
L 658.586875 -50.552152 
L 659.142486 -51.307004 
L 659.698097 -49.93616 
L 660.253707 -50.153709 
L 660.809318 -49.95427 
L 661.364929 -50.058164 
L 661.92054 -49.614341 
L 662.476151 -49.932019 
L 663.031762 -50.43178 
L 663.587373 -50.077447 
L 664.142984 -50.191692 
L 664.698594 -50.50306 
L 665.254205 -50.629575 
L 665.809816 -50.320758 
L 666.365427 -50.734856 
L 666.921038 -51.832334 
L 667.476649 -51.857977 
L 668.03226 -52.130363 
L 668.587871 -53.780971 
L 669.143481 -55.230272 
L 669.699092 -55.835585 
L 670.254703 -57.551692 
L 670.810314 -60.465389 
L 671.365925 -60.96999 
L 671.921536 -60.575875 
L 672.477147 -63.015615 
L 673.032758 -62.276707 
L 673.588368 -65.352987 
L 674.143979 -60.450198 
L 674.69959 -56.62953 
L 675.255201 -61.077173 
L 675.810812 -64.297573 
L 676.366423 -62.599463 
L 676.922034 -55.635493 
L 677.477645 -57.267356 
L 678.033255 -57.653293 
L 678.588866 -58.479839 
L 679.144477 -64.929644 
L 679.700088 -60.679705 
L 680.255699 -53.853806 
L 680.81131 -56.453078 
L 681.366921 -53.29835 
L 681.922532 -52.306553 
L 682.478142 -54.773446 
L 683.033753 -58.340929 
L 683.589364 -63.863026 
L 684.144975 -66.770699 
L 684.700586 -67.738404 
L 685.256197 -67.598798 
L 685.811808 -62.052211 
L 686.367419 -63.075454 
L 686.923029 -67.310119 
L 687.47864 -69.337721 
L 688.034251 -60.228895 
L 688.589862 -63.61906 
L 689.145473 -60.68577 
L 689.701084 -58.651857 
L 690.256695 -62.578221 
L 690.812306 -65.576057 
L 691.367916 -63.849899 
L 691.923527 -67.204456 
L 692.479138 -76.492194 
L 693.034749 -78.314331 
L 693.59036 -80.624704 
L 694.145971 -95.825242 
L 694.701582 -107.442322 
L 695.257193 -111.449836 
L 695.812803 -123.267152 
L 696.368414 -142.378588 
L 696.368414 -182.128152 
L 696.368414 -182.128152 
L 695.812803 -148.0396 
L 695.257193 -128.7443 
L 694.701582 -127.490874 
L 694.145971 -119.142869 
L 693.59036 -100.938879 
L 693.034749 -101.964605 
L 692.479138 -108.321074 
L 691.923527 -96.100909 
L 691.367916 -88.417454 
L 690.812306 -106.894944 
L 690.256695 -114.276169 
L 689.701084 -103.783676 
L 689.145473 -112.442949 
L 688.589862 -111.5381 
L 688.034251 -96.916348 
L 687.47864 -88.521116 
L 686.923029 -87.824767 
L 686.367419 -116.909037 
L 685.811808 -133.342642 
L 685.256197 -115.026111 
L 684.700586 -112.42507 
L 684.144975 -102.053299 
L 683.589364 -100.286238 
L 683.033753 -89.182825 
L 682.478142 -92.817448 
L 681.922532 -93.159675 
L 681.366921 -94.13019 
L 680.81131 -87.553465 
L 680.255699 -79.890961 
L 679.700088 -76.161261 
L 679.144477 -76.819418 
L 678.588866 -74.25629 
L 678.033255 -73.23916 
L 677.477645 -72.659259 
L 676.922034 -65.234518 
L 676.366423 -71.349704 
L 675.810812 -70.591828 
L 675.255201 -71.928936 
L 674.69959 -64.63589 
L 674.143979 -67.569158 
L 673.588368 -74.303374 
L 673.032758 -72.664083 
L 672.477147 -71.702301 
L 671.921536 -65.036201 
L 671.365925 -65.06033 
L 670.810314 -64.946572 
L 670.254703 -61.082065 
L 669.699092 -58.725201 
L 669.143481 -57.976478 
L 668.587871 -56.095527 
L 668.03226 -53.982679 
L 667.476649 -53.586779 
L 666.921038 -52.522862 
L 666.365427 -51.895263 
L 665.809816 -52.131396 
L 665.254205 -51.535448 
L 664.698594 -50.87714 
L 664.142984 -50.648155 
L 663.587373 -50.689998 
L 663.031762 -50.855501 
L 662.476151 -50.135296 
L 661.92054 -50.128242 
L 661.364929 -50.785199 
L 660.809318 -50.697313 
L 660.253707 -50.487051 
L 659.698097 -51.27276 
L 659.142486 -52.358327 
L 658.586875 -51.220415 
L 658.031264 -51.210284 
L 657.475653 -53.075328 
L 656.920042 -56.084998 
L 656.364431 -51.634877 
L 655.808821 -51.52994 
L 655.25321 -51.75838 
L 654.697599 -50.303283 
L 654.141988 -51.145542 
L 653.586377 -52.373488 
L 653.030766 -54.096303 
L 652.475155 -52.657522 
L 651.919544 -52.763699 
L 651.363934 -53.742615 
L 650.808323 -56.460408 
L 650.252712 -57.496579 
L 649.697101 -54.369732 
L 649.14149 -57.034899 
L 648.585879 -57.191347 
L 648.030268 -56.629049 
L 647.474657 -57.575395 
L 646.919047 -58.180491 
L 646.363436 -59.605801 
L 645.807825 -58.716096 
L 645.252214 -58.630398 
L 644.696603 -56.486472 
L 644.140992 -55.409438 
L 643.585381 -55.597771 
L 643.02977 -55.816061 
L 642.47416 -54.53803 
L 641.918549 -54.034484 
L 641.362938 -53.581846 
L 640.807327 -55.807968 
L 640.251716 -55.910471 
L 639.696105 -59.055552 
L 639.140494 -56.262763 
L 638.584883 -54.884771 
L 638.029273 -61.005204 
L 637.473662 -66.792729 
L 636.918051 -59.097671 
L 636.36244 -74.553255 
L 635.806829 -86.264085 
L 635.251218 -70.624776 
L 634.695607 -68.88836 
L 634.139996 -68.883597 
L 633.584386 -61.648854 
L 633.028775 -59.924082 
L 632.473164 -56.824081 
L 631.917553 -56.629577 
L 631.361942 -56.102916 
L 630.806331 -54.976583 
L 630.25072 -55.823197 
L 629.695109 -56.96767 
L 629.139499 -55.883156 
L 628.583888 -60.340259 
L 628.028277 -58.122257 
L 627.472666 -56.36772 
L 626.917055 -59.756215 
L 626.361444 -61.725631 
L 625.805833 -62.997962 
L 625.250222 -63.126713 
L 624.694612 -59.801592 
L 624.139001 -58.469182 
L 623.58339 -60.244055 
L 623.027779 -57.848133 
L 622.472168 -56.015441 
L 621.916557 -57.6322 
L 621.360946 -58.077033 
L 620.805335 -56.19648 
L 620.249725 -56.908849 
L 619.694114 -60.92342 
L 619.138503 -60.423955 
L 618.582892 -60.285547 
L 618.027281 -65.805429 
L 617.47167 -69.204547 
L 616.916059 -70.487572 
L 616.360449 -74.522089 
L 615.804838 -77.545558 
L 615.249227 -75.168256 
L 614.693616 -79.24545 
L 614.138005 -75.226957 
L 613.582394 -70.963336 
L 613.026783 -77.423775 
L 612.471172 -79.539563 
L 611.915562 -73.796723 
L 611.359951 -67.776993 
L 610.80434 -76.529519 
L 610.248729 -81.313799 
L 609.693118 -63.858566 
L 609.137507 -57.21464 
L 608.581896 -55.081864 
L 608.026285 -55.239262 
L 607.470675 -53.437845 
L 606.915064 -52.720975 
L 606.359453 -52.423316 
L 605.803842 -53.968184 
L 605.248231 -55.641943 
L 604.69262 -65.224104 
L 604.137009 -82.081271 
L 603.581398 -68.881199 
L 603.025788 -61.065843 
L 602.470177 -56.968506 
L 601.914566 -55.548662 
L 601.358955 -54.483529 
L 600.803344 -55.533699 
L 600.247733 -54.788551 
L 599.692122 -54.077696 
L 599.136511 -55.878309 
L 598.580901 -58.086441 
L 598.02529 -55.161689 
L 597.469679 -61.695314 
L 596.914068 -61.906163 
L 596.358457 -71.260998 
L 595.802846 -70.644078 
L 595.247235 -64.11856 
L 594.691624 -60.604717 
L 594.136014 -57.494362 
L 593.580403 -56.757421 
L 593.024792 -57.7606 
L 592.469181 -57.290192 
L 591.91357 -56.100896 
L 591.357959 -60.492307 
L 590.802348 -60.738356 
L 590.246737 -66.200246 
L 589.691127 -67.142394 
L 589.135516 -67.857686 
L 588.579905 -63.298647 
L 588.024294 -59.650455 
L 587.468683 -59.367873 
L 586.913072 -57.008601 
L 586.357461 -56.91176 
L 585.80185 -57.717392 
L 585.24624 -54.032508 
L 584.690629 -53.025353 
L 584.135018 -52.380102 
L 583.579407 -52.640828 
L 583.023796 -54.529408 
L 582.468185 -54.897419 
L 581.912574 -56.33163 
L 581.356963 -56.845174 
L 580.801353 -58.273766 
L 580.245742 -56.533224 
L 579.690131 -54.957469 
L 579.13452 -55.210279 
L 578.578909 -54.010631 
L 578.023298 -56.471896 
L 577.467687 -57.958698 
L 576.912077 -57.168082 
L 576.356466 -57.482511 
L 575.800855 -57.321283 
L 575.245244 -57.460974 
L 574.689633 -56.946516 
L 574.134022 -58.663188 
L 573.578411 -61.416347 
L 573.0228 -61.026202 
L 572.46719 -58.231768 
L 571.911579 -57.609473 
L 571.355968 -56.216131 
L 570.800357 -55.788303 
L 570.244746 -55.55068 
L 569.689135 -57.125193 
L 569.133524 -56.57462 
L 568.577913 -60.501383 
L 568.022303 -65.674607 
L 567.466692 -65.474636 
L 566.911081 -62.62424 
L 566.35547 -61.638616 
L 565.799859 -59.622868 
L 565.244248 -55.015033 
L 564.688637 -53.721378 
L 564.133026 -52.857242 
L 563.577416 -53.415427 
L 563.021805 -50.291949 
L 562.466194 -51.168585 
L 561.910583 -52.415961 
L 561.354972 -53.818675 
L 560.799361 -53.709892 
L 560.24375 -55.104743 
L 559.688139 -55.789364 
L 559.132529 -57.413704 
L 558.576918 -59.735264 
L 558.021307 -63.761416 
L 557.465696 -62.195532 
L 556.910085 -59.615933 
L 556.354474 -56.390566 
L 555.798863 -55.428135 
L 555.243252 -53.580671 
L 554.687642 -53.893432 
L 554.132031 -53.525808 
L 553.57642 -56.409894 
L 553.020809 -60.909522 
L 552.465198 -57.931392 
L 551.909587 -56.557496 
L 551.353976 -54.709006 
L 550.798365 -54.05363 
L 550.242755 -53.278178 
L 549.687144 -55.172829 
L 549.131533 -55.991069 
L 548.575922 -53.574321 
L 548.020311 -54.58085 
L 547.4647 -55.144225 
L 546.909089 -55.50586 
L 546.353478 -54.504099 
L 545.797868 -54.161214 
L 545.242257 -53.15164 
L 544.686646 -54.667752 
L 544.131035 -57.24242 
L 543.575424 -56.617071 
L 543.019813 -54.06347 
L 542.464202 -54.930747 
L 541.908591 -54.812728 
L 541.352981 -52.621608 
L 540.79737 -51.694401 
L 540.241759 -52.471312 
L 539.686148 -52.282725 
L 539.130537 -51.621536 
L 538.574926 -53.095732 
L 538.019315 -54.991866 
L 537.463705 -54.747672 
L 536.908094 -54.559947 
L 536.352483 -55.037033 
L 535.796872 -55.311683 
L 535.241261 -54.264197 
L 534.68565 -53.295185 
L 534.130039 -54.035643 
L 533.574428 -54.816222 
L 533.018818 -60.951785 
L 532.463207 -56.985771 
L 531.907596 -62.412411 
L 531.351985 -60.560355 
L 530.796374 -67.218651 
L 530.240763 -74.209844 
L 529.685152 -69.856819 
L 529.129541 -72.158657 
L 528.573931 -69.221804 
L 528.01832 -60.455802 
L 527.462709 -59.694352 
L 526.907098 -62.826412 
L 526.351487 -59.77614 
L 525.795876 -56.223008 
L 525.240265 -56.377437 
L 524.684654 -54.799377 
L 524.129044 -52.567476 
L 523.573433 -52.755066 
L 523.017822 -53.090559 
L 522.462211 -52.700867 
L 521.9066 -52.990682 
L 521.350989 -53.354958 
L 520.795378 -52.586988 
L 520.239767 -52.953811 
L 519.684157 -53.902537 
L 519.128546 -53.693535 
L 518.572935 -53.294113 
L 518.017324 -53.709862 
L 517.461713 -55.506669 
L 516.906102 -56.433654 
L 516.350491 -55.068584 
L 515.79488 -60.587285 
L 515.23927 -66.673128 
L 514.683659 -60.391556 
L 514.128048 -64.325553 
L 513.572437 -60.845659 
L 513.016826 -63.33349 
L 512.461215 -61.90973 
L 511.905604 -58.164785 
L 511.349993 -57.541918 
L 510.794383 -65.32682 
L 510.238772 -62.089275 
L 509.683161 -60.46674 
L 509.12755 -63.009391 
L 508.571939 -60.495079 
L 508.016328 -59.753934 
L 507.460717 -60.795402 
L 506.905106 -64.95812 
L 506.349496 -66.469925 
L 505.793885 -64.564664 
L 505.238274 -67.41767 
L 504.682663 -61.576513 
L 504.127052 -63.37614 
L 503.571441 -64.90384 
L 503.01583 -61.641078 
L 502.460219 -56.875599 
L 501.904609 -56.46363 
L 501.348998 -56.765698 
L 500.793387 -55.974501 
L 500.237776 -54.177413 
L 499.682165 -55.103123 
L 499.126554 -56.568037 
L 498.570943 -56.577693 
L 498.015333 -54.727725 
L 497.459722 -55.691611 
L 496.904111 -58.704686 
L 496.3485 -60.244541 
L 495.792889 -57.366449 
L 495.237278 -59.575339 
L 494.681667 -61.26203 
L 494.126056 -59.019326 
L 493.570446 -59.686005 
L 493.014835 -57.719241 
L 492.459224 -56.331699 
L 491.903613 -58.634546 
L 491.348002 -62.565489 
L 490.792391 -62.89931 
L 490.23678 -59.893059 
L 489.681169 -57.394081 
L 489.125559 -59.452792 
L 488.569948 -59.56459 
L 488.014337 -57.086455 
L 487.458726 -57.519291 
L 486.903115 -61.016274 
L 486.347504 -60.407507 
L 485.791893 -60.211217 
L 485.236282 -60.24581 
L 484.680672 -60.143006 
L 484.125061 -60.857532 
L 483.56945 -59.940513 
L 483.013839 -59.853676 
L 482.458228 -65.499873 
L 481.902617 -60.086963 
L 481.347006 -59.165982 
L 480.791395 -64.446431 
L 480.235785 -61.677965 
L 479.680174 -61.055557 
L 479.124563 -66.263457 
L 478.568952 -66.899396 
L 478.013341 -64.441864 
L 477.45773 -69.526342 
L 476.902119 -61.497626 
L 476.346508 -63.70808 
L 475.790898 -63.668778 
L 475.235287 -61.794018 
L 474.679676 -62.270929 
L 474.124065 -64.894695 
L 473.568454 -59.608236 
L 473.012843 -59.10724 
L 472.457232 -60.018611 
L 471.901621 -60.190729 
L 471.346011 -59.52033 
L 470.7904 -62.586889 
L 470.234789 -66.780747 
L 469.679178 -71.406689 
L 469.123567 -62.074876 
L 468.567956 -57.930934 
L 468.012345 -57.705389 
L 467.456734 -57.311671 
L 466.901124 -58.378365 
L 466.345513 -60.417985 
L 465.789902 -63.866463 
L 465.234291 -70.836496 
L 464.67868 -79.611217 
L 464.123069 -65.116642 
L 463.567458 -72.931775 
L 463.011847 -55.282528 
L 462.456237 -54.991265 
L 461.900626 -55.086733 
L 461.345015 -56.403222 
L 460.789404 -54.613079 
L 460.233793 -56.612126 
L 459.678182 -54.661569 
L 459.122571 -56.056509 
L 458.566961 -55.658109 
L 458.01135 -53.785095 
L 457.455739 -52.987845 
L 456.900128 -54.375101 
L 456.344517 -53.036841 
L 455.788906 -51.649933 
L 455.233295 -52.535124 
L 454.677684 -54.061933 
L 454.122074 -54.087646 
L 453.566463 -61.613252 
L 453.010852 -61.478607 
L 452.455241 -61.800592 
L 451.89963 -54.04849 
L 451.344019 -53.427204 
L 450.788408 -53.73358 
L 450.232797 -52.924423 
L 449.677187 -53.674829 
L 449.121576 -53.93672 
L 448.565965 -53.726432 
L 448.010354 -57.339358 
L 447.454743 -59.31325 
L 446.899132 -58.98303 
L 446.343521 -59.913635 
L 445.78791 -63.296479 
L 445.2323 -63.619404 
L 444.676689 -62.565642 
L 444.121078 -60.865431 
L 443.565467 -57.140715 
L 443.009856 -54.392066 
L 442.454245 -55.318207 
L 441.898634 -53.473251 
L 441.343023 -51.727568 
L 440.787413 -54.0856 
L 440.231802 -53.606679 
L 439.676191 -52.37051 
L 439.12058 -55.343462 
L 438.564969 -57.332035 
L 438.009358 -58.568286 
L 437.453747 -53.542497 
L 436.898136 -52.312654 
L 436.342526 -51.866757 
L 435.786915 -51.489101 
L 435.231304 -52.631262 
L 434.675693 -53.245515 
L 434.120082 -55.471665 
L 433.564471 -55.953056 
L 433.00886 -57.946639 
L 432.453249 -56.003126 
L 431.897639 -55.720975 
L 431.342028 -54.302317 
L 430.786417 -52.721738 
L 430.230806 -52.28629 
L 429.675195 -52.281403 
L 429.119584 -51.105456 
L 428.563973 -50.51058 
L 428.008362 -51.01935 
L 427.452752 -50.399621 
L 426.897141 -50.102781 
L 426.34153 -49.832541 
L 425.785919 -50.372643 
L 425.230308 -51.474874 
L 424.674697 -51.508269 
L 424.119086 -51.778856 
L 423.563475 -51.249726 
L 423.007865 -50.934032 
L 422.452254 -51.596398 
L 421.896643 -52.249493 
L 421.341032 -55.594598 
L 420.785421 -57.443754 
L 420.22981 -105.98638 
L 419.674199 -249.23625 
z
"/>
    </defs>
    <g clip-path="url(#p2dc52283a3)">
     <use xlink:href="#mc6b36f3a2f" x="0" y="295.31625" style="fill: #d95f02; fill-opacity: 0.2"/>
    </g>
   </g>
   <g id="matplotlib.axis_3">
    <g id="xtick_7">
     <g id="line2d_28">
      <path d="M 419.118589 257.76 
L 419.118589 36 
" clip-path="url(#p2dc52283a3)" style="fill: none; stroke: #b0b0b0; stroke-opacity: 0.25; stroke-width: 0.8; stroke-linecap: square"/>
     </g>
     <g id="line2d_29">
      <g>
       <use xlink:href="#me7e0e2b841" x="419.118589" y="257.76" style="stroke: #000000; stroke-width: 0.8"/>
      </g>
     </g>
     <g id="text_17">
      <text style="font-size: 10px; font-family: 'DejaVu Sans', 'Bitstream Vera Sans', 'Computer Modern Sans Serif', 'Lucida Grande', 'Verdana', 'Geneva', 'Lucid', 'Arial', 'Helvetica', 'Avant Garde', sans-serif; text-anchor: middle" x="419.118589" y="272.358437" transform="rotate(-0 419.118589 272.358437)">0</text>
     </g>
    </g>
    <g id="xtick_8">
     <g id="line2d_30">
      <path d="M 474.679676 257.76 
L 474.679676 36 
" clip-path="url(#p2dc52283a3)" style="fill: none; stroke: #b0b0b0; stroke-opacity: 0.25; stroke-width: 0.8; stroke-linecap: square"/>
     </g>
     <g id="line2d_31">
      <g>
       <use xlink:href="#me7e0e2b841" x="474.679676" y="257.76" style="stroke: #000000; stroke-width: 0.8"/>
      </g>
     </g>
     <g id="text_18">
      <text style="font-size: 10px; font-family: 'DejaVu Sans', 'Bitstream Vera Sans', 'Computer Modern Sans Serif', 'Lucida Grande', 'Verdana', 'Geneva', 'Lucid', 'Arial', 'Helvetica', 'Avant Garde', sans-serif; text-anchor: middle" x="474.679676" y="272.358437" transform="rotate(-0 474.679676 272.358437)">100</text>
     </g>
    </g>
    <g id="xtick_9">
     <g id="line2d_32">
      <path d="M 530.240763 257.76 
L 530.240763 36 
" clip-path="url(#p2dc52283a3)" style="fill: none; stroke: #b0b0b0; stroke-opacity: 0.25; stroke-width: 0.8; stroke-linecap: square"/>
     </g>
     <g id="line2d_33">
      <g>
       <use xlink:href="#me7e0e2b841" x="530.240763" y="257.76" style="stroke: #000000; stroke-width: 0.8"/>
      </g>
     </g>
     <g id="text_19">
      <text style="font-size: 10px; font-family: 'DejaVu Sans', 'Bitstream Vera Sans', 'Computer Modern Sans Serif', 'Lucida Grande', 'Verdana', 'Geneva', 'Lucid', 'Arial', 'Helvetica', 'Avant Garde', sans-serif; text-anchor: middle" x="530.240763" y="272.358437" transform="rotate(-0 530.240763 272.358437)">200</text>
     </g>
    </g>
    <g id="xtick_10">
     <g id="line2d_34">
      <path d="M 585.80185 257.76 
L 585.80185 36 
" clip-path="url(#p2dc52283a3)" style="fill: none; stroke: #b0b0b0; stroke-opacity: 0.25; stroke-width: 0.8; stroke-linecap: square"/>
     </g>
     <g id="line2d_35">
      <g>
       <use xlink:href="#me7e0e2b841" x="585.80185" y="257.76" style="stroke: #000000; stroke-width: 0.8"/>
      </g>
     </g>
     <g id="text_20">
      <text style="font-size: 10px; font-family: 'DejaVu Sans', 'Bitstream Vera Sans', 'Computer Modern Sans Serif', 'Lucida Grande', 'Verdana', 'Geneva', 'Lucid', 'Arial', 'Helvetica', 'Avant Garde', sans-serif; text-anchor: middle" x="585.80185" y="272.358437" transform="rotate(-0 585.80185 272.358437)">300</text>
     </g>
    </g>
    <g id="xtick_11">
     <g id="line2d_36">
      <path d="M 641.362938 257.76 
L 641.362938 36 
" clip-path="url(#p2dc52283a3)" style="fill: none; stroke: #b0b0b0; stroke-opacity: 0.25; stroke-width: 0.8; stroke-linecap: square"/>
     </g>
     <g id="line2d_37">
      <g>
       <use xlink:href="#me7e0e2b841" x="641.362938" y="257.76" style="stroke: #000000; stroke-width: 0.8"/>
      </g>
     </g>
     <g id="text_21">
      <text style="font-size: 10px; font-family: 'DejaVu Sans', 'Bitstream Vera Sans', 'Computer Modern Sans Serif', 'Lucida Grande', 'Verdana', 'Geneva', 'Lucid', 'Arial', 'Helvetica', 'Avant Garde', sans-serif; text-anchor: middle" x="641.362938" y="272.358437" transform="rotate(-0 641.362938 272.358437)">400</text>
     </g>
    </g>
    <g id="xtick_12">
     <g id="line2d_38">
      <path d="M 696.924025 257.76 
L 696.924025 36 
" clip-path="url(#p2dc52283a3)" style="fill: none; stroke: #b0b0b0; stroke-opacity: 0.25; stroke-width: 0.8; stroke-linecap: square"/>
     </g>
     <g id="line2d_39">
      <g>
       <use xlink:href="#me7e0e2b841" x="696.924025" y="257.76" style="stroke: #000000; stroke-width: 0.8"/>
      </g>
     </g>
     <g id="text_22">
      <text style="font-size: 10px; font-family: 'DejaVu Sans', 'Bitstream Vera Sans', 'Computer Modern Sans Serif', 'Lucida Grande', 'Verdana', 'Geneva', 'Lucid', 'Arial', 'Helvetica', 'Avant Garde', sans-serif; text-anchor: middle" x="696.924025" y="272.358437" transform="rotate(-0 696.924025 272.358437)">500</text>
     </g>
    </g>
    <g id="text_23">
     <text style="font-size: 10px; font-family: 'DejaVu Sans', 'Bitstream Vera Sans', 'Computer Modern Sans Serif', 'Lucida Grande', 'Verdana', 'Geneva', 'Lucid', 'Arial', 'Helvetica', 'Avant Garde', sans-serif; text-anchor: middle" x="558.021307" y="286.036562" transform="rotate(-0 558.021307 286.036562)">Residue number</text>
    </g>
   </g>
   <g id="matplotlib.axis_4">
    <g id="ytick_8">
     <g id="line2d_40">
      <path d="M 405.839489 252.155564 
L 710.203125 252.155564 
" clip-path="url(#p2dc52283a3)" style="fill: none; stroke: #b0b0b0; stroke-opacity: 0.25; stroke-width: 0.8; stroke-linecap: square"/>
     </g>
     <g id="line2d_41">
      <g>
       <use xlink:href="#mfa9f2a4ebc" x="405.839489" y="252.155564" style="stroke: #000000; stroke-width: 0.8"/>
      </g>
     </g>
    </g>
    <g id="ytick_9">
     <g id="line2d_42">
      <path d="M 405.839489 218.343464 
L 710.203125 218.343464 
" clip-path="url(#p2dc52283a3)" style="fill: none; stroke: #b0b0b0; stroke-opacity: 0.25; stroke-width: 0.8; stroke-linecap: square"/>
     </g>
     <g id="line2d_43">
      <g>
       <use xlink:href="#mfa9f2a4ebc" x="405.839489" y="218.343464" style="stroke: #000000; stroke-width: 0.8"/>
      </g>
     </g>
    </g>
    <g id="ytick_10">
     <g id="line2d_44">
      <path d="M 405.839489 184.531365 
L 710.203125 184.531365 
" clip-path="url(#p2dc52283a3)" style="fill: none; stroke: #b0b0b0; stroke-opacity: 0.25; stroke-width: 0.8; stroke-linecap: square"/>
     </g>
     <g id="line2d_45">
      <g>
       <use xlink:href="#mfa9f2a4ebc" x="405.839489" y="184.531365" style="stroke: #000000; stroke-width: 0.8"/>
      </g>
     </g>
    </g>
    <g id="ytick_11">
     <g id="line2d_46">
      <path d="M 405.839489 150.719265 
L 710.203125 150.719265 
" clip-path="url(#p2dc52283a3)" style="fill: none; stroke: #b0b0b0; stroke-opacity: 0.25; stroke-width: 0.8; stroke-linecap: square"/>
     </g>
     <g id="line2d_47">
      <g>
       <use xlink:href="#mfa9f2a4ebc" x="405.839489" y="150.719265" style="stroke: #000000; stroke-width: 0.8"/>
      </g>
     </g>
    </g>
    <g id="ytick_12">
     <g id="line2d_48">
      <path d="M 405.839489 116.907166 
L 710.203125 116.907166 
" clip-path="url(#p2dc52283a3)" style="fill: none; stroke: #b0b0b0; stroke-opacity: 0.25; stroke-width: 0.8; stroke-linecap: square"/>
     </g>
     <g id="line2d_49">
      <g>
       <use xlink:href="#mfa9f2a4ebc" x="405.839489" y="116.907166" style="stroke: #000000; stroke-width: 0.8"/>
      </g>
     </g>
    </g>
    <g id="ytick_13">
     <g id="line2d_50">
      <path d="M 405.839489 83.095066 
L 710.203125 83.095066 
" clip-path="url(#p2dc52283a3)" style="fill: none; stroke: #b0b0b0; stroke-opacity: 0.25; stroke-width: 0.8; stroke-linecap: square"/>
     </g>
     <g id="line2d_51">
      <g>
       <use xlink:href="#mfa9f2a4ebc" x="405.839489" y="83.095066" style="stroke: #000000; stroke-width: 0.8"/>
      </g>
     </g>
    </g>
    <g id="ytick_14">
     <g id="line2d_52">
      <path d="M 405.839489 49.282967 
L 710.203125 49.282967 
" clip-path="url(#p2dc52283a3)" style="fill: none; stroke: #b0b0b0; stroke-opacity: 0.25; stroke-width: 0.8; stroke-linecap: square"/>
     </g>
     <g id="line2d_53">
      <g>
       <use xlink:href="#mfa9f2a4ebc" x="405.839489" y="49.282967" style="stroke: #000000; stroke-width: 0.8"/>
      </g>
     </g>
    </g>
   </g>
   <g id="line2d_54">
    <path d="M 419.674199 101.892709 
L 420.22981 196.304014 
L 420.785421 238.331726 
L 421.341032 240.255309 
L 421.896643 243.299393 
L 423.007865 244.932546 
L 423.563475 244.589908 
L 424.119086 243.991903 
L 424.674697 244.157339 
L 425.230308 244.010777 
L 425.785919 245.211999 
L 426.34153 245.687994 
L 427.452752 245.192911 
L 428.008362 244.462268 
L 428.563973 245.094579 
L 429.119584 244.629347 
L 429.675195 243.323399 
L 430.230806 243.252806 
L 430.786417 243.045187 
L 431.897639 239.84465 
L 432.453249 239.811321 
L 433.00886 237.882524 
L 433.564471 239.953503 
L 434.120082 240.459459 
L 434.675693 242.419578 
L 435.231304 243.210112 
L 435.786915 244.438855 
L 436.898136 243.758759 
L 437.453747 242.5302 
L 438.009358 239.363783 
L 438.564969 239.531856 
L 439.12058 241.112064 
L 439.676191 243.414441 
L 440.231802 242.618739 
L 440.787413 242.516574 
L 441.343023 244.259463 
L 441.898634 242.787159 
L 442.454245 241.710262 
L 443.009856 242.364637 
L 444.121078 237.171321 
L 444.676689 234.745328 
L 445.2323 233.897936 
L 445.78791 234.505501 
L 446.343521 238.160124 
L 446.899132 238.639784 
L 447.454743 239.612487 
L 448.010354 241.002971 
L 448.565965 243.622135 
L 449.121576 242.75681 
L 449.677187 242.602724 
L 450.232797 243.518634 
L 450.788408 242.941256 
L 451.344019 243.046676 
L 451.89963 242.797393 
L 452.455241 238.481284 
L 453.010852 238.641643 
L 453.566463 238.267727 
L 454.122074 242.377597 
L 454.677684 242.29683 
L 455.233295 243.496519 
L 455.788906 244.087448 
L 456.344517 242.836117 
L 456.900128 242.206837 
L 457.455739 242.939376 
L 458.01135 241.979539 
L 458.566961 240.332382 
L 459.122571 240.153598 
L 459.678182 241.395304 
L 460.233793 239.757095 
L 460.789404 241.652945 
L 461.345015 239.966308 
L 461.900626 241.089457 
L 462.456237 241.374507 
L 463.011847 241.376711 
L 463.567458 234.48327 
L 464.123069 235.944507 
L 464.67868 229.273659 
L 465.234291 230.882366 
L 465.789902 235.078448 
L 466.345513 237.391064 
L 466.901124 239.156271 
L 467.456734 239.499107 
L 468.012345 238.693562 
L 468.567956 238.142739 
L 469.123567 234.188034 
L 469.679178 225.533366 
L 470.7904 233.842271 
L 471.346011 236.487987 
L 471.901621 236.083157 
L 473.012843 237.115178 
L 473.568454 236.47817 
L 474.124065 232.40404 
L 474.679676 234.255243 
L 475.235287 234.891233 
L 475.790898 233.302752 
L 476.346508 233.002761 
L 476.902119 234.091765 
L 477.45773 226.735147 
L 478.013341 232.091252 
L 478.568952 230.064602 
L 479.124563 232.3167 
L 479.680174 236.070743 
L 480.235785 235.079805 
L 480.791395 234.902995 
L 481.347006 237.441683 
L 481.902617 236.492728 
L 482.458228 234.31602 
L 483.013839 236.000113 
L 483.56945 236.790987 
L 484.125061 236.338062 
L 484.680672 236.307966 
L 485.236282 236.655229 
L 485.791893 237.183943 
L 486.347504 237.418603 
L 486.903115 236.500015 
L 487.458726 238.751857 
L 488.014337 238.385621 
L 488.569948 235.965561 
L 489.125559 236.044829 
L 489.681169 238.249046 
L 490.792391 233.336613 
L 491.348002 234.536594 
L 491.903613 237.639104 
L 492.459224 239.758425 
L 493.014835 238.651642 
L 493.570446 236.435696 
L 494.126056 237.165134 
L 494.681667 234.708475 
L 495.792889 239.279497 
L 496.3485 236.865476 
L 496.904111 238.101238 
L 497.459722 241.091223 
L 498.015333 241.853949 
L 498.570943 239.905261 
L 499.126554 240.310895 
L 500.237776 242.073715 
L 500.793387 240.370571 
L 501.348998 239.275641 
L 501.904609 239.802514 
L 502.460219 239.230137 
L 503.01583 235.065851 
L 503.571441 232.42059 
L 504.682663 235.840066 
L 505.238274 232.396434 
L 505.793885 233.398467 
L 506.349496 231.714567 
L 506.905106 232.097156 
L 507.460717 234.873394 
L 508.016328 236.522726 
L 509.12755 235.42286 
L 509.683161 237.128064 
L 510.238772 237.012196 
L 510.794383 235.954127 
L 511.349993 239.644818 
L 511.905604 239.636916 
L 512.461215 236.671534 
L 513.016826 236.25694 
L 513.572437 238.261571 
L 514.128048 234.148149 
L 514.683659 237.215379 
L 515.23927 232.825601 
L 516.350491 240.606491 
L 516.906102 240.001227 
L 517.461713 240.212829 
L 518.017324 242.199598 
L 518.572935 242.826734 
L 519.684157 242.732252 
L 520.795378 243.181948 
L 521.350989 242.886321 
L 521.9066 243.300868 
L 522.462211 243.039301 
L 523.017822 242.970077 
L 524.129044 243.724221 
L 525.240265 240.450448 
L 525.795876 240.617347 
L 526.351487 237.943874 
L 526.907098 236.809821 
L 527.462709 239.43803 
L 528.01832 239.016904 
L 528.573931 233.905023 
L 529.129541 232.222573 
L 529.685152 233.572305 
L 530.240763 231.250037 
L 531.351985 238.63475 
L 531.907596 238.425827 
L 532.463207 241.089617 
L 533.018818 239.925564 
L 533.574428 242.621092 
L 534.130039 242.769725 
L 534.68565 243.037941 
L 535.796872 241.676315 
L 536.352483 242.193801 
L 536.908094 242.260943 
L 537.463705 240.926554 
L 538.019315 241.309229 
L 538.574926 242.891025 
L 539.130537 243.957986 
L 539.686148 243.182643 
L 540.241759 242.941999 
L 540.79737 243.732207 
L 541.352981 242.937208 
L 541.908591 240.730612 
L 542.464202 240.517982 
L 543.019813 241.378031 
L 543.575424 239.145686 
L 544.131035 238.448078 
L 544.686646 240.981065 
L 545.242257 242.673647 
L 545.797868 242.016518 
L 546.353478 241.768004 
L 546.909089 240.802442 
L 547.4647 241.382842 
L 548.020311 241.762967 
L 548.575922 242.787746 
L 549.131533 241.04233 
L 549.687144 241.344325 
L 550.242755 242.286981 
L 550.798365 241.574878 
L 551.353976 241.060588 
L 551.909587 238.996054 
L 552.465198 237.769714 
L 553.020809 235.592456 
L 553.57642 239.375457 
L 554.132031 242.034753 
L 554.687642 241.799921 
L 555.243252 242.193251 
L 555.798863 241.152218 
L 556.354474 240.603358 
L 557.465696 235.603056 
L 558.021307 234.116581 
L 558.576918 237.688362 
L 559.688139 240.58258 
L 560.24375 240.720334 
L 560.799361 241.954284 
L 561.354972 241.855809 
L 561.910583 243.455548 
L 562.466194 244.629833 
L 563.021805 245.394978 
L 563.577416 243.412121 
L 564.133026 243.207637 
L 565.244248 240.732226 
L 565.799859 237.321479 
L 566.35547 234.736863 
L 566.911081 236.82684 
L 567.466692 234.894267 
L 568.022303 234.314976 
L 568.577913 236.946116 
L 569.133524 240.296193 
L 569.689135 239.619521 
L 570.244746 240.548555 
L 570.800357 240.041179 
L 571.355968 239.257094 
L 571.911579 238.035775 
L 572.46719 237.89254 
L 573.0228 236.117431 
L 573.578411 235.617589 
L 574.134022 237.758754 
L 574.689633 239.051025 
L 575.245244 238.616811 
L 576.356466 239.262928 
L 576.912077 238.794551 
L 577.467687 237.664805 
L 578.578909 241.47785 
L 579.690131 240.643393 
L 580.245742 240.631678 
L 581.356963 239.648533 
L 581.912574 240.323435 
L 582.468185 242.152438 
L 583.023796 242.474549 
L 583.579407 243.636221 
L 584.135018 243.572045 
L 584.690629 243.322421 
L 585.24624 242.190525 
L 585.80185 239.201533 
L 586.357461 239.09112 
L 586.913072 239.814043 
L 587.468683 238.492045 
L 588.024294 239.166911 
L 588.579905 236.911758 
L 589.135516 233.061899 
L 589.691127 233.62426 
L 590.246737 234.534822 
L 590.802348 238.296881 
L 591.357959 238.674494 
L 591.91357 240.287929 
L 593.024792 239.184783 
L 593.580403 239.807237 
L 594.136014 238.947047 
L 595.247235 231.894609 
L 595.802846 227.467463 
L 596.358457 226.816099 
L 596.914068 235.143785 
L 597.469679 236.058565 
L 598.02529 240.940719 
L 598.580901 239.61448 
L 599.136511 241.545404 
L 599.692122 242.688327 
L 600.247733 241.593059 
L 600.803344 241.557923 
L 601.358955 241.955154 
L 601.914566 241.347561 
L 602.470177 240.14788 
L 603.025788 235.832558 
L 603.581398 229.833531 
L 604.137009 225.261546 
L 604.69262 234.284285 
L 605.248231 240.659978 
L 606.359453 243.268707 
L 607.470675 243.351457 
L 608.026285 241.345433 
L 608.581896 242.341286 
L 609.137507 240.536118 
L 609.693118 233.569111 
L 610.248729 219.763503 
L 610.80434 223.047031 
L 611.359951 229.801979 
L 611.915562 225.560629 
L 612.471172 220.084011 
L 613.026783 222.280879 
L 613.582394 226.426688 
L 614.138005 221.384162 
L 614.693616 217.480695 
L 615.249227 221.216782 
L 615.804838 221.426397 
L 616.360449 224.751479 
L 616.916059 226.49515 
L 617.47167 227.391503 
L 618.027281 230.797286 
L 618.582892 236.117627 
L 619.138503 236.078662 
L 619.694114 235.650963 
L 620.249725 239.256757 
L 620.805335 240.215414 
L 621.360946 238.2043 
L 621.916557 238.964314 
L 622.472168 240.528999 
L 623.027779 239.23943 
L 623.58339 236.924323 
L 624.139001 238.170084 
L 624.694612 237.650366 
L 625.250222 234.712037 
L 625.805833 235.023921 
L 626.361444 235.692412 
L 626.917055 237.326779 
L 627.472666 240.226026 
L 628.583888 236.343841 
L 629.139499 240.253025 
L 629.695109 240.027119 
L 630.806331 241.851435 
L 631.361942 240.718103 
L 631.917553 240.092109 
L 632.473164 241.134672 
L 633.028775 238.125137 
L 633.584386 236.855257 
L 634.139996 230.5848 
L 634.695607 229.887204 
L 635.251218 231.004714 
L 635.806829 225.774856 
L 636.36244 234.221497 
L 636.918051 236.714613 
L 637.473662 230.995094 
L 638.029273 238.258196 
L 638.584883 242.214913 
L 639.140494 242.420779 
L 639.696105 240.903469 
L 640.251716 241.570618 
L 640.807327 240.935127 
L 641.362938 242.248888 
L 641.918549 241.532462 
L 642.47416 241.457475 
L 643.02977 240.506576 
L 643.585381 240.401661 
L 644.140992 240.889125 
L 644.696603 240.018073 
L 645.252214 238.286393 
L 645.807825 238.109927 
L 646.363436 237.330576 
L 646.919047 238.133138 
L 647.474657 238.326169 
L 648.030268 239.212076 
L 648.585879 239.526862 
L 649.14149 239.422801 
L 649.697101 241.69445 
L 650.252712 239.822917 
L 650.808323 239.992969 
L 651.363934 242.116291 
L 652.475155 243.948974 
L 653.030766 243.359358 
L 653.586377 244.444714 
L 654.697599 245.478289 
L 655.25321 243.947001 
L 655.808821 244.182501 
L 656.364431 244.135228 
L 656.920042 240.692445 
L 658.031264 244.271263 
L 658.586875 244.429966 
L 659.142486 243.483585 
L 659.698097 244.71179 
L 660.253707 244.99587 
L 661.364929 244.894568 
L 661.92054 245.444959 
L 662.476151 245.282592 
L 663.031762 244.672609 
L 663.587373 244.932528 
L 664.142984 244.896327 
L 665.809816 244.090173 
L 666.365427 244.00119 
L 666.921038 243.138652 
L 667.476649 242.593872 
L 668.03226 242.259729 
L 669.143481 238.712875 
L 669.699092 238.035857 
L 670.254703 235.999372 
L 670.810314 232.61027 
L 671.365925 232.30109 
L 671.921536 232.510212 
L 672.477147 227.957292 
L 673.032758 227.845855 
L 673.588368 225.48807 
L 674.143979 231.306572 
L 674.69959 234.68354 
L 675.255201 228.813196 
L 675.810812 227.871549 
L 676.366423 228.341667 
L 676.922034 234.881245 
L 677.477645 230.352943 
L 678.033255 229.870024 
L 678.588866 228.948185 
L 679.144477 224.441719 
L 679.700088 226.895767 
L 680.255699 228.443867 
L 680.81131 223.312979 
L 681.366921 221.60198 
L 681.922532 222.583136 
L 682.478142 221.520803 
L 683.033753 221.554373 
L 683.589364 213.241618 
L 684.144975 210.904251 
L 684.700586 205.234513 
L 685.256197 204.003796 
L 685.811808 197.618824 
L 686.367419 205.324004 
L 686.923029 217.748807 
L 687.47864 216.386832 
L 688.034251 216.743628 
L 688.589862 207.73767 
L 689.145473 208.751891 
L 689.701084 214.098484 
L 690.256695 206.889055 
L 690.812306 209.08075 
L 691.367916 219.182574 
L 691.923527 213.663568 
L 692.479138 202.909616 
L 693.034749 205.176782 
L 693.59036 204.534459 
L 694.145971 187.832195 
L 694.701582 177.849652 
L 695.257193 175.219182 
L 695.812803 159.662874 
L 696.368414 133.06288 
L 696.368414 133.06288 
" clip-path="url(#p2dc52283a3)" style="fill: none; stroke: #d95f02; stroke-width: 1.5; stroke-linecap: square"/>
   </g>
   <g id="patch_6">
    <path d="M 405.839489 257.76 
L 405.839489 36 
" style="fill: none; stroke: #000000; stroke-width: 0.8; stroke-linejoin: miter; stroke-linecap: square"/>
   </g>
   <g id="patch_7">
    <path d="M 405.839489 257.76 
L 710.203125 257.76 
" style="fill: none; stroke: #000000; stroke-width: 0.8; stroke-linejoin: miter; stroke-linecap: square"/>
   </g>
   <g id="text_24">
    <text style="font-size: 12px; font-family: 'DejaVu Sans', 'Bitstream Vera Sans', 'Computer Modern Sans Serif', 'Lucida Grande', 'Verdana', 'Geneva', 'Lucid', 'Arial', 'Helvetica', 'Avant Garde', sans-serif; text-anchor: middle" x="558.021307" y="30" transform="rotate(-0 558.021307 30)">MAO-B</text>
   </g>
  </g>
  <g id="text_25">
   <text style="font-size: 12px; font-family: 'DejaVu Sans', 'Bitstream Vera Sans', 'Computer Modern Sans Serif', 'Lucida Grande', 'Verdana', 'Geneva', 'Lucid', 'Arial', 'Helvetica', 'Avant Garde', sans-serif; text-anchor: middle" x="364.603125" y="16.318125" transform="rotate(-0 364.603125 16.318125)">Per-residue C-alpha RMSF, mean +/- SD across replicates</text>
  </g>
 </g>
 <defs>
  <clipPath id="p4cf3ed20a4">
   <rect x="40.603125" y="36" width="304.363636" height="221.76"/>
  </clipPath>
  <clipPath id="p2dc52283a3">
   <rect x="405.839489" y="36" width="304.363636" height="221.76"/>
  </clipPath>
 </defs>
</svg>
