<?xml version="1.0" encoding="utf-8" standalone="no"?>
<!DOCTYPE svg PUBLIC "-//W3C//DTD SVG 1.1//EN"
  "http://www.w3.org/Graphics/SVG/1.1/DTD/svg11.dtd">
<svg xmlns:xlink="http://www.w3.org/1999/xlink" width="717.403125pt" height="281.634375pt" viewBox="0 0 717.403125 281.634375" xmlns="http://www.w3.org/2000/svg" version="1.1">
 <metadata>
  <rdf:RDF xmlns:dc="http://purl.org/dc/elements/1.1/" xmlns:cc="http://creativecommons.org/ns#" xmlns:rdf="http://www.w3.org/1999/02/22-rdf-syntax-ns#">
   <cc:Work>
    <dc:type rdf:resource="http://purl.org/dc/dcmitype/StillImage"/>
    <dc:date>2026-05-18T17:52:29.456779</dc:date>
    <dc:format>image/svg+xml</dc:format>
    <dc:creator>
     <cc:Agent>
      <dc:title>Matplotlib v3.10.9, https://matplotlib.org/</dc:title>
     </cc:Agent>
    </dc:creator>
   </cc:Work>
  </rdf:RDF>
 </metadata>
 <defs>
  <style type="text/css">*{stroke-linejoin: round; stroke-linecap: butt}</style>
 </defs>
 <g id="figure_1">
  <g id="patch_1">
   <path d="M 0 281.634375 
L 717.403125 281.634375 
L 717.403125 0 
L 0 0 
z
" style="fill: #ffffff"/>
  </g>
  <g id="axes_1">
   <g id="patch_2">
    <path d="M 40.603125 244.078125 
L 344.966761 244.078125 
L 344.966761 22.318125 
L 40.603125 22.318125 
z
" style="fill: #ffffff"/>
   </g>
   <g id="matplotlib.axis_1">
    <g id="xtick_1">
     <g id="line2d_1">
      <path d="M 54.437836 244.078125 
L 54.437836 22.318125 
" clip-path="url(#p6a45aeec73)" style="fill: none; stroke: #b0b0b0; stroke-opacity: 0.25; stroke-width: 0.8; stroke-linecap: square"/>
     </g>
     <g id="line2d_2">
      <defs>
       <path id="mb22a530379" d="M 0 0 
L 0 3.5 
" style="stroke: #000000; stroke-width: 0.8"/>
      </defs>
      <g>
       <use xlink:href="#mb22a530379" x="54.437836" y="244.078125" style="stroke: #000000; stroke-width: 0.8"/>
      </g>
     </g>
     <g id="text_1">
      <text style="font-size: 10px; font-family: 'DejaVu Sans', 'Bitstream Vera Sans', 'Computer Modern Sans Serif', 'Lucida Grande', 'Verdana', 'Geneva', 'Lucid', 'Arial', 'Helvetica', 'Avant Garde', sans-serif; text-anchor: middle" x="54.437836" y="258.676562" transform="rotate(-0 54.437836 258.676562)">0</text>
     </g>
    </g>
    <g id="xtick_2">
     <g id="line2d_3">
      <path d="M 110.054763 244.078125 
L 110.054763 22.318125 
" clip-path="url(#p6a45aeec73)" style="fill: none; stroke: #b0b0b0; stroke-opacity: 0.25; stroke-width: 0.8; stroke-linecap: square"/>
     </g>
     <g id="line2d_4">
      <g>
       <use xlink:href="#mb22a530379" x="110.054763" y="244.078125" style="stroke: #000000; stroke-width: 0.8"/>
      </g>
     </g>
     <g id="text_2">
      <text style="font-size: 10px; font-family: 'DejaVu Sans', 'Bitstream Vera Sans', 'Computer Modern Sans Serif', 'Lucida Grande', 'Verdana', 'Geneva', 'Lucid', 'Arial', 'Helvetica', 'Avant Garde', sans-serif; text-anchor: middle" x="110.054763" y="258.676562" transform="rotate(-0 110.054763 258.676562)">20</text>
     </g>
    </g>
    <g id="xtick_3">
     <g id="line2d_5">
      <path d="M 165.671691 244.078125 
L 165.671691 22.318125 
" clip-path="url(#p6a45aeec73)" style="fill: none; stroke: #b0b0b0; stroke-opacity: 0.25; stroke-width: 0.8; stroke-linecap: square"/>
     </g>
     <g id="line2d_6">
      <g>
       <use xlink:href="#mb22a530379" x="165.671691" y="244.078125" style="stroke: #000000; stroke-width: 0.8"/>
      </g>
     </g>
     <g id="text_3">
      <text style="font-size: 10px; font-family: 'DejaVu Sans', 'Bitstream Vera Sans', 'Computer Modern Sans Serif', 'Lucida Grande', 'Verdana', 'Geneva', 'Lucid', 'Arial', 'Helvetica', 'Avant Garde', sans-serif; text-anchor: middle" x="165.671691" y="258.676562" transform="rotate(-0 165.671691 258.676562)">40</text>
     </g>
    </g>
    <g id="xtick_4">
     <g id="line2d_7">
      <path d="M 221.288619 244.078125 
L 221.288619 22.318125 
" clip-path="url(#p6a45aeec73)" style="fill: none; stroke: #b0b0b0; stroke-opacity: 0.25; stroke-width: 0.8; stroke-linecap: square"/>
     </g>
     <g id="line2d_8">
      <g>
       <use xlink:href="#mb22a530379" x="221.288619" y="244.078125" style="stroke: #000000; stroke-width: 0.8"/>
      </g>
     </g>
     <g id="text_4">
      <text style="font-size: 10px; font-family: 'DejaVu Sans', 'Bitstream Vera Sans', 'Computer Modern Sans Serif', 'Lucida Grande', 'Verdana', 'Geneva', 'Lucid', 'Arial', 'Helvetica', 'Avant Garde', sans-serif; text-anchor: middle" x="221.288619" y="258.676562" transform="rotate(-0 221.288619 258.676562)">60</text>
     </g>
    </g>
    <g id="xtick_5">
     <g id="line2d_9">
      <path d="M 276.905546 244.078125 
L 276.905546 22.318125 
" clip-path="url(#p6a45aeec73)" style="fill: none; stroke: #b0b0b0; stroke-opacity: 0.25; stroke-width: 0.8; stroke-linecap: square"/>
     </g>
     <g id="line2d_10">
      <g>
       <use xlink:href="#mb22a530379" x="276.905546" y="244.078125" style="stroke: #000000; stroke-width: 0.8"/>
      </g>
     </g>
     <g id="text_5">
      <text style="font-size: 10px; font-family: 'DejaVu Sans', 'Bitstream Vera Sans', 'Computer Modern Sans Serif', 'Lucida Grande', 'Verdana', 'Geneva', 'Lucid', 'Arial', 'Helvetica', 'Avant Garde', sans-serif; text-anchor: middle" x="276.905546" y="258.676562" transform="rotate(-0 276.905546 258.676562)">80</text>
     </g>
    </g>
    <g id="xtick_6">
     <g id="line2d_11">
      <path d="M 332.522474 244.078125 
L 332.522474 22.318125 
" clip-path="url(#p6a45aeec73)" style="fill: none; stroke: #b0b0b0; stroke-opacity: 0.25; stroke-width: 0.8; stroke-linecap: square"/>
     </g>
     <g id="line2d_12">
      <g>
       <use xlink:href="#mb22a530379" x="332.522474" y="244.078125" style="stroke: #000000; stroke-width: 0.8"/>
      </g>
     </g>
     <g id="text_6">
      <text style="font-size: 10px; font-family: 'DejaVu Sans', 'Bitstream Vera Sans', 'Computer Modern Sans Serif', 'Lucida Grande', 'Verdana', 'Geneva', 'Lucid', 'Arial', 'Helvetica', 'Avant Garde', sans-serif; text-anchor: middle" x="332.522474" y="258.676562" transform="rotate(-0 332.522474 258.676562)">100</text>
     </g>
    </g>
    <g id="text_7">
     <text style="font-size: 10px; font-family: 'DejaVu Sans', 'Bitstream Vera Sans', 'Computer Modern Sans Serif', 'Lucida Grande', 'Verdana', 'Geneva', 'Lucid', 'Arial', 'Helvetica', 'Avant Garde', sans-serif; text-anchor: middle" x="192.784943" y="272.354687" transform="rotate(-0 192.784943 272.354687)">Time (ns)</text>
    </g>
   </g>
   <g id="matplotlib.axis_2">
    <g id="ytick_1">
     <g id="line2d_13">
      <path d="M 40.603125 211.598125 
L 344.966761 211.598125 
" clip-path="url(#p6a45aeec73)" style="fill: none; stroke: #b0b0b0; stroke-opacity: 0.25; stroke-width: 0.8; stroke-linecap: square"/>
     </g>
     <g id="line2d_14">
      <defs>
       <path id="m5a667c3701" d="M 0 0 
L -3.5 0 
" style="stroke: #000000; stroke-width: 0.8"/>
      </defs>
      <g>
       <use xlink:href="#m5a667c3701" x="40.603125" y="211.598125" style="stroke: #000000; stroke-width: 0.8"/>
      </g>
     </g>
     <g id="text_8">
      <text style="font-size: 10px; font-family: 'DejaVu Sans', 'Bitstream Vera Sans', 'Computer Modern Sans Serif', 'Lucida Grande', 'Verdana', 'Geneva', 'Lucid', 'Arial', 'Helvetica', 'Avant Garde', sans-serif; text-anchor: end" x="33.603125" y="215.397344" transform="rotate(-0 33.603125 215.397344)">25</text>
     </g>
    </g>
    <g id="ytick_2">
     <g id="line2d_15">
      <path d="M 40.603125 174.264792 
L 344.966761 174.264792 
" clip-path="url(#p6a45aeec73)" style="fill: none; stroke: #b0b0b0; stroke-opacity: 0.25; stroke-width: 0.8; stroke-linecap: square"/>
     </g>
     <g id="line2d_16">
      <g>
       <use xlink:href="#m5a667c3701" x="40.603125" y="174.264792" style="stroke: #000000; stroke-width: 0.8"/>
      </g>
     </g>
     <g id="text_9">
      <text style="font-size: 10px; font-family: 'DejaVu Sans', 'Bitstream Vera Sans', 'Computer Modern Sans Serif', 'Lucida Grande', 'Verdana', 'Geneva', 'Lucid', 'Arial', 'Helvetica', 'Avant Garde', sans-serif; text-anchor: end" x="33.603125" y="178.06401" transform="rotate(-0 33.603125 178.06401)">30</text>
     </g>
    </g>
    <g id="ytick_3">
     <g id="line2d_17">
      <path d="M 40.603125 136.931458 
L 344.966761 136.931458 
" clip-path="url(#p6a45aeec73)" style="fill: none; stroke: #b0b0b0; stroke-opacity: 0.25; stroke-width: 0.8; stroke-linecap: square"/>
     </g>
     <g id="line2d_18">
      <g>
       <use xlink:href="#m5a667c3701" x="40.603125" y="136.931458" style="stroke: #000000; stroke-width: 0.8"/>
      </g>
     </g>
     <g id="text_10">
      <text style="font-size: 10px; font-family: 'DejaVu Sans', 'Bitstream Vera Sans', 'Computer Modern Sans Serif', 'Lucida Grande', 'Verdana', 'Geneva', 'Lucid', 'Arial', 'Helvetica', 'Avant Garde', sans-serif; text-anchor: end" x="33.603125" y="140.730677" transform="rotate(-0 33.603125 140.730677)">35</text>
     </g>
    </g>
    <g id="ytick_4">
     <g id="line2d_19">
      <path d="M 40.603125 99.598125 
L 344.966761 99.598125 
" clip-path="url(#p6a45aeec73)" style="fill: none; stroke: #b0b0b0; stroke-opacity: 0.25; stroke-width: 0.8; stroke-linecap: square"/>
     </g>
     <g id="line2d_20">
      <g>
       <use xlink:href="#m5a667c3701" x="40.603125" y="99.598125" style="stroke: #000000; stroke-width: 0.8"/>
      </g>
     </g>
     <g id="text_11">
      <text style="font-size: 10px; font-family: 'DejaVu Sans', 'Bitstream Vera Sans', 'Computer Modern Sans Serif', 'Lucida Grande', 'Verdana', 'Geneva', 'Lucid', 'Arial', 'Helvetica', 'Avant Garde', sans-serif; text-anchor: end" x="33.603125" y="103.397344" transform="rotate(-0 33.603125 103.397344)">40</text>
     </g>
    </g>
    <g id="ytick_5">
     <g id="line2d_21">
      <path d="M 40.603125 62.264792 
L 344.966761 62.264792 
" clip-path="url(#p6a45aeec73)" style="fill: none; stroke: #b0b0b0; stroke-opacity: 0.25; stroke-width: 0.8; stroke-linecap: square"/>
     </g>
     <g id="line2d_22">
      <g>
       <use xlink:href="#m5a667c3701" x="40.603125" y="62.264792" style="stroke: #000000; stroke-width: 0.8"/>
      </g>
     </g>
     <g id="text_12">
      <text style="font-size: 10px; font-family: 'DejaVu Sans', 'Bitstream Vera Sans', 'Computer Modern Sans Serif', 'Lucida Grande', 'Verdana', 'Geneva', 'Lucid', 'Arial', 'Helvetica', 'Avant Garde', sans-serif; text-anchor: end" x="33.603125" y="66.06401" transform="rotate(-0 33.603125 66.06401)">45</text>
     </g>
    </g>
    <g id="ytick_6">
     <g id="line2d_23">
      <path d="M 40.603125 24.931458 
L 344.966761 24.931458 
" clip-path="url(#p6a45aeec73)" style="fill: none; stroke: #b0b0b0; stroke-opacity: 0.25; stroke-width: 0.8; stroke-linecap: square"/>
     </g>
     <g id="line2d_24">
      <g>
       <use xlink:href="#m5a667c3701" x="40.603125" y="24.931458" style="stroke: #000000; stroke-width: 0.8"/>
      </g>
     </g>
     <g id="text_13">
      <text style="font-size: 10px; font-family: 'DejaVu Sans', 'Bitstream Vera Sans', 'Computer Modern Sans Serif', 'Lucida Grande', 'Verdana', 'Geneva', 'Lucid', 'Arial', 'Helvetica', 'Avant Garde', sans-serif; text-anchor: end" x="33.603125" y="28.730677" transform="rotate(-0 33.603125 28.730677)">50</text>
     </g>
    </g>
    <g id="text_14">
     <text style="font-size: 10px; font-family: 'DejaVu Sans', 'Bitstream Vera Sans', 'Computer Modern Sans Serif', 'Lucida Grande', 'Verdana', 'Geneva', 'Lucid', 'Arial', 'Helvetica', 'Avant Garde', sans-serif; text-anchor: middle" x="14.798438" y="133.198125" transform="rotate(-90 14.798438 133.198125)">Protein atoms within 4 A of ligand</text>
    </g>
   </g>
   <g id="line2d_25">
    <path d="M 54.437836 92.131458 
L 55.828259 136.931458 
L 57.218682 151.864792 
L 58.609105 121.998125 
L 59.999529 151.864792 
L 61.389952 129.464792 
L 62.780375 174.264792 
L 64.170798 129.464792 
L 65.561221 151.864792 
L 66.951644 136.931458 
L 68.342068 129.464792 
L 69.732491 181.731458 
L 71.122914 144.398125 
L 72.513337 219.064792 
L 73.90376 189.198125 
L 75.294184 166.798125 
L 76.684607 159.331458 
L 78.07503 144.398125 
L 79.465453 159.331458 
L 80.855876 144.398125 
L 82.2463 181.731458 
L 83.636723 159.331458 
L 85.027146 107.064792 
L 86.417569 84.664792 
L 87.807992 181.731458 
L 89.198416 136.931458 
L 90.588839 159.331458 
L 91.979262 144.398125 
L 93.369685 151.864792 
L 94.760108 181.731458 
L 96.150531 181.731458 
L 97.540955 211.598125 
L 98.931378 166.798125 
L 100.321801 189.198125 
L 101.712224 189.198125 
L 103.102647 166.798125 
L 104.493071 174.264792 
L 105.883494 226.531458 
L 107.273917 211.598125 
L 108.66434 204.131458 
L 110.054763 99.598125 
L 111.445187 129.464792 
L 112.83561 99.598125 
L 114.226033 107.064792 
L 115.616456 129.464792 
L 118.397302 129.464792 
L 119.787726 47.331458 
L 121.178149 114.531458 
L 122.568572 99.598125 
L 123.958995 136.931458 
L 125.349418 129.464792 
L 126.739842 159.331458 
L 128.130265 159.331458 
L 129.520688 69.731458 
L 130.911111 92.131458 
L 132.301534 151.864792 
L 133.691958 77.198125 
L 135.082381 114.531458 
L 136.472804 136.931458 
L 137.863227 121.998125 
L 139.25365 136.931458 
L 140.644074 121.998125 
L 142.034497 159.331458 
L 143.42492 136.931458 
L 144.815343 166.798125 
L 146.205766 136.931458 
L 147.596189 151.864792 
L 148.986613 174.264792 
L 150.377036 181.731458 
L 151.767459 121.998125 
L 154.548305 151.864792 
L 155.938729 136.931458 
L 157.329152 92.131458 
L 158.719575 121.998125 
L 160.109998 92.131458 
L 161.500421 151.864792 
L 162.890845 136.931458 
L 164.281268 159.331458 
L 165.671691 166.798125 
L 167.062114 189.198125 
L 168.452537 159.331458 
L 169.842961 151.864792 
L 171.233384 77.198125 
L 172.623807 159.331458 
L 174.01423 174.264792 
L 175.404653 121.998125 
L 176.795076 114.531458 
L 178.1855 151.864792 
L 179.575923 129.464792 
L 180.966346 114.531458 
L 182.356769 174.264792 
L 183.747192 189.198125 
L 185.137616 159.331458 
L 186.528039 181.731458 
L 187.918462 166.798125 
L 189.308885 174.264792 
L 190.699308 159.331458 
L 192.089732 121.998125 
L 193.480155 151.864792 
L 194.870578 107.064792 
L 196.261001 99.598125 
L 197.651424 114.531458 
L 199.041848 151.864792 
L 200.432271 129.464792 
L 201.822694 129.464792 
L 203.213117 144.398125 
L 204.60354 189.198125 
L 205.993963 99.598125 
L 207.384387 129.464792 
L 208.77481 114.531458 
L 210.165233 136.931458 
L 211.555656 144.398125 
L 214.336503 129.464792 
L 215.726926 129.464792 
L 217.117349 92.131458 
L 218.507772 84.664792 
L 219.898195 159.331458 
L 221.288619 136.931458 
L 222.679042 166.798125 
L 224.069465 99.598125 
L 225.459888 151.864792 
L 226.850311 77.198125 
L 228.240735 151.864792 
L 229.631158 121.998125 
L 231.021581 204.131458 
L 232.412004 114.531458 
L 233.802427 92.131458 
L 235.19285 136.931458 
L 236.583274 159.331458 
L 237.973697 129.464792 
L 239.36412 107.064792 
L 240.754543 174.264792 
L 242.144966 99.598125 
L 243.53539 121.998125 
L 244.925813 159.331458 
L 246.316236 121.998125 
L 247.706659 69.731458 
L 249.097082 114.531458 
L 250.487506 114.531458 
L 251.877929 107.064792 
L 253.268352 144.398125 
L 254.658775 151.864792 
L 256.049198 144.398125 
L 257.439622 151.864792 
L 258.830045 144.398125 
L 261.610891 99.598125 
L 264.391737 144.398125 
L 265.782161 114.531458 
L 267.172584 114.531458 
L 268.563007 166.798125 
L 269.95343 92.131458 
L 271.343853 121.998125 
L 272.734277 114.531458 
L 275.515123 159.331458 
L 276.905546 107.064792 
L 278.295969 159.331458 
L 279.686393 129.464792 
L 281.076816 121.998125 
L 282.467239 92.131458 
L 283.857662 99.598125 
L 285.248085 121.998125 
L 288.028932 121.998125 
L 289.419355 166.798125 
L 290.809778 99.598125 
L 292.200201 121.998125 
L 293.590624 166.798125 
L 294.981048 107.064792 
L 297.761894 151.864792 
L 299.152317 121.998125 
L 300.54274 121.998125 
L 301.933164 181.731458 
L 303.323587 121.998125 
L 304.71401 136.931458 
L 306.104433 107.064792 
L 307.494856 144.398125 
L 308.88528 159.331458 
L 310.275703 136.931458 
L 311.666126 121.998125 
L 313.056549 121.998125 
L 314.446972 144.398125 
L 315.837396 107.064792 
L 317.227819 166.798125 
L 318.618242 136.931458 
L 320.008665 129.464792 
L 321.399088 159.331458 
L 322.789511 174.264792 
L 324.179935 99.598125 
L 325.570358 129.464792 
L 326.960781 151.864792 
L 328.351204 159.331458 
L 329.741627 129.464792 
L 331.132051 136.931458 
L 331.132051 136.931458 
" clip-path="url(#p6a45aeec73)" style="fill: none; stroke: #1f77b4; stroke-opacity: 0.85; stroke-width: 0.9; stroke-linecap: square"/>
   </g>
   <g id="line2d_26">
    <path d="M 54.437836 129.464792 
L 55.828259 84.664792 
L 57.218682 84.664792 
L 58.609105 77.198125 
L 59.999529 99.598125 
L 61.389952 144.398125 
L 62.780375 107.064792 
L 64.170798 99.598125 
L 65.561221 107.064792 
L 66.951644 92.131458 
L 68.342068 84.664792 
L 69.732491 92.131458 
L 71.122914 107.064792 
L 72.513337 84.664792 
L 75.294184 144.398125 
L 76.684607 84.664792 
L 78.07503 92.131458 
L 79.465453 62.264792 
L 80.855876 47.331458 
L 82.2463 129.464792 
L 83.636723 92.131458 
L 85.027146 136.931458 
L 86.417569 129.464792 
L 87.807992 114.531458 
L 89.198416 121.998125 
L 90.588839 107.064792 
L 91.979262 99.598125 
L 93.369685 129.464792 
L 94.760108 69.731458 
L 96.150531 144.398125 
L 97.540955 151.864792 
L 98.931378 92.131458 
L 100.321801 69.731458 
L 101.712224 107.064792 
L 103.102647 121.998125 
L 104.493071 121.998125 
L 105.883494 92.131458 
L 107.273917 99.598125 
L 108.66434 114.531458 
L 110.054763 92.131458 
L 111.445187 166.798125 
L 112.83561 77.198125 
L 114.226033 129.464792 
L 115.616456 47.331458 
L 117.006879 69.731458 
L 118.397302 84.664792 
L 119.787726 69.731458 
L 121.178149 84.664792 
L 122.568572 84.664792 
L 123.958995 121.998125 
L 125.349418 144.398125 
L 126.739842 136.931458 
L 128.130265 99.598125 
L 129.520688 47.331458 
L 130.911111 84.664792 
L 132.301534 181.731458 
L 133.691958 144.398125 
L 135.082381 84.664792 
L 136.472804 196.664792 
L 137.863227 159.331458 
L 139.25365 166.798125 
L 140.644074 166.798125 
L 142.034497 174.264792 
L 143.42492 107.064792 
L 144.815343 151.864792 
L 146.205766 226.531458 
L 147.596189 151.864792 
L 148.986613 159.331458 
L 150.377036 144.398125 
L 151.767459 196.664792 
L 154.548305 107.064792 
L 155.938729 77.198125 
L 157.329152 54.798125 
L 158.719575 129.464792 
L 160.109998 39.864792 
L 161.500421 129.464792 
L 162.890845 107.064792 
L 164.281268 121.998125 
L 165.671691 196.664792 
L 167.062114 77.198125 
L 168.452537 99.598125 
L 169.842961 144.398125 
L 171.233384 114.531458 
L 172.623807 99.598125 
L 174.01423 32.398125 
L 175.404653 107.064792 
L 176.795076 121.998125 
L 178.1855 84.664792 
L 179.575923 121.998125 
L 180.966346 136.931458 
L 182.356769 181.731458 
L 183.747192 99.598125 
L 185.137616 107.064792 
L 186.528039 159.331458 
L 187.918462 144.398125 
L 189.308885 121.998125 
L 190.699308 129.464792 
L 192.089732 151.864792 
L 194.870578 121.998125 
L 196.261001 77.198125 
L 197.651424 99.598125 
L 199.041848 159.331458 
L 200.432271 114.531458 
L 201.822694 129.464792 
L 203.213117 84.664792 
L 204.60354 189.198125 
L 205.993963 219.064792 
L 207.384387 144.398125 
L 210.165233 129.464792 
L 211.555656 151.864792 
L 212.946079 159.331458 
L 214.336503 189.198125 
L 215.726926 181.731458 
L 217.117349 136.931458 
L 218.507772 151.864792 
L 219.898195 121.998125 
L 222.679042 151.864792 
L 224.069465 136.931458 
L 225.459888 181.731458 
L 226.850311 151.864792 
L 228.240735 136.931458 
L 229.631158 189.198125 
L 231.021581 181.731458 
L 232.412004 144.398125 
L 233.802427 151.864792 
L 236.583274 151.864792 
L 237.973697 189.198125 
L 239.36412 144.398125 
L 240.754543 121.998125 
L 242.144966 159.331458 
L 243.53539 181.731458 
L 244.925813 136.931458 
L 246.316236 136.931458 
L 247.706659 174.264792 
L 249.097082 181.731458 
L 250.487506 196.664792 
L 251.877929 181.731458 
L 253.268352 174.264792 
L 254.658775 151.864792 
L 256.049198 151.864792 
L 257.439622 136.931458 
L 258.830045 181.731458 
L 260.220468 196.664792 
L 261.610891 159.331458 
L 263.001314 136.931458 
L 264.391737 129.464792 
L 265.782161 174.264792 
L 267.172584 129.464792 
L 268.563007 144.398125 
L 269.95343 136.931458 
L 271.343853 166.798125 
L 272.734277 114.531458 
L 274.1247 166.798125 
L 275.515123 136.931458 
L 276.905546 121.998125 
L 278.295969 129.464792 
L 281.076816 114.531458 
L 282.467239 114.531458 
L 283.857662 136.931458 
L 285.248085 84.664792 
L 286.638509 107.064792 
L 288.028932 114.531458 
L 289.419355 136.931458 
L 290.809778 121.998125 
L 292.200201 151.864792 
L 293.590624 114.531458 
L 294.981048 136.931458 
L 296.371471 151.864792 
L 297.761894 159.331458 
L 299.152317 121.998125 
L 300.54274 151.864792 
L 301.933164 121.998125 
L 303.323587 189.198125 
L 304.71401 159.331458 
L 306.104433 121.998125 
L 307.494856 144.398125 
L 308.88528 121.998125 
L 310.275703 144.398125 
L 311.666126 136.931458 
L 313.056549 107.064792 
L 314.446972 151.864792 
L 315.837396 69.731458 
L 317.227819 129.464792 
L 318.618242 151.864792 
L 320.008665 99.598125 
L 321.399088 114.531458 
L 322.789511 136.931458 
L 324.179935 144.398125 
L 325.570358 114.531458 
L 326.960781 114.531458 
L 328.351204 151.864792 
L 329.741627 77.198125 
L 331.132051 121.998125 
L 331.132051 121.998125 
" clip-path="url(#p6a45aeec73)" style="fill: none; stroke: #ff7f0e; stroke-opacity: 0.85; stroke-width: 0.9; stroke-linecap: square"/>
   </g>
   <g id="line2d_27">
    <path d="M 54.437836 92.131458 
L 55.828259 151.864792 
L 57.218682 107.064792 
L 58.609105 151.864792 
L 59.999529 84.664792 
L 61.389952 151.864792 
L 62.780375 92.131458 
L 64.170798 121.998125 
L 65.561221 174.264792 
L 66.951644 174.264792 
L 68.342068 159.331458 
L 69.732491 151.864792 
L 71.122914 159.331458 
L 72.513337 196.664792 
L 73.90376 136.931458 
L 75.294184 174.264792 
L 76.684607 151.864792 
L 78.07503 189.198125 
L 79.465453 219.064792 
L 80.855876 204.131458 
L 82.2463 226.531458 
L 83.636723 226.531458 
L 85.027146 159.331458 
L 86.417569 189.198125 
L 87.807992 174.264792 
L 89.198416 144.398125 
L 90.588839 204.131458 
L 91.979262 233.998125 
L 93.369685 204.131458 
L 94.760108 159.331458 
L 96.150531 196.664792 
L 97.540955 181.731458 
L 101.712224 204.131458 
L 104.493071 159.331458 
L 105.883494 196.664792 
L 107.273917 144.398125 
L 108.66434 204.131458 
L 110.054763 189.198125 
L 111.445187 204.131458 
L 114.226033 204.131458 
L 115.616456 151.864792 
L 117.006879 136.931458 
L 118.397302 181.731458 
L 119.787726 121.998125 
L 121.178149 174.264792 
L 122.568572 166.798125 
L 125.349418 121.998125 
L 126.739842 107.064792 
L 128.130265 144.398125 
L 129.520688 159.331458 
L 130.911111 107.064792 
L 132.301534 121.998125 
L 133.691958 159.331458 
L 135.082381 121.998125 
L 136.472804 114.531458 
L 137.863227 136.931458 
L 139.25365 166.798125 
L 140.644074 99.598125 
L 142.034497 92.131458 
L 143.42492 114.531458 
L 144.815343 114.531458 
L 146.205766 129.464792 
L 147.596189 174.264792 
L 148.986613 151.864792 
L 151.767459 136.931458 
L 153.157882 99.598125 
L 154.548305 99.598125 
L 155.938729 107.064792 
L 157.329152 92.131458 
L 158.719575 144.398125 
L 160.109998 121.998125 
L 161.500421 151.864792 
L 162.890845 114.531458 
L 164.281268 114.531458 
L 165.671691 166.798125 
L 167.062114 129.464792 
L 168.452537 129.464792 
L 169.842961 69.731458 
L 171.233384 114.531458 
L 172.623807 151.864792 
L 174.01423 151.864792 
L 175.404653 77.198125 
L 176.795076 69.731458 
L 178.1855 136.931458 
L 179.575923 144.398125 
L 180.966346 136.931458 
L 182.356769 121.998125 
L 183.747192 181.731458 
L 185.137616 99.598125 
L 186.528039 159.331458 
L 187.918462 114.531458 
L 189.308885 107.064792 
L 190.699308 136.931458 
L 192.089732 99.598125 
L 193.480155 84.664792 
L 194.870578 121.998125 
L 196.261001 84.664792 
L 197.651424 121.998125 
L 199.041848 107.064792 
L 200.432271 144.398125 
L 201.822694 166.798125 
L 203.213117 144.398125 
L 204.60354 136.931458 
L 205.993963 99.598125 
L 207.384387 92.131458 
L 208.77481 129.464792 
L 210.165233 233.998125 
L 211.555656 136.931458 
L 212.946079 151.864792 
L 214.336503 121.998125 
L 215.726926 151.864792 
L 218.507772 121.998125 
L 219.898195 129.464792 
L 221.288619 129.464792 
L 222.679042 166.798125 
L 224.069465 129.464792 
L 225.459888 151.864792 
L 226.850311 159.331458 
L 228.240735 174.264792 
L 229.631158 136.931458 
L 231.021581 114.531458 
L 232.412004 121.998125 
L 233.802427 114.531458 
L 235.19285 151.864792 
L 236.583274 99.598125 
L 237.973697 166.798125 
L 239.36412 92.131458 
L 240.754543 174.264792 
L 242.144966 121.998125 
L 243.53539 159.331458 
L 244.925813 84.664792 
L 246.316236 144.398125 
L 247.706659 114.531458 
L 249.097082 129.464792 
L 250.487506 136.931458 
L 251.877929 159.331458 
L 253.268352 121.998125 
L 254.658775 129.464792 
L 256.049198 144.398125 
L 257.439622 151.864792 
L 258.830045 136.931458 
L 260.220468 151.864792 
L 261.610891 92.131458 
L 264.391737 151.864792 
L 267.172584 92.131458 
L 268.563007 84.664792 
L 269.95343 107.064792 
L 271.343853 107.064792 
L 272.734277 174.264792 
L 274.1247 174.264792 
L 275.515123 107.064792 
L 276.905546 151.864792 
L 278.295969 114.531458 
L 279.686393 151.864792 
L 281.076816 144.398125 
L 282.467239 121.998125 
L 283.857662 136.931458 
L 285.248085 121.998125 
L 286.638509 144.398125 
L 288.028932 159.331458 
L 289.419355 114.531458 
L 290.809778 136.931458 
L 292.200201 151.864792 
L 293.590624 189.198125 
L 294.981048 92.131458 
L 296.371471 166.798125 
L 297.761894 107.064792 
L 299.152317 166.798125 
L 300.54274 136.931458 
L 303.323587 166.798125 
L 304.71401 107.064792 
L 306.104433 99.598125 
L 307.494856 151.864792 
L 308.88528 107.064792 
L 310.275703 129.464792 
L 311.666126 144.398125 
L 313.056549 136.931458 
L 314.446972 181.731458 
L 315.837396 159.331458 
L 317.227819 151.864792 
L 318.618242 114.531458 
L 320.008665 151.864792 
L 321.399088 151.864792 
L 322.789511 129.464792 
L 324.179935 121.998125 
L 325.570358 159.331458 
L 326.960781 114.531458 
L 328.351204 107.064792 
L 329.741627 151.864792 
L 331.132051 166.798125 
L 331.132051 166.798125 
" clip-path="url(#p6a45aeec73)" style="fill: none; stroke: #2ca02c; stroke-opacity: 0.85; stroke-width: 0.9; stroke-linecap: square"/>
   </g>
   <g id="patch_3">
    <path d="M 40.603125 244.078125 
L 40.603125 22.318125 
" style="fill: none; stroke: #000000; stroke-width: 0.8; stroke-linejoin: miter; stroke-linecap: square"/>
   </g>
   <g id="patch_4">
    <path d="M 40.603125 244.078125 
L 344.966761 244.078125 
" style="fill: none; stroke: #000000; stroke-width: 0.8; stroke-linejoin: miter; stroke-linecap: square"/>
   </g>
   <g id="text_15">
    <text style="font-size: 12px; font-family: 'DejaVu Sans', 'Bitstream Vera Sans', 'Computer Modern Sans Serif', 'Lucida Grande', 'Verdana', 'Geneva', 'Lucid', 'Arial', 'Helvetica', 'Avant Garde', sans-serif; text-anchor: middle" x="192.784943" y="16.318125" transform="rotate(-0 192.784943 16.318125)">CYP1B1</text>
   </g>
   <g id="legend_1">
    <g id="line2d_28">
     <path d="M 297.166761 32.796875 
L 305.166761 32.796875 
L 313.166761 32.796875 
" style="fill: none; stroke: #1f77b4; stroke-opacity: 0.85; stroke-width: 0.9; stroke-linecap: square"/>
    </g>
    <g id="text_16">
     <text style="font-size: 8px; font-family: 'DejaVu Sans', 'Bitstream Vera Sans', 'Computer Modern Sans Serif', 'Lucida Grande', 'Verdana', 'Geneva', 'Lucid', 'Arial', 'Helvetica', 'Avant Garde', sans-serif; text-anchor: start" x="319.566761" y="35.596875" transform="rotate(-0 319.566761 35.596875)">rep1</text>
    </g>
    <g id="line2d_29">
     <path d="M 297.166761 44.539375 
L 305.166761 44.539375 
L 313.166761 44.539375 
" style="fill: none; stroke: #ff7f0e; stroke-opacity: 0.85; stroke-width: 0.9; stroke-linecap: square"/>
    </g>
    <g id="text_17">
     <text style="font-size: 8px; font-family: 'DejaVu Sans', 'Bitstream Vera Sans', 'Computer Modern Sans Serif', 'Lucida Grande', 'Verdana', 'Geneva', 'Lucid', 'Arial', 'Helvetica', 'Avant Garde', sans-serif; text-anchor: start" x="319.566761" y="47.339375" transform="rotate(-0 319.566761 47.339375)">rep2</text>
    </g>
    <g id="line2d_30">
     <path d="M 297.166761 56.281875 
L 305.166761 56.281875 
L 313.166761 56.281875 
" style="fill: none; stroke: #2ca02c; stroke-opacity: 0.85; stroke-width: 0.9; stroke-linecap: square"/>
    </g>
    <g id="text_18">
     <text style="font-size: 8px; font-family: 'DejaVu Sans', 'Bitstream Vera Sans', 'Computer Modern Sans Serif', 'Lucida Grande', 'Verdana', 'Geneva', 'Lucid', 'Arial', 'Helvetica', 'Avant Garde', sans-serif; text-anchor: start" x="319.566761" y="59.081875" transform="rotate(-0 319.566761 59.081875)">rep3</text>
    </g>
   </g>
  </g>
  <g id="axes_2">
   <g id="patch_5">
    <path d="M 405.839489 244.078125 
L 710.203125 244.078125 
L 710.203125 22.318125 
L 405.839489 22.318125 
z
" style="fill: #ffffff"/>
   </g>
   <g id="matplotlib.axis_3">
    <g id="xtick_7">
     <g id="line2d_31">
      <path d="M 419.674199 244.078125 
L 419.674199 22.318125 
" clip-path="url(#pc9da8bf30d)" style="fill: none; stroke: #b0b0b0; stroke-opacity: 0.25; stroke-width: 0.8; stroke-linecap: square"/>
     </g>
     <g id="line2d_32">
      <g>
       <use xlink:href="#mb22a530379" x="419.674199" y="244.078125" style="stroke: #000000; stroke-width: 0.8"/>
      </g>
     </g>
     <g id="text_19">
      <text style="font-size: 10px; font-family: 'DejaVu Sans', 'Bitstream Vera Sans', 'Computer Modern Sans Serif', 'Lucida Grande', 'Verdana', 'Geneva', 'Lucid', 'Arial', 'Helvetica', 'Avant Garde', sans-serif; text-anchor: middle" x="419.674199" y="258.676562" transform="rotate(-0 419.674199 258.676562)">0</text>
     </g>
    </g>
    <g id="xtick_8">
     <g id="line2d_33">
      <path d="M 475.291127 244.078125 
L 475.291127 22.318125 
" clip-path="url(#pc9da8bf30d)" style="fill: none; stroke: #b0b0b0; stroke-opacity: 0.25; stroke-width: 0.8; stroke-linecap: square"/>
     </g>
     <g id="line2d_34">
      <g>
       <use xlink:href="#mb22a530379" x="475.291127" y="244.078125" style="stroke: #000000; stroke-width: 0.8"/>
      </g>
     </g>
     <g id="text_20">
      <text style="font-size: 10px; font-family: 'DejaVu Sans', 'Bitstream Vera Sans', 'Computer Modern Sans Serif', 'Lucida Grande', 'Verdana', 'Geneva', 'Lucid', 'Arial', 'Helvetica', 'Avant Garde', sans-serif; text-anchor: middle" x="475.291127" y="258.676562" transform="rotate(-0 475.291127 258.676562)">20</text>
     </g>
    </g>
    <g id="xtick_9">
     <g id="line2d_35">
      <path d="M 530.908055 244.078125 
L 530.908055 22.318125 
" clip-path="url(#pc9da8bf30d)" style="fill: none; stroke: #b0b0b0; stroke-opacity: 0.25; stroke-width: 0.8; stroke-linecap: square"/>
     </g>
     <g id="line2d_36">
      <g>
       <use xlink:href="#mb22a530379" x="530.908055" y="244.078125" style="stroke: #000000; stroke-width: 0.8"/>
      </g>
     </g>
     <g id="text_21">
      <text style="font-size: 10px; font-family: 'DejaVu Sans', 'Bitstream Vera Sans', 'Computer Modern Sans Serif', 'Lucida Grande', 'Verdana', 'Geneva', 'Lucid', 'Arial', 'Helvetica', 'Avant Garde', sans-serif; text-anchor: middle" x="530.908055" y="258.676562" transform="rotate(-0 530.908055 258.676562)">40</text>
     </g>
    </g>
    <g id="xtick_10">
     <g id="line2d_37">
      <path d="M 586.524982 244.078125 
L 586.524982 22.318125 
" clip-path="url(#pc9da8bf30d)" style="fill: none; stroke: #b0b0b0; stroke-opacity: 0.25; stroke-width: 0.8; stroke-linecap: square"/>
     </g>
     <g id="line2d_38">
      <g>
       <use xlink:href="#mb22a530379" x="586.524982" y="244.078125" style="stroke: #000000; stroke-width: 0.8"/>
      </g>
     </g>
     <g id="text_22">
      <text style="font-size: 10px; font-family: 'DejaVu Sans', 'Bitstream Vera Sans', 'Computer Modern Sans Serif', 'Lucida Grande', 'Verdana', 'Geneva', 'Lucid', 'Arial', 'Helvetica', 'Avant Garde', sans-serif; text-anchor: middle" x="586.524982" y="258.676562" transform="rotate(-0 586.524982 258.676562)">60</text>
     </g>
    </g>
    <g id="xtick_11">
     <g id="line2d_39">
      <path d="M 642.14191 244.078125 
L 642.14191 22.318125 
" clip-path="url(#pc9da8bf30d)" style="fill: none; stroke: #b0b0b0; stroke-opacity: 0.25; stroke-width: 0.8; stroke-linecap: square"/>
     </g>
     <g id="line2d_40">
      <g>
       <use xlink:href="#mb22a530379" x="642.14191" y="244.078125" style="stroke: #000000; stroke-width: 0.8"/>
      </g>
     </g>
     <g id="text_23">
      <text style="font-size: 10px; font-family: 'DejaVu Sans', 'Bitstream Vera Sans', 'Computer Modern Sans Serif', 'Lucida Grande', 'Verdana', 'Geneva', 'Lucid', 'Arial', 'Helvetica', 'Avant Garde', sans-serif; text-anchor: middle" x="642.14191" y="258.676562" transform="rotate(-0 642.14191 258.676562)">80</text>
     </g>
    </g>
    <g id="xtick_12">
     <g id="line2d_41">
      <path d="M 697.758837 244.078125 
L 697.758837 22.318125 
" clip-path="url(#pc9da8bf30d)" style="fill: none; stroke: #b0b0b0; stroke-opacity: 0.25; stroke-width: 0.8; stroke-linecap: square"/>
     </g>
     <g id="line2d_42">
      <g>
       <use xlink:href="#mb22a530379" x="697.758837" y="244.078125" style="stroke: #000000; stroke-width: 0.8"/>
      </g>
     </g>
     <g id="text_24">
      <text style="font-size: 10px; font-family: 'DejaVu Sans', 'Bitstream Vera Sans', 'Computer Modern Sans Serif', 'Lucida Grande', 'Verdana', 'Geneva', 'Lucid', 'Arial', 'Helvetica', 'Avant Garde', sans-serif; text-anchor: middle" x="697.758837" y="258.676562" transform="rotate(-0 697.758837 258.676562)">100</text>
     </g>
    </g>
    <g id="text_25">
     <text style="font-size: 10px; font-family: 'DejaVu Sans', 'Bitstream Vera Sans', 'Computer Modern Sans Serif', 'Lucida Grande', 'Verdana', 'Geneva', 'Lucid', 'Arial', 'Helvetica', 'Avant Garde', sans-serif; text-anchor: middle" x="558.021307" y="272.354687" transform="rotate(-0 558.021307 272.354687)">Time (ns)</text>
    </g>
   </g>
   <g id="matplotlib.axis_4">
    <g id="ytick_7">
     <g id="line2d_43">
      <path d="M 405.839489 233.998125 
L 710.203125 233.998125 
" clip-path="url(#pc9da8bf30d)" style="fill: none; stroke: #b0b0b0; stroke-opacity: 0.25; stroke-width: 0.8; stroke-linecap: square"/>
     </g>
     <g id="line2d_44">
      <g>
       <use xlink:href="#m5a667c3701" x="405.839489" y="233.998125" style="stroke: #000000; stroke-width: 0.8"/>
      </g>
     </g>
     <g id="text_26">
      <text style="font-size: 10px; font-family: 'DejaVu Sans', 'Bitstream Vera Sans', 'Computer Modern Sans Serif', 'Lucida Grande', 'Verdana', 'Geneva', 'Lucid', 'Arial', 'Helvetica', 'Avant Garde', sans-serif; text-anchor: end" x="398.839489" y="237.797344" transform="rotate(-0 398.839489 237.797344)">0</text>
     </g>
    </g>
    <g id="ytick_8">
     <g id="line2d_45">
      <path d="M 405.839489 195.960389 
L 710.203125 195.960389 
" clip-path="url(#pc9da8bf30d)" style="fill: none; stroke: #b0b0b0; stroke-opacity: 0.25; stroke-width: 0.8; stroke-linecap: square"/>
     </g>
     <g id="line2d_46">
      <g>
       <use xlink:href="#m5a667c3701" x="405.839489" y="195.960389" style="stroke: #000000; stroke-width: 0.8"/>
      </g>
     </g>
     <g id="text_27">
      <text style="font-size: 10px; font-family: 'DejaVu Sans', 'Bitstream Vera Sans', 'Computer Modern Sans Serif', 'Lucida Grande', 'Verdana', 'Geneva', 'Lucid', 'Arial', 'Helvetica', 'Avant Garde', sans-serif; text-anchor: end" x="398.839489" y="199.759608" transform="rotate(-0 398.839489 199.759608)">10</text>
     </g>
    </g>
    <g id="ytick_9">
     <g id="line2d_47">
      <path d="M 405.839489 157.922653 
L 710.203125 157.922653 
" clip-path="url(#pc9da8bf30d)" style="fill: none; stroke: #b0b0b0; stroke-opacity: 0.25; stroke-width: 0.8; stroke-linecap: square"/>
     </g>
     <g id="line2d_48">
      <g>
       <use xlink:href="#m5a667c3701" x="405.839489" y="157.922653" style="stroke: #000000; stroke-width: 0.8"/>
      </g>
     </g>
     <g id="text_28">
      <text style="font-size: 10px; font-family: 'DejaVu Sans', 'Bitstream Vera Sans', 'Computer Modern Sans Serif', 'Lucida Grande', 'Verdana', 'Geneva', 'Lucid', 'Arial', 'Helvetica', 'Avant Garde', sans-serif; text-anchor: end" x="398.839489" y="161.721872" transform="rotate(-0 398.839489 161.721872)">20</text>
     </g>
    </g>
    <g id="ytick_10">
     <g id="line2d_49">
      <path d="M 405.839489 119.884917 
L 710.203125 119.884917 
" clip-path="url(#pc9da8bf30d)" style="fill: none; stroke: #b0b0b0; stroke-opacity: 0.25; stroke-width: 0.8; stroke-linecap: square"/>
     </g>
     <g id="line2d_50">
      <g>
       <use xlink:href="#m5a667c3701" x="405.839489" y="119.884917" style="stroke: #000000; stroke-width: 0.8"/>
      </g>
     </g>
     <g id="text_29">
      <text style="font-size: 10px; font-family: 'DejaVu Sans', 'Bitstream Vera Sans', 'Computer Modern Sans Serif', 'Lucida Grande', 'Verdana', 'Geneva', 'Lucid', 'Arial', 'Helvetica', 'Avant Garde', sans-serif; text-anchor: end" x="398.839489" y="123.684136" transform="rotate(-0 398.839489 123.684136)">30</text>
     </g>
    </g>
    <g id="ytick_11">
     <g id="line2d_51">
      <path d="M 405.839489 81.847182 
L 710.203125 81.847182 
" clip-path="url(#pc9da8bf30d)" style="fill: none; stroke: #b0b0b0; stroke-opacity: 0.25; stroke-width: 0.8; stroke-linecap: square"/>
     </g>
     <g id="line2d_52">
      <g>
       <use xlink:href="#m5a667c3701" x="405.839489" y="81.847182" style="stroke: #000000; stroke-width: 0.8"/>
      </g>
     </g>
     <g id="text_30">
      <text style="font-size: 10px; font-family: 'DejaVu Sans', 'Bitstream Vera Sans', 'Computer Modern Sans Serif', 'Lucida Grande', 'Verdana', 'Geneva', 'Lucid', 'Arial', 'Helvetica', 'Avant Garde', sans-serif; text-anchor: end" x="398.839489" y="85.6464" transform="rotate(-0 398.839489 85.6464)">40</text>
     </g>
    </g>
    <g id="ytick_12">
     <g id="line2d_53">
      <path d="M 405.839489 43.809446 
L 710.203125 43.809446 
" clip-path="url(#pc9da8bf30d)" style="fill: none; stroke: #b0b0b0; stroke-opacity: 0.25; stroke-width: 0.8; stroke-linecap: square"/>
     </g>
     <g id="line2d_54">
      <g>
       <use xlink:href="#m5a667c3701" x="405.839489" y="43.809446" style="stroke: #000000; stroke-width: 0.8"/>
      </g>
     </g>
     <g id="text_31">
      <text style="font-size: 10px; font-family: 'DejaVu Sans', 'Bitstream Vera Sans', 'Computer Modern Sans Serif', 'Lucida Grande', 'Verdana', 'Geneva', 'Lucid', 'Arial', 'Helvetica', 'Avant Garde', sans-serif; text-anchor: end" x="398.839489" y="47.608665" transform="rotate(-0 398.839489 47.608665)">50</text>
     </g>
    </g>
    <g id="text_32">
     <text style="font-size: 10px; font-family: 'DejaVu Sans', 'Bitstream Vera Sans', 'Computer Modern Sans Serif', 'Lucida Grande', 'Verdana', 'Geneva', 'Lucid', 'Arial', 'Helvetica', 'Avant Garde', sans-serif; text-anchor: middle" x="380.034801" y="133.198125" transform="rotate(-90 380.034801 133.198125)">Protein atoms within 4 A of ligand</text>
    </g>
   </g>
   <g id="line2d_55">
    <path d="M 419.674199 66.632087 
L 421.064623 47.613219 
L 422.455046 66.632087 
L 423.845469 74.239634 
L 425.235892 66.632087 
L 426.626315 40.005672 
L 428.016739 55.220767 
L 429.407162 43.809446 
L 430.797585 74.239634 
L 432.188008 70.435861 
L 433.578431 62.828314 
L 434.968854 97.062276 
L 436.359278 66.632087 
L 437.749701 119.884917 
L 439.140124 59.02454 
L 440.530547 104.669823 
L 441.92097 100.86605 
L 443.311394 62.828314 
L 444.701817 89.454729 
L 446.09224 104.669823 
L 447.482663 70.435861 
L 448.873086 89.454729 
L 450.26351 66.632087 
L 451.653933 108.473597 
L 453.044356 85.650955 
L 454.434779 89.454729 
L 455.825202 59.02454 
L 457.215626 51.416993 
L 458.606049 104.669823 
L 459.996472 51.416993 
L 461.386895 74.239634 
L 462.777318 70.435861 
L 464.167741 62.828314 
L 465.558165 51.416993 
L 468.339011 66.632087 
L 469.729434 62.828314 
L 471.119857 93.258502 
L 472.510281 62.828314 
L 475.291127 93.258502 
L 476.68155 59.02454 
L 478.071973 51.416993 
L 479.462397 97.062276 
L 480.85282 62.828314 
L 482.243243 89.454729 
L 483.633666 89.454729 
L 485.024089 59.02454 
L 486.414513 59.02454 
L 487.804936 81.847182 
L 489.195359 78.043408 
L 490.585782 62.828314 
L 493.366628 55.220767 
L 494.757052 55.220767 
L 496.147475 70.435861 
L 497.537898 89.454729 
L 498.928321 62.828314 
L 500.318744 74.239634 
L 501.709168 89.454729 
L 503.099591 74.239634 
L 504.490014 78.043408 
L 505.880437 89.454729 
L 507.27086 78.043408 
L 508.661284 85.650955 
L 510.051707 78.043408 
L 511.44213 51.416993 
L 512.832553 66.632087 
L 514.222976 74.239634 
L 515.6134 62.828314 
L 517.003823 93.258502 
L 518.394246 81.847182 
L 519.784669 66.632087 
L 522.565515 59.02454 
L 523.955939 85.650955 
L 525.346362 70.435861 
L 526.736785 70.435861 
L 528.127208 81.847182 
L 529.517631 81.847182 
L 530.908055 66.632087 
L 532.298478 93.258502 
L 533.688901 51.416993 
L 535.079324 62.828314 
L 536.469747 81.847182 
L 537.860171 40.005672 
L 539.250594 51.416993 
L 540.641017 89.454729 
L 542.03144 66.632087 
L 543.421863 74.239634 
L 544.812287 70.435861 
L 546.20271 81.847182 
L 547.593133 85.650955 
L 550.373979 78.043408 
L 551.764402 62.828314 
L 553.154826 78.043408 
L 554.545249 47.613219 
L 555.935672 81.847182 
L 557.326095 62.828314 
L 558.716518 74.239634 
L 560.106942 70.435861 
L 561.497365 74.239634 
L 562.887788 70.435861 
L 564.278211 78.043408 
L 565.668634 78.043408 
L 567.059058 93.258502 
L 568.449481 85.650955 
L 569.839904 43.809446 
L 571.230327 59.02454 
L 572.62075 78.043408 
L 574.011174 47.613219 
L 575.401597 81.847182 
L 576.79202 62.828314 
L 578.182443 93.258502 
L 579.572866 66.632087 
L 580.963289 81.847182 
L 582.353713 51.416993 
L 583.744136 85.650955 
L 585.134559 104.669823 
L 586.524982 89.454729 
L 587.915405 89.454729 
L 589.305829 78.043408 
L 590.696252 70.435861 
L 592.086675 55.220767 
L 593.477098 66.632087 
L 594.867521 74.239634 
L 597.648368 66.632087 
L 599.038791 59.02454 
L 600.429214 62.828314 
L 601.819637 59.02454 
L 603.210061 89.454729 
L 604.600484 62.828314 
L 605.990907 78.043408 
L 607.38133 36.201899 
L 608.771753 93.258502 
L 610.162176 112.27737 
L 611.5526 70.435861 
L 612.943023 78.043408 
L 614.333446 89.454729 
L 615.723869 66.632087 
L 617.114292 81.847182 
L 618.504716 59.02454 
L 619.895139 93.258502 
L 621.285562 70.435861 
L 622.675985 55.220767 
L 624.066408 62.828314 
L 625.456832 112.27737 
L 626.847255 81.847182 
L 629.628101 97.062276 
L 633.799371 97.062276 
L 635.189794 62.828314 
L 636.580217 89.454729 
L 637.97064 85.650955 
L 639.361063 51.416993 
L 640.751487 70.435861 
L 642.14191 74.239634 
L 643.532333 59.02454 
L 644.922756 55.220767 
L 646.313179 81.847182 
L 647.703603 59.02454 
L 649.094026 59.02454 
L 650.484449 89.454729 
L 651.874872 62.828314 
L 653.265295 43.809446 
L 654.655719 70.435861 
L 656.046142 85.650955 
L 657.436565 74.239634 
L 658.826988 70.435861 
L 660.217411 81.847182 
L 661.607834 81.847182 
L 662.998258 74.239634 
L 664.388681 59.02454 
L 665.779104 78.043408 
L 667.169527 55.220767 
L 669.950374 85.650955 
L 671.340797 78.043408 
L 672.73122 66.632087 
L 674.121643 66.632087 
L 675.512066 93.258502 
L 676.90249 78.043408 
L 678.292913 74.239634 
L 681.073759 81.847182 
L 682.464182 62.828314 
L 683.854606 85.650955 
L 686.635452 62.828314 
L 688.025875 93.258502 
L 689.416298 59.02454 
L 690.806721 62.828314 
L 693.587568 93.258502 
L 694.977991 55.220767 
L 696.368414 66.632087 
L 696.368414 66.632087 
" clip-path="url(#pc9da8bf30d)" style="fill: none; stroke: #1f77b4; stroke-opacity: 0.85; stroke-width: 0.9; stroke-linecap: square"/>
   </g>
   <g id="line2d_56">
    <path d="M 419.674199 93.258502 
L 421.064623 78.043408 
L 422.455046 97.062276 
L 423.845469 78.043408 
L 425.235892 70.435861 
L 426.626315 85.650955 
L 428.016739 78.043408 
L 429.407162 62.828314 
L 430.797585 93.258502 
L 432.188008 93.258502 
L 433.578431 81.847182 
L 434.968854 100.86605 
L 436.359278 70.435861 
L 437.749701 55.220767 
L 439.140124 116.081144 
L 440.530547 97.062276 
L 441.92097 81.847182 
L 443.311394 74.239634 
L 444.701817 100.86605 
L 446.09224 93.258502 
L 447.482663 59.02454 
L 448.873086 85.650955 
L 450.26351 70.435861 
L 451.653933 89.454729 
L 453.044356 74.239634 
L 454.434779 70.435861 
L 455.825202 59.02454 
L 457.215626 97.062276 
L 459.996472 97.062276 
L 461.386895 100.86605 
L 462.777318 100.86605 
L 464.167741 108.473597 
L 465.558165 81.847182 
L 466.948588 81.847182 
L 468.339011 104.669823 
L 469.729434 104.669823 
L 471.119857 70.435861 
L 472.510281 93.258502 
L 473.900704 104.669823 
L 475.291127 108.473597 
L 476.68155 89.454729 
L 478.071973 81.847182 
L 479.462397 100.86605 
L 480.85282 104.669823 
L 482.243243 66.632087 
L 483.633666 100.86605 
L 485.024089 100.86605 
L 486.414513 97.062276 
L 487.804936 112.27737 
L 489.195359 116.081144 
L 490.585782 81.847182 
L 491.976205 97.062276 
L 493.366628 89.454729 
L 494.757052 78.043408 
L 496.147475 89.454729 
L 497.537898 89.454729 
L 498.928321 97.062276 
L 500.318744 97.062276 
L 501.709168 116.081144 
L 503.099591 89.454729 
L 504.490014 85.650955 
L 505.880437 85.650955 
L 507.27086 78.043408 
L 508.661284 116.081144 
L 510.051707 104.669823 
L 511.44213 85.650955 
L 512.832553 116.081144 
L 514.222976 108.473597 
L 515.6134 74.239634 
L 517.003823 78.043408 
L 518.394246 85.650955 
L 519.784669 78.043408 
L 521.175092 81.847182 
L 522.565515 89.454729 
L 523.955939 104.669823 
L 525.346362 104.669823 
L 526.736785 66.632087 
L 528.127208 100.86605 
L 529.517631 104.669823 
L 530.908055 119.884917 
L 532.298478 104.669823 
L 533.688901 97.062276 
L 535.079324 100.86605 
L 536.469747 70.435861 
L 537.860171 81.847182 
L 539.250594 81.847182 
L 540.641017 85.650955 
L 542.03144 78.043408 
L 543.421863 74.239634 
L 544.812287 93.258502 
L 546.20271 85.650955 
L 547.593133 70.435861 
L 548.983556 51.416993 
L 550.373979 74.239634 
L 551.764402 81.847182 
L 553.154826 70.435861 
L 554.545249 78.043408 
L 555.935672 81.847182 
L 557.326095 47.613219 
L 558.716518 78.043408 
L 560.106942 66.632087 
L 561.497365 59.02454 
L 562.887788 55.220767 
L 564.278211 74.239634 
L 565.668634 62.828314 
L 567.059058 85.650955 
L 568.449481 74.239634 
L 571.230327 81.847182 
L 572.62075 89.454729 
L 574.011174 62.828314 
L 575.401597 89.454729 
L 576.79202 78.043408 
L 578.182443 74.239634 
L 579.572866 59.02454 
L 580.963289 108.473597 
L 582.353713 74.239634 
L 583.744136 43.809446 
L 585.134559 100.86605 
L 586.524982 97.062276 
L 587.915405 89.454729 
L 589.305829 74.239634 
L 590.696252 108.473597 
L 592.086675 78.043408 
L 593.477098 85.650955 
L 594.867521 100.86605 
L 596.257945 78.043408 
L 597.648368 81.847182 
L 599.038791 119.884917 
L 600.429214 81.847182 
L 601.819637 78.043408 
L 604.600484 100.86605 
L 605.990907 74.239634 
L 607.38133 70.435861 
L 608.771753 97.062276 
L 610.162176 74.239634 
L 611.5526 89.454729 
L 612.943023 100.86605 
L 614.333446 108.473597 
L 615.723869 85.650955 
L 617.114292 93.258502 
L 618.504716 66.632087 
L 619.895139 85.650955 
L 621.285562 78.043408 
L 622.675985 74.239634 
L 624.066408 85.650955 
L 625.456832 66.632087 
L 626.847255 78.043408 
L 628.237678 70.435861 
L 629.628101 89.454729 
L 631.018524 93.258502 
L 632.408948 55.220767 
L 633.799371 74.239634 
L 635.189794 81.847182 
L 636.580217 108.473597 
L 637.97064 66.632087 
L 639.361063 89.454729 
L 640.751487 89.454729 
L 642.14191 74.239634 
L 643.532333 70.435861 
L 644.922756 93.258502 
L 646.313179 85.650955 
L 647.703603 70.435861 
L 649.094026 78.043408 
L 650.484449 74.239634 
L 651.874872 78.043408 
L 653.265295 62.828314 
L 654.655719 78.043408 
L 656.046142 81.847182 
L 657.436565 78.043408 
L 658.826988 47.613219 
L 660.217411 85.650955 
L 661.607834 89.454729 
L 662.998258 97.062276 
L 664.388681 74.239634 
L 665.779104 70.435861 
L 667.169527 104.669823 
L 668.55995 93.258502 
L 669.950374 70.435861 
L 671.340797 89.454729 
L 672.73122 89.454729 
L 674.121643 100.86605 
L 675.512066 74.239634 
L 676.90249 97.062276 
L 678.292913 55.220767 
L 681.073759 78.043408 
L 682.464182 104.669823 
L 683.854606 55.220767 
L 685.245029 78.043408 
L 686.635452 89.454729 
L 688.025875 59.02454 
L 689.416298 85.650955 
L 690.806721 85.650955 
L 692.197145 78.043408 
L 693.587568 74.239634 
L 694.977991 74.239634 
L 696.368414 59.02454 
L 696.368414 59.02454 
" clip-path="url(#pc9da8bf30d)" style="fill: none; stroke: #ff7f0e; stroke-opacity: 0.85; stroke-width: 0.9; stroke-linecap: square"/>
   </g>
   <g id="line2d_57">
    <path d="M 419.674199 59.02454 
L 421.064623 51.416993 
L 422.455046 47.613219 
L 423.845469 89.454729 
L 425.235892 89.454729 
L 426.626315 43.809446 
L 428.016739 32.398125 
L 429.407162 74.239634 
L 432.188008 66.632087 
L 433.578431 66.632087 
L 434.968854 62.828314 
L 436.359278 62.828314 
L 437.749701 59.02454 
L 439.140124 59.02454 
L 440.530547 51.416993 
L 441.92097 59.02454 
L 443.311394 59.02454 
L 444.701817 43.809446 
L 446.09224 55.220767 
L 447.482663 62.828314 
L 448.873086 40.005672 
L 450.26351 70.435861 
L 451.653933 74.239634 
L 453.044356 74.239634 
L 454.434779 51.416993 
L 455.825202 40.005672 
L 457.215626 40.005672 
L 458.606049 97.062276 
L 459.996472 51.416993 
L 461.386895 66.632087 
L 462.777318 70.435861 
L 464.167741 47.613219 
L 466.948588 70.435861 
L 468.339011 51.416993 
L 469.729434 93.258502 
L 471.119857 51.416993 
L 472.510281 78.043408 
L 473.900704 89.454729 
L 475.291127 55.220767 
L 476.68155 47.613219 
L 478.071973 81.847182 
L 479.462397 81.847182 
L 480.85282 55.220767 
L 482.243243 81.847182 
L 483.633666 55.220767 
L 485.024089 70.435861 
L 486.414513 62.828314 
L 487.804936 66.632087 
L 489.195359 59.02454 
L 490.585782 40.005672 
L 493.366628 55.220767 
L 494.757052 59.02454 
L 496.147475 59.02454 
L 497.537898 51.416993 
L 498.928321 40.005672 
L 500.318744 40.005672 
L 501.709168 43.809446 
L 503.099591 78.043408 
L 504.490014 55.220767 
L 507.27086 47.613219 
L 508.661284 59.02454 
L 510.051707 59.02454 
L 511.44213 47.613219 
L 512.832553 70.435861 
L 514.222976 89.454729 
L 515.6134 66.632087 
L 517.003823 100.86605 
L 518.394246 78.043408 
L 519.784669 36.201899 
L 522.565515 81.847182 
L 523.955939 78.043408 
L 525.346362 108.473597 
L 526.736785 70.435861 
L 528.127208 66.632087 
L 529.517631 55.220767 
L 530.908055 70.435861 
L 532.298478 100.86605 
L 533.688901 70.435861 
L 535.079324 97.062276 
L 537.860171 81.847182 
L 539.250594 81.847182 
L 540.641017 93.258502 
L 542.03144 93.258502 
L 543.421863 81.847182 
L 544.812287 78.043408 
L 546.20271 78.043408 
L 547.593133 81.847182 
L 548.983556 62.828314 
L 550.373979 78.043408 
L 551.764402 97.062276 
L 553.154826 108.473597 
L 554.545249 78.043408 
L 555.935672 97.062276 
L 557.326095 36.201899 
L 560.106942 97.062276 
L 561.497365 85.650955 
L 562.887788 89.454729 
L 564.278211 70.435861 
L 565.668634 62.828314 
L 567.059058 74.239634 
L 568.449481 59.02454 
L 569.839904 59.02454 
L 571.230327 93.258502 
L 572.62075 62.828314 
L 574.011174 55.220767 
L 575.401597 89.454729 
L 576.79202 78.043408 
L 578.182443 59.02454 
L 579.572866 78.043408 
L 580.963289 66.632087 
L 582.353713 74.239634 
L 583.744136 66.632087 
L 585.134559 47.613219 
L 586.524982 66.632087 
L 587.915405 78.043408 
L 589.305829 62.828314 
L 590.696252 89.454729 
L 592.086675 55.220767 
L 593.477098 78.043408 
L 594.867521 70.435861 
L 596.257945 89.454729 
L 597.648368 74.239634 
L 599.038791 74.239634 
L 600.429214 70.435861 
L 601.819637 74.239634 
L 603.210061 85.650955 
L 604.600484 70.435861 
L 605.990907 85.650955 
L 607.38133 51.416993 
L 608.771753 89.454729 
L 610.162176 81.847182 
L 611.5526 66.632087 
L 612.943023 66.632087 
L 614.333446 100.86605 
L 615.723869 74.239634 
L 617.114292 55.220767 
L 618.504716 81.847182 
L 619.895139 78.043408 
L 621.285562 89.454729 
L 622.675985 81.847182 
L 624.066408 81.847182 
L 625.456832 85.650955 
L 626.847255 66.632087 
L 628.237678 66.632087 
L 629.628101 59.02454 
L 631.018524 78.043408 
L 632.408948 81.847182 
L 633.799371 74.239634 
L 635.189794 233.998125 
L 643.532333 233.998125 
L 644.922756 74.239634 
L 646.313179 70.435861 
L 647.703603 59.02454 
L 649.094026 81.847182 
L 650.484449 59.02454 
L 651.874872 85.650955 
L 653.265295 70.435861 
L 654.655719 233.998125 
L 656.046142 70.435861 
L 657.436565 78.043408 
L 658.826988 47.613219 
L 660.217411 233.998125 
L 661.607834 85.650955 
L 662.998258 233.998125 
L 667.169527 233.998125 
L 668.55995 59.02454 
L 669.950374 233.998125 
L 676.90249 233.998125 
L 678.292913 214.979257 
L 679.683336 66.632087 
L 681.073759 59.02454 
L 682.464182 233.998125 
L 683.854606 59.02454 
L 685.245029 78.043408 
L 686.635452 62.828314 
L 688.025875 51.416993 
L 689.416298 233.998125 
L 694.977991 233.998125 
L 696.368414 55.220767 
L 696.368414 55.220767 
" clip-path="url(#pc9da8bf30d)" style="fill: none; stroke: #2ca02c; stroke-opacity: 0.85; stroke-width: 0.9; stroke-linecap: square"/>
   </g>
   <g id="patch_6">
    <path d="M 405.839489 244.078125 
L 405.839489 22.318125 
" style="fill: none; stroke: #000000; stroke-width: 0.8; stroke-linejoin: miter; stroke-linecap: square"/>
   </g>
   <g id="patch_7">
    <path d="M 405.839489 244.078125 
L 710.203125 244.078125 
" style="fill: none; stroke: #000000; stroke-width: 0.8; stroke-linejoin: miter; stroke-linecap: square"/>
   </g>
   <g id="text_33">
    <text style="font-size: 12px; font-family: 'DejaVu Sans', 'Bitstream Vera Sans', 'Computer Modern Sans Serif', 'Lucida Grande', 'Verdana', 'Geneva', 'Lucid', 'Arial', 'Helvetica', 'Avant Garde', sans-serif; text-anchor: middle" x="558.021307" y="16.318125" transform="rotate(-0 558.021307 16.318125)">MAO-B</text>
   </g>
   <g id="legend_2">
    <g id="line2d_58">
     <path d="M 413.039489 208.706875 
L 421.039489 208.706875 
L 429.039489 208.706875 
" style="fill: none; stroke: #1f77b4; stroke-opacity: 0.85; stroke-width: 0.9; stroke-linecap: square"/>
    </g>
    <g id="text_34">
     <text style="font-size: 8px; font-family: 'DejaVu Sans', 'Bitstream Vera Sans', 'Computer Modern Sans Serif', 'Lucida Grande', 'Verdana', 'Geneva', 'Lucid', 'Arial', 'Helvetica', 'Avant Garde', sans-serif; text-anchor: start" x="435.439489" y="211.506875" transform="rotate(-0 435.439489 211.506875)">rep1_rerun2</text>
    </g>
    <g id="line2d_59">
     <path d="M 413.039489 220.671875 
L 421.039489 220.671875 
L 429.039489 220.671875 
" style="fill: none; stroke: #ff7f0e; stroke-opacity: 0.85; stroke-width: 0.9; stroke-linecap: square"/>
    </g>
    <g id="text_35">
     <text style="font-size: 8px; font-family: 'DejaVu Sans', 'Bitstream Vera Sans', 'Computer Modern Sans Serif', 'Lucida Grande', 'Verdana', 'Geneva', 'Lucid', 'Arial', 'Helvetica', 'Avant Garde', sans-serif; text-anchor: start" x="435.439489" y="223.471875" transform="rotate(-0 435.439489 223.471875)">rep2</text>
    </g>
    <g id="line2d_60">
     <path d="M 413.039489 232.414375 
L 421.039489 232.414375 
L 429.039489 232.414375 
" style="fill: none; stroke: #2ca02c; stroke-opacity: 0.85; stroke-width: 0.9; stroke-linecap: square"/>
    </g>
    <g id="text_36">
     <text style="font-size: 8px; font-family: 'DejaVu Sans', 'Bitstream Vera Sans', 'Computer Modern Sans Serif', 'Lucida Grande', 'Verdana', 'Geneva', 'Lucid', 'Arial', 'Helvetica', 'Avant Garde', sans-serif; text-anchor: start" x="435.439489" y="235.214375" transform="rotate(-0 435.439489 235.214375)">rep3</text>
    </g>
   </g>
  </g>
 </g>
 <defs>
  <clipPath id="p6a45aeec73">
   <rect x="40.603125" y="22.318125" width="304.363636" height="221.76"/>
  </clipPath>
  <clipPath id="pc9da8bf30d">
   <rect x="405.839489" y="22.318125" width="304.363636" height="221.76"/>
  </clipPath>
 </defs>
</svg>
