<?xml version="1.0" encoding="utf-8" standalone="no"?>
<!DOCTYPE svg PUBLIC "-//W3C//DTD SVG 1.1//EN"
  "http://www.w3.org/Graphics/SVG/1.1/DTD/svg11.dtd">
<svg xmlns:xlink="http://www.w3.org/1999/xlink" width="608.98125pt" height="267.95625pt" viewBox="0 0 608.98125 267.95625" xmlns="http://www.w3.org/2000/svg" version="1.1">
 <metadata>
  <rdf:RDF xmlns:dc="http://purl.org/dc/elements/1.1/" xmlns:cc="http://creativecommons.org/ns#" xmlns:rdf="http://www.w3.org/1999/02/22-rdf-syntax-ns#">
   <cc:Work>
    <dc:type rdf:resource="http://purl.org/dc/dcmitype/StillImage"/>
    <dc:date>2026-05-18T17:52:24.621188</dc:date>
    <dc:format>image/svg+xml</dc:format>
    <dc:creator>
     <cc:Agent>
      <dc:title>Matplotlib v3.10.9, https://matplotlib.org/</dc:title>
     </cc:Agent>
    </dc:creator>
   </cc:Work>
  </rdf:RDF>
 </metadata>
 <defs>
  <style type="text/css">*{stroke-linejoin: round; stroke-linecap: butt}</style>
 </defs>
 <g id="figure_1">
  <g id="patch_1">
   <path d="M 0 267.95625 
L 608.98125 267.95625 
L 608.98125 0 
L 0 0 
z
" style="fill: #ffffff"/>
  </g>
  <g id="axes_1">
   <g id="patch_2">
    <path d="M 43.78125 244.078125 
L 297.417614 244.078125 
L 297.417614 22.318125 
L 43.78125 22.318125 
z
" style="fill: #ffffff"/>
   </g>
   <g id="FillBetweenPolyCollection_1">
    <path d="M 93.827949 233.998125 
L 93.651907 233.998125 
L 93.658806 232.208363 
L 93.676426 230.418601 
L 93.697707 228.628839 
L 93.716084 226.839077 
L 93.728491 225.049314 
L 93.735268 223.259552 
L 93.738315 221.46979 
L 93.739454 219.680028 
L 93.739809 217.890266 
L 93.739903 216.100504 
L 93.739923 214.310742 
L 93.739927 212.52098 
L 93.739928 210.731218 
L 93.739928 208.941455 
L 93.739928 207.151693 
L 93.739928 205.361931 
L 93.739928 203.572169 
L 93.739928 201.782407 
L 93.739927 199.992645 
L 93.739922 198.202883 
L 93.739897 196.413121 
L 93.739789 194.623359 
L 93.739381 192.833597 
L 93.738078 191.043834 
L 93.734516 189.254072 
L 93.726151 187.46431 
L 93.709171 185.674548 
L 93.679063 183.884786 
L 93.631706 182.095024 
L 93.563994 180.305262 
L 93.472782 178.5155 
L 93.351987 176.725738 
L 93.189796 174.935975 
L 92.969386 173.146213 
L 92.674932 171.356451 
L 92.299707 169.566689 
L 91.848979 167.776927 
L 91.333199 165.987165 
L 90.75664 164.197403 
L 90.112758 162.407641 
L 89.39003 160.617879 
L 88.576217 158.828116 
L 87.6441 157.038354 
L 86.517548 155.248592 
L 85.041584 153.45883 
L 82.991709 151.669068 
L 80.142864 149.879306 
L 76.382942 148.089544 
L 71.82258 146.299782 
L 66.845382 144.51002 
L 62.063874 142.720258 
L 58.183637 140.930495 
L 55.816731 139.140733 
L 55.310176 137.350971 
L 56.650521 135.561209 
L 59.473713 133.771447 
L 63.171778 131.981685 
L 67.05995 130.191923 
L 70.550827 128.402161 
L 73.278513 126.612399 
L 75.134106 124.822636 
L 76.211407 123.032874 
L 76.698873 121.243112 
L 76.772436 119.45335 
L 76.538042 117.663588 
L 76.043613 115.873826 
L 75.33661 114.084064 
L 74.512862 112.294302 
L 73.714114 110.50454 
L 73.077327 108.714777 
L 72.675395 106.925015 
L 72.489801 105.135253 
L 72.431428 103.345491 
L 72.395347 101.555729 
L 72.312026 99.765967 
L 72.15908 97.976205 
L 71.932583 96.186443 
L 71.616469 94.396681 
L 71.190789 92.606919 
L 70.678857 90.817156 
L 70.187819 89.027394 
L 69.893557 87.237632 
L 69.969185 85.44787 
L 70.511668 83.658108 
L 71.523185 81.868346 
L 72.949295 80.078584 
L 74.726025 78.288822 
L 76.792807 76.49906 
L 79.072245 74.709297 
L 81.450394 72.919535 
L 83.785195 71.129773 
L 85.940447 69.340011 
L 87.820353 67.550249 
L 89.383157 65.760487 
L 90.632209 63.970725 
L 91.597498 62.180963 
L 92.319956 60.391201 
L 92.842227 58.601438 
L 93.204276 56.811676 
L 94.275579 56.811676 
L 94.275579 56.811676 
L 94.637628 58.601438 
L 95.1599 60.391201 
L 95.882358 62.180963 
L 96.847646 63.970725 
L 98.096698 65.760487 
L 99.659502 67.550249 
L 101.539409 69.340011 
L 103.69466 71.129773 
L 106.029461 72.919535 
L 108.40761 74.709297 
L 110.687049 76.49906 
L 112.75383 78.288822 
L 114.530561 80.078584 
L 115.956671 81.868346 
L 116.968188 83.658108 
L 117.51067 85.44787 
L 117.586298 87.237632 
L 117.292036 89.027394 
L 116.800998 90.817156 
L 116.289066 92.606919 
L 115.863386 94.396681 
L 115.547272 96.186443 
L 115.320776 97.976205 
L 115.167829 99.765967 
L 115.084508 101.555729 
L 115.048427 103.345491 
L 114.990054 105.135253 
L 114.80446 106.925015 
L 114.402528 108.714777 
L 113.765741 110.50454 
L 112.966993 112.294302 
L 112.143245 114.084064 
L 111.436242 115.873826 
L 110.941813 117.663588 
L 110.707419 119.45335 
L 110.780983 121.243112 
L 111.268448 123.032874 
L 112.345749 124.822636 
L 114.201342 126.612399 
L 116.929028 128.402161 
L 120.419906 130.191923 
L 124.308077 131.981685 
L 128.006142 133.771447 
L 130.829335 135.561209 
L 132.16968 137.350971 
L 131.663124 139.140733 
L 129.296218 140.930495 
L 125.415981 142.720258 
L 120.634474 144.51002 
L 115.657275 146.299782 
L 111.096913 148.089544 
L 107.336991 149.879306 
L 104.488147 151.669068 
L 102.438271 153.45883 
L 100.962308 155.248592 
L 99.835755 157.038354 
L 98.903639 158.828116 
L 98.089826 160.617879 
L 97.367097 162.407641 
L 96.723215 164.197403 
L 96.146656 165.987165 
L 95.630877 167.776927 
L 95.180148 169.566689 
L 94.804923 171.356451 
L 94.510469 173.146213 
L 94.29006 174.935975 
L 94.127868 176.725738 
L 94.007073 178.5155 
L 93.915861 180.305262 
L 93.848149 182.095024 
L 93.800792 183.884786 
L 93.770685 185.674548 
L 93.753704 187.46431 
L 93.74534 189.254072 
L 93.741777 191.043834 
L 93.740474 192.833597 
L 93.740067 194.623359 
L 93.739958 196.413121 
L 93.739933 198.202883 
L 93.739929 199.992645 
L 93.739928 201.782407 
L 93.739928 203.572169 
L 93.739928 205.361931 
L 93.739928 207.151693 
L 93.739928 208.941455 
L 93.739928 210.731218 
L 93.739928 212.52098 
L 93.739932 214.310742 
L 93.739953 216.100504 
L 93.740046 217.890266 
L 93.740402 219.680028 
L 93.74154 221.46979 
L 93.744587 223.259552 
L 93.751365 225.049314 
L 93.763771 226.839077 
L 93.782149 228.628839 
L 93.803429 230.418601 
L 93.821049 232.208363 
L 93.827949 233.998125 
z
" clip-path="url(#p70c1dbb37d)" style="fill: #1f77b4; fill-opacity: 0.35"/>
   </g>
   <g id="FillBetweenPolyCollection_2">
    <path d="M 247.536439 233.998125 
L 247.381433 233.998125 
L 247.386141 231.961761 
L 247.406106 229.925398 
L 247.429313 227.889034 
L 247.446103 225.85267 
L 247.454642 223.816307 
L 247.457826 221.779943 
L 247.458714 219.74358 
L 247.458902 217.707216 
L 247.458932 215.670852 
L 247.458936 213.634489 
L 247.458936 211.598125 
L 247.458936 209.561761 
L 247.458936 207.525398 
L 247.458932 205.489034 
L 247.458908 203.45267 
L 247.458771 201.416307 
L 247.45818 199.379943 
L 247.456194 197.34358 
L 247.450943 195.307216 
L 247.439593 193.270852 
L 247.418439 191.234489 
L 247.382498 189.198125 
L 247.325546 187.161761 
L 247.242134 185.125398 
L 247.130263 183.089034 
L 246.99255 181.05267 
L 246.83632 179.016307 
L 246.671761 176.979943 
L 246.507513 174.94358 
L 246.348201 172.907216 
L 246.196583 170.870852 
L 246.057011 168.834489 
L 245.933914 166.798125 
L 245.821529 164.761761 
L 245.69656 162.725398 
L 245.532123 160.689034 
L 245.322317 158.65267 
L 245.081123 156.616307 
L 244.806855 154.579943 
L 244.452707 152.54358 
L 243.945852 150.507216 
L 243.245709 148.470852 
L 242.38204 146.434489 
L 241.425622 144.398125 
L 240.41739 142.361761 
L 239.319766 140.325398 
L 238.014674 138.289034 
L 236.343385 136.25267 
L 234.1783 134.216307 
L 231.4806 132.179943 
L 228.284593 130.14358 
L 224.633264 128.107216 
L 220.59082 126.070852 
L 216.395276 124.034489 
L 212.593755 121.998125 
L 209.934498 119.961761 
L 209.029184 117.925398 
L 210.042829 115.889034 
L 212.623751 113.85267 
L 216.08353 111.816307 
L 219.693988 109.779943 
L 222.917483 107.74358 
L 225.466317 105.707216 
L 227.248943 103.670852 
L 228.308949 101.634489 
L 228.801704 99.598125 
L 229.001843 97.561761 
L 229.278257 95.525398 
L 229.968364 93.489034 
L 231.205462 91.45267 
L 232.846418 89.416307 
L 234.562118 87.379943 
L 236.011719 85.34358 
L 236.995592 83.307216 
L 237.528381 81.270852 
L 237.801338 79.234489 
L 238.05628 77.198125 
L 238.462558 75.161761 
L 239.071795 73.125398 
L 239.847673 71.089034 
L 240.72007 69.05267 
L 241.615907 67.016307 
L 242.465559 64.979943 
L 243.215115 62.94358 
L 243.841405 60.907216 
L 244.349021 58.870852 
L 244.763189 56.834489 
L 245.127885 54.798125 
L 245.487773 52.761761 
L 245.858812 50.725398 
L 246.220975 48.689034 
L 246.536451 46.65267 
L 246.772356 44.616307 
L 246.919327 42.579943 
L 246.99895 40.54358 
L 247.049291 38.507216 
L 247.100525 36.470852 
L 247.164916 34.434489 
L 247.241118 32.398125 
L 247.676754 32.398125 
L 247.676754 32.398125 
L 247.752956 34.434489 
L 247.817347 36.470852 
L 247.868581 38.507216 
L 247.918922 40.54358 
L 247.998545 42.579943 
L 248.145516 44.616307 
L 248.381421 46.65267 
L 248.696896 48.689034 
L 249.05906 50.725398 
L 249.430099 52.761761 
L 249.789986 54.798125 
L 250.154683 56.834489 
L 250.568851 58.870852 
L 251.076467 60.907216 
L 251.702757 62.94358 
L 252.452313 64.979943 
L 253.301965 67.016307 
L 254.197802 69.05267 
L 255.070199 71.089034 
L 255.846077 73.125398 
L 256.455314 75.161761 
L 256.861592 77.198125 
L 257.116534 79.234489 
L 257.389491 81.270852 
L 257.92228 83.307216 
L 258.906153 85.34358 
L 260.355754 87.379943 
L 262.071454 89.416307 
L 263.71241 91.45267 
L 264.949508 93.489034 
L 265.639615 95.525398 
L 265.916029 97.561761 
L 266.116168 99.598125 
L 266.608923 101.634489 
L 267.668929 103.670852 
L 269.451555 105.707216 
L 272.000389 107.74358 
L 275.223884 109.779943 
L 278.834342 111.816307 
L 282.294121 113.85267 
L 284.875043 115.889034 
L 285.888688 117.925398 
L 284.983374 119.961761 
L 282.324116 121.998125 
L 278.522596 124.034489 
L 274.327052 126.070852 
L 270.284608 128.107216 
L 266.633279 130.14358 
L 263.437271 132.179943 
L 260.739572 134.216307 
L 258.574487 136.25267 
L 256.903198 138.289034 
L 255.598106 140.325398 
L 254.500482 142.361761 
L 253.49225 144.398125 
L 252.535831 146.434489 
L 251.672163 148.470852 
L 250.97202 150.507216 
L 250.465165 152.54358 
L 250.111016 154.579943 
L 249.836748 156.616307 
L 249.595555 158.65267 
L 249.385749 160.689034 
L 249.221312 162.725398 
L 249.096343 164.761761 
L 248.983958 166.798125 
L 248.860861 168.834489 
L 248.721289 170.870852 
L 248.569671 172.907216 
L 248.410359 174.94358 
L 248.246111 176.979943 
L 248.081552 179.016307 
L 247.925322 181.05267 
L 247.787609 183.089034 
L 247.675738 185.125398 
L 247.592326 187.161761 
L 247.535374 189.198125 
L 247.499433 191.234489 
L 247.478279 193.270852 
L 247.466929 195.307216 
L 247.461677 197.34358 
L 247.459692 199.379943 
L 247.459101 201.416307 
L 247.458964 203.45267 
L 247.45894 205.489034 
L 247.458936 207.525398 
L 247.458936 209.561761 
L 247.458936 211.598125 
L 247.458936 213.634489 
L 247.45894 215.670852 
L 247.45897 217.707216 
L 247.459158 219.74358 
L 247.460046 221.779943 
L 247.46323 223.816307 
L 247.471768 225.85267 
L 247.488559 227.889034 
L 247.511766 229.925398 
L 247.531731 231.961761 
L 247.536439 233.998125 
z
" clip-path="url(#p70c1dbb37d)" style="fill: #d95f02; fill-opacity: 0.35"/>
   </g>
   <g id="matplotlib.axis_1">
    <g id="xtick_1">
     <g id="line2d_1">
      <defs>
       <path id="m3aa55a94a3" d="M 0 0 
L 0 3.5 
" style="stroke: #000000; stroke-width: 0.8"/>
      </defs>
      <g>
       <use xlink:href="#m3aa55a94a3" x="93.739928" y="244.078125" style="stroke: #000000; stroke-width: 0.8"/>
      </g>
     </g>
     <g id="text_1">
      <text style="font-size: 10px; font-family: 'DejaVu Sans', 'Bitstream Vera Sans', 'Computer Modern Sans Serif', 'Lucida Grande', 'Verdana', 'Geneva', 'Lucid', 'Arial', 'Helvetica', 'Avant Garde', sans-serif; text-anchor: middle" x="93.739928" y="258.676562" transform="rotate(-0 93.739928 258.676562)">CYP1B1</text>
     </g>
    </g>
    <g id="xtick_2">
     <g id="line2d_2">
      <g>
       <use xlink:href="#m3aa55a94a3" x="247.458936" y="244.078125" style="stroke: #000000; stroke-width: 0.8"/>
      </g>
     </g>
     <g id="text_2">
      <text style="font-size: 10px; font-family: 'DejaVu Sans', 'Bitstream Vera Sans', 'Computer Modern Sans Serif', 'Lucida Grande', 'Verdana', 'Geneva', 'Lucid', 'Arial', 'Helvetica', 'Avant Garde', sans-serif; text-anchor: middle" x="247.458936" y="258.676562" transform="rotate(-0 247.458936 258.676562)">MAO-B</text>
     </g>
    </g>
   </g>
   <g id="matplotlib.axis_2">
    <g id="ytick_1">
     <g id="line2d_3">
      <path d="M 43.78125 233.998125 
L 297.417614 233.998125 
" clip-path="url(#p70c1dbb37d)" style="fill: none; stroke: #b0b0b0; stroke-opacity: 0.25; stroke-width: 0.8; stroke-linecap: square"/>
     </g>
     <g id="line2d_4">
      <defs>
       <path id="mc3f7ddb7aa" d="M 0 0 
L -3.5 0 
" style="stroke: #000000; stroke-width: 0.8"/>
      </defs>
      <g>
       <use xlink:href="#mc3f7ddb7aa" x="43.78125" y="233.998125" style="stroke: #000000; stroke-width: 0.8"/>
      </g>
     </g>
     <g id="text_3">
      <text style="font-size: 10px; font-family: 'DejaVu Sans', 'Bitstream Vera Sans', 'Computer Modern Sans Serif', 'Lucida Grande', 'Verdana', 'Geneva', 'Lucid', 'Arial', 'Helvetica', 'Avant Garde', sans-serif; text-anchor: end" x="36.78125" y="237.797344" transform="rotate(-0 36.78125 237.797344)">0.0</text>
     </g>
    </g>
    <g id="ytick_2">
     <g id="line2d_5">
      <path d="M 43.78125 201.185032 
L 297.417614 201.185032 
" clip-path="url(#p70c1dbb37d)" style="fill: none; stroke: #b0b0b0; stroke-opacity: 0.25; stroke-width: 0.8; stroke-linecap: square"/>
     </g>
     <g id="line2d_6">
      <g>
       <use xlink:href="#mc3f7ddb7aa" x="43.78125" y="201.185032" style="stroke: #000000; stroke-width: 0.8"/>
      </g>
     </g>
     <g id="text_4">
      <text style="font-size: 10px; font-family: 'DejaVu Sans', 'Bitstream Vera Sans', 'Computer Modern Sans Serif', 'Lucida Grande', 'Verdana', 'Geneva', 'Lucid', 'Arial', 'Helvetica', 'Avant Garde', sans-serif; text-anchor: end" x="36.78125" y="204.984251" transform="rotate(-0 36.78125 204.984251)">0.5</text>
     </g>
    </g>
    <g id="ytick_3">
     <g id="line2d_7">
      <path d="M 43.78125 168.371939 
L 297.417614 168.371939 
" clip-path="url(#p70c1dbb37d)" style="fill: none; stroke: #b0b0b0; stroke-opacity: 0.25; stroke-width: 0.8; stroke-linecap: square"/>
     </g>
     <g id="line2d_8">
      <g>
       <use xlink:href="#mc3f7ddb7aa" x="43.78125" y="168.371939" style="stroke: #000000; stroke-width: 0.8"/>
      </g>
     </g>
     <g id="text_5">
      <text style="font-size: 10px; font-family: 'DejaVu Sans', 'Bitstream Vera Sans', 'Computer Modern Sans Serif', 'Lucida Grande', 'Verdana', 'Geneva', 'Lucid', 'Arial', 'Helvetica', 'Avant Garde', sans-serif; text-anchor: end" x="36.78125" y="172.171158" transform="rotate(-0 36.78125 172.171158)">1.0</text>
     </g>
    </g>
    <g id="ytick_4">
     <g id="line2d_9">
      <path d="M 43.78125 135.558847 
L 297.417614 135.558847 
" clip-path="url(#p70c1dbb37d)" style="fill: none; stroke: #b0b0b0; stroke-opacity: 0.25; stroke-width: 0.8; stroke-linecap: square"/>
     </g>
     <g id="line2d_10">
      <g>
       <use xlink:href="#mc3f7ddb7aa" x="43.78125" y="135.558847" style="stroke: #000000; stroke-width: 0.8"/>
      </g>
     </g>
     <g id="text_6">
      <text style="font-size: 10px; font-family: 'DejaVu Sans', 'Bitstream Vera Sans', 'Computer Modern Sans Serif', 'Lucida Grande', 'Verdana', 'Geneva', 'Lucid', 'Arial', 'Helvetica', 'Avant Garde', sans-serif; text-anchor: end" x="36.78125" y="139.358065" transform="rotate(-0 36.78125 139.358065)">1.5</text>
     </g>
    </g>
    <g id="ytick_5">
     <g id="line2d_11">
      <path d="M 43.78125 102.745754 
L 297.417614 102.745754 
" clip-path="url(#p70c1dbb37d)" style="fill: none; stroke: #b0b0b0; stroke-opacity: 0.25; stroke-width: 0.8; stroke-linecap: square"/>
     </g>
     <g id="line2d_12">
      <g>
       <use xlink:href="#mc3f7ddb7aa" x="43.78125" y="102.745754" style="stroke: #000000; stroke-width: 0.8"/>
      </g>
     </g>
     <g id="text_7">
      <text style="font-size: 10px; font-family: 'DejaVu Sans', 'Bitstream Vera Sans', 'Computer Modern Sans Serif', 'Lucida Grande', 'Verdana', 'Geneva', 'Lucid', 'Arial', 'Helvetica', 'Avant Garde', sans-serif; text-anchor: end" x="36.78125" y="106.544972" transform="rotate(-0 36.78125 106.544972)">2.0</text>
     </g>
    </g>
    <g id="ytick_6">
     <g id="line2d_13">
      <path d="M 43.78125 69.932661 
L 297.417614 69.932661 
" clip-path="url(#p70c1dbb37d)" style="fill: none; stroke: #b0b0b0; stroke-opacity: 0.25; stroke-width: 0.8; stroke-linecap: square"/>
     </g>
     <g id="line2d_14">
      <g>
       <use xlink:href="#mc3f7ddb7aa" x="43.78125" y="69.932661" style="stroke: #000000; stroke-width: 0.8"/>
      </g>
     </g>
     <g id="text_8">
      <text style="font-size: 10px; font-family: 'DejaVu Sans', 'Bitstream Vera Sans', 'Computer Modern Sans Serif', 'Lucida Grande', 'Verdana', 'Geneva', 'Lucid', 'Arial', 'Helvetica', 'Avant Garde', sans-serif; text-anchor: end" x="36.78125" y="73.73188" transform="rotate(-0 36.78125 73.73188)">2.5</text>
     </g>
    </g>
    <g id="ytick_7">
     <g id="line2d_15">
      <path d="M 43.78125 37.119568 
L 297.417614 37.119568 
" clip-path="url(#p70c1dbb37d)" style="fill: none; stroke: #b0b0b0; stroke-opacity: 0.25; stroke-width: 0.8; stroke-linecap: square"/>
     </g>
     <g id="line2d_16">
      <g>
       <use xlink:href="#mc3f7ddb7aa" x="43.78125" y="37.119568" style="stroke: #000000; stroke-width: 0.8"/>
      </g>
     </g>
     <g id="text_9">
      <text style="font-size: 10px; font-family: 'DejaVu Sans', 'Bitstream Vera Sans', 'Computer Modern Sans Serif', 'Lucida Grande', 'Verdana', 'Geneva', 'Lucid', 'Arial', 'Helvetica', 'Avant Garde', sans-serif; text-anchor: end" x="36.78125" y="40.918787" transform="rotate(-0 36.78125 40.918787)">3.0</text>
     </g>
    </g>
    <g id="text_10">
     <text style="font-size: 10px; font-family: 'DejaVu Sans', 'Bitstream Vera Sans', 'Computer Modern Sans Serif', 'Lucida Grande', 'Verdana', 'Geneva', 'Lucid', 'Arial', 'Helvetica', 'Avant Garde', sans-serif; text-anchor: middle" x="14.798438" y="133.198125" transform="rotate(-90 14.798438 133.198125)">Backbone RMSD (A)</text>
    </g>
   </g>
   <g id="LineCollection_1">
    <path d="M 74.525052 114.938927 
L 112.954804 114.938927 
" clip-path="url(#p70c1dbb37d)" style="fill: none; stroke: #222222; stroke-width: 1.5"/>
    <path d="M 228.24406 110.160016 
L 266.673812 110.160016 
" clip-path="url(#p70c1dbb37d)" style="fill: none; stroke: #222222; stroke-width: 1.5"/>
   </g>
   <g id="patch_3">
    <path d="M 43.78125 244.078125 
L 43.78125 22.318125 
" style="fill: none; stroke: #000000; stroke-width: 0.8; stroke-linejoin: miter; stroke-linecap: square"/>
   </g>
   <g id="patch_4">
    <path d="M 43.78125 244.078125 
L 297.417614 244.078125 
" style="fill: none; stroke: #000000; stroke-width: 0.8; stroke-linejoin: miter; stroke-linecap: square"/>
   </g>
   <g id="text_11">
    <text style="font-size: 12px; font-family: 'DejaVu Sans', 'Bitstream Vera Sans', 'Computer Modern Sans Serif', 'Lucida Grande', 'Verdana', 'Geneva', 'Lucid', 'Arial', 'Helvetica', 'Avant Garde', sans-serif; text-anchor: middle" x="170.599432" y="16.318125" transform="rotate(-0 170.599432 16.318125)">Backbone RMSD</text>
   </g>
  </g>
  <g id="axes_2">
   <g id="patch_5">
    <path d="M 348.144886 244.078125 
L 601.78125 244.078125 
L 601.78125 22.318125 
L 348.144886 22.318125 
z
" style="fill: #ffffff"/>
   </g>
   <g id="FillBetweenPolyCollection_3">
    <path d="M 398.219118 233.998125 
L 397.988011 233.998125 
L 397.994376 233.161381 
L 398.017443 232.324637 
L 398.046864 231.487894 
L 398.072404 230.65115 
L 398.089271 229.814406 
L 398.098091 228.977662 
L 398.101815 228.140918 
L 398.103097 227.304175 
L 398.103456 226.467431 
L 398.103514 225.630687 
L 398.103384 224.793943 
L 398.102694 223.9572 
L 398.099932 223.120456 
L 398.09066 222.283712 
L 398.064348 221.446968 
L 398.000916 220.610224 
L 397.869865 219.773481 
L 397.634598 218.936737 
L 397.259896 218.099993 
L 396.715749 217.263249 
L 395.973471 216.426505 
L 394.99951 215.589762 
L 393.757125 214.753018 
L 392.219825 213.916274 
L 390.389545 213.07953 
L 388.305185 212.242786 
L 386.031207 211.406043 
L 383.63513 210.569299 
L 381.17779 209.732555 
L 378.724953 208.895811 
L 376.359839 208.059068 
L 374.175383 207.222324 
L 372.250127 206.38558 
L 370.627782 205.548836 
L 369.318254 204.712092 
L 368.323438 203.875349 
L 367.667301 203.038605 
L 367.398825 202.201861 
L 367.556572 201.365117 
L 368.113591 200.528373 
L 368.936758 199.69163 
L 369.794655 198.854886 
L 370.425054 198.018142 
L 370.629191 197.181398 
L 370.336321 196.344654 
L 369.604644 195.507911 
L 368.566438 194.671167 
L 367.355069 193.834423 
L 366.059613 192.997679 
L 364.729501 192.160936 
L 363.409081 191.324192 
L 362.164015 190.487448 
L 361.08228 189.650704 
L 360.257832 188.81396 
L 359.771036 187.977217 
L 359.673812 187.140473 
L 359.980947 186.303729 
L 360.671137 185.466985 
L 361.706011 184.630241 
L 363.058944 183.793498 
L 364.720079 182.956754 
L 366.663569 182.12001 
L 368.819053 181.283266 
L 371.092644 180.446522 
L 373.413784 179.609779 
L 375.745873 178.773035 
L 378.050856 177.936291 
L 380.260117 177.099547 
L 382.290057 176.262804 
L 384.08454 175.42606 
L 385.643967 174.589316 
L 387.020082 173.752572 
L 388.282063 172.915828 
L 389.477138 172.079085 
L 390.612436 171.242341 
L 391.66678 170.405597 
L 392.615597 169.568853 
L 393.447572 168.732109 
L 394.167468 167.895366 
L 394.790603 167.058622 
L 395.333821 166.221878 
L 395.807344 165.385134 
L 396.213304 164.54839 
L 396.552066 163.711647 
L 396.828979 162.874903 
L 397.053942 162.038159 
L 397.236022 161.201415 
L 397.381772 160.364672 
L 397.499358 159.527928 
L 397.600782 158.691184 
L 397.696475 157.85444 
L 397.787715 157.017696 
L 397.866571 156.180953 
L 397.92435 155.344209 
L 397.959877 154.507465 
L 397.980168 153.670721 
L 397.994805 152.833977 
L 398.010387 151.997234 
L 398.028895 151.16049 
L 398.178233 151.16049 
L 398.178233 151.16049 
L 398.196741 151.997234 
L 398.212323 152.833977 
L 398.22696 153.670721 
L 398.247251 154.507465 
L 398.282778 155.344209 
L 398.340558 156.180953 
L 398.419413 157.017696 
L 398.510654 157.85444 
L 398.606347 158.691184 
L 398.70777 159.527928 
L 398.825356 160.364672 
L 398.971106 161.201415 
L 399.153186 162.038159 
L 399.378149 162.874903 
L 399.655062 163.711647 
L 399.993824 164.54839 
L 400.399784 165.385134 
L 400.873307 166.221878 
L 401.416525 167.058622 
L 402.03966 167.895366 
L 402.759556 168.732109 
L 403.591531 169.568853 
L 404.540348 170.405597 
L 405.594692 171.242341 
L 406.72999 172.079085 
L 407.925065 172.915828 
L 409.187046 173.752572 
L 410.563161 174.589316 
L 412.122588 175.42606 
L 413.917071 176.262804 
L 415.947011 177.099547 
L 418.156272 177.936291 
L 420.461255 178.773035 
L 422.793344 179.609779 
L 425.114484 180.446522 
L 427.388075 181.283266 
L 429.54356 182.12001 
L 431.487049 182.956754 
L 433.148184 183.793498 
L 434.501117 184.630241 
L 435.535991 185.466985 
L 436.226182 186.303729 
L 436.533316 187.140473 
L 436.436092 187.977217 
L 435.949296 188.81396 
L 435.124848 189.650704 
L 434.043113 190.487448 
L 432.798047 191.324192 
L 431.477627 192.160936 
L 430.147515 192.997679 
L 428.852059 193.834423 
L 427.64069 194.671167 
L 426.602484 195.507911 
L 425.870807 196.344654 
L 425.577937 197.181398 
L 425.782075 198.018142 
L 426.412473 198.854886 
L 427.27037 199.69163 
L 428.093537 200.528373 
L 428.650556 201.365117 
L 428.808303 202.201861 
L 428.539827 203.038605 
L 427.88369 203.875349 
L 426.888874 204.712092 
L 425.579346 205.548836 
L 423.957001 206.38558 
L 422.031745 207.222324 
L 419.847289 208.059068 
L 417.482175 208.895811 
L 415.029338 209.732555 
L 412.571998 210.569299 
L 410.175921 211.406043 
L 407.901943 212.242786 
L 405.817583 213.07953 
L 403.987303 213.916274 
L 402.450003 214.753018 
L 401.207618 215.589762 
L 400.233658 216.426505 
L 399.491379 217.263249 
L 398.947232 218.099993 
L 398.57253 218.936737 
L 398.337263 219.773481 
L 398.206212 220.610224 
L 398.14278 221.446968 
L 398.116468 222.283712 
L 398.107196 223.120456 
L 398.104434 223.9572 
L 398.103744 224.793943 
L 398.103614 225.630687 
L 398.103672 226.467431 
L 398.104031 227.304175 
L 398.105313 228.140918 
L 398.109037 228.977662 
L 398.117857 229.814406 
L 398.134724 230.65115 
L 398.160264 231.487894 
L 398.189685 232.324637 
L 398.212752 233.161381 
L 398.219118 233.998125 
z
" clip-path="url(#ped4aade4f6)" style="fill: #1f77b4; fill-opacity: 0.35"/>
   </g>
   <g id="FillBetweenPolyCollection_4">
    <path d="M 551.963216 233.998125 
L 551.681928 233.998125 
L 551.612438 231.961761 
L 551.474245 229.925398 
L 551.208697 227.889034 
L 550.731918 225.85267 
L 549.937402 223.816307 
L 548.706867 221.779943 
L 546.930409 219.74358 
L 544.533728 217.707216 
L 541.506298 215.670852 
L 537.92195 213.634489 
L 533.943734 211.598125 
L 529.808548 209.561761 
L 525.792444 207.525398 
L 522.163244 205.489034 
L 519.131341 203.45267 
L 516.811516 201.416307 
L 515.20712 199.379943 
L 514.222419 197.34358 
L 513.699874 195.307216 
L 513.469752 193.270852 
L 513.394434 191.234489 
L 513.39282 189.198125 
L 513.440284 187.161761 
L 513.551515 185.125398 
L 513.76017 183.089034 
L 514.107119 181.05267 
L 514.640237 179.016307 
L 515.419537 176.979943 
L 516.517729 174.94358 
L 518.00962 172.907216 
L 519.951124 170.870852 
L 522.355302 168.834489 
L 525.17533 166.798125 
L 528.302059 164.761761 
L 531.578276 162.725398 
L 534.825407 160.689034 
L 537.874 158.65267 
L 540.588566 156.616307 
L 542.880473 154.579943 
L 544.707638 152.54358 
L 546.064341 150.507216 
L 546.966688 148.470852 
L 547.439022 146.434489 
L 547.504696 144.398125 
L 547.182413 142.361761 
L 546.487638 140.325398 
L 545.437711 138.289034 
L 544.059097 136.25267 
L 542.395064 134.216307 
L 540.511823 132.179943 
L 538.500794 130.14358 
L 536.474798 128.107216 
L 534.557093 126.070852 
L 532.864306 124.034489 
L 531.487086 121.998125 
L 530.474412 119.961761 
L 529.827619 117.925398 
L 529.507266 115.889034 
L 529.450893 113.85267 
L 529.59494 111.816307 
L 529.892432 109.779943 
L 530.320581 107.74358 
L 530.877549 105.707216 
L 531.57233 103.670852 
L 532.413514 101.634489 
L 533.401433 99.598125 
L 534.525231 97.561761 
L 535.76387 95.525398 
L 537.089066 93.489034 
L 538.468525 91.45267 
L 539.868797 89.416307 
L 541.257723 87.379943 
L 542.606468 85.34358 
L 543.890944 83.307216 
L 545.092368 81.270852 
L 546.197026 79.234489 
L 547.195646 77.198125 
L 548.082837 75.161761 
L 548.856729 73.125398 
L 549.518675 71.089034 
L 550.072843 69.05267 
L 550.525789 67.016307 
L 550.886134 64.979943 
L 551.164346 62.94358 
L 551.372376 60.907216 
L 551.522955 58.870852 
L 551.628575 56.834489 
L 551.700469 54.798125 
L 551.747935 52.761761 
L 551.778134 50.725398 
L 551.796287 48.689034 
L 551.806057 46.65267 
L 551.80998 44.616307 
L 551.809857 42.579943 
L 551.8071 40.54358 
L 551.802996 38.507216 
L 551.798815 36.470852 
L 551.795731 34.434489 
L 551.794613 32.398125 
L 551.850532 32.398125 
L 551.850532 32.398125 
L 551.849414 34.434489 
L 551.84633 36.470852 
L 551.842148 38.507216 
L 551.838045 40.54358 
L 551.835288 42.579943 
L 551.835164 44.616307 
L 551.839087 46.65267 
L 551.848858 48.689034 
L 551.86701 50.725398 
L 551.89721 52.761761 
L 551.944676 54.798125 
L 552.01657 56.834489 
L 552.122189 58.870852 
L 552.272768 60.907216 
L 552.480798 62.94358 
L 552.75901 64.979943 
L 553.119356 67.016307 
L 553.572302 69.05267 
L 554.12647 71.089034 
L 554.788415 73.125398 
L 555.562308 75.161761 
L 556.449498 77.198125 
L 557.448118 79.234489 
L 558.552776 81.270852 
L 559.754201 83.307216 
L 561.038677 85.34358 
L 562.387422 87.379943 
L 563.776347 89.416307 
L 565.17662 91.45267 
L 566.556078 93.489034 
L 567.881275 95.525398 
L 569.119914 97.561761 
L 570.243711 99.598125 
L 571.231631 101.634489 
L 572.072815 103.670852 
L 572.767595 105.707216 
L 573.324563 107.74358 
L 573.752712 109.779943 
L 574.050205 111.816307 
L 574.194252 113.85267 
L 574.137879 115.889034 
L 573.817525 117.925398 
L 573.170732 119.961761 
L 572.158058 121.998125 
L 570.780838 124.034489 
L 569.088052 126.070852 
L 567.170346 128.107216 
L 565.14435 130.14358 
L 563.133321 132.179943 
L 561.250081 134.216307 
L 559.586047 136.25267 
L 558.207433 138.289034 
L 557.157507 140.325398 
L 556.462732 142.361761 
L 556.140449 144.398125 
L 556.206122 146.434489 
L 556.678457 148.470852 
L 557.580804 150.507216 
L 558.937506 152.54358 
L 560.764671 154.579943 
L 563.056578 156.616307 
L 565.771145 158.65267 
L 568.819738 160.689034 
L 572.066869 162.725398 
L 575.343085 164.761761 
L 578.469815 166.798125 
L 581.289842 168.834489 
L 583.694021 170.870852 
L 585.635525 172.907216 
L 587.127415 174.94358 
L 588.225608 176.979943 
L 589.004908 179.016307 
L 589.538026 181.05267 
L 589.884975 183.089034 
L 590.093629 185.125398 
L 590.20486 187.161761 
L 590.252324 189.198125 
L 590.25071 191.234489 
L 590.175393 193.270852 
L 589.94527 195.307216 
L 589.422726 197.34358 
L 588.438024 199.379943 
L 586.833629 201.416307 
L 584.513804 203.45267 
L 581.481901 205.489034 
L 577.852701 207.525398 
L 573.836597 209.561761 
L 569.70141 211.598125 
L 565.723195 213.634489 
L 562.138846 215.670852 
L 559.111417 217.707216 
L 556.714736 219.74358 
L 554.938278 221.779943 
L 553.707742 223.816307 
L 552.913227 225.85267 
L 552.436447 227.889034 
L 552.1709 229.925398 
L 552.032707 231.961761 
L 551.963216 233.998125 
z
" clip-path="url(#ped4aade4f6)" style="fill: #d95f02; fill-opacity: 0.35"/>
   </g>
   <g id="matplotlib.axis_3">
    <g id="xtick_3">
     <g id="line2d_17">
      <g>
       <use xlink:href="#m3aa55a94a3" x="398.103564" y="244.078125" style="stroke: #000000; stroke-width: 0.8"/>
      </g>
     </g>
     <g id="text_12">
      <text style="font-size: 10px; font-family: 'DejaVu Sans', 'Bitstream Vera Sans', 'Computer Modern Sans Serif', 'Lucida Grande', 'Verdana', 'Geneva', 'Lucid', 'Arial', 'Helvetica', 'Avant Garde', sans-serif; text-anchor: middle" x="398.103564" y="258.676562" transform="rotate(-0 398.103564 258.676562)">CYP1B1</text>
     </g>
    </g>
    <g id="xtick_4">
     <g id="line2d_18">
      <g>
       <use xlink:href="#m3aa55a94a3" x="551.822572" y="244.078125" style="stroke: #000000; stroke-width: 0.8"/>
      </g>
     </g>
     <g id="text_13">
      <text style="font-size: 10px; font-family: 'DejaVu Sans', 'Bitstream Vera Sans', 'Computer Modern Sans Serif', 'Lucida Grande', 'Verdana', 'Geneva', 'Lucid', 'Arial', 'Helvetica', 'Avant Garde', sans-serif; text-anchor: middle" x="551.822572" y="258.676562" transform="rotate(-0 551.822572 258.676562)">MAO-B</text>
     </g>
    </g>
   </g>
   <g id="matplotlib.axis_4">
    <g id="ytick_8">
     <g id="line2d_19">
      <path d="M 348.144886 233.998125 
L 601.78125 233.998125 
" clip-path="url(#ped4aade4f6)" style="fill: none; stroke: #b0b0b0; stroke-opacity: 0.25; stroke-width: 0.8; stroke-linecap: square"/>
     </g>
     <g id="line2d_20">
      <g>
       <use xlink:href="#mc3f7ddb7aa" x="348.144886" y="233.998125" style="stroke: #000000; stroke-width: 0.8"/>
      </g>
     </g>
     <g id="text_14">
      <text style="font-size: 10px; font-family: 'DejaVu Sans', 'Bitstream Vera Sans', 'Computer Modern Sans Serif', 'Lucida Grande', 'Verdana', 'Geneva', 'Lucid', 'Arial', 'Helvetica', 'Avant Garde', sans-serif; text-anchor: end" x="341.144886" y="237.797344" transform="rotate(-0 341.144886 237.797344)">0.00</text>
     </g>
    </g>
    <g id="ytick_9">
     <g id="line2d_21">
      <path d="M 348.144886 205.092948 
L 601.78125 205.092948 
" clip-path="url(#ped4aade4f6)" style="fill: none; stroke: #b0b0b0; stroke-opacity: 0.25; stroke-width: 0.8; stroke-linecap: square"/>
     </g>
     <g id="line2d_22">
      <g>
       <use xlink:href="#mc3f7ddb7aa" x="348.144886" y="205.092948" style="stroke: #000000; stroke-width: 0.8"/>
      </g>
     </g>
     <g id="text_15">
      <text style="font-size: 10px; font-family: 'DejaVu Sans', 'Bitstream Vera Sans', 'Computer Modern Sans Serif', 'Lucida Grande', 'Verdana', 'Geneva', 'Lucid', 'Arial', 'Helvetica', 'Avant Garde', sans-serif; text-anchor: end" x="341.144886" y="208.892167" transform="rotate(-0 341.144886 208.892167)">0.25</text>
     </g>
    </g>
    <g id="ytick_10">
     <g id="line2d_23">
      <path d="M 348.144886 176.187771 
L 601.78125 176.187771 
" clip-path="url(#ped4aade4f6)" style="fill: none; stroke: #b0b0b0; stroke-opacity: 0.25; stroke-width: 0.8; stroke-linecap: square"/>
     </g>
     <g id="line2d_24">
      <g>
       <use xlink:href="#mc3f7ddb7aa" x="348.144886" y="176.187771" style="stroke: #000000; stroke-width: 0.8"/>
      </g>
     </g>
     <g id="text_16">
      <text style="font-size: 10px; font-family: 'DejaVu Sans', 'Bitstream Vera Sans', 'Computer Modern Sans Serif', 'Lucida Grande', 'Verdana', 'Geneva', 'Lucid', 'Arial', 'Helvetica', 'Avant Garde', sans-serif; text-anchor: end" x="341.144886" y="179.98699" transform="rotate(-0 341.144886 179.98699)">0.50</text>
     </g>
    </g>
    <g id="ytick_11">
     <g id="line2d_25">
      <path d="M 348.144886 147.282594 
L 601.78125 147.282594 
" clip-path="url(#ped4aade4f6)" style="fill: none; stroke: #b0b0b0; stroke-opacity: 0.25; stroke-width: 0.8; stroke-linecap: square"/>
     </g>
     <g id="line2d_26">
      <g>
       <use xlink:href="#mc3f7ddb7aa" x="348.144886" y="147.282594" style="stroke: #000000; stroke-width: 0.8"/>
      </g>
     </g>
     <g id="text_17">
      <text style="font-size: 10px; font-family: 'DejaVu Sans', 'Bitstream Vera Sans', 'Computer Modern Sans Serif', 'Lucida Grande', 'Verdana', 'Geneva', 'Lucid', 'Arial', 'Helvetica', 'Avant Garde', sans-serif; text-anchor: end" x="341.144886" y="151.081813" transform="rotate(-0 341.144886 151.081813)">0.75</text>
     </g>
    </g>
    <g id="ytick_12">
     <g id="line2d_27">
      <path d="M 348.144886 118.377418 
L 601.78125 118.377418 
" clip-path="url(#ped4aade4f6)" style="fill: none; stroke: #b0b0b0; stroke-opacity: 0.25; stroke-width: 0.8; stroke-linecap: square"/>
     </g>
     <g id="line2d_28">
      <g>
       <use xlink:href="#mc3f7ddb7aa" x="348.144886" y="118.377418" style="stroke: #000000; stroke-width: 0.8"/>
      </g>
     </g>
     <g id="text_18">
      <text style="font-size: 10px; font-family: 'DejaVu Sans', 'Bitstream Vera Sans', 'Computer Modern Sans Serif', 'Lucida Grande', 'Verdana', 'Geneva', 'Lucid', 'Arial', 'Helvetica', 'Avant Garde', sans-serif; text-anchor: end" x="341.144886" y="122.176636" transform="rotate(-0 341.144886 122.176636)">1.00</text>
     </g>
    </g>
    <g id="ytick_13">
     <g id="line2d_29">
      <path d="M 348.144886 89.472241 
L 601.78125 89.472241 
" clip-path="url(#ped4aade4f6)" style="fill: none; stroke: #b0b0b0; stroke-opacity: 0.25; stroke-width: 0.8; stroke-linecap: square"/>
     </g>
     <g id="line2d_30">
      <g>
       <use xlink:href="#mc3f7ddb7aa" x="348.144886" y="89.472241" style="stroke: #000000; stroke-width: 0.8"/>
      </g>
     </g>
     <g id="text_19">
      <text style="font-size: 10px; font-family: 'DejaVu Sans', 'Bitstream Vera Sans', 'Computer Modern Sans Serif', 'Lucida Grande', 'Verdana', 'Geneva', 'Lucid', 'Arial', 'Helvetica', 'Avant Garde', sans-serif; text-anchor: end" x="341.144886" y="93.271459" transform="rotate(-0 341.144886 93.271459)">1.25</text>
     </g>
    </g>
    <g id="ytick_14">
     <g id="line2d_31">
      <path d="M 348.144886 60.567064 
L 601.78125 60.567064 
" clip-path="url(#ped4aade4f6)" style="fill: none; stroke: #b0b0b0; stroke-opacity: 0.25; stroke-width: 0.8; stroke-linecap: square"/>
     </g>
     <g id="line2d_32">
      <g>
       <use xlink:href="#mc3f7ddb7aa" x="348.144886" y="60.567064" style="stroke: #000000; stroke-width: 0.8"/>
      </g>
     </g>
     <g id="text_20">
      <text style="font-size: 10px; font-family: 'DejaVu Sans', 'Bitstream Vera Sans', 'Computer Modern Sans Serif', 'Lucida Grande', 'Verdana', 'Geneva', 'Lucid', 'Arial', 'Helvetica', 'Avant Garde', sans-serif; text-anchor: end" x="341.144886" y="64.366283" transform="rotate(-0 341.144886 64.366283)">1.50</text>
     </g>
    </g>
    <g id="ytick_15">
     <g id="line2d_33">
      <path d="M 348.144886 31.661887 
L 601.78125 31.661887 
" clip-path="url(#ped4aade4f6)" style="fill: none; stroke: #b0b0b0; stroke-opacity: 0.25; stroke-width: 0.8; stroke-linecap: square"/>
     </g>
     <g id="line2d_34">
      <g>
       <use xlink:href="#mc3f7ddb7aa" x="348.144886" y="31.661887" style="stroke: #000000; stroke-width: 0.8"/>
      </g>
     </g>
     <g id="text_21">
      <text style="font-size: 10px; font-family: 'DejaVu Sans', 'Bitstream Vera Sans', 'Computer Modern Sans Serif', 'Lucida Grande', 'Verdana', 'Geneva', 'Lucid', 'Arial', 'Helvetica', 'Avant Garde', sans-serif; text-anchor: end" x="341.144886" y="35.461106" transform="rotate(-0 341.144886 35.461106)">1.75</text>
     </g>
    </g>
    <g id="text_22">
     <text style="font-size: 10px; font-family: 'DejaVu Sans', 'Bitstream Vera Sans', 'Computer Modern Sans Serif', 'Lucida Grande', 'Verdana', 'Geneva', 'Lucid', 'Arial', 'Helvetica', 'Avant Garde', sans-serif; text-anchor: middle" x="312.799574" y="133.198125" transform="rotate(-90 312.799574 133.198125)">Ligand RMSD (A)</text>
    </g>
   </g>
   <g id="LineCollection_2">
    <path d="M 378.888688 191.998925 
L 417.31844 191.998925 
" clip-path="url(#ped4aade4f6)" style="fill: none; stroke: #222222; stroke-width: 1.5"/>
    <path d="M 532.607696 159.351772 
L 571.037448 159.351772 
" clip-path="url(#ped4aade4f6)" style="fill: none; stroke: #222222; stroke-width: 1.5"/>
   </g>
   <g id="patch_6">
    <path d="M 348.144886 244.078125 
L 348.144886 22.318125 
" style="fill: none; stroke: #000000; stroke-width: 0.8; stroke-linejoin: miter; stroke-linecap: square"/>
   </g>
   <g id="patch_7">
    <path d="M 348.144886 244.078125 
L 601.78125 244.078125 
" style="fill: none; stroke: #000000; stroke-width: 0.8; stroke-linejoin: miter; stroke-linecap: square"/>
   </g>
   <g id="text_23">
    <text style="font-size: 12px; font-family: 'DejaVu Sans', 'Bitstream Vera Sans', 'Computer Modern Sans Serif', 'Lucida Grande', 'Verdana', 'Geneva', 'Lucid', 'Arial', 'Helvetica', 'Avant Garde', sans-serif; text-anchor: middle" x="474.963068" y="16.318125" transform="rotate(-0 474.963068 16.318125)">Ligand RMSD</text>
   </g>
  </g>
 </g>
 <defs>
  <clipPath id="p70c1dbb37d">
   <rect x="43.78125" y="22.318125" width="253.636364" height="221.76"/>
  </clipPath>
  <clipPath id="ped4aade4f6">
   <rect x="348.144886" y="22.318125" width="253.636364" height="221.76"/>
  </clipPath>
 </defs>
</svg>
