<?xml version="1.0" encoding="utf-8" standalone="no"?>
<!DOCTYPE svg PUBLIC "-//W3C//DTD SVG 1.1//EN"
  "http://www.w3.org/Graphics/SVG/1.1/DTD/svg11.dtd">
<svg xmlns:xlink="http://www.w3.org/1999/xlink" width="438.403125pt" height="281.634375pt" viewBox="0 0 438.403125 281.634375" xmlns="http://www.w3.org/2000/svg" version="1.1">
 <metadata>
  <rdf:RDF xmlns:dc="http://purl.org/dc/elements/1.1/" xmlns:cc="http://creativecommons.org/ns#" xmlns:rdf="http://www.w3.org/1999/02/22-rdf-syntax-ns#">
   <cc:Work>
    <dc:type rdf:resource="http://purl.org/dc/dcmitype/StillImage"/>
    <dc:date>2026-05-18T19:50:23.671531</dc:date>
    <dc:format>image/svg+xml</dc:format>
    <dc:creator>
     <cc:Agent>
      <dc:title>Matplotlib v3.10.9, https://matplotlib.org/</dc:title>
     </cc:Agent>
    </dc:creator>
   </cc:Work>
  </rdf:RDF>
 </metadata>
 <defs>
  <style type="text/css">*{stroke-linejoin: round; stroke-linecap: butt}</style>
 </defs>
 <g id="figure_1">
  <g id="patch_1">
   <path d="M 0 281.634375 
L 438.403125 281.634375 
L 438.403125 0 
L 0 0 
z
" style="fill: #ffffff"/>
  </g>
  <g id="axes_1">
   <g id="patch_2">
    <path d="M 40.603125 244.078125 
L 431.203125 244.078125 
L 431.203125 22.318125 
L 40.603125 22.318125 
z
" style="fill: #ffffff"/>
   </g>
   <g id="matplotlib.axis_1">
    <g id="xtick_1">
     <g id="line2d_1">
      <path d="M 58.35767 244.078125 
L 58.35767 22.318125 
" clip-path="url(#pb612585bee)" style="fill: none; stroke: #b0b0b0; stroke-opacity: 0.25; stroke-width: 0.8; stroke-linecap: square"/>
     </g>
     <g id="line2d_2">
      <defs>
       <path id="mfb119ecbdb" d="M 0 0 
L 0 3.5 
" style="stroke: #000000; stroke-width: 0.8"/>
      </defs>
      <g>
       <use xlink:href="#mfb119ecbdb" x="58.35767" y="244.078125" style="stroke: #000000; stroke-width: 0.8"/>
      </g>
     </g>
     <g id="text_1">
      <text style="font-size: 10px; font-family: 'DejaVu Sans', 'Bitstream Vera Sans', 'Computer Modern Sans Serif', 'Lucida Grande', 'Verdana', 'Geneva', 'Lucid', 'Arial', 'Helvetica', 'Avant Garde', sans-serif; text-anchor: middle" x="58.35767" y="258.676562" transform="rotate(-0 58.35767 258.676562)">0</text>
     </g>
    </g>
    <g id="xtick_2">
     <g id="line2d_3">
      <path d="M 129.732728 244.078125 
L 129.732728 22.318125 
" clip-path="url(#pb612585bee)" style="fill: none; stroke: #b0b0b0; stroke-opacity: 0.25; stroke-width: 0.8; stroke-linecap: square"/>
     </g>
     <g id="line2d_4">
      <g>
       <use xlink:href="#mfb119ecbdb" x="129.732728" y="244.078125" style="stroke: #000000; stroke-width: 0.8"/>
      </g>
     </g>
     <g id="text_2">
      <text style="font-size: 10px; font-family: 'DejaVu Sans', 'Bitstream Vera Sans', 'Computer Modern Sans Serif', 'Lucida Grande', 'Verdana', 'Geneva', 'Lucid', 'Arial', 'Helvetica', 'Avant Garde', sans-serif; text-anchor: middle" x="129.732728" y="258.676562" transform="rotate(-0 129.732728 258.676562)">20</text>
     </g>
    </g>
    <g id="xtick_3">
     <g id="line2d_5">
      <path d="M 201.107785 244.078125 
L 201.107785 22.318125 
" clip-path="url(#pb612585bee)" style="fill: none; stroke: #b0b0b0; stroke-opacity: 0.25; stroke-width: 0.8; stroke-linecap: square"/>
     </g>
     <g id="line2d_6">
      <g>
       <use xlink:href="#mfb119ecbdb" x="201.107785" y="244.078125" style="stroke: #000000; stroke-width: 0.8"/>
      </g>
     </g>
     <g id="text_3">
      <text style="font-size: 10px; font-family: 'DejaVu Sans', 'Bitstream Vera Sans', 'Computer Modern Sans Serif', 'Lucida Grande', 'Verdana', 'Geneva', 'Lucid', 'Arial', 'Helvetica', 'Avant Garde', sans-serif; text-anchor: middle" x="201.107785" y="258.676562" transform="rotate(-0 201.107785 258.676562)">40</text>
     </g>
    </g>
    <g id="xtick_4">
     <g id="line2d_7">
      <path d="M 272.482842 244.078125 
L 272.482842 22.318125 
" clip-path="url(#pb612585bee)" style="fill: none; stroke: #b0b0b0; stroke-opacity: 0.25; stroke-width: 0.8; stroke-linecap: square"/>
     </g>
     <g id="line2d_8">
      <g>
       <use xlink:href="#mfb119ecbdb" x="272.482842" y="244.078125" style="stroke: #000000; stroke-width: 0.8"/>
      </g>
     </g>
     <g id="text_4">
      <text style="font-size: 10px; font-family: 'DejaVu Sans', 'Bitstream Vera Sans', 'Computer Modern Sans Serif', 'Lucida Grande', 'Verdana', 'Geneva', 'Lucid', 'Arial', 'Helvetica', 'Avant Garde', sans-serif; text-anchor: middle" x="272.482842" y="258.676562" transform="rotate(-0 272.482842 258.676562)">60</text>
     </g>
    </g>
    <g id="xtick_5">
     <g id="line2d_9">
      <path d="M 343.857899 244.078125 
L 343.857899 22.318125 
" clip-path="url(#pb612585bee)" style="fill: none; stroke: #b0b0b0; stroke-opacity: 0.25; stroke-width: 0.8; stroke-linecap: square"/>
     </g>
     <g id="line2d_10">
      <g>
       <use xlink:href="#mfb119ecbdb" x="343.857899" y="244.078125" style="stroke: #000000; stroke-width: 0.8"/>
      </g>
     </g>
     <g id="text_5">
      <text style="font-size: 10px; font-family: 'DejaVu Sans', 'Bitstream Vera Sans', 'Computer Modern Sans Serif', 'Lucida Grande', 'Verdana', 'Geneva', 'Lucid', 'Arial', 'Helvetica', 'Avant Garde', sans-serif; text-anchor: middle" x="343.857899" y="258.676562" transform="rotate(-0 343.857899 258.676562)">80</text>
     </g>
    </g>
    <g id="xtick_6">
     <g id="line2d_11">
      <path d="M 415.232956 244.078125 
L 415.232956 22.318125 
" clip-path="url(#pb612585bee)" style="fill: none; stroke: #b0b0b0; stroke-opacity: 0.25; stroke-width: 0.8; stroke-linecap: square"/>
     </g>
     <g id="line2d_12">
      <g>
       <use xlink:href="#mfb119ecbdb" x="415.232956" y="244.078125" style="stroke: #000000; stroke-width: 0.8"/>
      </g>
     </g>
     <g id="text_6">
      <text style="font-size: 10px; font-family: 'DejaVu Sans', 'Bitstream Vera Sans', 'Computer Modern Sans Serif', 'Lucida Grande', 'Verdana', 'Geneva', 'Lucid', 'Arial', 'Helvetica', 'Avant Garde', sans-serif; text-anchor: middle" x="415.232956" y="258.676562" transform="rotate(-0 415.232956 258.676562)">100</text>
     </g>
    </g>
    <g id="text_7">
     <text style="font-size: 10px; font-family: 'DejaVu Sans', 'Bitstream Vera Sans', 'Computer Modern Sans Serif', 'Lucida Grande', 'Verdana', 'Geneva', 'Lucid', 'Arial', 'Helvetica', 'Avant Garde', sans-serif; text-anchor: middle" x="235.903125" y="272.354687" transform="rotate(-0 235.903125 272.354687)">Time (ns)</text>
    </g>
   </g>
   <g id="matplotlib.axis_2">
    <g id="ytick_1">
     <g id="line2d_13">
      <path d="M 40.603125 233.998125 
L 431.203125 233.998125 
" clip-path="url(#pb612585bee)" style="fill: none; stroke: #b0b0b0; stroke-opacity: 0.25; stroke-width: 0.8; stroke-linecap: square"/>
     </g>
     <g id="line2d_14">
      <defs>
       <path id="mfcfa909055" d="M 0 0 
L -3.5 0 
" style="stroke: #000000; stroke-width: 0.8"/>
      </defs>
      <g>
       <use xlink:href="#mfcfa909055" x="40.603125" y="233.998125" style="stroke: #000000; stroke-width: 0.8"/>
      </g>
     </g>
     <g id="text_8">
      <text style="font-size: 10px; font-family: 'DejaVu Sans', 'Bitstream Vera Sans', 'Computer Modern Sans Serif', 'Lucida Grande', 'Verdana', 'Geneva', 'Lucid', 'Arial', 'Helvetica', 'Avant Garde', sans-serif; text-anchor: end" x="33.603125" y="237.797344" transform="rotate(-0 33.603125 237.797344)">30</text>
     </g>
    </g>
    <g id="ytick_2">
     <g id="line2d_15">
      <path d="M 40.603125 190.172038 
L 431.203125 190.172038 
" clip-path="url(#pb612585bee)" style="fill: none; stroke: #b0b0b0; stroke-opacity: 0.25; stroke-width: 0.8; stroke-linecap: square"/>
     </g>
     <g id="line2d_16">
      <g>
       <use xlink:href="#mfcfa909055" x="40.603125" y="190.172038" style="stroke: #000000; stroke-width: 0.8"/>
      </g>
     </g>
     <g id="text_9">
      <text style="font-size: 10px; font-family: 'DejaVu Sans', 'Bitstream Vera Sans', 'Computer Modern Sans Serif', 'Lucida Grande', 'Verdana', 'Geneva', 'Lucid', 'Arial', 'Helvetica', 'Avant Garde', sans-serif; text-anchor: end" x="33.603125" y="193.971257" transform="rotate(-0 33.603125 193.971257)">35</text>
     </g>
    </g>
    <g id="ytick_3">
     <g id="line2d_17">
      <path d="M 40.603125 146.345951 
L 431.203125 146.345951 
" clip-path="url(#pb612585bee)" style="fill: none; stroke: #b0b0b0; stroke-opacity: 0.25; stroke-width: 0.8; stroke-linecap: square"/>
     </g>
     <g id="line2d_18">
      <g>
       <use xlink:href="#mfcfa909055" x="40.603125" y="146.345951" style="stroke: #000000; stroke-width: 0.8"/>
      </g>
     </g>
     <g id="text_10">
      <text style="font-size: 10px; font-family: 'DejaVu Sans', 'Bitstream Vera Sans', 'Computer Modern Sans Serif', 'Lucida Grande', 'Verdana', 'Geneva', 'Lucid', 'Arial', 'Helvetica', 'Avant Garde', sans-serif; text-anchor: end" x="33.603125" y="150.14517" transform="rotate(-0 33.603125 150.14517)">40</text>
     </g>
    </g>
    <g id="ytick_4">
     <g id="line2d_19">
      <path d="M 40.603125 102.519864 
L 431.203125 102.519864 
" clip-path="url(#pb612585bee)" style="fill: none; stroke: #b0b0b0; stroke-opacity: 0.25; stroke-width: 0.8; stroke-linecap: square"/>
     </g>
     <g id="line2d_20">
      <g>
       <use xlink:href="#mfcfa909055" x="40.603125" y="102.519864" style="stroke: #000000; stroke-width: 0.8"/>
      </g>
     </g>
     <g id="text_11">
      <text style="font-size: 10px; font-family: 'DejaVu Sans', 'Bitstream Vera Sans', 'Computer Modern Sans Serif', 'Lucida Grande', 'Verdana', 'Geneva', 'Lucid', 'Arial', 'Helvetica', 'Avant Garde', sans-serif; text-anchor: end" x="33.603125" y="106.319083" transform="rotate(-0 33.603125 106.319083)">45</text>
     </g>
    </g>
    <g id="ytick_5">
     <g id="line2d_21">
      <path d="M 40.603125 58.693777 
L 431.203125 58.693777 
" clip-path="url(#pb612585bee)" style="fill: none; stroke: #b0b0b0; stroke-opacity: 0.25; stroke-width: 0.8; stroke-linecap: square"/>
     </g>
     <g id="line2d_22">
      <g>
       <use xlink:href="#mfcfa909055" x="40.603125" y="58.693777" style="stroke: #000000; stroke-width: 0.8"/>
      </g>
     </g>
     <g id="text_12">
      <text style="font-size: 10px; font-family: 'DejaVu Sans', 'Bitstream Vera Sans', 'Computer Modern Sans Serif', 'Lucida Grande', 'Verdana', 'Geneva', 'Lucid', 'Arial', 'Helvetica', 'Avant Garde', sans-serif; text-anchor: end" x="33.603125" y="62.492996" transform="rotate(-0 33.603125 62.492996)">50</text>
     </g>
    </g>
    <g id="text_13">
     <text style="font-size: 10px; font-family: 'DejaVu Sans', 'Bitstream Vera Sans', 'Computer Modern Sans Serif', 'Lucida Grande', 'Verdana', 'Geneva', 'Lucid', 'Arial', 'Helvetica', 'Avant Garde', sans-serif; text-anchor: middle" x="14.798438" y="133.198125" transform="rotate(-90 14.798438 133.198125)">Protein atoms within 4 A of ligand</text>
    </g>
   </g>
   <g id="line2d_23">
    <path d="M 58.35767 111.285082 
L 60.142047 67.458995 
L 61.926423 111.285082 
L 63.7108 128.815516 
L 65.495176 111.285082 
L 67.279553 49.92856 
L 69.063929 84.989429 
L 70.848305 58.693777 
L 72.632682 128.815516 
L 74.417058 120.050299 
L 76.201435 102.519864 
L 77.985811 181.406821 
L 79.770188 111.285082 
L 81.554564 233.998125 
L 83.33894 93.754647 
L 85.123317 198.937255 
L 86.907693 190.172038 
L 88.69207 102.519864 
L 90.476446 163.876386 
L 92.260823 198.937255 
L 94.045199 120.050299 
L 95.829575 163.876386 
L 97.613952 111.285082 
L 99.398328 207.702473 
L 101.182705 155.111168 
L 102.967081 163.876386 
L 104.751458 93.754647 
L 106.535834 76.224212 
L 108.32021 198.937255 
L 110.104587 76.224212 
L 111.888963 128.815516 
L 113.67334 120.050299 
L 115.457716 102.519864 
L 117.242093 76.224212 
L 120.810845 111.285082 
L 122.595222 102.519864 
L 124.379598 172.641603 
L 126.163975 102.519864 
L 129.732728 172.641603 
L 131.517104 93.754647 
L 133.30148 76.224212 
L 135.085857 181.406821 
L 136.870233 102.519864 
L 138.65461 163.876386 
L 140.438986 163.876386 
L 142.223363 93.754647 
L 144.007739 93.754647 
L 145.792115 146.345951 
L 147.576492 137.580734 
L 149.360868 102.519864 
L 152.929621 84.989429 
L 154.713998 84.989429 
L 156.498374 120.050299 
L 158.28275 163.876386 
L 160.067127 102.519864 
L 161.851503 128.815516 
L 163.63588 163.876386 
L 165.420256 128.815516 
L 167.204633 137.580734 
L 168.989009 163.876386 
L 170.773385 137.580734 
L 172.557762 155.111168 
L 174.342138 137.580734 
L 176.126515 76.224212 
L 177.910891 111.285082 
L 179.695268 128.815516 
L 181.479644 102.519864 
L 183.26402 172.641603 
L 185.048397 146.345951 
L 186.832773 111.285082 
L 190.401526 93.754647 
L 192.185903 155.111168 
L 193.970279 120.050299 
L 195.754655 120.050299 
L 197.539032 146.345951 
L 199.323408 146.345951 
L 201.107785 111.285082 
L 202.892161 172.641603 
L 204.676538 76.224212 
L 206.460914 102.519864 
L 208.24529 146.345951 
L 210.029667 49.92856 
L 211.814043 76.224212 
L 213.59842 163.876386 
L 215.382796 111.285082 
L 217.167173 128.815516 
L 218.951549 120.050299 
L 220.735925 146.345951 
L 222.520302 155.111168 
L 226.089055 137.580734 
L 227.873431 102.519864 
L 229.657808 137.580734 
L 231.442184 67.458995 
L 233.22656 146.345951 
L 235.010937 102.519864 
L 236.795313 128.815516 
L 238.57969 120.050299 
L 240.364066 128.815516 
L 242.148442 120.050299 
L 243.932819 137.580734 
L 245.717195 137.580734 
L 247.501572 172.641603 
L 249.285948 155.111168 
L 251.070325 58.693777 
L 252.854701 93.754647 
L 254.639077 137.580734 
L 256.423454 67.458995 
L 258.20783 146.345951 
L 259.992207 102.519864 
L 261.776583 172.641603 
L 263.56096 111.285082 
L 265.345336 146.345951 
L 267.129712 76.224212 
L 268.914089 155.111168 
L 270.698465 198.937255 
L 272.482842 163.876386 
L 274.267218 163.876386 
L 276.051595 137.580734 
L 277.835971 120.050299 
L 279.620347 84.989429 
L 281.404724 111.285082 
L 283.1891 128.815516 
L 286.757853 111.285082 
L 288.54223 93.754647 
L 290.326606 102.519864 
L 292.110982 93.754647 
L 293.895359 163.876386 
L 295.679735 102.519864 
L 297.464112 137.580734 
L 299.248488 41.163342 
L 301.032865 172.641603 
L 302.817241 216.46769 
L 304.601617 120.050299 
L 306.385994 137.580734 
L 308.17037 163.876386 
L 309.954747 111.285082 
L 311.739123 146.345951 
L 313.5235 93.754647 
L 315.307876 172.641603 
L 317.092252 120.050299 
L 318.876629 84.989429 
L 320.661005 102.519864 
L 322.445382 216.46769 
L 324.229758 146.345951 
L 327.798511 181.406821 
L 333.15164 181.406821 
L 334.936017 102.519864 
L 336.720393 163.876386 
L 338.50477 155.111168 
L 340.289146 76.224212 
L 342.073522 120.050299 
L 343.857899 128.815516 
L 345.642275 93.754647 
L 347.426652 84.989429 
L 349.211028 146.345951 
L 350.995405 93.754647 
L 352.779781 93.754647 
L 354.564157 163.876386 
L 356.348534 102.519864 
L 358.13291 58.693777 
L 359.917287 120.050299 
L 361.701663 155.111168 
L 363.48604 128.815516 
L 365.270416 120.050299 
L 367.054792 146.345951 
L 368.839169 146.345951 
L 370.623545 128.815516 
L 372.407922 93.754647 
L 374.192298 137.580734 
L 375.976675 84.989429 
L 379.545427 155.111168 
L 381.329804 137.580734 
L 383.11418 111.285082 
L 384.898557 111.285082 
L 386.682933 172.641603 
L 388.46731 137.580734 
L 390.251686 128.815516 
L 393.820439 146.345951 
L 395.604815 102.519864 
L 397.389192 155.111168 
L 400.957945 102.519864 
L 402.742321 172.641603 
L 404.526697 93.754647 
L 406.311074 102.519864 
L 409.879827 172.641603 
L 411.664203 84.989429 
L 413.44858 111.285082 
L 413.44858 111.285082 
" clip-path="url(#pb612585bee)" style="fill: none; stroke: #1f77b4; stroke-opacity: 0.85; stroke-width: 0.9; stroke-linecap: square"/>
   </g>
   <g id="line2d_24">
    <path d="M 58.35767 172.641603 
L 60.142047 137.580734 
L 61.926423 181.406821 
L 63.7108 137.580734 
L 65.495176 120.050299 
L 67.279553 155.111168 
L 69.063929 137.580734 
L 70.848305 102.519864 
L 72.632682 172.641603 
L 74.417058 172.641603 
L 76.201435 146.345951 
L 77.985811 190.172038 
L 79.770188 120.050299 
L 81.554564 84.989429 
L 83.33894 225.232908 
L 85.123317 181.406821 
L 86.907693 146.345951 
L 88.69207 128.815516 
L 90.476446 190.172038 
L 92.260823 172.641603 
L 94.045199 93.754647 
L 95.829575 155.111168 
L 97.613952 120.050299 
L 99.398328 163.876386 
L 101.182705 128.815516 
L 102.967081 120.050299 
L 104.751458 93.754647 
L 106.535834 181.406821 
L 110.104587 181.406821 
L 111.888963 190.172038 
L 113.67334 190.172038 
L 115.457716 207.702473 
L 117.242093 146.345951 
L 119.026469 146.345951 
L 120.810845 198.937255 
L 122.595222 198.937255 
L 124.379598 120.050299 
L 126.163975 172.641603 
L 127.948351 198.937255 
L 129.732728 207.702473 
L 131.517104 163.876386 
L 133.30148 146.345951 
L 135.085857 190.172038 
L 136.870233 198.937255 
L 138.65461 111.285082 
L 140.438986 190.172038 
L 142.223363 190.172038 
L 144.007739 181.406821 
L 145.792115 216.46769 
L 147.576492 225.232908 
L 149.360868 146.345951 
L 151.145245 181.406821 
L 152.929621 163.876386 
L 154.713998 137.580734 
L 156.498374 163.876386 
L 158.28275 163.876386 
L 160.067127 181.406821 
L 161.851503 181.406821 
L 163.63588 225.232908 
L 165.420256 163.876386 
L 167.204633 155.111168 
L 168.989009 155.111168 
L 170.773385 137.580734 
L 172.557762 225.232908 
L 174.342138 198.937255 
L 176.126515 155.111168 
L 177.910891 225.232908 
L 179.695268 207.702473 
L 181.479644 128.815516 
L 183.26402 137.580734 
L 185.048397 155.111168 
L 186.832773 137.580734 
L 188.61715 146.345951 
L 190.401526 163.876386 
L 192.185903 198.937255 
L 193.970279 198.937255 
L 195.754655 111.285082 
L 197.539032 190.172038 
L 199.323408 198.937255 
L 201.107785 233.998125 
L 202.892161 198.937255 
L 204.676538 181.406821 
L 206.460914 190.172038 
L 208.24529 120.050299 
L 210.029667 146.345951 
L 211.814043 146.345951 
L 213.59842 155.111168 
L 215.382796 137.580734 
L 217.167173 128.815516 
L 218.951549 172.641603 
L 220.735925 155.111168 
L 222.520302 120.050299 
L 224.304678 76.224212 
L 226.089055 128.815516 
L 227.873431 146.345951 
L 229.657808 120.050299 
L 231.442184 137.580734 
L 233.22656 146.345951 
L 235.010937 67.458995 
L 236.795313 137.580734 
L 238.57969 111.285082 
L 240.364066 93.754647 
L 242.148442 84.989429 
L 243.932819 128.815516 
L 245.717195 102.519864 
L 247.501572 155.111168 
L 249.285948 128.815516 
L 252.854701 146.345951 
L 254.639077 163.876386 
L 256.423454 102.519864 
L 258.20783 163.876386 
L 259.992207 137.580734 
L 261.776583 128.815516 
L 263.56096 93.754647 
L 265.345336 207.702473 
L 267.129712 128.815516 
L 268.914089 58.693777 
L 270.698465 190.172038 
L 272.482842 181.406821 
L 274.267218 163.876386 
L 276.051595 128.815516 
L 277.835971 207.702473 
L 279.620347 137.580734 
L 281.404724 155.111168 
L 283.1891 190.172038 
L 284.973477 137.580734 
L 286.757853 146.345951 
L 288.54223 233.998125 
L 290.326606 146.345951 
L 292.110982 137.580734 
L 295.679735 190.172038 
L 297.464112 128.815516 
L 299.248488 120.050299 
L 301.032865 181.406821 
L 302.817241 128.815516 
L 304.601617 163.876386 
L 306.385994 190.172038 
L 308.17037 207.702473 
L 309.954747 155.111168 
L 311.739123 172.641603 
L 313.5235 111.285082 
L 315.307876 155.111168 
L 317.092252 137.580734 
L 318.876629 128.815516 
L 320.661005 155.111168 
L 322.445382 111.285082 
L 324.229758 137.580734 
L 326.014135 120.050299 
L 327.798511 163.876386 
L 329.582887 172.641603 
L 331.367264 84.989429 
L 333.15164 128.815516 
L 334.936017 146.345951 
L 336.720393 207.702473 
L 338.50477 111.285082 
L 340.289146 163.876386 
L 342.073522 163.876386 
L 343.857899 128.815516 
L 345.642275 120.050299 
L 347.426652 172.641603 
L 349.211028 155.111168 
L 350.995405 120.050299 
L 352.779781 137.580734 
L 354.564157 128.815516 
L 356.348534 137.580734 
L 358.13291 102.519864 
L 359.917287 137.580734 
L 361.701663 146.345951 
L 363.48604 137.580734 
L 365.270416 67.458995 
L 367.054792 155.111168 
L 368.839169 163.876386 
L 370.623545 181.406821 
L 372.407922 128.815516 
L 374.192298 120.050299 
L 375.976675 198.937255 
L 377.761051 172.641603 
L 379.545427 120.050299 
L 381.329804 163.876386 
L 383.11418 163.876386 
L 384.898557 190.172038 
L 386.682933 128.815516 
L 388.46731 181.406821 
L 390.251686 84.989429 
L 393.820439 137.580734 
L 395.604815 198.937255 
L 397.389192 84.989429 
L 399.173568 137.580734 
L 400.957945 163.876386 
L 402.742321 93.754647 
L 404.526697 155.111168 
L 406.311074 155.111168 
L 408.09545 137.580734 
L 409.879827 128.815516 
L 411.664203 128.815516 
L 413.44858 93.754647 
L 413.44858 93.754647 
" clip-path="url(#pb612585bee)" style="fill: none; stroke: #ff7f0e; stroke-opacity: 0.85; stroke-width: 0.9; stroke-linecap: square"/>
   </g>
   <g id="line2d_25">
    <path d="M 58.35767 93.754647 
L 60.142047 76.224212 
L 61.926423 67.458995 
L 63.7108 163.876386 
L 65.495176 163.876386 
L 67.279553 58.693777 
L 69.063929 32.398125 
L 70.848305 128.815516 
L 74.417058 111.285082 
L 76.201435 111.285082 
L 77.985811 102.519864 
L 79.770188 102.519864 
L 81.554564 93.754647 
L 83.33894 93.754647 
L 85.123317 76.224212 
L 86.907693 93.754647 
L 88.69207 93.754647 
L 90.476446 58.693777 
L 92.260823 84.989429 
L 94.045199 102.519864 
L 95.829575 49.92856 
L 97.613952 120.050299 
L 99.398328 128.815516 
L 101.182705 128.815516 
L 102.967081 76.224212 
L 104.751458 49.92856 
L 106.535834 49.92856 
L 108.32021 181.406821 
L 110.104587 76.224212 
L 111.888963 111.285082 
L 113.67334 120.050299 
L 115.457716 67.458995 
L 119.026469 120.050299 
L 120.810845 76.224212 
L 122.595222 172.641603 
L 124.379598 76.224212 
L 126.163975 137.580734 
L 127.948351 163.876386 
L 129.732728 84.989429 
L 131.517104 67.458995 
L 133.30148 146.345951 
L 135.085857 146.345951 
L 136.870233 93.754647 
L 138.65461 146.345951 
L 140.438986 84.989429 
L 142.223363 120.050299 
L 144.007739 102.519864 
L 145.792115 111.285082 
L 147.576492 93.754647 
L 149.360868 49.92856 
L 152.929621 84.989429 
L 154.713998 93.754647 
L 156.498374 93.754647 
L 158.28275 76.224212 
L 160.067127 49.92856 
L 161.851503 49.92856 
L 163.63588 58.693777 
L 165.420256 137.580734 
L 167.204633 84.989429 
L 170.773385 67.458995 
L 172.557762 93.754647 
L 174.342138 93.754647 
L 176.126515 67.458995 
L 177.910891 120.050299 
L 179.695268 163.876386 
L 181.479644 111.285082 
L 183.26402 190.172038 
L 185.048397 137.580734 
L 186.832773 41.163342 
L 190.401526 146.345951 
L 192.185903 137.580734 
L 193.970279 207.702473 
L 195.754655 120.050299 
L 197.539032 111.285082 
L 199.323408 84.989429 
L 201.107785 120.050299 
L 202.892161 190.172038 
L 204.676538 120.050299 
L 206.460914 181.406821 
L 210.029667 146.345951 
L 211.814043 146.345951 
L 213.59842 172.641603 
L 215.382796 172.641603 
L 217.167173 146.345951 
L 218.951549 137.580734 
L 220.735925 137.580734 
L 222.520302 146.345951 
L 224.304678 102.519864 
L 226.089055 137.580734 
L 227.873431 181.406821 
L 229.657808 207.702473 
L 231.442184 137.580734 
L 233.22656 181.406821 
L 235.010937 41.163342 
L 238.57969 181.406821 
L 240.364066 155.111168 
L 242.148442 163.876386 
L 243.932819 120.050299 
L 245.717195 102.519864 
L 247.501572 128.815516 
L 249.285948 93.754647 
L 251.070325 93.754647 
L 252.854701 172.641603 
L 254.639077 102.519864 
L 256.423454 84.989429 
L 258.20783 163.876386 
L 259.992207 137.580734 
L 261.776583 93.754647 
L 263.56096 137.580734 
L 265.345336 111.285082 
L 267.129712 128.815516 
L 268.914089 111.285082 
L 270.698465 67.458995 
L 272.482842 111.285082 
L 274.267218 137.580734 
L 276.051595 102.519864 
L 277.835971 163.876386 
L 279.620347 84.989429 
L 281.404724 137.580734 
L 283.1891 120.050299 
L 284.973477 163.876386 
L 286.757853 128.815516 
L 288.54223 128.815516 
L 290.326606 120.050299 
L 292.110982 128.815516 
L 293.895359 155.111168 
L 295.679735 120.050299 
L 297.464112 155.111168 
L 299.248488 76.224212 
L 301.032865 163.876386 
L 302.817241 146.345951 
L 304.601617 111.285082 
L 306.385994 111.285082 
L 308.17037 190.172038 
L 309.954747 128.815516 
L 311.739123 84.989429 
L 313.5235 146.345951 
L 315.307876 137.580734 
L 317.092252 163.876386 
L 318.876629 146.345951 
L 320.661005 146.345951 
L 322.445382 155.111168 
L 324.229758 111.285082 
L 326.014135 111.285082 
L 327.798511 93.754647 
L 329.582887 137.580734 
L 331.367264 146.345951 
L 333.15164 128.815516 
L 334.936017 163.876386 
L 336.720393 120.050299 
L 338.50477 111.285082 
L 340.289146 190.172038 
L 342.073522 102.519864 
L 343.857899 146.345951 
L 345.642275 172.641603 
L 347.426652 128.815516 
L 349.211028 120.050299 
L 350.995405 93.754647 
L 352.779781 146.345951 
L 354.564157 93.754647 
L 356.348534 155.111168 
L 358.13291 120.050299 
L 359.917287 163.876386 
L 361.701663 120.050299 
L 363.48604 137.580734 
L 365.270416 67.458995 
L 367.054792 190.172038 
L 368.839169 155.111168 
L 370.623545 84.989429 
L 372.407922 102.519864 
L 374.192298 137.580734 
L 375.976675 128.815516 
L 377.761051 93.754647 
L 379.545427 155.111168 
L 381.329804 102.519864 
L 383.11418 190.172038 
L 384.898557 172.641603 
L 386.682933 93.754647 
L 388.46731 102.519864 
L 390.251686 84.989429 
L 392.036062 111.285082 
L 395.604815 76.224212 
L 397.389192 93.754647 
L 399.173568 137.580734 
L 400.957945 102.519864 
L 402.742321 76.224212 
L 404.526697 137.580734 
L 406.311074 137.580734 
L 408.09545 102.519864 
L 409.879827 58.693777 
L 411.664203 93.754647 
L 413.44858 84.989429 
L 413.44858 84.989429 
" clip-path="url(#pb612585bee)" style="fill: none; stroke: #2ca02c; stroke-opacity: 0.85; stroke-width: 0.9; stroke-linecap: square"/>
   </g>
   <g id="patch_3">
    <path d="M 40.603125 244.078125 
L 40.603125 22.318125 
" style="fill: none; stroke: #000000; stroke-width: 0.8; stroke-linejoin: miter; stroke-linecap: square"/>
   </g>
   <g id="patch_4">
    <path d="M 40.603125 244.078125 
L 431.203125 244.078125 
" style="fill: none; stroke: #000000; stroke-width: 0.8; stroke-linejoin: miter; stroke-linecap: square"/>
   </g>
   <g id="text_14">
    <text style="font-size: 12px; font-family: 'DejaVu Sans', 'Bitstream Vera Sans', 'Computer Modern Sans Serif', 'Lucida Grande', 'Verdana', 'Geneva', 'Lucid', 'Arial', 'Helvetica', 'Avant Garde', sans-serif; text-anchor: middle" x="235.903125" y="16.318125" transform="rotate(-0 235.903125 16.318125)">MAO-B PBC-corrected Protein atoms within 4 A of ligand</text>
   </g>
   <g id="legend_1">
    <g id="line2d_26">
     <path d="M 352.853125 208.706875 
L 360.853125 208.706875 
L 368.853125 208.706875 
" style="fill: none; stroke: #1f77b4; stroke-opacity: 0.85; stroke-width: 0.9; stroke-linecap: square"/>
    </g>
    <g id="text_15">
     <text style="font-size: 8px; font-family: 'DejaVu Sans', 'Bitstream Vera Sans', 'Computer Modern Sans Serif', 'Lucida Grande', 'Verdana', 'Geneva', 'Lucid', 'Arial', 'Helvetica', 'Avant Garde', sans-serif; text-anchor: start" x="375.253125" y="211.506875" transform="rotate(-0 375.253125 211.506875)">rep1_rerun2</text>
    </g>
    <g id="line2d_27">
     <path d="M 352.853125 220.671875 
L 360.853125 220.671875 
L 368.853125 220.671875 
" style="fill: none; stroke: #ff7f0e; stroke-opacity: 0.85; stroke-width: 0.9; stroke-linecap: square"/>
    </g>
    <g id="text_16">
     <text style="font-size: 8px; font-family: 'DejaVu Sans', 'Bitstream Vera Sans', 'Computer Modern Sans Serif', 'Lucida Grande', 'Verdana', 'Geneva', 'Lucid', 'Arial', 'Helvetica', 'Avant Garde', sans-serif; text-anchor: start" x="375.253125" y="223.471875" transform="rotate(-0 375.253125 223.471875)">rep2</text>
    </g>
    <g id="line2d_28">
     <path d="M 352.853125 232.414375 
L 360.853125 232.414375 
L 368.853125 232.414375 
" style="fill: none; stroke: #2ca02c; stroke-opacity: 0.85; stroke-width: 0.9; stroke-linecap: square"/>
    </g>
    <g id="text_17">
     <text style="font-size: 8px; font-family: 'DejaVu Sans', 'Bitstream Vera Sans', 'Computer Modern Sans Serif', 'Lucida Grande', 'Verdana', 'Geneva', 'Lucid', 'Arial', 'Helvetica', 'Avant Garde', sans-serif; text-anchor: start" x="375.253125" y="235.214375" transform="rotate(-0 375.253125 235.214375)">rep3</text>
    </g>
   </g>
  </g>
 </g>
 <defs>
  <clipPath id="pb612585bee">
   <rect x="40.603125" y="22.318125" width="390.6" height="221.76"/>
  </clipPath>
 </defs>
</svg>
