<?xml version="1.0" encoding="utf-8" standalone="no"?>
<!DOCTYPE svg PUBLIC "-//W3C//DTD SVG 1.1//EN"
  "http://www.w3.org/Graphics/SVG/1.1/DTD/svg11.dtd">
<svg xmlns:xlink="http://www.w3.org/1999/xlink" width="441.58125pt" height="281.634375pt" viewBox="0 0 441.58125 281.634375" xmlns="http://www.w3.org/2000/svg" version="1.1">
 <metadata>
  <rdf:RDF xmlns:dc="http://purl.org/dc/elements/1.1/" xmlns:cc="http://creativecommons.org/ns#" xmlns:rdf="http://www.w3.org/1999/02/22-rdf-syntax-ns#">
   <cc:Work>
    <dc:type rdf:resource="http://purl.org/dc/dcmitype/StillImage"/>
    <dc:date>2026-05-18T19:50:24.185577</dc:date>
    <dc:format>image/svg+xml</dc:format>
    <dc:creator>
     <cc:Agent>
      <dc:title>Matplotlib v3.10.9, https://matplotlib.org/</dc:title>
     </cc:Agent>
    </dc:creator>
   </cc:Work>
  </rdf:RDF>
 </metadata>
 <defs>
  <style type="text/css">*{stroke-linejoin: round; stroke-linecap: butt}</style>
 </defs>
 <g id="figure_1">
  <g id="patch_1">
   <path d="M 0 281.634375 
L 441.58125 281.634375 
L 441.58125 0 
L 0 0 
z
" style="fill: #ffffff"/>
  </g>
  <g id="axes_1">
   <g id="patch_2">
    <path d="M 43.78125 244.078125 
L 434.38125 244.078125 
L 434.38125 22.318125 
L 43.78125 22.318125 
z
" style="fill: #ffffff"/>
   </g>
   <g id="matplotlib.axis_1">
    <g id="xtick_1">
     <g id="line2d_1">
      <path d="M 61.535795 244.078125 
L 61.535795 22.318125 
" clip-path="url(#pf259c10df6)" style="fill: none; stroke: #b0b0b0; stroke-opacity: 0.25; stroke-width: 0.8; stroke-linecap: square"/>
     </g>
     <g id="line2d_2">
      <defs>
       <path id="mfa06624b19" d="M 0 0 
L 0 3.5 
" style="stroke: #000000; stroke-width: 0.8"/>
      </defs>
      <g>
       <use xlink:href="#mfa06624b19" x="61.535795" y="244.078125" style="stroke: #000000; stroke-width: 0.8"/>
      </g>
     </g>
     <g id="text_1">
      <text style="font-size: 10px; font-family: 'DejaVu Sans', 'Bitstream Vera Sans', 'Computer Modern Sans Serif', 'Lucida Grande', 'Verdana', 'Geneva', 'Lucid', 'Arial', 'Helvetica', 'Avant Garde', sans-serif; text-anchor: middle" x="61.535795" y="258.676562" transform="rotate(-0 61.535795 258.676562)">0</text>
     </g>
    </g>
    <g id="xtick_2">
     <g id="line2d_3">
      <path d="M 132.910853 244.078125 
L 132.910853 22.318125 
" clip-path="url(#pf259c10df6)" style="fill: none; stroke: #b0b0b0; stroke-opacity: 0.25; stroke-width: 0.8; stroke-linecap: square"/>
     </g>
     <g id="line2d_4">
      <g>
       <use xlink:href="#mfa06624b19" x="132.910853" y="244.078125" style="stroke: #000000; stroke-width: 0.8"/>
      </g>
     </g>
     <g id="text_2">
      <text style="font-size: 10px; font-family: 'DejaVu Sans', 'Bitstream Vera Sans', 'Computer Modern Sans Serif', 'Lucida Grande', 'Verdana', 'Geneva', 'Lucid', 'Arial', 'Helvetica', 'Avant Garde', sans-serif; text-anchor: middle" x="132.910853" y="258.676562" transform="rotate(-0 132.910853 258.676562)">20</text>
     </g>
    </g>
    <g id="xtick_3">
     <g id="line2d_5">
      <path d="M 204.28591 244.078125 
L 204.28591 22.318125 
" clip-path="url(#pf259c10df6)" style="fill: none; stroke: #b0b0b0; stroke-opacity: 0.25; stroke-width: 0.8; stroke-linecap: square"/>
     </g>
     <g id="line2d_6">
      <g>
       <use xlink:href="#mfa06624b19" x="204.28591" y="244.078125" style="stroke: #000000; stroke-width: 0.8"/>
      </g>
     </g>
     <g id="text_3">
      <text style="font-size: 10px; font-family: 'DejaVu Sans', 'Bitstream Vera Sans', 'Computer Modern Sans Serif', 'Lucida Grande', 'Verdana', 'Geneva', 'Lucid', 'Arial', 'Helvetica', 'Avant Garde', sans-serif; text-anchor: middle" x="204.28591" y="258.676562" transform="rotate(-0 204.28591 258.676562)">40</text>
     </g>
    </g>
    <g id="xtick_4">
     <g id="line2d_7">
      <path d="M 275.660967 244.078125 
L 275.660967 22.318125 
" clip-path="url(#pf259c10df6)" style="fill: none; stroke: #b0b0b0; stroke-opacity: 0.25; stroke-width: 0.8; stroke-linecap: square"/>
     </g>
     <g id="line2d_8">
      <g>
       <use xlink:href="#mfa06624b19" x="275.660967" y="244.078125" style="stroke: #000000; stroke-width: 0.8"/>
      </g>
     </g>
     <g id="text_4">
      <text style="font-size: 10px; font-family: 'DejaVu Sans', 'Bitstream Vera Sans', 'Computer Modern Sans Serif', 'Lucida Grande', 'Verdana', 'Geneva', 'Lucid', 'Arial', 'Helvetica', 'Avant Garde', sans-serif; text-anchor: middle" x="275.660967" y="258.676562" transform="rotate(-0 275.660967 258.676562)">60</text>
     </g>
    </g>
    <g id="xtick_5">
     <g id="line2d_9">
      <path d="M 347.036024 244.078125 
L 347.036024 22.318125 
" clip-path="url(#pf259c10df6)" style="fill: none; stroke: #b0b0b0; stroke-opacity: 0.25; stroke-width: 0.8; stroke-linecap: square"/>
     </g>
     <g id="line2d_10">
      <g>
       <use xlink:href="#mfa06624b19" x="347.036024" y="244.078125" style="stroke: #000000; stroke-width: 0.8"/>
      </g>
     </g>
     <g id="text_5">
      <text style="font-size: 10px; font-family: 'DejaVu Sans', 'Bitstream Vera Sans', 'Computer Modern Sans Serif', 'Lucida Grande', 'Verdana', 'Geneva', 'Lucid', 'Arial', 'Helvetica', 'Avant Garde', sans-serif; text-anchor: middle" x="347.036024" y="258.676562" transform="rotate(-0 347.036024 258.676562)">80</text>
     </g>
    </g>
    <g id="xtick_6">
     <g id="line2d_11">
      <path d="M 418.411081 244.078125 
L 418.411081 22.318125 
" clip-path="url(#pf259c10df6)" style="fill: none; stroke: #b0b0b0; stroke-opacity: 0.25; stroke-width: 0.8; stroke-linecap: square"/>
     </g>
     <g id="line2d_12">
      <g>
       <use xlink:href="#mfa06624b19" x="418.411081" y="244.078125" style="stroke: #000000; stroke-width: 0.8"/>
      </g>
     </g>
     <g id="text_6">
      <text style="font-size: 10px; font-family: 'DejaVu Sans', 'Bitstream Vera Sans', 'Computer Modern Sans Serif', 'Lucida Grande', 'Verdana', 'Geneva', 'Lucid', 'Arial', 'Helvetica', 'Avant Garde', sans-serif; text-anchor: middle" x="418.411081" y="258.676562" transform="rotate(-0 418.411081 258.676562)">100</text>
     </g>
    </g>
    <g id="text_7">
     <text style="font-size: 10px; font-family: 'DejaVu Sans', 'Bitstream Vera Sans', 'Computer Modern Sans Serif', 'Lucida Grande', 'Verdana', 'Geneva', 'Lucid', 'Arial', 'Helvetica', 'Avant Garde', sans-serif; text-anchor: middle" x="239.08125" y="272.354687" transform="rotate(-0 239.08125 272.354687)">Time (ns)</text>
    </g>
   </g>
   <g id="matplotlib.axis_2">
    <g id="ytick_1">
     <g id="line2d_13">
      <path d="M 43.78125 234.00268 
L 434.38125 234.00268 
" clip-path="url(#pf259c10df6)" style="fill: none; stroke: #b0b0b0; stroke-opacity: 0.25; stroke-width: 0.8; stroke-linecap: square"/>
     </g>
     <g id="line2d_14">
      <defs>
       <path id="m4dc95fd123" d="M 0 0 
L -3.5 0 
" style="stroke: #000000; stroke-width: 0.8"/>
      </defs>
      <g>
       <use xlink:href="#m4dc95fd123" x="43.78125" y="234.00268" style="stroke: #000000; stroke-width: 0.8"/>
      </g>
     </g>
     <g id="text_8">
      <text style="font-size: 10px; font-family: 'DejaVu Sans', 'Bitstream Vera Sans', 'Computer Modern Sans Serif', 'Lucida Grande', 'Verdana', 'Geneva', 'Lucid', 'Arial', 'Helvetica', 'Avant Garde', sans-serif; text-anchor: end" x="36.78125" y="237.801899" transform="rotate(-0 36.78125 237.801899)">0.0</text>
     </g>
    </g>
    <g id="ytick_2">
     <g id="line2d_15">
      <path d="M 43.78125 189.441352 
L 434.38125 189.441352 
" clip-path="url(#pf259c10df6)" style="fill: none; stroke: #b0b0b0; stroke-opacity: 0.25; stroke-width: 0.8; stroke-linecap: square"/>
     </g>
     <g id="line2d_16">
      <g>
       <use xlink:href="#m4dc95fd123" x="43.78125" y="189.441352" style="stroke: #000000; stroke-width: 0.8"/>
      </g>
     </g>
     <g id="text_9">
      <text style="font-size: 10px; font-family: 'DejaVu Sans', 'Bitstream Vera Sans', 'Computer Modern Sans Serif', 'Lucida Grande', 'Verdana', 'Geneva', 'Lucid', 'Arial', 'Helvetica', 'Avant Garde', sans-serif; text-anchor: end" x="36.78125" y="193.240571" transform="rotate(-0 36.78125 193.240571)">0.1</text>
     </g>
    </g>
    <g id="ytick_3">
     <g id="line2d_17">
      <path d="M 43.78125 144.880025 
L 434.38125 144.880025 
" clip-path="url(#pf259c10df6)" style="fill: none; stroke: #b0b0b0; stroke-opacity: 0.25; stroke-width: 0.8; stroke-linecap: square"/>
     </g>
     <g id="line2d_18">
      <g>
       <use xlink:href="#m4dc95fd123" x="43.78125" y="144.880025" style="stroke: #000000; stroke-width: 0.8"/>
      </g>
     </g>
     <g id="text_10">
      <text style="font-size: 10px; font-family: 'DejaVu Sans', 'Bitstream Vera Sans', 'Computer Modern Sans Serif', 'Lucida Grande', 'Verdana', 'Geneva', 'Lucid', 'Arial', 'Helvetica', 'Avant Garde', sans-serif; text-anchor: end" x="36.78125" y="148.679243" transform="rotate(-0 36.78125 148.679243)">0.2</text>
     </g>
    </g>
    <g id="ytick_4">
     <g id="line2d_19">
      <path d="M 43.78125 100.318697 
L 434.38125 100.318697 
" clip-path="url(#pf259c10df6)" style="fill: none; stroke: #b0b0b0; stroke-opacity: 0.25; stroke-width: 0.8; stroke-linecap: square"/>
     </g>
     <g id="line2d_20">
      <g>
       <use xlink:href="#m4dc95fd123" x="43.78125" y="100.318697" style="stroke: #000000; stroke-width: 0.8"/>
      </g>
     </g>
     <g id="text_11">
      <text style="font-size: 10px; font-family: 'DejaVu Sans', 'Bitstream Vera Sans', 'Computer Modern Sans Serif', 'Lucida Grande', 'Verdana', 'Geneva', 'Lucid', 'Arial', 'Helvetica', 'Avant Garde', sans-serif; text-anchor: end" x="36.78125" y="104.117916" transform="rotate(-0 36.78125 104.117916)">0.3</text>
     </g>
    </g>
    <g id="ytick_5">
     <g id="line2d_21">
      <path d="M 43.78125 55.757369 
L 434.38125 55.757369 
" clip-path="url(#pf259c10df6)" style="fill: none; stroke: #b0b0b0; stroke-opacity: 0.25; stroke-width: 0.8; stroke-linecap: square"/>
     </g>
     <g id="line2d_22">
      <g>
       <use xlink:href="#m4dc95fd123" x="43.78125" y="55.757369" style="stroke: #000000; stroke-width: 0.8"/>
      </g>
     </g>
     <g id="text_12">
      <text style="font-size: 10px; font-family: 'DejaVu Sans', 'Bitstream Vera Sans', 'Computer Modern Sans Serif', 'Lucida Grande', 'Verdana', 'Geneva', 'Lucid', 'Arial', 'Helvetica', 'Avant Garde', sans-serif; text-anchor: end" x="36.78125" y="59.556588" transform="rotate(-0 36.78125 59.556588)">0.4</text>
     </g>
    </g>
    <g id="text_13">
     <text style="font-size: 10px; font-family: 'DejaVu Sans', 'Bitstream Vera Sans', 'Computer Modern Sans Serif', 'Lucida Grande', 'Verdana', 'Geneva', 'Lucid', 'Arial', 'Helvetica', 'Avant Garde', sans-serif; text-anchor: middle" x="14.798438" y="133.198125" transform="rotate(-90 14.798438 133.198125)">Ligand SASA (nm2)</text>
    </g>
   </g>
   <g id="line2d_23">
    <path d="M 61.535795 183.820251 
L 63.320172 187.015002 
L 65.104548 173.81582 
L 66.888925 189.784874 
L 68.673301 208.561141 
L 70.457678 207.95516 
L 72.242054 199.67422 
L 75.810807 179.38149 
L 77.595183 216.998586 
L 79.37956 202.442427 
L 81.163936 214.653313 
L 82.948313 223.752614 
L 84.732689 179.11234 
L 86.517065 203.313664 
L 88.301442 203.964148 
L 90.085818 197.698063 
L 91.870195 184.97107 
L 95.438948 214.256171 
L 97.223324 193.37075 
L 99.0077 208.749804 
L 100.792077 221.755102 
L 102.576453 223.345333 
L 104.36083 202.842354 
L 106.145206 218.458147 
L 107.929583 218.610427 
L 109.713959 212.301728 
L 111.498335 213.312848 
L 113.282712 210.325255 
L 115.067088 219.786385 
L 116.851465 216.640238 
L 118.635841 195.926336 
L 120.420218 187.273281 
L 122.204594 202.021599 
L 123.98897 219.779036 
L 125.773347 173.887952 
L 127.557723 200.660567 
L 129.3421 207.553852 
L 131.126476 182.323999 
L 132.910853 213.452564 
L 134.695229 178.967965 
L 136.479605 204.380068 
L 138.263982 219.781123 
L 140.048358 216.245916 
L 141.832735 175.027291 
L 143.617111 216.206033 
L 145.401488 208.149721 
L 147.185864 182.718563 
L 148.97024 208.284235 
L 150.754617 174.979076 
L 152.538993 220.542901 
L 154.32337 179.323877 
L 156.107746 219.880313 
L 157.892123 164.029328 
L 159.676499 186.228423 
L 161.460875 217.294756 
L 163.245252 199.971756 
L 165.029628 160.507968 
L 166.814005 181.012025 
L 168.598381 187.61 
L 170.382758 200.211431 
L 172.167134 173.368148 
L 173.95151 208.192051 
L 175.735887 166.528555 
L 177.520263 182.927788 
L 179.30464 183.897037 
L 181.089016 149.778175 
L 182.873393 171.623639 
L 184.657769 196.197848 
L 186.442145 203.475805 
L 188.226522 151.019359 
L 190.010898 193.997334 
L 191.795275 156.947455 
L 193.579651 185.221774 
L 195.364028 145.339528 
L 198.93278 182.674439 
L 200.717157 170.325532 
L 202.501533 172.389025 
L 204.28591 190.922161 
L 206.070286 185.211346 
L 207.854663 165.201474 
L 209.639039 175.301352 
L 211.423415 209.371899 
L 213.207792 195.209215 
L 214.992168 176.786408 
L 216.776545 178.032325 
L 218.560921 173.291195 
L 220.345298 165.563165 
L 222.129674 192.6078 
L 223.91405 209.471143 
L 225.698427 200.665856 
L 227.482803 189.600539 
L 229.26718 188.695928 
L 231.051556 197.747744 
L 232.835933 198.148284 
L 234.620309 195.408729 
L 236.404685 171.846268 
L 238.189062 162.776152 
L 239.973438 188.466866 
L 241.757815 121.015219 
L 243.542191 171.294567 
L 245.326567 192.509471 
L 247.110944 199.596402 
L 248.89532 210.93439 
L 250.679697 186.448373 
L 252.464073 207.308462 
L 254.24845 219.572025 
L 256.032826 203.788545 
L 257.817202 177.291239 
L 259.601579 171.790548 
L 261.385955 172.333586 
L 263.170332 213.581889 
L 264.954708 192.307546 
L 266.739085 198.158466 
L 268.523461 195.649574 
L 270.307837 199.534322 
L 272.092214 198.791159 
L 273.87659 172.511925 
L 275.660967 192.835295 
L 277.445343 175.684121 
L 279.22972 180.127625 
L 281.014096 177.305761 
L 284.582849 199.902004 
L 286.367225 195.203662 
L 288.151602 181.794961 
L 289.935978 195.011594 
L 291.720355 213.64383 
L 293.504731 220.992348 
L 295.289107 187.131418 
L 297.073484 191.674731 
L 298.85786 191.230632 
L 300.642237 190.128439 
L 302.426613 197.446991 
L 304.21099 199.832421 
L 305.995366 197.018378 
L 307.779742 203.189516 
L 309.564119 200.123665 
L 311.348495 194.978258 
L 313.132872 189.398367 
L 314.917248 202.237426 
L 316.701625 200.431805 
L 318.486001 197.735285 
L 320.270377 178.636906 
L 322.054754 204.038398 
L 323.83913 189.432494 
L 325.623507 198.236235 
L 327.407883 181.430019 
L 329.19226 210.320438 
L 330.976636 213.287348 
L 332.761012 206.195365 
L 334.545389 163.254861 
L 336.329765 199.708831 
L 338.114142 181.789014 
L 339.898518 175.842452 
L 341.682895 177.91044 
L 343.467271 204.397239 
L 345.251647 155.302019 
L 347.036024 174.363796 
L 348.8204 212.36136 
L 350.604777 171.578695 
L 352.389153 192.052009 
L 354.17353 193.735258 
L 355.957906 164.145963 
L 357.742282 191.987876 
L 359.526659 195.746789 
L 361.311035 207.171712 
L 363.095412 207.368783 
L 364.879788 175.613669 
L 366.664165 204.036836 
L 368.448541 201.719005 
L 370.232917 201.903075 
L 372.017294 182.283417 
L 373.80167 212.187606 
L 375.586047 205.608906 
L 377.370423 178.34822 
L 379.1548 175.356145 
L 380.939176 181.452353 
L 382.723552 199.305198 
L 384.507929 210.660615 
L 386.292305 198.740499 
L 388.076682 185.947201 
L 389.861058 196.151471 
L 391.645435 207.912678 
L 393.429811 209.96235 
L 395.214187 198.671523 
L 396.998564 214.497749 
L 398.78294 188.443843 
L 400.567317 195.602691 
L 402.351693 194.907539 
L 404.13607 217.091104 
L 405.920446 199.761597 
L 407.704822 203.853636 
L 409.489199 182.502512 
L 411.273575 184.994858 
L 413.057952 210.194637 
L 414.842328 170.491113 
L 416.626705 218.459803 
L 416.626705 218.459803 
" clip-path="url(#pf259c10df6)" style="fill: none; stroke: #1f77b4; stroke-opacity: 0.85; stroke-width: 0.9; stroke-linecap: square"/>
   </g>
   <g id="line2d_24">
    <path d="M 61.535795 227.299323 
L 63.320172 213.739684 
L 65.104548 183.924306 
L 66.888925 194.563882 
L 68.673301 195.321973 
L 70.457678 190.199474 
L 72.242054 225.683302 
L 74.02643 177.167273 
L 75.810807 194.264448 
L 77.595183 206.819299 
L 79.37956 188.63197 
L 81.163936 201.690526 
L 82.948313 183.686827 
L 84.732689 207.537788 
L 86.517065 211.066402 
L 88.301442 224.745849 
L 90.085818 190.225302 
L 91.870195 182.764804 
L 93.654571 200.045821 
L 95.438948 209.919408 
L 97.223324 196.583268 
L 99.0077 192.566066 
L 100.792077 195.60895 
L 102.576453 214.350772 
L 104.36083 225.702297 
L 106.145206 221.921821 
L 107.929583 226.725775 
L 109.713959 220.423074 
L 111.498335 217.658056 
L 113.282712 210.574448 
L 115.067088 227.504989 
L 116.851465 222.290926 
L 118.635841 229.388253 
L 120.420218 200.082141 
L 122.204594 203.958159 
L 123.98897 230.259965 
L 125.773347 222.127123 
L 127.557723 216.764919 
L 129.3421 201.810822 
L 131.126476 176.697437 
L 132.910853 198.097747 
L 134.695229 213.981558 
L 136.479605 232.012548 
L 138.263982 224.889089 
L 140.048358 204.377356 
L 141.832735 195.243291 
L 143.617111 200.769849 
L 145.401488 228.340913 
L 147.185864 207.782661 
L 148.97024 213.429793 
L 150.754617 175.204436 
L 152.538993 205.110392 
L 154.32337 195.69213 
L 156.107746 190.935275 
L 157.892123 198.757001 
L 159.676499 203.287297 
L 161.460875 217.261411 
L 163.245252 208.295296 
L 165.029628 228.686085 
L 166.814005 199.978166 
L 168.598381 218.233863 
L 170.382758 192.968851 
L 172.167134 203.012264 
L 173.95151 198.90191 
L 175.735887 173.959277 
L 177.520263 206.994881 
L 179.30464 229.468924 
L 181.089016 202.743145 
L 182.873393 212.28706 
L 184.657769 213.474995 
L 186.442145 227.628919 
L 188.226522 139.360819 
L 190.010898 126.867757 
L 191.795275 77.511247 
L 193.579651 120.414973 
L 195.364028 50.31828 
L 197.148404 32.398125 
L 198.93278 129.863009 
L 200.717157 161.97912 
L 202.501533 89.926928 
L 204.28591 170.473752 
L 206.070286 139.06421 
L 207.854663 102.076525 
L 209.639039 126.456892 
L 211.423415 192.669662 
L 213.207792 190.517959 
L 214.992168 172.921733 
L 216.776545 147.742827 
L 218.560921 100.516647 
L 220.345298 105.661645 
L 222.129674 141.363445 
L 223.91405 140.392423 
L 225.698427 176.505003 
L 227.482803 174.380158 
L 229.26718 174.691749 
L 231.051556 152.693497 
L 232.835933 166.725783 
L 234.620309 190.764442 
L 236.404685 167.06576 
L 238.189062 149.920624 
L 239.973438 205.836294 
L 241.757815 155.391169 
L 243.542191 205.032187 
L 245.326567 119.904893 
L 247.110944 152.646209 
L 248.89532 168.600995 
L 250.679697 130.748041 
L 252.464073 130.611345 
L 254.24845 150.958586 
L 256.032826 166.114647 
L 257.817202 189.232342 
L 259.601579 178.590994 
L 261.385955 181.428524 
L 263.170332 166.399938 
L 264.954708 165.580508 
L 266.739085 177.861263 
L 268.523461 174.600554 
L 270.307837 199.823487 
L 272.092214 200.284062 
L 273.87659 173.634358 
L 275.660967 189.213265 
L 277.445343 183.416741 
L 279.22972 197.48168 
L 281.014096 194.5514 
L 282.798472 175.062263 
L 284.582849 201.208609 
L 286.367225 193.289733 
L 288.151602 204.34688 
L 289.935978 199.58481 
L 291.720355 212.325475 
L 293.504731 189.580134 
L 295.289107 229.471169 
L 297.073484 223.222735 
L 298.85786 212.027931 
L 300.642237 223.869138 
L 302.426613 230.442571 
L 304.21099 204.506971 
L 305.995366 223.522809 
L 307.779742 219.463402 
L 309.564119 217.447409 
L 311.348495 210.157333 
L 313.132872 215.088767 
L 314.917248 211.649959 
L 316.701625 224.018306 
L 318.486001 212.679667 
L 320.270377 218.392776 
L 322.054754 207.690826 
L 323.83913 198.010616 
L 325.623507 202.667001 
L 327.407883 191.67306 
L 329.19226 212.50084 
L 330.976636 204.129943 
L 332.761012 212.047974 
L 334.545389 218.307203 
L 336.329765 218.811891 
L 338.114142 196.868812 
L 339.898518 209.340013 
L 341.682895 212.242664 
L 343.467271 195.911243 
L 345.251647 213.9155 
L 347.036024 211.400023 
L 348.8204 212.870553 
L 350.604777 218.144202 
L 352.389153 215.139045 
L 354.17353 218.062513 
L 355.957906 198.109762 
L 357.742282 207.350684 
L 359.526659 179.52529 
L 361.311035 204.957293 
L 363.095412 186.218579 
L 364.879788 201.352542 
L 366.664165 198.76098 
L 368.448541 222.798313 
L 370.232917 209.081856 
L 372.017294 210.60398 
L 373.80167 209.342234 
L 375.586047 190.128482 
L 377.370423 219.68921 
L 379.1548 211.422205 
L 380.939176 210.187989 
L 382.723552 221.042155 
L 384.507929 179.101975 
L 386.292305 201.989379 
L 388.076682 216.448663 
L 389.861058 219.781432 
L 391.645435 192.112644 
L 393.429811 215.91161 
L 395.214187 208.260627 
L 396.998564 220.045056 
L 398.78294 212.899012 
L 400.567317 220.570664 
L 402.351693 212.560925 
L 404.13607 210.499089 
L 405.920446 227.107046 
L 407.704822 227.604252 
L 409.489199 203.67224 
L 411.273575 208.047797 
L 413.057952 217.935813 
L 414.842328 167.0007 
L 416.626705 204.376148 
L 416.626705 204.376148 
" clip-path="url(#pf259c10df6)" style="fill: none; stroke: #ff7f0e; stroke-opacity: 0.85; stroke-width: 0.9; stroke-linecap: square"/>
   </g>
   <g id="line2d_25">
    <path d="M 61.535795 186.077641 
L 63.320172 218.97107 
L 65.104548 207.175945 
L 66.888925 200.771311 
L 68.673301 209.500313 
L 70.457678 200.604611 
L 72.242054 189.018902 
L 74.02643 206.45915 
L 75.810807 232.000389 
L 77.595183 202.061379 
L 79.37956 189.6408 
L 81.163936 232.776297 
L 82.948313 199.382936 
L 84.732689 202.712867 
L 86.517065 222.203742 
L 88.301442 212.509227 
L 90.085818 199.072386 
L 91.870195 220.269812 
L 93.654571 195.112247 
L 95.438948 211.90008 
L 97.223324 221.06958 
L 99.0077 201.108656 
L 100.792077 188.323612 
L 102.576453 182.786132 
L 104.36083 209.703261 
L 106.145206 227.299323 
L 107.929583 228.476337 
L 109.713959 192.989018 
L 111.498335 199.194481 
L 113.282712 198.888675 
L 115.067088 225.291234 
L 116.851465 189.507263 
L 118.635841 207.662896 
L 120.420218 209.320146 
L 122.204594 200.013458 
L 123.98897 212.201933 
L 125.773347 173.29931 
L 127.557723 216.391392 
L 129.3421 204.807498 
L 131.126476 205.378711 
L 132.910853 224.907361 
L 134.695229 197.446987 
L 136.479605 213.859424 
L 138.263982 155.121831 
L 140.048358 205.333366 
L 141.832735 189.252203 
L 143.617111 186.103749 
L 145.401488 202.247169 
L 147.185864 206.37231 
L 148.97024 212.186487 
L 150.754617 219.869166 
L 152.538993 208.711007 
L 154.32337 212.436927 
L 156.107746 224.352467 
L 157.892123 178.983999 
L 159.676499 211.662203 
L 161.460875 215.034922 
L 163.245252 223.105745 
L 165.029628 198.773136 
L 166.814005 225.913413 
L 168.598381 200.664016 
L 170.382758 215.957089 
L 172.167134 200.404549 
L 173.95151 205.995538 
L 175.735887 177.839093 
L 177.520263 216.22689 
L 179.30464 208.124941 
L 181.089016 192.968217 
L 182.873393 147.877919 
L 184.657769 200.901189 
L 186.442145 221.746272 
L 188.226522 187.231868 
L 190.010898 204.281371 
L 191.795275 215.73473 
L 193.579651 204.037701 
L 195.364028 223.356173 
L 197.148404 217.03771 
L 198.93278 219.294973 
L 200.717157 209.936327 
L 202.501533 173.461593 
L 204.28591 214.269132 
L 206.070286 230.350383 
L 207.854663 230.843809 
L 209.639039 213.121809 
L 211.423415 177.831358 
L 213.207792 201.513034 
L 214.992168 198.627851 
L 216.776545 205.64022 
L 218.560921 198.488804 
L 220.345298 227.890285 
L 222.129674 224.139185 
L 223.91405 221.770184 
L 225.698427 207.758442 
L 227.482803 228.059433 
L 229.26718 229.327463 
L 231.051556 233.998125 
L 232.835933 226.344446 
L 234.620309 227.644071 
L 236.404685 231.630117 
L 238.189062 231.634689 
L 239.973438 214.451883 
L 241.757815 229.725911 
L 243.542191 223.933376 
L 245.326567 226.42047 
L 247.110944 221.748314 
L 248.89532 224.193279 
L 250.679697 222.805761 
L 252.464073 221.206772 
L 254.24845 226.29243 
L 256.032826 221.79106 
L 257.817202 228.864314 
L 259.601579 225.551272 
L 261.385955 230.301257 
L 263.170332 222.68723 
L 264.954708 233.431273 
L 266.739085 226.509977 
L 268.523461 226.33782 
L 270.307837 225.887911 
L 272.092214 227.270071 
L 273.87659 230.05301 
L 275.660967 231.595006 
L 277.445343 233.605119 
L 279.22972 224.909746 
L 281.014096 224.652223 
L 282.798472 229.636956 
L 284.582849 228.482268 
L 286.367225 229.660329 
L 288.151602 215.817759 
L 289.935978 220.806902 
L 293.504731 231.816295 
L 295.289107 228.313811 
L 297.073484 232.420176 
L 298.85786 207.168707 
L 300.642237 227.275021 
L 302.426613 222.561588 
L 304.21099 225.151381 
L 305.995366 219.302767 
L 307.779742 221.048322 
L 309.564119 230.438754 
L 311.348495 216.818098 
L 313.132872 228.361814 
L 314.917248 223.474213 
L 316.701625 225.503085 
L 318.486001 233.433346 
L 320.270377 224.331673 
L 322.054754 231.627953 
L 323.83913 226.736664 
L 325.623507 225.734673 
L 327.407883 230.839379 
L 329.19226 225.327747 
L 330.976636 224.531442 
L 332.761012 213.300338 
L 334.545389 220.969243 
L 336.329765 198.563999 
L 338.114142 222.868565 
L 339.898518 205.164247 
L 343.467271 227.969192 
L 345.251647 219.882961 
L 347.036024 205.844934 
L 348.8204 208.927509 
L 350.604777 221.570337 
L 352.389153 220.645565 
L 354.17353 226.104139 
L 355.957906 215.564586 
L 357.742282 231.61764 
L 359.526659 217.936069 
L 361.311035 217.881004 
L 363.095412 192.81298 
L 364.879788 215.791875 
L 366.664165 180.330802 
L 368.448541 222.797215 
L 370.232917 212.036833 
L 372.017294 214.80421 
L 373.80167 220.36794 
L 375.586047 212.501713 
L 377.370423 209.092675 
L 379.1548 205.142171 
L 380.939176 220.707103 
L 382.723552 207.23349 
L 384.507929 223.86513 
L 386.292305 225.836342 
L 388.076682 227.1044 
L 389.861058 219.262916 
L 391.645435 222.098625 
L 393.429811 213.320979 
L 395.214187 222.52227 
L 396.998564 211.903322 
L 398.78294 202.269528 
L 400.567317 204.70835 
L 402.351693 210.617531 
L 404.13607 212.730066 
L 405.920446 213.82616 
L 407.704822 167.867921 
L 409.489199 200.475587 
L 411.273575 200.919524 
L 413.057952 215.454803 
L 414.842328 189.732848 
L 416.626705 207.69545 
L 416.626705 207.69545 
" clip-path="url(#pf259c10df6)" style="fill: none; stroke: #2ca02c; stroke-opacity: 0.85; stroke-width: 0.9; stroke-linecap: square"/>
   </g>
   <g id="patch_3">
    <path d="M 43.78125 244.078125 
L 43.78125 22.318125 
" style="fill: none; stroke: #000000; stroke-width: 0.8; stroke-linejoin: miter; stroke-linecap: square"/>
   </g>
   <g id="patch_4">
    <path d="M 43.78125 244.078125 
L 434.38125 244.078125 
" style="fill: none; stroke: #000000; stroke-width: 0.8; stroke-linejoin: miter; stroke-linecap: square"/>
   </g>
   <g id="text_14">
    <text style="font-size: 12px; font-family: 'DejaVu Sans', 'Bitstream Vera Sans', 'Computer Modern Sans Serif', 'Lucida Grande', 'Verdana', 'Geneva', 'Lucid', 'Arial', 'Helvetica', 'Avant Garde', sans-serif; text-anchor: middle" x="239.08125" y="16.318125" transform="rotate(-0 239.08125 16.318125)">MAO-B PBC-corrected Ligand SASA (nm2)</text>
   </g>
   <g id="legend_1">
    <g id="line2d_26">
     <path d="M 356.03125 32.796875 
L 364.03125 32.796875 
L 372.03125 32.796875 
" style="fill: none; stroke: #1f77b4; stroke-opacity: 0.85; stroke-width: 0.9; stroke-linecap: square"/>
    </g>
    <g id="text_15">
     <text style="font-size: 8px; font-family: 'DejaVu Sans', 'Bitstream Vera Sans', 'Computer Modern Sans Serif', 'Lucida Grande', 'Verdana', 'Geneva', 'Lucid', 'Arial', 'Helvetica', 'Avant Garde', sans-serif; text-anchor: start" x="378.43125" y="35.596875" transform="rotate(-0 378.43125 35.596875)">rep1_rerun2</text>
    </g>
    <g id="line2d_27">
     <path d="M 356.03125 44.761875 
L 364.03125 44.761875 
L 372.03125 44.761875 
" style="fill: none; stroke: #ff7f0e; stroke-opacity: 0.85; stroke-width: 0.9; stroke-linecap: square"/>
    </g>
    <g id="text_16">
     <text style="font-size: 8px; font-family: 'DejaVu Sans', 'Bitstream Vera Sans', 'Computer Modern Sans Serif', 'Lucida Grande', 'Verdana', 'Geneva', 'Lucid', 'Arial', 'Helvetica', 'Avant Garde', sans-serif; text-anchor: start" x="378.43125" y="47.561875" transform="rotate(-0 378.43125 47.561875)">rep2</text>
    </g>
    <g id="line2d_28">
     <path d="M 356.03125 56.504375 
L 364.03125 56.504375 
L 372.03125 56.504375 
" style="fill: none; stroke: #2ca02c; stroke-opacity: 0.85; stroke-width: 0.9; stroke-linecap: square"/>
    </g>
    <g id="text_17">
     <text style="font-size: 8px; font-family: 'DejaVu Sans', 'Bitstream Vera Sans', 'Computer Modern Sans Serif', 'Lucida Grande', 'Verdana', 'Geneva', 'Lucid', 'Arial', 'Helvetica', 'Avant Garde', sans-serif; text-anchor: start" x="378.43125" y="59.304375" transform="rotate(-0 378.43125 59.304375)">rep3</text>
    </g>
   </g>
  </g>
 </g>
 <defs>
  <clipPath id="pf259c10df6">
   <rect x="43.78125" y="22.318125" width="390.6" height="221.76"/>
  </clipPath>
 </defs>
</svg>
