<?xml version="1.0" encoding="utf-8" standalone="no"?>
<!DOCTYPE svg PUBLIC "-//W3C//DTD SVG 1.1//EN"
  "http://www.w3.org/Graphics/SVG/1.1/DTD/svg11.dtd">
<svg xmlns:xlink="http://www.w3.org/1999/xlink" width="467.069375pt" height="289.874938pt" viewBox="0 0 467.069375 289.874938" xmlns="http://www.w3.org/2000/svg" version="1.1">
 <metadata>
  <rdf:RDF xmlns:dc="http://purl.org/dc/elements/1.1/" xmlns:cc="http://creativecommons.org/ns#" xmlns:rdf="http://www.w3.org/1999/02/22-rdf-syntax-ns#">
   <cc:Work>
    <dc:type rdf:resource="http://purl.org/dc/dcmitype/StillImage"/>
    <dc:date>2026-05-25T08:13:42.224327</dc:date>
    <dc:format>image/svg+xml</dc:format>
    <dc:creator>
     <cc:Agent>
      <dc:title>Matplotlib v3.10.9, https://matplotlib.org/</dc:title>
     </cc:Agent>
    </dc:creator>
   </cc:Work>
  </rdf:RDF>
 </metadata>
 <defs>
  <style type="text/css">*{stroke-linejoin: round; stroke-linecap: butt}</style>
 </defs>
 <g id="figure_1">
  <g id="patch_1">
   <path d="M 0 289.874938 
L 467.069375 289.874938 
L 467.069375 0 
L 0 0 
z
" style="fill: #ffffff"/>
  </g>
  <g id="axes_1">
   <g id="patch_2">
    <path d="M 46.949375 254.254313 
L 459.869375 254.254313 
L 459.869375 21.406313 
L 46.949375 21.406313 
z
" style="fill: #ffffff"/>
   </g>
   <g id="matplotlib.axis_1">
    <g id="xtick_1">
     <g id="line2d_1">
      <path d="M 65.076788 254.254313 
L 65.076788 21.406313 
" clip-path="url(#p130cd90e38)" style="fill: none; stroke: #b0b0b0; stroke-opacity: 0.25; stroke-width: 0.8; stroke-linecap: square"/>
     </g>
     <g id="line2d_2">
      <defs>
       <path id="mff52331e54" d="M 0 0 
L 0 3.5 
" style="stroke: #000000; stroke-width: 0.8"/>
      </defs>
      <g>
       <use xlink:href="#mff52331e54" x="65.076788" y="254.254313" style="stroke: #000000; stroke-width: 0.8"/>
      </g>
     </g>
     <g id="text_1">
      <!-- 0 -->
      <g transform="translate(62.213663 268.092906) scale(0.09 -0.09)">
       <defs>
        <path id="DejaVuSans-30" d="M 2034 4250 
Q 1547 4250 1301 3770 
Q 1056 3291 1056 2328 
Q 1056 1369 1301 889 
Q 1547 409 2034 409 
Q 2525 409 2770 889 
Q 3016 1369 3016 2328 
Q 3016 3291 2770 3770 
Q 2525 4250 2034 4250 
z
M 2034 4750 
Q 2819 4750 3233 4129 
Q 3647 3509 3647 2328 
Q 3647 1150 3233 529 
Q 2819 -91 2034 -91 
Q 1250 -91 836 529 
Q 422 1150 422 2328 
Q 422 3509 836 4129 
Q 1250 4750 2034 4750 
z
" transform="scale(0.015625)"/>
       </defs>
       <use xlink:href="#DejaVuSans-30"/>
      </g>
     </g>
    </g>
    <g id="xtick_2">
     <g id="line2d_3">
      <path d="M 129.24462 254.254313 
L 129.24462 21.406313 
" clip-path="url(#p130cd90e38)" style="fill: none; stroke: #b0b0b0; stroke-opacity: 0.25; stroke-width: 0.8; stroke-linecap: square"/>
     </g>
     <g id="line2d_4">
      <g>
       <use xlink:href="#mff52331e54" x="129.24462" y="254.254313" style="stroke: #000000; stroke-width: 0.8"/>
      </g>
     </g>
     <g id="text_2">
      <!-- 100 -->
      <g transform="translate(120.655245 268.092906) scale(0.09 -0.09)">
       <defs>
        <path id="DejaVuSans-31" d="M 794 531 
L 1825 531 
L 1825 4091 
L 703 3866 
L 703 4441 
L 1819 4666 
L 2450 4666 
L 2450 531 
L 3481 531 
L 3481 0 
L 794 0 
L 794 531 
z
" transform="scale(0.015625)"/>
       </defs>
       <use xlink:href="#DejaVuSans-31"/>
       <use xlink:href="#DejaVuSans-30" transform="translate(63.623047 0)"/>
       <use xlink:href="#DejaVuSans-30" transform="translate(127.246094 0)"/>
      </g>
     </g>
    </g>
    <g id="xtick_3">
     <g id="line2d_5">
      <path d="M 193.412452 254.254313 
L 193.412452 21.406313 
" clip-path="url(#p130cd90e38)" style="fill: none; stroke: #b0b0b0; stroke-opacity: 0.25; stroke-width: 0.8; stroke-linecap: square"/>
     </g>
     <g id="line2d_6">
      <g>
       <use xlink:href="#mff52331e54" x="193.412452" y="254.254313" style="stroke: #000000; stroke-width: 0.8"/>
      </g>
     </g>
     <g id="text_3">
      <!-- 200 -->
      <g transform="translate(184.823077 268.092906) scale(0.09 -0.09)">
       <defs>
        <path id="DejaVuSans-32" d="M 1228 531 
L 3431 531 
L 3431 0 
L 469 0 
L 469 531 
Q 828 903 1448 1529 
Q 2069 2156 2228 2338 
Q 2531 2678 2651 2914 
Q 2772 3150 2772 3378 
Q 2772 3750 2511 3984 
Q 2250 4219 1831 4219 
Q 1534 4219 1204 4116 
Q 875 4013 500 3803 
L 500 4441 
Q 881 4594 1212 4672 
Q 1544 4750 1819 4750 
Q 2544 4750 2975 4387 
Q 3406 4025 3406 3419 
Q 3406 3131 3298 2873 
Q 3191 2616 2906 2266 
Q 2828 2175 2409 1742 
Q 1991 1309 1228 531 
z
" transform="scale(0.015625)"/>
       </defs>
       <use xlink:href="#DejaVuSans-32"/>
       <use xlink:href="#DejaVuSans-30" transform="translate(63.623047 0)"/>
       <use xlink:href="#DejaVuSans-30" transform="translate(127.246094 0)"/>
      </g>
     </g>
    </g>
    <g id="xtick_4">
     <g id="line2d_7">
      <path d="M 257.580284 254.254313 
L 257.580284 21.406313 
" clip-path="url(#p130cd90e38)" style="fill: none; stroke: #b0b0b0; stroke-opacity: 0.25; stroke-width: 0.8; stroke-linecap: square"/>
     </g>
     <g id="line2d_8">
      <g>
       <use xlink:href="#mff52331e54" x="257.580284" y="254.254313" style="stroke: #000000; stroke-width: 0.8"/>
      </g>
     </g>
     <g id="text_4">
      <!-- 300 -->
      <g transform="translate(248.990909 268.092906) scale(0.09 -0.09)">
       <defs>
        <path id="DejaVuSans-33" d="M 2597 2516 
Q 3050 2419 3304 2112 
Q 3559 1806 3559 1356 
Q 3559 666 3084 287 
Q 2609 -91 1734 -91 
Q 1441 -91 1130 -33 
Q 819 25 488 141 
L 488 750 
Q 750 597 1062 519 
Q 1375 441 1716 441 
Q 2309 441 2620 675 
Q 2931 909 2931 1356 
Q 2931 1769 2642 2001 
Q 2353 2234 1838 2234 
L 1294 2234 
L 1294 2753 
L 1863 2753 
Q 2328 2753 2575 2939 
Q 2822 3125 2822 3475 
Q 2822 3834 2567 4026 
Q 2313 4219 1838 4219 
Q 1578 4219 1281 4162 
Q 984 4106 628 3988 
L 628 4550 
Q 988 4650 1302 4700 
Q 1616 4750 1894 4750 
Q 2613 4750 3031 4423 
Q 3450 4097 3450 3541 
Q 3450 3153 3228 2886 
Q 3006 2619 2597 2516 
z
" transform="scale(0.015625)"/>
       </defs>
       <use xlink:href="#DejaVuSans-33"/>
       <use xlink:href="#DejaVuSans-30" transform="translate(63.623047 0)"/>
       <use xlink:href="#DejaVuSans-30" transform="translate(127.246094 0)"/>
      </g>
     </g>
    </g>
    <g id="xtick_5">
     <g id="line2d_9">
      <path d="M 321.748116 254.254313 
L 321.748116 21.406313 
" clip-path="url(#p130cd90e38)" style="fill: none; stroke: #b0b0b0; stroke-opacity: 0.25; stroke-width: 0.8; stroke-linecap: square"/>
     </g>
     <g id="line2d_10">
      <g>
       <use xlink:href="#mff52331e54" x="321.748116" y="254.254313" style="stroke: #000000; stroke-width: 0.8"/>
      </g>
     </g>
     <g id="text_5">
      <!-- 400 -->
      <g transform="translate(313.158741 268.092906) scale(0.09 -0.09)">
       <defs>
        <path id="DejaVuSans-34" d="M 2419 4116 
L 825 1625 
L 2419 1625 
L 2419 4116 
z
M 2253 4666 
L 3047 4666 
L 3047 1625 
L 3713 1625 
L 3713 1100 
L 3047 1100 
L 3047 0 
L 2419 0 
L 2419 1100 
L 313 1100 
L 313 1709 
L 2253 4666 
z
" transform="scale(0.015625)"/>
       </defs>
       <use xlink:href="#DejaVuSans-34"/>
       <use xlink:href="#DejaVuSans-30" transform="translate(63.623047 0)"/>
       <use xlink:href="#DejaVuSans-30" transform="translate(127.246094 0)"/>
      </g>
     </g>
    </g>
    <g id="xtick_6">
     <g id="line2d_11">
      <path d="M 385.915948 254.254313 
L 385.915948 21.406313 
" clip-path="url(#p130cd90e38)" style="fill: none; stroke: #b0b0b0; stroke-opacity: 0.25; stroke-width: 0.8; stroke-linecap: square"/>
     </g>
     <g id="line2d_12">
      <g>
       <use xlink:href="#mff52331e54" x="385.915948" y="254.254313" style="stroke: #000000; stroke-width: 0.8"/>
      </g>
     </g>
     <g id="text_6">
      <!-- 500 -->
      <g transform="translate(377.326573 268.092906) scale(0.09 -0.09)">
       <defs>
        <path id="DejaVuSans-35" d="M 691 4666 
L 3169 4666 
L 3169 4134 
L 1269 4134 
L 1269 2991 
Q 1406 3038 1543 3061 
Q 1681 3084 1819 3084 
Q 2600 3084 3056 2656 
Q 3513 2228 3513 1497 
Q 3513 744 3044 326 
Q 2575 -91 1722 -91 
Q 1428 -91 1123 -41 
Q 819 9 494 109 
L 494 744 
Q 775 591 1075 516 
Q 1375 441 1709 441 
Q 2250 441 2565 725 
Q 2881 1009 2881 1497 
Q 2881 1984 2565 2268 
Q 2250 2553 1709 2553 
Q 1456 2553 1204 2497 
Q 953 2441 691 2322 
L 691 4666 
z
" transform="scale(0.015625)"/>
       </defs>
       <use xlink:href="#DejaVuSans-35"/>
       <use xlink:href="#DejaVuSans-30" transform="translate(63.623047 0)"/>
       <use xlink:href="#DejaVuSans-30" transform="translate(127.246094 0)"/>
      </g>
     </g>
    </g>
    <g id="xtick_7">
     <g id="line2d_13">
      <path d="M 450.083781 254.254313 
L 450.083781 21.406313 
" clip-path="url(#p130cd90e38)" style="fill: none; stroke: #b0b0b0; stroke-opacity: 0.25; stroke-width: 0.8; stroke-linecap: square"/>
     </g>
     <g id="line2d_14">
      <g>
       <use xlink:href="#mff52331e54" x="450.083781" y="254.254313" style="stroke: #000000; stroke-width: 0.8"/>
      </g>
     </g>
     <g id="text_7">
      <!-- 600 -->
      <g transform="translate(441.494406 268.092906) scale(0.09 -0.09)">
       <defs>
        <path id="DejaVuSans-36" d="M 2113 2584 
Q 1688 2584 1439 2293 
Q 1191 2003 1191 1497 
Q 1191 994 1439 701 
Q 1688 409 2113 409 
Q 2538 409 2786 701 
Q 3034 994 3034 1497 
Q 3034 2003 2786 2293 
Q 2538 2584 2113 2584 
z
M 3366 4563 
L 3366 3988 
Q 3128 4100 2886 4159 
Q 2644 4219 2406 4219 
Q 1781 4219 1451 3797 
Q 1122 3375 1075 2522 
Q 1259 2794 1537 2939 
Q 1816 3084 2150 3084 
Q 2853 3084 3261 2657 
Q 3669 2231 3669 1497 
Q 3669 778 3244 343 
Q 2819 -91 2113 -91 
Q 1303 -91 875 529 
Q 447 1150 447 2328 
Q 447 3434 972 4092 
Q 1497 4750 2381 4750 
Q 2619 4750 2861 4703 
Q 3103 4656 3366 4563 
z
" transform="scale(0.015625)"/>
       </defs>
       <use xlink:href="#DejaVuSans-36"/>
       <use xlink:href="#DejaVuSans-30" transform="translate(63.623047 0)"/>
       <use xlink:href="#DejaVuSans-30" transform="translate(127.246094 0)"/>
      </g>
     </g>
    </g>
    <g id="text_8">
     <!-- C-alpha index -->
     <g transform="translate(222.426875 280.803219) scale(0.09 -0.09)">
      <defs>
       <path id="DejaVuSans-43" d="M 4122 4306 
L 4122 3641 
Q 3803 3938 3442 4084 
Q 3081 4231 2675 4231 
Q 1875 4231 1450 3742 
Q 1025 3253 1025 2328 
Q 1025 1406 1450 917 
Q 1875 428 2675 428 
Q 3081 428 3442 575 
Q 3803 722 4122 1019 
L 4122 359 
Q 3791 134 3420 21 
Q 3050 -91 2638 -91 
Q 1578 -91 968 557 
Q 359 1206 359 2328 
Q 359 3453 968 4101 
Q 1578 4750 2638 4750 
Q 3056 4750 3426 4639 
Q 3797 4528 4122 4306 
z
" transform="scale(0.015625)"/>
       <path id="DejaVuSans-2d" d="M 313 2009 
L 1997 2009 
L 1997 1497 
L 313 1497 
L 313 2009 
z
" transform="scale(0.015625)"/>
       <path id="DejaVuSans-61" d="M 2194 1759 
Q 1497 1759 1228 1600 
Q 959 1441 959 1056 
Q 959 750 1161 570 
Q 1363 391 1709 391 
Q 2188 391 2477 730 
Q 2766 1069 2766 1631 
L 2766 1759 
L 2194 1759 
z
M 3341 1997 
L 3341 0 
L 2766 0 
L 2766 531 
Q 2569 213 2275 61 
Q 1981 -91 1556 -91 
Q 1019 -91 701 211 
Q 384 513 384 1019 
Q 384 1609 779 1909 
Q 1175 2209 1959 2209 
L 2766 2209 
L 2766 2266 
Q 2766 2663 2505 2880 
Q 2244 3097 1772 3097 
Q 1472 3097 1187 3025 
Q 903 2953 641 2809 
L 641 3341 
Q 956 3463 1253 3523 
Q 1550 3584 1831 3584 
Q 2591 3584 2966 3190 
Q 3341 2797 3341 1997 
z
" transform="scale(0.015625)"/>
       <path id="DejaVuSans-6c" d="M 603 4863 
L 1178 4863 
L 1178 0 
L 603 0 
L 603 4863 
z
" transform="scale(0.015625)"/>
       <path id="DejaVuSans-70" d="M 1159 525 
L 1159 -1331 
L 581 -1331 
L 581 3500 
L 1159 3500 
L 1159 2969 
Q 1341 3281 1617 3432 
Q 1894 3584 2278 3584 
Q 2916 3584 3314 3078 
Q 3713 2572 3713 1747 
Q 3713 922 3314 415 
Q 2916 -91 2278 -91 
Q 1894 -91 1617 61 
Q 1341 213 1159 525 
z
M 3116 1747 
Q 3116 2381 2855 2742 
Q 2594 3103 2138 3103 
Q 1681 3103 1420 2742 
Q 1159 2381 1159 1747 
Q 1159 1113 1420 752 
Q 1681 391 2138 391 
Q 2594 391 2855 752 
Q 3116 1113 3116 1747 
z
" transform="scale(0.015625)"/>
       <path id="DejaVuSans-68" d="M 3513 2113 
L 3513 0 
L 2938 0 
L 2938 2094 
Q 2938 2591 2744 2837 
Q 2550 3084 2163 3084 
Q 1697 3084 1428 2787 
Q 1159 2491 1159 1978 
L 1159 0 
L 581 0 
L 581 4863 
L 1159 4863 
L 1159 2956 
Q 1366 3272 1645 3428 
Q 1925 3584 2291 3584 
Q 2894 3584 3203 3211 
Q 3513 2838 3513 2113 
z
" transform="scale(0.015625)"/>
       <path id="DejaVuSans-20" transform="scale(0.015625)"/>
       <path id="DejaVuSans-69" d="M 603 3500 
L 1178 3500 
L 1178 0 
L 603 0 
L 603 3500 
z
M 603 4863 
L 1178 4863 
L 1178 4134 
L 603 4134 
L 603 4863 
z
" transform="scale(0.015625)"/>
       <path id="DejaVuSans-6e" d="M 3513 2113 
L 3513 0 
L 2938 0 
L 2938 2094 
Q 2938 2591 2744 2837 
Q 2550 3084 2163 3084 
Q 1697 3084 1428 2787 
Q 1159 2491 1159 1978 
L 1159 0 
L 581 0 
L 581 3500 
L 1159 3500 
L 1159 2956 
Q 1366 3272 1645 3428 
Q 1925 3584 2291 3584 
Q 2894 3584 3203 3211 
Q 3513 2838 3513 2113 
z
" transform="scale(0.015625)"/>
       <path id="DejaVuSans-64" d="M 2906 2969 
L 2906 4863 
L 3481 4863 
L 3481 0 
L 2906 0 
L 2906 525 
Q 2725 213 2448 61 
Q 2172 -91 1784 -91 
Q 1150 -91 751 415 
Q 353 922 353 1747 
Q 353 2572 751 3078 
Q 1150 3584 1784 3584 
Q 2172 3584 2448 3432 
Q 2725 3281 2906 2969 
z
M 947 1747 
Q 947 1113 1208 752 
Q 1469 391 1925 391 
Q 2381 391 2643 752 
Q 2906 1113 2906 1747 
Q 2906 2381 2643 2742 
Q 2381 3103 1925 3103 
Q 1469 3103 1208 2742 
Q 947 2381 947 1747 
z
" transform="scale(0.015625)"/>
       <path id="DejaVuSans-65" d="M 3597 1894 
L 3597 1613 
L 953 1613 
Q 991 1019 1311 708 
Q 1631 397 2203 397 
Q 2534 397 2845 478 
Q 3156 559 3463 722 
L 3463 178 
Q 3153 47 2828 -22 
Q 2503 -91 2169 -91 
Q 1331 -91 842 396 
Q 353 884 353 1716 
Q 353 2575 817 3079 
Q 1281 3584 2069 3584 
Q 2775 3584 3186 3129 
Q 3597 2675 3597 1894 
z
M 3022 2063 
Q 3016 2534 2758 2815 
Q 2500 3097 2075 3097 
Q 1594 3097 1305 2825 
Q 1016 2553 972 2059 
L 3022 2063 
z
" transform="scale(0.015625)"/>
       <path id="DejaVuSans-78" d="M 3513 3500 
L 2247 1797 
L 3578 0 
L 2900 0 
L 1881 1375 
L 863 0 
L 184 0 
L 1544 1831 
L 300 3500 
L 978 3500 
L 1906 2253 
L 2834 3500 
L 3513 3500 
z
" transform="scale(0.015625)"/>
      </defs>
      <use xlink:href="#DejaVuSans-43"/>
      <use xlink:href="#DejaVuSans-2d" transform="translate(69.824219 0)"/>
      <use xlink:href="#DejaVuSans-61" transform="translate(105.908203 0)"/>
      <use xlink:href="#DejaVuSans-6c" transform="translate(167.1875 0)"/>
      <use xlink:href="#DejaVuSans-70" transform="translate(194.970703 0)"/>
      <use xlink:href="#DejaVuSans-68" transform="translate(258.447266 0)"/>
      <use xlink:href="#DejaVuSans-61" transform="translate(321.826172 0)"/>
      <use xlink:href="#DejaVuSans-20" transform="translate(383.105469 0)"/>
      <use xlink:href="#DejaVuSans-69" transform="translate(414.892578 0)"/>
      <use xlink:href="#DejaVuSans-6e" transform="translate(442.675781 0)"/>
      <use xlink:href="#DejaVuSans-64" transform="translate(506.054688 0)"/>
      <use xlink:href="#DejaVuSans-65" transform="translate(569.53125 0)"/>
      <use xlink:href="#DejaVuSans-78" transform="translate(629.304688 0)"/>
     </g>
    </g>
   </g>
   <g id="matplotlib.axis_2">
    <g id="ytick_1">
     <g id="line2d_15">
      <path d="M 46.949375 247.737715 
L 459.869375 247.737715 
" clip-path="url(#p130cd90e38)" style="fill: none; stroke: #b0b0b0; stroke-opacity: 0.25; stroke-width: 0.8; stroke-linecap: square"/>
     </g>
     <g id="line2d_16">
      <defs>
       <path id="m1c9d7d6d19" d="M 0 0 
L -3.5 0 
" style="stroke: #000000; stroke-width: 0.8"/>
      </defs>
      <g>
       <use xlink:href="#m1c9d7d6d19" x="46.949375" y="247.737715" style="stroke: #000000; stroke-width: 0.8"/>
      </g>
     </g>
     <g id="text_9">
      <!-- 0.0 -->
      <g transform="translate(25.636563 251.157012) scale(0.09 -0.09)">
       <defs>
        <path id="DejaVuSans-2e" d="M 684 794 
L 1344 794 
L 1344 0 
L 684 0 
L 684 794 
z
" transform="scale(0.015625)"/>
       </defs>
       <use xlink:href="#DejaVuSans-30"/>
       <use xlink:href="#DejaVuSans-2e" transform="translate(63.623047 0)"/>
       <use xlink:href="#DejaVuSans-30" transform="translate(95.410156 0)"/>
      </g>
     </g>
    </g>
    <g id="ytick_2">
     <g id="line2d_17">
      <path d="M 46.949375 220.639827 
L 459.869375 220.639827 
" clip-path="url(#p130cd90e38)" style="fill: none; stroke: #b0b0b0; stroke-opacity: 0.25; stroke-width: 0.8; stroke-linecap: square"/>
     </g>
     <g id="line2d_18">
      <g>
       <use xlink:href="#m1c9d7d6d19" x="46.949375" y="220.639827" style="stroke: #000000; stroke-width: 0.8"/>
      </g>
     </g>
     <g id="text_10">
      <!-- 2.5 -->
      <g transform="translate(25.636563 224.059124) scale(0.09 -0.09)">
       <use xlink:href="#DejaVuSans-32"/>
       <use xlink:href="#DejaVuSans-2e" transform="translate(63.623047 0)"/>
       <use xlink:href="#DejaVuSans-35" transform="translate(95.410156 0)"/>
      </g>
     </g>
    </g>
    <g id="ytick_3">
     <g id="line2d_19">
      <path d="M 46.949375 193.541939 
L 459.869375 193.541939 
" clip-path="url(#p130cd90e38)" style="fill: none; stroke: #b0b0b0; stroke-opacity: 0.25; stroke-width: 0.8; stroke-linecap: square"/>
     </g>
     <g id="line2d_20">
      <g>
       <use xlink:href="#m1c9d7d6d19" x="46.949375" y="193.541939" style="stroke: #000000; stroke-width: 0.8"/>
      </g>
     </g>
     <g id="text_11">
      <!-- 5.0 -->
      <g transform="translate(25.636563 196.961236) scale(0.09 -0.09)">
       <use xlink:href="#DejaVuSans-35"/>
       <use xlink:href="#DejaVuSans-2e" transform="translate(63.623047 0)"/>
       <use xlink:href="#DejaVuSans-30" transform="translate(95.410156 0)"/>
      </g>
     </g>
    </g>
    <g id="ytick_4">
     <g id="line2d_21">
      <path d="M 46.949375 166.444051 
L 459.869375 166.444051 
" clip-path="url(#p130cd90e38)" style="fill: none; stroke: #b0b0b0; stroke-opacity: 0.25; stroke-width: 0.8; stroke-linecap: square"/>
     </g>
     <g id="line2d_22">
      <g>
       <use xlink:href="#m1c9d7d6d19" x="46.949375" y="166.444051" style="stroke: #000000; stroke-width: 0.8"/>
      </g>
     </g>
     <g id="text_12">
      <!-- 7.5 -->
      <g transform="translate(25.636563 169.863347) scale(0.09 -0.09)">
       <defs>
        <path id="DejaVuSans-37" d="M 525 4666 
L 3525 4666 
L 3525 4397 
L 1831 0 
L 1172 0 
L 2766 4134 
L 525 4134 
L 525 4666 
z
" transform="scale(0.015625)"/>
       </defs>
       <use xlink:href="#DejaVuSans-37"/>
       <use xlink:href="#DejaVuSans-2e" transform="translate(63.623047 0)"/>
       <use xlink:href="#DejaVuSans-35" transform="translate(95.410156 0)"/>
      </g>
     </g>
    </g>
    <g id="ytick_5">
     <g id="line2d_23">
      <path d="M 46.949375 139.346162 
L 459.869375 139.346162 
" clip-path="url(#p130cd90e38)" style="fill: none; stroke: #b0b0b0; stroke-opacity: 0.25; stroke-width: 0.8; stroke-linecap: square"/>
     </g>
     <g id="line2d_24">
      <g>
       <use xlink:href="#m1c9d7d6d19" x="46.949375" y="139.346162" style="stroke: #000000; stroke-width: 0.8"/>
      </g>
     </g>
     <g id="text_13">
      <!-- 10.0 -->
      <g transform="translate(19.910313 142.765459) scale(0.09 -0.09)">
       <use xlink:href="#DejaVuSans-31"/>
       <use xlink:href="#DejaVuSans-30" transform="translate(63.623047 0)"/>
       <use xlink:href="#DejaVuSans-2e" transform="translate(127.246094 0)"/>
       <use xlink:href="#DejaVuSans-30" transform="translate(159.033203 0)"/>
      </g>
     </g>
    </g>
    <g id="ytick_6">
     <g id="line2d_25">
      <path d="M 46.949375 112.248274 
L 459.869375 112.248274 
" clip-path="url(#p130cd90e38)" style="fill: none; stroke: #b0b0b0; stroke-opacity: 0.25; stroke-width: 0.8; stroke-linecap: square"/>
     </g>
     <g id="line2d_26">
      <g>
       <use xlink:href="#m1c9d7d6d19" x="46.949375" y="112.248274" style="stroke: #000000; stroke-width: 0.8"/>
      </g>
     </g>
     <g id="text_14">
      <!-- 12.5 -->
      <g transform="translate(19.910313 115.667571) scale(0.09 -0.09)">
       <use xlink:href="#DejaVuSans-31"/>
       <use xlink:href="#DejaVuSans-32" transform="translate(63.623047 0)"/>
       <use xlink:href="#DejaVuSans-2e" transform="translate(127.246094 0)"/>
       <use xlink:href="#DejaVuSans-35" transform="translate(159.033203 0)"/>
      </g>
     </g>
    </g>
    <g id="ytick_7">
     <g id="line2d_27">
      <path d="M 46.949375 85.150386 
L 459.869375 85.150386 
" clip-path="url(#p130cd90e38)" style="fill: none; stroke: #b0b0b0; stroke-opacity: 0.25; stroke-width: 0.8; stroke-linecap: square"/>
     </g>
     <g id="line2d_28">
      <g>
       <use xlink:href="#m1c9d7d6d19" x="46.949375" y="85.150386" style="stroke: #000000; stroke-width: 0.8"/>
      </g>
     </g>
     <g id="text_15">
      <!-- 15.0 -->
      <g transform="translate(19.910313 88.569683) scale(0.09 -0.09)">
       <use xlink:href="#DejaVuSans-31"/>
       <use xlink:href="#DejaVuSans-35" transform="translate(63.623047 0)"/>
       <use xlink:href="#DejaVuSans-2e" transform="translate(127.246094 0)"/>
       <use xlink:href="#DejaVuSans-30" transform="translate(159.033203 0)"/>
      </g>
     </g>
    </g>
    <g id="ytick_8">
     <g id="line2d_29">
      <path d="M 46.949375 58.052498 
L 459.869375 58.052498 
" clip-path="url(#p130cd90e38)" style="fill: none; stroke: #b0b0b0; stroke-opacity: 0.25; stroke-width: 0.8; stroke-linecap: square"/>
     </g>
     <g id="line2d_30">
      <g>
       <use xlink:href="#m1c9d7d6d19" x="46.949375" y="58.052498" style="stroke: #000000; stroke-width: 0.8"/>
      </g>
     </g>
     <g id="text_16">
      <!-- 17.5 -->
      <g transform="translate(19.910313 61.471795) scale(0.09 -0.09)">
       <use xlink:href="#DejaVuSans-31"/>
       <use xlink:href="#DejaVuSans-37" transform="translate(63.623047 0)"/>
       <use xlink:href="#DejaVuSans-2e" transform="translate(127.246094 0)"/>
       <use xlink:href="#DejaVuSans-35" transform="translate(159.033203 0)"/>
      </g>
     </g>
    </g>
    <g id="ytick_9">
     <g id="line2d_31">
      <path d="M 46.949375 30.95461 
L 459.869375 30.95461 
" clip-path="url(#p130cd90e38)" style="fill: none; stroke: #b0b0b0; stroke-opacity: 0.25; stroke-width: 0.8; stroke-linecap: square"/>
     </g>
     <g id="line2d_32">
      <g>
       <use xlink:href="#m1c9d7d6d19" x="46.949375" y="30.95461" style="stroke: #000000; stroke-width: 0.8"/>
      </g>
     </g>
     <g id="text_17">
      <!-- 20.0 -->
      <g transform="translate(19.910313 34.373906) scale(0.09 -0.09)">
       <use xlink:href="#DejaVuSans-32"/>
       <use xlink:href="#DejaVuSans-30" transform="translate(63.623047 0)"/>
       <use xlink:href="#DejaVuSans-2e" transform="translate(127.246094 0)"/>
       <use xlink:href="#DejaVuSans-30" transform="translate(159.033203 0)"/>
      </g>
     </g>
    </g>
    <g id="text_18">
     <!-- RMSF (A) -->
     <g transform="translate(14.038594 158.304609) rotate(-90) scale(0.09 -0.09)">
      <defs>
       <path id="DejaVuSans-52" d="M 2841 2188 
Q 3044 2119 3236 1894 
Q 3428 1669 3622 1275 
L 4263 0 
L 3584 0 
L 2988 1197 
Q 2756 1666 2539 1819 
Q 2322 1972 1947 1972 
L 1259 1972 
L 1259 0 
L 628 0 
L 628 4666 
L 2053 4666 
Q 2853 4666 3247 4331 
Q 3641 3997 3641 3322 
Q 3641 2881 3436 2590 
Q 3231 2300 2841 2188 
z
M 1259 4147 
L 1259 2491 
L 2053 2491 
Q 2509 2491 2742 2702 
Q 2975 2913 2975 3322 
Q 2975 3731 2742 3939 
Q 2509 4147 2053 4147 
L 1259 4147 
z
" transform="scale(0.015625)"/>
       <path id="DejaVuSans-4d" d="M 628 4666 
L 1569 4666 
L 2759 1491 
L 3956 4666 
L 4897 4666 
L 4897 0 
L 4281 0 
L 4281 4097 
L 3078 897 
L 2444 897 
L 1241 4097 
L 1241 0 
L 628 0 
L 628 4666 
z
" transform="scale(0.015625)"/>
       <path id="DejaVuSans-53" d="M 3425 4513 
L 3425 3897 
Q 3066 4069 2747 4153 
Q 2428 4238 2131 4238 
Q 1616 4238 1336 4038 
Q 1056 3838 1056 3469 
Q 1056 3159 1242 3001 
Q 1428 2844 1947 2747 
L 2328 2669 
Q 3034 2534 3370 2195 
Q 3706 1856 3706 1288 
Q 3706 609 3251 259 
Q 2797 -91 1919 -91 
Q 1588 -91 1214 -16 
Q 841 59 441 206 
L 441 856 
Q 825 641 1194 531 
Q 1563 422 1919 422 
Q 2459 422 2753 634 
Q 3047 847 3047 1241 
Q 3047 1584 2836 1778 
Q 2625 1972 2144 2069 
L 1759 2144 
Q 1053 2284 737 2584 
Q 422 2884 422 3419 
Q 422 4038 858 4394 
Q 1294 4750 2059 4750 
Q 2388 4750 2728 4690 
Q 3069 4631 3425 4513 
z
" transform="scale(0.015625)"/>
       <path id="DejaVuSans-46" d="M 628 4666 
L 3309 4666 
L 3309 4134 
L 1259 4134 
L 1259 2759 
L 3109 2759 
L 3109 2228 
L 1259 2228 
L 1259 0 
L 628 0 
L 628 4666 
z
" transform="scale(0.015625)"/>
       <path id="DejaVuSans-28" d="M 1984 4856 
Q 1566 4138 1362 3434 
Q 1159 2731 1159 2009 
Q 1159 1288 1364 580 
Q 1569 -128 1984 -844 
L 1484 -844 
Q 1016 -109 783 600 
Q 550 1309 550 2009 
Q 550 2706 781 3412 
Q 1013 4119 1484 4856 
L 1984 4856 
z
" transform="scale(0.015625)"/>
       <path id="DejaVuSans-41" d="M 2188 4044 
L 1331 1722 
L 3047 1722 
L 2188 4044 
z
M 1831 4666 
L 2547 4666 
L 4325 0 
L 3669 0 
L 3244 1197 
L 1141 1197 
L 716 0 
L 50 0 
L 1831 4666 
z
" transform="scale(0.015625)"/>
       <path id="DejaVuSans-29" d="M 513 4856 
L 1013 4856 
Q 1481 4119 1714 3412 
Q 1947 2706 1947 2009 
Q 1947 1309 1714 600 
Q 1481 -109 1013 -844 
L 513 -844 
Q 928 -128 1133 580 
Q 1338 1288 1338 2009 
Q 1338 2731 1133 3434 
Q 928 4138 513 4856 
z
" transform="scale(0.015625)"/>
      </defs>
      <use xlink:href="#DejaVuSans-52"/>
      <use xlink:href="#DejaVuSans-4d" transform="translate(69.482422 0)"/>
      <use xlink:href="#DejaVuSans-53" transform="translate(155.761719 0)"/>
      <use xlink:href="#DejaVuSans-46" transform="translate(219.238281 0)"/>
      <use xlink:href="#DejaVuSans-20" transform="translate(276.757812 0)"/>
      <use xlink:href="#DejaVuSans-28" transform="translate(308.544922 0)"/>
      <use xlink:href="#DejaVuSans-41" transform="translate(347.558594 0)"/>
      <use xlink:href="#DejaVuSans-29" transform="translate(415.966797 0)"/>
     </g>
    </g>
   </g>
   <g id="line2d_33">
    <path d="M 65.718466 134.337692 
L 66.360144 141.788961 
L 67.001823 237.42283 
L 67.643501 239.511344 
L 68.285179 239.846443 
L 68.926858 239.684124 
L 69.568536 240.340936 
L 70.210214 241.258384 
L 71.493571 239.798954 
L 72.135249 239.990868 
L 72.776927 240.384306 
L 73.418606 239.405091 
L 74.060284 238.769258 
L 74.701962 239.114325 
L 75.343641 237.922251 
L 75.985319 237.464155 
L 76.626997 239.2836 
L 77.268676 240.437483 
L 77.910354 239.180833 
L 78.552032 237.362587 
L 79.193711 238.433133 
L 79.835389 241.047439 
L 80.477067 236.66283 
L 81.118746 233.721492 
L 81.760424 237.726815 
L 82.402102 240.649115 
L 83.043781 238.456353 
L 83.685459 239.357974 
L 84.327137 237.429373 
L 84.968816 239.364883 
L 85.610494 239.408118 
L 86.252172 238.84381 
L 87.535529 242.412545 
L 88.177207 242.591225 
L 88.818885 241.609435 
L 89.460564 240.934881 
L 90.102242 239.911878 
L 90.74392 240.406546 
L 91.385599 238.570282 
L 92.027277 240.304381 
L 92.668955 239.80335 
L 93.310634 241.713225 
L 93.952312 241.442886 
L 95.235669 242.534916 
L 95.877347 242.57416 
L 96.519025 242.40994 
L 97.160704 240.975665 
L 97.802382 241.257542 
L 98.44406 242.66929 
L 99.085739 242.14085 
L 99.727417 240.575825 
L 101.010774 242.352495 
L 101.652452 241.698725 
L 102.29413 242.328563 
L 102.935809 241.75942 
L 103.577487 242.78724 
L 104.219165 242.076207 
L 104.860844 242.148768 
L 105.502522 240.682697 
L 106.1442 242.127843 
L 106.785878 242.668617 
L 107.427557 242.134139 
L 108.069235 241.862025 
L 108.710913 241.786284 
L 109.352592 241.328805 
L 109.99427 239.255298 
L 110.635948 239.817745 
L 111.277627 239.649992 
L 111.919305 240.902428 
L 112.560983 240.919253 
L 113.202662 242.055179 
L 114.486018 242.180882 
L 115.127697 242.851295 
L 115.769375 242.86772 
L 117.052732 242.39809 
L 117.69441 241.39167 
L 118.336088 239.698782 
L 118.977767 240.192436 
L 119.619445 241.88773 
L 120.261123 240.42539 
L 120.902802 240.080383 
L 121.54448 241.179767 
L 122.186158 241.238881 
L 122.827837 241.533119 
L 123.469515 242.048561 
L 124.111193 241.388569 
L 125.39455 241.295258 
L 126.677906 241.66583 
L 127.319585 241.583425 
L 127.961263 240.34542 
L 128.602941 239.378603 
L 129.24462 238.703801 
L 129.886298 237.641989 
L 130.527976 239.291422 
L 131.169655 238.946106 
L 131.811333 241.685509 
L 132.453011 241.29796 
L 133.09469 241.852009 
L 133.736368 240.850915 
L 134.378046 241.258297 
L 135.019725 240.467956 
L 135.661403 238.674154 
L 136.303081 239.831232 
L 136.94476 240.730612 
L 137.586438 238.34406 
L 138.228116 236.832813 
L 138.869795 237.312003 
L 139.511473 237.956313 
L 140.153151 239.453423 
L 141.436508 241.244085 
L 142.078186 241.389846 
L 142.719865 240.461931 
L 144.003221 242.638843 
L 145.286578 240.322388 
L 145.928256 240.983501 
L 146.569934 241.805795 
L 147.211613 239.591649 
L 147.853291 238.022934 
L 148.494969 239.791245 
L 149.136648 239.384232 
L 149.778326 238.640185 
L 151.061683 240.594497 
L 152.345039 240.665439 
L 152.986718 240.973824 
L 153.628396 241.420003 
L 154.270074 238.246396 
L 154.911753 238.635919 
L 155.553431 241.711763 
L 156.836788 238.451474 
L 158.120144 241.755262 
L 158.761823 240.837709 
L 159.403501 240.205773 
L 160.045179 240.697728 
L 161.328536 237.365364 
L 161.970214 236.8849 
L 162.611892 233.794047 
L 163.253571 236.272536 
L 163.895249 234.947436 
L 165.178606 235.235564 
L 165.820284 233.515689 
L 166.461962 234.5249 
L 167.103641 238.586922 
L 167.745319 234.256456 
L 168.386997 232.450005 
L 169.028676 235.116496 
L 169.670354 234.692558 
L 170.312032 235.247011 
L 170.953711 236.467198 
L 171.595389 236.616109 
L 172.237067 237.477011 
L 172.878746 240.174716 
L 173.520424 240.81404 
L 174.803781 240.459999 
L 175.445459 241.344367 
L 176.087137 241.721121 
L 176.728816 242.648805 
L 177.370494 242.028429 
L 178.012172 242.560914 
L 178.653851 242.293436 
L 179.295529 241.619407 
L 179.937207 241.963374 
L 180.578885 241.02437 
L 181.220564 241.557092 
L 181.862242 242.268752 
L 183.145599 241.731658 
L 183.787277 242.183482 
L 184.428955 241.726433 
L 185.070634 241.794494 
L 185.712312 242.193531 
L 186.35399 242.09242 
L 186.995669 241.068777 
L 187.637347 241.899563 
L 188.279025 242.534655 
L 188.920704 242.263892 
L 189.562382 241.801226 
L 190.20406 242.220676 
L 190.845739 241.787708 
L 191.487417 241.151515 
L 192.129095 241.462406 
L 192.770774 242.016451 
L 193.412452 241.697257 
L 194.05413 240.555315 
L 195.337487 240.382816 
L 195.979165 237.63719 
L 196.620844 237.962484 
L 197.262522 237.727251 
L 197.9042 238.978707 
L 198.545878 239.648845 
L 199.187557 240.844969 
L 200.470913 239.808344 
L 201.112592 240.783712 
L 201.75427 241.299143 
L 202.395948 239.070404 
L 203.037627 238.146296 
L 203.679305 237.816453 
L 204.320983 237.756097 
L 204.962662 238.565259 
L 206.246018 233.623774 
L 206.887697 233.151547 
L 207.529375 228.234903 
L 208.812732 215.499196 
L 209.45441 212.694486 
L 210.096088 210.465095 
L 210.737767 205.269809 
L 212.021123 217.304331 
L 213.30448 229.167417 
L 213.946158 226.637474 
L 214.587837 229.767921 
L 215.229515 228.173501 
L 215.871193 231.843649 
L 216.512872 236.273963 
L 217.15455 236.747374 
L 217.796228 238.051664 
L 218.437906 237.651318 
L 219.079585 237.036342 
L 219.721263 239.319627 
L 220.362941 240.471591 
L 221.00462 240.763165 
L 221.646298 240.68171 
L 222.287976 239.712693 
L 222.929655 239.053297 
L 223.571333 239.432085 
L 224.213011 237.637273 
L 224.85469 236.572194 
L 225.496368 232.946661 
L 226.138046 234.124139 
L 226.779725 229.633957 
L 227.421403 237.351158 
L 228.063081 240.659121 
L 228.70476 240.277455 
L 229.346438 240.567093 
L 229.988116 240.552631 
L 231.271473 240.197951 
L 233.196508 241.021294 
L 233.838186 241.954847 
L 234.479865 242.216076 
L 235.121543 242.04682 
L 235.763221 242.226391 
L 236.404899 241.011767 
L 237.046578 237.912253 
L 237.688256 238.66196 
L 238.971613 239.470964 
L 240.254969 236.369664 
L 240.896648 237.12464 
L 241.538326 241.219799 
L 242.180004 235.509909 
L 242.821683 238.263103 
L 243.463361 238.974587 
L 244.105039 238.787191 
L 244.746718 240.175259 
L 245.388396 239.778268 
L 246.030074 239.036983 
L 246.671753 240.659063 
L 247.313431 237.788634 
L 247.955109 228.111983 
L 248.596788 241.743389 
L 249.238466 242.449373 
L 250.521823 241.711042 
L 251.163501 242.502204 
L 251.805179 242.757111 
L 252.446858 242.383242 
L 253.730214 242.382239 
L 254.371892 242.174872 
L 255.013571 242.523158 
L 255.655249 242.634323 
L 256.296927 242.34062 
L 256.938606 242.217953 
L 258.221962 242.569936 
L 258.863641 242.148408 
L 259.505319 242.91227 
L 260.146997 242.794303 
L 260.788676 243.062943 
L 262.072032 242.809203 
L 262.713711 242.637163 
L 263.355389 242.906623 
L 264.638746 242.863592 
L 265.280424 242.368414 
L 265.922102 242.418403 
L 266.563781 242.593761 
L 267.205459 242.527604 
L 267.847137 241.726661 
L 269.772172 240.281138 
L 270.413851 239.642722 
L 271.055529 238.248503 
L 271.697207 238.264518 
L 272.338885 239.081483 
L 272.980564 239.195946 
L 273.622242 238.332334 
L 274.26392 236.495847 
L 275.547277 233.90557 
L 276.188955 231.010104 
L 276.830634 233.816423 
L 277.472312 236.119031 
L 278.11399 232.716087 
L 278.755669 232.038673 
L 279.397347 232.10201 
L 280.039025 228.997072 
L 280.680704 222.97707 
L 281.322382 224.529083 
L 281.96406 228.568973 
L 283.247417 223.621389 
L 283.889095 232.896262 
L 284.530774 237.572372 
L 285.172452 240.492947 
L 287.097487 242.417403 
L 287.739165 241.370691 
L 288.380844 240.685213 
L 289.022522 240.709874 
L 289.6642 240.972957 
L 290.947557 240.236559 
L 292.230913 240.122448 
L 292.872592 239.492641 
L 293.51427 239.63128 
L 294.155948 239.455658 
L 294.797627 240.816099 
L 295.439305 241.444178 
L 296.080983 241.597434 
L 296.722662 242.518525 
L 297.36434 242.827913 
L 298.006018 242.206582 
L 298.647697 241.929059 
L 299.289375 242.331486 
L 299.931053 242.371834 
L 300.572732 241.317604 
L 301.21441 240.89018 
L 301.856088 241.011359 
L 302.497767 239.752785 
L 303.139445 235.368452 
L 303.781123 235.207511 
L 304.422802 236.693288 
L 305.06448 236.686059 
L 305.706158 238.449978 
L 306.347837 239.253931 
L 306.989515 240.617178 
L 307.631193 240.91522 
L 308.272872 242.504561 
L 309.556228 243.034411 
L 311.481263 242.826532 
L 312.122941 242.738633 
L 313.406298 242.285073 
L 314.047976 242.514159 
L 315.331333 241.883415 
L 315.973011 240.640492 
L 316.61469 239.72802 
L 317.256368 238.1802 
L 317.898046 237.761773 
L 319.181403 234.209577 
L 319.823081 236.345631 
L 320.46476 233.609368 
L 321.106438 233.617327 
L 321.748116 234.284834 
L 322.389795 237.928753 
L 323.031473 239.286896 
L 323.673151 238.477728 
L 324.31483 238.181577 
L 324.956508 239.701357 
L 325.598186 240.168404 
L 326.239865 239.440242 
L 326.881543 239.078318 
L 327.523221 240.801014 
L 328.164899 239.651817 
L 328.806578 238.076007 
L 329.448256 239.410528 
L 330.089934 239.541192 
L 330.731613 237.292986 
L 332.014969 238.364064 
L 332.656648 236.647458 
L 333.298326 235.742526 
L 333.940004 236.488241 
L 334.581683 235.696993 
L 335.223361 235.727293 
L 335.865039 234.591536 
L 336.506718 234.7464 
L 337.148396 237.440789 
L 337.790074 235.624336 
L 338.431753 233.425136 
L 339.073431 234.387648 
L 339.715109 233.512524 
L 340.356788 228.175313 
L 340.998466 231.730599 
L 341.640144 236.763822 
L 342.281823 239.198759 
L 342.923501 238.954478 
L 343.565179 238.365891 
L 344.206858 239.192536 
L 344.848536 240.511852 
L 345.490214 240.110344 
L 346.131892 239.483995 
L 346.773571 239.624126 
L 347.415249 240.900427 
L 348.698606 241.749737 
L 349.340284 241.48816 
L 349.981962 242.477321 
L 350.623641 242.451916 
L 351.265319 242.13747 
L 351.906997 242.125064 
L 352.548676 241.710916 
L 353.832032 242.392857 
L 354.473711 241.62903 
L 357.040424 240.836951 
L 357.682102 238.286929 
L 358.323781 238.462833 
L 358.965459 239.055933 
L 359.607137 238.813049 
L 360.248816 240.316556 
L 360.890494 240.919954 
L 361.532172 241.357345 
L 362.173851 241.141828 
L 362.815529 240.54567 
L 363.457207 240.675231 
L 364.098885 241.346261 
L 365.382242 239.57374 
L 366.665599 240.545026 
L 367.307277 240.292848 
L 367.948955 240.723028 
L 368.590634 240.991127 
L 369.232312 240.531673 
L 369.87399 240.899686 
L 370.515669 240.965634 
L 371.157347 240.388635 
L 371.799025 240.072354 
L 372.440704 240.508919 
L 373.082382 239.883489 
L 373.72406 238.102736 
L 374.365739 237.586875 
L 375.007417 238.516745 
L 375.649095 237.612554 
L 376.290774 235.262367 
L 376.932452 226.88241 
L 377.57413 225.116121 
L 378.857487 216.154004 
L 379.499165 222.877547 
L 380.140844 222.033209 
L 380.782522 206.702107 
L 381.4242 209.589321 
L 382.065878 211.04066 
L 382.707557 222.481855 
L 383.349235 227.672015 
L 383.990913 231.895528 
L 384.632592 232.169059 
L 385.27427 232.17083 
L 385.915948 229.640371 
L 386.557627 235.554331 
L 387.199305 237.009932 
L 387.840983 233.397254 
L 388.482662 237.32028 
L 389.12434 239.389168 
L 389.766018 240.757811 
L 390.407697 241.261337 
L 391.049375 241.094668 
L 391.691053 241.250223 
L 392.332732 241.961214 
L 392.97441 241.617235 
L 393.616088 240.316013 
L 394.899445 242.225977 
L 395.541123 241.187347 
L 396.182802 240.933089 
L 396.82448 241.811152 
L 398.107837 240.601011 
L 399.391193 241.292384 
L 400.032872 239.916791 
L 400.67455 239.391023 
L 401.316228 239.905332 
L 401.957906 239.717715 
L 402.599585 238.121067 
L 403.241263 238.031798 
L 403.882941 238.310187 
L 404.52462 235.858203 
L 405.807976 238.111026 
L 406.449655 238.415131 
L 407.091333 238.520315 
L 407.733011 238.32174 
L 408.37469 239.78815 
L 409.016368 239.870564 
L 409.658046 237.632886 
L 410.299725 238.615737 
L 410.941403 239.809598 
L 411.583081 239.992455 
L 412.22476 239.881047 
L 412.866438 237.560075 
L 413.508116 237.231605 
L 414.149795 236.030067 
L 414.791473 230.356029 
L 415.433151 229.996099 
L 416.07483 226.278151 
L 416.716508 231.852449 
L 417.358186 230.525421 
L 417.999865 230.655544 
L 418.641543 229.309657 
L 419.283221 227.400316 
L 419.924899 229.769375 
L 420.566578 235.913939 
L 421.208256 237.461963 
L 421.849934 234.967624 
L 422.491613 237.49416 
L 423.774969 240.020199 
L 424.416648 238.297091 
L 425.058326 235.838571 
L 425.700004 235.249842 
L 426.341683 240.023994 
L 427.625039 239.012471 
L 428.266718 239.84133 
L 428.908396 241.321125 
L 429.550074 241.214522 
L 430.191753 240.452523 
L 430.833431 241.116232 
L 431.475109 241.365344 
L 432.116788 240.695982 
L 432.758466 240.686021 
L 433.400144 240.94077 
L 434.041823 240.400683 
L 434.683501 240.351023 
L 435.325179 240.434627 
L 435.966858 240.19744 
L 437.891892 241.12392 
L 438.533571 241.568802 
L 439.175249 240.725802 
L 439.816927 240.493207 
L 440.458606 240.420193 
L 441.100284 238.942403 
L 441.100284 238.942403 
" clip-path="url(#p130cd90e38)" style="fill: none; stroke: #1f77b4; stroke-width: 0.9; stroke-linecap: square"/>
   </g>
   <g id="line2d_34">
    <path d="M 65.718466 35.181728 
L 66.360144 158.505377 
L 67.001823 231.17166 
L 67.643501 231.680933 
L 68.285179 233.960221 
L 68.926858 235.552637 
L 70.210214 237.933892 
L 70.851892 239.3894 
L 71.493571 238.588705 
L 72.135249 238.089779 
L 72.776927 239.352132 
L 73.418606 239.560004 
L 74.060284 237.975249 
L 74.701962 238.99262 
L 75.343641 239.561098 
L 75.985319 237.162419 
L 76.626997 237.102021 
L 77.268676 240.03766 
L 77.910354 237.406371 
L 78.552032 235.647488 
L 79.193711 237.946709 
L 79.835389 238.235412 
L 80.477067 235.444468 
L 81.118746 235.89585 
L 81.760424 235.263767 
L 82.402102 230.602077 
L 83.043781 224.555771 
L 83.685459 230.035918 
L 84.327137 230.504628 
L 84.968816 233.915324 
L 85.610494 235.355564 
L 86.252172 230.834922 
L 86.893851 228.879328 
L 88.177207 240.146549 
L 88.818885 241.543756 
L 89.460564 241.137404 
L 90.102242 239.782916 
L 90.74392 241.554707 
L 91.385599 240.177613 
L 92.027277 241.772491 
L 92.668955 240.666586 
L 93.310634 241.859054 
L 93.952312 242.417576 
L 94.59399 242.51759 
L 95.235669 242.95763 
L 95.877347 242.710524 
L 97.160704 243.171928 
L 98.44406 242.449854 
L 99.085739 241.255022 
L 99.727417 241.630791 
L 100.369095 240.190072 
L 101.010774 240.473868 
L 101.652452 241.640134 
L 102.29413 241.389924 
L 102.935809 240.96137 
L 103.577487 241.312431 
L 104.219165 242.241338 
L 104.860844 242.576343 
L 105.502522 241.007617 
L 106.785878 242.881186 
L 107.427557 242.25584 
L 108.069235 240.695469 
L 108.710913 240.472238 
L 109.352592 241.413063 
L 109.99427 239.866165 
L 110.635948 239.197686 
L 111.277627 240.066098 
L 111.919305 241.225932 
L 112.560983 241.915922 
L 113.202662 242.193991 
L 114.486018 241.916336 
L 115.127697 242.173008 
L 115.769375 242.943082 
L 116.411053 242.936163 
L 117.052732 243.348557 
L 118.336088 242.480245 
L 118.977767 242.327303 
L 120.261123 242.731293 
L 120.902802 242.085664 
L 121.54448 241.89642 
L 122.186158 242.942354 
L 123.469515 242.671743 
L 124.111193 241.708046 
L 124.752872 242.58654 
L 126.036228 242.121936 
L 126.677906 242.458316 
L 127.319585 243.08855 
L 128.602941 240.960818 
L 129.24462 241.148837 
L 129.886298 240.579415 
L 130.527976 241.832126 
L 131.169655 239.805976 
L 131.811333 238.803794 
L 132.453011 238.187911 
L 133.09469 241.765147 
L 133.736368 242.105426 
L 135.019725 241.712159 
L 135.661403 241.952904 
L 136.303081 241.91579 
L 136.94476 242.080902 
L 137.586438 241.279682 
L 138.869795 235.410675 
L 139.511473 238.837035 
L 140.153151 239.7533 
L 140.79483 241.333597 
L 142.719865 241.331707 
L 143.361543 242.182713 
L 144.003221 242.475425 
L 144.644899 241.664018 
L 145.286578 241.662251 
L 145.928256 242.254824 
L 146.569934 241.985986 
L 147.211613 241.556072 
L 147.853291 242.113219 
L 148.494969 243.020562 
L 149.136648 242.306649 
L 149.778326 240.870922 
L 150.420004 241.876554 
L 151.061683 242.598958 
L 151.703361 242.933815 
L 152.345039 242.233709 
L 152.986718 242.326683 
L 153.628396 242.096404 
L 154.270074 240.875921 
L 154.911753 241.821311 
L 155.553431 240.971431 
L 156.195109 240.412329 
L 156.836788 241.623284 
L 157.478466 242.45919 
L 158.120144 241.920098 
L 158.761823 239.902066 
L 159.403501 239.888623 
L 160.045179 240.495104 
L 160.686858 238.345589 
L 161.328536 238.480928 
L 162.611892 235.198478 
L 163.253571 234.352175 
L 163.895249 238.00655 
L 164.536927 234.371821 
L 165.178606 234.218693 
L 166.461962 238.349305 
L 167.103641 240.449389 
L 167.745319 239.648329 
L 168.386997 239.65048 
L 169.028676 241.119055 
L 169.670354 240.672389 
L 170.312032 240.971398 
L 170.953711 241.835414 
L 171.595389 241.13595 
L 172.237067 239.078188 
L 172.878746 239.401823 
L 173.520424 241.545399 
L 174.162102 238.801274 
L 174.803781 238.316729 
L 175.445459 234.163485 
L 176.087137 238.699554 
L 176.728816 241.962563 
L 177.370494 241.454207 
L 178.012172 241.741977 
L 178.653851 242.53958 
L 179.295529 242.962141 
L 180.578885 239.986907 
L 181.220564 241.58987 
L 181.862242 241.27286 
L 182.50392 241.362469 
L 183.145599 241.870966 
L 183.787277 242.163657 
L 184.428955 242.176741 
L 185.070634 242.757319 
L 185.712312 242.897821 
L 186.35399 241.874446 
L 186.995669 241.634572 
L 187.637347 242.400274 
L 188.279025 242.83552 
L 188.920704 242.649053 
L 189.562382 242.26459 
L 190.20406 242.41472 
L 190.845739 242.432639 
L 191.487417 241.484753 
L 192.129095 241.445686 
L 192.770774 242.036734 
L 193.412452 241.822325 
L 194.695809 240.418059 
L 195.337487 239.920826 
L 195.979165 238.564611 
L 196.620844 239.979465 
L 197.262522 240.1755 
L 197.9042 238.526669 
L 198.545878 238.406636 
L 199.187557 240.521166 
L 199.829235 239.958685 
L 200.470913 239.031179 
L 201.75427 240.713448 
L 202.395948 238.896801 
L 203.037627 237.663537 
L 203.679305 238.900851 
L 204.320983 236.633203 
L 204.962662 236.776629 
L 205.60434 235.859386 
L 206.246018 231.976777 
L 207.529375 216.776401 
L 208.171053 223.248814 
L 208.812732 211.473016 
L 209.45441 218.80667 
L 210.096088 215.461291 
L 210.737767 209.435627 
L 212.021123 220.631431 
L 212.662802 220.556201 
L 213.30448 225.742521 
L 213.946158 226.22035 
L 214.587837 226.136055 
L 215.229515 227.647864 
L 215.871193 230.039312 
L 216.512872 231.98405 
L 217.15455 235.509806 
L 217.796228 235.776996 
L 218.437906 233.546248 
L 219.079585 233.027172 
L 219.721263 237.55659 
L 220.362941 240.033787 
L 221.00462 240.890231 
L 221.646298 240.855804 
L 222.287976 240.263666 
L 222.929655 239.215237 
L 223.571333 239.436458 
L 224.213011 236.54205 
L 224.85469 234.921547 
L 225.496368 228.332477 
L 226.138046 229.270614 
L 226.779725 225.690546 
L 228.063081 237.85081 
L 228.70476 239.443325 
L 229.346438 240.277352 
L 229.988116 239.346934 
L 230.629795 239.388229 
L 231.271473 240.091858 
L 231.913151 239.961884 
L 232.55483 241.11285 
L 233.196508 241.741147 
L 233.838186 241.823962 
L 235.121543 242.627942 
L 235.763221 242.13806 
L 236.404899 240.667515 
L 237.046578 239.669384 
L 237.688256 240.528982 
L 238.329934 240.793129 
L 238.971613 241.402464 
L 239.613291 240.830862 
L 240.896648 243.039347 
L 241.538326 243.11151 
L 242.180004 242.822459 
L 242.821683 242.398574 
L 243.463361 242.576387 
L 244.105039 242.499671 
L 244.746718 242.141656 
L 245.388396 242.513566 
L 246.030074 242.249789 
L 246.671753 242.53624 
L 247.313431 242.115826 
L 247.955109 241.048409 
L 249.238466 242.663676 
L 249.880144 242.103278 
L 250.521823 241.959877 
L 251.163501 242.857091 
L 251.805179 243.150294 
L 252.446858 242.683911 
L 253.088536 242.897122 
L 253.730214 243.242044 
L 254.371892 243.00435 
L 255.013571 243.149426 
L 255.655249 243.423017 
L 256.938606 242.30792 
L 258.221962 243.217245 
L 258.863641 242.449718 
L 259.505319 242.564521 
L 260.788676 243.032119 
L 262.072032 242.947124 
L 263.355389 243.145896 
L 263.997067 243.086091 
L 265.280424 242.22067 
L 265.922102 242.316554 
L 266.563781 242.558568 
L 267.205459 242.128783 
L 267.847137 241.961648 
L 268.488816 241.242652 
L 269.130494 239.661075 
L 270.413851 239.141808 
L 271.055529 238.143284 
L 271.697207 236.008567 
L 272.338885 237.955052 
L 272.980564 235.024198 
L 273.622242 234.424851 
L 274.26392 227.627963 
L 274.905599 228.960432 
L 275.547277 234.514607 
L 276.188955 231.707058 
L 276.830634 231.576879 
L 277.472312 237.957931 
L 278.755669 228.299965 
L 279.397347 231.29741 
L 280.039025 232.818444 
L 280.680704 229.058784 
L 281.322382 232.107569 
L 281.96406 232.439671 
L 282.605739 230.396791 
L 283.247417 232.758968 
L 283.889095 237.293852 
L 284.530774 239.850698 
L 285.81413 241.833783 
L 286.455809 241.757966 
L 287.097487 242.324357 
L 287.739165 242.004246 
L 288.380844 241.491961 
L 289.022522 240.532284 
L 289.6642 241.127208 
L 290.305878 241.202513 
L 290.947557 239.98383 
L 291.589235 239.708173 
L 292.230913 240.169986 
L 292.872592 238.579071 
L 293.51427 237.881188 
L 294.155948 238.848191 
L 294.797627 240.769205 
L 296.080983 240.899566 
L 296.722662 242.104852 
L 297.36434 242.821948 
L 298.006018 242.4738 
L 298.647697 242.437141 
L 299.289375 243.143214 
L 299.931053 242.982611 
L 300.572732 242.660685 
L 301.21441 242.782003 
L 301.856088 242.695881 
L 302.497767 242.883484 
L 303.139445 242.210648 
L 303.781123 241.332871 
L 304.422802 242.595286 
L 305.06448 243.491471 
L 305.706158 243.670313 
L 306.347837 243.27211 
L 306.989515 243.011005 
L 307.631193 243.155083 
L 308.272872 243.072897 
L 308.91455 242.719208 
L 309.556228 242.87267 
L 310.197906 242.759241 
L 310.839585 242.871835 
L 312.76462 242.724966 
L 313.406298 241.544835 
L 314.047976 240.981475 
L 314.689655 241.704045 
L 315.331333 241.082735 
L 315.973011 239.061471 
L 316.61469 235.106547 
L 317.256368 233.132921 
L 317.898046 234.667472 
L 318.539725 232.137226 
L 319.181403 231.217865 
L 319.823081 235.611626 
L 320.46476 234.845982 
L 321.748116 236.893631 
L 322.389795 239.538046 
L 323.031473 240.465855 
L 323.673151 239.602304 
L 324.31483 239.735094 
L 324.956508 240.743172 
L 325.598186 239.82487 
L 326.239865 238.182376 
L 326.881543 238.481592 
L 327.523221 241.127235 
L 328.164899 241.121917 
L 328.806578 240.320121 
L 329.448256 240.708958 
L 330.089934 241.329341 
L 330.731613 240.773972 
L 331.373291 239.768399 
L 332.014969 240.004244 
L 332.656648 240.469806 
L 333.940004 238.895708 
L 334.581683 239.377619 
L 335.223361 239.64149 
L 335.865039 237.950616 
L 336.506718 238.197625 
L 337.148396 239.745054 
L 337.790074 237.79503 
L 338.431753 236.507876 
L 339.073431 237.655259 
L 339.715109 236.121511 
L 340.356788 236.05107 
L 340.998466 233.683202 
L 341.640144 237.794454 
L 342.281823 239.155307 
L 342.923501 239.871354 
L 343.565179 237.491433 
L 344.206858 237.343051 
L 344.848536 239.997408 
L 345.490214 239.651782 
L 346.131892 236.976662 
L 346.773571 238.078199 
L 347.415249 240.242242 
L 348.056927 240.290238 
L 349.340284 241.690667 
L 349.981962 241.409154 
L 350.623641 241.693844 
L 351.265319 241.539374 
L 351.906997 241.615586 
L 352.548676 241.850325 
L 353.832032 241.406397 
L 354.473711 240.951071 
L 355.115389 241.145841 
L 355.757067 241.18895 
L 356.398746 241.010131 
L 357.040424 240.997872 
L 357.682102 240.164225 
L 358.323781 240.497182 
L 358.965459 239.798977 
L 359.607137 239.755817 
L 360.248816 241.300186 
L 360.890494 241.262169 
L 361.532172 241.5544 
L 362.173851 240.274219 
L 362.815529 240.595022 
L 363.457207 241.513267 
L 364.740564 240.280096 
L 365.382242 240.344072 
L 366.02392 240.606563 
L 366.665599 239.674193 
L 367.948955 240.634536 
L 368.590634 240.522981 
L 369.232312 240.047986 
L 369.87399 240.672476 
L 370.515669 240.14376 
L 371.157347 239.784649 
L 371.799025 239.924087 
L 372.440704 239.91192 
L 373.72406 238.195635 
L 375.007417 234.770935 
L 375.649095 233.605866 
L 376.290774 235.200704 
L 376.932452 229.975026 
L 377.57413 223.571042 
L 378.215809 221.149178 
L 378.857487 216.504914 
L 379.499165 221.125068 
L 380.140844 227.697079 
L 381.4242 218.345652 
L 382.065878 218.664892 
L 383.349235 223.596472 
L 383.990913 225.628743 
L 384.632592 224.544509 
L 385.27427 228.70847 
L 385.915948 227.0501 
L 386.557627 223.702289 
L 387.199305 227.175979 
L 387.840983 231.955977 
L 388.482662 238.385597 
L 389.766018 240.401568 
L 390.407697 240.98123 
L 391.691053 241.657139 
L 392.332732 242.087267 
L 392.97441 242.159955 
L 393.616088 241.218207 
L 394.257767 242.06359 
L 394.899445 242.552479 
L 395.541123 241.573852 
L 396.182802 241.173485 
L 396.82448 241.95629 
L 397.466158 241.630258 
L 398.107837 240.827416 
L 398.749515 241.14723 
L 399.391193 241.703405 
L 400.67455 240.198026 
L 401.316228 240.674589 
L 401.957906 240.916164 
L 402.599585 238.911629 
L 403.241263 238.197825 
L 403.882941 239.202246 
L 404.52462 238.387251 
L 405.807976 239.770919 
L 406.449655 238.684077 
L 407.091333 238.597402 
L 407.733011 238.847598 
L 408.37469 240.195034 
L 409.016368 239.86407 
L 409.658046 239.341135 
L 410.299725 239.082882 
L 410.941403 240.058624 
L 411.583081 239.527942 
L 412.22476 238.492178 
L 412.866438 236.687248 
L 413.508116 238.230537 
L 414.149795 236.734316 
L 414.791473 234.775715 
L 415.433151 237.108948 
L 416.07483 235.896888 
L 416.716508 235.633033 
L 417.358186 234.516826 
L 417.999865 235.293813 
L 418.641543 232.350337 
L 419.283221 232.351043 
L 419.924899 229.863546 
L 420.566578 231.720911 
L 421.208256 237.585436 
L 421.849934 237.430049 
L 422.491613 233.546428 
L 423.133291 231.307325 
L 423.774969 236.103661 
L 425.058326 233.149802 
L 426.341683 238.777328 
L 426.983361 237.063839 
L 427.625039 236.43698 
L 428.908396 240.854167 
L 429.550074 240.592735 
L 430.191753 239.555219 
L 430.833431 240.165389 
L 431.475109 241.142699 
L 432.116788 239.591982 
L 432.758466 238.630995 
L 433.400144 239.464032 
L 434.041823 239.403936 
L 434.683501 238.004594 
L 435.325179 238.365372 
L 435.966858 239.986915 
L 436.608536 239.58041 
L 437.250214 239.313466 
L 437.891892 240.26851 
L 438.533571 240.875589 
L 439.175249 239.66529 
L 439.816927 239.886088 
L 440.458606 240.827003 
L 441.100284 240.216996 
L 441.100284 240.216996 
" clip-path="url(#p130cd90e38)" style="fill: none; stroke: #2ca02c; stroke-width: 0.9; stroke-linecap: square"/>
   </g>
   <g id="line2d_35">
    <path d="M 65.718466 31.990312 
L 66.360144 97.178011 
L 67.001823 232.340874 
L 67.643501 238.409151 
L 68.285179 239.130384 
L 68.926858 237.147945 
L 69.568536 237.40045 
L 70.210214 239.927508 
L 70.851892 239.881365 
L 71.493571 238.352236 
L 72.135249 238.7707 
L 72.776927 240.316698 
L 73.418606 239.409954 
L 74.060284 238.125509 
L 74.701962 239.053721 
L 75.343641 240.231738 
L 76.626997 238.745335 
L 77.268676 239.426572 
L 77.910354 238.913793 
L 78.552032 238.006071 
L 79.193711 238.076558 
L 79.835389 236.436798 
L 81.118746 233.723151 
L 81.760424 231.855784 
L 82.402102 230.575947 
L 83.043781 228.275017 
L 83.685459 232.874262 
L 84.327137 227.341593 
L 84.968816 235.041109 
L 85.610494 237.060371 
L 86.252172 234.658534 
L 86.893851 236.594474 
L 87.535529 240.930707 
L 88.177207 241.318817 
L 88.818885 240.371474 
L 89.460564 240.379336 
L 90.102242 239.60241 
L 90.74392 240.650128 
L 91.385599 239.899602 
L 92.027277 241.108002 
L 92.668955 240.345073 
L 93.310634 241.111289 
L 93.952312 241.566278 
L 95.235669 241.938315 
L 95.877347 241.663106 
L 96.519025 242.351111 
L 97.160704 241.568981 
L 97.802382 241.427452 
L 98.44406 241.522124 
L 99.085739 240.218512 
L 99.727417 239.87983 
L 100.369095 240.270262 
L 101.010774 240.214832 
L 101.652452 241.400467 
L 102.935809 242.345413 
L 103.577487 242.047642 
L 104.219165 241.353447 
L 104.860844 241.835086 
L 105.502522 241.008983 
L 106.1442 241.206238 
L 106.785878 240.778152 
L 107.427557 241.247452 
L 108.069235 241.053827 
L 108.710913 240.382747 
L 109.352592 240.904013 
L 109.99427 239.859848 
L 110.635948 238.150171 
L 111.277627 239.243601 
L 111.919305 240.728034 
L 112.560983 240.521936 
L 113.84434 239.32203 
L 115.127697 239.354714 
L 115.769375 238.796157 
L 116.411053 238.899496 
L 117.052732 240.626224 
L 117.69441 240.718214 
L 118.977767 239.339535 
L 120.261123 241.220055 
L 120.902802 240.210039 
L 121.54448 240.574587 
L 122.186158 241.80415 
L 122.827837 241.737972 
L 123.469515 242.106782 
L 124.111193 242.032581 
L 124.752872 242.353967 
L 125.39455 242.002333 
L 126.036228 241.859406 
L 126.677906 242.439388 
L 127.319585 242.196526 
L 127.961263 241.736466 
L 128.602941 241.022564 
L 129.24462 240.776117 
L 129.886298 239.653956 
L 130.527976 240.090737 
L 131.169655 240.111335 
L 131.811333 242.669734 
L 133.09469 243.09778 
L 135.019725 242.820716 
L 135.661403 242.824039 
L 136.303081 242.245133 
L 136.94476 242.472603 
L 138.228116 240.909746 
L 138.869795 239.947379 
L 140.153151 241.994319 
L 141.436508 242.671175 
L 142.078186 242.387827 
L 142.719865 241.876702 
L 143.361543 242.320182 
L 144.003221 242.953271 
L 144.644899 242.392074 
L 145.286578 241.988219 
L 145.928256 242.109284 
L 146.569934 242.471778 
L 147.211613 241.617524 
L 147.853291 241.198825 
L 148.494969 241.885867 
L 149.136648 241.326293 
L 149.778326 239.70849 
L 150.420004 239.981447 
L 151.061683 242.045798 
L 151.703361 242.792698 
L 152.345039 242.001761 
L 152.986718 241.83715 
L 153.628396 242.45562 
L 154.270074 241.888571 
L 154.911753 242.183674 
L 155.553431 242.831256 
L 156.195109 242.323969 
L 156.836788 241.487789 
L 157.478466 241.933876 
L 158.761823 239.512898 
L 160.045179 240.472214 
L 160.686858 236.475074 
L 161.328536 233.841574 
L 161.970214 233.442053 
L 162.611892 227.214033 
L 163.253571 232.489524 
L 163.895249 236.216257 
L 164.536927 234.124067 
L 165.820284 237.469162 
L 166.461962 238.305866 
L 167.103641 239.944604 
L 167.745319 239.955153 
L 168.386997 239.617333 
L 169.028676 241.092818 
L 169.670354 240.969199 
L 170.312032 240.438984 
L 170.953711 241.659131 
L 171.595389 241.972513 
L 172.237067 241.018822 
L 172.878746 240.754328 
L 173.520424 241.595903 
L 174.162102 241.27518 
L 174.803781 240.547557 
L 175.445459 239.014628 
L 176.087137 238.651399 
L 176.728816 242.047757 
L 177.370494 240.221695 
L 178.012172 240.886079 
L 178.653851 242.165879 
L 179.295529 242.12359 
L 179.937207 241.725315 
L 180.578885 242.26139 
L 181.220564 240.999356 
L 181.862242 240.993639 
L 182.50392 241.912962 
L 183.145599 242.044872 
L 183.787277 242.398448 
L 184.428955 242.105419 
L 185.070634 242.160855 
L 185.712312 242.476661 
L 186.35399 241.661743 
L 186.995669 241.093772 
L 187.637347 241.976736 
L 188.279025 242.252742 
L 188.920704 241.672191 
L 189.562382 241.674161 
L 190.20406 242.203331 
L 190.845739 241.962017 
L 191.487417 240.992783 
L 192.770774 241.934238 
L 194.05413 240.149593 
L 194.695809 240.696927 
L 195.337487 240.506605 
L 195.979165 238.947774 
L 196.620844 239.161357 
L 197.262522 239.689148 
L 197.9042 238.485942 
L 198.545878 238.593042 
L 199.187557 240.050978 
L 200.470913 238.519277 
L 201.112592 239.687337 
L 201.75427 240.527399 
L 202.395948 238.708565 
L 203.037627 236.254161 
L 203.679305 238.220607 
L 204.320983 235.900701 
L 206.246018 231.711327 
L 206.887697 231.085741 
L 208.171053 201.373846 
L 208.812732 193.801753 
L 209.45441 195.732452 
L 210.096088 192.002389 
L 210.737767 192.015363 
L 211.379445 204.403745 
L 212.021123 205.600904 
L 212.662802 213.317661 
L 213.30448 224.042884 
L 213.946158 223.104912 
L 214.587837 228.113943 
L 215.229515 225.508294 
L 215.871193 227.379368 
L 216.512872 231.120355 
L 217.796228 235.89558 
L 218.437906 235.005203 
L 219.079585 235.152832 
L 219.721263 238.1528 
L 220.362941 240.006144 
L 222.287976 240.23484 
L 222.929655 239.507127 
L 224.213011 237.337151 
L 224.85469 234.571966 
L 225.496368 229.325413 
L 226.138046 231.864325 
L 226.779725 230.570513 
L 227.421403 233.402785 
L 228.063081 238.34135 
L 228.70476 237.400936 
L 229.346438 240.161426 
L 229.988116 239.602882 
L 230.629795 238.288956 
L 231.271473 240.115065 
L 231.913151 240.37534 
L 232.55483 239.935207 
L 233.196508 240.077477 
L 233.838186 241.006427 
L 234.479865 241.087944 
L 235.121543 240.895823 
L 235.763221 239.542477 
L 236.404899 238.985537 
L 237.046578 239.662291 
L 237.688256 240.532135 
L 238.329934 241.851188 
L 238.971613 241.720422 
L 239.613291 242.014183 
L 240.254969 241.713541 
L 240.896648 242.101403 
L 241.538326 242.639119 
L 242.180004 240.270985 
L 242.821683 241.590393 
L 243.463361 241.354946 
L 244.105039 241.673122 
L 244.746718 241.853132 
L 245.388396 241.364413 
L 246.030074 240.16614 
L 246.671753 240.401176 
L 247.313431 238.930402 
L 247.955109 227.894346 
L 248.596788 241.603159 
L 249.238466 242.092094 
L 249.880144 241.553881 
L 250.521823 241.585709 
L 251.163501 242.140188 
L 251.805179 242.418005 
L 253.730214 242.495215 
L 255.013571 242.977732 
L 255.655249 242.779321 
L 256.296927 241.734029 
L 256.938606 241.321294 
L 257.580284 241.895227 
L 258.863641 238.602245 
L 259.505319 240.304171 
L 261.430354 240.926479 
L 262.072032 240.611352 
L 262.713711 240.884565 
L 264.638746 242.198953 
L 265.280424 241.575123 
L 265.922102 241.886557 
L 266.563781 242.504676 
L 267.205459 242.590267 
L 267.847137 242.069217 
L 269.130494 241.628346 
L 269.772172 241.55312 
L 270.413851 239.565276 
L 271.055529 238.091143 
L 271.697207 238.570648 
L 272.338885 239.25584 
L 272.980564 239.241731 
L 273.622242 238.718652 
L 274.26392 235.84678 
L 274.905599 236.572402 
L 275.547277 237.096728 
L 276.188955 233.800437 
L 276.830634 234.679966 
L 277.472312 238.61251 
L 278.11399 236.544069 
L 278.755669 233.768157 
L 279.397347 235.970346 
L 280.039025 239.14769 
L 280.680704 237.656986 
L 281.322382 238.155642 
L 281.96406 236.93311 
L 282.605739 238.314736 
L 283.247417 235.318863 
L 283.889095 240.558458 
L 284.530774 240.707517 
L 285.172452 240.230953 
L 285.81413 241.201128 
L 286.455809 240.571794 
L 287.097487 241.574289 
L 287.739165 241.882679 
L 288.380844 241.523827 
L 289.022522 241.335321 
L 289.6642 241.305675 
L 290.305878 240.356333 
L 290.947557 240.475168 
L 291.589235 241.037756 
L 292.230913 241.300562 
L 293.51427 240.778715 
L 294.155948 240.674573 
L 294.797627 241.471502 
L 295.439305 241.806049 
L 296.080983 241.415284 
L 296.722662 241.795424 
L 297.36434 242.498444 
L 298.006018 242.22053 
L 298.647697 241.655141 
L 299.289375 242.262218 
L 299.931053 242.571373 
L 300.572732 242.671305 
L 301.21441 243.016548 
L 301.856088 242.651685 
L 302.497767 241.16081 
L 303.139445 240.815313 
L 303.781123 242.356317 
L 304.422802 242.40651 
L 305.06448 243.151603 
L 305.706158 242.360965 
L 306.347837 240.99766 
L 306.989515 242.888649 
L 307.631193 243.053672 
L 308.272872 242.753137 
L 310.197906 243.212688 
L 310.839585 243.275035 
L 312.122941 242.901923 
L 312.76462 242.603273 
L 314.047976 242.52668 
L 315.973011 240.775894 
L 316.61469 240.520169 
L 317.256368 238.425006 
L 317.898046 237.540681 
L 318.539725 235.894956 
L 319.181403 232.985769 
L 319.823081 235.842125 
L 320.46476 234.607077 
L 321.106438 236.723205 
L 321.748116 237.967499 
L 323.031473 239.725847 
L 323.673151 240.392103 
L 324.31483 239.918296 
L 324.956508 240.570158 
L 325.598186 240.386258 
L 326.239865 240.909728 
L 326.881543 240.491126 
L 327.523221 241.654458 
L 328.806578 238.13117 
L 329.448256 238.902994 
L 330.089934 239.87289 
L 330.731613 239.968028 
L 331.373291 239.302752 
L 332.014969 239.147188 
L 332.656648 239.793283 
L 333.298326 239.504827 
L 333.940004 238.482481 
L 334.581683 239.276847 
L 335.223361 239.650822 
L 335.865039 238.81554 
L 336.506718 239.124496 
L 337.148396 239.136601 
L 337.790074 237.741682 
L 338.431753 237.121304 
L 339.073431 238.547452 
L 339.715109 237.368852 
L 340.998466 226.78526 
L 341.640144 235.969296 
L 342.281823 239.442978 
L 342.923501 238.602547 
L 343.565179 239.74659 
L 344.206858 241.396678 
L 344.848536 241.171369 
L 346.773571 241.591201 
L 347.415249 241.59306 
L 348.056927 240.419576 
L 348.698606 240.309668 
L 349.340284 241.240997 
L 350.623641 242.146427 
L 351.265319 241.762173 
L 351.906997 241.741513 
L 352.548676 240.98349 
L 353.190354 241.66533 
L 353.832032 241.338949 
L 354.473711 240.157906 
L 355.115389 239.87319 
L 355.757067 241.549709 
L 356.398746 241.118331 
L 357.040424 241.023216 
L 357.682102 240.721822 
L 358.323781 240.910843 
L 358.965459 240.714863 
L 359.607137 240.850085 
L 360.248816 241.786762 
L 360.890494 241.918242 
L 361.532172 242.368248 
L 362.173851 241.472317 
L 362.815529 241.101825 
L 363.457207 241.356875 
L 364.098885 241.473874 
L 364.740564 240.724696 
L 365.382242 240.225119 
L 366.02392 240.879349 
L 366.665599 241.041973 
L 367.307277 241.010807 
L 368.590634 240.567186 
L 369.232312 240.593921 
L 369.87399 240.848403 
L 370.515669 240.431372 
L 371.157347 239.257702 
L 371.799025 239.167848 
L 372.440704 239.705157 
L 373.082382 238.544647 
L 373.72406 237.891815 
L 375.007417 235.166616 
L 375.649095 236.194003 
L 376.290774 234.864969 
L 376.932452 232.454449 
L 377.57413 224.715591 
L 378.215809 218.418451 
L 378.857487 209.301572 
L 379.499165 204.732127 
L 380.140844 220.172787 
L 380.782522 210.322111 
L 381.4242 214.399828 
L 382.065878 206.179204 
L 382.707557 217.360615 
L 383.349235 225.23343 
L 383.990913 227.015749 
L 384.632592 226.285282 
L 385.27427 227.923151 
L 385.915948 227.039465 
L 386.557627 232.687993 
L 387.199305 234.36666 
L 387.840983 232.382379 
L 388.482662 238.058485 
L 389.766018 240.448604 
L 390.407697 241.026352 
L 391.691053 241.053889 
L 392.332732 241.794726 
L 392.97441 241.808394 
L 393.616088 240.816072 
L 394.257767 241.961518 
L 394.899445 242.251674 
L 395.541123 241.254863 
L 396.182802 241.33363 
L 396.82448 241.83476 
L 397.466158 241.188786 
L 398.107837 240.918406 
L 398.749515 241.522198 
L 399.391193 241.664362 
L 400.032872 240.586277 
L 400.67455 240.300568 
L 401.316228 240.835758 
L 401.957906 241.082983 
L 402.599585 239.294792 
L 403.241263 238.538039 
L 403.882941 239.553348 
L 404.52462 238.39732 
L 405.166298 238.669467 
L 405.807976 239.345792 
L 407.091333 238.791621 
L 407.733011 239.838083 
L 408.37469 241.368032 
L 409.016368 241.177007 
L 409.658046 240.435997 
L 410.299725 239.464666 
L 410.941403 241.72114 
L 411.583081 241.369025 
L 412.22476 240.17846 
L 412.866438 237.474089 
L 413.508116 239.021064 
L 414.149795 236.691034 
L 414.791473 234.896306 
L 415.433151 233.938706 
L 416.07483 232.055279 
L 416.716508 234.455678 
L 417.358186 236.019029 
L 417.999865 238.659479 
L 418.641543 237.978136 
L 419.283221 234.404187 
L 419.924899 235.761566 
L 420.566578 231.471243 
L 421.208256 236.856353 
L 421.849934 231.170943 
L 422.491613 228.903366 
L 423.133291 230.963221 
L 423.774969 235.826574 
L 424.416648 231.999625 
L 425.700004 226.250925 
L 426.341683 230.005776 
L 426.983361 230.164528 
L 427.625039 232.621956 
L 428.266718 234.071541 
L 428.908396 237.676192 
L 429.550074 238.765315 
L 430.191753 238.97168 
L 430.833431 239.71757 
L 431.475109 240.996798 
L 432.116788 240.150319 
L 432.758466 240.051196 
L 433.400144 240.462261 
L 434.683501 239.429396 
L 436.608536 239.688372 
L 437.250214 239.67463 
L 438.533571 239.952268 
L 439.175249 239.020869 
L 439.816927 239.231584 
L 440.458606 240.12105 
L 441.100284 239.800188 
L 441.100284 239.800188 
" clip-path="url(#p130cd90e38)" style="fill: none; stroke: #d62728; stroke-width: 0.9; stroke-linecap: square"/>
   </g>
   <g id="patch_3">
    <path d="M 46.949375 254.254313 
L 46.949375 21.406313 
" style="fill: none; stroke: #000000; stroke-width: 0.8; stroke-linejoin: miter; stroke-linecap: square"/>
   </g>
   <g id="patch_4">
    <path d="M 459.869375 254.254313 
L 459.869375 21.406313 
" style="fill: none; stroke: #000000; stroke-width: 0.8; stroke-linejoin: miter; stroke-linecap: square"/>
   </g>
   <g id="patch_5">
    <path d="M 46.949375 254.254313 
L 459.869375 254.254313 
" style="fill: none; stroke: #000000; stroke-width: 0.8; stroke-linejoin: miter; stroke-linecap: square"/>
   </g>
   <g id="patch_6">
    <path d="M 46.949375 21.406313 
L 459.869375 21.406313 
" style="fill: none; stroke: #000000; stroke-width: 0.8; stroke-linejoin: miter; stroke-linecap: square"/>
   </g>
   <g id="text_19">
    <!-- SGLT2 Mol_13144 C-alpha RMSF across replicates -->
    <g transform="translate(119.552656 15.406313) scale(0.108 -0.108)">
     <defs>
      <path id="DejaVuSans-47" d="M 3809 666 
L 3809 1919 
L 2778 1919 
L 2778 2438 
L 4434 2438 
L 4434 434 
Q 4069 175 3628 42 
Q 3188 -91 2688 -91 
Q 1594 -91 976 548 
Q 359 1188 359 2328 
Q 359 3472 976 4111 
Q 1594 4750 2688 4750 
Q 3144 4750 3555 4637 
Q 3966 4525 4313 4306 
L 4313 3634 
Q 3963 3931 3569 4081 
Q 3175 4231 2741 4231 
Q 1884 4231 1454 3753 
Q 1025 3275 1025 2328 
Q 1025 1384 1454 906 
Q 1884 428 2741 428 
Q 3075 428 3337 486 
Q 3600 544 3809 666 
z
" transform="scale(0.015625)"/>
      <path id="DejaVuSans-4c" d="M 628 4666 
L 1259 4666 
L 1259 531 
L 3531 531 
L 3531 0 
L 628 0 
L 628 4666 
z
" transform="scale(0.015625)"/>
      <path id="DejaVuSans-54" d="M -19 4666 
L 3928 4666 
L 3928 4134 
L 2272 4134 
L 2272 0 
L 1638 0 
L 1638 4134 
L -19 4134 
L -19 4666 
z
" transform="scale(0.015625)"/>
      <path id="DejaVuSans-6f" d="M 1959 3097 
Q 1497 3097 1228 2736 
Q 959 2375 959 1747 
Q 959 1119 1226 758 
Q 1494 397 1959 397 
Q 2419 397 2687 759 
Q 2956 1122 2956 1747 
Q 2956 2369 2687 2733 
Q 2419 3097 1959 3097 
z
M 1959 3584 
Q 2709 3584 3137 3096 
Q 3566 2609 3566 1747 
Q 3566 888 3137 398 
Q 2709 -91 1959 -91 
Q 1206 -91 779 398 
Q 353 888 353 1747 
Q 353 2609 779 3096 
Q 1206 3584 1959 3584 
z
" transform="scale(0.015625)"/>
      <path id="DejaVuSans-5f" d="M 3263 -1063 
L 3263 -1509 
L -63 -1509 
L -63 -1063 
L 3263 -1063 
z
" transform="scale(0.015625)"/>
      <path id="DejaVuSans-63" d="M 3122 3366 
L 3122 2828 
Q 2878 2963 2633 3030 
Q 2388 3097 2138 3097 
Q 1578 3097 1268 2742 
Q 959 2388 959 1747 
Q 959 1106 1268 751 
Q 1578 397 2138 397 
Q 2388 397 2633 464 
Q 2878 531 3122 666 
L 3122 134 
Q 2881 22 2623 -34 
Q 2366 -91 2075 -91 
Q 1284 -91 818 406 
Q 353 903 353 1747 
Q 353 2603 823 3093 
Q 1294 3584 2113 3584 
Q 2378 3584 2631 3529 
Q 2884 3475 3122 3366 
z
" transform="scale(0.015625)"/>
      <path id="DejaVuSans-72" d="M 2631 2963 
Q 2534 3019 2420 3045 
Q 2306 3072 2169 3072 
Q 1681 3072 1420 2755 
Q 1159 2438 1159 1844 
L 1159 0 
L 581 0 
L 581 3500 
L 1159 3500 
L 1159 2956 
Q 1341 3275 1631 3429 
Q 1922 3584 2338 3584 
Q 2397 3584 2469 3576 
Q 2541 3569 2628 3553 
L 2631 2963 
z
" transform="scale(0.015625)"/>
      <path id="DejaVuSans-73" d="M 2834 3397 
L 2834 2853 
Q 2591 2978 2328 3040 
Q 2066 3103 1784 3103 
Q 1356 3103 1142 2972 
Q 928 2841 928 2578 
Q 928 2378 1081 2264 
Q 1234 2150 1697 2047 
L 1894 2003 
Q 2506 1872 2764 1633 
Q 3022 1394 3022 966 
Q 3022 478 2636 193 
Q 2250 -91 1575 -91 
Q 1294 -91 989 -36 
Q 684 19 347 128 
L 347 722 
Q 666 556 975 473 
Q 1284 391 1588 391 
Q 1994 391 2212 530 
Q 2431 669 2431 922 
Q 2431 1156 2273 1281 
Q 2116 1406 1581 1522 
L 1381 1569 
Q 847 1681 609 1914 
Q 372 2147 372 2553 
Q 372 3047 722 3315 
Q 1072 3584 1716 3584 
Q 2034 3584 2315 3537 
Q 2597 3491 2834 3397 
z
" transform="scale(0.015625)"/>
      <path id="DejaVuSans-74" d="M 1172 4494 
L 1172 3500 
L 2356 3500 
L 2356 3053 
L 1172 3053 
L 1172 1153 
Q 1172 725 1289 603 
Q 1406 481 1766 481 
L 2356 481 
L 2356 0 
L 1766 0 
Q 1100 0 847 248 
Q 594 497 594 1153 
L 594 3053 
L 172 3053 
L 172 3500 
L 594 3500 
L 594 4494 
L 1172 4494 
z
" transform="scale(0.015625)"/>
     </defs>
     <use xlink:href="#DejaVuSans-53"/>
     <use xlink:href="#DejaVuSans-47" transform="translate(63.476562 0)"/>
     <use xlink:href="#DejaVuSans-4c" transform="translate(140.966797 0)"/>
     <use xlink:href="#DejaVuSans-54" transform="translate(182.929688 0)"/>
     <use xlink:href="#DejaVuSans-32" transform="translate(244.013672 0)"/>
     <use xlink:href="#DejaVuSans-20" transform="translate(307.636719 0)"/>
     <use xlink:href="#DejaVuSans-4d" transform="translate(339.423828 0)"/>
     <use xlink:href="#DejaVuSans-6f" transform="translate(425.703125 0)"/>
     <use xlink:href="#DejaVuSans-6c" transform="translate(486.884766 0)"/>
     <use xlink:href="#DejaVuSans-5f" transform="translate(514.667969 0)"/>
     <use xlink:href="#DejaVuSans-31" transform="translate(564.667969 0)"/>
     <use xlink:href="#DejaVuSans-33" transform="translate(628.291016 0)"/>
     <use xlink:href="#DejaVuSans-31" transform="translate(691.914062 0)"/>
     <use xlink:href="#DejaVuSans-34" transform="translate(755.537109 0)"/>
     <use xlink:href="#DejaVuSans-34" transform="translate(819.160156 0)"/>
     <use xlink:href="#DejaVuSans-20" transform="translate(882.783203 0)"/>
     <use xlink:href="#DejaVuSans-43" transform="translate(914.570312 0)"/>
     <use xlink:href="#DejaVuSans-2d" transform="translate(984.394531 0)"/>
     <use xlink:href="#DejaVuSans-61" transform="translate(1020.478516 0)"/>
     <use xlink:href="#DejaVuSans-6c" transform="translate(1081.757812 0)"/>
     <use xlink:href="#DejaVuSans-70" transform="translate(1109.541016 0)"/>
     <use xlink:href="#DejaVuSans-68" transform="translate(1173.017578 0)"/>
     <use xlink:href="#DejaVuSans-61" transform="translate(1236.396484 0)"/>
     <use xlink:href="#DejaVuSans-20" transform="translate(1297.675781 0)"/>
     <use xlink:href="#DejaVuSans-52" transform="translate(1329.462891 0)"/>
     <use xlink:href="#DejaVuSans-4d" transform="translate(1398.945312 0)"/>
     <use xlink:href="#DejaVuSans-53" transform="translate(1485.224609 0)"/>
     <use xlink:href="#DejaVuSans-46" transform="translate(1548.701172 0)"/>
     <use xlink:href="#DejaVuSans-20" transform="translate(1606.220703 0)"/>
     <use xlink:href="#DejaVuSans-61" transform="translate(1638.007812 0)"/>
     <use xlink:href="#DejaVuSans-63" transform="translate(1699.287109 0)"/>
     <use xlink:href="#DejaVuSans-72" transform="translate(1754.267578 0)"/>
     <use xlink:href="#DejaVuSans-6f" transform="translate(1793.130859 0)"/>
     <use xlink:href="#DejaVuSans-73" transform="translate(1854.3125 0)"/>
     <use xlink:href="#DejaVuSans-73" transform="translate(1906.412109 0)"/>
     <use xlink:href="#DejaVuSans-20" transform="translate(1958.511719 0)"/>
     <use xlink:href="#DejaVuSans-72" transform="translate(1990.298828 0)"/>
     <use xlink:href="#DejaVuSans-65" transform="translate(2029.162109 0)"/>
     <use xlink:href="#DejaVuSans-70" transform="translate(2090.685547 0)"/>
     <use xlink:href="#DejaVuSans-6c" transform="translate(2154.162109 0)"/>
     <use xlink:href="#DejaVuSans-69" transform="translate(2181.945312 0)"/>
     <use xlink:href="#DejaVuSans-63" transform="translate(2209.728516 0)"/>
     <use xlink:href="#DejaVuSans-61" transform="translate(2264.708984 0)"/>
     <use xlink:href="#DejaVuSans-74" transform="translate(2325.988281 0)"/>
     <use xlink:href="#DejaVuSans-65" transform="translate(2365.197266 0)"/>
     <use xlink:href="#DejaVuSans-73" transform="translate(2426.720703 0)"/>
    </g>
   </g>
   <g id="legend_1">
    <g id="line2d_36">
     <path d="M 278.744375 33.194906 
L 287.744375 33.194906 
L 296.744375 33.194906 
" style="fill: none; stroke: #1f77b4; stroke-width: 0.9; stroke-linecap: square"/>
    </g>
    <g id="text_20">
     <!-- rep1 -->
     <g transform="translate(303.944375 36.344906) scale(0.09 -0.09)">
      <use xlink:href="#DejaVuSans-72"/>
      <use xlink:href="#DejaVuSans-65" transform="translate(38.863281 0)"/>
      <use xlink:href="#DejaVuSans-70" transform="translate(100.386719 0)"/>
      <use xlink:href="#DejaVuSans-31" transform="translate(163.863281 0)"/>
     </g>
    </g>
    <g id="line2d_37">
     <path d="M 342.419375 33.194906 
L 351.419375 33.194906 
L 360.419375 33.194906 
" style="fill: none; stroke: #2ca02c; stroke-width: 0.9; stroke-linecap: square"/>
    </g>
    <g id="text_21">
     <!-- rep2 -->
     <g transform="translate(367.619375 36.344906) scale(0.09 -0.09)">
      <use xlink:href="#DejaVuSans-72"/>
      <use xlink:href="#DejaVuSans-65" transform="translate(38.863281 0)"/>
      <use xlink:href="#DejaVuSans-70" transform="translate(100.386719 0)"/>
      <use xlink:href="#DejaVuSans-32" transform="translate(163.863281 0)"/>
     </g>
    </g>
    <g id="line2d_38">
     <path d="M 406.094375 33.194906 
L 415.094375 33.194906 
L 424.094375 33.194906 
" style="fill: none; stroke: #d62728; stroke-width: 0.9; stroke-linecap: square"/>
    </g>
    <g id="text_22">
     <!-- rep3 -->
     <g transform="translate(431.294375 36.344906) scale(0.09 -0.09)">
      <use xlink:href="#DejaVuSans-72"/>
      <use xlink:href="#DejaVuSans-65" transform="translate(38.863281 0)"/>
      <use xlink:href="#DejaVuSans-70" transform="translate(100.386719 0)"/>
      <use xlink:href="#DejaVuSans-33" transform="translate(163.863281 0)"/>
     </g>
    </g>
   </g>
  </g>
 </g>
 <defs>
  <clipPath id="p130cd90e38">
   <rect x="46.949375" y="21.406313" width="412.92" height="232.848"/>
  </clipPath>
 </defs>
</svg>
