<?xml version="1.0" encoding="utf-8" standalone="no"?>
<!DOCTYPE svg PUBLIC "-//W3C//DTD SVG 1.1//EN"
  "http://www.w3.org/Graphics/SVG/1.1/DTD/svg11.dtd">
<svg xmlns:xlink="http://www.w3.org/1999/xlink" width="461.343125pt" height="488.860625pt" viewBox="0 0 461.343125 488.860625" xmlns="http://www.w3.org/2000/svg" version="1.1">
 <metadata>
  <rdf:RDF xmlns:dc="http://purl.org/dc/elements/1.1/" xmlns:cc="http://creativecommons.org/ns#" xmlns:rdf="http://www.w3.org/1999/02/22-rdf-syntax-ns#">
   <cc:Work>
    <dc:type rdf:resource="http://purl.org/dc/dcmitype/StillImage"/>
    <dc:date>2026-05-25T08:13:41.597922</dc:date>
    <dc:format>image/svg+xml</dc:format>
    <dc:creator>
     <cc:Agent>
      <dc:title>Matplotlib v3.10.9, https://matplotlib.org/</dc:title>
     </cc:Agent>
    </dc:creator>
   </cc:Work>
  </rdf:RDF>
 </metadata>
 <defs>
  <style type="text/css">*{stroke-linejoin: round; stroke-linecap: butt}</style>
 </defs>
 <g id="figure_1">
  <g id="patch_1">
   <path d="M 0 488.860625 
L 461.343125 488.860625 
L 461.343125 0 
L 0 0 
z
" style="fill: #ffffff"/>
  </g>
  <g id="axes_1">
   <g id="patch_2">
    <path d="M 41.223125 179.301176 
L 454.143125 179.301176 
L 454.143125 65.16 
L 41.223125 65.16 
z
" style="fill: #ffffff"/>
   </g>
   <g id="matplotlib.axis_1">
    <g id="xtick_1">
     <g id="line2d_1">
      <path d="M 59.992216 179.301176 
L 59.992216 65.16 
" clip-path="url(#pb2fba5b8e8)" style="fill: none; stroke: #b0b0b0; stroke-opacity: 0.25; stroke-width: 0.8; stroke-linecap: square"/>
     </g>
     <g id="line2d_2">
      <defs>
       <path id="m9bf55e7c69" d="M 0 0 
L 0 3.5 
" style="stroke: #000000; stroke-width: 0.8"/>
      </defs>
      <g>
       <use xlink:href="#m9bf55e7c69" x="59.992216" y="179.301176" style="stroke: #000000; stroke-width: 0.8"/>
      </g>
     </g>
    </g>
    <g id="xtick_2">
     <g id="line2d_3">
      <path d="M 135.06858 179.301176 
L 135.06858 65.16 
" clip-path="url(#pb2fba5b8e8)" style="fill: none; stroke: #b0b0b0; stroke-opacity: 0.25; stroke-width: 0.8; stroke-linecap: square"/>
     </g>
     <g id="line2d_4">
      <g>
       <use xlink:href="#m9bf55e7c69" x="135.06858" y="179.301176" style="stroke: #000000; stroke-width: 0.8"/>
      </g>
     </g>
    </g>
    <g id="xtick_3">
     <g id="line2d_5">
      <path d="M 210.144943 179.301176 
L 210.144943 65.16 
" clip-path="url(#pb2fba5b8e8)" style="fill: none; stroke: #b0b0b0; stroke-opacity: 0.25; stroke-width: 0.8; stroke-linecap: square"/>
     </g>
     <g id="line2d_6">
      <g>
       <use xlink:href="#m9bf55e7c69" x="210.144943" y="179.301176" style="stroke: #000000; stroke-width: 0.8"/>
      </g>
     </g>
    </g>
    <g id="xtick_4">
     <g id="line2d_7">
      <path d="M 285.221307 179.301176 
L 285.221307 65.16 
" clip-path="url(#pb2fba5b8e8)" style="fill: none; stroke: #b0b0b0; stroke-opacity: 0.25; stroke-width: 0.8; stroke-linecap: square"/>
     </g>
     <g id="line2d_8">
      <g>
       <use xlink:href="#m9bf55e7c69" x="285.221307" y="179.301176" style="stroke: #000000; stroke-width: 0.8"/>
      </g>
     </g>
    </g>
    <g id="xtick_5">
     <g id="line2d_9">
      <path d="M 360.29767 179.301176 
L 360.29767 65.16 
" clip-path="url(#pb2fba5b8e8)" style="fill: none; stroke: #b0b0b0; stroke-opacity: 0.25; stroke-width: 0.8; stroke-linecap: square"/>
     </g>
     <g id="line2d_10">
      <g>
       <use xlink:href="#m9bf55e7c69" x="360.29767" y="179.301176" style="stroke: #000000; stroke-width: 0.8"/>
      </g>
     </g>
    </g>
    <g id="xtick_6">
     <g id="line2d_11">
      <path d="M 435.374034 179.301176 
L 435.374034 65.16 
" clip-path="url(#pb2fba5b8e8)" style="fill: none; stroke: #b0b0b0; stroke-opacity: 0.25; stroke-width: 0.8; stroke-linecap: square"/>
     </g>
     <g id="line2d_12">
      <g>
       <use xlink:href="#m9bf55e7c69" x="435.374034" y="179.301176" style="stroke: #000000; stroke-width: 0.8"/>
      </g>
     </g>
    </g>
   </g>
   <g id="matplotlib.axis_2">
    <g id="ytick_1">
     <g id="line2d_13">
      <path d="M 41.223125 174.112941 
L 454.143125 174.112941 
" clip-path="url(#pb2fba5b8e8)" style="fill: none; stroke: #b0b0b0; stroke-opacity: 0.25; stroke-width: 0.8; stroke-linecap: square"/>
     </g>
     <g id="line2d_14">
      <defs>
       <path id="mcda565f9dc" d="M 0 0 
L -3.5 0 
" style="stroke: #000000; stroke-width: 0.8"/>
      </defs>
      <g>
       <use xlink:href="#mcda565f9dc" x="41.223125" y="174.112941" style="stroke: #000000; stroke-width: 0.8"/>
      </g>
     </g>
     <g id="text_1">
      <!-- 0 -->
      <g transform="translate(28.496875 177.532238) scale(0.09 -0.09)">
       <defs>
        <path id="DejaVuSans-30" d="M 2034 4250 
Q 1547 4250 1301 3770 
Q 1056 3291 1056 2328 
Q 1056 1369 1301 889 
Q 1547 409 2034 409 
Q 2525 409 2770 889 
Q 3016 1369 3016 2328 
Q 3016 3291 2770 3770 
Q 2525 4250 2034 4250 
z
M 2034 4750 
Q 2819 4750 3233 4129 
Q 3647 3509 3647 2328 
Q 3647 1150 3233 529 
Q 2819 -91 2034 -91 
Q 1250 -91 836 529 
Q 422 1150 422 2328 
Q 422 3509 836 4129 
Q 1250 4750 2034 4750 
z
" transform="scale(0.015625)"/>
       </defs>
       <use xlink:href="#DejaVuSans-30"/>
      </g>
     </g>
    </g>
    <g id="ytick_2">
     <g id="line2d_15">
      <path d="M 41.223125 137.873947 
L 454.143125 137.873947 
" clip-path="url(#pb2fba5b8e8)" style="fill: none; stroke: #b0b0b0; stroke-opacity: 0.25; stroke-width: 0.8; stroke-linecap: square"/>
     </g>
     <g id="line2d_16">
      <g>
       <use xlink:href="#mcda565f9dc" x="41.223125" y="137.873947" style="stroke: #000000; stroke-width: 0.8"/>
      </g>
     </g>
     <g id="text_2">
      <!-- 1 -->
      <g transform="translate(28.496875 141.293244) scale(0.09 -0.09)">
       <defs>
        <path id="DejaVuSans-31" d="M 794 531 
L 1825 531 
L 1825 4091 
L 703 3866 
L 703 4441 
L 1819 4666 
L 2450 4666 
L 2450 531 
L 3481 531 
L 3481 0 
L 794 0 
L 794 531 
z
" transform="scale(0.015625)"/>
       </defs>
       <use xlink:href="#DejaVuSans-31"/>
      </g>
     </g>
    </g>
    <g id="ytick_3">
     <g id="line2d_17">
      <path d="M 41.223125 101.634953 
L 454.143125 101.634953 
" clip-path="url(#pb2fba5b8e8)" style="fill: none; stroke: #b0b0b0; stroke-opacity: 0.25; stroke-width: 0.8; stroke-linecap: square"/>
     </g>
     <g id="line2d_18">
      <g>
       <use xlink:href="#mcda565f9dc" x="41.223125" y="101.634953" style="stroke: #000000; stroke-width: 0.8"/>
      </g>
     </g>
     <g id="text_3">
      <!-- 2 -->
      <g transform="translate(28.496875 105.05425) scale(0.09 -0.09)">
       <defs>
        <path id="DejaVuSans-32" d="M 1228 531 
L 3431 531 
L 3431 0 
L 469 0 
L 469 531 
Q 828 903 1448 1529 
Q 2069 2156 2228 2338 
Q 2531 2678 2651 2914 
Q 2772 3150 2772 3378 
Q 2772 3750 2511 3984 
Q 2250 4219 1831 4219 
Q 1534 4219 1204 4116 
Q 875 4013 500 3803 
L 500 4441 
Q 881 4594 1212 4672 
Q 1544 4750 1819 4750 
Q 2544 4750 2975 4387 
Q 3406 4025 3406 3419 
Q 3406 3131 3298 2873 
Q 3191 2616 2906 2266 
Q 2828 2175 2409 1742 
Q 1991 1309 1228 531 
z
" transform="scale(0.015625)"/>
       </defs>
       <use xlink:href="#DejaVuSans-32"/>
      </g>
     </g>
    </g>
    <g id="ytick_4">
     <g id="line2d_19">
      <path d="M 41.223125 65.395959 
L 454.143125 65.395959 
" clip-path="url(#pb2fba5b8e8)" style="fill: none; stroke: #b0b0b0; stroke-opacity: 0.25; stroke-width: 0.8; stroke-linecap: square"/>
     </g>
     <g id="line2d_20">
      <g>
       <use xlink:href="#mcda565f9dc" x="41.223125" y="65.395959" style="stroke: #000000; stroke-width: 0.8"/>
      </g>
     </g>
     <g id="text_4">
      <!-- 3 -->
      <g transform="translate(28.496875 68.815256) scale(0.09 -0.09)">
       <defs>
        <path id="DejaVuSans-33" d="M 2597 2516 
Q 3050 2419 3304 2112 
Q 3559 1806 3559 1356 
Q 3559 666 3084 287 
Q 2609 -91 1734 -91 
Q 1441 -91 1130 -33 
Q 819 25 488 141 
L 488 750 
Q 750 597 1062 519 
Q 1375 441 1716 441 
Q 2309 441 2620 675 
Q 2931 909 2931 1356 
Q 2931 1769 2642 2001 
Q 2353 2234 1838 2234 
L 1294 2234 
L 1294 2753 
L 1863 2753 
Q 2328 2753 2575 2939 
Q 2822 3125 2822 3475 
Q 2822 3834 2567 4026 
Q 2313 4219 1838 4219 
Q 1578 4219 1281 4162 
Q 984 4106 628 3988 
L 628 4550 
Q 988 4650 1302 4700 
Q 1616 4750 1894 4750 
Q 2613 4750 3031 4423 
Q 3450 4097 3450 3541 
Q 3450 3153 3228 2886 
Q 3006 2619 2597 2516 
z
" transform="scale(0.015625)"/>
       </defs>
       <use xlink:href="#DejaVuSans-33"/>
      </g>
     </g>
    </g>
    <g id="text_5">
     <!-- Pose RMSD (A) -->
     <g transform="translate(22.625156 155.428635) rotate(-90) scale(0.09 -0.09)">
      <defs>
       <path id="DejaVuSans-50" d="M 1259 4147 
L 1259 2394 
L 2053 2394 
Q 2494 2394 2734 2622 
Q 2975 2850 2975 3272 
Q 2975 3691 2734 3919 
Q 2494 4147 2053 4147 
L 1259 4147 
z
M 628 4666 
L 2053 4666 
Q 2838 4666 3239 4311 
Q 3641 3956 3641 3272 
Q 3641 2581 3239 2228 
Q 2838 1875 2053 1875 
L 1259 1875 
L 1259 0 
L 628 0 
L 628 4666 
z
" transform="scale(0.015625)"/>
       <path id="DejaVuSans-6f" d="M 1959 3097 
Q 1497 3097 1228 2736 
Q 959 2375 959 1747 
Q 959 1119 1226 758 
Q 1494 397 1959 397 
Q 2419 397 2687 759 
Q 2956 1122 2956 1747 
Q 2956 2369 2687 2733 
Q 2419 3097 1959 3097 
z
M 1959 3584 
Q 2709 3584 3137 3096 
Q 3566 2609 3566 1747 
Q 3566 888 3137 398 
Q 2709 -91 1959 -91 
Q 1206 -91 779 398 
Q 353 888 353 1747 
Q 353 2609 779 3096 
Q 1206 3584 1959 3584 
z
" transform="scale(0.015625)"/>
       <path id="DejaVuSans-73" d="M 2834 3397 
L 2834 2853 
Q 2591 2978 2328 3040 
Q 2066 3103 1784 3103 
Q 1356 3103 1142 2972 
Q 928 2841 928 2578 
Q 928 2378 1081 2264 
Q 1234 2150 1697 2047 
L 1894 2003 
Q 2506 1872 2764 1633 
Q 3022 1394 3022 966 
Q 3022 478 2636 193 
Q 2250 -91 1575 -91 
Q 1294 -91 989 -36 
Q 684 19 347 128 
L 347 722 
Q 666 556 975 473 
Q 1284 391 1588 391 
Q 1994 391 2212 530 
Q 2431 669 2431 922 
Q 2431 1156 2273 1281 
Q 2116 1406 1581 1522 
L 1381 1569 
Q 847 1681 609 1914 
Q 372 2147 372 2553 
Q 372 3047 722 3315 
Q 1072 3584 1716 3584 
Q 2034 3584 2315 3537 
Q 2597 3491 2834 3397 
z
" transform="scale(0.015625)"/>
       <path id="DejaVuSans-65" d="M 3597 1894 
L 3597 1613 
L 953 1613 
Q 991 1019 1311 708 
Q 1631 397 2203 397 
Q 2534 397 2845 478 
Q 3156 559 3463 722 
L 3463 178 
Q 3153 47 2828 -22 
Q 2503 -91 2169 -91 
Q 1331 -91 842 396 
Q 353 884 353 1716 
Q 353 2575 817 3079 
Q 1281 3584 2069 3584 
Q 2775 3584 3186 3129 
Q 3597 2675 3597 1894 
z
M 3022 2063 
Q 3016 2534 2758 2815 
Q 2500 3097 2075 3097 
Q 1594 3097 1305 2825 
Q 1016 2553 972 2059 
L 3022 2063 
z
" transform="scale(0.015625)"/>
       <path id="DejaVuSans-20" transform="scale(0.015625)"/>
       <path id="DejaVuSans-52" d="M 2841 2188 
Q 3044 2119 3236 1894 
Q 3428 1669 3622 1275 
L 4263 0 
L 3584 0 
L 2988 1197 
Q 2756 1666 2539 1819 
Q 2322 1972 1947 1972 
L 1259 1972 
L 1259 0 
L 628 0 
L 628 4666 
L 2053 4666 
Q 2853 4666 3247 4331 
Q 3641 3997 3641 3322 
Q 3641 2881 3436 2590 
Q 3231 2300 2841 2188 
z
M 1259 4147 
L 1259 2491 
L 2053 2491 
Q 2509 2491 2742 2702 
Q 2975 2913 2975 3322 
Q 2975 3731 2742 3939 
Q 2509 4147 2053 4147 
L 1259 4147 
z
" transform="scale(0.015625)"/>
       <path id="DejaVuSans-4d" d="M 628 4666 
L 1569 4666 
L 2759 1491 
L 3956 4666 
L 4897 4666 
L 4897 0 
L 4281 0 
L 4281 4097 
L 3078 897 
L 2444 897 
L 1241 4097 
L 1241 0 
L 628 0 
L 628 4666 
z
" transform="scale(0.015625)"/>
       <path id="DejaVuSans-53" d="M 3425 4513 
L 3425 3897 
Q 3066 4069 2747 4153 
Q 2428 4238 2131 4238 
Q 1616 4238 1336 4038 
Q 1056 3838 1056 3469 
Q 1056 3159 1242 3001 
Q 1428 2844 1947 2747 
L 2328 2669 
Q 3034 2534 3370 2195 
Q 3706 1856 3706 1288 
Q 3706 609 3251 259 
Q 2797 -91 1919 -91 
Q 1588 -91 1214 -16 
Q 841 59 441 206 
L 441 856 
Q 825 641 1194 531 
Q 1563 422 1919 422 
Q 2459 422 2753 634 
Q 3047 847 3047 1241 
Q 3047 1584 2836 1778 
Q 2625 1972 2144 2069 
L 1759 2144 
Q 1053 2284 737 2584 
Q 422 2884 422 3419 
Q 422 4038 858 4394 
Q 1294 4750 2059 4750 
Q 2388 4750 2728 4690 
Q 3069 4631 3425 4513 
z
" transform="scale(0.015625)"/>
       <path id="DejaVuSans-44" d="M 1259 4147 
L 1259 519 
L 2022 519 
Q 2988 519 3436 956 
Q 3884 1394 3884 2338 
Q 3884 3275 3436 3711 
Q 2988 4147 2022 4147 
L 1259 4147 
z
M 628 4666 
L 1925 4666 
Q 3281 4666 3915 4102 
Q 4550 3538 4550 2338 
Q 4550 1131 3912 565 
Q 3275 0 1925 0 
L 628 0 
L 628 4666 
z
" transform="scale(0.015625)"/>
       <path id="DejaVuSans-28" d="M 1984 4856 
Q 1566 4138 1362 3434 
Q 1159 2731 1159 2009 
Q 1159 1288 1364 580 
Q 1569 -128 1984 -844 
L 1484 -844 
Q 1016 -109 783 600 
Q 550 1309 550 2009 
Q 550 2706 781 3412 
Q 1013 4119 1484 4856 
L 1984 4856 
z
" transform="scale(0.015625)"/>
       <path id="DejaVuSans-41" d="M 2188 4044 
L 1331 1722 
L 3047 1722 
L 2188 4044 
z
M 1831 4666 
L 2547 4666 
L 4325 0 
L 3669 0 
L 3244 1197 
L 1141 1197 
L 716 0 
L 50 0 
L 1831 4666 
z
" transform="scale(0.015625)"/>
       <path id="DejaVuSans-29" d="M 513 4856 
L 1013 4856 
Q 1481 4119 1714 3412 
Q 1947 2706 1947 2009 
Q 1947 1309 1714 600 
Q 1481 -109 1013 -844 
L 513 -844 
Q 928 -128 1133 580 
Q 1338 1288 1338 2009 
Q 1338 2731 1133 3434 
Q 928 4138 513 4856 
z
" transform="scale(0.015625)"/>
      </defs>
      <use xlink:href="#DejaVuSans-50"/>
      <use xlink:href="#DejaVuSans-6f" transform="translate(56.677734 0)"/>
      <use xlink:href="#DejaVuSans-73" transform="translate(117.859375 0)"/>
      <use xlink:href="#DejaVuSans-65" transform="translate(169.958984 0)"/>
      <use xlink:href="#DejaVuSans-20" transform="translate(231.482422 0)"/>
      <use xlink:href="#DejaVuSans-52" transform="translate(263.269531 0)"/>
      <use xlink:href="#DejaVuSans-4d" transform="translate(332.751953 0)"/>
      <use xlink:href="#DejaVuSans-53" transform="translate(419.03125 0)"/>
      <use xlink:href="#DejaVuSans-44" transform="translate(482.507812 0)"/>
      <use xlink:href="#DejaVuSans-20" transform="translate(559.509766 0)"/>
      <use xlink:href="#DejaVuSans-28" transform="translate(591.296875 0)"/>
      <use xlink:href="#DejaVuSans-41" transform="translate(630.310547 0)"/>
      <use xlink:href="#DejaVuSans-29" transform="translate(698.71875 0)"/>
     </g>
    </g>
   </g>
   <g id="line2d_21">
    <path d="M 59.992216 174.112941 
L 61.869125 130.081788 
L 63.746034 135.124629 
L 65.622943 114.110647 
L 67.499852 129.703196 
L 69.376761 132.637188 
L 71.25367 122.394979 
L 73.13058 123.892961 
L 75.007489 125.65646 
L 76.884398 139.077284 
L 78.761307 131.695721 
L 80.638216 136.595323 
L 82.515125 141.024018 
L 84.392034 118.939642 
L 86.268943 127.451468 
L 88.145852 119.888741 
L 90.022761 143.730875 
L 91.89967 120.143672 
L 93.77658 136.827394 
L 95.653489 137.527042 
L 97.530398 134.860515 
L 99.407307 128.03077 
L 101.284216 134.687351 
L 103.161125 124.336458 
L 105.038034 125.56222 
L 106.914943 124.517138 
L 108.791852 128.686663 
L 110.668761 113.371919 
L 112.54567 122.383383 
L 114.42258 121.911656 
L 116.299489 127.333546 
L 118.176398 134.664959 
L 120.053307 126.502745 
L 121.930216 117.224798 
L 123.807125 129.68845 
L 125.684034 126.27386 
L 127.560943 128.378961 
L 129.437852 120.761188 
L 131.314761 120.782779 
L 133.19167 109.899644 
L 135.06858 119.774501 
L 136.945489 116.305502 
L 138.822398 125.00934 
L 140.699307 115.990125 
L 142.576216 117.828424 
L 146.330034 117.222856 
L 148.206943 127.520289 
L 150.083852 127.66514 
L 151.960761 123.095722 
L 153.83767 119.144189 
L 155.71458 120.330491 
L 157.591489 123.790148 
L 159.468398 120.751831 
L 161.345307 128.131184 
L 163.222216 125.759741 
L 165.099125 137.362724 
L 166.976034 118.538795 
L 168.852943 133.239476 
L 170.729852 122.07184 
L 172.606761 127.602414 
L 174.48367 121.337406 
L 176.36058 128.303849 
L 178.237489 121.140748 
L 180.114398 126.131368 
L 181.991307 126.038799 
L 183.868216 124.180695 
L 185.745125 124.823666 
L 187.622034 120.789715 
L 189.498943 126.523858 
L 191.375852 117.957304 
L 193.252761 123.8315 
L 195.12967 129.089651 
L 197.00658 123.043788 
L 198.883489 123.881369 
L 200.760398 117.419485 
L 202.637307 130.573577 
L 204.514216 129.63145 
L 206.391125 120.404389 
L 208.268034 129.812003 
L 210.144943 129.163644 
L 212.021852 115.643024 
L 213.898761 128.657201 
L 215.77567 126.182005 
L 217.65258 120.936323 
L 219.529489 127.756357 
L 221.406398 116.438995 
L 223.283307 117.618879 
L 225.160216 124.760309 
L 227.037125 120.231566 
L 228.914034 121.044428 
L 230.790943 122.754336 
L 232.667852 118.92154 
L 234.544761 118.054754 
L 236.42167 118.829301 
L 238.29858 126.408194 
L 240.175489 124.294519 
L 242.052398 132.668049 
L 243.929307 104.978403 
L 245.806216 108.188688 
L 247.683125 116.889522 
L 249.560034 116.385478 
L 251.436943 122.515535 
L 253.313852 119.166204 
L 255.190761 125.100619 
L 257.06767 114.120403 
L 258.94458 120.98812 
L 260.821489 108.305798 
L 262.698398 120.106048 
L 264.575307 116.080824 
L 266.452216 114.573666 
L 268.329125 119.81751 
L 270.206034 124.150733 
L 272.082943 117.138183 
L 273.959852 120.695273 
L 275.836761 109.646297 
L 277.71367 117.212843 
L 279.59058 109.92949 
L 281.467489 123.718616 
L 283.344398 114.711138 
L 285.221307 115.785606 
L 287.098216 121.242949 
L 288.975125 108.173932 
L 290.852034 118.426335 
L 292.728943 111.70561 
L 294.605852 110.609848 
L 296.482761 119.027927 
L 298.35967 118.329852 
L 300.23658 115.337569 
L 302.113489 107.826693 
L 303.990398 116.785067 
L 305.867307 119.633151 
L 307.744216 105.547732 
L 309.621125 106.562373 
L 311.498034 115.729103 
L 313.374943 114.619037 
L 315.251852 113.990417 
L 317.128761 109.219492 
L 319.00567 112.396112 
L 320.88258 120.726286 
L 322.759489 114.72321 
L 324.636398 115.86609 
L 326.513307 114.435073 
L 328.390216 114.315206 
L 330.267125 113.712515 
L 334.020943 121.985707 
L 335.897852 118.716623 
L 337.774761 118.222748 
L 339.65167 108.654943 
L 341.52858 114.1715 
L 343.405489 115.127557 
L 345.282398 116.937561 
L 347.159307 123.933024 
L 349.036216 109.35038 
L 350.913125 115.226736 
L 352.790034 110.341806 
L 354.666943 113.718929 
L 356.543852 114.761228 
L 358.420761 115.027342 
L 360.29767 122.6976 
L 362.17458 115.364716 
L 364.051489 129.941413 
L 365.928398 120.796655 
L 367.805307 118.387211 
L 369.682216 112.488652 
L 371.559125 110.617052 
L 373.436034 119.666114 
L 375.312943 119.137083 
L 377.189852 118.376368 
L 379.066761 106.032338 
L 380.94367 133.123805 
L 382.82058 103.756851 
L 384.697489 114.923872 
L 386.574398 130.11686 
L 388.451307 127.635101 
L 390.328216 124.19277 
L 392.205125 128.685021 
L 394.082034 124.100727 
L 395.958943 118.775501 
L 397.835852 124.438873 
L 399.712761 117.040697 
L 401.58967 122.860944 
L 403.46658 120.692935 
L 405.343489 115.889989 
L 407.220398 124.440942 
L 409.097307 123.636926 
L 410.974216 117.656017 
L 412.851125 130.990216 
L 414.728034 130.305296 
L 416.604943 124.054888 
L 418.481852 128.77547 
L 420.358761 127.103841 
L 422.23567 127.432301 
L 424.11258 122.399397 
L 425.989489 120.823921 
L 427.866398 123.26444 
L 429.743307 127.207079 
L 431.620216 104.614614 
L 433.497125 121.264116 
L 433.497125 121.264116 
" clip-path="url(#pb2fba5b8e8)" style="fill: none; stroke: #1f77b4; stroke-linecap: square"/>
   </g>
   <g id="line2d_22">
    <path d="M 59.992216 174.112941 
L 61.869125 114.017665 
L 63.746034 114.562327 
L 65.622943 103.15195 
L 67.499852 84.09116 
L 69.376761 89.923779 
L 71.25367 86.981636 
L 73.13058 94.90547 
L 75.007489 98.919732 
L 76.884398 88.559826 
L 78.761307 88.080435 
L 80.638216 79.909314 
L 82.515125 85.25366 
L 84.392034 85.892923 
L 86.268943 87.5886 
L 88.145852 76.977688 
L 90.022761 76.086328 
L 91.89967 91.394672 
L 93.77658 86.146204 
L 95.653489 85.007032 
L 97.530398 86.142584 
L 99.407307 70.348235 
L 101.284216 79.301057 
L 103.161125 89.204522 
L 105.038034 80.70381 
L 106.914943 88.510795 
L 108.791852 90.759921 
L 110.668761 77.098509 
L 112.54567 86.63875 
L 114.42258 80.548447 
L 116.299489 85.694199 
L 118.176398 95.993629 
L 120.053307 84.62176 
L 121.930216 86.626719 
L 123.807125 98.412872 
L 125.684034 88.952313 
L 127.560943 94.594677 
L 129.437852 86.775331 
L 131.314761 93.686126 
L 133.19167 86.658558 
L 135.06858 99.443697 
L 136.945489 85.15904 
L 138.822398 85.809037 
L 142.576216 86.120225 
L 144.453125 90.352983 
L 146.330034 83.665051 
L 148.206943 81.048269 
L 150.083852 88.829097 
L 151.960761 83.722116 
L 155.71458 93.575401 
L 159.468398 89.327285 
L 161.345307 83.53679 
L 163.222216 89.354055 
L 165.099125 82.122603 
L 166.976034 80.546856 
L 168.852943 79.877917 
L 170.729852 91.52422 
L 172.606761 97.302226 
L 174.48367 91.519875 
L 176.36058 95.101661 
L 178.237489 88.716785 
L 180.114398 92.190774 
L 181.991307 89.530314 
L 183.868216 90.043393 
L 185.745125 102.867289 
L 187.622034 93.465379 
L 189.498943 96.189182 
L 191.375852 97.16745 
L 193.252761 89.657234 
L 195.12967 95.437774 
L 197.00658 98.656514 
L 198.883489 95.619958 
L 204.514216 91.773185 
L 206.391125 92.714652 
L 208.268034 94.681161 
L 210.144943 95.735908 
L 212.021852 96.023381 
L 213.898761 97.325013 
L 215.77567 89.138538 
L 217.65258 93.935968 
L 219.529489 92.346182 
L 221.406398 95.64713 
L 225.160216 96.478659 
L 227.037125 95.273415 
L 228.914034 89.590507 
L 230.790943 93.646676 
L 232.667852 96.712328 
L 234.544761 93.730721 
L 236.42167 91.895434 
L 238.29858 88.421201 
L 240.175489 93.167868 
L 243.929307 99.062724 
L 245.806216 90.68121 
L 247.683125 95.881397 
L 249.560034 93.2206 
L 251.436943 98.074943 
L 253.313852 95.862208 
L 255.190761 91.486643 
L 257.06767 96.599636 
L 258.94458 87.249595 
L 260.821489 94.460799 
L 262.698398 85.197272 
L 264.575307 86.346142 
L 266.452216 92.004441 
L 272.082943 92.287902 
L 273.959852 94.717593 
L 275.836761 98.076168 
L 277.71367 100.271588 
L 279.59058 94.619164 
L 281.467489 99.765347 
L 283.344398 95.57978 
L 285.221307 95.284526 
L 287.098216 101.364839 
L 288.975125 98.065159 
L 290.852034 92.292396 
L 292.728943 93.951721 
L 294.605852 94.980086 
L 296.482761 84.525245 
L 298.35967 98.32634 
L 300.23658 99.465299 
L 302.113489 96.065049 
L 303.990398 98.720468 
L 305.867307 97.687229 
L 307.744216 93.706659 
L 309.621125 100.951258 
L 311.498034 96.887489 
L 313.374943 99.352201 
L 315.251852 94.370858 
L 317.128761 98.716113 
L 319.00567 97.634241 
L 320.88258 91.295033 
L 322.759489 101.945826 
L 324.636398 99.374648 
L 326.513307 99.256925 
L 328.390216 95.377102 
L 330.267125 95.107966 
L 332.144034 97.418452 
L 335.897852 100.295488 
L 337.774761 94.129039 
L 339.65167 98.293464 
L 341.52858 99.95258 
L 343.405489 101.945463 
L 345.282398 96.174813 
L 347.159307 97.952789 
L 349.036216 93.564203 
L 350.913125 99.83186 
L 352.790034 102.082701 
L 354.666943 91.193532 
L 356.543852 102.095355 
L 358.420761 91.818872 
L 360.29767 96.489821 
L 362.17458 92.289149 
L 364.051489 102.684572 
L 365.928398 96.363296 
L 367.805307 97.536667 
L 369.682216 100.441951 
L 371.559125 89.039076 
L 373.436034 98.710919 
L 375.312943 97.541723 
L 377.189852 92.684607 
L 379.066761 98.942679 
L 380.94367 101.284486 
L 382.82058 96.740442 
L 384.697489 89.375251 
L 386.574398 96.108949 
L 388.451307 95.276387 
L 392.205125 89.727012 
L 394.082034 94.687163 
L 395.958943 94.868619 
L 397.835852 95.174606 
L 399.712761 93.260665 
L 401.58967 103.409294 
L 403.46658 94.937179 
L 405.343489 95.70704 
L 407.220398 97.827974 
L 409.097307 99.606175 
L 410.974216 101.758713 
L 412.851125 101.58211 
L 414.728034 101.876033 
L 416.604943 98.373353 
L 418.481852 93.432757 
L 420.358761 101.923644 
L 422.23567 103.818211 
L 424.11258 104.233883 
L 425.989489 96.722765 
L 427.866398 98.851284 
L 429.743307 105.745709 
L 431.620216 104.049355 
L 433.497125 98.880532 
L 435.374034 107.9707 
L 435.374034 107.9707 
" clip-path="url(#pb2fba5b8e8)" style="fill: none; stroke: #2ca02c; stroke-linecap: square"/>
   </g>
   <g id="line2d_23">
    <path d="M 59.992216 174.112941 
L 61.869125 139.727683 
L 63.746034 143.689958 
L 65.622943 137.946254 
L 67.499852 149.747609 
L 69.376761 150.402706 
L 71.25367 145.01279 
L 73.13058 145.904197 
L 75.007489 154.759338 
L 76.884398 155.261269 
L 78.761307 141.809643 
L 80.638216 136.956561 
L 82.515125 127.000655 
L 84.392034 136.457713 
L 86.268943 142.645854 
L 88.145852 141.670496 
L 90.022761 138.749402 
L 91.89967 134.432649 
L 93.77658 138.820361 
L 95.653489 132.790859 
L 97.530398 138.565944 
L 99.407307 139.632655 
L 101.284216 130.74486 
L 103.161125 132.92269 
L 105.038034 138.446255 
L 106.914943 143.233245 
L 108.791852 139.370427 
L 110.668761 134.936335 
L 112.54567 138.777094 
L 114.42258 119.123566 
L 116.299489 127.813006 
L 118.176398 121.442814 
L 120.053307 127.350941 
L 121.930216 121.150565 
L 123.807125 136.401561 
L 125.684034 130.593309 
L 127.560943 134.773035 
L 129.437852 136.852595 
L 131.314761 130.73617 
L 133.19167 122.256365 
L 135.06858 123.551036 
L 136.945489 115.480742 
L 138.822398 126.851705 
L 140.699307 123.158339 
L 142.576216 129.235687 
L 146.330034 121.931946 
L 150.083852 136.756666 
L 151.960761 128.884854 
L 153.83767 130.212752 
L 155.71458 110.245117 
L 157.591489 121.146941 
L 159.468398 120.067236 
L 161.345307 111.303241 
L 163.222216 124.981722 
L 165.099125 110.991938 
L 166.976034 118.643395 
L 168.852943 121.851724 
L 170.729852 115.471052 
L 172.606761 128.829147 
L 174.48367 124.472669 
L 176.36058 125.267021 
L 178.237489 132.250137 
L 180.114398 120.788929 
L 181.991307 133.175703 
L 183.868216 129.963189 
L 185.745125 128.851315 
L 187.622034 122.794525 
L 189.498943 129.65187 
L 191.375852 127.982688 
L 193.252761 126.828171 
L 195.12967 122.784806 
L 197.00658 134.866759 
L 198.883489 109.26981 
L 200.760398 126.227401 
L 202.637307 108.33372 
L 204.514216 124.072932 
L 206.391125 133.302235 
L 208.268034 132.287909 
L 210.144943 109.878745 
L 212.021852 126.266703 
L 213.898761 129.031778 
L 215.77567 134.551386 
L 217.65258 128.781634 
L 219.529489 128.561631 
L 221.406398 130.401264 
L 223.283307 129.649696 
L 225.160216 141.562798 
L 227.037125 134.348034 
L 228.914034 138.813139 
L 230.790943 131.74452 
L 232.667852 140.046631 
L 234.544761 130.887721 
L 236.42167 139.862731 
L 238.29858 129.414371 
L 240.175489 135.408159 
L 242.052398 128.110129 
L 243.929307 123.91269 
L 245.806216 130.847938 
L 247.683125 135.3594 
L 249.560034 134.513589 
L 251.436943 133.921328 
L 253.313852 129.018105 
L 255.190761 130.704725 
L 257.06767 130.567209 
L 258.94458 134.950214 
L 260.821489 140.212906 
L 262.698398 143.029316 
L 264.575307 138.704822 
L 266.452216 137.295471 
L 268.329125 147.822685 
L 270.206034 135.207844 
L 272.082943 137.090576 
L 273.959852 136.031955 
L 275.836761 127.025022 
L 277.71367 139.036929 
L 279.59058 124.614375 
L 281.467489 131.128367 
L 283.344398 129.272187 
L 285.221307 128.942651 
L 287.098216 124.358607 
L 288.975125 134.967004 
L 290.852034 138.677936 
L 292.728943 125.815643 
L 294.605852 141.216655 
L 296.482761 133.653438 
L 298.35967 139.517192 
L 300.23658 140.176714 
L 302.113489 132.224205 
L 303.990398 137.633168 
L 305.867307 134.085458 
L 307.744216 134.803511 
L 309.621125 127.569773 
L 311.498034 137.60812 
L 313.374943 138.646939 
L 315.251852 137.536127 
L 317.128761 137.746013 
L 319.00567 132.158935 
L 320.88258 138.470465 
L 322.759489 142.310302 
L 324.636398 145.39127 
L 326.513307 134.40003 
L 328.390216 127.465151 
L 330.267125 134.499702 
L 332.144034 134.422886 
L 334.020943 126.711797 
L 335.897852 128.952027 
L 337.774761 130.553453 
L 339.65167 127.246841 
L 341.52858 129.726001 
L 343.405489 128.702804 
L 345.282398 134.247917 
L 347.159307 131.132128 
L 349.036216 135.620433 
L 350.913125 125.5021 
L 352.790034 134.485913 
L 354.666943 140.785134 
L 356.543852 128.664322 
L 358.420761 135.992281 
L 360.29767 132.719588 
L 362.17458 139.798575 
L 364.051489 131.281886 
L 365.928398 137.722631 
L 367.805307 134.21432 
L 369.682216 134.0233 
L 371.559125 134.190072 
L 373.436034 123.210502 
L 375.312943 134.778804 
L 377.189852 133.926368 
L 379.066761 135.069404 
L 380.94367 131.910433 
L 382.82058 130.027915 
L 384.697489 134.348549 
L 386.574398 134.560138 
L 388.451307 139.132105 
L 390.328216 131.917815 
L 392.205125 137.080755 
L 394.082034 128.928598 
L 395.958943 125.945727 
L 397.835852 127.815285 
L 399.712761 125.567511 
L 401.58967 123.504759 
L 403.46658 128.060178 
L 405.343489 135.641498 
L 407.220398 132.406983 
L 409.097307 125.307703 
L 410.974216 123.598846 
L 412.851125 121.546534 
L 414.728034 114.901629 
L 416.604943 127.4362 
L 418.481852 122.02366 
L 420.358761 114.641052 
L 422.23567 126.417359 
L 424.11258 125.426918 
L 425.989489 123.359719 
L 427.866398 131.167501 
L 429.743307 116.512282 
L 431.620216 115.589013 
L 433.497125 123.954858 
L 433.497125 123.954858 
" clip-path="url(#pb2fba5b8e8)" style="fill: none; stroke: #d62728; stroke-linecap: square"/>
   </g>
   <g id="patch_3">
    <path d="M 41.223125 179.301176 
L 41.223125 65.16 
" style="fill: none; stroke: #000000; stroke-width: 0.8; stroke-linejoin: miter; stroke-linecap: square"/>
   </g>
   <g id="patch_4">
    <path d="M 454.143125 179.301176 
L 454.143125 65.16 
" style="fill: none; stroke: #000000; stroke-width: 0.8; stroke-linejoin: miter; stroke-linecap: square"/>
   </g>
   <g id="patch_5">
    <path d="M 41.223125 179.301176 
L 454.143125 179.301176 
" style="fill: none; stroke: #000000; stroke-width: 0.8; stroke-linejoin: miter; stroke-linecap: square"/>
   </g>
   <g id="patch_6">
    <path d="M 41.223125 65.16 
L 454.143125 65.16 
" style="fill: none; stroke: #000000; stroke-width: 0.8; stroke-linejoin: miter; stroke-linecap: square"/>
   </g>
   <g id="legend_1">
    <g id="line2d_24">
     <path d="M 273.018125 166.179458 
L 282.018125 166.179458 
L 291.018125 166.179458 
" style="fill: none; stroke: #1f77b4; stroke-linecap: square"/>
    </g>
    <g id="text_6">
     <!-- rep1 -->
     <g transform="translate(298.218125 169.329458) scale(0.09 -0.09)">
      <defs>
       <path id="DejaVuSans-72" d="M 2631 2963 
Q 2534 3019 2420 3045 
Q 2306 3072 2169 3072 
Q 1681 3072 1420 2755 
Q 1159 2438 1159 1844 
L 1159 0 
L 581 0 
L 581 3500 
L 1159 3500 
L 1159 2956 
Q 1341 3275 1631 3429 
Q 1922 3584 2338 3584 
Q 2397 3584 2469 3576 
Q 2541 3569 2628 3553 
L 2631 2963 
z
" transform="scale(0.015625)"/>
       <path id="DejaVuSans-70" d="M 1159 525 
L 1159 -1331 
L 581 -1331 
L 581 3500 
L 1159 3500 
L 1159 2969 
Q 1341 3281 1617 3432 
Q 1894 3584 2278 3584 
Q 2916 3584 3314 3078 
Q 3713 2572 3713 1747 
Q 3713 922 3314 415 
Q 2916 -91 2278 -91 
Q 1894 -91 1617 61 
Q 1341 213 1159 525 
z
M 3116 1747 
Q 3116 2381 2855 2742 
Q 2594 3103 2138 3103 
Q 1681 3103 1420 2742 
Q 1159 2381 1159 1747 
Q 1159 1113 1420 752 
Q 1681 391 2138 391 
Q 2594 391 2855 752 
Q 3116 1113 3116 1747 
z
" transform="scale(0.015625)"/>
      </defs>
      <use xlink:href="#DejaVuSans-72"/>
      <use xlink:href="#DejaVuSans-65" transform="translate(38.863281 0)"/>
      <use xlink:href="#DejaVuSans-70" transform="translate(100.386719 0)"/>
      <use xlink:href="#DejaVuSans-31" transform="translate(163.863281 0)"/>
     </g>
    </g>
    <g id="line2d_25">
     <path d="M 336.693125 166.179458 
L 345.693125 166.179458 
L 354.693125 166.179458 
" style="fill: none; stroke: #2ca02c; stroke-linecap: square"/>
    </g>
    <g id="text_7">
     <!-- rep2 -->
     <g transform="translate(361.893125 169.329458) scale(0.09 -0.09)">
      <use xlink:href="#DejaVuSans-72"/>
      <use xlink:href="#DejaVuSans-65" transform="translate(38.863281 0)"/>
      <use xlink:href="#DejaVuSans-70" transform="translate(100.386719 0)"/>
      <use xlink:href="#DejaVuSans-32" transform="translate(163.863281 0)"/>
     </g>
    </g>
    <g id="line2d_26">
     <path d="M 400.368125 166.179458 
L 409.368125 166.179458 
L 418.368125 166.179458 
" style="fill: none; stroke: #d62728; stroke-linecap: square"/>
    </g>
    <g id="text_8">
     <!-- rep3 -->
     <g transform="translate(425.568125 169.329458) scale(0.09 -0.09)">
      <use xlink:href="#DejaVuSans-72"/>
      <use xlink:href="#DejaVuSans-65" transform="translate(38.863281 0)"/>
      <use xlink:href="#DejaVuSans-70" transform="translate(100.386719 0)"/>
      <use xlink:href="#DejaVuSans-33" transform="translate(163.863281 0)"/>
     </g>
    </g>
   </g>
  </g>
  <g id="axes_2">
   <g id="patch_7">
    <path d="M 41.223125 316.270588 
L 454.143125 316.270588 
L 454.143125 202.129412 
L 41.223125 202.129412 
z
" style="fill: #ffffff"/>
   </g>
   <g id="matplotlib.axis_3">
    <g id="xtick_7">
     <g id="line2d_27">
      <path d="M 59.992216 316.270588 
L 59.992216 202.129412 
" clip-path="url(#p4bc61e02f0)" style="fill: none; stroke: #b0b0b0; stroke-opacity: 0.25; stroke-width: 0.8; stroke-linecap: square"/>
     </g>
     <g id="line2d_28">
      <g>
       <use xlink:href="#m9bf55e7c69" x="59.992216" y="316.270588" style="stroke: #000000; stroke-width: 0.8"/>
      </g>
     </g>
    </g>
    <g id="xtick_8">
     <g id="line2d_29">
      <path d="M 135.06858 316.270588 
L 135.06858 202.129412 
" clip-path="url(#p4bc61e02f0)" style="fill: none; stroke: #b0b0b0; stroke-opacity: 0.25; stroke-width: 0.8; stroke-linecap: square"/>
     </g>
     <g id="line2d_30">
      <g>
       <use xlink:href="#m9bf55e7c69" x="135.06858" y="316.270588" style="stroke: #000000; stroke-width: 0.8"/>
      </g>
     </g>
    </g>
    <g id="xtick_9">
     <g id="line2d_31">
      <path d="M 210.144943 316.270588 
L 210.144943 202.129412 
" clip-path="url(#p4bc61e02f0)" style="fill: none; stroke: #b0b0b0; stroke-opacity: 0.25; stroke-width: 0.8; stroke-linecap: square"/>
     </g>
     <g id="line2d_32">
      <g>
       <use xlink:href="#m9bf55e7c69" x="210.144943" y="316.270588" style="stroke: #000000; stroke-width: 0.8"/>
      </g>
     </g>
    </g>
    <g id="xtick_10">
     <g id="line2d_33">
      <path d="M 285.221307 316.270588 
L 285.221307 202.129412 
" clip-path="url(#p4bc61e02f0)" style="fill: none; stroke: #b0b0b0; stroke-opacity: 0.25; stroke-width: 0.8; stroke-linecap: square"/>
     </g>
     <g id="line2d_34">
      <g>
       <use xlink:href="#m9bf55e7c69" x="285.221307" y="316.270588" style="stroke: #000000; stroke-width: 0.8"/>
      </g>
     </g>
    </g>
    <g id="xtick_11">
     <g id="line2d_35">
      <path d="M 360.29767 316.270588 
L 360.29767 202.129412 
" clip-path="url(#p4bc61e02f0)" style="fill: none; stroke: #b0b0b0; stroke-opacity: 0.25; stroke-width: 0.8; stroke-linecap: square"/>
     </g>
     <g id="line2d_36">
      <g>
       <use xlink:href="#m9bf55e7c69" x="360.29767" y="316.270588" style="stroke: #000000; stroke-width: 0.8"/>
      </g>
     </g>
    </g>
    <g id="xtick_12">
     <g id="line2d_37">
      <path d="M 435.374034 316.270588 
L 435.374034 202.129412 
" clip-path="url(#p4bc61e02f0)" style="fill: none; stroke: #b0b0b0; stroke-opacity: 0.25; stroke-width: 0.8; stroke-linecap: square"/>
     </g>
     <g id="line2d_38">
      <g>
       <use xlink:href="#m9bf55e7c69" x="435.374034" y="316.270588" style="stroke: #000000; stroke-width: 0.8"/>
      </g>
     </g>
    </g>
   </g>
   <g id="matplotlib.axis_4">
    <g id="ytick_5">
     <g id="line2d_39">
      <path d="M 41.223125 295.118552 
L 454.143125 295.118552 
" clip-path="url(#p4bc61e02f0)" style="fill: none; stroke: #b0b0b0; stroke-opacity: 0.25; stroke-width: 0.8; stroke-linecap: square"/>
     </g>
     <g id="line2d_40">
      <g>
       <use xlink:href="#mcda565f9dc" x="41.223125" y="295.118552" style="stroke: #000000; stroke-width: 0.8"/>
      </g>
     </g>
     <g id="text_9">
      <!-- 40 -->
      <g transform="translate(22.770625 298.537849) scale(0.09 -0.09)">
       <defs>
        <path id="DejaVuSans-34" d="M 2419 4116 
L 825 1625 
L 2419 1625 
L 2419 4116 
z
M 2253 4666 
L 3047 4666 
L 3047 1625 
L 3713 1625 
L 3713 1100 
L 3047 1100 
L 3047 0 
L 2419 0 
L 2419 1100 
L 313 1100 
L 313 1709 
L 2253 4666 
z
" transform="scale(0.015625)"/>
       </defs>
       <use xlink:href="#DejaVuSans-34"/>
       <use xlink:href="#DejaVuSans-30" transform="translate(63.623047 0)"/>
      </g>
     </g>
    </g>
    <g id="ytick_6">
     <g id="line2d_41">
      <path d="M 41.223125 268.512217 
L 454.143125 268.512217 
" clip-path="url(#p4bc61e02f0)" style="fill: none; stroke: #b0b0b0; stroke-opacity: 0.25; stroke-width: 0.8; stroke-linecap: square"/>
     </g>
     <g id="line2d_42">
      <g>
       <use xlink:href="#mcda565f9dc" x="41.223125" y="268.512217" style="stroke: #000000; stroke-width: 0.8"/>
      </g>
     </g>
     <g id="text_10">
      <!-- 50 -->
      <g transform="translate(22.770625 271.931514) scale(0.09 -0.09)">
       <defs>
        <path id="DejaVuSans-35" d="M 691 4666 
L 3169 4666 
L 3169 4134 
L 1269 4134 
L 1269 2991 
Q 1406 3038 1543 3061 
Q 1681 3084 1819 3084 
Q 2600 3084 3056 2656 
Q 3513 2228 3513 1497 
Q 3513 744 3044 326 
Q 2575 -91 1722 -91 
Q 1428 -91 1123 -41 
Q 819 9 494 109 
L 494 744 
Q 775 591 1075 516 
Q 1375 441 1709 441 
Q 2250 441 2565 725 
Q 2881 1009 2881 1497 
Q 2881 1984 2565 2268 
Q 2250 2553 1709 2553 
Q 1456 2553 1204 2497 
Q 953 2441 691 2322 
L 691 4666 
z
" transform="scale(0.015625)"/>
       </defs>
       <use xlink:href="#DejaVuSans-35"/>
       <use xlink:href="#DejaVuSans-30" transform="translate(63.623047 0)"/>
      </g>
     </g>
    </g>
    <g id="ytick_7">
     <g id="line2d_43">
      <path d="M 41.223125 241.905882 
L 454.143125 241.905882 
" clip-path="url(#p4bc61e02f0)" style="fill: none; stroke: #b0b0b0; stroke-opacity: 0.25; stroke-width: 0.8; stroke-linecap: square"/>
     </g>
     <g id="line2d_44">
      <g>
       <use xlink:href="#mcda565f9dc" x="41.223125" y="241.905882" style="stroke: #000000; stroke-width: 0.8"/>
      </g>
     </g>
     <g id="text_11">
      <!-- 60 -->
      <g transform="translate(22.770625 245.325179) scale(0.09 -0.09)">
       <defs>
        <path id="DejaVuSans-36" d="M 2113 2584 
Q 1688 2584 1439 2293 
Q 1191 2003 1191 1497 
Q 1191 994 1439 701 
Q 1688 409 2113 409 
Q 2538 409 2786 701 
Q 3034 994 3034 1497 
Q 3034 2003 2786 2293 
Q 2538 2584 2113 2584 
z
M 3366 4563 
L 3366 3988 
Q 3128 4100 2886 4159 
Q 2644 4219 2406 4219 
Q 1781 4219 1451 3797 
Q 1122 3375 1075 2522 
Q 1259 2794 1537 2939 
Q 1816 3084 2150 3084 
Q 2853 3084 3261 2657 
Q 3669 2231 3669 1497 
Q 3669 778 3244 343 
Q 2819 -91 2113 -91 
Q 1303 -91 875 529 
Q 447 1150 447 2328 
Q 447 3434 972 4092 
Q 1497 4750 2381 4750 
Q 2619 4750 2861 4703 
Q 3103 4656 3366 4563 
z
" transform="scale(0.015625)"/>
       </defs>
       <use xlink:href="#DejaVuSans-36"/>
       <use xlink:href="#DejaVuSans-30" transform="translate(63.623047 0)"/>
      </g>
     </g>
    </g>
    <g id="ytick_8">
     <g id="line2d_45">
      <path d="M 41.223125 215.299548 
L 454.143125 215.299548 
" clip-path="url(#p4bc61e02f0)" style="fill: none; stroke: #b0b0b0; stroke-opacity: 0.25; stroke-width: 0.8; stroke-linecap: square"/>
     </g>
     <g id="line2d_46">
      <g>
       <use xlink:href="#mcda565f9dc" x="41.223125" y="215.299548" style="stroke: #000000; stroke-width: 0.8"/>
      </g>
     </g>
     <g id="text_12">
      <!-- 70 -->
      <g transform="translate(22.770625 218.718844) scale(0.09 -0.09)">
       <defs>
        <path id="DejaVuSans-37" d="M 525 4666 
L 3525 4666 
L 3525 4397 
L 1831 0 
L 1172 0 
L 2766 4134 
L 525 4134 
L 525 4666 
z
" transform="scale(0.015625)"/>
       </defs>
       <use xlink:href="#DejaVuSans-37"/>
       <use xlink:href="#DejaVuSans-30" transform="translate(63.623047 0)"/>
      </g>
     </g>
    </g>
    <g id="text_13">
     <!-- 4 A contacts -->
     <g transform="translate(16.898906 287.185781) rotate(-90) scale(0.09 -0.09)">
      <defs>
       <path id="DejaVuSans-63" d="M 3122 3366 
L 3122 2828 
Q 2878 2963 2633 3030 
Q 2388 3097 2138 3097 
Q 1578 3097 1268 2742 
Q 959 2388 959 1747 
Q 959 1106 1268 751 
Q 1578 397 2138 397 
Q 2388 397 2633 464 
Q 2878 531 3122 666 
L 3122 134 
Q 2881 22 2623 -34 
Q 2366 -91 2075 -91 
Q 1284 -91 818 406 
Q 353 903 353 1747 
Q 353 2603 823 3093 
Q 1294 3584 2113 3584 
Q 2378 3584 2631 3529 
Q 2884 3475 3122 3366 
z
" transform="scale(0.015625)"/>
       <path id="DejaVuSans-6e" d="M 3513 2113 
L 3513 0 
L 2938 0 
L 2938 2094 
Q 2938 2591 2744 2837 
Q 2550 3084 2163 3084 
Q 1697 3084 1428 2787 
Q 1159 2491 1159 1978 
L 1159 0 
L 581 0 
L 581 3500 
L 1159 3500 
L 1159 2956 
Q 1366 3272 1645 3428 
Q 1925 3584 2291 3584 
Q 2894 3584 3203 3211 
Q 3513 2838 3513 2113 
z
" transform="scale(0.015625)"/>
       <path id="DejaVuSans-74" d="M 1172 4494 
L 1172 3500 
L 2356 3500 
L 2356 3053 
L 1172 3053 
L 1172 1153 
Q 1172 725 1289 603 
Q 1406 481 1766 481 
L 2356 481 
L 2356 0 
L 1766 0 
Q 1100 0 847 248 
Q 594 497 594 1153 
L 594 3053 
L 172 3053 
L 172 3500 
L 594 3500 
L 594 4494 
L 1172 4494 
z
" transform="scale(0.015625)"/>
       <path id="DejaVuSans-61" d="M 2194 1759 
Q 1497 1759 1228 1600 
Q 959 1441 959 1056 
Q 959 750 1161 570 
Q 1363 391 1709 391 
Q 2188 391 2477 730 
Q 2766 1069 2766 1631 
L 2766 1759 
L 2194 1759 
z
M 3341 1997 
L 3341 0 
L 2766 0 
L 2766 531 
Q 2569 213 2275 61 
Q 1981 -91 1556 -91 
Q 1019 -91 701 211 
Q 384 513 384 1019 
Q 384 1609 779 1909 
Q 1175 2209 1959 2209 
L 2766 2209 
L 2766 2266 
Q 2766 2663 2505 2880 
Q 2244 3097 1772 3097 
Q 1472 3097 1187 3025 
Q 903 2953 641 2809 
L 641 3341 
Q 956 3463 1253 3523 
Q 1550 3584 1831 3584 
Q 2591 3584 2966 3190 
Q 3341 2797 3341 1997 
z
" transform="scale(0.015625)"/>
      </defs>
      <use xlink:href="#DejaVuSans-34"/>
      <use xlink:href="#DejaVuSans-20" transform="translate(63.623047 0)"/>
      <use xlink:href="#DejaVuSans-41" transform="translate(95.410156 0)"/>
      <use xlink:href="#DejaVuSans-20" transform="translate(163.818359 0)"/>
      <use xlink:href="#DejaVuSans-63" transform="translate(195.605469 0)"/>
      <use xlink:href="#DejaVuSans-6f" transform="translate(250.585938 0)"/>
      <use xlink:href="#DejaVuSans-6e" transform="translate(311.767578 0)"/>
      <use xlink:href="#DejaVuSans-74" transform="translate(375.146484 0)"/>
      <use xlink:href="#DejaVuSans-61" transform="translate(414.355469 0)"/>
      <use xlink:href="#DejaVuSans-63" transform="translate(475.634766 0)"/>
      <use xlink:href="#DejaVuSans-74" transform="translate(530.615234 0)"/>
      <use xlink:href="#DejaVuSans-73" transform="translate(569.824219 0)"/>
     </g>
    </g>
   </g>
   <g id="line2d_47">
    <path d="M 59.992216 273.833484 
L 61.869125 260.530317 
L 65.622943 276.494118 
L 67.499852 279.154751 
L 69.376761 284.476018 
L 71.25367 276.494118 
L 73.13058 295.118552 
L 75.007489 308.421719 
L 76.884398 279.154751 
L 78.761307 276.494118 
L 80.638216 303.100452 
L 82.515125 297.779186 
L 84.392034 303.100452 
L 86.268943 303.100452 
L 88.145852 311.082353 
L 90.022761 308.421719 
L 91.89967 292.457919 
L 93.77658 281.815385 
L 95.653489 268.512217 
L 97.530398 289.797285 
L 99.407307 305.761086 
L 101.284216 295.118552 
L 103.161125 295.118552 
L 105.038034 292.457919 
L 106.914943 287.136652 
L 108.791852 292.457919 
L 110.668761 273.833484 
L 112.54567 292.457919 
L 114.42258 279.154751 
L 116.299489 303.100452 
L 118.176398 279.154751 
L 120.053307 268.512217 
L 121.930216 247.227149 
L 123.807125 263.19095 
L 125.684034 263.19095 
L 127.560943 255.20905 
L 129.437852 263.19095 
L 131.314761 247.227149 
L 133.19167 268.512217 
L 135.06858 265.851584 
L 136.945489 265.851584 
L 138.822398 279.154751 
L 140.699307 273.833484 
L 142.576216 260.530317 
L 144.453125 257.869683 
L 146.330034 273.833484 
L 148.206943 273.833484 
L 150.083852 271.172851 
L 151.960761 265.851584 
L 153.83767 271.172851 
L 155.71458 249.887783 
L 157.591489 260.530317 
L 159.468398 257.869683 
L 161.345307 279.154751 
L 163.222216 268.512217 
L 165.099125 281.815385 
L 166.976034 273.833484 
L 168.852943 273.833484 
L 170.729852 276.494118 
L 172.606761 260.530317 
L 174.48367 252.548416 
L 176.36058 273.833484 
L 178.237489 268.512217 
L 180.114398 276.494118 
L 181.991307 263.19095 
L 183.868216 273.833484 
L 185.745125 279.154751 
L 187.622034 281.815385 
L 189.498943 268.512217 
L 191.375852 260.530317 
L 193.252761 273.833484 
L 195.12967 271.172851 
L 197.00658 260.530317 
L 198.883489 265.851584 
L 200.760398 281.815385 
L 202.637307 281.815385 
L 204.514216 265.851584 
L 206.391125 265.851584 
L 208.268034 284.476018 
L 210.144943 268.512217 
L 212.021852 284.476018 
L 213.898761 289.797285 
L 215.77567 276.494118 
L 217.65258 284.476018 
L 219.529489 263.19095 
L 221.406398 265.851584 
L 223.283307 249.887783 
L 225.160216 276.494118 
L 227.037125 255.20905 
L 228.914034 263.19095 
L 230.790943 276.494118 
L 232.667852 249.887783 
L 234.544761 279.154751 
L 236.42167 249.887783 
L 238.29858 255.20905 
L 240.175489 252.548416 
L 242.052398 271.172851 
L 243.929307 271.172851 
L 245.806216 260.530317 
L 247.683125 260.530317 
L 249.560034 276.494118 
L 251.436943 260.530317 
L 253.313852 271.172851 
L 255.190761 252.548416 
L 257.06767 268.512217 
L 258.94458 255.20905 
L 260.821489 244.566516 
L 262.698398 249.887783 
L 264.575307 249.887783 
L 266.452216 265.851584 
L 268.329125 260.530317 
L 270.206034 260.530317 
L 272.082943 268.512217 
L 273.959852 255.20905 
L 275.836761 247.227149 
L 277.71367 268.512217 
L 279.59058 236.584615 
L 281.467489 252.548416 
L 283.344398 257.869683 
L 285.221307 265.851584 
L 287.098216 257.869683 
L 288.975125 247.227149 
L 290.852034 249.887783 
L 294.605852 260.530317 
L 296.482761 260.530317 
L 298.35967 252.548416 
L 300.23658 255.20905 
L 302.113489 265.851584 
L 303.990398 273.833484 
L 305.867307 273.833484 
L 307.744216 257.869683 
L 309.621125 263.19095 
L 311.498034 249.887783 
L 313.374943 268.512217 
L 315.251852 252.548416 
L 317.128761 249.887783 
L 320.88258 255.20905 
L 322.759489 276.494118 
L 324.636398 279.154751 
L 326.513307 252.548416 
L 328.390216 276.494118 
L 330.267125 263.19095 
L 332.144034 271.172851 
L 334.020943 276.494118 
L 335.897852 289.797285 
L 337.774761 260.530317 
L 339.65167 287.136652 
L 341.52858 289.797285 
L 343.405489 268.512217 
L 345.282398 295.118552 
L 347.159307 268.512217 
L 349.036216 268.512217 
L 350.913125 265.851584 
L 352.790034 271.172851 
L 354.666943 271.172851 
L 356.543852 281.815385 
L 358.420761 257.869683 
L 360.29767 268.512217 
L 362.17458 276.494118 
L 364.051489 257.869683 
L 365.928398 260.530317 
L 367.805307 260.530317 
L 369.682216 263.19095 
L 371.559125 252.548416 
L 373.436034 268.512217 
L 375.312943 271.172851 
L 377.189852 260.530317 
L 379.066761 252.548416 
L 380.94367 271.172851 
L 382.82058 281.815385 
L 384.697489 279.154751 
L 386.574398 268.512217 
L 388.451307 273.833484 
L 390.328216 260.530317 
L 392.205125 276.494118 
L 394.082034 265.851584 
L 395.958943 284.476018 
L 397.835852 276.494118 
L 399.712761 271.172851 
L 401.58967 255.20905 
L 403.46658 260.530317 
L 405.343489 263.19095 
L 407.220398 271.172851 
L 409.097307 265.851584 
L 410.974216 276.494118 
L 412.851125 279.154751 
L 414.728034 265.851584 
L 416.604943 279.154751 
L 418.481852 268.512217 
L 420.358761 265.851584 
L 422.23567 257.869683 
L 424.11258 271.172851 
L 425.989489 260.530317 
L 427.866398 276.494118 
L 429.743307 276.494118 
L 431.620216 260.530317 
L 433.497125 255.20905 
L 433.497125 255.20905 
" clip-path="url(#p4bc61e02f0)" style="fill: none; stroke: #1f77b4; stroke-linecap: square"/>
   </g>
   <g id="line2d_48">
    <path d="M 59.992216 239.245249 
L 61.869125 252.548416 
L 63.746034 228.602715 
L 65.622943 265.851584 
L 67.499852 255.20905 
L 69.376761 247.227149 
L 71.25367 265.851584 
L 73.13058 241.905882 
L 75.007489 265.851584 
L 76.884398 244.566516 
L 78.761307 239.245249 
L 80.638216 252.548416 
L 82.515125 233.923982 
L 84.392034 233.923982 
L 86.268943 268.512217 
L 88.145852 257.869683 
L 90.022761 244.566516 
L 91.89967 241.905882 
L 93.77658 268.512217 
L 95.653489 284.476018 
L 97.530398 249.887783 
L 99.407307 268.512217 
L 101.284216 263.19095 
L 103.161125 244.566516 
L 105.038034 244.566516 
L 106.914943 255.20905 
L 108.791852 247.227149 
L 110.668761 257.869683 
L 112.54567 255.20905 
L 114.42258 236.584615 
L 116.299489 263.19095 
L 118.176398 257.869683 
L 120.053307 233.923982 
L 121.930216 244.566516 
L 123.807125 271.172851 
L 125.684034 249.887783 
L 127.560943 244.566516 
L 129.437852 257.869683 
L 131.314761 249.887783 
L 133.19167 247.227149 
L 135.06858 255.20905 
L 136.945489 252.548416 
L 138.822398 233.923982 
L 140.699307 236.584615 
L 142.576216 225.942081 
L 144.453125 236.584615 
L 146.330034 233.923982 
L 148.206943 233.923982 
L 150.083852 212.638914 
L 151.960761 225.942081 
L 153.83767 220.620814 
L 155.71458 252.548416 
L 157.591489 231.263348 
L 159.468398 252.548416 
L 161.345307 223.281448 
L 163.222216 233.923982 
L 165.099125 249.887783 
L 166.976034 257.869683 
L 168.852943 239.245249 
L 170.729852 263.19095 
L 172.606761 233.923982 
L 174.48367 239.245249 
L 176.36058 228.602715 
L 178.237489 236.584615 
L 180.114398 239.245249 
L 181.991307 247.227149 
L 183.868216 249.887783 
L 185.745125 263.19095 
L 187.622034 255.20905 
L 189.498943 236.584615 
L 191.375852 249.887783 
L 193.252761 241.905882 
L 195.12967 244.566516 
L 197.00658 239.245249 
L 198.883489 249.887783 
L 200.760398 231.263348 
L 202.637307 239.245249 
L 204.514216 220.620814 
L 206.391125 239.245249 
L 208.268034 233.923982 
L 210.144943 225.942081 
L 212.021852 241.905882 
L 213.898761 247.227149 
L 215.77567 239.245249 
L 217.65258 257.869683 
L 219.529489 236.584615 
L 221.406398 236.584615 
L 223.283307 239.245249 
L 225.160216 247.227149 
L 227.037125 241.905882 
L 228.914034 252.548416 
L 230.790943 247.227149 
L 232.667852 244.566516 
L 234.544761 239.245249 
L 236.42167 241.905882 
L 238.29858 249.887783 
L 240.175489 244.566516 
L 242.052398 231.263348 
L 243.929307 233.923982 
L 245.806216 244.566516 
L 247.683125 236.584615 
L 249.560034 239.245249 
L 251.436943 236.584615 
L 253.313852 265.851584 
L 255.190761 249.887783 
L 258.94458 239.245249 
L 260.821489 239.245249 
L 262.698398 249.887783 
L 264.575307 257.869683 
L 266.452216 239.245249 
L 268.329125 263.19095 
L 270.206034 241.905882 
L 272.082943 231.263348 
L 273.959852 247.227149 
L 275.836761 260.530317 
L 277.71367 236.584615 
L 279.59058 247.227149 
L 281.467489 231.263348 
L 283.344398 249.887783 
L 285.221307 228.602715 
L 287.098216 247.227149 
L 288.975125 236.584615 
L 290.852034 260.530317 
L 292.728943 244.566516 
L 294.605852 233.923982 
L 296.482761 231.263348 
L 298.35967 239.245249 
L 300.23658 233.923982 
L 302.113489 271.172851 
L 303.990398 239.245249 
L 305.867307 247.227149 
L 307.744216 247.227149 
L 309.621125 239.245249 
L 311.498034 239.245249 
L 313.374943 247.227149 
L 317.128761 236.584615 
L 319.00567 247.227149 
L 320.88258 231.263348 
L 322.759489 233.923982 
L 326.513307 228.602715 
L 328.390216 231.263348 
L 330.267125 231.263348 
L 332.144034 233.923982 
L 334.020943 228.602715 
L 335.897852 239.245249 
L 337.774761 231.263348 
L 339.65167 236.584615 
L 341.52858 255.20905 
L 343.405489 223.281448 
L 345.282398 247.227149 
L 347.159307 233.923982 
L 349.036216 215.299548 
L 350.913125 255.20905 
L 352.790034 241.905882 
L 354.666943 236.584615 
L 356.543852 244.566516 
L 358.420761 212.638914 
L 360.29767 236.584615 
L 362.17458 263.19095 
L 364.051489 244.566516 
L 365.928398 255.20905 
L 367.805307 233.923982 
L 369.682216 231.263348 
L 371.559125 223.281448 
L 373.436034 247.227149 
L 375.312943 236.584615 
L 377.189852 239.245249 
L 379.066761 252.548416 
L 380.94367 247.227149 
L 382.82058 236.584615 
L 384.697489 236.584615 
L 386.574398 225.942081 
L 388.451307 247.227149 
L 390.328216 236.584615 
L 392.205125 231.263348 
L 394.082034 247.227149 
L 395.958943 239.245249 
L 397.835852 225.942081 
L 399.712761 249.887783 
L 401.58967 236.584615 
L 403.46658 241.905882 
L 405.343489 231.263348 
L 407.220398 265.851584 
L 409.097307 212.638914 
L 410.974216 241.905882 
L 412.851125 260.530317 
L 414.728034 241.905882 
L 416.604943 255.20905 
L 418.481852 228.602715 
L 420.358761 239.245249 
L 422.23567 263.19095 
L 424.11258 247.227149 
L 425.989489 233.923982 
L 427.866398 252.548416 
L 429.743307 244.566516 
L 431.620216 247.227149 
L 433.497125 233.923982 
L 435.374034 207.317647 
L 435.374034 207.317647 
" clip-path="url(#p4bc61e02f0)" style="fill: none; stroke: #2ca02c; stroke-linecap: square"/>
   </g>
   <g id="line2d_49">
    <path d="M 59.992216 279.154751 
L 61.869125 268.512217 
L 63.746034 241.905882 
L 65.622943 241.905882 
L 67.499852 273.833484 
L 69.376761 265.851584 
L 71.25367 260.530317 
L 73.13058 284.476018 
L 75.007489 271.172851 
L 76.884398 284.476018 
L 78.761307 273.833484 
L 80.638216 252.548416 
L 82.515125 276.494118 
L 84.392034 268.512217 
L 86.268943 257.869683 
L 88.145852 276.494118 
L 90.022761 273.833484 
L 91.89967 260.530317 
L 93.77658 276.494118 
L 95.653489 244.566516 
L 97.530398 268.512217 
L 99.407307 263.19095 
L 101.284216 281.815385 
L 103.161125 257.869683 
L 105.038034 255.20905 
L 106.914943 249.887783 
L 108.791852 255.20905 
L 110.668761 279.154751 
L 112.54567 281.815385 
L 114.42258 276.494118 
L 116.299489 287.136652 
L 118.176398 257.869683 
L 120.053307 276.494118 
L 121.930216 279.154751 
L 123.807125 292.457919 
L 125.684034 273.833484 
L 127.560943 284.476018 
L 129.437852 271.172851 
L 131.314761 279.154751 
L 133.19167 268.512217 
L 135.06858 273.833484 
L 136.945489 268.512217 
L 138.822398 260.530317 
L 140.699307 271.172851 
L 144.453125 265.851584 
L 146.330034 265.851584 
L 150.083852 271.172851 
L 151.960761 276.494118 
L 153.83767 265.851584 
L 155.71458 284.476018 
L 157.591489 279.154751 
L 159.468398 300.439819 
L 161.345307 281.815385 
L 163.222216 273.833484 
L 165.099125 295.118552 
L 166.976034 292.457919 
L 168.852943 268.512217 
L 170.729852 281.815385 
L 172.606761 257.869683 
L 174.48367 279.154751 
L 176.36058 268.512217 
L 178.237489 281.815385 
L 180.114398 260.530317 
L 185.745125 276.494118 
L 187.622034 271.172851 
L 189.498943 273.833484 
L 191.375852 279.154751 
L 193.252761 281.815385 
L 195.12967 289.797285 
L 197.00658 292.457919 
L 198.883489 289.797285 
L 200.760398 265.851584 
L 202.637307 276.494118 
L 206.391125 276.494118 
L 208.268034 284.476018 
L 210.144943 284.476018 
L 212.021852 281.815385 
L 213.898761 268.512217 
L 217.65258 279.154751 
L 219.529489 268.512217 
L 221.406398 273.833484 
L 223.283307 276.494118 
L 225.160216 271.172851 
L 227.037125 271.172851 
L 228.914034 287.136652 
L 230.790943 279.154751 
L 232.667852 273.833484 
L 234.544761 257.869683 
L 236.42167 281.815385 
L 238.29858 284.476018 
L 240.175489 281.815385 
L 242.052398 265.851584 
L 243.929307 289.797285 
L 245.806216 273.833484 
L 247.683125 279.154751 
L 249.560034 297.779186 
L 251.436943 281.815385 
L 253.313852 292.457919 
L 255.190761 284.476018 
L 257.06767 289.797285 
L 258.94458 281.815385 
L 260.821489 292.457919 
L 262.698398 281.815385 
L 264.575307 284.476018 
L 266.452216 289.797285 
L 268.329125 279.154751 
L 270.206034 284.476018 
L 272.082943 279.154751 
L 273.959852 297.779186 
L 275.836761 289.797285 
L 277.71367 271.172851 
L 279.59058 292.457919 
L 281.467489 284.476018 
L 283.344398 268.512217 
L 285.221307 300.439819 
L 287.098216 300.439819 
L 288.975125 297.779186 
L 290.852034 287.136652 
L 292.728943 287.136652 
L 294.605852 273.833484 
L 296.482761 271.172851 
L 298.35967 284.476018 
L 300.23658 271.172851 
L 302.113489 281.815385 
L 303.990398 281.815385 
L 305.867307 263.19095 
L 307.744216 281.815385 
L 309.621125 273.833484 
L 311.498034 268.512217 
L 313.374943 273.833484 
L 315.251852 297.779186 
L 317.128761 281.815385 
L 319.00567 271.172851 
L 320.88258 287.136652 
L 322.759489 265.851584 
L 324.636398 276.494118 
L 326.513307 257.869683 
L 328.390216 279.154751 
L 330.267125 279.154751 
L 332.144034 289.797285 
L 334.020943 268.512217 
L 335.897852 281.815385 
L 337.774761 281.815385 
L 339.65167 279.154751 
L 341.52858 284.476018 
L 343.405489 279.154751 
L 345.282398 265.851584 
L 347.159307 271.172851 
L 349.036216 265.851584 
L 350.913125 287.136652 
L 352.790034 273.833484 
L 354.666943 279.154751 
L 356.543852 268.512217 
L 358.420761 281.815385 
L 360.29767 273.833484 
L 362.17458 273.833484 
L 364.051489 257.869683 
L 365.928398 263.19095 
L 367.805307 260.530317 
L 369.682216 271.172851 
L 371.559125 273.833484 
L 373.436034 263.19095 
L 375.312943 281.815385 
L 377.189852 273.833484 
L 380.94367 289.797285 
L 382.82058 273.833484 
L 384.697489 268.512217 
L 388.451307 279.154751 
L 390.328216 276.494118 
L 392.205125 265.851584 
L 394.082034 265.851584 
L 395.958943 271.172851 
L 397.835852 281.815385 
L 399.712761 263.19095 
L 401.58967 284.476018 
L 403.46658 281.815385 
L 405.343489 281.815385 
L 407.220398 297.779186 
L 409.097307 287.136652 
L 410.974216 268.512217 
L 412.851125 273.833484 
L 414.728034 281.815385 
L 416.604943 287.136652 
L 418.481852 287.136652 
L 422.23567 281.815385 
L 424.11258 268.512217 
L 425.989489 292.457919 
L 427.866398 281.815385 
L 429.743307 289.797285 
L 431.620216 292.457919 
L 433.497125 297.779186 
L 433.497125 297.779186 
" clip-path="url(#p4bc61e02f0)" style="fill: none; stroke: #d62728; stroke-linecap: square"/>
   </g>
   <g id="patch_8">
    <path d="M 41.223125 316.270588 
L 41.223125 202.129412 
" style="fill: none; stroke: #000000; stroke-width: 0.8; stroke-linejoin: miter; stroke-linecap: square"/>
   </g>
   <g id="patch_9">
    <path d="M 454.143125 316.270588 
L 454.143125 202.129412 
" style="fill: none; stroke: #000000; stroke-width: 0.8; stroke-linejoin: miter; stroke-linecap: square"/>
   </g>
   <g id="patch_10">
    <path d="M 41.223125 316.270588 
L 454.143125 316.270588 
" style="fill: none; stroke: #000000; stroke-width: 0.8; stroke-linejoin: miter; stroke-linecap: square"/>
   </g>
   <g id="patch_11">
    <path d="M 41.223125 202.129412 
L 454.143125 202.129412 
" style="fill: none; stroke: #000000; stroke-width: 0.8; stroke-linejoin: miter; stroke-linecap: square"/>
   </g>
   <g id="legend_2">
    <g id="line2d_50">
     <path d="M 161.170625 213.918006 
L 170.170625 213.918006 
L 179.170625 213.918006 
" style="fill: none; stroke: #1f77b4; stroke-linecap: square"/>
    </g>
    <g id="text_14">
     <!-- rep1 -->
     <g transform="translate(186.370625 217.068006) scale(0.09 -0.09)">
      <use xlink:href="#DejaVuSans-72"/>
      <use xlink:href="#DejaVuSans-65" transform="translate(38.863281 0)"/>
      <use xlink:href="#DejaVuSans-70" transform="translate(100.386719 0)"/>
      <use xlink:href="#DejaVuSans-31" transform="translate(163.863281 0)"/>
     </g>
    </g>
    <g id="line2d_51">
     <path d="M 224.845625 213.918006 
L 233.845625 213.918006 
L 242.845625 213.918006 
" style="fill: none; stroke: #2ca02c; stroke-linecap: square"/>
    </g>
    <g id="text_15">
     <!-- rep2 -->
     <g transform="translate(250.045625 217.068006) scale(0.09 -0.09)">
      <use xlink:href="#DejaVuSans-72"/>
      <use xlink:href="#DejaVuSans-65" transform="translate(38.863281 0)"/>
      <use xlink:href="#DejaVuSans-70" transform="translate(100.386719 0)"/>
      <use xlink:href="#DejaVuSans-32" transform="translate(163.863281 0)"/>
     </g>
    </g>
    <g id="line2d_52">
     <path d="M 288.520625 213.918006 
L 297.520625 213.918006 
L 306.520625 213.918006 
" style="fill: none; stroke: #d62728; stroke-linecap: square"/>
    </g>
    <g id="text_16">
     <!-- rep3 -->
     <g transform="translate(313.720625 217.068006) scale(0.09 -0.09)">
      <use xlink:href="#DejaVuSans-72"/>
      <use xlink:href="#DejaVuSans-65" transform="translate(38.863281 0)"/>
      <use xlink:href="#DejaVuSans-70" transform="translate(100.386719 0)"/>
      <use xlink:href="#DejaVuSans-33" transform="translate(163.863281 0)"/>
     </g>
    </g>
   </g>
  </g>
  <g id="axes_3">
   <g id="patch_12">
    <path d="M 41.223125 453.24 
L 454.143125 453.24 
L 454.143125 339.098824 
L 41.223125 339.098824 
z
" style="fill: #ffffff"/>
   </g>
   <g id="matplotlib.axis_5">
    <g id="xtick_13">
     <g id="line2d_53">
      <path d="M 59.992216 453.24 
L 59.992216 339.098824 
" clip-path="url(#p34a30d2081)" style="fill: none; stroke: #b0b0b0; stroke-opacity: 0.25; stroke-width: 0.8; stroke-linecap: square"/>
     </g>
     <g id="line2d_54">
      <g>
       <use xlink:href="#m9bf55e7c69" x="59.992216" y="453.24" style="stroke: #000000; stroke-width: 0.8"/>
      </g>
     </g>
     <g id="text_17">
      <!-- 0 -->
      <g transform="translate(57.129091 467.078594) scale(0.09 -0.09)">
       <use xlink:href="#DejaVuSans-30"/>
      </g>
     </g>
    </g>
    <g id="xtick_14">
     <g id="line2d_55">
      <path d="M 135.06858 453.24 
L 135.06858 339.098824 
" clip-path="url(#p34a30d2081)" style="fill: none; stroke: #b0b0b0; stroke-opacity: 0.25; stroke-width: 0.8; stroke-linecap: square"/>
     </g>
     <g id="line2d_56">
      <g>
       <use xlink:href="#m9bf55e7c69" x="135.06858" y="453.24" style="stroke: #000000; stroke-width: 0.8"/>
      </g>
     </g>
     <g id="text_18">
      <!-- 20 -->
      <g transform="translate(129.34233 467.078594) scale(0.09 -0.09)">
       <use xlink:href="#DejaVuSans-32"/>
       <use xlink:href="#DejaVuSans-30" transform="translate(63.623047 0)"/>
      </g>
     </g>
    </g>
    <g id="xtick_15">
     <g id="line2d_57">
      <path d="M 210.144943 453.24 
L 210.144943 339.098824 
" clip-path="url(#p34a30d2081)" style="fill: none; stroke: #b0b0b0; stroke-opacity: 0.25; stroke-width: 0.8; stroke-linecap: square"/>
     </g>
     <g id="line2d_58">
      <g>
       <use xlink:href="#m9bf55e7c69" x="210.144943" y="453.24" style="stroke: #000000; stroke-width: 0.8"/>
      </g>
     </g>
     <g id="text_19">
      <!-- 40 -->
      <g transform="translate(204.418693 467.078594) scale(0.09 -0.09)">
       <use xlink:href="#DejaVuSans-34"/>
       <use xlink:href="#DejaVuSans-30" transform="translate(63.623047 0)"/>
      </g>
     </g>
    </g>
    <g id="xtick_16">
     <g id="line2d_59">
      <path d="M 285.221307 453.24 
L 285.221307 339.098824 
" clip-path="url(#p34a30d2081)" style="fill: none; stroke: #b0b0b0; stroke-opacity: 0.25; stroke-width: 0.8; stroke-linecap: square"/>
     </g>
     <g id="line2d_60">
      <g>
       <use xlink:href="#m9bf55e7c69" x="285.221307" y="453.24" style="stroke: #000000; stroke-width: 0.8"/>
      </g>
     </g>
     <g id="text_20">
      <!-- 60 -->
      <g transform="translate(279.495057 467.078594) scale(0.09 -0.09)">
       <use xlink:href="#DejaVuSans-36"/>
       <use xlink:href="#DejaVuSans-30" transform="translate(63.623047 0)"/>
      </g>
     </g>
    </g>
    <g id="xtick_17">
     <g id="line2d_61">
      <path d="M 360.29767 453.24 
L 360.29767 339.098824 
" clip-path="url(#p34a30d2081)" style="fill: none; stroke: #b0b0b0; stroke-opacity: 0.25; stroke-width: 0.8; stroke-linecap: square"/>
     </g>
     <g id="line2d_62">
      <g>
       <use xlink:href="#m9bf55e7c69" x="360.29767" y="453.24" style="stroke: #000000; stroke-width: 0.8"/>
      </g>
     </g>
     <g id="text_21">
      <!-- 80 -->
      <g transform="translate(354.57142 467.078594) scale(0.09 -0.09)">
       <defs>
        <path id="DejaVuSans-38" d="M 2034 2216 
Q 1584 2216 1326 1975 
Q 1069 1734 1069 1313 
Q 1069 891 1326 650 
Q 1584 409 2034 409 
Q 2484 409 2743 651 
Q 3003 894 3003 1313 
Q 3003 1734 2745 1975 
Q 2488 2216 2034 2216 
z
M 1403 2484 
Q 997 2584 770 2862 
Q 544 3141 544 3541 
Q 544 4100 942 4425 
Q 1341 4750 2034 4750 
Q 2731 4750 3128 4425 
Q 3525 4100 3525 3541 
Q 3525 3141 3298 2862 
Q 3072 2584 2669 2484 
Q 3125 2378 3379 2068 
Q 3634 1759 3634 1313 
Q 3634 634 3220 271 
Q 2806 -91 2034 -91 
Q 1263 -91 848 271 
Q 434 634 434 1313 
Q 434 1759 690 2068 
Q 947 2378 1403 2484 
z
M 1172 3481 
Q 1172 3119 1398 2916 
Q 1625 2713 2034 2713 
Q 2441 2713 2670 2916 
Q 2900 3119 2900 3481 
Q 2900 3844 2670 4047 
Q 2441 4250 2034 4250 
Q 1625 4250 1398 4047 
Q 1172 3844 1172 3481 
z
" transform="scale(0.015625)"/>
       </defs>
       <use xlink:href="#DejaVuSans-38"/>
       <use xlink:href="#DejaVuSans-30" transform="translate(63.623047 0)"/>
      </g>
     </g>
    </g>
    <g id="xtick_18">
     <g id="line2d_63">
      <path d="M 435.374034 453.24 
L 435.374034 339.098824 
" clip-path="url(#p34a30d2081)" style="fill: none; stroke: #b0b0b0; stroke-opacity: 0.25; stroke-width: 0.8; stroke-linecap: square"/>
     </g>
     <g id="line2d_64">
      <g>
       <use xlink:href="#m9bf55e7c69" x="435.374034" y="453.24" style="stroke: #000000; stroke-width: 0.8"/>
      </g>
     </g>
     <g id="text_22">
      <!-- 100 -->
      <g transform="translate(426.784659 467.078594) scale(0.09 -0.09)">
       <use xlink:href="#DejaVuSans-31"/>
       <use xlink:href="#DejaVuSans-30" transform="translate(63.623047 0)"/>
       <use xlink:href="#DejaVuSans-30" transform="translate(127.246094 0)"/>
      </g>
     </g>
    </g>
    <g id="text_23">
     <!-- Time (ns) -->
     <g transform="translate(226.535234 479.788906) scale(0.09 -0.09)">
      <defs>
       <path id="DejaVuSans-54" d="M -19 4666 
L 3928 4666 
L 3928 4134 
L 2272 4134 
L 2272 0 
L 1638 0 
L 1638 4134 
L -19 4134 
L -19 4666 
z
" transform="scale(0.015625)"/>
       <path id="DejaVuSans-69" d="M 603 3500 
L 1178 3500 
L 1178 0 
L 603 0 
L 603 3500 
z
M 603 4863 
L 1178 4863 
L 1178 4134 
L 603 4134 
L 603 4863 
z
" transform="scale(0.015625)"/>
       <path id="DejaVuSans-6d" d="M 3328 2828 
Q 3544 3216 3844 3400 
Q 4144 3584 4550 3584 
Q 5097 3584 5394 3201 
Q 5691 2819 5691 2113 
L 5691 0 
L 5113 0 
L 5113 2094 
Q 5113 2597 4934 2840 
Q 4756 3084 4391 3084 
Q 3944 3084 3684 2787 
Q 3425 2491 3425 1978 
L 3425 0 
L 2847 0 
L 2847 2094 
Q 2847 2600 2669 2842 
Q 2491 3084 2119 3084 
Q 1678 3084 1418 2786 
Q 1159 2488 1159 1978 
L 1159 0 
L 581 0 
L 581 3500 
L 1159 3500 
L 1159 2956 
Q 1356 3278 1631 3431 
Q 1906 3584 2284 3584 
Q 2666 3584 2933 3390 
Q 3200 3197 3328 2828 
z
" transform="scale(0.015625)"/>
      </defs>
      <use xlink:href="#DejaVuSans-54"/>
      <use xlink:href="#DejaVuSans-69" transform="translate(57.958984 0)"/>
      <use xlink:href="#DejaVuSans-6d" transform="translate(85.742188 0)"/>
      <use xlink:href="#DejaVuSans-65" transform="translate(183.154297 0)"/>
      <use xlink:href="#DejaVuSans-20" transform="translate(244.677734 0)"/>
      <use xlink:href="#DejaVuSans-28" transform="translate(276.464844 0)"/>
      <use xlink:href="#DejaVuSans-6e" transform="translate(315.478516 0)"/>
      <use xlink:href="#DejaVuSans-73" transform="translate(378.857422 0)"/>
      <use xlink:href="#DejaVuSans-29" transform="translate(430.957031 0)"/>
     </g>
    </g>
   </g>
   <g id="matplotlib.axis_6">
    <g id="ytick_9">
     <g id="line2d_65">
      <path d="M 41.223125 448.214484 
L 454.143125 448.214484 
" clip-path="url(#p34a30d2081)" style="fill: none; stroke: #b0b0b0; stroke-opacity: 0.25; stroke-width: 0.8; stroke-linecap: square"/>
     </g>
     <g id="line2d_66">
      <g>
       <use xlink:href="#mcda565f9dc" x="41.223125" y="448.214484" style="stroke: #000000; stroke-width: 0.8"/>
      </g>
     </g>
     <g id="text_24">
      <!-- 0.0 -->
      <g transform="translate(19.910312 451.633781) scale(0.09 -0.09)">
       <defs>
        <path id="DejaVuSans-2e" d="M 684 794 
L 1344 794 
L 1344 0 
L 684 0 
L 684 794 
z
" transform="scale(0.015625)"/>
       </defs>
       <use xlink:href="#DejaVuSans-30"/>
       <use xlink:href="#DejaVuSans-2e" transform="translate(63.623047 0)"/>
       <use xlink:href="#DejaVuSans-30" transform="translate(95.410156 0)"/>
      </g>
     </g>
    </g>
    <g id="ytick_10">
     <g id="line2d_67">
      <path d="M 41.223125 419.398764 
L 454.143125 419.398764 
" clip-path="url(#p34a30d2081)" style="fill: none; stroke: #b0b0b0; stroke-opacity: 0.25; stroke-width: 0.8; stroke-linecap: square"/>
     </g>
     <g id="line2d_68">
      <g>
       <use xlink:href="#mcda565f9dc" x="41.223125" y="419.398764" style="stroke: #000000; stroke-width: 0.8"/>
      </g>
     </g>
     <g id="text_25">
      <!-- 0.2 -->
      <g transform="translate(19.910312 422.818061) scale(0.09 -0.09)">
       <use xlink:href="#DejaVuSans-30"/>
       <use xlink:href="#DejaVuSans-2e" transform="translate(63.623047 0)"/>
       <use xlink:href="#DejaVuSans-32" transform="translate(95.410156 0)"/>
      </g>
     </g>
    </g>
    <g id="ytick_11">
     <g id="line2d_69">
      <path d="M 41.223125 390.583044 
L 454.143125 390.583044 
" clip-path="url(#p34a30d2081)" style="fill: none; stroke: #b0b0b0; stroke-opacity: 0.25; stroke-width: 0.8; stroke-linecap: square"/>
     </g>
     <g id="line2d_70">
      <g>
       <use xlink:href="#mcda565f9dc" x="41.223125" y="390.583044" style="stroke: #000000; stroke-width: 0.8"/>
      </g>
     </g>
     <g id="text_26">
      <!-- 0.4 -->
      <g transform="translate(19.910312 394.00234) scale(0.09 -0.09)">
       <use xlink:href="#DejaVuSans-30"/>
       <use xlink:href="#DejaVuSans-2e" transform="translate(63.623047 0)"/>
       <use xlink:href="#DejaVuSans-34" transform="translate(95.410156 0)"/>
      </g>
     </g>
    </g>
    <g id="ytick_12">
     <g id="line2d_71">
      <path d="M 41.223125 361.767323 
L 454.143125 361.767323 
" clip-path="url(#p34a30d2081)" style="fill: none; stroke: #b0b0b0; stroke-opacity: 0.25; stroke-width: 0.8; stroke-linecap: square"/>
     </g>
     <g id="line2d_72">
      <g>
       <use xlink:href="#mcda565f9dc" x="41.223125" y="361.767323" style="stroke: #000000; stroke-width: 0.8"/>
      </g>
     </g>
     <g id="text_27">
      <!-- 0.6 -->
      <g transform="translate(19.910312 365.18662) scale(0.09 -0.09)">
       <use xlink:href="#DejaVuSans-30"/>
       <use xlink:href="#DejaVuSans-2e" transform="translate(63.623047 0)"/>
       <use xlink:href="#DejaVuSans-36" transform="translate(95.410156 0)"/>
      </g>
     </g>
    </g>
    <g id="text_28">
     <!-- Ligand SASA (nm2) -->
     <g transform="translate(14.038594 439.758943) rotate(-90) scale(0.09 -0.09)">
      <defs>
       <path id="DejaVuSans-4c" d="M 628 4666 
L 1259 4666 
L 1259 531 
L 3531 531 
L 3531 0 
L 628 0 
L 628 4666 
z
" transform="scale(0.015625)"/>
       <path id="DejaVuSans-67" d="M 2906 1791 
Q 2906 2416 2648 2759 
Q 2391 3103 1925 3103 
Q 1463 3103 1205 2759 
Q 947 2416 947 1791 
Q 947 1169 1205 825 
Q 1463 481 1925 481 
Q 2391 481 2648 825 
Q 2906 1169 2906 1791 
z
M 3481 434 
Q 3481 -459 3084 -895 
Q 2688 -1331 1869 -1331 
Q 1566 -1331 1297 -1286 
Q 1028 -1241 775 -1147 
L 775 -588 
Q 1028 -725 1275 -790 
Q 1522 -856 1778 -856 
Q 2344 -856 2625 -561 
Q 2906 -266 2906 331 
L 2906 616 
Q 2728 306 2450 153 
Q 2172 0 1784 0 
Q 1141 0 747 490 
Q 353 981 353 1791 
Q 353 2603 747 3093 
Q 1141 3584 1784 3584 
Q 2172 3584 2450 3431 
Q 2728 3278 2906 2969 
L 2906 3500 
L 3481 3500 
L 3481 434 
z
" transform="scale(0.015625)"/>
       <path id="DejaVuSans-64" d="M 2906 2969 
L 2906 4863 
L 3481 4863 
L 3481 0 
L 2906 0 
L 2906 525 
Q 2725 213 2448 61 
Q 2172 -91 1784 -91 
Q 1150 -91 751 415 
Q 353 922 353 1747 
Q 353 2572 751 3078 
Q 1150 3584 1784 3584 
Q 2172 3584 2448 3432 
Q 2725 3281 2906 2969 
z
M 947 1747 
Q 947 1113 1208 752 
Q 1469 391 1925 391 
Q 2381 391 2643 752 
Q 2906 1113 2906 1747 
Q 2906 2381 2643 2742 
Q 2381 3103 1925 3103 
Q 1469 3103 1208 2742 
Q 947 2381 947 1747 
z
" transform="scale(0.015625)"/>
      </defs>
      <use xlink:href="#DejaVuSans-4c"/>
      <use xlink:href="#DejaVuSans-69" transform="translate(55.712891 0)"/>
      <use xlink:href="#DejaVuSans-67" transform="translate(83.496094 0)"/>
      <use xlink:href="#DejaVuSans-61" transform="translate(146.972656 0)"/>
      <use xlink:href="#DejaVuSans-6e" transform="translate(208.251953 0)"/>
      <use xlink:href="#DejaVuSans-64" transform="translate(271.630859 0)"/>
      <use xlink:href="#DejaVuSans-20" transform="translate(335.107422 0)"/>
      <use xlink:href="#DejaVuSans-53" transform="translate(366.894531 0)"/>
      <use xlink:href="#DejaVuSans-41" transform="translate(432.246094 0)"/>
      <use xlink:href="#DejaVuSans-53" transform="translate(500.654297 0)"/>
      <use xlink:href="#DejaVuSans-41" transform="translate(566.005859 0)"/>
      <use xlink:href="#DejaVuSans-20" transform="translate(634.414062 0)"/>
      <use xlink:href="#DejaVuSans-28" transform="translate(666.201172 0)"/>
      <use xlink:href="#DejaVuSans-6e" transform="translate(705.214844 0)"/>
      <use xlink:href="#DejaVuSans-6d" transform="translate(768.59375 0)"/>
      <use xlink:href="#DejaVuSans-32" transform="translate(866.005859 0)"/>
      <use xlink:href="#DejaVuSans-29" transform="translate(929.628906 0)"/>
     </g>
    </g>
   </g>
   <g id="line2d_73">
    <path d="M 59.992216 439.074574 
L 61.869125 443.030853 
L 63.746034 441.121692 
L 65.622943 442.055399 
L 67.499852 442.316615 
L 69.376761 443.881287 
L 71.25367 431.76222 
L 73.13058 417.32499 
L 75.007489 441.370723 
L 76.884398 440.611675 
L 78.761307 427.858041 
L 80.638216 407.847723 
L 82.515125 426.55214 
L 84.392034 425.516693 
L 86.268943 399.903925 
L 88.145852 394.432138 
L 90.022761 397.580026 
L 91.89967 394.530077 
L 93.77658 370.443203 
L 95.653489 413.960347 
L 97.530398 403.337573 
L 99.407307 405.470193 
L 101.284216 388.780176 
L 103.161125 384.806362 
L 105.038034 405.15118 
L 106.914943 389.795622 
L 108.791852 416.676488 
L 110.668761 414.574969 
L 112.54567 422.257017 
L 114.42258 413.718441 
L 116.299489 423.602596 
L 118.176398 411.735093 
L 120.053307 412.165182 
L 121.930216 417.521541 
L 123.807125 426.31475 
L 125.684034 418.334903 
L 127.560943 427.405111 
L 129.437852 427.942524 
L 131.314761 421.466937 
L 133.19167 420.556608 
L 135.06858 429.960921 
L 136.945489 426.276179 
L 138.822398 425.463571 
L 140.699307 405.336877 
L 142.576216 418.684367 
L 144.453125 424.386138 
L 146.330034 429.252534 
L 148.206943 429.188742 
L 150.083852 429.754265 
L 151.960761 424.610853 
L 157.591489 430.029743 
L 159.468398 423.052142 
L 161.345307 426.076379 
L 163.222216 426.337102 
L 165.099125 427.47572 
L 166.976034 416.421924 
L 168.852943 432.874318 
L 170.729852 420.760183 
L 172.606761 424.139711 
L 174.48367 417.543884 
L 176.36058 413.494698 
L 178.237489 423.898598 
L 180.114398 430.332128 
L 181.991307 425.977157 
L 183.868216 424.032237 
L 185.745125 416.636832 
L 187.622034 411.419308 
L 189.498943 409.290343 
L 191.375852 422.955186 
L 193.252761 414.363018 
L 195.12967 421.76 
L 197.00658 430.293058 
L 198.883489 413.992347 
L 200.760398 420.674472 
L 202.637307 408.582472 
L 204.514216 420.223941 
L 206.391125 413.441449 
L 208.268034 415.51288 
L 210.144943 405.590697 
L 212.021852 415.684044 
L 213.898761 411.459745 
L 217.65258 396.972774 
L 219.529489 411.004722 
L 221.406398 407.258207 
L 223.283307 413.80481 
L 225.160216 405.441948 
L 227.037125 401.160377 
L 228.914034 405.090769 
L 230.790943 396.448664 
L 232.667852 386.896006 
L 234.544761 406.791368 
L 236.42167 395.613315 
L 238.29858 381.0706 
L 240.175489 389.786846 
L 242.052398 380.436174 
L 243.929307 372.453509 
L 245.806216 370.314608 
L 247.683125 375.010417 
L 249.560034 371.498752 
L 251.436943 384.622541 
L 253.313852 383.367097 
L 255.190761 378.818919 
L 257.06767 395.716342 
L 258.94458 390.13383 
L 260.821489 381.050126 
L 262.698398 378.977934 
L 264.575307 372.596429 
L 266.452216 375.847736 
L 270.206034 386.951629 
L 272.082943 374.113404 
L 273.959852 371.95797 
L 275.836761 374.832058 
L 277.71367 361.704101 
L 279.59058 375.591953 
L 281.467489 386.47695 
L 283.344398 374.924192 
L 285.221307 376.158567 
L 287.098216 392.023066 
L 288.975125 396.547101 
L 290.852034 367.772721 
L 292.728943 357.077003 
L 294.605852 354.301588 
L 296.482761 368.410283 
L 298.35967 379.706968 
L 300.23658 344.287059 
L 302.113489 386.974681 
L 303.990398 382.101227 
L 305.867307 368.378139 
L 307.744216 373.678552 
L 309.621125 361.129761 
L 311.498034 393.838413 
L 313.374943 386.277233 
L 315.251852 386.872386 
L 317.128761 365.91745 
L 319.00567 388.269317 
L 320.88258 378.005663 
L 322.759489 380.464192 
L 324.636398 385.545667 
L 326.513307 387.761103 
L 328.390216 398.348395 
L 330.267125 386.224839 
L 332.144034 377.07214 
L 334.020943 401.652963 
L 335.897852 392.879858 
L 337.774761 394.715453 
L 339.65167 387.231238 
L 341.52858 408.472093 
L 343.405489 400.361712 
L 345.282398 380.918461 
L 347.159307 382.898611 
L 349.036216 395.958616 
L 350.913125 388.645402 
L 352.790034 398.482441 
L 354.666943 397.37216 
L 356.543852 379.596517 
L 358.420761 391.754417 
L 360.29767 389.09129 
L 362.17458 386.904875 
L 364.051489 401.069828 
L 365.928398 395.167749 
L 367.805307 392.871095 
L 369.682216 378.989197 
L 371.559125 378.390841 
L 373.436034 381.024048 
L 375.312943 397.587631 
L 377.189852 390.578692 
L 379.066761 388.196425 
L 380.94367 380.098606 
L 382.82058 387.855414 
L 384.697489 380.130386 
L 386.574398 395.1057 
L 388.451307 391.895101 
L 390.328216 397.163224 
L 392.205125 384.703647 
L 394.082034 398.435895 
L 395.958943 384.514928 
L 397.835852 380.886391 
L 399.712761 379.189466 
L 401.58967 396.39669 
L 403.46658 402.633245 
L 405.343489 387.786536 
L 407.220398 390.435435 
L 409.097307 395.863635 
L 410.974216 374.647267 
L 414.728034 407.494121 
L 416.604943 387.226274 
L 418.481852 397.8912 
L 420.358761 393.306309 
L 422.23567 398.055666 
L 424.11258 394.618999 
L 425.989489 402.087984 
L 427.866398 373.579766 
L 429.743307 384.452369 
L 431.620216 401.352331 
L 433.497125 386.637733 
L 433.497125 386.637733 
" clip-path="url(#p34a30d2081)" style="fill: none; stroke: #1f77b4; stroke-linecap: square"/>
   </g>
   <g id="line2d_74">
    <path d="M 59.992216 442.897607 
L 63.746034 436.936269 
L 65.622943 434.780307 
L 69.376761 431.731882 
L 71.25367 396.220254 
L 73.13058 423.274399 
L 75.007489 421.718988 
L 76.884398 417.83453 
L 78.761307 413.003452 
L 80.638216 423.907704 
L 82.515125 438.617603 
L 84.392034 437.786415 
L 86.268943 423.992141 
L 88.145852 426.207082 
L 90.022761 406.014141 
L 91.89967 421.819122 
L 93.77658 418.321397 
L 95.653489 418.084734 
L 97.530398 428.939859 
L 99.407307 407.285038 
L 101.284216 410.912008 
L 103.161125 430.898082 
L 105.038034 423.48702 
L 106.914943 426.578218 
L 108.791852 413.991537 
L 110.668761 418.223742 
L 112.54567 414.803437 
L 114.42258 418.619204 
L 116.299489 411.155024 
L 118.176398 416.949801 
L 120.053307 426.406494 
L 121.930216 421.884809 
L 123.807125 428.103912 
L 125.684034 425.387342 
L 127.560943 420.056209 
L 129.437852 425.818417 
L 131.314761 436.116707 
L 133.19167 419.855274 
L 135.06858 431.149408 
L 136.945489 427.834866 
L 138.822398 428.061085 
L 140.699307 420.108596 
L 142.576216 418.865018 
L 144.453125 412.38478 
L 146.330034 419.528861 
L 148.206943 434.286328 
L 150.083852 425.314159 
L 151.960761 422.642391 
L 153.83767 434.725901 
L 155.71458 423.35358 
L 157.591489 425.184572 
L 159.468398 418.983309 
L 161.345307 429.279479 
L 163.222216 433.993078 
L 165.099125 421.768647 
L 166.976034 406.927118 
L 168.852943 417.938369 
L 170.729852 416.479285 
L 172.606761 424.627508 
L 174.48367 424.530629 
L 176.36058 424.778169 
L 178.237489 426.795703 
L 180.114398 429.709998 
L 181.991307 413.310044 
L 183.868216 419.638319 
L 185.745125 416.928093 
L 187.622034 409.692462 
L 189.498943 419.501953 
L 191.375852 407.369963 
L 193.252761 414.728106 
L 195.12967 414.611947 
L 197.00658 427.238182 
L 198.883489 430.172416 
L 200.760398 423.286493 
L 204.514216 403.919988 
L 206.391125 418.371852 
L 208.268034 420.007531 
L 210.144943 430.078335 
L 212.021852 417.38951 
L 213.898761 408.955255 
L 217.65258 428.738253 
L 219.529489 420.64305 
L 221.406398 412.043341 
L 223.283307 413.024189 
L 225.160216 425.306681 
L 227.037125 427.482964 
L 228.914034 430.977655 
L 230.790943 406.647067 
L 232.667852 408.228191 
L 234.544761 406.515911 
L 236.42167 421.542092 
L 238.29858 419.616478 
L 240.175489 405.996515 
L 242.052398 418.838805 
L 243.929307 423.778542 
L 245.806216 430.540267 
L 247.683125 416.961051 
L 249.560034 425.597811 
L 251.436943 428.225307 
L 253.313852 404.80001 
L 255.190761 420.751629 
L 257.06767 419.310112 
L 258.94458 398.258794 
L 260.821489 411.365046 
L 262.698398 408.893182 
L 264.575307 405.975677 
L 266.452216 423.142543 
L 268.329125 400.855297 
L 270.206034 423.309652 
L 272.082943 416.061932 
L 273.959852 414.999886 
L 275.836761 405.183844 
L 277.71367 427.753555 
L 279.59058 404.580369 
L 281.467489 423.844841 
L 283.344398 420.126279 
L 285.221307 425.464362 
L 287.098216 409.134296 
L 288.975125 420.648911 
L 290.852034 426.793535 
L 292.728943 422.667703 
L 294.605852 424.081558 
L 296.482761 424.494412 
L 298.35967 427.412917 
L 300.23658 428.014451 
L 302.113489 411.572604 
L 303.990398 420.788428 
L 305.867307 420.060834 
L 307.744216 412.662038 
L 309.621125 420.515873 
L 311.498034 414.869211 
L 313.374943 416.988114 
L 315.251852 422.016786 
L 317.128761 434.748962 
L 319.00567 420.038205 
L 322.759489 435.361393 
L 324.636398 430.953339 
L 326.513307 429.080032 
L 328.390216 412.68605 
L 330.267125 425.91488 
L 332.144034 422.604599 
L 334.020943 420.893198 
L 335.897852 423.450277 
L 337.774761 428.415917 
L 339.65167 421.761871 
L 341.52858 423.156108 
L 343.405489 428.710492 
L 345.282398 422.818523 
L 347.159307 416.479547 
L 349.036216 431.704916 
L 350.913125 424.738627 
L 352.790034 427.526239 
L 354.666943 422.341976 
L 356.543852 411.659431 
L 358.420761 418.91649 
L 360.29767 424.971734 
L 362.17458 416.529557 
L 364.051489 425.361445 
L 365.928398 425.818771 
L 367.805307 429.520061 
L 369.682216 435.273138 
L 371.559125 429.233085 
L 373.436034 420.474752 
L 375.312943 427.549656 
L 377.189852 419.378815 
L 379.066761 410.192264 
L 380.94367 425.193486 
L 382.82058 428.271882 
L 384.697489 424.884784 
L 386.574398 426.437568 
L 388.451307 433.5018 
L 390.328216 430.094616 
L 392.205125 425.885413 
L 394.082034 426.023037 
L 395.958943 412.404163 
L 397.835852 406.493028 
L 399.712761 421.859629 
L 401.58967 422.195844 
L 403.46658 426.508743 
L 405.343489 421.747334 
L 407.220398 407.066068 
L 409.097307 422.452975 
L 410.974216 420.198389 
L 412.851125 422.85951 
L 414.728034 418.856985 
L 416.604943 407.256929 
L 418.481852 426.513151 
L 420.358761 419.045178 
L 422.23567 409.26084 
L 424.11258 426.804495 
L 425.989489 417.648356 
L 427.866398 409.069273 
L 429.743307 412.366323 
L 431.620216 414.185687 
L 433.497125 419.947441 
L 435.374034 424.846287 
L 435.374034 424.846287 
" clip-path="url(#p34a30d2081)" style="fill: none; stroke: #2ca02c; stroke-linecap: square"/>
   </g>
   <g id="line2d_75">
    <path d="M 59.992216 438.004987 
L 61.869125 445.071503 
L 63.746034 447.058281 
L 65.622943 445.081099 
L 67.499852 446.897485 
L 69.376761 447.830655 
L 71.25367 447.925845 
L 73.13058 446.262726 
L 75.007489 448.051765 
L 76.884398 437.61971 
L 78.761307 445.426876 
L 80.638216 446.400517 
L 82.515125 427.889234 
L 84.392034 438.733487 
L 86.268943 438.522253 
L 88.145852 434.89858 
L 90.022761 424.766486 
L 91.89967 434.963381 
L 93.77658 443.573767 
L 95.653489 434.736828 
L 97.530398 438.518285 
L 99.407307 434.120908 
L 101.284216 425.824729 
L 103.161125 425.518027 
L 105.038034 426.616315 
L 106.914943 417.798834 
L 108.791852 424.189994 
L 110.668761 433.488663 
L 114.42258 392.136434 
L 116.299489 424.75016 
L 118.176398 420.473648 
L 120.053307 413.650804 
L 121.930216 421.011685 
L 123.807125 412.709073 
L 125.684034 421.962068 
L 127.560943 427.071199 
L 129.437852 420.191845 
L 131.314761 411.894525 
L 133.19167 406.55225 
L 135.06858 418.950646 
L 136.945489 416.162338 
L 138.822398 409.549025 
L 140.699307 413.421245 
L 142.576216 422.931528 
L 144.453125 414.748561 
L 146.330034 402.214052 
L 148.206943 413.272749 
L 150.083852 415.42372 
L 151.960761 435.057313 
L 153.83767 404.900859 
L 155.71458 402.324026 
L 157.591489 415.179738 
L 159.468398 412.700936 
L 161.345307 412.706149 
L 163.222216 410.141872 
L 165.099125 397.640057 
L 166.976034 388.254671 
L 168.852943 393.910046 
L 170.729852 386.617539 
L 172.606761 426.512844 
L 174.48367 401.429603 
L 176.36058 399.790554 
L 178.237489 401.157011 
L 180.114398 399.316913 
L 181.991307 429.237039 
L 183.868216 431.344763 
L 185.745125 436.942677 
L 187.622034 418.497737 
L 189.498943 430.285078 
L 191.375852 413.103734 
L 193.252761 422.208323 
L 195.12967 426.790702 
L 197.00658 410.003767 
L 198.883489 412.872316 
L 200.760398 427.472864 
L 202.637307 427.418615 
L 204.514216 421.088176 
L 206.391125 423.689461 
L 208.268034 417.382133 
L 210.144943 404.92846 
L 212.021852 412.51708 
L 213.898761 419.28071 
L 215.77567 427.716396 
L 217.65258 427.926354 
L 219.529489 429.37619 
L 221.406398 429.306711 
L 223.283307 426.086835 
L 225.160216 434.978279 
L 228.914034 426.686389 
L 230.790943 426.391061 
L 232.667852 432.423484 
L 234.544761 422.695218 
L 236.42167 430.184347 
L 238.29858 429.544001 
L 240.175489 422.902658 
L 242.052398 418.43344 
L 243.929307 418.105873 
L 245.806216 427.25246 
L 247.683125 420.395186 
L 249.560034 421.939672 
L 251.436943 422.268503 
L 253.313852 409.893766 
L 255.190761 425.05753 
L 257.06767 412.784379 
L 258.94458 408.54585 
L 260.821489 404.818103 
L 262.698398 416.530329 
L 264.575307 422.317783 
L 266.452216 419.081246 
L 268.329125 404.72518 
L 270.206034 412.368251 
L 272.082943 418.559317 
L 273.959852 405.710745 
L 275.836761 414.546427 
L 277.71367 414.60774 
L 279.59058 405.345559 
L 281.467489 417.19206 
L 283.344398 397.256308 
L 285.221307 415.971369 
L 287.098216 392.863439 
L 288.975125 411.253401 
L 290.852034 420.106724 
L 292.728943 423.08542 
L 294.605852 420.019447 
L 296.482761 418.072577 
L 298.35967 427.602138 
L 300.23658 429.672611 
L 302.113489 415.977841 
L 303.990398 421.022223 
L 305.867307 425.242219 
L 307.744216 431.816585 
L 309.621125 426.715459 
L 311.498034 427.863958 
L 313.374943 426.113513 
L 315.251852 436.756378 
L 317.128761 430.221832 
L 319.00567 426.832047 
L 320.88258 439.485082 
L 322.759489 441.685919 
L 324.636398 427.097307 
L 326.513307 436.111569 
L 328.390216 417.83756 
L 330.267125 425.718801 
L 332.144034 420.620349 
L 334.020943 413.896589 
L 335.897852 406.475518 
L 339.65167 416.777137 
L 341.52858 415.885747 
L 343.405489 425.042461 
L 345.282398 424.004938 
L 347.159307 419.221285 
L 349.036216 422.841626 
L 350.913125 408.060251 
L 352.790034 422.681804 
L 354.666943 427.252349 
L 356.543852 422.813875 
L 358.420761 413.359263 
L 360.29767 426.80677 
L 362.17458 429.486398 
L 364.051489 433.508823 
L 365.928398 421.15617 
L 367.805307 432.491803 
L 369.682216 428.476026 
L 371.559125 425.230749 
L 373.436034 423.065616 
L 375.312943 441.537792 
L 377.189852 420.253487 
L 379.066761 421.970322 
L 380.94367 414.603158 
L 382.82058 422.153865 
L 384.697489 430.755021 
L 386.574398 427.000911 
L 388.451307 429.986684 
L 390.328216 415.525009 
L 392.205125 420.581197 
L 395.958943 427.731296 
L 397.835852 415.096913 
L 399.712761 425.601885 
L 401.58967 425.066829 
L 403.46658 425.115663 
L 405.343489 421.302744 
L 407.220398 413.958148 
L 409.097307 420.544095 
L 410.974216 410.614479 
L 412.851125 419.999291 
L 414.728034 416.970024 
L 416.604943 413.507442 
L 418.481852 421.066439 
L 420.358761 423.484872 
L 422.23567 425.324619 
L 424.11258 421.539092 
L 425.989489 422.820569 
L 429.743307 405.989374 
L 431.620216 405.173714 
L 433.497125 415.824302 
L 433.497125 415.824302 
" clip-path="url(#p34a30d2081)" style="fill: none; stroke: #d62728; stroke-linecap: square"/>
   </g>
   <g id="patch_13">
    <path d="M 41.223125 453.24 
L 41.223125 339.098824 
" style="fill: none; stroke: #000000; stroke-width: 0.8; stroke-linejoin: miter; stroke-linecap: square"/>
   </g>
   <g id="patch_14">
    <path d="M 454.143125 453.24 
L 454.143125 339.098824 
" style="fill: none; stroke: #000000; stroke-width: 0.8; stroke-linejoin: miter; stroke-linecap: square"/>
   </g>
   <g id="patch_15">
    <path d="M 41.223125 453.24 
L 454.143125 453.24 
" style="fill: none; stroke: #000000; stroke-width: 0.8; stroke-linejoin: miter; stroke-linecap: square"/>
   </g>
   <g id="patch_16">
    <path d="M 41.223125 339.098824 
L 454.143125 339.098824 
" style="fill: none; stroke: #000000; stroke-width: 0.8; stroke-linejoin: miter; stroke-linecap: square"/>
   </g>
   <g id="legend_3">
    <g id="line2d_76">
     <path d="M 49.323125 350.887417 
L 58.323125 350.887417 
L 67.323125 350.887417 
" style="fill: none; stroke: #1f77b4; stroke-linecap: square"/>
    </g>
    <g id="text_29">
     <!-- rep1 -->
     <g transform="translate(74.523125 354.037417) scale(0.09 -0.09)">
      <use xlink:href="#DejaVuSans-72"/>
      <use xlink:href="#DejaVuSans-65" transform="translate(38.863281 0)"/>
      <use xlink:href="#DejaVuSans-70" transform="translate(100.386719 0)"/>
      <use xlink:href="#DejaVuSans-31" transform="translate(163.863281 0)"/>
     </g>
    </g>
    <g id="line2d_77">
     <path d="M 112.998125 350.887417 
L 121.998125 350.887417 
L 130.998125 350.887417 
" style="fill: none; stroke: #2ca02c; stroke-linecap: square"/>
    </g>
    <g id="text_30">
     <!-- rep2 -->
     <g transform="translate(138.198125 354.037417) scale(0.09 -0.09)">
      <use xlink:href="#DejaVuSans-72"/>
      <use xlink:href="#DejaVuSans-65" transform="translate(38.863281 0)"/>
      <use xlink:href="#DejaVuSans-70" transform="translate(100.386719 0)"/>
      <use xlink:href="#DejaVuSans-32" transform="translate(163.863281 0)"/>
     </g>
    </g>
    <g id="line2d_78">
     <path d="M 176.673125 350.887417 
L 185.673125 350.887417 
L 194.673125 350.887417 
" style="fill: none; stroke: #d62728; stroke-linecap: square"/>
    </g>
    <g id="text_31">
     <!-- rep3 -->
     <g transform="translate(201.873125 354.037417) scale(0.09 -0.09)">
      <use xlink:href="#DejaVuSans-72"/>
      <use xlink:href="#DejaVuSans-65" transform="translate(38.863281 0)"/>
      <use xlink:href="#DejaVuSans-70" transform="translate(100.386719 0)"/>
      <use xlink:href="#DejaVuSans-33" transform="translate(163.863281 0)"/>
     </g>
    </g>
   </g>
  </g>
  <g id="text_32">
   <!-- SGLT2 Mol_13144 PBC-corrected ligand metrics across replicates -->
   <g transform="translate(66.051313 15.406312) scale(0.108 -0.108)">
    <defs>
     <path id="DejaVuSans-47" d="M 3809 666 
L 3809 1919 
L 2778 1919 
L 2778 2438 
L 4434 2438 
L 4434 434 
Q 4069 175 3628 42 
Q 3188 -91 2688 -91 
Q 1594 -91 976 548 
Q 359 1188 359 2328 
Q 359 3472 976 4111 
Q 1594 4750 2688 4750 
Q 3144 4750 3555 4637 
Q 3966 4525 4313 4306 
L 4313 3634 
Q 3963 3931 3569 4081 
Q 3175 4231 2741 4231 
Q 1884 4231 1454 3753 
Q 1025 3275 1025 2328 
Q 1025 1384 1454 906 
Q 1884 428 2741 428 
Q 3075 428 3337 486 
Q 3600 544 3809 666 
z
" transform="scale(0.015625)"/>
     <path id="DejaVuSans-6c" d="M 603 4863 
L 1178 4863 
L 1178 0 
L 603 0 
L 603 4863 
z
" transform="scale(0.015625)"/>
     <path id="DejaVuSans-5f" d="M 3263 -1063 
L 3263 -1509 
L -63 -1509 
L -63 -1063 
L 3263 -1063 
z
" transform="scale(0.015625)"/>
     <path id="DejaVuSans-42" d="M 1259 2228 
L 1259 519 
L 2272 519 
Q 2781 519 3026 730 
Q 3272 941 3272 1375 
Q 3272 1813 3026 2020 
Q 2781 2228 2272 2228 
L 1259 2228 
z
M 1259 4147 
L 1259 2741 
L 2194 2741 
Q 2656 2741 2882 2914 
Q 3109 3088 3109 3444 
Q 3109 3797 2882 3972 
Q 2656 4147 2194 4147 
L 1259 4147 
z
M 628 4666 
L 2241 4666 
Q 2963 4666 3353 4366 
Q 3744 4066 3744 3513 
Q 3744 3084 3544 2831 
Q 3344 2578 2956 2516 
Q 3422 2416 3680 2098 
Q 3938 1781 3938 1306 
Q 3938 681 3513 340 
Q 3088 0 2303 0 
L 628 0 
L 628 4666 
z
" transform="scale(0.015625)"/>
     <path id="DejaVuSans-43" d="M 4122 4306 
L 4122 3641 
Q 3803 3938 3442 4084 
Q 3081 4231 2675 4231 
Q 1875 4231 1450 3742 
Q 1025 3253 1025 2328 
Q 1025 1406 1450 917 
Q 1875 428 2675 428 
Q 3081 428 3442 575 
Q 3803 722 4122 1019 
L 4122 359 
Q 3791 134 3420 21 
Q 3050 -91 2638 -91 
Q 1578 -91 968 557 
Q 359 1206 359 2328 
Q 359 3453 968 4101 
Q 1578 4750 2638 4750 
Q 3056 4750 3426 4639 
Q 3797 4528 4122 4306 
z
" transform="scale(0.015625)"/>
     <path id="DejaVuSans-2d" d="M 313 2009 
L 1997 2009 
L 1997 1497 
L 313 1497 
L 313 2009 
z
" transform="scale(0.015625)"/>
    </defs>
    <use xlink:href="#DejaVuSans-53"/>
    <use xlink:href="#DejaVuSans-47" transform="translate(63.476562 0)"/>
    <use xlink:href="#DejaVuSans-4c" transform="translate(140.966797 0)"/>
    <use xlink:href="#DejaVuSans-54" transform="translate(182.929688 0)"/>
    <use xlink:href="#DejaVuSans-32" transform="translate(244.013672 0)"/>
    <use xlink:href="#DejaVuSans-20" transform="translate(307.636719 0)"/>
    <use xlink:href="#DejaVuSans-4d" transform="translate(339.423828 0)"/>
    <use xlink:href="#DejaVuSans-6f" transform="translate(425.703125 0)"/>
    <use xlink:href="#DejaVuSans-6c" transform="translate(486.884766 0)"/>
    <use xlink:href="#DejaVuSans-5f" transform="translate(514.667969 0)"/>
    <use xlink:href="#DejaVuSans-31" transform="translate(564.667969 0)"/>
    <use xlink:href="#DejaVuSans-33" transform="translate(628.291016 0)"/>
    <use xlink:href="#DejaVuSans-31" transform="translate(691.914062 0)"/>
    <use xlink:href="#DejaVuSans-34" transform="translate(755.537109 0)"/>
    <use xlink:href="#DejaVuSans-34" transform="translate(819.160156 0)"/>
    <use xlink:href="#DejaVuSans-20" transform="translate(882.783203 0)"/>
    <use xlink:href="#DejaVuSans-50" transform="translate(914.570312 0)"/>
    <use xlink:href="#DejaVuSans-42" transform="translate(974.873047 0)"/>
    <use xlink:href="#DejaVuSans-43" transform="translate(1041.726562 0)"/>
    <use xlink:href="#DejaVuSans-2d" transform="translate(1111.550781 0)"/>
    <use xlink:href="#DejaVuSans-63" transform="translate(1147.634766 0)"/>
    <use xlink:href="#DejaVuSans-6f" transform="translate(1202.615234 0)"/>
    <use xlink:href="#DejaVuSans-72" transform="translate(1263.796875 0)"/>
    <use xlink:href="#DejaVuSans-72" transform="translate(1303.160156 0)"/>
    <use xlink:href="#DejaVuSans-65" transform="translate(1342.023438 0)"/>
    <use xlink:href="#DejaVuSans-63" transform="translate(1403.546875 0)"/>
    <use xlink:href="#DejaVuSans-74" transform="translate(1458.527344 0)"/>
    <use xlink:href="#DejaVuSans-65" transform="translate(1497.736328 0)"/>
    <use xlink:href="#DejaVuSans-64" transform="translate(1559.259766 0)"/>
    <use xlink:href="#DejaVuSans-20" transform="translate(1622.736328 0)"/>
    <use xlink:href="#DejaVuSans-6c" transform="translate(1654.523438 0)"/>
    <use xlink:href="#DejaVuSans-69" transform="translate(1682.306641 0)"/>
    <use xlink:href="#DejaVuSans-67" transform="translate(1710.089844 0)"/>
    <use xlink:href="#DejaVuSans-61" transform="translate(1773.566406 0)"/>
    <use xlink:href="#DejaVuSans-6e" transform="translate(1834.845703 0)"/>
    <use xlink:href="#DejaVuSans-64" transform="translate(1898.224609 0)"/>
    <use xlink:href="#DejaVuSans-20" transform="translate(1961.701172 0)"/>
    <use xlink:href="#DejaVuSans-6d" transform="translate(1993.488281 0)"/>
    <use xlink:href="#DejaVuSans-65" transform="translate(2090.900391 0)"/>
    <use xlink:href="#DejaVuSans-74" transform="translate(2152.423828 0)"/>
    <use xlink:href="#DejaVuSans-72" transform="translate(2191.632812 0)"/>
    <use xlink:href="#DejaVuSans-69" transform="translate(2232.746094 0)"/>
    <use xlink:href="#DejaVuSans-63" transform="translate(2260.529297 0)"/>
    <use xlink:href="#DejaVuSans-73" transform="translate(2315.509766 0)"/>
    <use xlink:href="#DejaVuSans-20" transform="translate(2367.609375 0)"/>
    <use xlink:href="#DejaVuSans-61" transform="translate(2399.396484 0)"/>
    <use xlink:href="#DejaVuSans-63" transform="translate(2460.675781 0)"/>
    <use xlink:href="#DejaVuSans-72" transform="translate(2515.65625 0)"/>
    <use xlink:href="#DejaVuSans-6f" transform="translate(2554.519531 0)"/>
    <use xlink:href="#DejaVuSans-73" transform="translate(2615.701172 0)"/>
    <use xlink:href="#DejaVuSans-73" transform="translate(2667.800781 0)"/>
    <use xlink:href="#DejaVuSans-20" transform="translate(2719.900391 0)"/>
    <use xlink:href="#DejaVuSans-72" transform="translate(2751.6875 0)"/>
    <use xlink:href="#DejaVuSans-65" transform="translate(2790.550781 0)"/>
    <use xlink:href="#DejaVuSans-70" transform="translate(2852.074219 0)"/>
    <use xlink:href="#DejaVuSans-6c" transform="translate(2915.550781 0)"/>
    <use xlink:href="#DejaVuSans-69" transform="translate(2943.333984 0)"/>
    <use xlink:href="#DejaVuSans-63" transform="translate(2971.117188 0)"/>
    <use xlink:href="#DejaVuSans-61" transform="translate(3026.097656 0)"/>
    <use xlink:href="#DejaVuSans-74" transform="translate(3087.376953 0)"/>
    <use xlink:href="#DejaVuSans-65" transform="translate(3126.585938 0)"/>
    <use xlink:href="#DejaVuSans-73" transform="translate(3188.109375 0)"/>
   </g>
  </g>
 </g>
 <defs>
  <clipPath id="pb2fba5b8e8">
   <rect x="41.223125" y="65.16" width="412.92" height="114.141176"/>
  </clipPath>
  <clipPath id="p4bc61e02f0">
   <rect x="41.223125" y="202.129412" width="412.92" height="114.141176"/>
  </clipPath>
  <clipPath id="p34a30d2081">
   <rect x="41.223125" y="339.098824" width="412.92" height="114.141176"/>
  </clipPath>
 </defs>
</svg>
